<svg xmlns="http://www.w3.org/2000/svg" viewBox="0 0 533.68 292.89"><title>about_pct_system</title><path d="M359.35,31c.75,1.13,2.14,1.64,3.93,1.71,1.49.07,4.7,0,6.25-.07a2,2,0,0,0-.23.68c-1.49.06-4.5.08-6,0a5.29,5.29,0,0,1-4.23-1.74c-.65.64-1.33,1.29-2,1.91l-.4-.65a25.19,25.19,0,0,0,2.05-1.81v-4h-1.92v-.65h2.57Zm-.08-7.06A9.75,9.75,0,0,0,357,21.54l.51-.37a10.14,10.14,0,0,1,2.33,2.35Zm5.12,6.75h-4.27V30.1h4.27V29H361.2V25.1h3.18V24h-3.72v-.57h3.72V22.32H365v1.16h3.75V24H365V25.1h3.25V29H365v1h4.31v.59H365v1.57h-.67ZM361,23.12h-.62V21.36h8.63v1.77h-.64v-1.2H361Zm.78,3.66h2.56V25.64h-2.56Zm2.56,1.73v-1.2h-2.56v1.2Zm.67-2.87v1.15h2.6V25.64Zm2.6,1.67H365v1.2h2.6Z" transform="translate(-0.57)" style="fill:#231815"/><path d="M382.91,23.07v2.64h-.67v-2H372.06v2h-.64V23.07h2.15a10.39,10.39,0,0,0-1.27-1.8l.57-.25a9.32,9.32,0,0,1,1.36,1.88l-.33.17h3a10.47,10.47,0,0,0-1.12-2l.58-.21a8.12,8.12,0,0,1,1.15,2l-.5.21h2.7A15.19,15.19,0,0,0,381.33,21l.67.28a20.64,20.64,0,0,1-1.46,1.83Zm-5.67,5.08c-.16.44-.31.91-.48,1.3h5.16V33.6h-.66V33h-8.06v.59h-.65V29.45h3.56c.14-.4.3-.89.41-1.3h-3.11V25h7.52v3.15Zm4,1.92h-8.06v2.35h8.06ZM374,27.57h6.22v-2H374Z" transform="translate(-0.57)" style="fill:#231815"/><path d="M390.25,24c0,.85-.11,1.73-.24,2.6h5.77s0,.27,0,.4c-.3,4.16-.58,5.71-1.12,6.24a1.34,1.34,0,0,1-1,.37c-.47,0-1.39,0-2.35-.06a1.45,1.45,0,0,0-.24-.68c1,.1,2,.11,2.39.11s.51,0,.65-.16c.44-.41.74-1.85,1-5.54H389.9c-.48,2.59-1.6,5-4.48,6.37a2.52,2.52,0,0,0-.5-.54c4-1.77,4.44-5.71,4.6-9.11H385v-.65h5.88V20.8h.68v2.56h6V24Z" transform="translate(-0.57)" style="fill:#231815"/><path d="M402.73,31.84l2.58-.52,0,.64-5.9,1.22-.18-.65c.76-.14,1.74-.33,2.83-.55V27.35h-2.66v-.62h2.66v-1.8h-1.84v-.58a10.71,10.71,0,0,1-.82.75,1.88,1.88,0,0,0-.47-.42A10.93,10.93,0,0,0,402,20.82h.71a21.09,21.09,0,0,1,2.76,2.77l-.5.52a18.16,18.16,0,0,0-2.53-2.69,13.82,13.82,0,0,1-2.18,2.9h4.3v.61h-1.84v1.8h2.56v.62h-2.56Zm-2.31-3.54a13.2,13.2,0,0,1,.67,2.72l-.59.16a13.48,13.48,0,0,0-.61-2.73Zm3.06,2.53a19.32,19.32,0,0,0,.81-2.66l.64.2c-.28.88-.62,1.94-.92,2.62Zm8.61-4.46h-3V33.6h-.68V26.38h-3.13v-.67h3.13V20.95h.68v4.77h3Z" transform="translate(-0.57)" style="fill:#231815"/><path d="M418.07,27.62l-2,.65v4.46c0,.47-.13.67-.42.79a6.19,6.19,0,0,1-1.74.11,2.72,2.72,0,0,0-.24-.64c.69,0,1.3,0,1.47,0s.27-.06.27-.27V28.5l-2,.64-.24-.66,2.26-.68V24.44h-2.09v-.65h2.09v-3h.67v3h1.8v.65h-1.8v3.14L418,27Zm6.25-2.05c.83,0,1-.27,1-1.87A2,2,0,0,0,426,24c-.13,1.8-.37,2.23-1.64,2.23h-3.64c-1.43,0-1.82-.21-1.82-1.2V20.89h.68v2.28a29.84,29.84,0,0,0,5-1.36l.55.51a34.06,34.06,0,0,1-5.53,1.41V25c0,.45.18.57,1.13.57Zm-5.4,2h6.52v6h-.66V33h-5.21v.68h-.65Zm.65.61v1.73h5.21V28.22Zm5.21,4.13V30.54h-5.21v1.81Z" transform="translate(-0.57)" style="fill:#231815"/><path d="M431.22,27.83a13,13,0,0,1-3.07,4.54c-.14-.11-.44-.33-.62-.44a10.82,10.82,0,0,0,3-4.27Zm8.93-2.43v.67h-5.81v6.56c0,.52-.14.74-.54.86a12.07,12.07,0,0,1-2.45.13,2.4,2.4,0,0,0-.25-.71c1,0,1.94,0,2.21,0s.34-.07.34-.31V26.07h-5.83V25.4Zm-1.2-2.77h-9.86V22h9.86Zm-1.67,5.09A17.73,17.73,0,0,1,440,32.06l-.65.3A17.59,17.59,0,0,0,436.68,28Z" transform="translate(-0.57)" style="fill:#231815"/><path d="M352.66,88.76V91h4.58V96c0,.48-.11.71-.51.83a11.28,11.28,0,0,1-2.47.13,3.37,3.37,0,0,0-.25-.68c1.12,0,2,0,2.23,0s.33-.08.33-.3V91.62h-3.9V98.9H352V91.62h-3.71v5.45h-.67V91H352V88.76h-5.88v-.67H352V86h.69v2.12h6v.67Z" transform="translate(-0.57)" style="fill:#231815"/><path d="M367.3,93.68c.76,2.7,2.31,4.5,3.9,4.48.48,0,.64-.59.72-2.14a1.58,1.58,0,0,0,.61.33c-.13,1.91-.47,2.47-1.36,2.47-2,0-3.75-2.12-4.57-5.15H362v4l4.88-.75,0,.67L360,98.7l-.17-.69,1.47-.21V86.85h9.89v4h-4.37a13.59,13.59,0,0,0,.31,2.23h5.13v.64ZM362,87.49v2.67h8.53V87.49ZM366.43,93a15.81,15.81,0,0,1-.31-2.23H362V93Z" transform="translate(-0.57)" style="fill:#231815"/><path d="M376.12,90.53v8.32h-.66V90.53h-1.87v-.65h1.87V86h.66v3.83h1.78v.65Zm5.36,3s0,.23,0,.34c-.14,3.27-.27,4.34-.55,4.71a.84.84,0,0,1-.65.3,8.35,8.35,0,0,1-1,0,1.27,1.27,0,0,0-.16-.58,9.62,9.62,0,0,0,1,0,.33.33,0,0,0,.33-.14c.21-.24.34-1.27.47-4.07H379.4c-.23,2-.79,3.72-2.11,4.79a2.4,2.4,0,0,0-.42-.42c1.22-1,1.71-2.55,1.92-4.37h-1.54V93.5h1.6c0-.5.06-1,.07-1.54h.62c0,.52,0,1-.08,1.54Zm.41-5.22a5.05,5.05,0,0,1-3.51,3.54,2,2,0,0,0-.37-.5,4.55,4.55,0,0,0,3.23-3h-2.72v-.61h2.87a11.43,11.43,0,0,0,.21-1.64h.65a14,14,0,0,1-.21,1.64h3.59s0,.23,0,.33c-.21,2.12-.4,2.94-.71,3.25a.93.93,0,0,1-.74.27c-.28,0-.85,0-1.41,0a1.66,1.66,0,0,0-.18-.62A12.06,12.06,0,0,0,384,91c.23,0,.34,0,.44-.11s.38-.89.55-2.56Zm4.36,5.56c-.11,3.27-.23,4.34-.51,4.71a.82.82,0,0,1-.65.3,10.93,10.93,0,0,1-1.15,0,2.46,2.46,0,0,0-.14-.61,8.84,8.84,0,0,0,1.06.06c.18,0,.28,0,.35-.14s.31-1.26.41-4.06H384c-.24,2.05-.82,3.73-2.25,4.78a1.58,1.58,0,0,0-.42-.44c1.3-.95,1.83-2.49,2-4.34h-1.49V93.5h1.54c0-.5.07-1,.08-1.56h.64c0,.54,0,1.06-.08,1.56h2.15Z" transform="translate(-0.57)" style="fill:#231815"/><path d="M391,86.3a22.25,22.25,0,0,1-1,2.7v9.86h-.64V90.29a14.57,14.57,0,0,1-1.54,2.36c-.07-.13-.27-.47-.38-.62a17.38,17.38,0,0,0,3-5.88Zm9.39,3.45c-.16,6.17-.25,8-.67,8.6a.88.88,0,0,1-.79.41c-.33,0-.91,0-1.43,0a1.86,1.86,0,0,0-.18-.65c.62.06,1.19.06,1.42.06a.41.41,0,0,0,.44-.18c.3-.42.45-2.36.58-8h-1.61v.48c0,2.76-.24,6-2.31,8.47a2.77,2.77,0,0,0-.54-.37,8.47,8.47,0,0,0,.62-.83c-1.87.23-3.72.45-5.13.61l-.14-.62,2.66-.25v-1.4H391v-.58h2.28V94.42H391.1V90.33h2.23V89.25h-2.45v-.57h2.45v-1.1c-.79.1-1.6.17-2.33.23a1.88,1.88,0,0,0-.2-.51,39,39,0,0,0,5-.72l.42.52a22.52,22.52,0,0,1-2.31.41v1.17h2.42v.57h-2.42v1.08h2.33v4.09h-2.33v1.06h2.38v.58h-2.38V97.4l2.32-.24a14.2,14.2,0,0,0,1.27-6.69V90H396.3v-.62h1.23V86.11h.62v3.24h2.25Zm-8.76,2.35h1.71V90.85h-1.71Zm0,1.78h1.71V92.61h-1.71Zm4.06-3h-1.8V92.1h1.8Zm0,1.75h-1.8v1.27h1.8Z" transform="translate(-0.57)" style="fill:#231815"/><path d="M5.63,128.86c-.13,4.81-.21,6.37-.58,6.82a.9.9,0,0,1-.76.37,15.32,15.32,0,0,1-1.54,0,1.83,1.83,0,0,0-.18-.64c.66.06,1.27.06,1.49.06a.44.44,0,0,0,.45-.17c.24-.33.37-1.85.48-6.15H2.9c-.16,2.79-.58,5.35-1.78,6.94a2.46,2.46,0,0,0-.55-.42c1.51-2,1.71-5.73,1.77-9.36H.69v-.64H3.35v-2.36H4v2.36H6.63v.64H3c0,.74,0,1.49-.07,2.21h2.7ZM7.78,126a10.38,10.38,0,0,1-1.37,2.39,4.58,4.58,0,0,0-.55-.44A11.71,11.71,0,0,0,8,123.23l.66.14a16.65,16.65,0,0,1-.61,2h5.45V126Zm4.31,9.38c.65,0,.76-.27.82-1.71a1.69,1.69,0,0,0,.61.27c-.1,1.61-.33,2.05-1.41,2.05H9c-1.25,0-1.58-.23-1.58-1.26v-4l-1,.5-.27-.54,1.3-.62v-2.3H8v2L9.69,129v-2.38h.62v2.08l1.85-.88.1-.1.13-.1.45.18,0,.13c0,2,0,4-.11,4.4a.7.7,0,0,1-.65.65,6.13,6.13,0,0,1-1,0,1.84,1.84,0,0,0-.16-.58c.31,0,.74,0,.88,0s.31,0,.35-.31.08-1.87.08-3.66l-1.88.89v4.41H9.69v-4.12L8,130.45v4.24c0,.54.14.65,1,.65Z" transform="translate(-0.57)" style="fill:#231815"/><path d="M20.42,126.2H15.18v-.61h5.25Zm-4.6,1.27h4.12v.59H15.83Zm0,1.87h4.12v.58H15.83Zm4.12,5.88H16.43v.69h-.61V131.2h4.12Zm0-10.86h-4v-.58h4Zm-3.47,7.44v2.81h2.89V131.8Zm5.88-6.37A4,4,0,0,1,20.49,129a2.55,2.55,0,0,0-.48-.48,3.41,3.41,0,0,0,1.66-3.11v-1.71h4.24v3.65c0,.28.06.31.33.31h.93c.3,0,.34-.17.35-1.6a1.9,1.9,0,0,0,.61.25c-.06,1.58-.23,2-.88,2H26.17c-.71,0-.91-.18-.91-.95v-3H22.32Zm4.88,4.1a8.91,8.91,0,0,1-2.53,4.19,9,9,0,0,0,3.49,1.74,3.67,3.67,0,0,0-.47.58,9.67,9.67,0,0,1-3.54-1.88,10.65,10.65,0,0,1-3.72,1.9,2.62,2.62,0,0,0-.4-.61,9.89,9.89,0,0,0,3.62-1.75,9.49,9.49,0,0,1-2.19-3.45l.61-.2a8.53,8.53,0,0,0,2.08,3.22A8,8,0,0,0,26.34,130H20.61v-.64h6l.13,0Z" transform="translate(-0.57)" style="fill:#231815"/><path d="M35.34,134.57a7.64,7.64,0,0,0,1.13-.16A4.43,4.43,0,0,0,40.25,130a4.17,4.17,0,0,0-4.2-4.27,26.11,26.11,0,0,1-.83,4.16c-.85,2.91-1.92,4.24-3.08,4.24s-2.31-1.27-2.31-3.55a5.82,5.82,0,0,1,6-5.53,4.94,4.94,0,0,1,5.21,5c0,2.93-2,4.84-5.22,5.21Zm0-8.78a5.15,5.15,0,0,0-4.77,4.78c0,2,1,2.8,1.63,2.8s1.56-.95,2.35-3.59A21.66,21.66,0,0,0,35.3,125.79Z" transform="translate(-0.57)" style="fill:#231815"/><path d="M44.68,125a10,10,0,0,1-1.26,1.6,2.79,2.79,0,0,0-.57-.38,8.14,8.14,0,0,0,2-3l.64.17a9.44,9.44,0,0,1-.48,1h4.07V125H46.22a7.2,7.2,0,0,1,.59,1.3l-.64.2a7.72,7.72,0,0,0-.67-1.5Zm11,0H52.12a6.59,6.59,0,0,1,.88,1.3l-.61.24a7.69,7.69,0,0,0-1-1.54H50a8.24,8.24,0,0,1-.92,1h.48v1.19h5.57v2.56H54.5v-2H44.13v2h-.65v-2.56h5.45v-1c-.1.08-.18.17-.28.24a3.92,3.92,0,0,0-.59-.37,7,7,0,0,0,2.26-2.87l.65.16a6.92,6.92,0,0,1-.52,1h5.23Zm-9.58,7.68H54V136h-.67v-.5H46.09v.54h-.67v-7.21h7.78v2.65H46.09Zm0-3.25v1.5h6.44v-1.5Zm0,3.82v1.71h7.24v-1.71Z" transform="translate(-0.57)" style="fill:#231815"/><path d="M61.74,133l-4.26,1.46-.18-.69,2-.64V129H57.58v-.64H59.3v-3.45H57.44v-.65h4.23v.65H60v3.45H61.5V129H60v3.92c.54-.17,1.12-.35,1.67-.55Zm8.54,1.9v.64H61.1v-.64h4.54v-2.28h-3.4V132h3.4v-1.94H62.47v-6.15h7.1v6.15H66.32V132h3.49v.64H66.32v2.28Zm-7.17-8.26h2.57v-2.14H63.11Zm0,2.79h2.57v-2.18H63.11Zm5.81-4.92H66.29v2.14h2.63Zm0,2.74H66.29v2.18h2.63Z" transform="translate(-0.57)" style="fill:#231815"/><path d="M7.4,146a19.79,19.79,0,0,0,6.27,5.71,2.53,2.53,0,0,0-.47.57,20.82,20.82,0,0,1-6.08-5.59,19,19,0,0,1-5.94,5.7,3.44,3.44,0,0,0-.44-.52,17.54,17.54,0,0,0,6-5.87Zm.2,11.77h5.62v.64H1.2v-.64H3.14v-5.43h.67v5.43H6.9v-8H7.6v3.47h4.26v.65H7.6Z" transform="translate(-0.57)" style="fill:#231815"/><path d="M27.59,147v.67H21.71v1.84h3.1v6.28H18v-6.28H21v-1.84h-5.8V147Zm-1,2.35h.65v9.43h-.65v-.85H16.35v.91h-.66v-9.49h.66v7.94H26.56Zm-8,3h2.5v-2.23h-2.5Zm0,2.84h2.5v-2.25h-2.5Zm5.62-5.08H21.7v2.23h2.49Zm0,2.83H21.7v2.25h2.49Z" transform="translate(-0.57)" style="fill:#231815"/><path d="M35.57,151.1a1.33,1.33,0,1,1-1.33,1.33A1.33,1.33,0,0,1,35.57,151.1Z" transform="translate(-0.57)" style="fill:#231815"/><path d="M46,156.21c.75,1.13,2.14,1.64,3.93,1.71,1.49.07,4.7,0,6.25-.07a2,2,0,0,0-.23.68c-1.49.06-4.5.08-6,0a5.29,5.29,0,0,1-4.23-1.74c-.65.64-1.33,1.29-2,1.91l-.4-.65a25.19,25.19,0,0,0,2.05-1.81v-4H43.38v-.65H46Zm-.08-7.06a9.75,9.75,0,0,0-2.29-2.41l.51-.37a10.14,10.14,0,0,1,2.33,2.35ZM51,155.9H46.71v-.59H51v-1H47.8v-3.95H51v-1.06H47.27v-.57H51v-1.16h.67v1.16H55.4v.57H51.65v1.06h3.25v3.95H51.65v1H56v.59H51.65v1.57H51Zm-3.34-7.57H47v-1.77h8.63v1.77H55v-1.2H47.65Zm.78,3.66H51v-1.15H48.43ZM51,153.72v-1.2H48.43v1.2Zm.67-2.87V152h2.6v-1.15Zm2.6,1.67h-2.6v1.2h2.6Z" transform="translate(-0.57)" style="fill:#231815"/><path d="M69.52,148.27v2.64h-.67v-2H58.67v2H58v-2.64h2.15a10.39,10.39,0,0,0-1.27-1.8l.57-.25a9.32,9.32,0,0,1,1.36,1.88l-.33.17h3a10.47,10.47,0,0,0-1.12-2L63,146a8.12,8.12,0,0,1,1.15,2l-.5.21h2.7a15.19,15.19,0,0,0,1.58-2.11l.67.28a20.64,20.64,0,0,1-1.46,1.83Zm-5.67,5.08c-.16.44-.31.91-.48,1.3h5.16v4.16h-.66v-.57H59.8v.59h-.65v-4.19h3.56c.14-.4.3-.89.41-1.3H60V150.2h7.52v3.15Zm4,1.92H59.8v2.35h8.06Zm-7.21-2.5h6.22v-2H60.65Z" transform="translate(-0.57)" style="fill:#231815"/><line x1="211.79" y1="46.12" x2="211.79" y2="112.88" style="fill:none;stroke:#000;stroke-miterlimit:10"/><line x1="331.62" y1="140.95" x2="450.08" y2="140.95" style="fill:none;stroke:#000;stroke-miterlimit:10"/><line x1="107.07" y1="153.29" x2="107.07" y2="214.37" style="fill:none;stroke:#000;stroke-miterlimit:10"/><line x1="176.88" y1="153.29" x2="176.88" y2="214.37" style="fill:none;stroke:#000;stroke-miterlimit:10"/><line x1="246.7" y1="153.29" x2="246.7" y2="214.37" style="fill:none;stroke:#000;stroke-miterlimit:10"/><line x1="316.52" y1="153.29" x2="316.52" y2="214.37" style="fill:none;stroke:#000;stroke-miterlimit:10"/><path d="M182.66,129.21V130H169.84v-.75Z" transform="translate(-0.57)" style="fill:#231815"/><path d="M189.45,129.88v5.45c0,.4-.1.61-.38.71a5.69,5.69,0,0,1-1.58.11,4,4,0,0,0-.23-.59c.65,0,1.19,0,1.34,0s.24-.06.24-.21V130l-2.84.33v.11c0,1.78-.16,4.17-1.16,5.76a2.19,2.19,0,0,0-.52-.34c1-1.54,1.09-3.72,1.09-5.42v0l-1,.11-.07-.64,1.06-.1V125.3h1.19a16.09,16.09,0,0,0,.61-2l.72.18c-.21.59-.47,1.25-.69,1.77h2.22v4l.68-.08v.61Zm-3.45-.21,2.84-.31v-3.47H186Zm1.19-3.06a6.73,6.73,0,0,1,.89,2l-.52.21a7.53,7.53,0,0,0-.83-2Zm.41,7.44h-.54v-3.38h.54Zm8.9-4.3a9.17,9.17,0,0,1-2.33,4.06,8.3,8.3,0,0,0,3.24,1.77,3.48,3.48,0,0,0-.44.57,8.83,8.83,0,0,1-3.28-1.9,10.31,10.31,0,0,1-3.39,1.92,2.66,2.66,0,0,0-.4-.58,9.22,9.22,0,0,0,3.32-1.81,10.08,10.08,0,0,1-2.08-3.41l.47-.14h-1.06v-.62h5.4l.11,0Zm-4.43-4a4,4,0,0,1-1.36,3.25,2.07,2.07,0,0,0-.5-.44,3.34,3.34,0,0,0,1.22-2.83v-1.83h3.86v3.34c0,.3,0,.47.08.5a.53.53,0,0,0,.28.06h.5a.83.83,0,0,0,.37-.06c.07,0,.14-.11.16-.28a8.27,8.27,0,0,0,.07-1.13,1.36,1.36,0,0,0,.54.27,7.42,7.42,0,0,1-.11,1.26.63.63,0,0,1-.37.41,1.67,1.67,0,0,1-.58.1h-.68a1.06,1.06,0,0,1-.67-.18c-.17-.14-.23-.33-.23-1v-2.62h-2.59Zm-.35,4.48a8.82,8.82,0,0,0,2,3.11,8,8,0,0,0,2-3.11Z" transform="translate(-0.57)" style="fill:#231815"/><path d="M204.17,131.93c-.4-.41-1.41-1.34-2.09-1.94v6.15h-.67v-5.9a14.75,14.75,0,0,1-2.43,2,2.75,2.75,0,0,0-.4-.55,13.84,13.84,0,0,0,4.71-5.08H199V126h2.36v-2.67h.67V126h1.57l.13,0,.41.27a12.76,12.76,0,0,1-2,3.13c.61.5,2,1.7,2.36,2Zm7.67,3.14v.66H203.9v-.66h3.78v-6.32h-3.23v-.67h3.23v-4.67h.68v4.67h3.2v.67h-3.2v6.32Z" transform="translate(-0.57)" style="fill:#231815"/><path d="M225.46,124v12.12h-.69v-.68h-10.3v.68h-.68V124Zm-.69,10.79V124.67h-10.3v10.14ZM224.1,128h-2.15v5.16c0,.47-.14.69-.5.81a12.4,12.4,0,0,1-2.15.08,5.67,5.67,0,0,0-.23-.62c.91,0,1.68,0,1.92,0s.3-.07.3-.27V128h-6v-.62h6v-2.05h.65v2.05h2.15Zm-6.93.93a9.69,9.69,0,0,1,1.84,2.72l-.57.3a10,10,0,0,0-1.81-2.77Z" transform="translate(-0.57)" style="fill:#231815"/><path d="M230.33,129.23a13,13,0,0,0-2.87-1.36l.35-.52a13.08,13.08,0,0,1,2.89,1.29ZM228,135.52a40.49,40.49,0,0,0,2.59-4.61l.5.44c-.71,1.5-1.71,3.34-2.49,4.63Zm3-10a10.91,10.91,0,0,0-2.81-1.53l.38-.52a11.8,11.8,0,0,1,2.83,1.49Zm8.74,10.68a12.57,12.57,0,0,0-.67-1.24c-2.84.21-5.81.4-7.79.51l-.1-.69,1.26-.06a36.38,36.38,0,0,0,1.9-4.62h-3.18v-.65h4.13v-3h-3.41v-.65h3.41v-2.47H236v2.47h3.55v.65H236v3h4.2v.65h-5a47.88,47.88,0,0,1-2,4.58c1.63-.08,3.61-.2,5.54-.33a20.8,20.8,0,0,0-1.67-2.26l.58-.3a20.35,20.35,0,0,1,2.74,4.06Z" transform="translate(-0.57)" style="fill:#231815"/><path d="M248.71,124.33c.11,1.73.89,8.67,6.34,11.12a2.46,2.46,0,0,0-.52.57c-4-1.87-5.52-6.11-6.1-9-.5,3-1.88,7-5.91,9a2.6,2.6,0,0,0-.52-.52c5.81-2.81,5.93-9.79,6-11.67h.72Z" transform="translate(-0.57)" style="fill:#231815"/><path d="M137.8,144.52c-.11.23-.27.62-.38.89a17.81,17.81,0,0,1-2.26,4.34,38.47,38.47,0,0,1,3.56,3.32l-.57.59a32.09,32.09,0,0,0-3.45-3.32A17.38,17.38,0,0,1,129,155l-.62-.55a16.2,16.2,0,0,0,5.76-4.61,43,43,0,0,0-4.09-2.94l.47-.57c1.26.82,3,2.07,4.07,2.93a15.94,15.94,0,0,0,2.14-4.16,7.35,7.35,0,0,0,.27-.89Z" transform="translate(-0.57)" style="fill:#231815"/><path d="M150.78,148.2a8,8,0,0,0,1-.06v.76l-1,0h-4.09a8.74,8.74,0,0,1-.82,4,6.85,6.85,0,0,1-2.74,2.49l-.68-.51a6,6,0,0,0,2.73-2.25,7.25,7.25,0,0,0,.78-3.75h-4.43c-.44,0-.78,0-1.16,0v-.78c.37,0,.72.06,1.16.06Zm-7.54-2.83c-.45,0-.83,0-1.16,0v-.79a9.25,9.25,0,0,0,1.13.07h5.06a8.5,8.5,0,0,0,1.19-.07v.79c-.37,0-.83,0-1.19,0Zm7.53.18a15.43,15.43,0,0,0-1.16-2l.54-.24a21.19,21.19,0,0,1,1.17,1.94Zm.85-2.72a18.77,18.77,0,0,1,1.22,1.92l-.55.25a13.33,13.33,0,0,0-1.19-1.94Z" transform="translate(-0.57)" style="fill:#231815"/><path d="M162.62,147a18,18,0,0,1-3.23,2.59v5.16a9.64,9.64,0,0,0,0,1h-.83a9,9,0,0,0,.06-1V150a25.26,25.26,0,0,1-4.71,2l-.41-.71a18,18,0,0,0,4.87-1.94,14.71,14.71,0,0,0,3.64-2.89Z" transform="translate(-0.57)" style="fill:#231815"/><path d="M175.52,145.21a2.51,2.51,0,0,0-.3.37,13.52,13.52,0,0,1-3.59,3.92L171,149a10.16,10.16,0,0,0,3.38-3.46h-8.46c-.5,0-1,0-1.54.06v-.86a10.9,10.9,0,0,0,1.54.11h8.42a3.68,3.68,0,0,0,.71-.07Zm-5.6,1.84c0,4-.48,6.44-3.95,8.08l-.68-.57a4.57,4.57,0,0,0,1.13-.54c2.43-1.4,2.73-3.72,2.73-6.1a6.19,6.19,0,0,0,0-.88Z" transform="translate(-0.57)" style="fill:#231815"/><path d="M183.75,148.05a1.33,1.33,0,1,1-1.33,1.33A1.33,1.33,0,0,1,183.75,148.05Z" transform="translate(-0.57)" style="fill:#231815"/><path d="M203.8,145.21a2.51,2.51,0,0,0-.3.37,13.52,13.52,0,0,1-3.59,3.92l-.62-.51a10.16,10.16,0,0,0,3.38-3.46h-8.46c-.5,0-1,0-1.54.06v-.86a10.9,10.9,0,0,0,1.54.11h8.42a3.68,3.68,0,0,0,.71-.07ZM198.2,147c0,4-.48,6.44-3.95,8.08l-.68-.57a4.57,4.57,0,0,0,1.13-.54c2.43-1.4,2.73-3.72,2.73-6.1a6.19,6.19,0,0,0,0-.88Z" transform="translate(-0.57)" style="fill:#231815"/><path d="M212.22,151.93a13.05,13.05,0,0,0,4.46-5l.44.75a13.68,13.68,0,0,1-4.47,4.91,15.55,15.55,0,0,1-5.74,2.32l-.47-.74A14.31,14.31,0,0,0,212.22,151.93Zm-1.34-4.43-.55.55a30.74,30.74,0,0,0-3.51-2.9l.5-.52A32.53,32.53,0,0,1,210.87,147.5Z" transform="translate(-0.57)" style="fill:#231815"/><path d="M221.89,147.91a46,46,0,0,1,6.11,2.4l-.31.75a36.37,36.37,0,0,0-5.8-2.36v5c0,.48,0,1.12.06,1.51h-.86c0-.4.06-1,.06-1.51v-8.27a8.77,8.77,0,0,0-.08-1.33H222c0,.38-.08,1-.08,1.33Zm4.55-.74a14.07,14.07,0,0,0-1.26-2.14l.54-.25a16.78,16.78,0,0,1,1.29,2.12Zm.91-3.07a20.45,20.45,0,0,1,1.33,2.11l-.57.28a13.56,13.56,0,0,0-1.3-2.12Z" transform="translate(-0.57)" style="fill:#231815"/><path d="M237.87,148.05a1.33,1.33,0,1,1-1.33,1.33A1.33,1.33,0,0,1,237.87,148.05Z" transform="translate(-0.57)" style="fill:#231815"/><path d="M257,145.88a3.54,3.54,0,0,0-.24.61,13.69,13.69,0,0,1-2.53,5,12.11,12.11,0,0,1-5.59,3.76l-.64-.61a11.3,11.3,0,0,0,5.62-3.56,12.49,12.49,0,0,0,2.41-4.75h-5.25a12.93,12.93,0,0,1-3.59,3.52l-.64-.47a11.42,11.42,0,0,0,4.47-4.91,4.29,4.29,0,0,0,.33-.92l.85.3c-.17.28-.35.67-.48.91a10.37,10.37,0,0,1-.51.91h4.43a1.66,1.66,0,0,0,.74-.11Z" transform="translate(-0.57)" style="fill:#231815"/><path d="M270.12,147.91a2.2,2.2,0,0,0-.16.33,9.18,9.18,0,0,1-2,4.07,10.17,10.17,0,0,1-5.06,2.89l-.57-.65a9.44,9.44,0,0,0,5-2.66,7.84,7.84,0,0,0,1.81-3.54h-7.91c-.33,0-.76,0-1.22,0v-.81a10.14,10.14,0,0,0,1.22.08h7.72a2,2,0,0,0,.64-.08Zm-8.87-3.49a9.5,9.5,0,0,0,1.15.06H268a8.81,8.81,0,0,0,1.13-.06v.78c-.31,0-.69,0-1.15,0H262.4c-.41,0-.78,0-1.15,0Z" transform="translate(-0.57)" style="fill:#231815"/><path d="M282.61,145.37a1.91,1.91,0,0,0-.14.54,13.56,13.56,0,0,1-2.11,5.26,10.43,10.43,0,0,1-5.49,3.71l-.62-.68a9.48,9.48,0,0,0,5.5-3.47,11.82,11.82,0,0,0,2-5h-7.61c-.51,0-.89,0-1.24,0V145a10.68,10.68,0,0,0,1.26.08h7.41a1.87,1.87,0,0,0,.55-.06Z" transform="translate(-0.57)" style="fill:#231815"/><path d="M287.94,149l-.72.25a34.91,34.91,0,0,0-1.56-3.82l.71-.27C286.71,145.92,287.6,148.1,287.94,149Zm8.57-3.89a5.23,5.23,0,0,0-.18.62A14,14,0,0,1,294,151a11.94,11.94,0,0,1-5.53,4l-.61-.61a11.41,11.41,0,0,0,5.53-3.83,12.81,12.81,0,0,0,2.32-5.76Zm-4.84,2.9-.69.24a36.37,36.37,0,0,0-1.34-3.68l.68-.23C290.61,145,291.46,147.3,291.67,148Z" transform="translate(-0.57)" style="fill:#231815"/><path d="M447.15,82.39c.83,4.8-4.67,9.61-4.67,9.61l1.92,3.36a49.37,49.37,0,0,0,.48,6.72,10.17,10.17,0,0,0,2.27,4.8l-10.91,9.61v6.72c0,3.36,10.91,7.21,10.91,7.21v4.32s1.57,1.44,3.5,6.24,7.69,4.32,7.69,4.32a72.28,72.28,0,0,1,.48,14.41c-.48,8.65,0,7.69,0,7.69a15.35,15.35,0,0,0,4.8,5.76c3.36,2.4,15.85,2.88,15.85,2.88s2.88,1,10.09,2.88,11,1.44,11,2.88,3.36,7.68,3.36,7.68l-2.4,2.88s-4.8,1.92-2.88,5.76,8.38,4.8,8.38,4.8v4.8s-3.58.48-4.54,3.36,4.32,3.84,4.32,3.84a19.43,19.43,0,0,1,.2,3.35l5.32.5,1.88,4.32s-.92,2.4,0,3.12-2.12,3.12-3.08,6-3.12,8.41-3.12,8.41S502.76,250,502.29,251s-2.88,7.21-3.36,8a8.75,8.75,0,0,0-.54,3.63l4.38,3.23,4.3,2.16s6.51,1.44,7.19,1.44,7.25,2.16,8.53,2.4c.63.12,1.6.35,2.43.56-.61-2.68-1.16-5.06-1.28-5.36-.28-.72-2.2-7-2.2-7s4.08-5.9,5.28-5.71a7.57,7.57,0,0,0,4.9-1.78,2.84,2.84,0,0,0,.38-.43,24.43,24.43,0,0,0,1.92-5.28l-3.36-4.8s-5-5-5-5.76,4.56-3.6,5.52-3.6,3.12,1,2.88-2.64-2.4-6.49-2.4-7.21.24-4.59.24-4.58-3.48-2.87-3.48-2.87-3.72.48-2.52-2.16,1.93-4.8,1.93-4.8l-4.06-4.32s-5.64-3.6-1.16-3.84a10.61,10.61,0,0,1,6.88,1.68l2.3-3.9.82-1.38s-7.21-5.76-7.68-8.17a3.5,3.5,0,0,1,1.44-3.6s-1-.48-1.2-5a9.57,9.57,0,0,0-2.88-6.73l-3.6-4.8-4.43-5.25a16.9,16.9,0,0,0,2.51-8,40.07,40.07,0,0,0-1.44-9.13l4.32-4.32s.72-9.61.72-10.81,5-1.2,7-5.52,1.92-11,3.12-16.09a70.77,70.77,0,0,0,1.44-11.53l.2-4.45,0-.84-8-3.84s4.13-2.64,2.45-5.29-3-3.12-2.45-4.08,2.21-6,2.21-6h3.12s.72-2.88-1-4.8-2.16-5.53-2.16-5.53h-5l-3.84-6.24-1.47-3.29a13.09,13.09,0,0,1-1.65.59c-5.28,1.49-5.76-10.14-5.76-10.14s-7.21-1.55-9.13,0a50.14,50.14,0,0,0-5.28,5.87l-7.21,1.92-6.25-7.79s-9.13,10.67-13.45,13.08-12-4.43-18.25-2.94a25.15,25.15,0,0,1-11.53,0A74.75,74.75,0,0,1,436,67.53l6,4.77S446.32,77.59,447.15,82.39Z" transform="translate(-0.57)" style="fill:#cacccd"/><path d="M473,133a13,13,0,0,0,5.74,6.13,2.43,2.43,0,0,0-.5.57,14,14,0,0,1-5.7-6.18v5h2.93v.68h-2.93V142h-.69v-2.79h-3v-.68h3v-5.06a15.07,15.07,0,0,1-5.69,6.22,3.56,3.56,0,0,0-.48-.55,13.89,13.89,0,0,0,5.7-6.15h-5.26v-.68h5.73v-3.1h.69v3.1h5.77V133Z" transform="translate(-0.57)" style="fill:#231815"/><path d="M487.43,138.2a13.14,13.14,0,0,0,5.42,2.93,2.42,2.42,0,0,0-.47.58,13.41,13.41,0,0,1-5.7-3.41V142H486v-3.65a15.21,15.21,0,0,1-5.63,3.32,2.69,2.69,0,0,0-.48-.57,14.74,14.74,0,0,0,5.38-2.9h-5v-.62H486v-1.25h-4.33v-5.12h1.12a8.82,8.82,0,0,0-1.4-1.7l.55-.27a6.86,6.86,0,0,1,1.53,1.84l-.24.13h3a7.28,7.28,0,0,0-1-1.88l.59-.21a6.17,6.17,0,0,1,1,1.88l-.54.21h2.83a17.18,17.18,0,0,0,1.56-2l.67.27a19.09,19.09,0,0,1-1.43,1.73h1.36v5.12h-4.57v1.25h5.87v.62Zm-5.11-4.71H486v-1.68h-3.68Zm3.68,2.25v-1.68h-3.68v1.68Zm4.57-3.93h-3.89v1.68h3.89Zm0,2.25h-3.89v1.68h3.89Z" transform="translate(-0.57)" style="fill:#231815"/><path d="M500.43,131.88v2.19H505v5.08c0,.48-.11.71-.51.83a11.28,11.28,0,0,1-2.47.13,3.37,3.37,0,0,0-.25-.68c1.12,0,2,0,2.23,0s.33-.08.33-.3v-4.41h-3.9V142h-.69v-7.29H496v5.45h-.67v-6.11h4.37v-2.19h-5.88v-.67h5.88v-2.12h.69v2.12h6v.67Z" transform="translate(-0.57)" style="fill:#231815"/><path d="M136.34,291.89V265.66c0-11.38-13.93-9.32-14.67-20.6-.35-5.43,4.67-9.76,4.67-17.6v-4.29a19,19,0,1,0-38,0v4.29c0,7.84,5,12.16,4.67,17.6-.73,11.28-14.67,9.22-14.67,20.6v26.23Z" transform="translate(-0.57)" style="fill:#cacccd"/><path d="M107.1,203.86l.43,0,.43,0Z" transform="translate(-0.57)" style="fill:#cacccd"/><path d="M205.34,291.89V265.66c0-11.38-13.93-9.32-14.67-20.6-.35-5.43,4.67-9.76,4.67-17.6v-4.29a19,19,0,1,0-38,0v4.29c0,7.84,5,12.16,4.67,17.6-.73,11.28-14.67,9.22-14.67,20.6v26.23Z" transform="translate(-0.57)" style="fill:#cacccd"/><path d="M176.1,203.86l.43,0,.43,0Z" transform="translate(-0.57)" style="fill:#cacccd"/><path d="M276.34,292.89V266.66c0-11.38-13.93-9.32-14.67-20.6-.35-5.43,4.67-9.76,4.67-17.6v-4.29a19,19,0,1,0-38,0v4.29c0,7.84,5,12.16,4.67,17.6-.73,11.28-14.67,9.22-14.67,20.6v26.23Z" transform="translate(-0.57)" style="fill:#cacccd"/><path d="M247.1,204.86l.43,0,.43,0Z" transform="translate(-0.57)" style="fill:#cacccd"/><path d="M346.34,292.89V266.66c0-11.38-13.93-9.32-14.67-20.6-.35-5.43,4.67-9.76,4.67-17.6v-4.29a19,19,0,1,0-38,0v4.29c0,7.84,5,12.16,4.67,17.6-.73,11.28-14.67,9.22-14.67,20.6v26.23Z" transform="translate(-0.57)" style="fill:#cacccd"/><path d="M317.1,204.86l.43,0,.43,0Z" transform="translate(-0.57)" style="fill:#cacccd"/><path d="M291.3,271c0-2.93,1.67-4.74,4.09-4.74a3.38,3.38,0,0,1,2.54,1.11l-.44.49a2.68,2.68,0,0,0-2.09-.92c-2,0-3.31,1.56-3.31,4s1.19,4.1,3.26,4.1a2.85,2.85,0,0,0,1.95-.65v-2.75h-2.12V271H298v3.68a3.72,3.72,0,0,1-2.75,1C292.91,275.75,291.3,273.93,291.3,271Z" transform="translate(-0.57)" style="fill:#231815"/><path d="M300.45,266.42h.75v9.17h-.75Z" transform="translate(-0.57)" style="fill:#231815"/><path d="M303.9,266.42h2.16c2.82,0,4.2,1.75,4.2,4.55s-1.38,4.61-4.19,4.61H303.9Zm2.09,8.52c2.41,0,3.48-1.6,3.48-4s-1.07-3.92-3.48-3.92h-1.33v7.9Z" transform="translate(-0.57)" style="fill:#231815"/><path d="M311.64,274.38l.46-.53a3.53,3.53,0,0,0,2.65,1.22c1.36,0,2.2-.72,2.2-1.76s-.72-1.46-1.62-1.86l-1.37-.6a2.54,2.54,0,0,1-1.86-2.29,2.44,2.44,0,0,1,2.72-2.3,3.5,3.5,0,0,1,2.59,1.11l-.43.49a2.94,2.94,0,0,0-2.16-.92c-1.17,0-1.95.62-1.95,1.56s.89,1.43,1.56,1.72l1.37.6c1,.47,1.92,1,1.92,2.44s-1.17,2.49-3,2.49A4.08,4.08,0,0,1,311.64,274.38Z" transform="translate(-0.57)" style="fill:#231815"/><path d="M324.88,265.13a14.85,14.85,0,0,0,5.62,4.51,3.33,3.33,0,0,0-.4.52,16,16,0,0,1-5.48-4.44,15.06,15.06,0,0,1-5.29,4.49,2.16,2.16,0,0,0-.37-.49,13.8,13.8,0,0,0,5.33-4.59Zm-5.33,6.35h10.36V272h-6.07c-.49,1-1.11,2.33-1.68,3.29,1.75-.05,3.82-.13,5.86-.21a17.52,17.52,0,0,0-1.91-1.95l.49-.29a17.89,17.89,0,0,1,3,3.33l-.53.34a9.62,9.62,0,0,0-.64-.89l-8.69.37-.09-.62,1.8-.05a28,28,0,0,0,1.63-3.32h-3.56Zm8.13-2.41v.58h-6v-.58Z" transform="translate(-0.57)" style="fill:#231815"/><path d="M336,274.95a15.9,15.9,0,0,1-3.92,1.57,5,5,0,0,0-.44-.47,13.06,13.06,0,0,0,3.76-1.47Zm5.77-5.77v5.29H333v-5.29Zm-.52-3.52v2.64h-7.71v-2.64Zm-7.62,5.1h7.53v-1.09h-7.53Zm0,1.6h7.53v-1.11h-7.53Zm0,1.6h7.53v-1.12h-7.53Zm.52-6.19h6.49v-1.58h-6.49Zm5,6.85a40.73,40.73,0,0,1,3.91,1.46l-.5.44a33,33,0,0,0-3.92-1.48Z" transform="translate(-0.57)" style="fill:#231815"/><path d="M221.49,271c0-2.93,1.67-4.74,4.09-4.74a3.38,3.38,0,0,1,2.54,1.11l-.44.49a2.68,2.68,0,0,0-2.09-.92c-2,0-3.31,1.56-3.31,4s1.19,4.1,3.26,4.1a2.85,2.85,0,0,0,1.95-.65v-2.75h-2.12V271h2.85v3.68a3.72,3.72,0,0,1-2.75,1C223.1,275.75,221.49,273.93,221.49,271Z" transform="translate(-0.57)" style="fill:#231815"/><path d="M230.64,266.42h.75v9.17h-.75Z" transform="translate(-0.57)" style="fill:#231815"/><path d="M234.09,266.42h2.16c2.82,0,4.2,1.75,4.2,4.55s-1.38,4.61-4.19,4.61h-2.17Zm2.09,8.52c2.41,0,3.48-1.6,3.48-4s-1.07-3.92-3.48-3.92h-1.33v7.9Z" transform="translate(-0.57)" style="fill:#231815"/><path d="M241.83,274.38l.46-.53a3.53,3.53,0,0,0,2.65,1.22c1.36,0,2.2-.72,2.2-1.76s-.72-1.46-1.62-1.86l-1.37-.6a2.54,2.54,0,0,1-1.86-2.29,2.44,2.44,0,0,1,2.72-2.3,3.5,3.5,0,0,1,2.59,1.11l-.43.49a2.94,2.94,0,0,0-2.16-.92c-1.17,0-1.95.62-1.95,1.56s.89,1.43,1.56,1.72l1.37.6c1,.47,1.92,1,1.92,2.44s-1.17,2.49-3,2.49A4.08,4.08,0,0,1,241.83,274.38Z" transform="translate(-0.57)" style="fill:#231815"/><path d="M255.07,265.13a14.84,14.84,0,0,0,5.62,4.51,3.33,3.33,0,0,0-.4.52,15.94,15.94,0,0,1-5.48-4.44,15.06,15.06,0,0,1-5.29,4.49,2.18,2.18,0,0,0-.36-.49,13.79,13.79,0,0,0,5.33-4.59Zm-5.33,6.35H260.1V272H254c-.49,1-1.11,2.33-1.68,3.29,1.75-.05,3.82-.13,5.86-.21a17.54,17.54,0,0,0-1.91-1.95l.49-.29a17.94,17.94,0,0,1,3,3.33l-.53.34a9.62,9.62,0,0,0-.64-.89L250,276l-.09-.62,1.8-.05A27.88,27.88,0,0,0,253.3,272h-3.56Zm8.13-2.41v.58h-6v-.58Z" transform="translate(-0.57)" style="fill:#231815"/><path d="M266.16,274.95a15.9,15.9,0,0,1-3.92,1.57,5,5,0,0,0-.44-.47,13.06,13.06,0,0,0,3.76-1.47Zm5.77-5.77v5.29h-8.74v-5.29Zm-.52-3.52v2.64h-7.71v-2.64Zm-7.62,5.1h7.53v-1.09H263.8Zm0,1.6h7.53v-1.11H263.8Zm0,1.6h7.53v-1.12H263.8Zm.51-6.19h6.49v-1.58h-6.49Zm5,6.85a40.73,40.73,0,0,1,3.91,1.46l-.5.44A33,33,0,0,0,268.8,275Z" transform="translate(-0.57)" style="fill:#231815"/><path d="M151.68,271c0-2.93,1.67-4.74,4.09-4.74a3.38,3.38,0,0,1,2.54,1.11l-.44.49a2.68,2.68,0,0,0-2.09-.92c-2,0-3.31,1.56-3.31,4s1.19,4.1,3.26,4.1a2.85,2.85,0,0,0,1.95-.65v-2.75h-2.12V271h2.85v3.68a3.72,3.72,0,0,1-2.75,1C153.29,275.75,151.68,273.93,151.68,271Z" transform="translate(-0.57)" style="fill:#231815"/><path d="M160.83,266.42h.75v9.17h-.75Z" transform="translate(-0.57)" style="fill:#231815"/><path d="M164.28,266.42h2.16c2.82,0,4.2,1.75,4.2,4.55s-1.38,4.61-4.19,4.61h-2.17Zm2.09,8.52c2.41,0,3.48-1.6,3.48-4s-1.07-3.92-3.48-3.92H165v7.9Z" transform="translate(-0.57)" style="fill:#231815"/><path d="M172,274.38l.46-.53a3.53,3.53,0,0,0,2.65,1.22c1.36,0,2.2-.72,2.2-1.76s-.72-1.46-1.62-1.86l-1.37-.6a2.54,2.54,0,0,1-1.86-2.29,2.44,2.44,0,0,1,2.72-2.3,3.5,3.5,0,0,1,2.59,1.11l-.43.49a2.94,2.94,0,0,0-2.16-.92c-1.17,0-1.95.62-1.95,1.56s.89,1.43,1.56,1.72l1.37.6c1,.47,1.92,1,1.92,2.44s-1.17,2.49-3,2.49A4.08,4.08,0,0,1,172,274.38Z" transform="translate(-0.57)" style="fill:#231815"/><path d="M185.26,265.13a14.84,14.84,0,0,0,5.62,4.51,3.33,3.33,0,0,0-.4.52,15.94,15.94,0,0,1-5.48-4.44,15.06,15.06,0,0,1-5.29,4.49,2.18,2.18,0,0,0-.36-.49,13.79,13.79,0,0,0,5.33-4.59Zm-5.33,6.35h10.36V272h-6.07c-.49,1-1.11,2.33-1.68,3.29,1.75-.05,3.82-.13,5.86-.21a17.54,17.54,0,0,0-1.91-1.95l.49-.29a17.94,17.94,0,0,1,3,3.33l-.53.34a9.62,9.62,0,0,0-.64-.89l-8.69.37-.09-.62,1.8-.05a27.88,27.88,0,0,0,1.63-3.32h-3.56Zm8.13-2.41v.58h-6v-.58Z" transform="translate(-0.57)" style="fill:#231815"/><path d="M196.35,274.95a15.9,15.9,0,0,1-3.92,1.57,5,5,0,0,0-.44-.47,13.06,13.06,0,0,0,3.76-1.47Zm5.77-5.77v5.29h-8.74v-5.29Zm-.52-3.52v2.64H193.9v-2.64Zm-7.62,5.1h7.53v-1.09H194Zm0,1.6h7.53v-1.11H194Zm0,1.6h7.53v-1.12H194Zm.51-6.19H201v-1.58H194.5Zm5,6.85a40.73,40.73,0,0,1,3.91,1.46l-.5.44A33,33,0,0,0,199,275Z" transform="translate(-0.57)" style="fill:#231815"/><path d="M81.87,271c0-2.93,1.67-4.74,4.09-4.74a3.38,3.38,0,0,1,2.54,1.11l-.44.49a2.68,2.68,0,0,0-2.09-.92c-2,0-3.31,1.56-3.31,4s1.19,4.1,3.26,4.1a2.85,2.85,0,0,0,1.95-.65v-2.75H85.75V271H88.6v3.68a3.72,3.72,0,0,1-2.75,1C83.48,275.75,81.87,273.93,81.87,271Z" transform="translate(-0.57)" style="fill:#231815"/><path d="M91,266.42h.75v9.17H91Z" transform="translate(-0.57)" style="fill:#231815"/><path d="M94.47,266.42h2.16c2.82,0,4.2,1.75,4.2,4.55s-1.38,4.61-4.19,4.61H94.47Zm2.09,8.52c2.41,0,3.48-1.6,3.48-4s-1.07-3.92-3.48-3.92H95.22v7.9Z" transform="translate(-0.57)" style="fill:#231815"/><path d="M102.21,274.38l.46-.53a3.53,3.53,0,0,0,2.65,1.22c1.36,0,2.2-.72,2.2-1.76s-.72-1.46-1.62-1.86l-1.37-.6a2.54,2.54,0,0,1-1.86-2.29,2.44,2.44,0,0,1,2.72-2.3,3.5,3.5,0,0,1,2.59,1.11l-.43.49a2.94,2.94,0,0,0-2.16-.92c-1.17,0-1.95.62-1.95,1.56s.89,1.43,1.56,1.72l1.37.6c1,.47,1.92,1,1.92,2.44s-1.17,2.49-3,2.49A4.08,4.08,0,0,1,102.21,274.38Z" transform="translate(-0.57)" style="fill:#231815"/><path d="M115.45,265.13a14.85,14.85,0,0,0,5.62,4.51,3.33,3.33,0,0,0-.4.52,16,16,0,0,1-5.48-4.44,15.06,15.06,0,0,1-5.29,4.49,2.16,2.16,0,0,0-.37-.49,13.8,13.8,0,0,0,5.33-4.59Zm-5.33,6.35h10.36V272h-6.07c-.49,1-1.11,2.33-1.68,3.29,1.75-.05,3.82-.13,5.86-.21a17.52,17.52,0,0,0-1.91-1.95l.49-.29a17.89,17.89,0,0,1,3,3.33l-.53.34a9.62,9.62,0,0,0-.64-.89l-8.69.37-.09-.62,1.8-.05a28,28,0,0,0,1.63-3.32h-3.56Zm8.13-2.41v.58h-6v-.58Z" transform="translate(-0.57)" style="fill:#231815"/><path d="M126.54,274.95a15.9,15.9,0,0,1-3.92,1.57,5,5,0,0,0-.44-.47,13.06,13.06,0,0,0,3.76-1.47Zm5.77-5.77v5.29h-8.74v-5.29Zm-.52-3.52v2.64h-7.71v-2.64Zm-7.62,5.1h7.53v-1.09h-7.53Zm0,1.6h7.53v-1.11h-7.53Zm0,1.6h7.53v-1.12h-7.53Zm.52-6.19h6.49v-1.58h-6.49Zm5,6.85a40.73,40.73,0,0,1,3.91,1.46l-.5.44a33,33,0,0,0-3.92-1.48Z" transform="translate(-0.57)" style="fill:#231815"/><rect x="91.97" width="239.65" height="56.12" style="fill:#cacccd"/><path d="M158,27.92c-.24,0-.62.1-1.15.18l-3.73.59c.31,1.51.57,2.77.62,3a9.93,9.93,0,0,0,.35,1.23l-.86.18c-.07-.47-.13-.86-.21-1.27,0-.24-.28-1.51-.59-3-1.7.27-3.34.55-4.06.68a10.59,10.59,0,0,0-1.16.24l-.17-.85a10.44,10.44,0,0,0,1.12-.11c.74-.08,2.42-.35,4.14-.64l-.64-3.18-3.32.54-1.06.21-.16-.86,1.09-.08c.59-.07,1.91-.25,3.31-.48-.18-.86-.31-1.49-.34-1.61-.07-.34-.16-.64-.24-.91l.82-.16c0,.25.08.62.14.91,0,.11.14.76.31,1.66,1.47-.24,2.9-.47,3.55-.59l.83-.2.16.79-.83.13-3.56.57c.18,1,.41,2.09.64,3.17,1.51-.25,3-.5,3.73-.64a8.76,8.76,0,0,0,1.12-.25Z" transform="translate(-0.57)" style="fill:#231815"/><path d="M168.9,31.55l.95,0v.74c-.23,0-.64,0-.91,0H161c-.4,0-.69,0-1,0v-.76c.33,0,.65,0,1,0h5.45c.2-1.09.69-4.38.72-5.19h-4.88c-.4,0-.67,0-1,0v-.78c.31,0,.61.06,1,.06H167a1.54,1.54,0,0,0,.5-.06l.57.27a1.44,1.44,0,0,0-.07.34c-.1,1-.57,4.12-.76,5.33Z" transform="translate(-0.57)" style="fill:#231815"/><path d="M173.75,32.22a1.26,1.26,0,0,0,.1-.57V23.32a8.64,8.64,0,0,0-.08-1.1h.91a8.05,8.05,0,0,0-.08,1.09v8.43a15.11,15.11,0,0,0,8-4.91l.42.62a15.68,15.68,0,0,1-8.32,5,2.63,2.63,0,0,0-.45.17Z" transform="translate(-0.57)" style="fill:#231815"/><path d="M185.66,26.73c.37,0,1,.06,1.8.06h7.84a14.29,14.29,0,0,0,1.44-.06v.88c-.25,0-.78,0-1.43,0h-7.85c-.78,0-1.42,0-1.8,0Z" transform="translate(-0.57)" style="fill:#231815"/><path d="M202.52,26.94l-.42.64a30.58,30.58,0,0,0-3-1.88l.41-.61C200.25,25.5,202,26.55,202.52,26.94Zm2,3.47a14.53,14.53,0,0,0,5.26-5.12l.45.72a16.26,16.26,0,0,1-5.35,5,16.91,16.91,0,0,1-4.65,1.77l-.42-.74A15.23,15.23,0,0,0,204.47,30.41Zm.11-6.49-.45.61a31.44,31.44,0,0,0-2.94-2l.4-.61C202.36,22.37,204,23.51,204.58,23.92Z" transform="translate(-0.57)" style="fill:#231815"/><path d="M220.39,33.24c0-.11,0-.31,0-.58h-5.87c-.47,0-.91,0-1.15,0v-.76a10.35,10.35,0,0,0,1.13.06h5.88v-2.9H215c-.47,0-.86,0-1.1,0v-.75c.21,0,.64.06,1.09.06h5.46V25.68h-5.56l-1.27,0V25c.21,0,1,0,1.27,0h6.27c0,.13,0,.33,0,.57v7c0,.23,0,.45,0,.64Z" transform="translate(-0.57)" style="fill:#231815"/><path d="M230.84,29.77a13.05,13.05,0,0,0,4.46-5l.44.75a13.68,13.68,0,0,1-4.47,4.91,15.55,15.55,0,0,1-5.74,2.32l-.47-.74A14.31,14.31,0,0,0,230.84,29.77Zm-1.34-4.43-.55.55a30.74,30.74,0,0,0-3.51-2.9l.5-.52A32.53,32.53,0,0,1,229.5,25.34Z" transform="translate(-0.57)" style="fill:#231815"/><path d="M245.09,24.37a13.71,13.71,0,0,0,5.18,2.69,3.47,3.47,0,0,0-.47.57,14.52,14.52,0,0,1-5.59-3.25h-.1v3.06h-.67V24.37h-.08a14.39,14.39,0,0,1-5.59,3.39,2.16,2.16,0,0,0-.45-.55,13.94,13.94,0,0,0,5.19-2.84H237.6v-.59h5.84V22c-1.58.14-3.24.23-4.74.28a1.68,1.68,0,0,0-.16-.57,59.36,59.36,0,0,0,9.39-.92l.52.51a34.37,34.37,0,0,1-4.36.64v1.78H250v.59Zm-2,2.77c-.28.44-.61.93-.95,1.43h8v.61h-3a5.51,5.51,0,0,1-1.92,2.43,36.56,36.56,0,0,1,4.51,1.44l-.42.57a33.19,33.19,0,0,0-4.81-1.56,16.34,16.34,0,0,1-6.62,1.57,2,2,0,0,0-.28-.62,17.1,17.1,0,0,0,5.94-1.19c-1-.24-2.14-.48-3.25-.68-.13.18-.25.37-.38.52l-.62-.25c.47-.59,1-1.4,1.61-2.23h-3.49v-.61h3.92c.38-.57.75-1.13,1.06-1.61Zm-1.36,2-1,1.46c1.25.21,2.49.48,3.68.76a5.31,5.31,0,0,0,2-2.22Z" transform="translate(-0.57)" style="fill:#231815"/><path d="M256.61,31.88a17.85,17.85,0,0,1-4.41,1.77,5.67,5.67,0,0,0-.5-.52,14.72,14.72,0,0,0,4.23-1.66Zm6.49-6.49v6h-9.83v-6Zm-.58-4v3h-8.67v-3ZM254,27.17h8.47V25.94H254Zm0,1.8h8.47V27.72H254Zm0,1.8h8.47V29.5H254Zm.58-7h7.3V22h-7.3Zm5.63,7.71a45.47,45.47,0,0,1,4.4,1.64l-.57.5A37,37,0,0,0,259.58,32Z" transform="translate(-0.57)" style="fill:#231815"/><path d="M272.5,20.83a16.71,16.71,0,0,0,6.32,5.08,3.77,3.77,0,0,0-.45.58,18,18,0,0,1-6.17-5,17,17,0,0,1-6,5,2.4,2.4,0,0,0-.41-.55,15.53,15.53,0,0,0,6-5.16Zm-6,7.14h11.66v.64h-6.83c-.55,1.17-1.24,2.62-1.9,3.71,2-.06,4.3-.14,6.59-.24a19.61,19.61,0,0,0-2.15-2.19l.55-.33a20.15,20.15,0,0,1,3.41,3.75l-.59.38a10.8,10.8,0,0,0-.72-1l-9.77.41-.1-.69,2-.06a31.43,31.43,0,0,0,1.84-3.73h-4Zm9.15-2.72v.65h-6.8v-.65Z" transform="translate(-0.57)" style="fill:#231815"/></svg>