<svg xmlns="http://www.w3.org/2000/svg" viewBox="0 0 198.17 117.61"><title>アセット 7</title><path d="M156,62.9a2.34,2.34,0,0,0-1.94.71c-.92.75-1.93,1.39-2.9,2.08-3.71.45-7-.75-10.17-2.51-2.41-1.33-4.58-3.11-7.29-3.85-.58,0-.8.54-1.21.81a1.18,1.18,0,0,1-.64,0c-3.53-1.85-7.21-3.4-10.53-5.64-1.86-.79-2.46-2.62-3.39-4.16-.67-1.09-1.19-2.26-2.63-2.55-.94-.18-1.1-1.07-1.46-1.75-1.58-3-2.7-6.29-4.79-9-.5-.66-1.48-1.16-1.15-2.15s1.42-.71,2.24-.79a1.91,1.91,0,0,0,1.1-.33c2.28-2.28,1.08-4.73.17-7a7.48,7.48,0,0,0-3.15-3.78,3.2,3.2,0,0,1-1.47-4.1,6.78,6.78,0,0,0-.85-5.87A27.19,27.19,0,0,1,103,7c-.29-1.35-.57-2.7,1.44-2.9,1.65,1.38,2.06,3.52,3.16,5.25a5.38,5.38,0,0,0,3.86,2.8c3.86.67,6.83,2.54,7.68,6.77.24,1.18,1.23,1.8,2.25,2.32a14.13,14.13,0,0,1,4.55,3.42c.62.75,1.37,1.51,1,2.53s-1.37.6-2.13.67a4.75,4.75,0,0,0-.94.18,10.65,10.65,0,0,0-1.78.3,2.47,2.47,0,0,1-1,0c-1.23-.57-2.63-.49-3.44-.86,1.87-.1,3.4,1.15,4.57,3,3.61,2.61,6.74,5.8,10.34,8.43a24.56,24.56,0,0,0,11.74,4.81c3.06.35,5.68,2,8.61,2.69a41.68,41.68,0,0,0,7.12.13,7,7,0,0,1,.74-.17,28.33,28.33,0,0,0,4.93-.71c2.73-.82,4.72.75,6.75,2.16,6.55,5.42,10.87,12.12,12,20.69a24.34,24.34,0,0,0,.39,5.77,11.42,11.42,0,0,1,.09,1.88c-.16,4.33.42,8.49,2.89,12.21a1.24,1.24,0,0,1,.14.91c-1.57,1.68-3.07.92-4.33-.32-1.5-1.49-2.41-3.82-5.24-3.06-.3.08-.65-.4-.9-.71a31.88,31.88,0,0,0-1.81-3c-.68-1.34-.13-2.8-.43-4.17,0-.27,0-.55,0-.81,0,0-.14-.16-.14-.16s-.21,0-.22,0a60.21,60.21,0,0,0-7.19,8.09c-2.94.85-3.24.68-4-2.31-.12-.46-.35-.86-.48-1.32.43-1.78,1.5-3.32,1.87-5.14,1-5-.72-9.09-4-12.71A18.34,18.34,0,0,1,158.88,61c-1.4-2.27-1.28-3.42.57-5.28,1.46-1.47,1.76-3.12.78-4.23s-2.87-1.06-4.49.33c-2.51,2.17-2.83,5.77-.89,8.93C155.26,61.41,156.31,61.81,156,62.9Z" style="fill:#c3c5d4;fill-rule:evenodd"/><path d="M158.31,64.82A2.35,2.35,0,0,1,157,63.47c-.28-.8-1-1.23-1.52-1.81-3.09-3.3-2.32-8.94,1.41-10.66,1.39-.64,2.72-.68,3.59.71a2.9,2.9,0,0,1-.49,3.74c-2.53,2.65-2.56,3.25-.49,6.22.87,1.25,1.93,2.33,2.84,3.54a13.8,13.8,0,0,1,.57,16.47,5.43,5.43,0,0,1-2.45,1.84,9.31,9.31,0,0,1-3.17.42c.63,1.62,2,2.65,2.4,4.17a8.25,8.25,0,0,1,.59,3.23c-.1.82.49-.12.62.21a1.55,1.55,0,0,1,.41.57c.22,1.64.67,3.3-.46,4.81-1.43-.33-.33-1.46-.77-2.16.5,4.77-1.84,8.59-4.11,12.43-.73,1.23-1.37,2.44.51,3.25a3.37,3.37,0,0,1,.66.19,4.77,4.77,0,0,1,.61.33,8.39,8.39,0,0,0,4.71-.29,5.07,5.07,0,0,1,3.95.3,1.73,1.73,0,0,1,1,2.17c-.27,1-1.11,1.1-1.93,1-4-.58-7.93-.06-11.89-.18-3.51-.11-4.5-1.11-4-4.48a13.81,13.81,0,0,1,.48-3.06c.23-.59.43-1.3-.33-1.67s-1,.23-1.43.6c-1.46,1.36-2.58,3-3.93,4.49a7.2,7.2,0,0,1-7.28,2.42c-1.71-.36-3.43-.67-5.16-.94-.69-.11-1.56.12-1.91-.67s.37-1.46.89-2c.27-.3.56-.57.79-.8-1.56,1.15-2.2,3.32-4.14,4.2-3.84,3.73-8.55,4.17-13.53,3.63a84,84,0,0,0-9.75-.53c-2.56,0-3.25-.71-3.45-3.15,1.68-2.92,3.69-3.6,6.74-2.32a22.15,22.15,0,0,0,5.24,1.55c3.56.55,6.08-1.4,8.69-3.22,1.48-.94,3-1.87,4.41-2.86a6.46,6.46,0,0,0,2.78-3.74,3.91,3.91,0,0,1,2.76-3,4.71,4.71,0,0,0,3.7-4.48c.11-2.41-.31-4.83-2.47-6.42s-2.2-1.89,0-3.26a12.48,12.48,0,0,0,2.94-2.76c2.73-3.32,6-5.73,10.54-5.78a9.23,9.23,0,0,1,7.07,2.9c3.93,4,7.2,3.11,8.78-2.39A11.13,11.13,0,0,0,158.31,64.82Z" style="fill:#84736f;fill-rule:evenodd"/><path d="M113.65,81.5a2.61,2.61,0,0,1,2.08-.37c3.7-.46,6.8,1.48,10.11,2.55a2.14,2.14,0,0,1,1.69,1.72c.65,2.33-.25,4.41-1.14,6.45-.74,1.7-1.52,1.74-2.76.24A6.21,6.21,0,0,0,121.43,90a5.4,5.4,0,0,0-7.21,2.26c-1.58,2.5-1.65,2.59-4,1-1.44-1-2.59-.72-4,0-2,1.07-2.81.55-2.56-1.75.41-3.78,3-6,5.91-7.93C110.92,82.69,112.61,82.75,113.65,81.5Z" style="fill:#84736f;fill-rule:evenodd"/><path d="M113.65,81.5l1.56.27c-2,.87-3.7,1.37-5.29,2.19a14,14,0,0,0-4.59,4.12,5.74,5.74,0,0,0-.9,5.33c1.52-.31,2.58-1.82,4.12-1.68s2.46,1.37,3.58,2.2c.93-.18,1-1,1.32-1.6,1.67-3.54,5.19-4.39,8.7-2.71a3.72,3.72,0,0,1,1.38,1.27c.5.67.74,1.6,1.91,2.13.45-2.43,2.49-4.34,1.48-7,0-.12.24-.36.38-.55,3.28-.43,5.63-2.3,7.72-4.75,4.11-4.83,9.1-7.2,15.53-5.23a29.58,29.58,0,0,1,2.75,2c.83.86,1.86,1.55,2.23,2.77,2.24.78,3.6.4,4.82-1.58a9.43,9.43,0,0,0,.53-9.5c-.72-1.48-1.69-2.85-2.55-4.26a1.69,1.69,0,0,1,1.48.63c3.54,4.13,4.22,10.21.85,14.54a4.4,4.4,0,0,1-6.51.44c-1.39-1.29-2.45-3-4.4-3.6-4.38-1.4-8.15-.2-11.53,2.68a8.55,8.55,0,0,0-1.68,1.7A10.86,10.86,0,0,1,132,85.3c-.26.12-.42.44-.64.69,3.66,1.89,5.37,5.75,4.17,9.31a5,5,0,0,1-3.74,3.61c-1,.24-2,.63-2.2,1.89-.51,3.19-3,4.73-5.38,6.29-.73.47-1.5.91-2.24,1.36-.34-.15-.62-.35-.61-.77.58-1.48,2-2,3.22-2.73a6.85,6.85,0,0,0,3.4-4.14,4.59,4.59,0,0,1,3.54-3.53,3.41,3.41,0,0,0,2.76-3.71c0-2.2-.4-4.35-2.54-5.62-1.11-.65-2-.12-2.74.72a12.21,12.21,0,0,0-2.1,4.27c-.33.89-.6,2-1.73,2.08s-1.37-1-1.8-1.71a5.87,5.87,0,0,0-2.4-2.6c-2.66-1.32-5.28-.18-6.54,2.87-.28.67-.38,1.39-.61,2.07-.39,1.16-1.08,1.28-2,.52a2.42,2.42,0,0,1-.46-.55c-.8-1.24-1.66-2.5-3.37-2.22-2,.33-1.8,2.21-2.36,3.54a1.68,1.68,0,0,1-.39.56.84.84,0,0,1-.65,0,3.67,3.67,0,0,1-.78-1.09,17.71,17.71,0,0,1-1.32-3.69c0-.52.43-.75.75-1C104.22,85.71,108.31,83,113.65,81.5Z" style="fill:#706764;fill-rule:evenodd"/><path d="M127.74,111.82c1.78-2.18,3.3-4.6,6.18-6.43-.68,2.46-2.92,3.15-3.73,5.16a46,46,0,0,1,5.29,1.1c4.53,1.49,7.71-.45,10.27-3.88a28.41,28.41,0,0,1,2.89-3.16c.44-.44,1.08-1,1.67-.67.78.38.45,1.28.36,1.94-.13,1-.41,2-.63,3-.78,3.47.26,4.88,3.76,4.82,3-.06,6.06.43,9-.38.75-.21,1.39.35,2.09.36s1.76.42,2-.67-.46-1.46-1.46-1.73a5.27,5.27,0,0,0-3.23.09,6.57,6.57,0,0,1-5.29,0c.95-1,2.31-.36,3.37-.91a10.7,10.7,0,0,1,2.81-1.42,2.54,2.54,0,0,1,1.06.08c1.59.71,3.34,1.11,4.63,2.4.27.41.52.82.14,1.29-.26,1.73-1.67,2-2.89,1.8-4.47-.58-9,0-13.42-.31a7.76,7.76,0,0,1-1.43-.14,2.84,2.84,0,0,1-2.33-3.56c.26-1.71.5-3.43.77-5.29-1.19.1-1.61.93-2.16,1.54-1,1.07-1.91,2.15-2.8,3.28-2.16,2.77-5.07,3.21-8.21,2.53a29.28,29.28,0,0,0-8.3-.8A.31.31,0,0,1,127.74,111.82Z" style="fill:#6c6766;fill-rule:evenodd"/><path d="M159.87,83c3.37-1,4.14-3.94,4.76-6.81,1.07-4.94-1-8.92-4.16-12.53a11.09,11.09,0,0,1-2.73-4.12A3.13,3.13,0,0,1,159,55.62a6.16,6.16,0,0,0,.91-.77,2.74,2.74,0,0,0,0-3.11,2.2,2.2,0,0,0-2.6-.37c-4.21,1.61-4,7.3-1.64,9.93.57.64,1.39,1.13,1.28,2.17l-1-.58a8.26,8.26,0,0,1-2.87-7.9,6,6,0,0,1,3.7-4.64,3.13,3.13,0,0,1,4.07.84,3.54,3.54,0,0,1-.34,4.39,9.81,9.81,0,0,1-.94.73c-1.32,1.12-1.51,2-.71,3.55a15.71,15.71,0,0,0,2.1,2.89c.77.91,1.56,1.82,2.25,2.79,3.39,4.77,3.35,9.75.84,14.87-.21.43-.47.83-.71,1.24-.13,1.49-1.29,1.86-2.44,2.23a1.55,1.55,0,0,1-1-.23A.4.4,0,0,1,159.87,83Z" style="fill:#6c6665;fill-rule:evenodd"/><path d="M97,112.21a3.65,3.65,0,0,1-2.94-2.28c-.29-1.79-1-3.49-1.29-5.27-.12-.71-.66-1.61.21-2.17a2.43,2.43,0,0,1,2.69.23A2.94,2.94,0,0,1,97,104.39a4.66,4.66,0,0,0,4.8,3.49,1.58,1.58,0,0,1,1.59.83C102.1,111.41,99.89,112.4,97,112.21Z" style="fill:#83736f;fill-rule:evenodd"/><path d="M123.86,27.75c.73-.81,1.88-.1,2.78-.82-.62-2.07-2.21-3.33-3.93-4.46-.66-.43-1.42-.71-2.09-1.13a3.94,3.94,0,0,1-2-2.54c-.77-3.82-3.48-5.62-7-6.21a5.75,5.75,0,0,1-4.55-3.34,39,39,0,0,1-2.49-4.87.7.7,0,0,1,.59-.58c1,1.75,1.95,3.48,2.87,5.24a4.26,4.26,0,0,0,3.47,2.59,15.43,15.43,0,0,1,3,.9,6.72,6.72,0,0,1,4.75,5,5.2,5.2,0,0,0,3.28,3.78,11.94,11.94,0,0,1,5.16,4.85c.69,1.09.49,1.48-.74,1.91a6.92,6.92,0,0,1-3.08.22c-.15-.12-.19-.23-.14-.34S123.81,27.75,123.86,27.75Z" style="fill:#8a7e81;fill-rule:evenodd"/><path d="M103.23,108.93c-.54-.69-1.31-.42-2-.47A4.87,4.87,0,0,1,96.54,105c-.77-2.15-.94-2.2-3.47-2.26A16.52,16.52,0,0,0,94.14,108c.24.66.78,1.29,0,1.9-1.07-1.16-1-2.73-1.46-4.1-.4-1.17-.63-2.4-.94-3.6a4.42,4.42,0,0,0-.45-.45l0,0a.5.5,0,0,1,0-.62,1.73,1.73,0,0,1,1.34-.22,10.46,10.46,0,0,0,1.34.24,7.89,7.89,0,0,1,3,.75,1.72,1.72,0,0,1,.8,1.08,4.43,4.43,0,0,0,3,4.18,12.59,12.59,0,0,0,5,0,8.25,8.25,0,0,0,1.27-.61,2.76,2.76,0,0,1,1.45-.4c3.22,1,6.46,2,9.91,1.71a2,2,0,0,1,1.72.61c-.2,1.24-1.23,1-2,1.11a16.94,16.94,0,0,0-3.09.25,8.82,8.82,0,0,1-4.21-.67,5.57,5.57,0,0,0-4.41.11C105.34,108.92,104.22,109.6,103.23,108.93Z" style="fill:#746866;fill-rule:evenodd"/><path d="M25.6,13.48a74.07,74.07,0,0,0-6.29,5.14,7.5,7.5,0,0,1-1.8,1.17c-2,1.06-2.36,1-3.88-.67-3.07-3.45-6.07-7-9.12-10.45C3.46,7.48,2.3,6.38,1.24,5.19.73,4.63-.07,4.22,0,3.12c.65-.16,1,.36,1.29.71Q6.24,9.35,11.15,14.9c1.06,1.19,2.08,2.42,3.17,3.59s1.64,1.27,2.91.43a34.91,34.91,0,0,0,3-2.4A21.83,21.83,0,0,1,25,13C25.23,13.13,25.52,13.16,25.6,13.48Z" style="fill:#9a9292;fill-rule:evenodd"/><path d="M152.57,46.6a3.45,3.45,0,0,1-.94-.12A46.7,46.7,0,0,0,142,43.7a26,26,0,0,1-11.84-6c-2.73-2.33-5.5-4.62-8.25-6.93-.07-.33-1.15-.59-.06-1a47.69,47.69,0,0,1,6.74,5.36c4.75,4.21,9.92,7.5,16.37,8.31,2.89.36,5.42,1.81,8.16,2.65a.39.39,0,0,1,.14.37c0,.13-.06.2-.1.2A.68.68,0,0,1,152.57,46.6Z" style="fill:#937e81;fill-rule:evenodd"/><path d="M106.11,50.4c1.25.71,1.63,2.09,2.42,3.16.44.59.13,1.26-.14,1.82a8.48,8.48,0,0,0,0,6.94c.9,2.39,1.9,4.73,3,7.05a7.5,7.5,0,0,1,.67,5.31,17.28,17.28,0,0,0-.64,4.73,1.48,1.48,0,0,1-.74,1.46,4.61,4.61,0,0,1-.12-3.19c1.2-3.83.47-7.31-1.3-10.8a32.33,32.33,0,0,1-2.28-5.77,5.84,5.84,0,0,1,0-4.21,4.08,4.08,0,0,0-.86-5.18,6.32,6.32,0,0,1-.58-.76C105.55,50.61,105.88,50.56,106.11,50.4Z" style="fill:#949292;fill-rule:evenodd"/><path d="M103.27,7.17c1.38,2.49,2.82,5,4.1,7.5a5,5,0,0,1,0,3.52c-.55,2-.34,3.44,1.64,4.83,2.9,2,4,5.2,3.79,8.78a2.5,2.5,0,0,1-1.44,2.28.44.44,0,0,1-.58,0,.47.47,0,0,1,.08-.58c1.61-2.16,1.08-4.43.06-6.55a7.58,7.58,0,0,0-3.85-4.1A1.58,1.58,0,0,1,106,21a8.5,8.5,0,0,1,.18-1.9c.91-2.51.1-4.6-1.2-6.75-1-1.6-2.08-3.22-2.27-5.2Q103,6.79,103.27,7.17Z" style="fill:#838083;fill-rule:evenodd"/><path d="M108.06,106.51l-1,.52c-1.8-.33-2.47-1.75-3.18-3.18-.42-.85-.34-2.1-1.66-2.3-.53.28-1,.51-1.37-.27a79.64,79.64,0,0,1-1.19-10.14A6.38,6.38,0,0,0,98.79,88a.73.73,0,0,1,.1-.75c1.71-.46,1.72-.46,2,1a11.64,11.64,0,0,1,.33,1.83c.06,1.33.74,1.79,2,1.6l-.49,1c-.8,1.82-.66,3.24.61,5.91.7-.06.59-1.09,1.3-1.13l.46,0a1.34,1.34,0,0,1,.61,1.23A11,11,0,0,0,108.06,106.51Z" style="fill:#8b8784;fill-rule:evenodd"/><path d="M169,112.8c-.11-.4-.17-.83-.58-1.06-.5-1.07.21-1.84.7-2.63a36.91,36.91,0,0,0,3.69-7.24c.29-.84.74-1.71,0-2.49-2.35-2.62-2.87-6.2-4.78-9.05a3.64,3.64,0,0,1-.21-3.87c1-.55.7.67,1.14.9a4.62,4.62,0,0,0,.67,3,33.08,33.08,0,0,1,2.12,4.28c.66,1.54,1.15,3.13,2.69,4.11.81.51.65,1.29.4,2.14a36.68,36.68,0,0,1-3.55,7.56C170.51,109.84,169.82,111.35,169,112.8Z" style="fill:#9a9797;fill-rule:evenodd"/><path d="M114.76,109.41c.68-.77,1.58-.37,2.39-.47,1-.13,2,.33,2.89-.41.19-.67.59-.91,1.25-.65l.65.57a15.21,15.21,0,0,0-1.37.95c-4.05,3.5-8.44,2.95-12.9,1-3.08-1.33-3.72-1.22-6.37,1.4-.69.44.39,1.69-.86,1.88-.74-1.42-2.23-1.12-3.43-1.5.2-.12.41-.35.6-.33,2,.2,3.43-.81,4.68-2.23a5.87,5.87,0,0,1,.92-.71h3.38c1.36-.34,2.43.5,3.59.89,3.23,1.1,4.66,1.07,7-.34A1.72,1.72,0,0,1,114.76,109.41Z" style="fill:#675f5e;fill-rule:evenodd"/><path d="M109.43,37A25.31,25.31,0,0,1,113,43.42c.45,1.11,1,2.17,1.55,3.24.21.41.4,1,1,.67,1-.45,1.27.28,1.62.9.56,1,1.18,1.9,1.65,2.91a8.07,8.07,0,0,0,2.58,3.07c.09.48,0,.73-.57.55-1.7-.69-2.37-2.27-3.21-3.7-.42-.7-.51-2-1.93-1-.37.28-.79-.39-1-.81-.5-1-1-2-1.45-3q-2.18-4.39-4.38-8.77C108.77,37,109,36.91,109.43,37Z" style="fill:#7e7d7f;fill-rule:evenodd"/><path d="M100.46,113.7c.65-.46.08-1.48.86-1.88.18,2.44.55,2.88,2.77,2.86,3.88,0,7.71.59,11.55.84,3.57.23,7.32-.07,10.3-2.68.53-.47,1-1.05,1.81-1l.5,0c-4,4.67-9.33,4.72-14.73,4.25-2.79-.25-5.56-.38-8.35-.42a12.43,12.43,0,0,1-2.84-.36A2.32,2.32,0,0,1,100.46,113.7Z" style="fill:#6f6a6a;fill-rule:evenodd"/><path d="M103.27,7.17h-.53c-.37-.92-.61-1.9-1.74-2.33-.76-.28-.85-1.06-.73-1.81s-1.23-.27-.9-1.15c.86-1.06,1.76-2.28,3.32-1.77a3.52,3.52,0,0,1,2.47,3.68l-.58.57C102.66,4.61,103.41,6.1,103.27,7.17Z" style="fill:#817270;fill-rule:evenodd"/><path d="M99.37,1.89c.2.46.93.5.9,1.15a1.05,1.05,0,0,0-1.46.4c-1.05,1.57-2.19,3-1.08,5.18.63,1.22.6,2.78.88,4.18.09.42.06.79-.36,1a.89.89,0,0,1-.91-.06c-.27-.16-.48-.42-.75-.59-.57-.35-1.1-1.18-1.86-.52s-.35,1.33-.1,2c.14.37.32.73.48,1.09s-.07.6-.5.55c-.83-1.08-1.68-2.12-1.15-3.67s1-1.85,2.56-1c.34.18.64.49,1.19.25a6.18,6.18,0,0,0-.54-2.91C95.8,5.94,96.63,3.67,99.37,1.89Z" style="fill:#979191;fill-rule:evenodd"/><path d="M86.33,100l-.24-.41c-.41-.69.07-2-1.12-2.07-1,0-1.15,1.19-1.56,1.9-1.27,2.19-2.23,4.57-4.06,6.4-.61.61-1.29,1.16-1.94,1.73-.5.13-.66-.09-.57-.56a21,21,0,0,0,4.95-6.6c.75-1.53,1.32-3.25,3-4.16.64-.35.57-1,.63-1.69.08-.92-.61-2,.15-2.74a7.48,7.48,0,0,1,3.12-1.64,1.84,1.84,0,0,1,.47,0,.67.67,0,0,1,.7,0c.2,1.2-.77,1.48-1.53,1.8A2.33,2.33,0,0,0,86.81,95a15.6,15.6,0,0,1,.3,4.28A1.16,1.16,0,0,1,86.33,100Z" style="fill:#918a8a;fill-rule:evenodd"/><path d="M132.11,59.92a.61.61,0,0,1,.29,0c.61-.27.14-1,.6-1.37,1.06-.27,1.79.45,2.61.88,2.8,1.48,5.34,3.39,8.29,4.62a11.47,11.47,0,0,0,5.74,1.18c.53-.06,1.13-.17,1.5.42a5,5,0,0,1-4.13.42,26.92,26.92,0,0,1-7.82-3.36c-1.37-.79-2.74-1.6-4.1-2.4-.56-.33-.92-.44-1.15.43s-.91.52-1.44.15c-.26-.27-.69-.17-.94-.45h0C131.46,60,131.58,59.74,132.11,59.92Z" style="fill:#84797c;fill-rule:evenodd"/><path d="M56.18,41.29c-2.42-1.89-4.07-4.47-6.07-6.74-3-3.34-5.87-6.73-8.8-10.09a.64.64,0,0,1,.52-.57c3.83,3.9,7.41,8,10.83,12.28,1.18,1.47,2.79,2.6,3.59,4.38A.49.49,0,0,1,56.18,41.29Z" style="fill:#988f8f;fill-rule:evenodd"/><path d="M56.18,41.29l.07-.74L66.7,51l5,5.06a.49.49,0,0,1-.74.11A120.82,120.82,0,0,1,56.18,41.29Z" style="fill:#958686;fill-rule:evenodd"/><path d="M187.79,89.18c-1.51-2.37-2.33-5.07-3.63-7.54-.14-.27-.33-.79-.23-.88,1.53-1.38.2-3,.45-4.49.83-1.39-.8-3.07.53-4.4.51,1,.21,2,.27,3a12.58,12.58,0,0,0,.64,4c.33.84.61,1.63-.24,2.37-.32.28-.21.73-.06,1.12a30.7,30.7,0,0,0,4.83,8.69,7.26,7.26,0,0,0,1.29,1,.93.93,0,0,1-.66.71A4.48,4.48,0,0,1,187.79,89.18Z" style="fill:#8c8688;fill-rule:evenodd"/><path d="M71,56.18l.74-.11a4.23,4.23,0,0,1,.82.47q6.38,5.79,12.74,11.61c.37.34.92.63.84,1.3C84.56,68.92,75,60.57,71,56.18Z" style="fill:#9a8d8d;fill-rule:evenodd"/><path d="M100.83,28.3a12.83,12.83,0,0,1,1.79,6.12c.12,3.25.79,6.47.56,9.73-.51.6.16,1.5-.52,2.06a5.38,5.38,0,0,1-.4-2.56c-.2-2.93-.37-5.86-.56-8.79-.13-2.08-1-4-1.42-6C100.09,28.33,100.36,28.22,100.83,28.3Z" style="fill:#919090;fill-rule:evenodd"/><path d="M118.55,80.11A8.86,8.86,0,0,1,122,75.44a5.57,5.57,0,0,0,1.81-1.83c1.59-3.32,4.33-4,7.29-1.85.51.37,1,.82,1.44,1.24.11.47-.2.6-.57.67-1.14-.12-2-1-3-1.3-1.41-.37-2.81-.42-3.37,1.22a5,5,0,0,1-2.41,2.8c-1.69,1-2.32,3-4,4A.9.9,0,0,1,118.55,80.11Z" style="fill:#a19191;fill-rule:evenodd"/><path d="M100.83,28.3l-.54.58c-1.38-2.18-2-4.68-2.9-7.06a24.22,24.22,0,0,0-2.76-5.53l.5-.55a11.25,11.25,0,0,1,2.66,4.39C98.77,22.87,99.82,25.58,100.83,28.3Z" style="fill:#9d9b9b;fill-rule:evenodd"/><path d="M169,87.35l-.88-1a.71.71,0,0,1-.4-.35,2,2,0,0,1-.17-.81l0-.28a7.33,7.33,0,0,1,2.24-3.52c1.84-1.81,3.61-3.68,5.41-5.52a1.06,1.06,0,0,1,.41.44c0,.31,0,.62,0,.94-.6.5.42,1.73-.88,1.91-.2-.37-.32-1.21-.88-.66-1.75,1.74-3.38,3.6-5,5.44a1.53,1.53,0,0,0-.1,1.8A1.82,1.82,0,0,1,169,87.35Z" style="fill:#838182;fill-rule:evenodd"/><path d="M132.11,59.92l-.57.54a68.05,68.05,0,0,1-10.64-5.7l.57-.55Z" style="fill:#8c8588;fill-rule:evenodd"/><path d="M173.08,47.92l-.79.08a17.57,17.57,0,0,1-1.67-.9,6.07,6.07,0,0,0-6-.83,10.05,10.05,0,0,1-4.24.25c-.11-.1-.15-.2-.11-.29s.08-.14.12-.14c1.86-.33,3.72-.67,5.58-1C168.88,44.61,171.13,45.88,173.08,47.92Z" style="fill:#96787b;fill-rule:evenodd"/><path d="M118.55,80.11l.5,0c1.63.77,3.5.9,5.05,1.86.76.47,1.84.69,1.71,2-.35.55-.78.4-1.22.13a19.33,19.33,0,0,0-8.5-2.66c-.13,0-.24-.19-.35-.3C116.67,80.78,117.75,80.85,118.55,80.11Z" style="fill:#706764;fill-rule:evenodd"/><path d="M186.55,97c-3.18-.25-4.72-2.69-6.45-4.85A16.43,16.43,0,0,1,179,90.31a1.89,1.89,0,0,1,.54-1.6.67.67,0,0,1,.79.37,13.14,13.14,0,0,0,7,7.29.76.76,0,0,1-.05.68A.86.86,0,0,1,186.55,97Z" style="fill:#a39a9a;fill-rule:evenodd"/><path d="M121.88,29.77c-.44.36.08.66.06,1-.72,0-1.53,0-1.46-1,.08-1.23-.64-1.35-1.62-1.44a9.55,9.55,0,0,0-3.58-.11,1.77,1.77,0,0,1,2.39-1.26,34.05,34.05,0,0,1,3.37,1,2.81,2.81,0,0,0,1.19.13c.3,0,.62,0,.8.29C122.63,28.82,121.63,28.79,121.88,29.77Z" style="fill:#89838a;fill-rule:evenodd"/><path d="M197.88,93.6a3.8,3.8,0,0,1-1.77,1.53,5.54,5.54,0,0,1-2.79.44c-1.06,0-.83,1.86-2.13,1.45a.73.73,0,0,1-.65,0,1.44,1.44,0,0,1-.25-.62c-.24-1.72.36-2.66,2.2-2.1,1.28.39,2-.58,2.92-1C196.23,93.53,197.12,92.89,197.88,93.6Z" style="fill:#857676;fill-rule:evenodd"/><path d="M41.83,23.9l-.52.57-6.73-6.73c-.06-.45.07-.69.57-.52A51.19,51.19,0,0,1,41.83,23.9Z" style="fill:#8f8a8a;fill-rule:evenodd"/><path d="M61.93,113.62c2.63-1,5.34-1.67,8.05-2.39.5-.16.66,0,.56.53a34.83,34.83,0,0,1-8.63,2.43.34.34,0,0,1-.13-.39C61.84,113.68,61.89,113.62,61.93,113.62Z" style="fill:#a18787;fill-rule:evenodd"/><path d="M109.43,37l-.49.52c-.51-.49-1-1-1.54-1.46-.65-.65-1.14-1.37-.52-2.3s1.4-.26,2.11-.1c.56.44,1.33-.08,1.89.41l.52,0c-.87,1-2.15.12-3.21.75C108.15,35.79,109.23,36.15,109.43,37Z" style="fill:#978a8c;fill-rule:evenodd"/><path d="M134.51,75.61c.6.47,1.07.79,1.75-.08,1.11-1.43,2.3-2.87,4.31-3.1a.53.53,0,0,1,.67,0,.74.74,0,0,1-.07.7,30.74,30.74,0,0,0-4.24,3.74c-1.11,1.15-2.21,1.2-2.77-.62A.85.85,0,0,1,134.51,75.61Z" style="fill:#9a8c8c;fill-rule:evenodd"/><path d="M90,90.32l-.85-.14a44.52,44.52,0,0,1,9.75-2.93c0,.18,0,.37,0,.55-1,1.63-2.89,1.47-4.4,1.9S91.63,91.26,90,90.32Z" style="fill:#a07777;fill-rule:evenodd"/><path d="M102.67,46.22c.2-.68-.16-1.5.52-2.06l.54,4.16c.32.66,1.09.19,1.51.6s.31,1.14.87,1.47l-.61.56C103.87,49.79,102.15,48.67,102.67,46.22Z" style="fill:#8b8d8d;fill-rule:evenodd"/><path d="M147.84,73.07a13.52,13.52,0,0,1,6.86,4.1.85.85,0,0,1-.52.38,1.58,1.58,0,0,1-.65-.08c-1-.66-2-1.25-3-1.91-1.14-.55-2.54-.62-3.31-1.83C147.23,73.31,147.5,73.17,147.84,73.07Z" style="fill:#a18d8d;fill-rule:evenodd"/><path d="M20.08,116.56a2,2,0,0,1,1.35-.37l12.68-.07q.24.17.15.33c-.06.1-.11.15-.17.15a11.38,11.38,0,0,1-3.27.05c-3.15.46-6.32.09-9.47.21C20.91,116.83,20.44,116.94,20.08,116.56Z" style="fill:#9a7979;fill-rule:evenodd"/><path d="M126.78,64.84l-3.4,5.47-.47-.28a9.38,9.38,0,0,1,3.5-5.5Z" style="fill:#9c9a9a;fill-rule:evenodd"/><path d="M155.11,75.37c0-1.59.06-3.18,1.59-4.29a31.11,31.11,0,0,0-.72,7.63c-.89-.08-.85-.7-.76-1.34A3,3,0,0,0,155.11,75.37Z" style="fill:#a19c9c;fill-rule:evenodd"/><path d="M197.88,93.6h-3c-1.55.81-2.92.91-3.79-1l.56-.56c1.8.84,3.61,1.36,5.62.59C198,92.37,198.51,92.73,197.88,93.6Z" style="fill:#8e7070;fill-rule:evenodd"/><path d="M25.6,13.48,25,13c2.17-1.27,3.94,0,5.76.92,0,.47-.08.75-.62.52C28.66,14,27.24,13.21,25.6,13.48Z" style="fill:#aa7f7f;fill-rule:evenodd"/><path d="M30.13,14.45l.62-.52a13.84,13.84,0,0,1,4.4,3.28l-.57.52Z" style="fill:#a49898;fill-rule:evenodd"/><path d="M21.14,116.66h9.69c-1,.67-2.17.42-3.27.44-2.15,0-4.31,0-6.46,0-.12-.1-.16-.19-.1-.27S21.09,116.66,21.14,116.66Z" style="fill:#729090;fill-rule:evenodd"/><path d="M34.1,116.59c0-.16,0-.32,0-.48l1.32,0a24.35,24.35,0,0,1,7.53.13c-1.08.7-2.3.35-3.45.39C37.71,116.68,35.9,116.61,34.1,116.59Z" style="fill:#968484;fill-rule:evenodd"/><path d="M86.33,100l.48-.68c1.55.43,3.35.25,4.46,1.79l-.06.62c-.83-.21-1.67-.37-2.52-.51S86.75,101.12,86.33,100Z" style="fill:#9a8080;fill-rule:evenodd"/><path d="M56.61,114.62a10.9,10.9,0,0,1,3.94-.78c.29.24.77,0,1,.42a8.75,8.75,0,0,1-4.46.87C56.93,115,56.62,114.92,56.61,114.62Z" style="fill:#a39797;fill-rule:evenodd"/><path d="M21.14,116.66a1.4,1.4,0,0,1,0,.39l-5.19.08a4.49,4.49,0,0,1-2.25.18.36.36,0,0,1-.16-.6l6.57-.14Z" style="fill:#886c6c;fill-rule:evenodd"/><path d="M43,116.22l-7.53-.13c2.57-.74,5.2-.34,7.81-.35q.2.18.1.3a.24.24,0,0,1-.18.11l-.09.09Z" style="fill:#c06a6a;fill-rule:evenodd"/><path d="M51.48,115.71c-1.43.79-2.95.47-4.45.38-.22-.31-.79,0-.89-.53a5.88,5.88,0,0,1,3.33-.21C50.12,115.61,50.9,115.15,51.48,115.71Z" style="fill:#819898;fill-rule:evenodd"/><path d="M160.36,46.1c0,.14,0,.29,0,.44l0,0a21.71,21.71,0,0,1-7.18-.06c0-.14,0-.28,0-.42Z" style="fill:#b76768;fill-rule:evenodd"/><path d="M70.54,111.75l-.56-.53a9.43,9.43,0,0,1,3-1.35.66.66,0,0,1,.57.54A5,5,0,0,1,70.54,111.75Z" style="fill:#a4a1a1;fill-rule:evenodd"/><path d="M13.46,117.06l2.44.06a15.08,15.08,0,0,1-6.58.25.47.47,0,0,1,0-.16,1.19,1.19,0,0,1,.16-.17A8.94,8.94,0,0,1,13.46,117.06Z" style="fill:#8c7575;fill-rule:evenodd"/><path d="M134.51,75.61l-.12.79c-1.67-.27-2.25-1.45-2.44-2.95l.55-.46A6.11,6.11,0,0,1,134.51,75.61Z" style="fill:#a1a0a0;fill-rule:evenodd"/><path d="M155.11,75.37c.59.43.41,1.07.45,1.66s-.09,1.22.42,1.68a.61.61,0,0,1,0,.43c-1.69.45-1.85-.65-1.91-1.87l.63-.09C155.23,76.66,154.91,76,155.11,75.37Z" style="fill:#7d7878;fill-rule:evenodd"/><path d="M154.07,77.27c.53.73.55,2,1.91,1.87l-.46,1c-1.1-.48-1.66-1.53-2.45-2.33a.65.65,0,0,1,.57-.56A2.27,2.27,0,0,0,154.07,77.27Z" style="fill:#b1b3b3;fill-rule:evenodd"/><path d="M76.83,107l.57.56a7,7,0,0,1-2.51,1.8c-.2-.13-.48-.17-.51-.47A8.29,8.29,0,0,1,76.83,107Z" style="fill:#a59b9b;fill-rule:evenodd"/><path d="M141.17,72.49l-.6-.06a5.17,5.17,0,0,1,4.5-.09l-.26.34A3.39,3.39,0,0,1,141.17,72.49Z" style="fill:#c87373;fill-rule:evenodd"/><path d="M190.62,96.92l.57.09a5.11,5.11,0,0,1-4.64,0l.72-.08A2.63,2.63,0,0,1,190.62,96.92Z" style="fill:#86a2a2;fill-rule:evenodd"/><path d="M13.46,117.06H9.53c1.27-.76,2.64-.35,4-.35Z" style="fill:#ca7272;fill-rule:evenodd"/><path d="M46.15,115.56c.32.13.73.13.89.53a15.28,15.28,0,0,1-3.86.05,1.7,1.7,0,0,0,.07-.41Z" style="fill:#8b5d5d;fill-rule:evenodd"/><path d="M51.48,115.71c-.66-.17-1.4.12-2-.37a14.63,14.63,0,0,1,3.82-.2q.2.21.09.35a.27.27,0,0,1-.19.12Z" style="fill:#965d5d;fill-rule:evenodd"/><path d="M147.84,73.07l-.49.37c-.87.67-1.61.28-2.33-.29a.5.5,0,0,1,0-.66l.06-.15A6,6,0,0,1,147.84,73.07Z" style="fill:#9f7272;fill-rule:evenodd"/><path d="M74.37,108.9l.51.47a4,4,0,0,1-1.35,1l-.57-.54Z" style="fill:#958080;fill-rule:evenodd"/><path d="M53.19,115.61a2.7,2.7,0,0,0,.11-.46h0c.59-.35,1.23-.15,1.85-.2a.73.73,0,0,1,.66.29A2.92,2.92,0,0,1,53.19,115.61Z" style="fill:#77a3a3;fill-rule:evenodd"/><path d="M55.79,115.24l-.51-.1c-.18-.08-.25-.16-.19-.25s.11-.14.17-.14l1.35-.14.48.52Z" style="fill:#936161;fill-rule:evenodd"/><path d="M123,28.36,122,28.29q-.25-.15-.16-.27t.18-.12l1.88-.15v.51Z" style="fill:#876162;fill-rule:evenodd"/><path d="M110.88,34c-.65,0-1.37.23-1.89-.41l1.91-.1Z" style="fill:#c47373;fill-rule:evenodd"/><path d="M55.26,114.76a.87.87,0,0,0,0,.39h-2A2.28,2.28,0,0,1,55.26,114.76Z" style="fill:#b88787;fill-rule:evenodd"/><path d="M61.55,114.26c-.35-.09-.76-.06-1-.42l1.38-.22,0,.57A.68.68,0,0,1,61.55,114.26Z" style="fill:#a26060;fill-rule:evenodd"/><path d="M105.24,48.93c-.59,0-1.23.16-1.51-.6C104.25,48.49,105,48.18,105.24,48.93Z" style="fill:#9e6666;fill-rule:evenodd"/><path d="M131.57,60.46a.93.93,0,0,1,.94.45A1.11,1.11,0,0,1,131.57,60.46Z" style="fill:#8c8588;fill-rule:evenodd"/><path d="M91.24,101.76a.49.49,0,0,1,.45.46Z" style="fill:#9a8080;fill-rule:evenodd"/><path d="M168,85.93a1.85,1.85,0,0,0,.17.43,6.21,6.21,0,0,0,1,4.75,22.61,22.61,0,0,1,2.59,5.64,3.17,3.17,0,0,0,1.2,1.71c1.37,1.1,1.42,1.37.74,3.06a40.87,40.87,0,0,1-3.63,7.27c-.61.93-1.05,2-1.57,2.94-1.18-1.15-3-1.13-4.17-2.32.09-2,1.91-3.07,2.35-4.85.54-1.47.25-3,.29-4.48a18.86,18.86,0,0,0-5.82-11,8.88,8.88,0,0,1-2.71-3.17c-1-1.57-.45-2.12,1.15-2.23.44,0,.9.18,1.28-.19a5,5,0,0,0,2.56-1.87c.56.06.75.38.83.93.34,2.48.35,2.47,2.71,2.16a1.83,1.83,0,0,1,.67.19h0C167.82,85.22,167.76,85.62,168,85.93Z" style="fill:#fff;fill-rule:evenodd"/><path d="M178.12,88.81l-.59-1A11,11,0,0,1,177,85a.44.44,0,0,1,.63,0c.63.47,1.15,1,2.06.3s1.65-.22,2.2.68c.37.61.77,1.21,1.19,1.78,1.39,1.88,2.41,2.21,4.67,1.52,1.1,1.15,1.75,2.72,3.3,3.45a5.4,5.4,0,0,0,3.79,1c.48.48.58.94-.18,1.21a4,4,0,0,1-2.52-.06c-1.38-.41-1.7.11-1.32,1.37,0,.09-.15.24-.23.36a6.36,6.36,0,0,1-3.39,0c-4.26-.92-6.21-4.12-7.66-7.8-.37-.62-.68-.29-1,0A.3.3,0,0,1,178.12,88.81Z" style="fill:#fdfdfe;fill-rule:evenodd"/><path d="M153.19,46.5l7.18.06a13.84,13.84,0,0,1-7.79,0Z" style="fill:#759097;fill-rule:evenodd"/><path d="M110.68,17a2.91,2.91,0,0,1,1.47,2.67C110.7,19.13,110.62,18.09,110.68,17Z" style="fill:#8a888f;fill-rule:evenodd"/><path d="M133,58.58c0,.53.1,1.13-.6,1.37C132.6,59.49,132.46,58.89,133,58.58Z" style="fill:#8c8588;fill-rule:evenodd"/><path d="M122,27.9c0,.13,0,.26,0,.4a1,1,0,0,1-.92-.36Z" style="fill:#937e81;fill-rule:evenodd"/><path d="M163.19,109.38a9,9,0,0,0-2.36,1.53,8,8,0,0,1-3.85,0,.75.75,0,0,0-.42-.12,1.82,1.82,0,0,1-1.12-3,47.58,47.58,0,0,0,5-10.75c.73-1.73.36-3.54.38-5.33a2,2,0,0,1-.36-.87c-.06-.56-.11-1.2.46-1.48s1,.28,1.31.7c3.31,4,5.43,8.34,4.87,13.67a2.49,2.49,0,0,1-.14.72C165.87,106.21,165.07,108.2,163.19,109.38Z" style="fill:#feffff;fill-rule:evenodd"/><path d="M160.4,97a24.46,24.46,0,0,1-4.07,10.07c-1.24,1.88-1.21,1.9.23,3.69-.24.39-.55.58-1,.28a2.59,2.59,0,0,1-.46-3.79,31.7,31.7,0,0,0,3.58-6.71c.91-2,.93-4.28,1.54-6.45Z" style="fill:#6f6968;fill-rule:evenodd"/><path d="M166.63,104.14c.67-5.79-1.77-10.37-5.48-14.62-.55.77-.14,1.51-.38,2.16l-.38-.06c-.65-2.65-.65-2.65,1.05-2.86,1.07.34,1.58,1.31,2.14,2.12a20.22,20.22,0,0,1,3.9,9c-.38,1.09-.09,2.21-.18,3.31C167.27,103.63,167.37,104.19,166.63,104.14Z" style="fill:#9a9696;fill-rule:evenodd"/><path d="M161.45,88.76c-.61,0-1.1.21-1.09,1l0,1.9c0,.15,0,.37-.15.44-.28.19-.34,0-.37-.26a10.35,10.35,0,0,0-2.46-6.26,12.84,12.84,0,0,1-1.24-1.93,1,1,0,0,1,1.46-.44,2.24,2.24,0,0,0,2.25-.13c0,.15,0,.31,0,.46.16.08.22.17.16.25s-.11.13-.16.13c-1.85.48-1.75.43-1,2C159.43,87.12,160.61,87.77,161.45,88.76Z" style="fill:#6f6968;fill-rule:evenodd"/><path d="M157,110.89l3.85,0c-1.19.88-2.56.23-3.84.44Q157,111.12,157,110.89Z" style="fill:#a45555;fill-rule:evenodd"/><path d="M145,72.9l2.31.54c.95,1,2.4,1,3.38,1.91a.39.39,0,0,1,0,.63c-6.56-1.93-11.67.3-15.62,5.58-1.6,2.13-4.12,2.91-6.07,4.52-.85.7-1.17-.46-1.77-.68A3,3,0,0,0,125.8,84,9.82,9.82,0,0,0,121,81.46c-.76-.21-1.86-.09-2-1.32,1.46-2,2.92-4,5.18-5.16a1.41,1.41,0,0,0,.62-1c.69-2.26,2-3,4.25-2.23A8.54,8.54,0,0,1,132,73.45c.83,1,1.32,2.22,2.44,2.95.66,1.14,1.35,1.14,2.18.13,1.25-1.53,2.48-3.12,4.55-3.63A8.44,8.44,0,0,1,145,72.9Z" style="fill:#fff;fill-rule:evenodd"/><path d="M121.3,107.88l-1.25.65c-4.12.08-8.18-.2-12-2a5.89,5.89,0,0,1-3-6c.09-1,0-2.06,0-3.09.14-.78.22-1.58.43-2.35.7-2.58,3.24-3.26,5.14-1.36a15.09,15.09,0,0,1,1.5,2.15c.17.25.32.57.91.4a21.57,21.57,0,0,1,.57-2.35c.82-2.3,2.11-4.24,4.8-4.38A5.39,5.39,0,0,1,123.88,93c.13.29.29.57.41.87s.32.82.75.85.74-.5.91-.94a28.82,28.82,0,0,1,1.77-4.44c.68-1.19,1.39-2.47,3-2.4a3.75,3.75,0,0,1,3.45,2.87,10.28,10.28,0,0,1,.71,4c-.14,2.39-1.14,3.66-3.51,4.11-1.23.24-2.18.74-2.42,2-.64,3.21-2.76,5.06-5.52,6.45A6.1,6.1,0,0,0,121.3,107.88Z" style="fill:#f0e6d3;fill-rule:evenodd"/><path d="M104.63,97.45c-.6.77-.27,1.82-.83,2.86A6.75,6.75,0,0,1,101.93,97a20.37,20.37,0,0,1-.53-3.25c-.14-1,.51-1.18,1.32-1.08a21.79,21.79,0,0,1,1.54,3.78c.2.3.12.71.38,1Z" style="fill:#ddd6c5;fill-rule:evenodd"/><path d="M150.75,76q0-.31,0-.63c1.07.48,2.23.82,2.9,1.91l-.57.56A8.1,8.1,0,0,1,150.75,76Z" style="fill:#c7d3d2;fill-rule:evenodd"/><path d="M104.65,97.45a.93.93,0,0,1-.38-1A.94.94,0,0,1,104.65,97.45Z" style="fill:#8b8784;fill-rule:evenodd"/><path d="M163.19,109.38l3.33-4.85c.33,0,.39.35.54.56a19.76,19.76,0,0,1-2.8,4.32Z" style="fill:#9f9999;fill-rule:evenodd"/><path d="M159.88,83.87a3,3,0,0,1,0-.38l.93,0A.88.88,0,0,1,159.88,83.87Z" style="fill:#84736f;fill-rule:evenodd"/><path d="M91.27,101.13a8.89,8.89,0,0,0-2.9-.83,2.52,2.52,0,0,1-1.56-1q-.41-2.7-.81-5.4a1.88,1.88,0,0,1,1.48-2.32,5.18,5.18,0,0,0,2.5-1.3c3-.63,6-1.64,8.91-2.53,1.38.06,1.32,1.08,1.41,2.05.35,4,.73,7.92,1.1,11.88a.87.87,0,0,1-.16,1.12c-1.56.92-2.89,0-4.26-.56a16.39,16.39,0,0,0-3.19-.63c-.37-.13-.76-.14-1.12-.31Z" style="fill:#fff;fill-rule:evenodd"/><path d="M102.17,100.81c1.48-.39,1.45,1,1.9,1.72a11.32,11.32,0,0,1,.82,2.17c.4,1.09,1.65,1.39,2.22,2.33a1.8,1.8,0,0,1-1,.56,21.87,21.87,0,0,1-5.74,0c-2.52-1.18-3.22-2.25-2.92-4.43.74-.7,1.49-.18,2.24,0a6.17,6.17,0,0,0,1.47,0,.74.74,0,0,0,.58-.46c.06-.26.09-.53.16-.79S102,101.16,102.17,100.81Z" style="fill:#fafbfb;fill-rule:evenodd"/><path d="M114.76,109.41h2.92a4.18,4.18,0,0,1-4.36,1.84,23,23,0,0,1-6.71-2.32c.87-1.45,2.16-1,3.36-.69A26.85,26.85,0,0,0,114.76,109.41Z" style="fill:#82716d;fill-rule:evenodd"/><path d="M99.92,103.51l-2.47-.37-.48-.85c1.46-.31,2.81.62,4.27.35l.18.24C101.21,103.77,100.39,103.22,99.92,103.51Z" style="fill:#9c8787;fill-rule:evenodd"/><path d="M100.37,107.57a36.78,36.78,0,0,1,5.74,0A8.67,8.67,0,0,1,100.37,107.57Z" style="fill:#a95a5a;fill-rule:evenodd"/><path d="M92.66,101.35a1.11,1.11,0,0,1,1.12.31A1,1,0,0,1,92.66,101.35Z" style="fill:#9a8080;fill-rule:evenodd"/><path d="M102.17,100.81l0,1.42c-.19.33-.36.71-.86.49l-.09-.09.15-.91Z" style="fill:#9c8787;fill-rule:evenodd"/><path d="M168,85.93a1,1,0,0,1-.39-1A.91.91,0,0,1,168,85.93Z" style="fill:#c3c5d4;fill-rule:evenodd"/><path d="M187.24,96.52l3.39,0a2.26,2.26,0,0,0,0,.44h-3.35A2.25,2.25,0,0,1,187.24,96.52Z" style="fill:#cc8080;fill-rule:evenodd"/><path d="M145,72.9h-3.92c0-.14,0-.27,0-.41H145A1.39,1.39,0,0,0,145,72.9Z" style="fill:#7c9b9b;fill-rule:evenodd"/><path d="M167.06,105.1l-.54-.56a1,1,0,0,1,.11-.39c.7-.63.4-1.48.48-2.24s-.24-1.45.38-2C167.59,101.63,168,103.42,167.06,105.1Z" style="fill:#7b7878;fill-rule:evenodd"/><path d="M119.08,105.47c-.07,0-.13.11-.21.12-2,.25-4.07,0-6.08.48-.66.14-1.11-.46-1-1.48,1.21.72,2.29.91,3.29-.27.46-.54,1.16-.28,1.69.2.94.85,1.72.5,2.41-.38a4.17,4.17,0,0,0,.34-.57c0-1.08,0-1.08.59-1a2,2,0,0,1,0,1.64.67.67,0,0,1-.12.4,1.44,1.44,0,0,1-.41.43l0,0A1,1,0,0,1,119.08,105.47Z" style="fill:#91817b;fill-rule:evenodd"/><path d="M121.48,95.14a1.08,1.08,0,0,1,.88,1.22,1,1,0,0,1-1.09,1c-.7-.05-.88-.59-.82-1.2A1,1,0,0,1,121.48,95.14Z" style="fill:#7d7571;fill-rule:evenodd"/><path d="M110.91,98.8c-.06.49-.28.92-.83.93s-.95-.52-1-1.08.27-1.13.95-1.06S110.91,98.18,110.91,98.8Z" style="fill:#887f79;fill-rule:evenodd"/><path d="M120.08,104.22q0-.82,0-1.64A1,1,0,0,1,120.08,104.22Z" style="fill:#9a928a;fill-rule:evenodd"/><path d="M119.51,103.56a.61.61,0,0,1-.34.57Z" style="fill:#9a928a;fill-rule:evenodd"/><path d="M119.08,105.47l.43-.38A.45.45,0,0,1,119.08,105.47Z" style="fill:#9a928a;fill-rule:evenodd"/><path d="M119.54,105.05l.41-.43A.44.44,0,0,1,119.54,105.05Z" style="fill:#9a928a;fill-rule:evenodd"/><path d="M101.34,102.73l.86-.49a1.22,1.22,0,0,1-.13,1l-.21.22a2.55,2.55,0,0,1-1.92,0C100.28,103,101,103.31,101.34,102.73Z" style="fill:#8b8784;fill-rule:evenodd"/><path d="M101.85,103.46a.37.37,0,0,1,.21-.22l0,.18Z" style="fill:#9c8787;fill-rule:evenodd"/></svg>