<svg xmlns="http://www.w3.org/2000/svg" viewBox="0 0 169.73 208.54"><title>アセット 4</title><path d="M107.72,12.21a32.34,32.34,0,0,1-.87-5.82,2.3,2.3,0,0,1,1.8-2.51,2.23,2.23,0,0,1,2.75.84c1,1.71,2.26,2,4,1.37A4.06,4.06,0,0,1,117.58,6a30.77,30.77,0,0,0,9.25.08c2.6-.24,5.24-.43,7.84-.69C138.74,5,142.79,5,146.85,5c2.47,0,4.89.58,7.37.58,1.78,0,2.91,1.49,4.09,2.54.63-.12.89-.56,1.24-.87,1.59-1.39,1.72-1.43,3.53-.43a2.16,2.16,0,0,0,1.54.31,2.49,2.49,0,0,1,3.16,2.55c0,.48,0,1,0,1.44,0,6.72-.11,13.44,0,20.15.12,5.83-.54,11.63-.64,17.45-.05,3.08-.27,6.2-.36,9.3a5,5,0,0,0,.54,2.78,4.3,4.3,0,0,1,.36,3.27c-.59,2.3-.37,4.61-.4,6.91,0,3,0,6.08,0,9.12a2.19,2.19,0,0,0,1,2.23,2.73,2.73,0,0,1,1.34,2.88c-.73,4.82-.06,9.71-.85,14.52a14.56,14.56,0,0,0-.08,2.39c0,9.82-.37,19.64-.64,29.45-.2,7-.11,14-.32,21.06-.19,6.46-.42,12.91-.61,19.37-.11,3.57,0,7.19-.42,10.73-.45,3.83-.24,7.65-.46,11.46-.1,1.74-.45,3.46-.46,5.22,0,1.23.54,2.32.53,3.54,0,1.52-.43,2.66-2,3.12s-2.36,1.89-4,2.12a6,6,0,0,1-2.1.25,23.36,23.36,0,0,0-9.48,0,9.68,9.68,0,0,1-1.91.06c-4,0-8,0-12,0a44.33,44.33,0,0,1-12.89-2.1,6.37,6.37,0,0,1-4.6-5.05c.95-2.26.36-4.36-.75-6.37-.7-1.26-1.08-2.65-.26-3.86a18.5,18.5,0,0,0,3.35-10.88c.22-9.64-.21-19.28.55-28.9.12-5.82-.23-11.65.18-17.46,1-1,2.17-.31,3.25-.5a10.77,10.77,0,0,0,2.77.25c2.48.27,4.73,2,7.39,1.23,1.77-.5,3.57-.84,5.37-1.23q2.7,0,5.4,0a15.83,15.83,0,0,0,2.85.26c3.88.64,7.78,1.15,11.68,1.65a5.38,5.38,0,0,1,1.58.13,1.67,1.67,0,0,0,.39.11c0-.53-.45,0-.62-.22-4-.16-8-1-12-1.48a15,15,0,0,0-2.78-.28,32.59,32.59,0,0,0-7.57,0c-1.48.42-3,.64-4.5,1.08a5.76,5.76,0,0,1-2.28.13q-2-.62-3.94-1.2a11.67,11.67,0,0,0-2.67-.22c-2.15-.51-4.27,0-6.39.18a3,3,0,0,1-.82.09c-2.62.18-5.24.19-7.86.41-1.21,0-2.4.28-3.61.32-3.63.85-6.55-.94-9.44-2.64-1.09-.64-2.44-1.33-2.31-3s1.46-2.11,2.68-2.66a5.86,5.86,0,0,1,2.17-.61c1.32-.19,2.57-1.05,4-.43,1.39,1.27,3.33,2.08,3.6,4.28a2.94,2.94,0,0,1,0,.65c0,.21-.19.59-.08.63.48.17.77-.28,1.13-.49a1.11,1.11,0,0,0,.28-.4c-1.53-1.66-3.19-3.18-4.62-4.92,1.29-.9,2.59-.45,3.89,0a12.2,12.2,0,0,1,3.72.71,6,6,0,0,0,4,.24,8.13,8.13,0,0,1,2.69.07c2.2.48,4.45.35,6.67.65,2.15.5,4.66-.53,6.45,1.57.32.37.87-.13,1.31-.26a5.22,5.22,0,0,1,2.77-.42c2.81.6,5.72-.31,8.5.59a4.65,4.65,0,0,0,3.23.08c2.15-.62,4.39-.9,6.47.39.86.53,2-.28,2.8.64a2.31,2.31,0,0,1,2.15-.85c1.8,0,3.6,0,5.4,0a4.59,4.59,0,0,1,1.1.11c.16,0,.44.2.44.18-.07-.45-.48-.13-.7-.28-2.33-.05-4.65,0-7,0-1.65.12-3.27.15-4.26-1.55-.73-2.66-.28-4.71,2.37-6.27,3.23-1.92,4.19-5,2.92-8.46a20.86,20.86,0,0,0-4.46-7,4,4,0,0,0-2.66-1.45c-.95-.05-1.89-.05-2.83,0-2.33.16-4.07,1.52-5.8,2.86a5.57,5.57,0,0,1-1.69,1.23,4.36,4.36,0,0,1-1.06.17,30.18,30.18,0,0,0-3.9.15,2.36,2.36,0,0,1-.7,0c-1.39-.61-2.14-2-3.36-2.8s-2.62-1.67-4.26-1.62c-.93,0-1.87,0-2.8,0-.91-.15-1.75.9-2.7.16.2-.82-.43-1.48-.43-2.26-.27-6.59.65-13.15.48-19.73a2.3,2.3,0,0,1,.28-1.38c1.63-1,3.42-.36,5.13-.47s3.66,0,5.48-.07a6.08,6.08,0,0,1,1.57-.42c-.86-.06-1.59.61-2.47.46h-5.35c-3.7-.07-7.4.27-11.08-.23a20.85,20.85,0,0,1-2.18-.08c-4.23-.38-8.44-1.12-12.72-.64-1.64.08-3.24.65-4.9.48a9.62,9.62,0,0,0-2.83.22c-1.26-.1-2.48.35-3.74.26-3.19-.05-6.38.11-9.57-.09a2.14,2.14,0,0,1-1.39-1.56c-.14-.7-.5-1.33-.61-2S78,74.81,79,74.85c3.65,0,7.3.06,10.94,0,2.13-.5,4.32.1,6.45-.38,3.8-.17,7.55-.92,11.37-.91a20.32,20.32,0,0,1,3.24-.08c2.65.54,5.28.91,7.83-.42,1-.73,2-1.35,2.92-2.09a4.82,4.82,0,0,1,2.76-.35,8.67,8.67,0,0,0,2.06.27c.33.1.67.19,1,.26a16.49,16.49,0,0,0,3.69.81c.33.08.67.06,1,.12.61.31,1.31,0,1.88.3-.35-.27-.73-.06-1.07-.14a8,8,0,0,0-1.62-.26c-.77-.33-1.64-.06-2.4-.41a13.94,13.94,0,0,0-2.11-.61c-.77-.23-1.59-.06-2.35-.36-1.83.2-2.79-.51-3.05-2.44a37.78,37.78,0,0,1-.25-4.77c0-5.73.14-11.46-.26-17.18-.12-1.89-.81-3.71-.7-5.62a4.29,4.29,0,0,0-.18-1.47c-1-5.46-3.43-10.36-6-15.18-1.9-3.57-3.84-7.12-5.49-10.82C108.46,12.71,108.43,12.07,107.72,12.21Z" style="fill:#f0e6d3;fill-rule:evenodd"/><path d="M71.84,30.47a6.33,6.33,0,0,0,0,2.38,1.15,1.15,0,0,1-.7.3c-1.37-.28-2.8-.4-3.92-1.41-.71-1.72-.11-3.44,0-5.17S68,23,66,21.83A92.48,92.48,0,0,0,50.89,21c-1,0-2.06,0-3.09,0-5.18.11-10.32-.82-15.51-.49a10.73,10.73,0,0,0-3.08.28c-3.75,0-7.5-.49-11.25,0-3.66-.16-7.31-.7-11-.7-2.43,0-2.94.52-3.12,2.9,0,.48,0,1,0,1.44q0,18.72,0,37.44c0,3.69.23,3.77,4,3.93,7.1.31,14.21.58,21.32.45A9.8,9.8,0,0,0,32.23,66a5.35,5.35,0,0,1,4.23.9c.71,2.79,0,3.93-2.68,3.83-10.3-.37-20.6-.42-30.9-.69-1.37,0-2.1-.6-2.1-2,0-.16,0-.32,0-.48.29-10.47-1-20.93-.4-31.38.33-5.67.33-11.33.39-17,0-1.75.76-2.54,2.5-2.28C4,17,4.7,17,5.41,17c1.61.1,2.54-.29,1.81-2.18-.32-.82.19-1.56.5-2.28s.9-1.47,1.8-1.3.75,1.08.67,1.78c-.13,1.16.29,2,1.52,1.89s1.55-.94,1.12-2.07c-.12-.59-.56-1.33.22-1.69s1.35.25,1.79.83a3.94,3.94,0,0,1,.67,3.41C15.2,16.7,15.85,17,16.89,17h.48c12.37-.3,24.73.77,37.1.53,1.86,0,2.92-.28,2.49-2.44a2.56,2.56,0,0,1,.36-1.84c.4-.66.93-1.2,1.73-1s.67,1,.61,1.6a2.37,2.37,0,0,0,.29,1.83,1.9,1.9,0,0,0,2,.56c.78-.13,1-.69,1-1.4s-.2-1.1-.14-1.67c0-.41.13-.84.56-1a1,1,0,0,1,1,.48,3.87,3.87,0,0,1,.77,3.38c-.49,1.59.4,1.78,1.55,1.89.32,0-.08,0,.24,0,4.88.35,4.88.35,4.89,5.32C71.81,25.68,71.77,28.08,71.84,30.47Z" style="fill:#84736f;fill-rule:evenodd"/><path d="M13.25,12.68a1.09,1.09,0,0,1,.58,1.73,2.34,2.34,0,0,1-2.26,1.46c-1.7-.09-2.37-1-2.07-2.76.08-.45.49-.84.25-1.36C7.5,12.4,7.16,14,8.68,17c-1.65.91-3.41.51-5.09.37-1.93-.15-2.39,0-2.32,1.88C1.58,27.47.66,35.66.74,43.88c.08,7.89.81,15.77.53,23.67-.07,2,.23,2.24,2.43,2.25,5.43,0,10.88-.23,16.3.08,4.3.25,8.59.39,12.89.4,3.26,0,3.32-.06,3.4-3.35.84-1.11,1.85-1.06,3-.46a11.86,11.86,0,0,1,3.2,2.77c.38.48,1.21,1,.18,1.73-1.1.08-1.64-.81-2.35-1.38-2-1.57-2.39-1.44-3.06,1-.19.44-.36.9-1,.75-9.18-.39-18.36-.64-27.55-.65-2.22,0-4.45-.23-6.69-.29-1.66,0-1.71-.13-1.74-1.84,0-3,0-6.07-.08-9.11-.3-13.58-.23-27.16.3-40.73.09-2.25.1-2.26,2.32-2.26.4,0,.8,0,1.2,0,.87,0,1.86.3,2.59-.19s0-1.47.15-2.23c.27-1.37.61-2.71,1.94-3.41A2.69,2.69,0,0,0,10.1,7.87c0-2.46.17-4.91.28-7.87a4.44,4.44,0,0,1,.53,2.85c0,2.4,0,4.8,0,7.19,0,.92-.1,2,.87,2.58a.62.62,0,0,1,.13.58c-.13.26-.59.61-.34.77.53.34.79-.22,1.06-.59a2.84,2.84,0,0,1,.36-.51Z" style="fill:#6d6665;fill-rule:evenodd"/><path d="M71.84,30.47c-.77-.6-.5-1.46-.51-2.23,0-2.39,0-4.79,0-7.18,0-2-.61-2.55-2.57-2.61-1.28,0-2.56,0-3.83,0s-1.45-.52-.9-1.48c1.13-2,1-2.6-.63-4.39-.44.83.31,1.5.29,2.29,0,1.59-.36,2.06-1.85,2.15-1.86.12-2.81-.55-3-2-.09-.82.47-1.5.41-2.33-2.07.6-2.36,1.91-1.14,4.85-.37.6-1,.41-1.5.41-6.15,0-12.32.38-18.43-.09-7.34-.57-14.65-.16-22-.38-.24,0-.48,0-.72,0-1.23-.11-1.41-.39-1-1.48,1-2.31.8-3-1.23-4.61-.52.4.07.87-.07,1.29h0c-1.47-.37-1.68-1.92-.45-3.38,2.39,1.31,3.75,3.19,3.31,6-.13.84.25,1.16,1,1.16s1.76,0,2.63,0c6.79,0,13.57,0,20.34.52A121,121,0,0,0,56.44,17c-.61-3.13.61-5.32,3.46-6.67,1.49.55.76,1.92,1.07,2.9,0,.22,0,.45,0,.67a5.23,5.23,0,0,0,.09-.66c.18-1-.08-2.1.58-3a.58.58,0,0,1,.65,0h0a.92.92,0,0,0,.5.51c2.27.85,3,2.59,3,4.88,0,1.69,0,1.7,1.63,1.82,1.11.08,2.22.1,3.33.19a1.42,1.42,0,0,1,1.5,1.51q0,5.48-.09,11C72.1,30.22,71.93,30.35,71.84,30.47Z" style="fill:#6d6665;fill-rule:evenodd"/><path d="M82.29,42a.31.31,0,0,1,.13.36c.18.35.12.79.42,1.09.13.2.33.38.36.59a8.48,8.48,0,0,0,3.11,5.3c2.32,2,3.2,5.08,3.72,8.11a13.46,13.46,0,0,1,.24,3.09c-.23,3.73-1.15,4.63-5,5l-.56.29a.14.14,0,0,1-.17.15c-.19.63.06,1.32-.22,1.94a.75.75,0,0,1-.64.05,2.21,2.21,0,0,1-.54-.88,3.84,3.84,0,0,1-.26-1c0-1.47,1.11-1.52,2.1-1.8,3.23-.92,4.21-2.3,3.6-5.6-.76-4.15-1.85-8.11-6.45-9.85-1.39-.53-.76-2.09-.91-3.22a7,7,0,0,0-.11-.89c-.05-.17-.09-.35-.13-.53s-.11-.49-.2-.73a4.52,4.52,0,0,0-.23-.41l-.3-.36-.16-.17c-.12-.1-.22-.21-.33-.33L79.67,42l-.35-.3-.19-.13-.42-.22-.45-.19c-.31-.12-.64-.22-.95-.36a.91.91,0,0,1-.37-.38,1.06,1.06,0,0,1,.21-.76,1.77,1.77,0,0,1,.39-.36c.22-.14.45-.26.67-.41s.28-.22.42-.32a1.92,1.92,0,0,1,.49-.25,1.48,1.48,0,0,1,.55,0c.41.1.54.48.79.74h0c.25.28.16.74.53,1l0,0a2.45,2.45,0,0,0,.42.54l0,0c.3.23.19.7.53.91l0,0Z" style="fill:#756c6b;fill-rule:evenodd"/><path d="M120.7,40c0,1.94.76,3.82.47,5.78-.15.22-.31.23-.47,0a2.69,2.69,0,0,1-.48-2.19c-.36-1,0-2.07-.3-3.07-.59-4.48-2.38-8.55-4.31-12.56-1.65-3.44-3.5-6.79-5.28-10.17a52.15,52.15,0,0,1-2.61-5.62c.07-.38-.12-.8.18-1.16s.56.18.64.41c1.91,5.35,4.93,10.16,7.49,15.19A89.79,89.79,0,0,1,120,36.11a10.41,10.41,0,0,1,.37,2.83C120.51,39.29,120.47,39.7,120.7,40Z" style="fill:#8e8986;fill-rule:evenodd"/><path d="M119.88,180.82a3.41,3.41,0,0,0,0,.48,12.08,12.08,0,0,1-2.65,9.12,3.84,3.84,0,0,0-.16,4.48,7.53,7.53,0,0,1,1.36,4.26c-.07.87,0,1.79-1,2.23-.11-.21-.36-.47-.31-.61.75-2.08,0-3.93-1-5.65a4.43,4.43,0,0,1-.09-4.32,3.26,3.26,0,0,1,.43-.85c2.81-3.38,2.76-7.45,2.8-11.5q.07-8,.14-16c.54,0,.66.32.65.75C120,169.09,120.24,175,119.88,180.82Z" style="fill:#888480;fill-rule:evenodd"/><path d="M78.57,75c-.48.33-.45.71-.2,1.2A3.36,3.36,0,0,1,79,78c-.33.32-.09,1.31-1,.89-.84-2.36-3.35-3.85-3.36-6.63,0,2.1,1.06,4.05.86,6.18a1.35,1.35,0,0,1-.8.62.71.71,0,0,1-.61-.22,4.43,4.43,0,0,0-3.64-3.62.76.76,0,0,1-.09-.62c2.63-1.09,2.63-1.09,1.58-3.34a4.09,4.09,0,0,1-.69-1.15.94.94,0,0,1,.29-.62c2.4-.77,4.63-2,7.12-2.52.49.13,1,.19.91.92-1.28,0-2.1,1-3.16,1.48-.65.29-.74.94-.7,1.63.12,2.06.71,2.8,2.93,3.55.15.1.21.21.17.32S78.62,75,78.57,75Z" style="fill:#8d8077;fill-rule:evenodd"/><path d="M120.7,45.83h.47c1,5.05.48,10.17.59,15.25,0,1.91,0,3.83,0,5.74.08,2.87.43,3.22,3.26,3.51a.35.35,0,0,1,.15.36c0,.13-.07.19-.11.2a1,1,0,0,1-.65,0,7.87,7.87,0,0,0-2.69.44c-.49.06-.72-.13-.61-.65-.45-7.25-.13-14.52-.44-21.77a4.86,4.86,0,0,1,0-2.72A.27.27,0,0,1,120.7,45.83Z" style="fill:#837f7c;fill-rule:evenodd"/><path d="M79.47,67.88a.93.93,0,0,0-1-.48c-.24-.95.43-1.5,1-2A11.42,11.42,0,0,0,82.7,53.74a7.13,7.13,0,0,1-.31-2.12c1-2.37,1.71-.53,2,.31,1.46,4.17,1.43,8.27-1,12.13-.3.47-.68.88-1,1.35s-1,1.16-.69,1.92c.43.92,1.36.58,2.13.57h.48c.14-.23.29-.24.43,0a1.27,1.27,0,0,1-.07,1,1,1,0,0,1-.35.41C82.21,70.47,80.81,69.26,79.47,67.88Z" style="fill:#756d6b;fill-rule:evenodd"/><path d="M122.73,80.52c.09,6.34-.76,12.65-.5,19,0,.68.24,1.45-.49,2-.77-2.83-.38-5.7-.27-8.55.15-3.59.18-7.18.21-10.78,0-1.24-.52-1.67-1.71-1.74-1.41-.09-2.88.36-4.21-.46,2.25-.6,4.54-.21,6.81-.23A.56.56,0,0,1,122.73,80.52Z" style="fill:#898885;fill-rule:evenodd"/><path d="M119.88,180.82c0-5.29,0-10.58-.09-15.87,0-.83.32-1.75-.42-2.48q.24-5.77.47-11.55c.49-.26.64.13.83.44.46,3.11-.38,6.16-.37,9.26,0,5.88,0,11.77-.06,17.66A4,4,0,0,1,119.88,180.82Z" style="fill:#969490;fill-rule:evenodd"/><path d="M97.3,126.47a4.56,4.56,0,0,1-.55.45c-2.56,1.52-2.66,2.74-.23,4.33,1.66,1.08,3.44,2,5.17,2.92a2.16,2.16,0,0,0,1.62.09,7.36,7.36,0,0,1,2.61,0c.61.38,1.42-.15,2,.43a10.15,10.15,0,0,1-5.88.39c-2.75-.85-5.53-2-7.51-4.31-1.06-1.22-.92-2,.32-3.84a2.77,2.77,0,0,1,.57-.41.92.92,0,0,0,.38-.18,1.39,1.39,0,0,0,.53-.33,1.16,1.16,0,0,1,.45,0C97,126.14,97.25,126.17,97.3,126.47Z" style="fill:#928280;fill-rule:evenodd"/><path d="M115,126.43a3.25,3.25,0,0,1-2.69.21c-1.63-.51-3.3-.88-5-1.31.2-1.19,1.46-.05,1.84-.85,1.2-2,1.08-2.38-1-3.7l.25-.31a4.21,4.21,0,0,1,3.42-.09.73.73,0,0,1,.4.56c-.13.69-.73,1.22-.73,2s-.42,1.53.51,1.83,1.44-.32,1.71-1.16a6.71,6.71,0,0,1,.41-1.1.83.83,0,0,1,.9-.44c1.45,1.13.75,2.47.38,3.78A4.58,4.58,0,0,1,115,126.43Z" style="fill:#8f8988;fill-rule:evenodd"/><path d="M71.31,32.87l.5,0a13.76,13.76,0,0,1,4.31,2.39c.29.4,1.31.13,1,1.08a2.52,2.52,0,0,1-1.37.84,4.37,4.37,0,0,0-3.58,4.3,8.7,8.7,0,0,1-1.73,3c-1.09,0-1.12-.89-1-1.53.45-2.1.85-4.35,2.5-5.81,1.4-1.25,1.25-1.87-.24-2.64a1.38,1.38,0,0,1-.63-1A.87.87,0,0,1,71.31,32.87Z" style="fill:#746c6a;fill-rule:evenodd"/><path d="M70.84,79.81c-2.73.2-5.46.39-8.18.63a1.81,1.81,0,0,1-1.3-.41,4.66,4.66,0,0,0-2-.67.44.44,0,0,1,0-.59,3.83,3.83,0,0,1,1.87-.45,1.86,1.86,0,0,0,1-.44c.49-.56.28-1.31.56-1.93a.9.9,0,0,1,.73-.54,1.58,1.58,0,0,1,1.2,1.36c0,.39-.35.67-.43,1,.44.7.62-.26,1-.16a1.78,1.78,0,0,1,1.31.08c1.1,1.24,2.78.87,4.12,1.46a.45.45,0,0,1,.19.39C70.9,79.73,70.88,79.81,70.84,79.81Z" style="fill:#756965;fill-rule:evenodd"/><path d="M122.17,103.75a7,7,0,0,1,2.44-.7.7.7,0,0,1,.19.59c-.37,1-1.58,1.07-2,2,0,.26-.18.65.34.66a.57.57,0,0,1,.3-.77,2.43,2.43,0,0,1,3.21,2.14c-.78,1-2.25.39-3.07,1.32a1,1,0,0,1-1,.29,21.58,21.58,0,0,1-3.06-5.82c.1-.37.26-.66.73-.51C120.89,103.27,121.19,104.28,122.17,103.75Z" style="fill:#897c74;fill-rule:evenodd"/><path d="M55.8,79c-2.33-.21-4.72.27-7-.72-.91-.4-1.87.1-2.76.35a2.93,2.93,0,0,1-2.7-.09,2.06,2.06,0,0,1,1.14-1A13.11,13.11,0,0,1,46.4,77c4.21.2,8.51-.24,12.54,1.52C58.08,79.81,56.87,79,55.8,79Z" style="fill:#9c7f7d;fill-rule:evenodd"/><path d="M103.92,107.13a.34.34,0,0,1,.11-.34c.32-.19.5,0,.68.23s.19.31.28.47.32.45.47.68a.85.85,0,0,1,.06.54,2.77,2.77,0,0,1-.35.45,4.86,4.86,0,0,0-.5.74,12,12,0,0,0-1.9,4.88.71.71,0,0,1-.54.29c-.26-.05-.38-.36-.65-.37-.25.32-.34.85-.93.68-.46-2.72.69-4.84,2.49-6.72a2.22,2.22,0,0,1,.33-.48v0C103.8,107.92,103.72,107.47,103.92,107.13Z" style="fill:#807b7b;fill-rule:evenodd"/><path d="M78,78.89c.51-.09.53-.7.95-.89l.56,1.36a.46.46,0,0,1,.15.51c-.18.23-.48.32-.68.52a8.08,8.08,0,0,1-4.36.14.71.71,0,0,0-.49-.58v0a.65.65,0,0,1,.15-.92l.81-.57a.53.53,0,0,0,.43-.14,1.89,1.89,0,0,0,.19-.72,1.44,1.44,0,0,1,.36-.73,1.19,1.19,0,0,1,.55-.16,1,1,0,0,1,.7.44,4.16,4.16,0,0,1,.33,1A2.47,2.47,0,0,0,78,78.89Z" style="fill:#6d6865;fill-rule:evenodd"/><path d="M100.66,115.39c.57-.3.3-1.14.9-1.43.31.28.24.67.24,1,0,.17,0,.33,0,.33.25,0,.08-.36.31-.4l.61,0c1.88,1.73,3.43,3.81,5.65,5.17a.52.52,0,0,1,0,.6l-.08.11a4.51,4.51,0,0,1-2.79-1.11,10.41,10.41,0,0,0-2.63-1.51A2.8,2.8,0,0,1,100.66,115.39Z" style="fill:#8d8584;fill-rule:evenodd"/><path d="M12.8,9.31c-.79,1.85-.7,2.51.45,3.38l-.07.6a1,1,0,0,1-1.38-.21c0-.15,0-.3,0-.46.37-3.09.08-6.2.18-9.29,0-.93-.13-1.89.76-2.76,0,1.4.08,2.8.09,4.21S12.8,7.8,12.8,9.31Z" style="fill:#7d7675;fill-rule:evenodd"/><path d="M107.94,73.74c-.21.1-.43.29-.64.29-3.66-.11-7.26.81-10.93.6-2,.43-4,.13-6,.18L90,74.55a1.53,1.53,0,0,1,1.11-.33A90.19,90.19,0,0,0,102,73.55c1.11-.4,2.31.16,3.41-.35l.93,0C106.84,73.62,107.56,73.13,107.94,73.74Z" style="fill:#9b6765;fill-rule:evenodd"/><path d="M104.49,107.32l-.46-.53c1.34-3.08,3.28-5.55,6.65-6.59a.78.78,0,0,1,.21.61C108.44,102.68,107.71,106.22,104.49,107.32Z" style="fill:#8e7f7f;fill-rule:evenodd"/><path d="M60.78,13.64c-.56-.37-.46-1-.49-1.51s.17-1.29-.39-1.8a86.8,86.8,0,0,1,.25-9c.06-.46,0-1,.6-1.16,1.39,3,.58,6.14.59,9.22C61.34,10.8,61.65,12.33,60.78,13.64Z" style="fill:#888584;fill-rule:evenodd"/><path d="M120.68,151.36l-.83-.44.12-1c.28-5.4-.11-10.81.2-16.22a.5.5,0,0,1,.78.06q-.08,7-.17,14.05C120.76,149,120.71,150.17,120.68,151.36Z" style="fill:#7d7c78;fill-rule:evenodd"/><path d="M120.27,133.68c0,4.72,0,9.43,0,14.15,0,.7.2,1.45-.32,2.08,0-4.51,0-9,0-13.53,0-2.14,0-2.14-2.12-2.3a.29.29,0,0,1,.08-.47.32.32,0,0,1,.34,0A2.24,2.24,0,0,1,120.27,133.68Z" style="fill:#718484;fill-rule:evenodd"/><path d="M109.24,124.47c-.36.84-1.36.28-1.84.85-1.32-.14-2.65-.66-3.93.17l0,0-4.35.47a.34.34,0,0,1,0-.59c2.67-1,5.37-1.62,8.24-1A11.52,11.52,0,0,0,109.24,124.47Z" style="fill:#a18683;fill-rule:evenodd"/><path d="M100.65,78.55a49.27,49.27,0,0,1,13,.8c-.23.43-.76.19-1,.47l-9-.83C102.61,79,101.49,79.74,100.65,78.55Z" style="fill:#946e6d;fill-rule:evenodd"/><path d="M56.44,17a1.33,1.33,0,0,1-1.26.48h-14a1.39,1.39,0,0,1-1.06-.42Z" style="fill:#aa5a5a;fill-rule:evenodd"/><path d="M44.43,78c-.24.4-.67.42-1.06.5a4.44,4.44,0,0,1-.92-.11c-.58-.19-1.26-.33-1.4-1.07s.71-.89,1.12-1.3a4.61,4.61,0,0,0,.29-.36c-.17-.46.08-.68.46-.84a2.71,2.71,0,0,1,2.63,1.63C45.89,77.51,44.08,77,44.43,78Z" style="fill:#8c7e7b;fill-rule:evenodd"/><path d="M60.78,13.64q0-6.71,0-13.42l1,.48A1.52,1.52,0,0,1,62,1.94c-.64,3.88,0,7.85-.78,11.72C61.09,13.93,60.93,13.81,60.78,13.64Z" style="fill:#e2e1e1;fill-rule:evenodd"/><path d="M43,75.07l-.58.62a6.19,6.19,0,0,0-2.68-1.77,8.53,8.53,0,0,1-3.54-2.6,1.31,1.31,0,0,0,.58-1.09C38.75,72,41.67,72.55,43,75.07Z" style="fill:#988c89;fill-rule:evenodd"/><path d="M61.66,1.65l.08-1c1.36.31.78,1.41.72,2.12a63,63,0,0,0-.19,7.42l-.48.07A32.49,32.49,0,0,1,61.66,1.65Z" style="fill:#7d7979;fill-rule:evenodd"/><path d="M79,80.39l.51-.51c3.29-.5,6.6-.09,9.9-.22.73.09,1.51-.23,2.18.28a2.49,2.49,0,0,1-1.81.44Z" style="fill:#7c9393;fill-rule:evenodd"/><path d="M78.57,75l0-.5H90l0,.11c.16.1.2.18.13.25A.25.25,0,0,1,90,75,91.63,91.63,0,0,1,78.57,75Z" style="fill:#8c5555;fill-rule:evenodd"/><path d="M122.7,79.92l-6.94,0-.2-.06c-.18-.07-.25-.15-.21-.25s.09-.17.14-.17c3.83-.08,7.66-.16,11.5,0a.37.37,0,0,1-.25.6A15.18,15.18,0,0,1,122.7,79.92Z" style="fill:#b06260;fill-rule:evenodd"/><path d="M120.3,102.92l-.5.48a12.23,12.23,0,0,1-4.94-2.79A.64.64,0,0,1,115,100,7.22,7.22,0,0,1,120.3,102.92Z" style="fill:#a18885;fill-rule:evenodd"/><path d="M119.26,73.09c-2.61,1.81-5.39,1.34-8.19.6.42-.49,1-.15,1.51-.34a9.45,9.45,0,0,0,6.21-.73C119.25,72.46,119.34,72.69,119.26,73.09Z" style="fill:#886d6b;fill-rule:evenodd"/><path d="M77.08,36.15l-1-.91c2.07.16,4.16-.44,6.22.15a1,1,0,0,1,0,1.3h0c-.56.26-1-.27-1.57-.17C79.54,36.68,78.22,37.25,77.08,36.15Z" style="fill:#93847d;fill-rule:evenodd"/><path d="M117.9,133.6a4,4,0,0,1-.08.47l-2.23.1c-1.77.53-3.63-.14-5.4.38h-.49c-.15-.11-.2-.21-.14-.31s.11-.15.16-.15C112.41,133.31,115.17,133.71,117.9,133.6Z" style="fill:#986d6d;fill-rule:evenodd"/><path d="M100.65,78.55c.91.71,2,.17,3,.44-1.54.72-3.19.29-4.77.48-1,0-2.15.76-3-.43Z" style="fill:#967878;fill-rule:evenodd"/><path d="M95.85,79c.91.73,2,.18,3,.43a13,13,0,0,1-5.48.38c-.14-.12-.18-.23-.12-.34s.11-.16.16-.16C94.15,78.7,95,79,95.85,79Z" style="fill:#968684;fill-rule:evenodd"/><path d="M112.57,73.35c-.44.4-1,.26-1.51.34l-3.13.06c-.52-.16-1.14,0-1.54-.49A19.83,19.83,0,0,1,112.57,73.35Z" style="fill:#995a59;fill-rule:evenodd"/><path d="M119.26,73.09l-.48-.47a8.32,8.32,0,0,1,2.37-2l.61.64A5.82,5.82,0,0,1,119.26,73.09Z" style="fill:#a49892;fill-rule:evenodd"/><path d="M81.3,35.81c.58,0,.62.72,1.08.9-.32,1-1.22,1.34-1.89,2a1.2,1.2,0,0,1-.68-.6C79.82,37,80.76,36.53,81.3,35.81Z" style="fill:#a09b98;fill-rule:evenodd"/><path d="M115,100l0,.6a2.37,2.37,0,0,1-2.83.14.55.55,0,0,1-.09-.76A2.64,2.64,0,0,1,115,100Z" style="fill:#888c8b;fill-rule:evenodd"/><path d="M110.19,134.54c1.75-.85,3.6-.25,5.4-.38C113.83,134.91,112,134.65,110.19,134.54Z" style="fill:#7f8383;fill-rule:evenodd"/><path d="M74.27,79.05l-.15.92-3.28-.17c0-.1,0-.2,0-.3a2.56,2.56,0,0,1,3.36-.57Z" style="fill:#767777;fill-rule:evenodd"/><path d="M109.72,134.09c0,.15,0,.3,0,.46l-1.79.11c-.65-.22-1.42.13-2-.43Z" style="fill:#9c5858;fill-rule:evenodd"/><path d="M93.4,79.34l0,.5-1.79.09-2-.09c-.15-.1-.19-.19-.13-.27a.23.23,0,0,1,.17-.11Z" style="fill:#965656;fill-rule:evenodd"/><path d="M55.8,79c1-.24,2.09.26,3-.39.1-.11.21-.2.3-.17s.21.28.18.47,0,.3,0,.45A6.08,6.08,0,0,1,55.8,79Z" style="fill:#99908f;fill-rule:evenodd"/><path d="M99.13,125.35c0,.2,0,.39,0,.59l-1.84.53-.53-.44A4.1,4.1,0,0,1,99.13,125.35Z" style="fill:#9a6f6c;fill-rule:evenodd"/><path d="M105.46,73.2a6.11,6.11,0,0,1-3.41.35C103.13,72.88,104.31,73.18,105.46,73.2Z" style="fill:#f0e6d3;fill-rule:evenodd"/><path d="M119.93,40.56c.69,1,.25,2,.3,3.07A6.12,6.12,0,0,1,119.93,40.56Z" style="fill:#92908b;fill-rule:evenodd"/><path d="M115.5,79.47a1.41,1.41,0,0,0,.07.42,9.1,9.1,0,0,1-2.94-.07c.25-.37.66-.4,1-.47Z" style="fill:#886464;fill-rule:evenodd"/><path d="M120.71,46.15q0,1.36,0,2.72A3,3,0,0,1,120.71,46.15Z" style="fill:#8e8986;fill-rule:evenodd"/><path d="M84.72,67.89h-.43c.06-.64-.19-1.34.31-1.91Z" style="fill:#84736f;fill-rule:evenodd"/><path d="M112.11,100c0,.18,0,.36,0,.54a.93.93,0,0,1-1.37.07,1.7,1.7,0,0,0,0-.36Z" style="fill:#9c6969;fill-rule:evenodd"/><path d="M80,38.12l.52.54a1.42,1.42,0,0,1,0,.42l-1.07-.52C79.41,38.19,79.56,38,80,38.12Z" style="fill:#7b7270;fill-rule:evenodd"/><path d="M82.38,36.7q0-.65,0-1.3C83.06,35.8,82.86,36.24,82.38,36.7Z" style="fill:#a09b98;fill-rule:evenodd"/><path d="M103.92,107.13a.94.94,0,0,1-.46,1.06A1.26,1.26,0,0,1,103.92,107.13Z" style="fill:#8e7f7f;fill-rule:evenodd"/><path d="M82.84,43.4a1,1,0,0,1-.42-1.09A1.33,1.33,0,0,1,82.84,43.4Z" style="fill:#7b7270;fill-rule:evenodd"/><path d="M81.93,41.47a.9.9,0,0,1-.53-.91A1,1,0,0,1,81.93,41.47Z" style="fill:#7b7270;fill-rule:evenodd"/><path d="M81,40a.87.87,0,0,1-.53-1A1.18,1.18,0,0,1,81,40Z" style="fill:#7b7270;fill-rule:evenodd"/><path d="M62.75,10.73a.59.59,0,0,1-.5-.51Z" style="fill:#7d7979;fill-rule:evenodd"/><path d="M74.13,79.95a.58.58,0,0,1,.49.58Z" style="fill:#767777;fill-rule:evenodd"/><path d="M84.29,69.28l.35-.41C84.68,69.14,84.54,69.25,84.29,69.28Z" style="fill:#84736f;fill-rule:evenodd"/><path d="M96.32,126a.53.53,0,0,1-.53.33Z" style="fill:#f0e6d3;fill-rule:evenodd"/><path d="M95.41,126.49a.67.67,0,0,1-.57.42Z" style="fill:#f0e6d3;fill-rule:evenodd"/><path d="M84.77,65.82l.56-.29Z" style="fill:#84736f;fill-rule:evenodd"/><path d="M82.29,42l-.38-.51A.45.45,0,0,1,82.29,42Z" style="fill:#7b7270;fill-rule:evenodd"/><path d="M81.38,40.53,81,40A.59.59,0,0,1,81.38,40.53Z" style="fill:#7b7270;fill-rule:evenodd"/><path d="M103.48,108.18l-.33.48Z" style="fill:#8e7f7f;fill-rule:evenodd"/><path d="M151.45,103a3.47,3.47,0,0,1,2.69,1.33,20.26,20.26,0,0,1,5,8c1.07,3.29.17,6.63-2.85,8.3-2.54,1.41-3.28,3.16-2.94,5.75a.75.75,0,0,1-.61.19c-1-1-1.05-3.09-3.16-2.94a.82.82,0,0,1-.17-.63c.61-1.1,1.87-1.15,2.81-1.71,1.15-.68,2.56-1,3.22-2.36,3-2.57,3.32-4.26,1.63-7.89a16.15,16.15,0,0,0-6.14-7.32C150.82,103.35,151.08,103.17,151.45,103Z" style="fill:#8a817f;fill-rule:evenodd"/><path d="M132.27,104.86c1.3.63,2,1.85,3,2.83,1.43,1.46,1.57,3.6,2.68,5.2.21,0,.32-.05.35-.25.41-3.59.41-3.59-2.7-4.91,1.37-.93,2.88-.53,4.36-.47.79.72.15,1.59.24,2.38a3.43,3.43,0,0,1-.3.58,1.29,1.29,0,0,1-.24.36c.33,0,.07-.35.28-.43.53-.4-.06-1.41.88-1.57a1.07,1.07,0,0,1,.48.5,5.61,5.61,0,0,1-.46,3.72,9,9,0,0,0-.55,4.67,1.06,1.06,0,0,1-.43.87c-.85-.2-1,1.46-2.07.76a20.14,20.14,0,0,1-1.62-4.49,24.9,24.9,0,0,0-4.47-9.17C131.69,105,131.72,104.7,132.27,104.86Z" style="fill:#7d7877;fill-rule:evenodd"/><path d="M149.56,123.11c0,.13,0,.26,0,.39-.62.83-1.59.58-2.42.74-.59.12-1.08.34-1.13,1a1.15,1.15,0,0,0,1,1.37c1.93.19,3.91,1.08,5.8-.18h.51c.85,1.6,2.46,1.27,3.85,1.5a.35.35,0,0,1,.13.36c0,.12-.07.18-.11.18-.93,0-1.16.67-1.42,1.34-.74,0-1.18-1.61-2.16-.39-.15.19-.41,0-.62-.15a6.79,6.79,0,0,0-7.05-.08c-.69.35-1.46-.27-2.22-.25a2.68,2.68,0,0,1-.25-1c0-.35.1-.68.13-1a11,11,0,0,0-.49-4.83.74.74,0,0,1,.32-.64A16.77,16.77,0,0,1,149.56,123.11Z" style="fill:#7c7975;fill-rule:evenodd"/><path d="M135.59,107.73c1.15.26,2.58-.46,3.42.44s-.19,2.06-.08,3.16a3.49,3.49,0,0,1-.83,3.09,22.57,22.57,0,0,1-2.84-6.74A.84.84,0,0,1,135.59,107.73Z" style="fill:#b5b9c6;fill-rule:evenodd"/><path d="M148.58,133.74l12.63,1.73c-.36.61-1.12.09-1.54.53a114.22,114.22,0,0,1-12.19-1.77C147.7,133.73,148.26,134,148.58,133.74Z" style="fill:#967d78;fill-rule:evenodd"/><path d="M134.56,127.94c-1.2-.46-1.78,1.27-3,.85-.19-.07-.63.58-.91,0-.71-1.43-2.07-1.24-3.31-1.39-.93-.11-1.93.25-2.78-.41l.24-.3a5.36,5.36,0,0,1,2.63-.42c.87,0,1.73,0,2.6,0a7.61,7.61,0,0,1,1.49-.13c1.64.7,3.53.37,5.13,1.23a.59.59,0,0,1-.13.71A3.56,3.56,0,0,1,134.56,127.94Z" style="fill:#83706c;fill-rule:evenodd"/><path d="M106.36,129.8a4.64,4.64,0,0,0-2.13-3.21,1.49,1.49,0,0,1-.74-1.13l0,0a3.68,3.68,0,0,1,3,2c.66,1,1.28,2,2.68,2a.41.41,0,0,1,.3.68c-.11.14-.42.13-.64.19C108.06,129.9,107.05,130.67,106.36,129.8Z" style="fill:#967c77;fill-rule:evenodd"/><path d="M141,107.3c2-2.13,4.15-3.93,7.18-4.29a.73.73,0,0,1,.18.63,83.36,83.36,0,0,0-7.32,5.07l-.07,0A.94.94,0,0,1,141,107.3Z" style="fill:#8e7f81;fill-rule:evenodd"/><path d="M122.7,79.92l4.31-.09c1.87-.39,3.76-.08,5.64-.18.43,0,.89-.09,1.23.29-.76.63-1.67.43-2.53.45-2.87.06-5.74.09-8.61.13Z" style="fill:#779088;fill-rule:evenodd"/><path d="M133.81,135.19a3.49,3.49,0,0,1-3,.18c-1.42-.44-2.86-.85-4.29-1.28a.38.38,0,0,1-.12-.4q.07-.2.13-.2a1.33,1.33,0,0,1,1,.09,7.69,7.69,0,0,1,3.73,1.06c.65.39,1.37.11,2,.2A.41.41,0,0,1,133.81,135.19Z" style="fill:#9f837d;fill-rule:evenodd"/><path d="M124.56,127a21,21,0,0,1-6.79-.53c.79-.87,1.86-.6,2.84-.67a4.54,4.54,0,0,0,2.27-.45,1.59,1.59,0,0,1,.65-.08,2.1,2.1,0,0,1,1.22,1,.57.57,0,0,1-.12.59Z" style="fill:#7c6e6b;fill-rule:evenodd"/><path d="M89.59,79.46a2,2,0,0,0,0,.38l-10.06,0,0-.52Z" style="fill:#c77f7a;fill-rule:evenodd"/><path d="M133.73,134.58a10,10,0,0,1,4.15-1,1.64,1.64,0,0,1,1.06-.1.37.37,0,0,1,0,.61,19.58,19.58,0,0,1-5.16,1.09l-.15-.15c-.11-.12-.13-.23-.08-.33S133.68,134.58,133.73,134.58Z" style="fill:#948780;fill-rule:evenodd"/><path d="M155.8,129.83c-.11-1.07.38-1.56,1.45-1.49,2.13-.44,4.28-.13,6.42-.18a.42.42,0,0,1,.32.64c-1.9,0-3.8.14-5.69,0A3.19,3.19,0,0,0,155.8,129.83Z" style="fill:#7d968e;fill-rule:evenodd"/><path d="M134.56,127.94l2.07-.14a9,9,0,0,1,7.16.1l0,1.06c-.88-.7-1.94-.45-2.94-.55C138.73,128.19,136.6,128.73,134.56,127.94Z" style="fill:#858982;fill-rule:evenodd"/><path d="M132.27,104.86l-.46.42a6.58,6.58,0,0,1-4.42-1.54c-.09-.46.25-.6.56-.77A6.36,6.36,0,0,1,132.27,104.86Z" style="fill:#9e8d86;fill-rule:evenodd"/><path d="M164,128.41l-6.71-.07,0-.38c2.63,0,5.27-.44,7.87.32A.79.79,0,0,1,164,128.41Z" style="fill:#bb6966;fill-rule:evenodd"/><path d="M139,133.68l-1.15-.08a15.6,15.6,0,0,1,8,0c-.32.42-.79.3-1.21.33C142.8,133.76,140.9,134.12,139,133.68Z" style="fill:#bb6a67;fill-rule:evenodd"/><path d="M108.38,130.36c-.33,1.39-1.91.85-2.62,2.09-.39-1.19.42-1.6.61-2.2A1.92,1.92,0,0,1,108.38,130.36Z" style="fill:#a57571;fill-rule:evenodd"/><path d="M120.27,133.68l-2-.09c1-.8,2.23-.44,3.36-.46s2.32.06,3.48.09a.4.4,0,0,1-.06.58,1.55,1.55,0,0,1-1-.09l-3.06,0Z" style="fill:#905958;fill-rule:evenodd"/><path d="M121.12,126.43l-3.35,0-2.72-.05q0-.28,0-.55c1.76-1,3.62-.61,5.47-.38C120.89,125.69,121.34,125.85,121.12,126.43Z" style="fill:#a75b5a;fill-rule:evenodd"/><path d="M90,75l0-.34,6.32,0C94.29,75.45,92.14,75.07,90,75Z" style="fill:#7c7772;fill-rule:evenodd"/><path d="M131.38,72.17a6.94,6.94,0,0,1-4.08-.82,1.43,1.43,0,0,1,1.72-.13c.79.06,1.62-.23,2.33.36a.38.38,0,0,1,.15.39C131.47,72.1,131.42,72.17,131.38,72.17Z" style="fill:#85978e;fill-rule:evenodd"/><path d="M132.75,79.86l-5.74,0c0-.12,0-.23,0-.35l5.78,0q.23.15.15.28C132.86,79.82,132.8,79.86,132.75,79.86Z" style="fill:#c47672;fill-rule:evenodd"/><path d="M139,133.68h5.7q.25.1.2.26c0,.11-.08.17-.12.17H139C139,134,139,133.82,139,133.68Z" style="fill:#7d9d93;fill-rule:evenodd"/><path d="M132.75,79.86c0-.14,0-.27,0-.41,1-.26,2-.8,3.29-.36-.59,1-1.41.84-2.19.85Z" style="fill:#a07f7a;fill-rule:evenodd"/><path d="M141,107.3q0,.7,0,1.39c-.6.28-.35,1.15-1,1.42h0l0-2.87Z" style="fill:#aa9a92;fill-rule:evenodd"/><path d="M144.8,134.1a3,3,0,0,1-.08-.43l1.17-.13,2.68.19c-.27.38-.7.38-1.09.49Z" style="fill:#936b68;fill-rule:evenodd"/><path d="M136.05,72.19c-1.26,1-2.55.63-3.84.07.31-.34.72-.28,1.11-.28C134.23,72.07,135.17,71.75,136.05,72.19Z" style="fill:#82aa9e;fill-rule:evenodd"/><path d="M148.13,103.44a3.74,3.74,0,0,0,0-.43,7.85,7.85,0,0,1,3.32,0l-.45.36A2.07,2.07,0,0,1,148.13,103.44Z" style="fill:#8b5656;fill-rule:evenodd"/><path d="M128,103l-.5.46a2.07,2.07,0,0,1-2.84,0,1.75,1.75,0,0,0,0-.38A8.87,8.87,0,0,1,128,103Z" style="fill:#945656;fill-rule:evenodd"/><path d="M136.05,72.19l-2.82,0c-.15-.07-.2-.14-.15-.22s.09-.12.14-.12C134.18,71.84,135.22,71.29,136.05,72.19Z" style="fill:#b86765;fill-rule:evenodd"/><path d="M125.12,133.6a2.18,2.18,0,0,0,0-.38,3.27,3.27,0,0,1,2.53.37l-1.1.07A1.06,1.06,0,0,1,125.12,133.6Z" style="fill:#c37b76;fill-rule:evenodd"/><path d="M108.38,130.36l-2-.11a1.41,1.41,0,0,1,0-.45c.84.11,1.77-.27,2.49.48Z" style="fill:#83b8ab;fill-rule:evenodd"/><path d="M159.67,136c.38-.57,1-.37,1.54-.53.19.09.44.14.54.29s-.07.29-.25.29Z" style="fill:#826664;fill-rule:evenodd"/><path d="M125.12,133.6l1.38.07q0,.21.06.43c-.87,0-1.79.3-2.56-.38Z" style="fill:#81958d;fill-rule:evenodd"/><path d="M133.73,134.58a1.6,1.6,0,0,1-.06.47c-.78-.08-1.64.31-2.33-.38Z" style="fill:#c0706c;fill-rule:evenodd"/><path d="M129,71.22l-1.72.13-.76-.11a.38.38,0,0,1-.16-.37c0-.13.06-.2.09-.2a.65.65,0,0,1,.63.06C127.79,70.71,128.5,70.62,129,71.22Z" style="fill:#9b7d78;fill-rule:evenodd"/><path d="M164,128.41l1.11-.13c.17.1.4.16.49.31s-.06.26-.25.25l-1.32,0A2.71,2.71,0,0,1,164,128.41Z" style="fill:#7e6f6b;fill-rule:evenodd"/><path d="M133.22,71.81c0,.11,0,.23,0,.34l-1,.11-.84-.09q0-.3,0-.59Z" style="fill:#826966;fill-rule:evenodd"/><path d="M126.49,70.8a4.15,4.15,0,0,0,.05.44,2.57,2.57,0,0,1-2.1-.4l.65-.08A1.06,1.06,0,0,1,126.49,70.8Z" style="fill:#7b968d;fill-rule:evenodd"/><path d="M126.49,70.8l-1.4,0q0-.22,0-.44a2.41,2.41,0,0,1,2.06.41Z" style="fill:#b77a75;fill-rule:evenodd"/><path d="M102,132.66a1.77,1.77,0,0,1,1.29.24c-.32.49-.78.32-1.21.27-.18-.09-.25-.19-.21-.31S102,132.66,102,132.66Z" style="fill:#945a59;fill-rule:evenodd"/><path d="M102,132.66l.08.5c-.27,0-.67.12-.66-.31C101.43,132.62,101.78,132.62,102,132.66Z" style="fill:#88988e;fill-rule:evenodd"/><path d="M120.7,40a1,1,0,0,1-.35-1.09A1.13,1.13,0,0,1,120.7,40Z" style="fill:#92908b;fill-rule:evenodd"/><path d="M39.18,66.93c-1-.82-1.92-.14-2.88,0-1.32.18-2.5-.68-3.82-.48-3.36,0-6.72-.12-10.08,0-5.44.23-10.84-.64-16.28-.54-2,0-2.46-.6-2.47-3.18q0-14,0-28.07c0-3.84,0-7.68,0-11.52,0-2.81.47-3.29,3.17-3.25,3.74,0,7.48.13,11.21.46A21.62,21.62,0,0,1,27,20.22a18.17,18.17,0,0,0,2.12.14c6.24-.15,12.47.24,18.71.25,6.26-.16,12.5.31,18.73.71A1.39,1.39,0,0,1,68,22.88a17.48,17.48,0,0,1-.1,4,24.13,24.13,0,0,0-.37,5c-.75.83-1.77.69-2.7.63-3.56-.23-6.61,1.41-9.45,3-1.51.87-1.78,3.39-2.91,5a10.88,10.88,0,0,0-.57,1.32c-1.39,2.69-3.34,3.54-6.13,2.32a20.39,20.39,0,0,0-8.86-1.61c-4.63.11-6.94-2.67-6.41-7.44.18-1.58.88-3,1.14-4.64-1.4.12-.38,4-3,1.76-.86-1.93-.94-4.06-1.34-6.5-1.2,2.29.12,7.67,3.36,15.08.82,4.33,3.19,8.1,4.35,12.31,1,3.37,1.81,6.83,3.8,10.22.82-1.46-.06-2.3-.28-3.21s-1.11-1.84-.18-2.87a.65.65,0,0,1,.62.07,5.77,5.77,0,0,1,.67.72,9,9,0,0,0,3.83,2.85A12.17,12.17,0,0,1,51,64.82c.6.66,1.63,1.1,1.07,2.3a2,2,0,0,1-1.13.24,26.5,26.5,0,0,0-8.43.06A5.28,5.28,0,0,1,39.18,66.93Z" style="fill:#6f8470;fill-rule:evenodd"/><path d="M38.69,57.8c0-.15,0-.3,0-.46-.51-.38-1.22-.08-1.72-.5-1.12-.76-.55-2.64-2.08-3.12a.67.67,0,0,1-.5-.24c-1.23-2.83-1.76-5.91-3.42-8.6-.66-1.07-.62-2.57-.9-3.87a.67.67,0,0,1,.51-.25c-.3.15.36-.24.21,0s.2.45.16.14a15.26,15.26,0,0,0-.76-2.33c-.51-1.05-.22-2.35-1-3.31a3.39,3.39,0,0,1-.89-2.93c.16-.35.37-.62.82-.49.09.21.12.51.29.62.4.27.56-.07.64-.39a9,9,0,0,1,1.41-3.6c1,1,1.32,1.9.74,2.93a13.71,13.71,0,0,0-1,3.18c-.67,2.43.48,4.52,1.45,6.6.31.65,1,.73,1.66.72,1.2,0,2.4.07,3.59,0a16.29,16.29,0,0,1,7.88,1.59c2.84,1.26,4.72.46,5.8-2.44a8.42,8.42,0,0,1,1.64-2.88,3.59,3.59,0,0,0,.7-1.24,4.09,4.09,0,0,1,2.37-2.6c1.09-.48,2.18-1,3.25-1.52,2.55-1.25,5.3-.94,8-1a7.9,7.9,0,0,1,3.83,1c0,.16,0,.31,0,.47-.83.76-1.79.35-2.72.31C65.46,33.5,62.26,33,59.43,35c-.92.94-2.16.79-3.3,1-1,.5.55.88.07,1.36-.21.67-.9.89-1.3,1.39-1.59,1.56-2.19,3.7-3.17,5.59S49.59,46.24,48,46a7.54,7.54,0,0,1-2.47-.89c-3.77-2.06-7.94-1.45-12-1.78-1.34-.11-1.41.76-.87,1.74a7,7,0,0,0,2.52,2.51,19.18,19.18,0,0,1,4.12,3.63c.45.5,1.23,1.1.61,1.82-.46.55-1.19.1-1.76-.2a8.48,8.48,0,0,0-1.05-.59,33.41,33.41,0,0,0,5.73,4.22c.73.38,2,.75,1.43,1.78s-1.57.21-2.37-.09a19.35,19.35,0,0,0-1.81-.89c1,1.14,2.48,2,3,3.59l-.11.32c-1.8-.27-2.87-1.51-3.84-2.89C39,58.14,38.86,58,38.69,57.8Z" style="fill:#63615e;fill-rule:evenodd"/><path d="M18,20.36c-3.84,0-7.67,0-11.51,0-2.15,0-2.4.24-2.4,2.29q0,20.26,0,40.52c0,2,.27,2.15,2.42,2.31,8,.58,15.94.44,23.92.47.7,0,1.46-.18,2,.48a1.7,1.7,0,0,1-1.53.48c-5.19,0-10.4.25-15.57-.09-3.26-.22-6.51-.32-9.77-.4a2.07,2.07,0,0,1-2.33-1.9,9.21,9.21,0,0,1-.1-1.91q0-19.42,0-38.83a13.56,13.56,0,0,1,0-1.44c.27-2.51.76-2.87,3.32-3,3.6-.14,7.13.79,10.73.53A1,1,0,0,1,18,20.36Z" style="fill:#61615d;fill-rule:evenodd"/><path d="M47.81,20.83c-5.5,0-11,0-16.49,0-.76,0-1.62.26-2.24-.47a1.47,1.47,0,0,1,1.29-.47,93,93,0,0,1,9.81.09c2.55.27,5.07.33,7.62.4q.24.15.16.3C47.91,20.78,47.86,20.83,47.81,20.83Z" style="fill:#5c645d;fill-rule:evenodd"/><path d="M47.81,20.83c0-.15,0-.3,0-.45,3.36,0,6.71-.09,10.07,0,2.62.08,5.21.64,7.85.49a1,1,0,0,1,.81.44c-2.77,0-5.6.33-8.31-.08C54.74,20.71,51.28,21,47.81,20.83Z" style="fill:#675655;fill-rule:evenodd"/><path d="M59.33,78.9a.43.43,0,0,0-.49-.31,128,128,0,0,0-13-1.11c-.38-.2-.21-.69-.49-.94L43,75.07a9.16,9.16,0,0,0-3.13-2,6.39,6.39,0,0,1-3.08-2.8c0-1,.1-2.12.93-2.52s1.66.6,2.42,1.08,1.33,1.56,2.27,2c1.23,0,2,.88,2.88,1.48a10.93,10.93,0,0,0,4.45,1.24,6.06,6.06,0,0,1,1,.17A9.25,9.25,0,0,0,53.7,74a8.52,8.52,0,0,1,2,.21c1.15.39,2.35.14,3.51.33,2.39.38,3.39,2.19,2.41,4.34Z" style="fill:#eee4d2;fill-rule:evenodd"/><path d="M44.92,72.69l-2.48-1.85c.47-.34.24-.65-.06-.93-1.06-1-2.14-2-3.21-3h3.34c2.88,0,5.76,0,8.64,0h1a15.39,15.39,0,0,1,7.75,3.86,3.47,3.47,0,0,1-2.06.79,3.17,3.17,0,0,1-.76,0,48.24,48.24,0,0,0-7.87,0,3.44,3.44,0,0,1-.68,0,11.17,11.17,0,0,0-2.68-.21.37.37,0,0,0-.3.23,1.94,1.94,0,0,0,.4.53.64.64,0,0,1,0,.52A.71.71,0,0,1,44.92,72.69Z" style="fill:#82736f;fill-rule:evenodd"/><path d="M11.79,13.08l1.38.21a1.67,1.67,0,0,1-.44,1.29A1.47,1.47,0,0,1,11,15a1,1,0,0,1-.71-1.09C10.43,13,11.25,13.25,11.79,13.08Z" style="fill:#dbe1e1;fill-rule:evenodd"/><path d="M61.66,1.65q.07,4.33.14,8.66c-.3,1.1.42,2.36-.54,3.36,0-3.25,0-6.5,0-9.75C61.26,3.15,61,2.31,61.66,1.65Z" style="fill:#c9c8c8;fill-rule:evenodd"/><path d="M61.67,15c.36-.34.66-1.25,1.22-.61s.05,1.3-.71,1.61A1.26,1.26,0,0,1,61.67,15Z" style="fill:#aeb3b3;fill-rule:evenodd"/><path d="M61.67,15a.88.88,0,0,1,.51,1c-.71.14-1.43.31-2-.36-.08-.53.17-.71.67-.63Z" style="fill:#e1f2f2;fill-rule:evenodd"/><path d="M60.85,15l-.67.63c-.43-.29-.66-.79-.31-1.12S60.55,14.77,60.85,15Z" style="fill:#b4cbcb;fill-rule:evenodd"/><path d="M70.31,44.35a6.93,6.93,0,0,1,1.42-2.91c1.31-1.47,2.83-2.18,4.8-1.38a2.45,2.45,0,0,1,.52.5h0c.42.37,1,.08,1.45.36A.74.74,0,0,0,79,41q.25.21.53.4l.05,0a1.17,1.17,0,0,0,.43.43L80,42a2.8,2.8,0,0,0,.42.49h0a1.42,1.42,0,0,1,.43.56l0,0c.41.25.34.73.51,1.09a.25.25,0,0,0,.08.32,1,1,0,0,1,.21.69q0,1.67,0,3.35a1.51,1.51,0,0,1-.2.73l-.21.32a4.64,4.64,0,0,1-.52.58l-.29.26A7.3,7.3,0,0,1,71.2,49a7.4,7.4,0,0,1-1.32-2.79A2,2,0,0,1,70.31,44.35Z" style="fill:#fefefe;fill-rule:evenodd"/><path d="M81.41,48.71q0-1.93.1-3.86l.19-.15.19.15v3.34c2.69.28,4.1,2.15,5.33,4.06a17.5,17.5,0,0,1,2.26,7.22c.44,3.16-1,4.79-4.55,5.47-1,.19-1.72.29-1.59,1.5.17.15.3.34.47.49q0,.48,0,1c-.07.4-.16.78-.64.89a2.55,2.55,0,0,1-2-.57c-.85-.55-.85-1.23-.23-2A17.57,17.57,0,0,0,84.16,61c1.16-3.29.47-6.4-.46-9.51-.27-.89-.71-.75-.88.13-.73,0-.78-.52-.88-1-.08-.15.15-.48-.27-.47a1.34,1.34,0,0,1-.79.21c-.29-.11-.52-.26-.37-.63l.06-.05a.66.66,0,0,1,.4-.4l.07-.08A1.28,1.28,0,0,1,81.41,48.71Z" style="fill:#84736f;fill-rule:evenodd"/><path d="M76.59,40.52c-1.82-.78-3.29.34-4.85.92.22-3.1.87-3.92,3.79-4.79.52-.16,1-.33,1.56-.5a14.42,14.42,0,0,0,4.22-.35c.3,1.2-1,1.46-1.33,2.31l-.57.44a.6.6,0,0,0-.41.15,3,3,0,0,0-.49.35h0c-.24.32-.69.23-1,.5h0A3.62,3.62,0,0,0,76.59,40.52Z" style="fill:#eae2d0;fill-rule:evenodd"/><path d="M76.59,40.52a.94.94,0,0,1,1-1l-.51,1-.23,0Z" style="fill:#7b7270;fill-rule:evenodd"/><path d="M78.51,40.92a1.46,1.46,0,0,1-1.45-.36C77.58,40.53,78.12,40.43,78.51,40.92Z" style="fill:#7b7270;fill-rule:evenodd"/><path d="M81.34,44A1.39,1.39,0,0,1,80.84,43C81.36,43.16,81.39,43.58,81.34,44Z" style="fill:#7b7270;fill-rule:evenodd"/><path d="M77.56,39.55a1.07,1.07,0,0,1,1-.5A.89.89,0,0,1,77.56,39.55Z" style="fill:#7b7270;fill-rule:evenodd"/><path d="M83.8,66.93l-.47-.49Z" style="fill:#756d6b;fill-rule:evenodd"/><path d="M81.88,44.85h-.37l-.09-.48Z" style="fill:#7b7270;fill-rule:evenodd"/><path d="M80.88,43a.6.6,0,0,1-.43-.56A.67.67,0,0,1,80.88,43Z" style="fill:#7b7270;fill-rule:evenodd"/><path d="M80.44,42.45A.53.53,0,0,1,80,42Z" style="fill:#7b7270;fill-rule:evenodd"/><path d="M80,41.9a.51.51,0,0,1-.43-.43Z" style="fill:#7b7270;fill-rule:evenodd"/><path d="M79.5,41.43A.61.61,0,0,1,79,41Z" style="fill:#7b7270;fill-rule:evenodd"/><path d="M78.49,39.06a.47.47,0,0,1,.49-.35Z" style="fill:#7b7270;fill-rule:evenodd"/><path d="M82.35,50.16a1.78,1.78,0,0,0,.46,1.47,19.21,19.21,0,0,1,.94,6.05,11.28,11.28,0,0,1-3,7.27,9.41,9.41,0,0,0-2.2,2.44,28.44,28.44,0,0,1-7.17,2.45c-1.37,1-2.95.48-4.43.61a13.9,13.9,0,0,1-4.1-.58c-.54-.16-1.06-.37-1.6-.55a5.11,5.11,0,0,1-.6-.24l-.88-.41a5.4,5.4,0,0,1-.59-.31c-3.16-2.17-4.41-5.43-5.17-9,0-.45,0-.89,0-1.34a5.29,5.29,0,0,1,0-.65,4.44,4.44,0,0,1,.18-.92,7.75,7.75,0,0,0,.37-1.41,3.45,3.45,0,0,1,.14-.54,10.54,10.54,0,0,0,.36-1,3.75,3.75,0,0,1,.17-.51,6.44,6.44,0,0,1,.36-.73,3.27,3.27,0,0,1,.3-.46,5.14,5.14,0,0,1,.37-.43l.2-.21a4.86,4.86,0,0,1,.43-.41l.25-.19a2.1,2.1,0,0,1,1.21-.36c1.22.1,2.33.79,3.59.72.68,0,1.37,0,2,0,2-.18,2.92,1.25,4,2.57.8,1,1.47,2.38,3.19,1.76a5.69,5.69,0,0,0,1.47-2.41c.45-1,1-1.8,2.26-1.78,1.07,0,2.14,0,3.21,0s2-.67,3-.88l.86-.53C82.17,49.7,82.2,50,82.35,50.16Z" style="fill:#f0e6d3;fill-rule:evenodd"/><path d="M72.27,71a2.63,2.63,0,0,1,.28.37c1.48,2.87,1.4,3-1.71,3.26-.15,0-.31.05-.46.08-1.66,1-3.44.54-5.2.45-2.21-1.3-2.44-1.92-1.66-4.43a1.69,1.69,0,0,1,.83-.36C67,70.53,69.72,69.64,72.27,71Z" style="fill:#fbfcfc;fill-rule:evenodd"/><path d="M74.21,78.93l-3.36.57a16.17,16.17,0,0,0-2.3-.1A1.9,1.9,0,0,1,66.47,78c-1.37-2.22-1.13-2.61,1.93-3a3.18,3.18,0,0,1,1.93.11C73.49,75.32,74.08,75.92,74.21,78.93Z" style="fill:#e7dfcd;fill-rule:evenodd"/><path d="M76.14,77l-.07.9c-.22.3-.17.71-.38,1a.76.76,0,0,1-.61-.46c-.5-2.2-.68-4.47-1.36-6.64-.13-.41-.54-1,.15-1.2s.74.46.93.87a2.25,2.25,0,0,1,.28.9A5.28,5.28,0,0,0,77,76.13a2.84,2.84,0,0,1,1,2.76l-.45-.44c-.28-.26-.16-.71-.47-1L76.63,77A.31.31,0,0,0,76.14,77Z" style="fill:#c6b590;fill-rule:evenodd"/><path d="M72.27,71c-2.71-.47-5.46,0-8.18-.23.55-1.37,1.72-.39,2.56-.68,1.55.11,3.12-.24,4.66.2C71.76,70.31,72.17,70.42,72.27,71Z" style="fill:#749898;fill-rule:evenodd"/><path d="M70.33,75l-1.84.07c-1.17.09-2.42.88-3.41-.44a31.92,31.92,0,0,1,5.29,0A2.81,2.81,0,0,1,70.33,75Z" style="fill:#b05b5b;fill-rule:evenodd"/><path d="M71.3,70.25H66.57c-.17-.06-.23-.13-.2-.22s.08-.15.13-.15l4.83,0Q71.33,70.05,71.3,70.25Z" style="fill:#c27571;fill-rule:evenodd"/><path d="M120.74,125.9l-5.7,0c-.15-1.24.87-2.51-.07-3.74-.92-2,.66-2.24,1.86-2.78a2.48,2.48,0,0,1,2.83.88,22.85,22.85,0,0,1,1.53,2.67C121.41,124,121.59,125,120.74,125.9Z" style="fill:#fafcfb;fill-rule:evenodd"/><path d="M114.46,122.72a11,11,0,0,1-.21,1.39,2,2,0,0,1-3.1,1.17.83.83,0,0,1-.37-.54,20,20,0,0,1,.16-3c.08-.5.75-.47,1.18-.62C113.79,120.33,114.23,121.38,114.46,122.72Z" style="fill:#f6f8f8;fill-rule:evenodd"/><path d="M114.46,122.72c-.48-1-1.08-1.78-2.35-1.61,0-.14,0-.29,0-.43a2.26,2.26,0,0,1,1-.86,5.69,5.69,0,0,1,3.23-.82,1,1,0,0,1,.63.77c-.77.7-2.44.64-2,2.37Z" style="fill:#949797;fill-rule:evenodd"/><path d="M113.13,120.22a1.12,1.12,0,0,1-1,.46l-3.83,0,0-.43A4.11,4.11,0,0,1,113.13,120.22Z" style="fill:#cb7e7e;fill-rule:evenodd"/><path d="M70.31,44.35l0,1.94c-.21.49-.21,1.17-1,1.12a.93.93,0,0,1-.87-1c0-2.12-1.65-3.94-.86-6.27C68,39,66.86,38,65.81,37.33a10.7,10.7,0,0,0-4.75-1.46c-.87-.09-1.79-.1-2.21-1.1C60.14,33,62.16,33,64,32.88a26.55,26.55,0,0,1,7.33.45c.64,1.32,2.34,1.24,3.15,2.25-.1.72-.66.79-1,1a4.37,4.37,0,0,0-2.32,2.87,24.31,24.31,0,0,1-.94,2.44A2.16,2.16,0,0,0,70.31,44.35Z" style="fill:#84736f;fill-rule:evenodd"/><path d="M65.09,74.68c1,.82,2.28.21,3.41.44-.13.09-.24.24-.38.28-2,.53-2,.53-1.65,2.59H65c-.58.21-1-.12-1.31-.49.21-.43.61-.47,1-.47.38-.7-.25-1-.54-1.45-.2,0,.05-.46-.29-.26a.26.26,0,0,1-.23.31l-.48.48c-2-1.55-1.06-3.43-.61-5.26a.84.84,0,0,1,1.21,0C63.24,72.46,63.41,73.83,65.09,74.68Z" style="fill:#8b8177;fill-rule:evenodd"/><path d="M61.57,78.85c0-3-.65-3.6-3.46-3.74a4.81,4.81,0,0,1-2.73-.43,1.8,1.8,0,0,1,1.05-.88,1.78,1.78,0,0,1,.91-.18c2,.43,3-.51,3.27-2.45.35-.37.71-.7,1.26-.35.24,2.54.48,5.08.84,7.61Z" style="fill:#908278;fill-rule:evenodd"/><path d="M62.71,78.42c0-.24.06-.55-.06-.7-1.74-2.13-1-4.57-.9-6.93a.57.57,0,0,1,.89,0c.25,1.74-.38,3.56.49,5.25C63,76.86,63.52,77.76,62.71,78.42Z" style="fill:#b7a889;fill-rule:evenodd"/><path d="M63.65,77.48A1.68,1.68,0,0,1,65,78c.08.59-.08,1.28-.7,1.2C63.27,79,63.68,78.12,63.65,77.48Z" style="fill:#c5baad;fill-rule:evenodd"/><path d="M63.65,75.08c1.21,0,1.59,1,1.74,1.88.07.42-.46,0-.72,0L63.6,75.6l0-.51Z" style="fill:#a49e82;fill-rule:evenodd"/><path d="M110.7,100.56l1.38-.07,3,.08a13.65,13.65,0,0,1,4.77,2.83,23.29,23.29,0,0,1,2.95,5.72c2.48,3.31,2.19,8.12-.64,10.71a2.61,2.61,0,0,1-2.61-.12,4,4,0,0,1-.61-.42l-.29-.22a4.84,4.84,0,0,1-.5-.51l-.21-.27c-1.32-2.43-1.6-5.34-3.56-7.51a7.4,7.4,0,0,0-2.55-2.08,6.32,6.32,0,0,0-6.37-.7c-.34,0-.71,0-1-.34a1.09,1.09,0,0,0,0-.34c.73-.77,1-2,2.4-2.07a.67.67,0,0,0,.6-.86c-.5-1.4.63-1.74,1.42-2.35C109.51,101.56,110.39,101.4,110.7,100.56Z" style="fill:#d4c6c3;fill-rule:evenodd"/><path d="M123.27,108.53a.76.76,0,0,1,.94-.75,6.68,6.68,0,0,0,2.29-.12c.74.21,1,.9,1.56,1.37,3.43,2.73,4.44,6.55,4.81,10.67a3.53,3.53,0,0,1-.17,1.14c-1.22,2-3.2,2.54-5.31,2.88a20.65,20.65,0,0,1-3.13-.08c-1.74-.68-4-.78-4.1-3.39.41-.4.94-.21,1.42-.28,3.68-2.22,2.76-3.49,2.36-8.23C123.84,110.67,123.36,109.63,123.27,108.53Z" style="fill:#fdffff;fill-rule:evenodd"/><path d="M127.49,109.17a3.63,3.63,0,0,1-1-1.51c-.73-1.24-1.65-2.11-3.24-1.79-.57.3-.77-.21-1.07-.5.29-1.29,1.83-1,2.42-1.94h2.84l4.36,1.85c2.72,2,3.52,5,4.56,8,.7,1.95,1.2,4,1.79,5.95a2.52,2.52,0,0,1-2.94,3.36,3.44,3.44,0,0,1-2.91-1.82l-.06-1a10.09,10.09,0,0,0-1.84-8.08C129.69,110.63,129,109.33,127.49,109.17Z" style="fill:#c2d3c5;fill-rule:evenodd"/><path d="M123.27,108.53c1.52,2.29,1.51,5,1.65,7.53a3.81,3.81,0,0,1-3.2,4.12q-.37-.29,0-.58c2.87-2.17,2.06-5.13,1.67-8a22,22,0,0,0-.64-2.5Z" style="fill:#8e8d8c;fill-rule:evenodd"/><path d="M122.2,105.37l1.06.49c.17.52,1,.47,1,1.29C123,107.13,122.16,106.8,122.2,105.37Z" style="fill:#c0a467;fill-rule:evenodd"/><path d="M45.39,76.54c.42.18.47.55.49.94-.35.55-.93.46-1.45.54-.54-.23-1.28.16-1.72-.58C43.39,76.48,44.76,77.54,45.39,76.54Z" style="fill:#c0c7b9;fill-rule:evenodd"/><path d="M113.13,120.22l-4.87,0a9.62,9.62,0,0,1-5.57-5.35c-.66-2.29.65-4,1.79-5.67a1.19,1.19,0,0,1,.54-.49.45.45,0,0,0,.39-.16,1.16,1.16,0,0,1,.69-.55c.73.08,1.26.63,1.94.84a3.17,3.17,0,0,0,2.53-.12,1.46,1.46,0,0,1,1.31-.13c3.87,2.51,5.31,6.3,5.66,10.67a1,1,0,0,1-1.06,0Z" style="fill:#fff;fill-rule:evenodd"/><path d="M102.08,114.91l.32,1.63c-.82-1-.82-1-.84-2.58C102,113.93,102,113.93,102.08,114.91Z" style="fill:#aea7a5;fill-rule:evenodd"/><path d="M104.46,107.66l.95.09.19.23-.2.22C105,108.19,104.62,108.11,104.46,107.66Z" style="fill:#8e7f7f;fill-rule:evenodd"/><path d="M105,108.73l-.54.49A.65.65,0,0,1,105,108.73Z" style="fill:#8e7f7f;fill-rule:evenodd"/><path d="M106,108.27l-.57.3c0-.12,0-.24,0-.36l0,0A.33.33,0,0,1,106,108.27Z" style="fill:#8e7f7f;fill-rule:evenodd"/><path d="M75.69,78.94a1.21,1.21,0,0,1,.39-1A.9.9,0,0,1,75.69,78.94Z" style="fill:#8d8077;fill-rule:evenodd"/><path d="M77.09,77.49a1,1,0,0,1,.47,1A1,1,0,0,1,77.09,77.49Z" style="fill:#8d8077;fill-rule:evenodd"/><path d="M76.14,77c.13-.39.3-.36.49,0Z" style="fill:#8d8077;fill-rule:evenodd"/><path d="M148.13,103.44l2.86,0c3.82,1.66,5.59,5.07,7.1,8.59,1.37,3.19.55,5.45-2.32,7.26a.8.8,0,0,1-1,.06c-.28-.87-.7-1.44-1.79-1.4a20,20,0,0,0-4.85.37,8.2,8.2,0,0,0-3.84,1.08c-2.47,1.68-3.41,1.31-4.34-1.59a4.65,4.65,0,0,1,0-4.29,12.1,12.1,0,0,0,1-4.78C142.69,106,145.38,104.69,148.13,103.44Z" style="fill:#c3c5d4;fill-rule:evenodd"/><path d="M154.79,119.21l1,.06c.24,1-.51,1.22-1.12,1.51-1.68.8-3.39,1.55-5.09,2.33a11.33,11.33,0,0,1-6.15-1.67c-.94-1.36.29-1.83,1.07-2.3a6.6,6.6,0,0,1,4.29-.81A8.15,8.15,0,0,0,154.79,119.21Z" style="fill:#f8fafa;fill-rule:evenodd"/><path d="M152.85,126.46a1.71,1.71,0,0,1-2.11,1.39c-1.41-.15-2.82-.23-4.22-.43-1.14-.16-1.41-.89-1.32-2.59.05-1.08.59-1.3,1.53-1.26s1.89,0,2.83-.07a1.11,1.11,0,0,0,.24,0c2.32-.29,2.32-.29,2.68,2.08A3.61,3.61,0,0,0,152.85,126.46Z" style="fill:#e9e0cd;fill-rule:evenodd"/><path d="M132.33,120.73c.71.34,1.4.71,2.12,1,2,.83,3.62-.28,3.73-2.54a1,1,0,0,0,.35-.8c.09-1.35.57-.66,1-.2l0,.35c0,3.59-1.55,5-4.95,4.59-2.64-.31-2.64-.31-2.87,2.47a1.37,1.37,0,0,1-.4.84l-1.09.43c-.71-.84-.22-2.47-1.81-2.72a2.43,2.43,0,0,1-.92-.41.41.41,0,0,1-.13-.39c0-.13.07-.2.11-.2A9,9,0,0,0,132.33,120.73Z" style="fill:#887b77;fill-rule:evenodd"/><path d="M149.1,118.76a8.39,8.39,0,0,0-4.57.87c-.71.4-1.39.8-1.12,1.81l-.07.6a4.15,4.15,0,0,1-3.86-3.76l0-.09.45-.4c.25.31.49.62.74.92,1.32,1.57,1.36,1.58,3,.36a5.84,5.84,0,0,1,4.48-1.19C148.57,118.07,149.3,117.92,149.1,118.76Z" style="fill:#878283;fill-rule:evenodd"/><path d="M140,110.12c-.08.5.13,1-.21,1.56a1,1,0,0,1,.23-1.56Z" style="fill:#a29d94;fill-rule:evenodd"/><path d="M139.48,118.28a9.88,9.88,0,0,0,3.86,3.76,2.4,2.4,0,0,1,1.06,2.43c-.06.93-.13,1.86-.2,2.79-2.51.75-5.05.34-7.59.23-1.76-.28-3.68.19-5.25-1.05a21,21,0,0,0-.35-2.33,1.63,1.63,0,0,1,2.26-1.94,6.46,6.46,0,0,0,2.51.52,2.92,2.92,0,0,0,3.23-3C139.06,119.2,138.77,118.57,139.48,118.28Z" style="fill:#eee5d2;fill-rule:evenodd"/><path d="M136.61,127.49l7.59-.23a.76.76,0,0,1-.4.64l-7.16-.1C136.62,127.7,136.61,127.59,136.61,127.49Z" style="fill:#be7470;fill-rule:evenodd"/><path d="M128.48,123.62c1.08-.14,1.83.13,1.84,1.41a4.53,4.53,0,0,1-.06,1.83h-2.65c-1-.47-2.07.06-3.05-.36a1.88,1.88,0,0,1-1-1,1.24,1.24,0,0,1,0-1.58C125.17,123,126.87,124,128.48,123.62Z" style="fill:#e5decc;fill-rule:evenodd"/><path d="M124.56,126.52c1,0,2.1-.36,3,.36l-3,0Z" style="fill:#b26b68;fill-rule:evenodd"/><path d="M123.66,124.06q0,.72-.05,1.43l-.46,0c-1.22-.58-1.48-2-2.41-2.81a4.21,4.21,0,0,1-1.4-2c.27-.41.5-.93,1.09-.36-.07,1,.74,1.32,1.38,1.69a24.94,24.94,0,0,0,2.32,1.07.42.42,0,0,1,.16.47C124.13,123.77,123.85,123.86,123.66,124.06Z" style="fill:#938683;fill-rule:evenodd"/><path d="M120.74,122.67c1.52.32,1.78,1.73,2.41,2.81-.36,1-1.16,1-2,1l-.38-.53Z" style="fill:#ddcfc0;fill-rule:evenodd"/><path d="M62.64,70.83l-.89,0-1,.51-.28,0a1,1,0,0,1-.58-.56,70.78,70.78,0,0,1-7.72-3.78c-1.27-1.83-3.35-2.8-4.8-4.45-.45-.51-1.18-.34-1.8-.34a3,3,0,0,1-2.53-1h0C45.83,60,48.2,61,50.13,63a27.38,27.38,0,0,0,7.57,5.35c.7.64,1.43-.51,2.13,0h0c.25.33.68.26,1,.46h0c.31.55,1,.09,1.39.55l4.33.53c0,.13,0,.25.07.38-.83.15-1.77-.25-2.48.48a1.61,1.61,0,0,1-.37.11Z" style="fill:#63615e;fill-rule:evenodd"/><path d="M30.52,41H30c-2.23-3.92-2.89-8.38-4.25-12.6a5.49,5.49,0,0,1-.08-1.66c0-.72-.06-1.54,1-1.53a1.3,1.3,0,0,1,1.37,1.57,14.28,14.28,0,0,0,.55,4,7.36,7.36,0,0,0,.42,1.11l-.48.5c-1.26-1-1.18-2.41-1.42-3.74,0-.28,0-.57,0-.85a.44.44,0,0,0-.13-.33c0,.35.13.67.13,1A23.49,23.49,0,0,0,29.42,36a17.37,17.37,0,0,0,1.06,3.31C30.56,39.91,31.1,40.44,30.52,41Z" style="fill:#696b64;fill-rule:evenodd"/><path d="M34.37,53.48h.52c1.36.24,1,1.54,1.41,2.35.66,1.31.87,2.8,1.44,4.15a5.66,5.66,0,0,1,.41,1.11,4.21,4.21,0,0,0-.3-1c-.29-1.06-1.27-2-.6-3.23.67-.38,1.16-.28,1.41.51-.59.42-.43.93-.2,1.47.44,1,.8,2.07,1.29,3.05s0,1.55-.76,1.91-1.11-.34-1.37-.91A69.9,69.9,0,0,1,34.37,53.48Z" style="fill:#6b7269;fill-rule:evenodd"/><path d="M51.16,66.93a1.41,1.41,0,0,1-1.26.48H43.78a1.43,1.43,0,0,1-1.26-.48c.05-.06.1-.15.17-.16A18.79,18.79,0,0,1,51.16,66.93Z" style="fill:#62615e;fill-rule:evenodd"/><path d="M38.69,57.8l.47.48Z" style="fill:#6b7269;fill-rule:evenodd"/><path d="M57.88,68.86a15.5,15.5,0,0,1-7.09-4.52A9,9,0,0,0,43,61.16a18.5,18.5,0,0,0-2.59-2.8A3.86,3.86,0,0,1,39,56c1.76.75,3.21,2,5.1,2.32,0-.86-.54-.95-.94-1.11-2.56-1-4.51-2.91-6.59-4.63a6.72,6.72,0,0,1-.82-.87.46.46,0,0,1,0-.64.48.48,0,0,1,.64-.12,7.22,7.22,0,0,1,1.2.77,4.43,4.43,0,0,0,2,1.19,11.67,11.67,0,0,0-4.23-4.43A9.72,9.72,0,0,1,31.86,45c-.32-.61-.57-1.2-.09-1.77a1.56,1.56,0,0,1,1.7-.62,7.6,7.6,0,0,0,3.31.34,18.94,18.94,0,0,1,9.71,2c.91.42,1.82,1,2.94.62.7-.23,1.68-.09,1.4-1.32,1.77-1.69,1.87-4.4,3.7-6,1.5-.62,2.59,0,3.5,1.15s0,2-.63,2.9a5.13,5.13,0,0,0-.82,4.5c.16,1.18,1.12,2.22.59,3.52-4.31,4.24-4,11.81.16,16.66C58.28,68,58.28,67.95,57.88,68.86Z" style="fill:#84736f;fill-rule:evenodd"/><path d="M56,37.13c-.11-.5-1.06-.72-.49-1.45,3.7-.47,7.31-.39,10.64,1.58A2.8,2.8,0,0,1,67.76,40c-.11,1-1,1.08-1.84,1.14a21.18,21.18,0,0,0-4.86-.36C59.15,39.86,57.22,39,56,37.13Z" style="fill:#ece4d1;fill-rule:evenodd"/><path d="M65.69,40.56c.59-.1,1.38.21,1.67-.55s-.28-1.37-.77-1.86a8.72,8.72,0,0,0-4-1.95c-2.33-.64-4.72-.44-7.09-.53.45-.57,1.1-.41,1.69-.44s1.24.11,1.67-.48c1.51.83,3.26.35,4.84.93A7.88,7.88,0,0,1,67.51,38c.74.95,1.42,2,.5,3.22-.43.58-.18,1.06.09,1.53a5.7,5.7,0,0,1,.84,3.4c0,.38,0,.91.49.87.32,0,.61-.44.91-.68l1.13,2.36a1.37,1.37,0,0,1-.63.47,4.15,4.15,0,0,1-2.36,0,1.51,1.51,0,0,1-1-1.1,7.92,7.92,0,0,0-1.58-6C65.63,41.65,65.27,41.14,65.69,40.56Z" style="fill:#716b68;fill-rule:evenodd"/><path d="M56,37.13c1.44,1.31,3.51,1.75,4.73,3.37,0,.1,0,.2,0,.29a1.48,1.48,0,0,1-.36.46,5.66,5.66,0,0,1-1.54.68l-.48.21-.22.13c-.13.11-.26.22-.38.35l-.15.21a4.36,4.36,0,0,0-.33.75c0,.2-.1.39-.14.58-.41.86.5,2.29-1.13,2.61a5.62,5.62,0,0,1,1.2-5.29c1.12-1.3,1-1.74-.4-2.68a3.4,3.4,0,0,0-2.24-.67C54.82,37.5,55.72,37.78,56,37.13Z" style="fill:#766c6a;fill-rule:evenodd"/><path d="M37.7,60.21c-1.23-2.12-1.64-4.58-2.81-6.73.06-.71.38-1.27.88-.37a29.35,29.35,0,0,1,1.49,3.72,10,10,0,0,0,.91,3.37C38,60.45,37.86,60.44,37.7,60.21Z" style="fill:#a0a096;fill-rule:evenodd"/><path d="M29,36.28a33.26,33.26,0,0,1-2.36-8.21.6.6,0,0,1,.91-.07,10.21,10.21,0,0,0,1,4.39,5.06,5.06,0,0,0,1,2.79A1.1,1.1,0,0,1,29,36.28Z" style="fill:#a39d93;fill-rule:evenodd"/><path d="M29,36.28a1.37,1.37,0,0,1,.61-1.1c.36.11.87.25.69.7-.38,1,.28,1.76.28,2.65.14.49.42,1-.51,1A10.78,10.78,0,0,1,29,36.28Z" style="fill:#bfb9ac;fill-rule:evenodd"/><path d="M30.08,39.53c.42-.21.43-.61.51-1A6.2,6.2,0,0,1,31.47,41c.06.24.11.7-.41.51-.21-.07-.36-.3-.54-.46Z" style="fill:#a49f95;fill-rule:evenodd"/><path d="M34.7,49.29c-.1.34-.34.62-.64.53a.88.88,0,0,1-.59-1.1c0-.23.17-.45.46-.39A.9.9,0,0,1,34.7,49.29Z" style="fill:#a1a196;fill-rule:evenodd"/><path d="M44.92,72.69a1.18,1.18,0,0,0,.94-.39,4,4,0,0,1,4,1.08.75.75,0,0,1-.14.7A9.08,9.08,0,0,1,44.92,72.69Z" style="fill:#9d8c88;fill-rule:evenodd"/><path d="M53.62,74.57c-1,0-2.07.34-3-.41a1.46,1.46,0,0,1,1-.55,2.75,2.75,0,0,1,1.85.29A.52.52,0,0,1,53.62,74.57Z" style="fill:#8ba096;fill-rule:evenodd"/><path d="M53.62,74.57a1.47,1.47,0,0,1-.08-.42,1.58,1.58,0,0,1,1.08-.57c.71,0,1.41,0,1.86.67a1.91,1.91,0,0,1-1.1.42Z" style="fill:#a15e5e;fill-rule:evenodd"/><path d="M51.68,74.08l-1,.08-.87-.08,0-.55a1.54,1.54,0,0,1,1.78-.12A.5.5,0,0,1,51.68,74.08Z" style="fill:#905c5b;fill-rule:evenodd"/><path d="M51.62,73.71l-1.9-.17a23.12,23.12,0,0,0-3.87-1.23.81.81,0,0,0-.42-.12,1.69,1.69,0,0,0-.52-.34c-.36-.32-.53-.65-.06-1,1.1.47,2.29-.08,3.4.34l.56,0a49,49,0,0,1,8.57,0l.53,0a4,4,0,0,1,2.81.16h0c0,.32,0,.64,0,1-.05,2.1-.05,2.08-2.08,1.94-.71,0-1.43,0-2.14,0l-1.92-.16C53.63,73.57,52.56,74.16,51.62,73.71Z" style="fill:#f5fafa;fill-rule:evenodd"/><path d="M57.38,71.18a61.4,61.4,0,0,1-8.57,0A19,19,0,0,1,57.38,71.18Z" style="fill:#645656;fill-rule:evenodd"/><path d="M48.25,71.17c-1.15.07-2.33.39-3.4-.34C46,70.88,47.18,70.43,48.25,71.17Z" style="fill:#9d8c88;fill-rule:evenodd"/><path d="M60.72,71.31l-2.81-.16c.54-.61,1.3-.3,1.95-.45C60.23,70.78,60.6,70.87,60.72,71.31Z" style="fill:#908278;fill-rule:evenodd"/><path d="M44.92,71.85a.54.54,0,0,1,.52.34A.55.55,0,0,1,44.92,71.85Z" style="fill:#9d8c88;fill-rule:evenodd"/><path d="M70.78,48.77l.7-.12c2.74,2.58,5.79,2.61,9,1.08l.52.48c-.54,1-1.63,1-2.53,1.28a8.2,8.2,0,0,0-3.77,0c-.92.07-1.28.63-1.58,1.46a5.12,5.12,0,0,1-1.79,2.95.85.85,0,0,1-.67-.68A6.86,6.86,0,0,0,70.78,48.77Z" style="fill:#9b8d8b;fill-rule:evenodd"/><path d="M74.15,45.23c-.82-.17-1.32-.66-1.23-1.47a1.19,1.19,0,0,1,1.21-1.21,1.38,1.38,0,0,1,1.38,1.35C75.55,44.75,74.9,45.09,74.15,45.23Z" style="fill:#888080;fill-rule:evenodd"/><path d="M81,49.27l-.4.4A.45.45,0,0,1,81,49.27Z" style="fill:#9b8d8b;fill-rule:evenodd"/><path d="M81.41,48.71l-.38.49A.54.54,0,0,1,81.41,48.71Z" style="fill:#9b8d8b;fill-rule:evenodd"/><path d="M82.35,50.16l-.47-.48.36-.16Z" style="fill:#9b8d8b;fill-rule:evenodd"/><path d="M75.79,55.9a4.73,4.73,0,0,1,.92,6.36,29.44,29.44,0,0,1-5,5.76,2.88,2.88,0,0,1-4.57-.74,16.72,16.72,0,0,1-2.1-3.77c1.52.39,1.88,1.54,2.34,2.4a2.61,2.61,0,0,0,2.64,1.42c.9,0,1.36-.15,1.62-.94.15-.45.08-1.08.55-1.27,1.41-.59,1.94-2.09,3-2.9,1.37-1,1.4-2.22,1.19-3.58C76.32,57.71,76,56.81,75.79,55.9Z" style="fill:#8b817b;fill-rule:evenodd"/><path d="M57.88,68.86c.58-.76-.27-.95-.57-1.28-4.28-4.73-4.47-9.82-2.55-15a4.74,4.74,0,0,1,2.16-2.46.58.58,0,0,1,0,.91l-.05.05a1.46,1.46,0,0,1-.41.45l0,0a4.09,4.09,0,0,0-.42.53l0,0c-.38.26-.29.74-.48,1.09a.35.35,0,0,1-.09.35c-.27.31-.2.74-.4,1.07a.37.37,0,0,1-.06.36c-.4.48-.13,1.12-.4,1.63l-.07.77a1,1,0,0,0-.23.8c0,.38-.08.78.2,1.11.78,3.62,2.14,6.9,5.34,9.1-.28.06-.61,0-.72.38C58.8,69.75,58.34,69.27,57.88,68.86Z" style="fill:#786b68;fill-rule:evenodd"/><path d="M70.73,55.34l.62.58c-1,1-1.79.16-2.43-.42a14.86,14.86,0,0,1-2.64-3c-.58-.95-1.34-.94-2.19-1a.8.8,0,0,1-.18-.62,15.21,15.21,0,0,1,4-3.23,1.29,1.29,0,0,0,.63,1.12C66.7,51.83,69.26,53.4,70.73,55.34Z" style="fill:#8d8581;fill-rule:evenodd"/><path d="M56.9,51c0-.3,0-.6,0-.91.2-1.27-.89-2.16-1-3.35.67-.51.44-1.25.48-1.91s-.06-1.09.54-1.4c.93,1.58.31,3.67,1.66,5.12a4,4,0,0,1,.29.62l.08.33c0,.82-.62.79-1.13.95Z" style="fill:#756c6a;fill-rule:evenodd"/><path d="M62.26,59c.91,1.3,1.63,2.26,2.26,3.27a.79.79,0,0,1-.22,1.06c-.42.24-.71-.15-.92-.48A5.21,5.21,0,0,1,62.26,59Z" style="fill:#968e86;fill-rule:evenodd"/><path d="M57.88,50.48l.93-.75a2.72,2.72,0,0,1,3.11,1.15.74.74,0,0,1-.17.67C60.3,51.79,59.19,50.78,57.88,50.48Z" style="fill:#9b8b87;fill-rule:evenodd"/><path d="M74.72,51.51a3.94,3.94,0,0,1,3.77,0A12.36,12.36,0,0,1,74.72,51.51Z" style="fill:#727e79;fill-rule:evenodd"/><path d="M61.75,51.54l0-.5a1.77,1.77,0,0,1,2.4,0l0,.51Z" style="fill:#7f5c5b;fill-rule:evenodd"/><path d="M54.48,59.24c-.52-.36-.42-.91-.44-1.43a.28.28,0,0,1,.44,0Q54.48,58.52,54.48,59.24Z" style="fill:#84736f;fill-rule:evenodd"/><path d="M54.59,56.56c0-.58-.19-1.2.4-1.63A2.14,2.14,0,0,1,54.59,56.56Z" style="fill:#756c6a;fill-rule:evenodd"/><path d="M62.18,69.34c-.53,0-1.1.08-1.39-.55A1.45,1.45,0,0,1,62.18,69.34Z" style="fill:#786b68;fill-rule:evenodd"/><path d="M55.54,53.15c0-.45,0-.87.48-1.09A1.4,1.4,0,0,1,55.54,53.15Z" style="fill:#756c6a;fill-rule:evenodd"/><path d="M60.81,68.8a.84.84,0,0,1-1-.46A1,1,0,0,1,60.81,68.8Z" style="fill:#786b68;fill-rule:evenodd"/><path d="M55.05,54.57a1,1,0,0,1,.4-1.07A1.3,1.3,0,0,1,55.05,54.57Z" style="fill:#756c6a;fill-rule:evenodd"/><path d="M56,52.09l.42-.53A.62.62,0,0,1,56,52.09Z" style="fill:#756c6a;fill-rule:evenodd"/><path d="M56.44,51.52l.42-.45Z" style="fill:#756c6a;fill-rule:evenodd"/><path d="M54.49,57.8H54l.47-.48Z" style="fill:#756c6a;fill-rule:evenodd"/><path d="M120.43,120.32l-1.09.36c-.5-1-1.41-1-2.36-.92l-.5-.44.76-.16c.6,0,.26-1.22,1.13-.88h0a3.92,3.92,0,0,1,.43.49l0,0c.19.12.35.28.54.41.79.08,1.5.63,2.35.39,0,.19,0,.38,0,.58Z" style="fill:#766b6b;fill-rule:evenodd"/><path d="M63.64,75.09c-.07,0-.2-.09-.19-.11s.12-.13.2.11Z" style="fill:#a49e82;fill-rule:evenodd"/><path d="M118.36,118.29c-.45.2-.53.87-1.13.88-.56-4.2-2.17-7.82-5.67-10.41,0-.32.32-.36.54-.47,2.64,1.07,3.75,3.43,4.78,5.8C117.47,115.44,117.87,116.89,118.36,118.29Z" style="fill:#898381;fill-rule:evenodd"/><path d="M112.1,108.28l-.54.47-.85.41a.49.49,0,0,1-.57.1c-.62-.31-1.08-1.47-2-.4a1.29,1.29,0,0,1-.35.46c-.75-.11-1.19-.76-1.84-1l-.55-.08c0-.14,0-.29,0-.44,1.57-1.46,3.28-1.31,5-.41C111,107.63,111.55,108,112.1,108.28Z" style="fill:#857669;fill-rule:evenodd"/><path d="M113.4,105.63c0,.35-.16.6-.51.62s-.64,0-.65-.46a.6.6,0,0,1,.51-.65A.57.57,0,0,1,113.4,105.63Z" style="fill:#7e7070;fill-rule:evenodd"/><path d="M119.37,119.22l-.54-.41Z" style="fill:#898381;fill-rule:evenodd"/><path d="M118.8,118.78l-.43-.49A.57.57,0,0,1,118.8,118.78Z" style="fill:#898381;fill-rule:evenodd"/><path d="M127.49,109.17c.88-1,1.51,0,1.95.43a12,12,0,0,1,3.27,6c.17.94.22,1.89.46,2.83.17.68,0,1.3-.9,1.3-.16-1.11-.33-2.21-.49-3.32A12.19,12.19,0,0,0,127.49,109.17Z" style="fill:#898e8b;fill-rule:evenodd"/><path d="M124.16,123.52c0-.14,0-.29,0-.43l3.38.06c0,.13,0,.27,0,.4A4.52,4.52,0,0,1,124.16,123.52Z" style="fill:#bf7573;fill-rule:evenodd"/><path d="M128.85,106.18l-.18.35c0-.05-.15-.12-.14-.15a2.23,2.23,0,0,1,.17-.35Z" style="fill:#88837d;fill-rule:evenodd"/><path d="M110.2,109.11l.51.05a2.17,2.17,0,0,1-2.9.16l0-.21A1.82,1.82,0,0,1,110.2,109.11Z" style="fill:#879797;fill-rule:evenodd"/><path d="M149.1,118.76l-.93-.89c2-1,4.12-.61,6.18-.44,1.21.1.81,1,.45,1.78A4.1,4.1,0,0,1,149.1,118.76Z" style="fill:#897568;fill-rule:evenodd"/><path d="M147.26,115.63c.34,0,.59.16.61.5a.57.57,0,0,1-.5.64c-.32,0-.6-.08-.6-.47A.68.68,0,0,1,147.26,115.63Z" style="fill:#8a8085;fill-rule:evenodd"/><path d="M155.88,116.43c.1.09.27.17.27.26,0,.25-.14.39-.39.24s-.14-.23-.21-.34Z" style="fill:#837c80;fill-rule:evenodd"/><path d="M124.16,123.52l3.32,0,1,.07c-1.54.92-3.22.27-4.82.44Z" style="fill:#86ada1;fill-rule:evenodd"/><path d="M27.56,28l-.91.07a3.92,3.92,0,0,1-.36-1.35c.09-.75.54-.59,1-.19a3.29,3.29,0,0,0,.32.58Z" style="fill:#c4c1b3;fill-rule:evenodd"/><path d="M27.58,27.11l-.32-.58Z" style="fill:#a39d93;fill-rule:evenodd"/><path d="M37.7,60.21h.47a3.52,3.52,0,0,1,.56,2.35C37.58,62,37.73,61.08,37.7,60.21Z" style="fill:#aaa79b;fill-rule:evenodd"/><path d="M47.06,47.13a9.32,9.32,0,0,1,4,4.73.89.89,0,0,1-.38,1.24c-.64.26-.85-.31-.88-.78A5,5,0,0,0,48,49.05,3.1,3.1,0,0,1,47.06,47.13Z" style="fill:#68605f;fill-rule:evenodd"/><path d="M49.39,59.25c-1.15-1-1.43-2.3-2.2-3.66C49,56.29,49.49,57.16,49.39,59.25Z" style="fill:#6b6361;fill-rule:evenodd"/><path d="M47.54,52.21c.43.24,1.13.25,1,1a.69.69,0,0,1-.66.57c-.67,0-1-.44-1-1.06C46.91,52.38,47.16,52.21,47.54,52.21Z" style="fill:#695f5d;fill-rule:evenodd"/><path d="M64.13,51l-2.4,0-2.91-1.31-.06,0a1,1,0,0,0-.41-.47A6.89,6.89,0,0,1,57,43.46h0c.24-.29.13-.77.53-1l0,.05a.86.86,0,0,1,.47-.52h0a.88.88,0,0,1,.57-.47L60.28,41a1.19,1.19,0,0,0,.46-.48h0c1.67-.83,3.32-.39,5,.07A2.36,2.36,0,0,0,66.52,42a5.48,5.48,0,0,1,1.41,5.69C67.05,49.22,65.54,50.06,64.13,51Z" style="fill:#fefefe;fill-rule:evenodd"/><path d="M70.73,55.34c-1.9-.48-2.66-2.22-3.56-3.61-.78-1.21.52-2.13,1.38-2.94l2.22,0C72.87,51.27,72.86,52.64,70.73,55.34Z" style="fill:#fafbfb;fill-rule:evenodd"/><path d="M57.5,42.48a1.27,1.27,0,0,1-.53,1C56.94,43,57,42.64,57.5,42.48Z" style="fill:#756c6a;fill-rule:evenodd"/><path d="M57.94,42a.63.63,0,0,1-.47.52A.59.59,0,0,1,57.94,42Z" style="fill:#84736f;fill-rule:evenodd"/><path d="M58.5,41.55l-.57.47A.63.63,0,0,1,58.5,41.55Z" style="fill:#84736f;fill-rule:evenodd"/><path d="M60.74,40.48a.5.5,0,0,1-.46.48Z" style="fill:#ece4d1;fill-rule:evenodd"/><path d="M51.62,73.71c1-.09,2-.32,2.94.38l-1,.06-1.85-.07Q51.66,73.89,51.62,73.71Z" style="fill:#d18c8c;fill-rule:evenodd"/><path d="M58.35,49.21a.54.54,0,0,1,.41.47A.55.55,0,0,1,58.35,49.21Z" style="fill:#9b8b87;fill-rule:evenodd"/><path d="M110.2,109.11h-2.44c-.28-.69-.63-1.41.64-1.39C109.35,107.73,110.13,108,110.2,109.11Z" style="fill:#caa860;fill-rule:evenodd"/><path d="M150.8,118.93c.86-.86,1.8-.67,3-.41C152.79,119.73,151.75,119,150.8,118.93Z" style="fill:#d1af61;fill-rule:evenodd"/><path d="M62,43.75c-.16.73-.58,1.16-1.33,1.09a1.26,1.26,0,0,1-1.2-1.24,1.23,1.23,0,0,1,1.46-1.18C61.64,42.54,61.88,43.09,62,43.75Z" style="fill:#7e7b7b;fill-rule:evenodd"/></svg>