<svg xmlns="http://www.w3.org/2000/svg" viewBox="0 0 218.53 126.01"><title>アセット 8</title><path d="M119.68,87.78a1.55,1.55,0,0,1-.89,1,2.34,2.34,0,0,1-.63.34c-2.39,2.55-3.81,5.22-1.62,8.7.76,1.21-.11,2.29-1.76,2.65-1.95.43-3.71-.5-5.58-.69a1.74,1.74,0,0,1-1.49-.76c-3-1.87-3.44-4.53-2.32-7.66a6.59,6.59,0,0,0,.25-3.08c-.16-1.26-.78-1.91-2.12-1.26a5.51,5.51,0,0,0-2.37,1.33.45.45,0,0,1-.56-.08c-.44-1.23-1.47-1-2.44-1-3.08-.16-6.05,1.09-9.15.77a11.75,11.75,0,0,0-4,.23c-5.31,1.25-10,.29-13.94-3.77l-1.25-1.56c-.52-.24-.72-.58-.39-1.12A30,30,0,0,0,73,77.63c1.73-2.3,3.68-4.21,6.63-4.78A2.52,2.52,0,0,0,81.58,71c.31-.9.51-1.88,1.6-2.23a2.68,2.68,0,0,1,1.05,0,5.07,5.07,0,0,0,2,.37c5,.27,8.84,2.25,10.56,7.37.71,2.09,1.79,4.06,2.09,5.28a35.74,35.74,0,0,0-4.07-9c-1.77-2.55-4.69-3.18-7.54-3.56-1.65-.21-3.28-.5-4.92-.77-.19-2.4-2.72-3.67-2.87-6.19-.08-1.33-2.68-2-3.79-1.22.21,1.43,2,1.39,2.41,2.64a.81.81,0,0,1-.43.52A32.06,32.06,0,0,1,68,61.94c-.69-.26-.7-1-1-1.5a2,2,0,0,1-1-1.91c1-2.52.54-5.21.83-7.81a28.68,28.68,0,0,1,4-12.61,25.78,25.78,0,0,0,2.86-7c1.34-4.76,2.64-9.53,4.94-14a8.31,8.31,0,0,1,3.89-4.05c.65-.3,1.84-.39,1.65-1.39a2.11,2.11,0,0,0-1.92-1.56,1.43,1.43,0,0,1-1-1c.05-4.57,3.27-6.44,6.87-7.84s5-.9,7.54,1.93c1.38,1.56,2,3.26,1.18,5.27-.4,1-.46,1.63.8,1.92,5,1.13,7.36,5.29,10,9.05,1.19,1.72.95,3.81.15,5.75a10.8,10.8,0,0,0-1.11,2.88c0,1.34-1.46,2.39-.73,3.87a1.23,1.23,0,0,1,0,.65,2.18,2.18,0,0,1-.38.55c-1.21,1.25-1,3-1.5,4.47-.41,1.34-1.1,1.9-3,1.11A15.75,15.75,0,0,1,105,44.79a39.91,39.91,0,0,0,4.6,8.35c2.49,3.57,3.94,7.63,5.4,11.68.55,1.53-.26,2.43-1.88,2.33a2.52,2.52,0,0,1-1.72-.75c-4.21-4.48-9.22-8.13-13.27-12.78a3.59,3.59,0,0,1-.36-.51,18.41,18.41,0,0,0,3.78,4.1,9.81,9.81,0,0,1,4.24,7.4c.2,2.14-.14,4.29.38,6.43.2.82-.45,1.34-1.36,1.14-.54-.12-1.08-.2-1.64-.28,5.37.61,10,3.32,14.87,5.29a6.12,6.12,0,0,1,2.59,9.22C120.29,86.86,119.82,87.2,119.68,87.78Z" style="fill:#84736f;fill-rule:evenodd"/><path d="M115.37,31.63a5.21,5.21,0,0,1-1.81,2,25.65,25.65,0,0,0-6.35,7.15,8,8,0,0,1-2.29,2.45,3.18,3.18,0,0,1-1.29-4,37.4,37.4,0,0,0,1-4.41,2.74,2.74,0,0,1,1.25-2.21h0c1.36-1.44,3.24-2,4.94-2.85,2.16-1.09,3.39-2.59,3.05-5.11a2.29,2.29,0,0,1,.6-2.21c4.24-3.58,8.17-7.63,13.85-9a8.65,8.65,0,0,1,1.67,0c1.88.34,2.52,1.65,1.55,3.29-1.12,1.92-3.06,3-4.76,4.26-3.55,2.68-7.22,5.21-10.06,8.72A5.1,5.1,0,0,0,115.37,31.63Z" style="fill:#84736f;fill-rule:evenodd"/><path d="M105.84,32.6c-1.18,2.37-1,5.07-1.89,7.52-.42,1.22.89,2,1,3.07a27.25,27.25,0,0,0,3.73,7.46,58.46,58.46,0,0,1,6.87,14.18c.69,1.93-.06,2.89-2.09,2.78a4.48,4.48,0,0,1-3.14-1.51A38.62,38.62,0,0,0,106,62.19c.16,2.51,0,5,.36,7.35a4.24,4.24,0,0,0,3.18,3.54c3.18.81,6,2.56,9,3.82,4.35,1.81,4.82,7.7,1.09,10.88-.62-.62,0-1,.29-1.39a5.72,5.72,0,0,0-2.53-9,59.74,59.74,0,0,1-5.71-2.45,38.15,38.15,0,0,0-6.6-2.05,8.66,8.66,0,0,1-4.42-2c2-.11,3.36,1.14,5.12.77-1-2.72-.19-5.51-.79-8.27a9.12,9.12,0,0,0-3.92-5.74,15.46,15.46,0,0,1-4.84-6.25c.59-.56,1-.28,1.13,0,1.45,3,4,5,6.36,7.09,2.58,2.28,5,4.7,7.44,7.1a2.7,2.7,0,0,0,2.52,1c.84-.17,1.29-.57.91-1.51-1.66-4.14-3-8.42-5.73-12.05a38,38,0,0,1-4.73-8.83,10.92,10.92,0,0,0-3-4.57,2.41,2.41,0,0,1-.95-1.8c.24-.29.48-.14.67,0,2.34,1.3,2.37,1.31,2.9-1.39a24,24,0,0,1,.53-2.57A1.54,1.54,0,0,1,105.84,32.6Z" style="fill:#6a6261;fill-rule:evenodd"/><path d="M38.1,49.9a5.41,5.41,0,0,0,1.5,3.33c.58.56,1.42,0,2,.48-1.48,2.05-3.86,2.07-6,2.68a.73.73,0,0,1-.48-.46,1.76,1.76,0,0,1,.37-.95c1-1.48-.59-1.45-1.17-2-.4-.29-.27-.8-.5-1.16a4.81,4.81,0,0,1-4.12-3.5c-.59-1.65-1.24-3.28-1.81-4.94a20.77,20.77,0,0,0-2.37-4.94,6,6,0,0,1,.34-6.71A1.32,1.32,0,0,1,28,31.46,3.06,3.06,0,0,1,29.05,35c-1.08,2.22-.23,3.94,1.1,5.78,1.2-1.39,1.27-3,1.73-4.52.16-.53.18-1.19.89-1.25s1,.63,1.29,1.2a2.55,2.55,0,0,1-.17,2.29,40.91,40.91,0,0,0-1.72,3.94,5.19,5.19,0,0,0,2.39,6.15c.89.42,1.35.24,1.47-.75.06-.47.11-1,.18-1.42s.4-1.1,1.05-1.1a1.28,1.28,0,0,1,1.26,1.21,6.55,6.55,0,0,1-.41,2.34c-1.15.14-.3-1.06-.81-1.28.11.91.6,1.91-.34,2.69s-1.69.27-2.5,0c-2.72-1.05-3.8-3.28-4-6a3.92,3.92,0,0,0-1.12-2.45c-1.59-1.81-2.77-3.92-2-6.53a2.16,2.16,0,0,0,.12-.94c0-.17-.11-.29-.47-.44a3,3,0,0,0-.23,3.47A69.51,69.51,0,0,1,31,47.51a4.05,4.05,0,0,0,3,2.77,9.47,9.47,0,0,1,3.11,1.44C37.4,51.07,36.84,50,38.1,49.9Z" style="fill:#716968;fill-rule:evenodd"/><path d="M43.79,50c-.51-.21-1-.44-1.55-.63a2.5,2.5,0,0,1-1.82-2.75,12.35,12.35,0,0,0-1.72-7.34,5.2,5.2,0,0,1-.35-.89,1.33,1.33,0,0,1,.46-1.7,1.49,1.49,0,0,1,1.79.08A4.55,4.55,0,0,1,42.44,40c.07.44-.15.94.36,1.38.92-1,1.83-2,2.76-2.91a3.3,3.3,0,0,0,.83-3.09c-.19-1.05-.53-1.83-1.82-1.7-1,.11-1.77-.65-2.58-1.12a1.31,1.31,0,0,1-.42-1.89c.34-.59,1-.46,1.5-.29.3.09.59.26.89.34.5.14,1.1.62,1.46-.11.28-.57-.09-1.09-.49-1.48s-1-.82-1.46-1.24a3.67,3.67,0,0,1-.92-4.34c.44-.91,1.2-1.07,1.89-.35a3.81,3.81,0,0,1,.8,1.18A10.92,10.92,0,0,0,48,28.19a4.85,4.85,0,0,1,1.62,4.52,17.87,17.87,0,0,0-.11,6c.21,1.16-.49,1.74-1.41,2.22A7,7,0,0,0,45,43.75c-1,1.93-.82,2.92.94,4.31a4.53,4.53,0,0,1,1.37,1.3c.23.77.61,1.48.79,2.27a1.64,1.64,0,0,1-.13.71,1.22,1.22,0,0,1-.86.6.82.82,0,0,1-.58-.36C46.08,51.4,46.06,50,45,49.16c-3-2.38-2.55-4.79.4-7.93,1.24-1.31,2.89-2.1,2.79-4.37-.14-3.34.4-6.79-2.57-9.31A19.63,19.63,0,0,1,44,25.83c.7,1.45,2.24,2.19,2.91,3.71,1.07,2.42.81,2.9-1.83,2.87-.48,0-.9-.19-1.66-.26,1.73.47,3.71-.19,4.21,2.08A5.9,5.9,0,0,1,46.25,40a19.69,19.69,0,0,0-2,2.38c-1.06,1.52-2.18,1.33-2.94-.4-.41-.93-.29-2-1.07-2.87.8,2.32,1.95,4.51,1.91,7,0,1.08.7,1.69,1.47,2.32S44.35,49.14,43.79,50Z" style="fill:#706867;fill-rule:evenodd"/><path d="M43.79,50c.73-.79-.11-1-.53-1.1-1.46-.51-1.85-1.53-1.77-3a9.93,9.93,0,0,0-1.25-5.27,5.06,5.06,0,0,1-.78-2.46c1.42.18,1.82.59,2,2.17.09.7-.06,1.43.46,2.05.68.83,1.52.89,1.82-.07a5.86,5.86,0,0,1,2-2.63c1.58-1.4,1.73-3.17,1.45-5-.21-1.44-.81-1.86-2.43-1.73-1.06.08-1.42-.76-2.64-1.28,2-.18,3.4,1.12,5,.13-.62-1.58-1.07-3.18-2.68-4.25s-1.68-1.55-.6-3.38a21,21,0,0,0,3.47,4.56,5.42,5.42,0,0,1,1.41,4c-.09,1.75,0,3.51,0,5.27a2.7,2.7,0,0,1-1.58,2.7,7.16,7.16,0,0,0-3.39,3.87,2.53,2.53,0,0,0,.63,3.24c.18.16.32.36.51.5a4.46,4.46,0,0,1,1.91,4.57c.42.66,1.75.86,1.31,1.88-.33.78-1.32.57-2.09.45-.79-.27-1.72-.26-2.21-1.11,0-.44.39-.56.57-.85C45.28,51.89,44.6,50.92,43.79,50Z" style="fill:#82736f;fill-rule:evenodd"/><path d="M106.32,28.29a.7.7,0,0,1-.2-1c.4-.78.82-1.55,1.17-2.36.75-1.77,1-3.72-.09-5.28-2.19-3.18-4.24-6.57-8.08-8.17-1.17-.49-2.51-.46-3.58-1.2,0-.18-.09-.37,0-.48,2-3.52.74-7.12-3.13-8.62A2.9,2.9,0,0,0,90.51,1a14.87,14.87,0,0,0-6,2.8c-1.45,1.27-2.85,2.6-2.77,4.78,0,.17-.28.36-.43.54-.85-.83-.5-1.75-.15-2.64C82.44,3.24,87.87-.25,91.37,0a6.94,6.94,0,0,1,5.71,4.22c.71,1.4,1.34,2,3,2,2.28-.08,3.84,1.29,4.83,3.31a1.56,1.56,0,0,1,.12,1.33c-1.22.46-1.34-.73-1.81-1.28a4.06,4.06,0,0,0-3.68-1.74c-.57.06-1.15.23-1.32.84s.4,1,.92,1.15a12.58,12.58,0,0,1,3.14,1.64,1.65,1.65,0,0,0,2.48-.36.41.41,0,0,1,.58-.09c.18.75.67,1.58.09,2.26-.92,1.07-.41,1.8.28,2.66a15,15,0,0,1,2.89,4.28,2.79,2.79,0,0,0,1.52,1.41.46.46,0,0,1,.13.41c0,.14-.06.21-.09.21C109,23.5,109,25.3,108,26.65,107.56,27.31,107.49,28.38,106.32,28.29Z" style="fill:#6d6462;fill-rule:evenodd"/><path d="M82.27,10.12c.47-.72.88-.33,1.36,0,2.48,1.85,2.53,2-.23,3.16a8.94,8.94,0,0,0-4.57,4.57,69.62,69.62,0,0,0-4.64,13.27A25.31,25.31,0,0,1,70.89,39,21.56,21.56,0,0,0,67.51,49.3c-.23,2.36-.8,4.71-.57,7.12A2.41,2.41,0,0,1,66,58.53c-.4-2,0-4,.12-5.93.37-5.91,1.77-11.51,5.24-16.45a10.27,10.27,0,0,0,1.32-3.33c1-3.78,2.11-7.53,3.42-11.22.32-.9.67-1.79,1-2.68,1.31-3.1,3.08-5.8,6.38-7C83.46,11,82.5,10.82,82.27,10.12Z" style="fill:#716866;fill-rule:evenodd"/><path d="M190.78,16.84c1.54.19,2.48,1.37,3.58,2.24,2.69,2.13,5.26,4.4,7.74,6.78,1.3,1.24,1.59,1.22,2.5-.33a88.34,88.34,0,0,1,5.22-8.59c2.31-3.06,4.87-5.92,7.35-8.83.3-.35.6-.76,1.19-.74.5.66-.14,1-.46,1.38a102.67,102.67,0,0,0-6.76,8.08,53.62,53.62,0,0,0-4.94,7.91c-.17.36-.38.7-.58,1-1.29,2.25-2.45,2.89-4.54.55a75.31,75.31,0,0,0-8.41-7.45,19.86,19.86,0,0,0-2.93-1.58C190,16.88,190.49,17.11,190.78,16.84Z" style="fill:#978d8d;fill-rule:evenodd"/><path d="M38.1,49.9c-.81.67-.13,1.71-.66,2.54a17.62,17.62,0,0,0-4.34-1.79,3.47,3.47,0,0,1-2.39-2.17,41.94,41.94,0,0,1-1.93-5.4,15.85,15.85,0,0,0-2.29-4.69A4.38,4.38,0,0,1,26,33.86c.23-.57.52-1.34,1.34-1s1.39.92.82,1.88c-1.08,1.81-.51,3.53.22,5.26.29.69.72,1.52,1.32,1.63,1.52.26,1.23,1.21,1.25,2.24.06,3.1,1.68,5.45,4.1,6.07,1.71.44,1.91.38,2.11-1.38,0-.31,0-.63,0-1.17.71.43.34,1.29.92,1.54Z" style="fill:#82716e;fill-rule:evenodd"/><path d="M6.88,99.15C8.46,91.68,11.94,85.28,18,80.5a15.51,15.51,0,0,1,9.57-3.78c1.23-.4,2.49-.09,3.74-.19.94,0,1.87,0,2.81,0,.55.3.33.65,0,.89a3.3,3.3,0,0,1-2.08.42c-10.88-.32-17.2,5.89-21.47,15a51.5,51.5,0,0,0-2.19,6.08,1.47,1.47,0,0,1-1,1C6.9,99.85,6.66,99.64,6.88,99.15Z" style="fill:#8e7f75;fill-rule:evenodd"/><path d="M128.4,13.89c-3.46.7-6.19,2.76-8.89,4.85-1.5,1.16-2.87,2.49-4.35,3.67a2,2,0,0,0-.78,2c.32,3.1-.38,4.35-3.14,5.69-1.78.86-3.43,2-5.39,2.47l0-.55c-.11-1,.71-1.32,1.37-1.7,1-.55,2-1,3-1.5,2.83-1.47,3.16-2.24,2.27-5.27-.1-.85.76-.69,1.11-1.08a87,87,0,0,1,8.59-6.91,11.38,11.38,0,0,1,5.22-2.26C127.84,13.21,128.44,12.92,128.4,13.89Z" style="fill:#706564;fill-rule:evenodd"/><path d="M128.4,13.89c-.23-.43-.67-.47-1.08-.55a5.48,5.48,0,0,1,2.71-.77c2-.29,3.18,1.25,2.5,3.19A8.13,8.13,0,0,1,130.1,19c-2,1.78-4.25,3.11-6.3,4.76a67.48,67.48,0,0,0-7.54,7,.65.65,0,0,1-.33.33l-.11.11a.89.89,0,0,1-.38.38l-.07.08c-.71-.76.11-1.09.44-1.55,2.83-4,6.86-6.56,10.64-9.45a26.31,26.31,0,0,0,4.05-3.32c.58-.66,1.35-1.33,1-2.26s-1.36-1.24-2.39-1.16C128.88,13.9,128.64,13.89,128.4,13.89Z" style="fill:#797372;fill-rule:evenodd"/><path d="M58.39,86.88a2.38,2.38,0,0,0-1.62,2.31c0,5-2.76,7.88-7.31,9.35a13.42,13.42,0,0,0-1.51.7c-2.53,1.18-2.54,1.23-1.38,3.85.58,1.3,1.47,2.46,1.73,3.9a.85.85,0,0,1-.66.24c-1-.36-1.26-1.39-1.79-2.18a9.75,9.75,0,0,1-1.51-6.82c.19-1.14.59-2.23,1.84-.73.65.77,1.28.4,1.92.15,4.1-1.56,7.35-3.8,7.21-8.85,0-1.52.51-2.67,2.31-2.65A1,1,0,0,1,58.39,86.88Z" style="fill:#8e847e;fill-rule:evenodd"/><path d="M131.25,68.57c4-4.73,8.42-9,12.79-13.3,2.38-2.36,4.9-4.57,7.36-6.84a.5.5,0,0,1,.74.1c-2.48,2.48-5,4.95-7.45,7.44q-6.5,6.54-13,13.1C131.31,69.13,131.07,69,131.25,68.57Z" style="fill:#908484;fill-rule:evenodd"/><path d="M34.77,76.15a4.55,4.55,0,0,0,2.6-3.69c.16-1.87-.59-2.91-2.45-2.85a10.9,10.9,0,0,0-1.84.4c-3.14.66-7.21-.13-8.36-4.28a.74.74,0,0,1,.66-.22,3.35,3.35,0,0,1,1.46,1.18c1.79,1.92,3.85,2.72,6.44,1.72a4.17,4.17,0,0,1,3.69.21,4.79,4.79,0,0,1,1.3,1c1.16,1.34,1.1,7.33-.08,8.62-.53.58-1.54,1-1.57,0-.05-1.63-1.4-.9-1.94-1.49A.48.48,0,0,1,34.77,76.15Z" style="fill:#918277;fill-rule:evenodd"/><path d="M71.09,84.5a1.94,1.94,0,0,1,1.84.89c1.77,2.17,4.3,2.59,6.82,2.85a12.48,12.48,0,0,0,5.19-.36,6.44,6.44,0,0,1,3.46-.17c2.19.48,4.38-.3,6.56-.67,1.08-.18,2.18-.52,3.19.24a28.58,28.58,0,0,1-8.48,1.19A34.07,34.07,0,0,0,83,89a14.56,14.56,0,0,1-7.74-.86A6.77,6.77,0,0,1,71.09,84.5Z" style="fill:#716c6c;fill-rule:evenodd"/><path d="M25.29,65.72h-.57c-.54-1-.71-2.23-1.62-3.15a2.05,2.05,0,0,1,0-2.66,1.65,1.65,0,0,1,2.3-.55,12.86,12.86,0,0,0,2.07.55c.45-.22.88-.28,1.19.23C28.91,62.83,26.87,64.14,25.29,65.72Z" style="fill:#7b6f6c;fill-rule:evenodd"/><path d="M100.59,88.28h.56c1.23.31,1.19,1.52,1.64,2.37.62,1.16.7,2.6,1.84,3.49.39.8.15,1.75.66,2.52.23.72.25,1.49.52,2.2a32.73,32.73,0,0,0,6.33,9.84.49.49,0,0,1-.08.75,12.69,12.69,0,0,1-3.74-4A64.82,64.82,0,0,1,100.59,88.28Z" style="fill:#959191;fill-rule:evenodd"/><path d="M22.43,121.52c.23.73.89,1,1.47,1.38.39.26.82.61.56,1.11s-.78.38-1.24.27a4.29,4.29,0,0,0-.44-.45A32.28,32.28,0,0,1,18.4,120c-1.46-1.63-3.42-2.24-5.46-2.75a7.57,7.57,0,0,1-5.39-4c-.31-.63-.75-1.44,0-2s1.32.23,1.68.81a7.61,7.61,0,0,0,5.24,3.44,10.29,10.29,0,0,1,5.25,2.7c1.06,1.05,2.5,1.35,3.63,2.21C23.75,121.46,22.26,120.77,22.43,121.52Z" style="fill:#8e7e72;fill-rule:evenodd"/><path d="M67,60.44l1,1c1,1.86.38,3.89.57,5.83,0,.16,0,.32,0,.48,0,5.61,0,5.61,5.54,5.22a2.93,2.93,0,0,1,1.17.11c.93.83.35,1.54-.18,2.26-.92.05-1.88-.42-2.75.24-.18.1-.38.18-.57.26a2.36,2.36,0,0,1-.6.16.76.76,0,0,1-.54-.25c0-1-.76-.79-1.36-.85-1.91-.18-1.93-.18-2-2.11-.11-2.69-.19-5.38-.28-8.08a3,3,0,0,0,0-2.37Q67,61.41,67,60.44Z" style="fill:#908989;fill-rule:evenodd"/><path d="M51.17,58.53a67.35,67.35,0,0,1,4.7,21.14c-.48.37.23,1.39-.8,1.47a1.87,1.87,0,0,1-.73-1.69c-.06-6.16-1.94-11.94-3.57-17.78a4.62,4.62,0,0,1-.29-3A.46.46,0,0,1,51.17,58.53Z" style="fill:#8e867c;fill-rule:evenodd"/><path d="M55.38,45.49c.78-.36,1.56-.74,2.35-1.08s1.39-.56,2,0,.42,1.42,0,2.13a2.12,2.12,0,0,0-.38.57.65.65,0,0,1-.2.4,1.1,1.1,0,0,1-.32.47h0c-.42.17-.6-.09-.73-.42a1.81,1.81,0,0,1,0-.64c0-.27.28-.78,0-.76s-.21.65-.34,1C55.47,50,53.29,53,49.79,54.51a1.27,1.27,0,0,1-.63-.22c-.18-1.48,1-2,1.9-2.75,1.77-1.47,3.52-2.94,4.39-5.16A8.07,8.07,0,0,1,55.38,45.49Z" style="fill:#8e817a;fill-rule:evenodd"/><path d="M109.2,99.77c.75-.87,1.49-.15,2.18.07a6,6,0,0,0,3,.38c1.75-.37,2.11-1.17,1.31-2.82a6.49,6.49,0,0,1,2.58-8.62.33.33,0,0,1,.12.33c0,.12-.06.17-.09.17h0a.93.93,0,0,0-.45.61.38.38,0,0,1-.21.35.84.84,0,0,1-.33.42l0,0a2.82,2.82,0,0,0-.42.54l0,0c-.36.21-.26.68-.53.95h0c-.33.31-.28.76-.42,1.14l-.1.78a1.2,1.2,0,0,0,0,1.43c.37.61.72,1.23,1.11,1.82,1.09,1.67.6,3-1.39,3.46a9.62,9.62,0,0,1-4.71-.18A3.63,3.63,0,0,1,109.2,99.77Z" style="fill:#726c6a;fill-rule:evenodd"/><path d="M47.71,107l.59,0a1.83,1.83,0,0,0,1.81.87,3,3,0,0,1,1.84.36,1.76,1.76,0,0,1,1.11,1.43,1.37,1.37,0,0,1-1,1.41c-.22.09-.43.2-.64.31-.85.43-1.75.76-1.6,2s1,1.82,2.26,1.82c.06,1-.87,1-1.39,1.35-.48.2-1,.32-1.37-.16C48.38,113.35,47.2,110.33,47.71,107Z" style="fill:#8e8383;fill-rule:evenodd"/><path d="M104.88,96.94c-.67-.91-.36-2-.57-3-.66-1-.16-2,.1-2.92a3.92,3.92,0,0,0-1-4.27c-.1-.28-.33-.71.07-.79a2.36,2.36,0,0,1,2.82,2.12,10.55,10.55,0,0,1-.57,4.45c-.73,2.22-.5,4.06,1.56,5.43a1.11,1.11,0,0,1,.41,1.05l-1.39-.63C105.59,98.15,105.27,97.51,104.88,96.94Z" style="fill:#746d6c;fill-rule:evenodd"/><path d="M49.68,116.61l.93-.52.23.18a4.13,4.13,0,0,0,1,1.43c.22.21.41.44.25.77a1.42,1.42,0,0,0,.06,2.13c.73.82,1.34,1.79,2.67,1.78a9,9,0,0,1,3.09.22A1.91,1.91,0,0,1,59.33,125a.89.89,0,0,1-1.08.71,6.34,6.34,0,0,1-.44-.57c-.6-1.25-1.81-1.05-2.88-1.2C51.58,123.44,48.89,119.71,49.68,116.61Z" style="fill:#988c8c;fill-rule:evenodd"/><path d="M152.14,48.53l-.74-.1a116.33,116.33,0,0,1,11.54-10.55c.46-.19.52.06.48.43-2.34,2.73-5.35,4.74-7.88,7.28A13,13,0,0,1,152.14,48.53Z" style="fill:#9c9191;fill-rule:evenodd"/><path d="M132.22,4.77a4.26,4.26,0,0,1-.66-.68c-.44-.7-.36-1.24.6-1.29a7.71,7.71,0,0,1,1.67.06q6.23,1,12.44,2.07c.14,0,.26.18.38.28a.48.48,0,0,1-.08.69c-1.58.72-3.09-.07-4.62-.22-2.88-.28-5.68-1.34-8.63-1A1.36,1.36,0,0,1,132.22,4.77Z" style="fill:#9e8888;fill-rule:evenodd"/><path d="M138.48,15.82a2,2,0,0,1-1.51.54c-1.53.11-1.88-.12-1.85-1.64a53.76,53.76,0,0,0-.51-7.05c-.21-.44.08-.56.42-.65a1.28,1.28,0,0,1,.78.56,2.39,2.39,0,0,1,.23.62,1.94,1.94,0,0,0,.82,1.59,3.3,3.3,0,0,1,.28,1.28c0,.44,0,.88,0,1.31a2.51,2.51,0,0,0,1.38,2.84A.47.47,0,0,1,138.48,15.82Z" style="fill:#847979;fill-rule:evenodd"/><path d="M46.39,121.94c-1.08,1-2.54,1.22-3.85,1.73a1.39,1.39,0,0,1-1.54-.3c-2.22-2.09-5.07-2.41-7.88-2.84a3.09,3.09,0,0,1-1.79-.48,1.14,1.14,0,0,1,.69-.82c3.11.09,6.19.34,8.84,2.21,1.7,1.2,3.19-.2,4.79-.23A1,1,0,0,1,46.39,121.94Z" style="fill:#a19090;fill-rule:evenodd"/><path d="M163.43,38.31l-.48-.43a85.43,85.43,0,0,1,9.64-8.6l.18.2a2.12,2.12,0,0,1-.18.5,5.25,5.25,0,0,1-.7,1C169.08,33.41,166.25,35.85,163.43,38.31Z" style="fill:#9d9191;fill-rule:evenodd"/><path d="M112,109.45l.09-.75c3,2.19,6.46,2.43,10,2.62,1,.05,2.08-.25,3,.39,0,.33-.32.36-.5.51a44.69,44.69,0,0,1-9.15-.81,6.13,6.13,0,0,1-2.91-1.5c-.18-.15-.28-.39-.52-.47Z" style="fill:#a08484;fill-rule:evenodd"/><path d="M28.55,60.41c-.25-.41-.67-.42-1.07-.49,1.11-.75,2.47-.24,3.63-.72a8.84,8.84,0,0,1,1.14-.28.71.71,0,0,0,.6-.62c0-.33-.29-.52-.63-.57A3.65,3.65,0,0,1,30,57c-.1-.42.16-.6.5-.72a5.58,5.58,0,0,0,4.31-.77.36.36,0,0,1,.44.33.9.9,0,0,1,0,.33C35.5,59.4,31.76,61.75,28.55,60.41Z" style="fill:#957873;fill-rule:evenodd"/><path d="M30.5,56.59,30,57c-1.81-1.45-2.3-3-1.52-4.74.56-1.23,1-1.38,2.2-.67.41.25.78.57,1.2.79.81.43,1.54.45,1.93-.58.52.17.45.61.46,1-.55,2.17-2,1.27-3.16.84s-1.67-.14-1.23,1.15C30.16,55.4,30.78,55.85,30.5,56.59Z" style="fill:#988e85;fill-rule:evenodd"/><path d="M6.88,99.15l.52.65c.67,2.68-.38,5.23-.65,7.83-.06.54-.72,1.43-1.49.34-.09-.3,0-.62-.11-.91a.69.69,0,0,1-.56,0c-.37-.34-.27-.7-.06-1.08a.57.57,0,0,1,.16-.44c.09-.21.28-.37.29-.62Z" style="fill:#8b817a;fill-rule:evenodd"/><path d="M55.39,81.16c.08-.53-.06-1.12.48-1.5.43,2.39.43,2.41,2.72,2.88,1.63.33,3.2,1.06,4.93.85.5-.11.69.17.76.6a1,1,0,0,1-.72.82c-2.5.33-4.87-.77-7.46-.52C54.59,84.45,54.62,82.49,55.39,81.16Z" style="fill:#8d7970;fill-rule:evenodd"/><path d="M47.85,51.88a3.47,3.47,0,0,1-.55-2.52l.81.7c1.08-1.63.8-4.68,4-4.43,1.09.44,2.27-.09,3.36.32-.13,1.45-1.32,1.15-2.14,1.16a3.12,3.12,0,0,0-3.2,2.33C49.71,50.53,49.4,51.82,47.85,51.88Z" style="fill:#92877e;fill-rule:evenodd"/><path d="M4.53,106c0,.41.09.81.51,1-.63,3.71-2.32,7-4.07,10.26a.7.7,0,0,1-.68-.17.93.93,0,0,1,0-.46c.23-.29.16-.69.33-1A43.66,43.66,0,0,1,4.53,106Z" style="fill:#928b7e;fill-rule:evenodd"/><path d="M58.3,47.44l.5.52c-.83,2.16-1.63,4.33-2.49,6.48-.52,1.28-1.18,2.47-2.8,2.59a1,1,0,0,1-.24-.64,1.49,1.49,0,0,1,.29-.63c1.49-1.62,2-3.71,2.8-5.68C56.76,49,56.83,47.72,58.3,47.44Z" style="fill:#9d9690;fill-rule:evenodd"/><path d="M46.39,121.94l-.53-.39a.67.67,0,0,1,.22-.47,1.77,1.77,0,0,0,.44-.66,1.59,1.59,0,0,0-.24-1.06,3.4,3.4,0,0,1-.65-1.07c.32-1.58-.84-3-.46-4.61a1.09,1.09,0,0,1,.88-.55c1.72,2.48,2.22,5.4,3,8.22-.14.38-.34.68-.82.56C47.6,121.47,47,121.91,46.39,121.94Z" style="fill:#918a8a;fill-rule:evenodd"/><path d="M23.12,123.69l.1.6c-3.64.86-7.28.43-10.92,0a.48.48,0,0,1,.21-.74A23.52,23.52,0,0,1,23.12,123.69Z" style="fill:#b75e5e;fill-rule:evenodd"/><path d="M64.06,83.94l-.55-.54a54.86,54.86,0,0,1,7.15-7.62l.62,0a1.35,1.35,0,0,1-.52,1.47c-1.94,1.86-3.45,4.1-5.37,6C65,83.62,64.77,84.23,64.06,83.94Z" style="fill:#9f9696;fill-rule:evenodd"/><path d="M167.37,9.18a36.68,36.68,0,0,1-8.76,3.21c-.33-.17-.64-.35-.52-.81,2.63-1.7,5.64-2.39,8.61-3.22A1.05,1.05,0,0,1,167.37,9.18Z" style="fill:#ab9b9b;fill-rule:evenodd"/><path d="M135.63,114.15l-9.28-1.8c.23-.45.74-.22,1.07-.43a31.44,31.44,0,0,1,8.23,1.61A.37.37,0,0,1,135.63,114.15Z" style="fill:#958686;fill-rule:evenodd"/><path d="M107.2,40.75c-.09-.2-.31-.51-.24-.6a35.08,35.08,0,0,1,6.22-6.77s.25.14.38.21Z" style="fill:#717574;fill-rule:evenodd"/><path d="M157.14,6.36l7.91.77a1.93,1.93,0,0,1,1.31.39.52.52,0,0,1,0,.71c-1.43.77-2.83.2-4.23-.11a6.91,6.91,0,0,0-2.64-.31c-1.26-.14-2.65.37-3.74-.69C155.72,6,156.72,6.71,157.14,6.36Z" style="fill:#998585;fill-rule:evenodd"/><path d="M148.18,15.38c-1.83,1-3.91,1.14-5.84,1.81-1.09.37-1.55-.46-2-1.24a.48.48,0,0,1-.15-.41c0-.15.05-.22.08-.22,2.34.63,4.47-.63,6.73-.72A1.54,1.54,0,0,1,148.18,15.38Z" style="fill:#a09393;fill-rule:evenodd"/><path d="M172.59,29.28a43.55,43.55,0,0,1,5.65-5.35A.5.5,0,0,1,179,24a33.71,33.71,0,0,1-6,5.6.78.78,0,0,1-.32-.26Z" style="fill:#9c8d8d;fill-rule:evenodd"/><path d="M179,24l-.74-.12c1.47-1.59,2.42-3.65,4.38-4.78a.62.62,0,0,1,.53.52C181.73,21.09,180.81,23,179,24Z" style="fill:#a19797;fill-rule:evenodd"/><path d="M48.23,121.91l.5-.52c1.86.94,3.23,2.54,5,3.63a.86.86,0,0,1-.12.65C50.93,125.67,49.39,124.06,48.23,121.91Z" style="fill:#a39595;fill-rule:evenodd"/><path d="M186,124.7h10.43c.49-.17,1-.36,1.08.43a88.2,88.2,0,0,1-12,.06.35.35,0,0,1-.16-.33c0-.13,0-.19.08-.19A.56.56,0,0,1,186,124.7Z" style="fill:#895757;fill-rule:evenodd"/><path d="M171.1,123.29a40.15,40.15,0,0,1,8.19,1c.14.08.2.16.15.25s-.09.14-.13.14c-2.79.23-5.47-.46-8.17-.94-.17-.09-.24-.2-.2-.31S171,123.29,171.1,123.29Z" style="fill:#9c7373;fill-rule:evenodd"/><path d="M171.1,123.29l0,.49a27.4,27.4,0,0,1-7.32-1.3c-.17-.21-.14-.38.11-.51A41.5,41.5,0,0,1,171.1,123.29Z" style="fill:#8b8686;fill-rule:evenodd"/><path d="M151,119.47a13.21,13.21,0,0,1-5.35-1.87c0-.29.34-.32.51-.47a23,23,0,0,1,5.36,1.8C151.48,119.25,151.18,119.31,151,119.47Z" style="fill:#ab9c9c;fill-rule:evenodd"/><path d="M183.15,19.66l-.53-.52a7.83,7.83,0,0,1,4.84-2.29c.21.14.51.17.57.49Z" style="fill:#a19393;fill-rule:evenodd"/><path d="M148.18,15.38a1.7,1.7,0,0,1-1.07-.38c1.69-1.63,3.84-1.85,6-2,.38.13.71.31.67.8A31,31,0,0,1,148.18,15.38Z" style="fill:#a47c7c;fill-rule:evenodd"/><path d="M131.25,68.57l.46.49a10.2,10.2,0,0,1-3.81,3.58A9.1,9.1,0,0,1,131.25,68.57Z" style="fill:#9f9a9a;fill-rule:evenodd"/><path d="M4.8,123.84a1.89,1.89,0,0,1-2.22-1.35.48.48,0,0,1,0-.68,2.36,2.36,0,0,1,1.83.34c.94.73,2.08.42,3.12.58.74.12,1.79-.11,1.77,1.19a3.34,3.34,0,0,1-1.2.11A12.07,12.07,0,0,1,4.8,123.84Z" style="fill:#9d8585;fill-rule:evenodd"/><path d="M140.49,115.07a36.43,36.43,0,0,1,5.21,2,.84.84,0,0,1-.47.42,23.64,23.64,0,0,1-5.32-1.83C139.81,115.17,140,114.94,140.49,115.07Z" style="fill:#9b8181;fill-rule:evenodd"/><path d="M31.92,119.57l-.6.49-4.06.89a3,3,0,0,1-2,.11c-.33-.8.33-1,.81-1.12,1.59-.4,3.11-1.17,4.82-1A1.43,1.43,0,0,1,31.92,119.57Z" style="fill:#9f746e;fill-rule:evenodd"/><path d="M163,122.28a19.33,19.33,0,0,1-5.77-1.33c-.16-.09-.22-.19-.16-.29s.11-.14.16-.14a20.71,20.71,0,0,1,5.77,1.39c.15.08.2.16.15.24S163,122.28,163,122.28Z" style="fill:#966363;fill-rule:evenodd"/><path d="M197.55,125.14l-1.08-.43c1.49-.66,3-.37,4.84-.35C200.09,125.68,198.78,125.24,197.55,125.14Z" style="fill:#c37979;fill-rule:evenodd"/><path d="M153.81,13.8l-.51-.43a4.18,4.18,0,0,1,4.8-1.45l.51.47A28,28,0,0,1,153.81,13.8Z" style="fill:#a48686;fill-rule:evenodd"/><path d="M135.15,7.26l-.54.42c-1.15-.68-1.61-1.92-2.4-2.9l.58-.58a6.11,6.11,0,0,1,2.91,2.9A.4.4,0,0,1,135.15,7.26Z" style="fill:#a29d9d;fill-rule:evenodd"/><path d="M52.05,118.47l-.49-.45c-.09-.9.77-1.21,1.13-1.84a2.2,2.2,0,0,1,.82-.49c1,.39.8,1,.33,1.69A3,3,0,0,1,52.05,118.47Z" style="fill:#a69f9f;fill-rule:evenodd"/><path d="M151,119.47l.53-.54,2.8.7c.32.12.71.06,1,.32a1.29,1.29,0,0,1,.44.06c-.16,1.15-.84.6-1.41.43a1,1,0,0,1-.44-.1c-.22-.07-.38-.28-.63-.28A4.66,4.66,0,0,1,151,119.47Z" style="fill:#9b7373;fill-rule:evenodd"/><path d="M53.51,56.59a4.11,4.11,0,0,1,0,.45c-.89.32-2.39-.31-2.33,1.49l-.65,0c-1.4-1.18-.89-2,.56-2.45A2.43,2.43,0,0,1,53.51,56.59Z" style="fill:#967f78;fill-rule:evenodd"/><path d="M67.09,85.92c-.2,1.22-1,1.48-2.09,1.35-.77-.09-1.54-.29-2.3-.45a.37.37,0,0,1-.18-.36c0-.14.05-.21.09-.21a1.83,1.83,0,0,1,.6-.32,4.7,4.7,0,0,1,1-.12,21.63,21.63,0,0,0,2.3-.17A.92.92,0,0,1,67.09,85.92Z" style="fill:#a37171;fill-rule:evenodd"/><path d="M53.6,125.66l-.07-.48a4.55,4.55,0,0,1,4.76,0l0,.51A8.32,8.32,0,0,1,53.6,125.66Z" style="fill:#a45757;fill-rule:evenodd"/><path d="M113.52,22.51l-.92.9c-1.24.35-2.12,0-2.43-1.33a3.9,3.9,0,0,1,0-.46C111.36,21.48,112.29,22.55,113.52,22.51Z" style="fill:#ab8f8b;fill-rule:evenodd"/><path d="M166.31,8.08l0-.55a7,7,0,0,1,.92.06c.48.09,1.22-.14,1.21.67,0,.63-.52.88-1.12.92l-.63-.63A.8.8,0,0,1,166.31,8.08Z" style="fill:#8d7c7c;fill-rule:evenodd"/><path d="M67.09,85.92l-.61,0c-.65-1.28.06-2,1.08-2.55a.7.7,0,0,1,.77.57A4.33,4.33,0,0,1,67.09,85.92Z" style="fill:#ada8a8;fill-rule:evenodd"/><path d="M25.2,120.91l2.06,0c-1.52,1-3.23.31-4.83.58-.18-.56-.18-.56.92-.63A1.28,1.28,0,0,1,25.2,120.91Z" style="fill:#738383;fill-rule:evenodd"/><path d="M2.65,121.81l-.07.67a4.53,4.53,0,0,1-2.26-2.56c.15-.27.25-.6.64-.62a1,1,0,0,1,.56.29C2,120.29,2.82,120.8,2.65,121.81Z" style="fill:#9d9d9d;fill-rule:evenodd"/><path d="M185.56,124.86a.9.9,0,0,0,0,.33c-1.83,0-3.69.47-5.47-.36.63-.55,1.4-.2,2.1-.3C183.3,124.7,184.49,124.17,185.56,124.86Z" style="fill:#829797;fill-rule:evenodd"/><path d="M140.49,115.07l-.58.59a3.85,3.85,0,0,1-2.49-.89c.18-.48.68-.21,1-.43A4.08,4.08,0,0,1,140.49,115.07Z" style="fill:#b3a3a3;fill-rule:evenodd"/><path d="M44.39,53.16l-.55.6a1.58,1.58,0,0,1-2.23,0c-.69-.1-1.48.2-2-.52Z" style="fill:#9f6361;fill-rule:evenodd"/><path d="M146.69,5.66c0-.15,0-.3,0-.45,1.16.08,2.36-.14,3.46.45a1.13,1.13,0,0,1-.71.8A2.89,2.89,0,0,1,146.69,5.66Z" style="fill:#a96767;fill-rule:evenodd"/><path d="M152.36,5.79a1.37,1.37,0,0,1,1.48.38.48.48,0,0,1,0,.68,1.78,1.78,0,0,1-2.43-.26C151.24,5.75,152.1,6.13,152.36,5.79Z" style="fill:#b88c8c;fill-rule:evenodd"/><path d="M55.47,46.06c-1.12-.19-2.33.39-3.38-.41l3.28-.16.5.5C55.77,46.17,55.63,46.19,55.47,46.06Z" style="fill:#955957;fill-rule:evenodd"/><path d="M185.56,124.86l-3.46-.17,0-.3c1.32-.07,2.67-.4,3.92.32Z" style="fill:#d88f8f;fill-rule:evenodd"/><path d="M8.43,123.87l1-.12a1.94,1.94,0,0,1,2.82.16.87.87,0,0,0,.05.33,13.39,13.39,0,0,1-3.84,0c-.19-.07-.26-.14-.21-.23S8.37,123.87,8.43,123.87Z" style="fill:#885e5e;fill-rule:evenodd"/><path d="M.76,119.44l-.44.48a3.41,3.41,0,0,1,0-2.83H.71A1.68,1.68,0,0,1,.76,119.44Z" style="fill:#82807c;fill-rule:evenodd"/><path d="M53.51,115.69l-.56.5a1.69,1.69,0,0,1-2.28,0l-.05-.07,1.44-.86A1.83,1.83,0,0,1,53.51,115.69Z" style="fill:#988c8c;fill-rule:evenodd"/><path d="M138.4,114.34c-.24.34-.63.33-1,.43l-1.8-.61,0-.62A11.8,11.8,0,0,1,138.4,114.34Z" style="fill:#9f7272;fill-rule:evenodd"/><path d="M31.45,76.74l-3.92,0c1.26-.72,2.6-.44,3.93-.36.14.09.19.17.14.25S31.5,76.74,31.45,76.74Z" style="fill:#c3706f;fill-rule:evenodd"/><path d="M140.52,15.2l-.16.75-1.88-.13c0-.12,0-.24,0-.37a.72.72,0,0,1,.2-.48,3.49,3.49,0,0,1,.83-.71.86.86,0,0,1,.55,0,1.47,1.47,0,0,1,.42.38A.72.72,0,0,1,140.52,15.2Z" style="fill:#836d6d;fill-rule:evenodd"/><path d="M153.86,6.64q0-.23,0-.47a15.18,15.18,0,0,1,3.29.2c-.41.43-1,.24-1.48.38A1.2,1.2,0,0,1,153.86,6.64Z" style="fill:#a35e5e;fill-rule:evenodd"/><path d="M62.61,86.38a1.72,1.72,0,0,0,.09.44l-3.48,0a.57.57,0,0,1,.27-.7A2.77,2.77,0,0,1,62.61,86.38Z" style="fill:#869391;fill-rule:evenodd"/><path d="M31.45,76.74a3.7,3.7,0,0,1,0-.37l3.31-.21,0,.58a.23.23,0,0,1-.4,0Z" style="fill:#9c5c5a;fill-rule:evenodd"/><path d="M104.88,96.94a2.62,2.62,0,0,1,1.44,1.44l-.52.47A1.78,1.78,0,0,1,104.88,96.94Z" style="fill:#b2c0c0;fill-rule:evenodd"/><path d="M68.33,83.92l-.45-.48c-.12-.92.42-1.32,1.2-1.54l.35.11.41.92A2.75,2.75,0,0,0,68.33,83.92Z" style="fill:#968783;fill-rule:evenodd"/><path d="M188,17.34l-.57-.49a8,8,0,0,1,3.31,0c-.25.37-.68.35-1,.46Z" style="fill:#936767;fill-rule:evenodd"/><path d="M8.43,123.87a.92.92,0,0,0,0,.37c-1.23,0-2.52.44-3.66-.4Z" style="fill:#6e8787;fill-rule:evenodd"/><path d="M152.36,5.79c-.22.38-.63.37-1,.49a1.2,1.2,0,0,1-1.87-.2l.59-.41Z" style="fill:#9d6262;fill-rule:evenodd"/><path d="M127.41,111.93a1.8,1.8,0,0,1-1.07.43l-1.73-.15.51-.51Z" style="fill:#a06262;fill-rule:evenodd"/><path d="M154.32,120.45c.48-.12,1.06.09,1.41-.43a1,1,0,0,1,1.05.36c0,.31-.33.35-.5.52C155.58,120.94,154.87,121.06,154.32,120.45Z" style="fill:#b4a5a5;fill-rule:evenodd"/><path d="M182.12,124.38a1.63,1.63,0,0,1,0,.3l-2,.15-.77-.12a2.29,2.29,0,0,1,0-.4Z" style="fill:#a85a5a;fill-rule:evenodd"/><path d="M67,62.38a1.71,1.71,0,0,1,0,2.37A6.25,6.25,0,0,1,67,62.38Z" style="fill:#888585;fill-rule:evenodd"/><path d="M104.88,11l0-1.49a1.42,1.42,0,0,1,.44,1.49h-.45Z" style="fill:#82736f;fill-rule:evenodd"/><path d="M59.26,86.39a1.92,1.92,0,0,1,0,.4l-.83.1-.54-.41a.82.82,0,0,1,.85-.42A1,1,0,0,1,59.26,86.39Z" style="fill:#916764;fill-rule:evenodd"/><path d="M115.89,95.48a.81.81,0,0,1,0-1.43Q115.89,94.77,115.89,95.48Z" style="fill:#777675;fill-rule:evenodd"/><path d="M116,93.27a1,1,0,0,1,.42-1.14A1.43,1.43,0,0,1,116,93.27Z" style="fill:#777675;fill-rule:evenodd"/><path d="M145.24,117.48l.47-.42a.88.88,0,0,1,.44.06l-.51.47A.74.74,0,0,1,145.24,117.48Z" style="fill:#916767;fill-rule:evenodd"/><path d="M155.29,120a.87.87,0,0,1-1-.32A.85.85,0,0,1,155.29,120Z" style="fill:#b4a5a5;fill-rule:evenodd"/><path d="M156.28,120.89l.5-.52a.7.7,0,0,1,.41.15c0,.14,0,.29,0,.43Z" style="fill:#896666;fill-rule:evenodd"/><path d="M116.41,92.14a.87.87,0,0,1,.53-.95A1.32,1.32,0,0,1,116.41,92.14Z" style="fill:#777675;fill-rule:evenodd"/><path d="M163,122.28c0-.12,0-.25,0-.37l1,0-.11.51Z" style="fill:#955d5d;fill-rule:evenodd"/><path d="M115.44,31.56l.38-.38Z" style="fill:#84736f;fill-rule:evenodd"/><path d="M118.34,89.27l0-.5h.48A.62.62,0,0,1,118.34,89.27Z" style="fill:#777675;fill-rule:evenodd"/><path d="M117.89,89.88a.7.7,0,0,1,.45-.61A.76.76,0,0,1,117.89,89.88Z" style="fill:#777675;fill-rule:evenodd"/><path d="M117.35,90.65l.33-.42Z" style="fill:#777675;fill-rule:evenodd"/><path d="M116.91,91.22l.42-.54A.6.6,0,0,1,116.91,91.22Z" style="fill:#777675;fill-rule:evenodd"/><path d="M59.32,47.09l.38-.57A.61.61,0,0,1,59.32,47.09Z" style="fill:#9d9690;fill-rule:evenodd"/><path d="M58.8,48l.32-.47Z" style="fill:#9d9690;fill-rule:evenodd"/><path d="M172.69,29.38a.35.35,0,0,1,.32.26l-.41.34Z" style="fill:#907979;fill-rule:evenodd"/><path d="M5,104.92l-.29.62Z" style="fill:#928b7e;fill-rule:evenodd"/><path d="M112,109.43l.52.47A.67.67,0,0,1,112,109.43Z" style="fill:#959191;fill-rule:evenodd"/><path d="M153.24,120.07a.58.58,0,0,1,.63.28A.64.64,0,0,1,153.24,120.07Z" style="fill:#b4a5a5;fill-rule:evenodd"/><path d="M115.93,31.06l.33-.33Z" style="fill:#84736f;fill-rule:evenodd"/><path d="M75.6,73.48c-1.65.18-3.31.35-5,.55-2.07.25-2.39.1-2.52-2A69.75,69.75,0,0,1,68,61.47L77.92,64c3,.23,4,1.2,3.92,4.11C81.76,72.43,80,74,75.6,73.48Z" style="fill:#fdfefe;fill-rule:evenodd"/><path d="M110.16,22.08a5.88,5.88,0,0,0,2.43,1.33c1.63,2.2,1.37,3.91-.9,5.27-1.28.76-2.66,1.36-4,2.06a4.4,4.4,0,0,0-1.91,1.33c-.91,0-1-.59-.72-1.28.37-.85.81-1.66,1.22-2.49a10.52,10.52,0,0,0,2.37-5.11C108.78,22.19,109.39,22.07,110.16,22.08Z" style="fill:#ece3d0;fill-rule:evenodd"/><path d="M75.6,73.48c1.16-.29,2.32-.57,3.47-.88,1.89-.52,1.89-.53,2-2.37a2.59,2.59,0,0,1,0-.48c.76-2.92-.13-4.94-3.17-5.77l.1-.58c.39-2.41-1.53-2.1-2.89-2.45-.29-.21-.47-.54-.18-.78a2.09,2.09,0,0,1,2.42-.45c.77.41,1.51.88,2.26,1.33.43.26.89.69.69,1.14-.56,1.28.09,1.85,1.07,2.46,1.34.83.86,2.26.94,3.49.21.43,1.25,0,1,1a1.76,1.76,0,0,0-1,1.5,3.15,3.15,0,0,1-2.88,2.94c-2.51.36-4.15,2.15-5.64,4-.88,1.11-1.7,2.27-2.6,3.36-.44.54-.91,1.13-1.74,1.09l-.22,0a9.92,9.92,0,0,1,5.44-6.66C75.4,74.93,75.08,74,75.6,73.48Z" style="fill:#726a67;fill-rule:evenodd"/><path d="M83.28,69.09l-1-1a31.83,31.83,0,0,1,8.91,1.46A7.64,7.64,0,0,1,96.29,74a55.61,55.61,0,0,1,3.51,9.38.71.71,0,0,1-.34,1c-.75-1.93-1.53-3.79-2.2-5.7a29.39,29.39,0,0,0-1.94-4.11A8.21,8.21,0,0,0,89,70a10.45,10.45,0,0,0-2.81-.46c-.55-.53-1.37,0-1.93-.47Z" style="fill:#665e5d;fill-rule:evenodd"/><path d="M103.44,86.75c1.87.6,1.88.65,1.89,2.36s-.72,3.21-1,4.83c-.36.23-.65.37-.88-.21-.73-1.83-1.52-3.63-2.28-5.45C101.25,86.78,101.25,86.78,103.44,86.75Z" style="fill:#f6f7f7;fill-rule:evenodd"/><path d="M75.13,60.94a3.17,3.17,0,0,1,3.62.63c.75.95,0,1.4-.74,1.82C76.62,63.08,75.35,62.62,75.13,60.94Z" style="fill:#e8f1f1;fill-rule:evenodd"/><path d="M101.43,21a.86.86,0,0,1-.71.83c-.5.05-.62-.37-.61-.79s.2-.8.66-.81S101.47,20.52,101.43,21Z" style="fill:#6b6462;fill-rule:evenodd"/><path d="M84.23,69.1c.67.05,1.42-.23,1.93.47C85.5,69.51,84.75,69.78,84.23,69.1Z" style="fill:#726a67;fill-rule:evenodd"/><path d="M58.77,86.32l-.92.15c-1.33.22-2.22.76-2,2.35a10.94,10.94,0,0,1-.55,3.77,4.69,4.69,0,0,1-2.51,3.32,36.06,36.06,0,0,1-5.57,2.74c-1.57.51-1.56.55-1.54-1.15,0-.11-.17-.22-.26-.33a6.75,6.75,0,0,0-.07,5.56,6.49,6.49,0,0,1,1,2.42c.53,1.39-.47,1.92-1.4,2.48-2.11-1-2.79-3.31-4.24-4.93a30.37,30.37,0,0,1-5.53-8.24c.83,2.71,3.12,4.56,4.16,7.15a1.58,1.58,0,0,1-1,1.31c-3.69,1.64-7.59,2.83-10.16,6.38-1,1.43-1.56,2.19.17,3.38a6.81,6.81,0,0,1,3.14,3.81c.09,1,.27,2-.46,2.9a31.79,31.79,0,0,0-5.84,1.53l-1.84,0a9.59,9.59,0,0,1-4.8-2.77,7.39,7.39,0,0,0-4-1.94,7.52,7.52,0,0,1-6.27-4.53c0-.09-.27-.09-.42-.13.22,2.48,1.73,4.17,4.55,5,.76.23,1.55.37,2.32.56a6.62,6.62,0,0,1,4.28,2.8c-1.29,2.29-3.08,3.24-5.47,2.65-2-.49-3.9-1.22-5.94.12a2.86,2.86,0,0,1-2.76-.28c-1.49-.63-2.44-1.95-3.68-2.9l-.36-.07q0-1.18,0-2.35C2.15,113.73,3.38,110.28,5,107H5a.26.26,0,0,1,.44.1c.05.3,0,.82.17.88.7.28.78-.37.76-.77a29.87,29.87,0,0,1,1-7.41c.7-2,1.37-4.06,2.1-6.07a29.13,29.13,0,0,1,5.62-9.37,20,20,0,0,1,15.06-7.14c1.39,0,2.87.48,4.17-.45a1.62,1.62,0,0,0,.4,0c1,.31,1.6-.56,2.44-.79.42.89-.61,1.64-.13,2.68,1.23-1,1.85-2.17,1.39-3.65a4.29,4.29,0,0,1-.17-2.57c.28-.9.42-1.7-.37-2.41a4.14,4.14,0,0,0-3.2-1.34,6.17,6.17,0,0,0-1.15.31c-3.65,1.08-5.59.42-7.84-2.67-.14-.19-.29-.37-.43-.56-.12-.82-.11-1.57.9-1.85a1.93,1.93,0,0,0,1.55-2.45c-.09-.56.38-.8.81-1,3.87,0,5.56-1,6.74-4.23l6.31-2.42h2.24c.49.71,1.51.21,2,.88,1.26.74,2.33.21,3.38-.48a2.11,2.11,0,0,1,.44.13c.94,1.37,2.79.88,3.89,1.93,0,.13,0,.25-.05.38-.63,0-1.27,0-1.9,0-1.5.09-1.52.15-1.08,1.93A141.23,141.23,0,0,1,54.23,72.3a23.09,23.09,0,0,1,.71,5.86,4.44,4.44,0,0,0,.45,3c.06,1-.23,2,.61,3.12.63-1.2,1.61-.93,2.57-.75l5.05,1a1.09,1.09,0,0,1,.52,1.79h-1A11.13,11.13,0,0,0,58.77,86.32Z" style="fill:#dcc39a;fill-rule:evenodd"/><path d="M29.38,55.2a1.74,1.74,0,0,1-.3-1.58c.17-1.2.61-1.39,1.73-.75s2.34,1.6,3.49,0a2.43,2.43,0,0,1,1.76.36c.92.62.87,1-.25,2l-.32,0c-.86,0-1.68.25-2.53.23a11.48,11.48,0,0,0-2.7-.34A5.71,5.71,0,0,1,29.38,55.2Z" style="fill:#ccba99;fill-rule:evenodd"/><path d="M38.16,53.73c-.07,0-.2-.09-.19-.11s.11-.12.19.11Z" style="fill:#82716e;fill-rule:evenodd"/><path d="M38.16,53.73c.07,0,.2.09.19.11s-.11.12-.19-.11Z" style="fill:#82716e;fill-rule:evenodd"/><path d="M35.82,55.22l-.54.64a.34.34,0,0,1,0-.25.36.36,0,0,1,.32-.51Z" style="fill:#ccba99;fill-rule:evenodd"/><path d="M49.24,54.15c-1.26,1.27-1.7,1.33-3.38.48a4.05,4.05,0,0,0,2.09-.12c-.61-.45-1.44-.74-1.14-1.73l.49-.15a.62.62,0,0,0,.37-.34,1.68,1.68,0,0,0,.18-.41,3.54,3.54,0,0,0,1.56-2.32c.56-2.24,1.84-3.42,4.28-3a1.84,1.84,0,0,0,1.78-.46,1.87,1.87,0,0,0,.4-.07c.55.35.45.74.1,1.18A24.44,24.44,0,0,1,51.38,52,5.81,5.81,0,0,0,49.24,54.15Z" style="fill:#d7c098;fill-rule:evenodd"/><path d="M47.66,52.29a.34.34,0,0,1-.37.35Z" style="fill:#82736f;fill-rule:evenodd"/><path d="M104.88,11c-.44,2.13-.77,2.29-2.52,1.17a12.63,12.63,0,0,0-3.79-1.93c-.67-.16-1.48-.33-1.33-1.34a1.85,1.85,0,0,1,1.51-1.65,4.62,4.62,0,0,1,4.38,1.25c.75.75.92,1.86,1.76,2.51Z" style="fill:#82736f;fill-rule:evenodd"/><path d="M44.78,107.5c.49-.81,1.53-1.25,1.55-2.36.78.4.74,1.39,1.38,1.88l2,9.59c0,2.23,1.24,3.91,2.59,5.5,1,1.22,2.44,1.29,3.93,1.27,1.75,0,1.75,0,2.09,1.78l-4.76,0a10.14,10.14,0,0,1-4.8-3.79c-1.19-2.66-1.87-5.49-2.84-8.23-1.08-1-1-2.54-1.44-3.82A2,2,0,0,1,44.78,107.5Z" style="fill:#fcfcfc;fill-rule:evenodd"/><path d="M4.57,121.87c1.52.4,3,1,4.3-.62.43-.57,1.15-.34,1.77-.14s1.51.45,2.24.73A4.47,4.47,0,0,0,18,120.61a7.87,7.87,0,0,1,.94-.7l4.15,3.77-10.87.23-2.82-.16c-1-.64-2.11-.32-3.17-.41-.85-.08-1.73,0-2.25-.88C3.9,122,4.05,121.75,4.57,121.87Z" style="fill:#fafbf9;fill-rule:evenodd"/><path d="M64.15,86.28a2.8,2.8,0,0,0-.52-1.79l.44-.55,7.23-8.11h0a1.55,1.55,0,0,1,.56-.45,4.4,4.4,0,0,1,1.85-.94c.66-.08,1.07.13,1,.89A31.92,31.92,0,0,0,69.21,82a3.64,3.64,0,0,0-1.33,1.46,3,3,0,0,0-1.4,2.46C65.8,86.61,64.95,86.3,64.15,86.28Z" style="fill:#f7f9f8;fill-rule:evenodd"/><path d="M71.85,75.38a.7.7,0,0,1-.56.45A.69.69,0,0,1,71.85,75.38Z" style="fill:#9f9696;fill-rule:evenodd"/><path d="M53.56,56.21c-.7,0-1.41-.06-2.11-.06-1.26,0-1.91-.55-1.77-1.87C52.86,52.52,55,49.67,57.37,47c.35-.35.7-1.17,1.08,0l-.15.45c-1.59,1.88-1.74,4.39-2.8,6.51C55,54.89,54.68,55.85,53.56,56.21Z" style="fill:#f9fafa;fill-rule:evenodd"/><path d="M58.45,47c-.37-.65-.72-.05-1.08,0,.08-.52-.49-1,0-1.54a1.09,1.09,0,0,1,1.48-.24C59.55,45.9,58.79,46.44,58.45,47Z" style="fill:#9d9690;fill-rule:evenodd"/><path d="M52.23,109.78A4.24,4.24,0,0,1,49.86,111c-.73-.29-.68-1-.66-1.59,0-.85.55-1,1.27-.91C51.47,108.69,52.31,109.28,52.23,109.78Z" style="fill:#d5dbdb;fill-rule:evenodd"/><path d="M50.66,116.15l2.28,0c.17,1.09-.94,1.21-1.38,1.83C50.3,117.86,50.64,116.93,50.66,116.15Z" style="fill:#e5eeee;fill-rule:evenodd"/><path d="M149.51,6.07l1.87.2a3.77,3.77,0,0,0,2.48.36l1.8.1c1.16.74,2.49.25,3.72.51.33,0,.44.13.34.45-.47.64-1,1.24-1.9,1-2.14-.81-4.42,0-6.58-.58-2.53-.52-5.09-.13-7.64-.24-1.79,0-3.59,0-5.38,0a3.11,3.11,0,0,1-2.6-.75c-1.32-.59-2-1.82-2.83-2.88,1-.77,2.12-.36,3.18-.18,3.26.56,6.51,1.16,9.77,1.72a3.76,3.76,0,0,0,.94-.08Z" style="fill:#eef1f1;fill-rule:evenodd"/><path d="M139,15.31l-.48.14c-1.87-.09-2.06.28-1.87-3,.27-.83.6-1.58,1.51-.54S139.69,13.95,139,15.31Z" style="fill:#dfe2e2;fill-rule:evenodd"/><path d="M136.49,9.42c-1,.34-1,.34-.79-1.22,1.83-1.08,3.81-.4,5.72-.44a.92.92,0,0,1,.56.55c-.16.82-.9.87-1.48,1.14a5.73,5.73,0,0,1-1.49.24A6.29,6.29,0,0,1,136.49,9.42Z" style="fill:#dbd7d7;fill-rule:evenodd"/><path d="M139,15.31c.23-1.36-.72-2.23-1.38-3.18-.54-.78-.61.29-1,.37q0-.75,0-1.5c.35-.31.67-.68,1.21-.62,1.21,1.07,2.59,2,2.13,4C139.48,14.58,139.48,15.22,139,15.31Z" style="fill:#a09c9c;fill-rule:evenodd"/><path d="M135.62,7.08l8.11.19a.46.46,0,0,1-.23.67,1.86,1.86,0,0,1-1.22.14c-2.18-.56-4.43.15-6.61-.39l-.51-.43Z" style="fill:#a05555;fill-rule:evenodd"/><path d="M135.67,7.69l7.1,0a.37.37,0,0,1,0,.54.77.77,0,0,1-.9-.11l-6.13,0Z" style="fill:#8cd0d0;fill-rule:evenodd"/><path d="M137.51,10.54a.89.89,0,0,1-.95.45q0-.79-.07-1.57c.77-.56,1.63-.28,2.46-.26a.46.46,0,0,1,0,.58C138.53,10.14,137.92,10.17,137.51,10.54Z" style="fill:#856c6c;fill-rule:evenodd"/><path d="M31,119.38,31,116.15a.55.55,0,0,1,.56-.19,7.09,7.09,0,0,0,1.79.63c1,.3,2,.34,2.93.62a26.28,26.28,0,0,0,5.33,2.33,3.41,3.41,0,0,0,3-.25,2.29,2.29,0,0,1,2.25-.34c.44.68.71,1.35,0,2-.19.12-.36.27-.55.39a.55.55,0,0,0-.39.16,5.52,5.52,0,0,0-1.13.39,3.71,3.71,0,0,1-5-.53c-1.22-1.12-3-.94-4.53-1.36a25.54,25.54,0,0,0-3.3-.48Z" style="fill:#f6f9f8;fill-rule:evenodd"/><path d="M35.61,55.09l-.32.51a3.81,3.81,0,0,1-4.79,1L29.38,55.2l.55-.51.34,0a3.48,3.48,0,0,1,.66.14c.64.24,1.37-.13,2,.32C33.8,54.88,34.68,54.19,35.61,55.09Z" style="fill:#e7eae8;fill-rule:evenodd"/><path d="M5.48,107.11A1.32,1.32,0,0,0,5,107C5.28,106.63,5.41,106.75,5.48,107.11Z" style="fill:#928b7e;fill-rule:evenodd"/><path d="M45.29,113.76c.26.83.46,1.68.78,2.49a2.18,2.18,0,0,1-.41,2.22,4.4,4.4,0,0,1-1.92,1.39,5.1,5.1,0,0,1-1.75,0,19.35,19.35,0,0,1-5.42-2.4c-1-.3-2.05-.34-3-.66a4.46,4.46,0,0,1-1.91-.94c-1.22-1.07-2.33-2.15-.38-3.56,2.15-.36,4.34-.55,6.46-1.09a16.81,16.81,0,0,1,2.23,0,5.67,5.67,0,0,1,1.1.18C42.51,112.07,44.59,111.66,45.29,113.76Z" style="fill:#fdfdfd;fill-rule:evenodd"/><path d="M45.29,113.76c-1.26-1.13-2.94-1.25-4.42-1.87a1.17,1.17,0,0,1,.81-.56c.83-.37,2.27.67,2.51-1.08a1.47,1.47,0,0,1,.79-1,14.19,14.19,0,0,1,.92,3.92Z" style="fill:#908585;fill-rule:evenodd"/><path d="M43.92,119.42a3.4,3.4,0,0,1,1.73-.95c.43.06.88.07,1.15.5a3.21,3.21,0,0,0-1.91.87,3,3,0,0,1-3.55.25.62.62,0,0,1,.56-.34C42.57,119.6,43.33,120,43.92,119.42Z" style="fill:#98a0a0;fill-rule:evenodd"/><path d="M46.25,121.38l.55-.39Z" style="fill:#a19090;fill-rule:evenodd"/><path d="M137.51,10.54c-.16-1.17.8-.87,1.39-1.05,1.29-.31,2.67-.22,3.9-.82a7.48,7.48,0,0,1,2-.24c1.4,0,2.8,0,4.2,0,3-.27,6-.64,8.95.12.64-.07.85-.94,1.57-.86A3.19,3.19,0,0,1,162,7.59c1.46,0,2.81.91,4.31.49l.42.46c-2.74,1.49-5.87,2-8.64,3.38a17.49,17.49,0,0,0-4.8,1.45A49.22,49.22,0,0,0,147.12,15a26.58,26.58,0,0,0-3.42.94,2.59,2.59,0,0,1-3.18-.74.76.76,0,0,0-.19-.34,1.64,1.64,0,0,0-.42-.48h0A9.4,9.4,0,0,0,137.51,10.54Z" style="fill:#fdfdfd;fill-rule:evenodd"/><path d="M162,7.59l-2.44.06a1.6,1.6,0,0,0-.19-.4C160.26,7.27,161.2,6.88,162,7.59Z" style="fill:#759898;fill-rule:evenodd"/><path d="M4.57,121.87l-.57.59-1.36-.65c-.39-.84-1.44-1.25-1.52-2.3.39-.49.67-.13,1,.13Z" style="fill:#e8e1d9;fill-rule:evenodd"/><path d="M58.77,86.32a5.06,5.06,0,0,1,4.43,0l-.59.09H59.26Z" style="fill:#c1806f;fill-rule:evenodd"/><path d="M139.91,14.38a.48.48,0,0,1,.42.48A.54.54,0,0,1,139.91,14.38Z" style="fill:#a09c9c;fill-rule:evenodd"/><path d="M38.28,102.68l.82-1c2.82,1.19,4.11,3.71,5.07,6.31.44,1.19-.87,1.4-1.89,1.33s-1.76-.62-2.68-.77a5.67,5.67,0,0,1-1-.28,16.06,16.06,0,0,1-2.16-1.1C34.19,104.87,34.38,104.4,38.28,102.68Z" style="fill:#fbfbfb;fill-rule:evenodd"/><path d="M38.28,102.68c-.48.38-.95.8-1.46,1.15-1.69,1.15-1.69,1.14-.3,2.71l.31.35a.65.65,0,0,1,0,.65,1.13,1.13,0,0,1-.64.19c-2.94-2-6.34-.91-7.53,2.67-.68,2,1.1,1.51,2.17,1.6.35.07.64.22.62.65-1.08,1.29-1.08,1.29.44,3.05.08.41,0,.64-.49.48a2.09,2.09,0,0,0-.41,0,21.82,21.82,0,0,0-3.73-3.66c-1.39-1.15-1.38-1.55-.16-2.89,1-1.06,1.93-2.12,2.89-3.19a4.75,4.75,0,0,1,1.74-1.24,28.58,28.58,0,0,0,5.79-2.81C37.79,102.16,38.09,102.39,38.28,102.68Z" style="fill:#867b70;fill-rule:evenodd"/><path d="M42.07,108.85c2,0,2.27-.35,1.3-1.84-1.25-1.89-2.27-4-4.27-5.3-1.42-2.21-3.21-4.18-4.26-6.63-.3-.69-.88-1.35-.33-2.16a.81.81,0,0,1,.73.59,43.46,43.46,0,0,0,7.18,10.4,30,30,0,0,1,2.36,3.58l.19,1.74c-.09.42-.12.87-.54,1.12a2.73,2.73,0,0,1-3-.94C41.42,109,41.55,108.69,42.07,108.85Z" style="fill:#8d8278;fill-rule:evenodd"/><path d="M39.22,59.15c.43.08.71.3.69.77s-.34.49-.66.48a.63.63,0,0,1,0-1.25Z" style="fill:#897769;fill-rule:evenodd"/><path d="M32.9,55.16A5.2,5.2,0,0,1,30.5,55a2.12,2.12,0,0,1-.48-.3l-.08-.06C31.06,54,32,54.68,32.9,55.16Z" style="fill:#8f6d6a;fill-rule:evenodd"/><path d="M158,8.52c-3,.23-6,0-8.91.42-1.46-1.2.11-1.13.63-1.5a3.69,3.69,0,0,1,1.75.16l5.42.07C157.48,7.67,158,7.73,158,8.52Z" style="fill:#835c5c;fill-rule:evenodd"/><path d="M151.47,7.59l-2,.11a7.78,7.78,0,0,1-3.37.61c-.86-.07-1.79.09-2.41-.76,0-.09,0-.18,0-.28C146.31,7.23,148.92,6.81,151.47,7.59Z" style="fill:#c97b7b;fill-rule:evenodd"/><path d="M144.69,9l-1.83.12A3.31,3.31,0,0,1,140.27,9c.42-.46,1-.39,1.55-.51a9.86,9.86,0,0,1,2.11-.35,1.43,1.43,0,0,1,.68.23A.42.42,0,0,1,144.69,9Z" style="fill:#9f7373;fill-rule:evenodd"/><path d="M140.27,9l2.59.11a6.28,6.28,0,0,1-4,.35c0-.11,0-.22,0-.33Z" style="fill:#6e9696;fill-rule:evenodd"/><path d="M144.18,8.51l-2.36,0a2.57,2.57,0,0,0,0-.35l1-.07c.41-.32.87-.19,1.33-.15a.34.34,0,0,1,.17.36C144.26,8.44,144.22,8.51,144.18,8.51Z" style="fill:#c3c5c5;fill-rule:evenodd"/><path d="M144.21,8.17,142.8,8.1c0-.12,0-.25,0-.37l1-.19,2.39.15a.41.41,0,0,1-.11.64A1.88,1.88,0,0,1,144.21,8.17Z" style="fill:#7facac;fill-rule:evenodd"/><path d="M42,119.94l-.68.14a14.81,14.81,0,0,1-5.27-2.42c.08-.33.39-.36.63-.48,1.81.65,3.32,2,5.26,2.35.17.06.24.15.2.24S42.07,119.94,42,119.94Z" style="fill:#988484;fill-rule:evenodd"/><path d="M36.71,117.19l-.63.48a9.1,9.1,0,0,1-3.14-.67c-.11-.45,0-.66.51-.49Z" style="fill:#9d6c6c;fill-rule:evenodd"/><path d="M33.45,116.51l-.51.49a1.59,1.59,0,0,1-1.56-.81l.49-.48A3.9,3.9,0,0,1,33.45,116.51Z" style="fill:#ae9494;fill-rule:evenodd"/><path d="M30,54.75l.48.3A.43.43,0,0,1,30,54.75Z" style="fill:#ccba99;fill-rule:evenodd"/><path d="M31.43,112.65l-.51-.38c0-.73.54-.85,1.06-1,1.85.18,3.66-1.06,5.53-.17a.44.44,0,0,1,.12.68A17.6,17.6,0,0,1,31.43,112.65Z" style="fill:#a47877;fill-rule:evenodd"/><path d="M37.63,111.77q0-.23.07-.46c.71-1.18,1.53-1,2.41-.21a.58.58,0,0,1,0,.68Z" style="fill:#697a7a;fill-rule:evenodd"/><path d="M40.09,111.78c0-.15,0-.31-.06-.46.86-.59,1.62-.68,2.15.43l-1.32.15Z" style="fill:#a17777;fill-rule:evenodd"/><path d="M42,119.94c0-.13,0-.27-.06-.4l2-.13C43.46,120.21,42.69,119.88,42,119.94Z" style="fill:#cd8989;fill-rule:evenodd"/><path d="M42.18,111.74c-.62-.63-1.4-.47-2.15-.43a2.31,2.31,0,0,0-2.34,0c-1.93-.39-3.75.89-5.69.38-.61-.68-.05-1.12.45-1.19,1.84-.27,2.81-1.58,3.8-2.91a1.38,1.38,0,0,1,.45,0c.62,0,1.11.38,1.68.52l.56.23a5.35,5.35,0,0,1,2.58,1l2.9,1c.44,1.81.44,1.8-1.09,1.52C43,111.81,42.57,111.79,42.18,111.74Z" style="fill:#f5f5f5;fill-rule:evenodd"/><path d="M146.12,8.12a2.08,2.08,0,0,0,0-.42h3.39c-.19.4-1.1.55-.43,1.24a14.9,14.9,0,0,1-4.39.09,2.58,2.58,0,0,0,0-.38C145.06,8.13,145.78,8.62,146.12,8.12Z" style="fill:#828383;fill-rule:evenodd"/><path d="M41.53,109.39a4.56,4.56,0,0,1-2.93-.9c.18-.41.64-.18.91-.4a4.57,4.57,0,0,1,2.56.76Z" style="fill:#b6a5a5;fill-rule:evenodd"/><path d="M38.22,108.4a1.43,1.43,0,0,1-1.52-.78l.14-.72a4.65,4.65,0,0,1,1.85,1C38.68,108.2,38.37,108.23,38.22,108.4Z" style="fill:#a3a6a6;fill-rule:evenodd"/><path d="M38.22,108.4l.47-.51.83.2c-.22.32-.59.31-.91.4A1.56,1.56,0,0,1,38.22,108.4Z" style="fill:#8d6a6a;fill-rule:evenodd"/><path d="M36.25,107.58a3.08,3.08,0,0,1-3.09,3.25c-.57.06-1.14.06-1.16.85-.4.12-.86.15-1.09.59a6.15,6.15,0,0,1-.86.42c-1.14.36-1.82-.42-2.42-1.15s.3-1.25.67-1.74a25.07,25.07,0,0,1,2.17-2.54C32.84,104.87,34.12,105,36.25,107.58Z" style="fill:#dac39b;fill-rule:evenodd"/><path d="M146.12,8.12c-.31.6-.9.46-1.41.53l-.54-.13a1.22,1.22,0,0,0,0-.33Z" style="fill:#b79e9e;fill-rule:evenodd"/></svg>