<svg xmlns="http://www.w3.org/2000/svg" viewBox="0 0 131.38 248.37"><title>アセット 6</title><path d="M94.69,183.07c3.74-.17,4.06-.06,3.78,3.55a91.39,91.39,0,0,0-.36,13.13c.89,13.32.14,26.65.46,40,.05,2.26-.56,4.42-.55,6.66,0,1.31-1,1.45-2,1.45-3.2,0-6.39,0-9.59,0-6.37.13-12.74.69-19.12.46-1.19,0-2.42.1-3.3-1,.26-.92-.42-1.51-.86-2.12-3.54-4.91-4.33-9.93-1.74-15.68S66,218,69,212.5a4.94,4.94,0,0,1,.82-1.17,54.12,54.12,0,0,1,4.67-5.14,33.7,33.7,0,0,0,8.79-11.81c1.1-2.61,3.27-4.5,5.4-6.33C90.44,186.13,92.86,185,94.69,183.07Z" style="fill:#c3c5d4;fill-rule:evenodd"/><path d="M71.23,109c1.23.45,2.56,1.12,2.95,2.27a5.92,5.92,0,0,1-.09,4.12,7,7,0,0,0-.27,1.14c.7.58,1.42.17,2.11.19.45-.17.59.09.68.46a7.87,7.87,0,0,0-1.2,3,5.91,5.91,0,0,0-.13,2.83c0,1.11-1.33,2.13-.17,3.3a.47.47,0,0,1-.08.58l-.19.07-.2,0a7,7,0,0,0-3.71,1.93,14.61,14.61,0,0,1-7.66,3.56c-1.25,0-2.5,0-3.75,0a27.78,27.78,0,0,1-7.42-2.24c-2.31-1-2.32-1-2.52,1.46a2,2,0,0,1-.25.9.54.54,0,0,1-.68.16,9,9,0,0,1-1.34-5.21c.14-1.38-.6-2.63-1.16-3.86-2.21-4.91-2.12-10.05-1.55-15.24a90,90,0,0,1,3-14.44c.45-1.59.06-3.33,0-5a2.45,2.45,0,0,0,.58-1.38.72.72,0,0,1,.61-.13c.54.29,1.05.74,1.68.21,1-1.51.24-2.45-1-3.21a1.9,1.9,0,0,1-1-1.29,1.47,1.47,0,0,1,.08-.66c1.3-1,2.24,0,3.07.72A3.2,3.2,0,0,0,55.2,84c-1.28.29-2.47.23-3.25-1A3.19,3.19,0,0,1,52,79.59c.48-.91,1.19-1.68,1.73-2.55,1.41-1.7,3-2.81,5.32-1.68.64,2.26.14,4.58.24,6.87A1.93,1.93,0,0,0,61,84.39c1.06.27,1.47.45,1.35-.93-.06-.73.62-1.3,1.4-1.44a1.34,1.34,0,0,1,1.54,1.21A64.49,64.49,0,0,1,67,94c.1,2.2-1.87,2.7-3.59,3.22s-3.61,1.08-3.34,3.56c0,1.47,2.14,1.3,2.11,2.79-.7,1.63-2,1.26-3.28,1-1.5-.29-2.73-1.25-4.12-1.82.07-1.17,1.49-.73,1.84-1.55-.45-2-2.63-3.14-2.46-5.74a3.84,3.84,0,0,0-1.25,4.64c.38,1.25.94,2.48,2.22,2.92,1.94.66,1.65,1.59.6,2.79a2.83,2.83,0,0,0-.8,1.57,3.78,3.78,0,0,1,3.95-2.66,8.79,8.79,0,0,0,2.37,0c2.61-.68,4.79-.59,6.2,2.24.64,1.28,2.57,1.23,3.35,2.54.12,1.82-1.38,2.95-1.93,4.48-3.85-.48-7.81-.28-11-1.4,2.33,1.5,5.7.37,8.74,1.31,1.72.53,3.6.82,2.87,3.38-.24.84.39.95.93,1,.87.16,1.8.33,1.83-1a2.61,2.61,0,0,1,0-1.62c.75-1.73-.48-1.54-1.49-1.58a1.13,1.13,0,0,1-.69-.69c0-.24.07-.55.27-.61,2.33-.65,1.64-1.89.66-3.21A.57.57,0,0,1,71.23,109Z" style="fill:#84736f;fill-rule:evenodd"/><path d="M127.3,17.4c.13-.08.26-.22.41-.25,1.15-.18,2.48-.76,3.34.37s-.23,2.09-.78,3c-.94,1.58-2,3.09-3,4.65a2.75,2.75,0,0,1-2.59,1.39c-2.64,0-5.28,0-7.92,0-11.79,0-23.59-.08-35.38.2a20.59,20.59,0,0,1-2.63-.06c-1.58-.17-2.29-1-1.94-2.6.07-.31,0,.08.05-.23,1.48-6.28.29-6.21,7.45-6.12,4.22.05,8.44.39,12.66,0,9.2-.75,18.39.62,27.59.15a11.61,11.61,0,0,0,2.85-.1C128.35,17.53,127.08,17.65,127.3,17.4Z" style="fill:#84736f;fill-rule:evenodd"/><path d="M21.35,27.1a3.75,3.75,0,0,1-2.1.36c-5.36,0-10.71,0-16.07,0C.84,27.48,0,26.52,0,24.1c0-.72,0-1.44,0-2.16.09-2.7,1.14-3.76,4-4,.89.54,1.94,0,2.86.43,9,.14,18,0,26.95.06,4.43,0,4.63.23,4,4.63-.06.39-.06.79-.13,1.19-.37,2-1.55,2.63-3.58,2.62-10.07-.09-20.13,0-30.2,0,5,0,10.1,0,15.15,0C19.82,26.81,20.65,26.53,21.35,27.1Z" style="fill:#84736f;fill-rule:evenodd"/><path d="M49.11,132.62c0-.63,0-1.26,0-1.9,0-2.09.47-2.34,2.43-1.45,1.22.56,2.42,1.15,3.66,1.65s2.78.46,4,1.23c.16.08.22.17.17.26s-.1.13-.16.13a13.3,13.3,0,0,1-5.51-1.24c-1.1-.44-2.18-.91-3.18-1.32a.74.74,0,0,0-.46.87,10.15,10.15,0,0,0,4.38,7.08,5.55,5.55,0,0,0,3.14,1c4.49,0,6.4,1.6,7.49,6a3.19,3.19,0,0,1-.37,3.64c-.76,1-1.07,2.5-2.55,2.92A9.77,9.77,0,0,1,59.67,148c2.3-.33,2.94-.79,3.16-2.24a4.15,4.15,0,0,0-2.19-3.95,4,4,0,0,0-2.07-.5c-4.8.23-7.63-2.6-9.75-6.41-1-1.9-4.83-16.41-5-18.58a54.49,54.49,0,0,1,1.54-15.88c.4-1.78.83-3.56,1.32-5.33s.9-3.22.21-4.91a1,1,0,0,1,.62-1.34c.53.08.74.25.74.92A31.39,31.39,0,0,1,47,98a59.21,59.21,0,0,0-2.2,18.17,20.18,20.18,0,0,0,2.37,8.43,4.4,4.4,0,0,1,.68,3.56c-.42,1.57.45,3.06,1.26,4.44a22.16,22.16,0,0,1,.8,2.17,3.36,3.36,0,0,0,.53.6,1.06,1.06,0,0,1,.33.63l.23,0-.23,0a1.16,1.16,0,0,0-.4-.62,2.44,2.44,0,0,1-.52-.67A8.93,8.93,0,0,0,49.11,132.62Z" style="fill:#726b69;fill-rule:evenodd"/><path d="M69.39,147c-.09.47-.15.95-.27,1.41a10.64,10.64,0,0,0,.94,8.1c1.12,2.09,2.45,4.1,2.76,6.57s-.05,4.76-1.94,6.6a7.21,7.21,0,0,0-2.22,4.88,20.67,20.67,0,0,0-.38,4c.52,4.12-.41,8-1.34,12-.19.8-.22,1.71-1.33,1.59s-1.15-1-1.2-1.8a6.92,6.92,0,0,1,.46-3.52,6.05,6.05,0,0,0,.3-4c-.27-1.41-.43-2.83-.64-4.25-.08-.58-.25-1.09-.9-1.27-.46.21-.66,0-.75-.45,2.1-1.9,2.37-5.1,4.79-6.78.33-.15.68-.24,1-.36,2.83-2.57,3.34-4.65,2.06-8.32A19.23,19.23,0,0,0,69,158c-2.4-4-2.27-8.15-.45-12.34.37-.33.66-.22.88.18A2.4,2.4,0,0,1,69.39,147Z" style="fill:#878177;fill-rule:evenodd"/><path d="M53.34,160.34a7.92,7.92,0,0,1,3.27-3c.45-.27,1.21-.37,1.08-1.07a1.35,1.35,0,0,0-1.38-1.1l-.47,0c-.15-.56.13-.88.62-1.07a3.62,3.62,0,0,1,3,2.15c.16,2.13-2,1.7-2.83,2.57,1.4-.37,2.69-1.87,4.5-.84.12,1.38-.59,2.78.17,4.14a1.07,1.07,0,0,1-.69.72c-1.54.33-3.14.28-4.62,1-2.82,1.35-4.35,3.37-3.75,6.62a3.68,3.68,0,0,0,.55,1.17c.34,1.17.2,2.09-1.73,2.23,2.24,1.21,2.9,3.56,5.15,4,.94.59,2.52-.32,3,1.29-.8.2-.93.88-1.08,1.53-.27.47.18,1.17-.48,1.51-.33,0-.41-.39-.71-.4a35,35,0,0,1,.77,8c0,.18.36.28.57.39a.92.92,0,0,1,.22.6,1.69,1.69,0,0,1-.17,1c-1.19,1-1.53,1-2.13,0a3.25,3.25,0,0,1-.26-2.55c.79-3.13-.41-6.15-.44-9.23a1,1,0,0,0-.63-.94c-2-.46-2.58-2.49-4.12-3.47a2.39,2.39,0,0,1-.78-3.37,3.74,3.74,0,0,0,.56-2.26A6.79,6.79,0,0,1,52,164.7c1.18-2.69,4.1-2.86,6.72-4.34-1.62-.16-2.43.74-3.43.75A3.64,3.64,0,0,1,53.34,160.34Z" style="fill:#8a7f78;fill-rule:evenodd"/><path d="M56.31,154.23l-.47.89c-2.17.21-2.18.2-3-1.75a3.85,3.85,0,0,1-.45-1.08,13.74,13.74,0,0,1-.08-2.33c-.14-1,.87-1.91.15-2.92a.52.52,0,0,1,.36-.87,1.48,1.48,0,0,1,1.51.46c1,1.53,2.45,1.38,4,1.23a6.59,6.59,0,0,1,1.39.15,4.83,4.83,0,0,1,2.42,3.35c.2,1.76-1.73,1.29-2.32,2.24a1,1,0,0,1-.74.51c-.83.07-1.45-.45-2.17-.71C55.66,152.94,56.43,153.9,56.31,154.23Z" style="fill:#585858;fill-rule:evenodd"/><path d="M59.6,100.93a1.44,1.44,0,0,1,.08-2.14,5.83,5.83,0,0,1,3.55-2.21c2.94-.45,3.39-1.21,3.2-4.11a9.55,9.55,0,0,0-.6-3A4.43,4.43,0,0,1,65.37,86c.32-.92-.34-1.85-.65-2.74-.17-.48-.38-1.15-1.17-.78a1.33,1.33,0,0,0-.65,1.95c.18.25.52.37.72.62s.12.41.22.85c-1.64-.52-3.12-1-4.59-1.46-.46-.15-.54-.58-.52-1,.11-2.7-.38-5.42.36-8.09l.33-.09a.81.81,0,0,1,.54.37,2.63,2.63,0,0,1,.21.65,9,9,0,0,1,0,3h0a6.36,6.36,0,0,0,0,4.25c1,.22,1.34-.62,1.84-1.21,1.7-2,2.71-1.77,3.68.69a9.23,9.23,0,0,1,.59,1.81q.74,4.33,1.39,8.67a7.32,7.32,0,0,1-.49,2.56c-.17.33-.13.72-.31,1.06q0,.37,0,.73a1.23,1.23,0,0,1,.49,1.21c-.21.54-.41,1.12-1.2.92-2.71-2.63-3.6-2.57-5.9.41A1.19,1.19,0,0,1,59.6,100.93Z" style="fill:#706967;fill-rule:evenodd"/><path d="M97.13,17.91c-.63.72-1.48.46-2.25.46-4.55,0-9.1,0-13.65,0-2.41,0-2.4,0-2.91,2.34-.27,1.24-.6,2.46-.89,3.7s-.16,1.52,1.2,1.62c.56,0,1.12,0,1.68,0q16.89,0,33.77,0c.91,0,1.93-.36,2.73.46l-.18.09-.2,0c-3.73.43-7.47.09-11.21.18-5.25.13-10.51-.22-15.76.18a1.38,1.38,0,0,0-.52,1l-.27.19-.33,0a3.71,3.71,0,0,1-.59-.28,5.49,5.49,0,0,0-1.2-.52,9.83,9.83,0,0,0-4.46.16c-1.48.27-3,.14-4.48.31a1.59,1.59,0,0,1-.72-.23l0,0c-.29-.49-1.14-.31-1.24-1a2.52,2.52,0,0,1,0-1.07c.06-.37.15-.73.22-1.09a30.6,30.6,0,0,0,.94-7.09c0-.63,0-1.42.65-1.69.87-.38,1.18.52,1.64,1,2.1,1.17,4.29.71,6.46.32a4.48,4.48,0,0,0,.63-1.45c.17-.31.38-.56.79-.44a.63.63,0,0,1,.07.42c.53.51-.21,1.41.57,1.85l-.11,0c2.48.73,5,.14,7.53.33C95.74,17.75,96.48,17.47,97.13,17.91Z" style="fill:#6d6b6b;fill-rule:evenodd"/><path d="M57.75,230c-2.5.46-4.88.36-7-1.58l1.78,8.19c0,.72.72,1.64-.53,2-.69-1.55-.65-3.26-1-4.89-1.18-5.05-3.73-9.64-4.79-14.72-.29-.63-.3-1.09.59-1.07.43.23.77.66,1.34.54a.86.86,0,0,1,.93-.19A11.76,11.76,0,0,0,52.68,221a3.67,3.67,0,0,0,2.78.07,1.85,1.85,0,0,1,1,.12c.34.24.5.52.25.92-2.45,1.62-4.72,1-6.91-.55-.28-.1-.39-.52-.77-.43a1.51,1.51,0,0,1,.32.23,3.27,3.27,0,0,1,.35.32l.18.19a2.55,2.55,0,0,1,.33.45,1.48,1.48,0,0,1,.12.58,1.09,1.09,0,0,1-.24.54,1,1,0,0,1-.57,0c.08,1.9,1.12,3.15,3.34,4,1,.16,1.52-1,2.49-.94.65.2,1.16.57,1,1.31-.18,1.09.72,1.21,1.33,1.6a.4.4,0,0,1,.12.39C57.82,229.95,57.78,230,57.75,230Z" style="fill:#7c7671;fill-rule:evenodd"/><path d="M57.75,230q0-.23,0-.46c.18-1.38,1.55-1.36,2.36-2a9.22,9.22,0,0,0,3.54-7.65,1.17,1.17,0,0,1-.25-.91c.85-.71,1.76-1.37,1.81-2.64l.22-.22c.5.11,1,.5,1.35-.31.43-1,.92-2,1.44-3a4.57,4.57,0,0,1,1.54-2c.44-.13.64,0,.47.47-2.86,4.54-4.64,9.58-6.65,14.5a54.44,54.44,0,0,0-3.12,8.24,8.93,8.93,0,0,0,.65,6.47C62,242.29,63,244,64,245.73c.31.54.82,1.08,0,1.6a38.16,38.16,0,0,1-4.1-7.21,8,8,0,0,1-.4-6c.5-1.57.92-3.17,1.42-4.91C59.67,229,58.8,229.93,57.75,230Z" style="fill:#827c7d;fill-rule:evenodd"/><path d="M38.62,56.78c-.34-1.06-.75-1.84-2.18-1.55-1,.21-1.74-.61-2.27-1.46-1.83-2.92-.59-6.56,2.76-8.08a3.51,3.51,0,0,1,2.32,0A2,2,0,0,0,41.9,44a4.57,4.57,0,0,0-.51-3,64.9,64.9,0,0,1-3.1-6.72c-.64-1.87-1.44-3.73-1.16-5.79.46-.58.06-1.14,0-1.71a8.35,8.35,0,0,1,.25-2.59c0-.48-.08-1.06.69-1.06,1,1.07.71,2.41.62,3.62C38.23,32.44,41.31,37,43.47,41.9c.31.7,1,.68,1.62.8a.78.78,0,0,1,.42.52c0,1-.68,1.38-1.36,1.8A5.74,5.74,0,0,0,42,47.17c-.64,1.19-1.49,1.32-2.53.49a2.19,2.19,0,0,0-3,0,3.82,3.82,0,0,0-1.44,4,2.13,2.13,0,0,0,2.34,1.9c1.21,0,1.84.81,2.26,1.83a7.13,7.13,0,0,1,.34,1,2.19,2.19,0,0,1-.21,1.75.44.44,0,0,1-.64.05.49.49,0,0,1-.08-.37C38.79,57.51,38.85,57.1,38.62,56.78Z" style="fill:#827e81;fill-rule:evenodd"/><path d="M44.71,212.29a.76.76,0,0,1,.1.44c.24.54.42,1-.5,1-1.73-3.19-4.33-5.93-4.88-9.72a3.13,3.13,0,0,0-1.69-2.22c-1-.55-1.93-1.12-2.92-1.63a5.54,5.54,0,0,1-2-1.65,75,75,0,0,0-5.23-6.22c-1.54-1.7-1.82-2.44-1.89-4.14.37-.18.61,0,.75.32,1.88,3.49,4.86,6.1,7.24,9.19a8.34,8.34,0,0,0,3.1,2.2c2.36,1.16,4.06,2.8,4.13,5.65,0,1.76,1.51,2.74,2.31,4.08.4.67,1.11,1.15,1.19,2A1.06,1.06,0,0,0,44.71,212.29Z" style="fill:#867e80;fill-rule:evenodd"/><path d="M71.23,109l0,.56a.3.3,0,0,1-.45,0c-.78-.39-1.54-.83-2.34-1.17a4.34,4.34,0,0,1-2.4-2.51,1.53,1.53,0,0,0-2.1-1c-1.48.56-3,.32-4.48.34-2.83.05-3.34.43-4.11,3.22a.81.81,0,0,1-.73.72,3.58,3.58,0,0,1,.8-3.78c1.2-1.21,1.12-1.53-.43-2.09A3.27,3.27,0,0,1,52.46,100a.69.69,0,0,1,.6-.1,4.9,4.9,0,0,1,1.78,2.58c1.38.51,2.79,1,4.15,1.53a2.4,2.4,0,0,0,3.14-.69,3.47,3.47,0,0,1,3.1-.71c.57.23.3.89.63,1.24a5,5,0,0,1,.89,1.11,6.23,6.23,0,0,0,3.36,3.21A6.54,6.54,0,0,1,71.23,109Z" style="fill:#6b6261;fill-rule:evenodd"/><path d="M45.74,166.65c-3.21,0-4.46-1.37-3.84-4.4a9.42,9.42,0,0,1,4.44-6.52c1.82-1.09,3.32-.6,4.25,1.4s.33,3.92-1.47,4.62a2.09,2.09,0,0,1-2.21-.42c-1.25-1-1.53-.89-2.29.38-1.06,1.77-.92,2.19,1.22,3.49C45.32,165.65,46.42,166.21,45.74,166.65Z" style="fill:#8c8278;fill-rule:evenodd"/><path d="M74.61,35.65a23.87,23.87,0,0,1-1.26,13.83,38.12,38.12,0,0,1-4.44,7.92,37.44,37.44,0,0,0-5,9c-.49.05-.67-.27-.81-.65a6.35,6.35,0,0,1,1.18-4c1.37-2.43,2.94-4.73,4.52-7,3.15-4.6,5-9.55,4.64-15.23a6,6,0,0,1,.46-3.73A.49.49,0,0,1,74.61,35.65Z" style="fill:#87888a;fill-rule:evenodd"/><path d="M70.23,211.33l-.47-.47c2.28-3.21,5.19-5.84,7.9-8.66a17.38,17.38,0,0,0,3.67-5.26,21.12,21.12,0,0,1,7.07-9.16c.5-.17.61.07.55.51a19.7,19.7,0,0,0-5.87,7.45,27.73,27.73,0,0,1-6.52,9.07C74.38,206.91,72.33,209.15,70.23,211.33Z" style="fill:#898185;fill-rule:evenodd"/><path d="M88.46,28h.47a3.71,3.71,0,0,1-.3,4.26c-1,1.37-2,2.71-3,4.07a7.41,7.41,0,0,1-3.73,2.47,3,3,0,0,1-4.31-3c.45-2.58-.33-4.89-.73-7.3a6.51,6.51,0,0,1,0-1l.56-.06a8.51,8.51,0,0,1,1.8,6.67c-.12,1.18-.18,2.28,1,2.91s2.16,0,3-.77A16.17,16.17,0,0,0,88.46,28Z" style="fill:#88878a;fill-rule:evenodd"/><path d="M97.13,17.91l-1.94,0c-.16-.1-.21-.2-.15-.29s.11-.14.16-.14a115.31,115.31,0,0,1,19.2,0,73.22,73.22,0,0,0,12,0l.9-.06h2.35a9.49,9.49,0,0,1-4.62,1c-4.86,0-9.74.23-14.58-.09C106,18,101.57,17.91,97.13,17.91Z" style="fill:#7d6564;fill-rule:evenodd"/><path d="M38,23.16a1.2,1.2,0,0,0-.44,1c-.16.22-.31.2-.46,0a12,12,0,0,1,.21-2.36c.6-2.49.25-2.9-2.42-2.91H7.67a1.49,1.49,0,0,1-1.29-.47c2.25-.56,4.54-.1,6.8-.25q11.06,0,22.11,0a4.89,4.89,0,0,0,2.34-.2l.92-.52c.5-.11.71.21.87.59C39.42,19.85,39.4,21.7,38,23.16Z" style="fill:#6e6d6a;fill-rule:evenodd"/><path d="M69.31,146.12l-.47-.54c-.79-.71,0-1.69-.52-2.66a11.61,11.61,0,0,0-1.6,8.2c.23,1.35.82,2.9-1.06,3.69a.67.67,0,0,1-.48-.41,36.31,36.31,0,0,0-1.08-5.79,6.93,6.93,0,0,0,1-3.72.74.74,0,0,0,.88-.57c.29-.82.62-1.63,1-2.42.63-1.41,1.3-1.86,2.27-1.55a2.24,2.24,0,0,1,1.17,3,10.12,10.12,0,0,0-.71,2.74Z" style="fill:#8d857c;fill-rule:evenodd"/><path d="M39.12,18l-.58-.56A30.39,30.39,0,0,1,46.46,4.76a14.23,14.23,0,0,1,7.46-4c.35.11.65.27.55.73a1.31,1.31,0,0,1-.7.62c-6.18,2-9.56,6.76-12.33,12.21C40.79,15.57,40.63,17.22,39.12,18Z" style="fill:#908487;fill-rule:evenodd"/><path d="M37.1,24.14l.46,0,0,2.85a.49.49,0,0,1-.48.24l-.57-.14H3.18l0-.55H33.49C36.14,26.53,36.14,26.53,37.1,24.14Z" style="fill:#6d6161;fill-rule:evenodd"/><path d="M49,218.56l-.9,0c.46-2.25,1.32-4.08,4-4.46.53-.08.94-.82,1.46-1.17,1.77-1.2,3.35-.9,4.66.85l-.22.2a1.17,1.17,0,0,1-.87,0c-.27-.13-.52-.28-.79-.39a1.71,1.71,0,0,0-1.42.18c-1.13.87,0,1.38.33,2,1.14,1.91,1.76,3.83.12,5.79a2.55,2.55,0,0,1-2.92,0c.45-1.44,2.85-2.29,1.32-4.32l-.43-.47c-1.4-1.32-2.48-.82-3.39.6C49.67,217.72,49.57,218.3,49,218.56Z" style="fill:#9e9292;fill-rule:evenodd"/><path d="M54,77.31a2.87,2.87,0,0,1-1,1.84A3.71,3.71,0,0,0,52,81.05a2,2,0,0,0,2.53,2.47c.84-.18,1.62-.58,2.5,0-2.64,1.94-3.67,1.91-6,0-.68-.57-1.29-1.51-2.43-.84-.61.42-1,.42-1-.47.4-1.39,1.35-1,2.2-.62s1.13,0,1.27-.75c.23-.34.32-.66-.15-.87v0c-.24-.46,0-.82.24-1.18a9.46,9.46,0,0,0,1.6-2.25.8.8,0,0,1,.58-.2A.87.87,0,0,1,54,77.31Z" style="fill:#6d6362;fill-rule:evenodd"/><path d="M45.74,166.65c-.07-.22-.06-.52-.21-.65-.64-.58-.24-.7.31-.8a15.39,15.39,0,0,0,6.07-3.33,1.33,1.33,0,0,0,.54-.48h0a1.12,1.12,0,0,0,.47-.52l0,0a.73.73,0,0,0,.47-.54l0,0c.7-.21,1.29-.15,1.58.64l-.08.22a1.59,1.59,0,0,1-.28.37l-.16.17c-.1.12-.21.22-.32.33l-.16.17-.3.34-.14.18-.26.38a1.42,1.42,0,0,1-.49.49l-.59.37c-.18.13-.46.1-.58.33l-.42,0a1.08,1.08,0,0,0-.59.42,6.44,6.44,0,0,1-3.34,1.48c-.28.23-.68.14-1,.36Z" style="fill:#7a716e;fill-rule:evenodd"/><path d="M68.41,2c2.73.81,5.49,1.54,8.17,2.46a17.39,17.39,0,0,1,7.55,4.39.37.37,0,0,1-.16.6c-1,.26-1.65-.38-2.37-.83a27.77,27.77,0,0,0-9.79-4.06c-1.52-.28-3.14-.57-4.11-2C67.75,2.08,67.9,1.78,68.41,2Z" style="fill:#9c8083;fill-rule:evenodd"/><path d="M52,238.68c.71-.54.3-1.38.53-2a17.29,17.29,0,0,1,.8,6.31c-.16,2.5-2.06,3.71-3.73,5.09-.72-.71-.31-1.14,0-1.39,2.52-1.86,2.73-4.46,2.42-7.25C52,239.15,52,238.91,52,238.68Z" style="fill:#918e8f;fill-rule:evenodd"/><path d="M51.52,78.88l-.59,1c-3.39.91-5.6-.17-6.71-3.41a10.57,10.57,0,0,1-.37-6.77c.46-.1.68.19.86.54.42,1.45.16,3,.53,4.43.73,2.94,1.88,3.87,5,3.84A1.62,1.62,0,0,1,51.52,78.88Z" style="fill:#888385;fill-rule:evenodd"/><path d="M89.45,26.95A1.85,1.85,0,0,1,91,26.54l25.41,0a2.86,2.86,0,0,1-1.63.25Z" style="fill:#747374;fill-rule:evenodd"/><path d="M63.49,65.85l.45.52q0,.71,0,1.42c-.48,1.11.05,2.31-.33,3.43,0,2.76-.37,5.39-2.5,7.42-.28.27-.61.49-.92.73a5,5,0,0,1-.45-3.45c.88.19.81.76.53,1.49,1.85-2.7,1.88-5.75,2.14-8.76C62.5,67.65,61.95,66.32,63.49,65.85Z" style="fill:#898a8d;fill-rule:evenodd"/><path d="M37.62,17.94c-.57.62-1.33.44-2,.44H13.13c-.16-.08-.22-.17-.17-.26S13,18,13.1,18C21.27,17.75,29.45,17.77,37.62,17.94Z" style="fill:#965454;fill-rule:evenodd"/><path d="M52.41,163.34l.54-.53a1.3,1.3,0,0,0,.42-.44l0,0a1.44,1.44,0,0,0,.45-.43l0,0a5.71,5.71,0,0,0,.5-.43h0a2.48,2.48,0,0,1,.52-.46h0c.76-.42,1.51-.87,2.28-1.26s1.46-.89,1.91.32-.2,1.39-1.12,1.54a12.09,12.09,0,0,0-6,3.12l-.37-.37.42-.61A1,1,0,0,0,52.41,163.34Z" style="fill:#f5f7f7;fill-rule:evenodd"/><path d="M76.43,117.13l-.5-.4a5.55,5.55,0,0,1,.61-.71c2.41-2,3.92-1.53,4.55,1.61.32,1.64.75,3.43-.81,4.82a.8.8,0,0,1-.67-.68,5.94,5.94,0,0,1,0-.94C79.9,117.08,79.75,116.92,76.43,117.13Z" style="fill:#9a928d;fill-rule:evenodd"/><path d="M26.06,218.91a.73.73,0,0,1-.88-.12c-1.4-1.75-2.77-3.5-4.15-5.27a.66.66,0,0,1,0-.88c.36-.43.76-.19,1,.11a43.24,43.24,0,0,1,4.07,5.31C26.39,218.35,26.33,218.63,26.06,218.91Z" style="fill:#868286;fill-rule:evenodd"/><path d="M67.24,98.93l-.26-1a2,2,0,0,0,1.34-1.73c.09-.52,0-1.1.45-1.51a.79.79,0,0,0,1,.06c1.52,2.79,1.25,4.7-1,7.09a.76.76,0,0,1-.63-.69c0-1,.81-1.79.92-2.84-.45.27-.71.75-1.22.85A.6.6,0,0,1,67.24,98.93Z" style="fill:#9e9b9b;fill-rule:evenodd"/><path d="M63.5,132.15c3-1,5.93-2.16,8.23-4.51a3.36,3.36,0,0,1,2.9-.75,16.94,16.94,0,0,0-2.95,1.92A18.86,18.86,0,0,1,66,132.18a4.3,4.3,0,0,1-2.53.37c-.14-.09-.19-.18-.14-.27S63.45,132.15,63.5,132.15Z" style="fill:#747675;fill-rule:evenodd"/><path d="M79.73,122l.55.45c-.31.24-.85.55-.59.89.93,1.25,0,1.77-.83,2.23A10.11,10.11,0,0,1,75,126.84c0-.15,0-.31,0-.46.92-1.36,2.8-2,2.93-4C78,121.74,79,121.47,79.73,122Z" style="fill:#988a87;fill-rule:evenodd"/><path d="M52.46,147c1,.85.34,1.94.42,2.92a1.12,1.12,0,0,1-.42.21c-.58.17-1.42-.37-1.74.38s.62,1,.87,1.57a.65.65,0,0,1-.06.62,2.16,2.16,0,1,1-.37-4.24C52.39,148.49,52.71,148.14,52.46,147Z" style="fill:#8c837d;fill-rule:evenodd"/><path d="M39,58.22h.56c.73,0,.92.52,1.14,1-.52,2,.47,3.48,1.41,5a.87.87,0,0,1-.22.6c-2.55-.94-3.16-1.84-3-4.31C39,59.79,39,59,39,58.22Z" style="fill:#989597;fill-rule:evenodd"/><path d="M62.06,214.77c1.4-.2,2.7-.17,3.37,1.39l0,0c-1.52,0-2.29,1.68-3.8,1.73a1.72,1.72,0,0,1-1.41-1.93C60.35,214.76,61.4,215.06,62.06,214.77Z" style="fill:#abaa9a;fill-rule:evenodd"/><path d="M88.95,188.29l-.55-.51a19.84,19.84,0,0,1,6.3-4.71,1.52,1.52,0,0,1-.92,1.51A43.9,43.9,0,0,0,88.95,188.29Z" style="fill:#988a8e;fill-rule:evenodd"/><path d="M75.87,26.44c.2.51.92.55,1,1.14-1.4-.08-1.27,1.33-1.9,2a3.63,3.63,0,0,0-.86,2.56c.13.62.49,1.29-.38,1.69C71.87,31.37,72.78,28.19,75.87,26.44Z" style="fill:#888b8d;fill-rule:evenodd"/><path d="M54.42,1.12l-.5-.39a19.49,19.49,0,0,1,10.51,0c0,.54-.35.7-.75.85C60.61,1.09,57.47,2,54.42,1.12Z" style="fill:#9d6365;fill-rule:evenodd"/><path d="M62.06,214.77c0,.26.43.66,0,.75-1.76.38-1.77.38-.64,1.8l.15.18a1.35,1.35,0,0,1-1.22.59,2.21,2.21,0,0,1-1-.22,1.43,1.43,0,0,1-.46-.48,8.11,8.11,0,0,1-.46-1.24,1.9,1.9,0,0,1,0-1c.14-.31.32-.57.73-.41l.1-.08c1,.49.47-.85,1-.86C61,213.85,61.46,214.45,62.06,214.77Z" style="fill:#89807b;fill-rule:evenodd"/><path d="M84.13,9.33c0-.16,0-.32,0-.48,2.44,1.38,2.64,3.79,2.84,6.2l-.46.48A10,10,0,0,1,84.13,9.33Z" style="fill:#91898d;fill-rule:evenodd"/><path d="M44.31,213.74a1.13,1.13,0,0,0,.5-1,26.59,26.59,0,0,1,2,5.26c-.47.2-.53.64-.59,1.07A14.18,14.18,0,0,1,44.31,213.74Z" style="fill:#908d8f;fill-rule:evenodd"/><path d="M57.76,182c0-.48-.1-1,.33-1.37.21,3.34,1.09,6.65.55,10-.12.22-.25.22-.4,0v-.5C57.42,187.53,56.78,184.83,57.76,182Z" style="fill:#84817b;fill-rule:evenodd"/><path d="M126.4,17.46c-1.77.61-10.15.62-12,0C118.4,17.28,122.4,17.28,126.4,17.46Z" style="fill:#975554;fill-rule:evenodd"/><path d="M59.17,179.13c-.41-.53-1-.39-1.55-.42s-1.3.13-1.81-.41c2.29-1.11,4.83-.92,7.23-1.45l.59.5A9.88,9.88,0,0,1,59.17,179.13Z" style="fill:#9a8d89;fill-rule:evenodd"/><path d="M47.6,82.15a.93.93,0,0,0,1,.47,3,3,0,0,1,0,.41c-.2,1.49.79,3-.07,4.48h-.47C47.13,85.8,46.66,84,47.6,82.15Z" style="fill:#94908b;fill-rule:evenodd"/><path d="M26.57,218.07c.08-.6.31-1.28,1-.82A3.65,3.65,0,0,1,29,219.87a.42.42,0,0,1-.39.5.84.84,0,0,1-.63-.2c-.52-.69-1-1.41-1.48-2.12Z" style="fill:#8f8c8f;fill-rule:evenodd"/><path d="M44.35,70.29l-.5-.54A26.11,26.11,0,0,0,44.25,66c.29-.53.62-1,1.25-.39C46,67.37,46.37,69.12,44.35,70.29Z" style="fill:#8b8d91;fill-rule:evenodd"/><path d="M64,1.14l.47-.43a6.58,6.58,0,0,1,4,1.28l-.57.5C66.28,2.8,64.8,2.87,64,1.14Z" style="fill:#a68e92;fill-rule:evenodd"/><path d="M68.3,101.41l.46.41a3.55,3.55,0,0,1-1.81,1c-.56.18-1,.41-1.08,1-.43-.25-.43-.67-.44-1.08-.13-.82.4-1.22,1-1.59a2.23,2.23,0,0,1,1-.18A1.34,1.34,0,0,1,68.3,101.41Z" style="fill:#8f8887;fill-rule:evenodd"/><path d="M95.2,17.47c0,.14,0,.29,0,.43h-6c-.62,0-1.3.12-1.7-.56Z" style="fill:#915454;fill-rule:evenodd"/><path d="M45.38,65.48,44.25,66l0,0a.92.92,0,0,0-.58-.49,3.18,3.18,0,0,1-1.76-.58l0-.54c.87-.62,1.75,0,2.63-.06.45,0,.9-.05,1.35,0a.73.73,0,0,1,.52.41C46.45,65.41,46.19,65.8,45.38,65.48Z" style="fill:#967272;fill-rule:evenodd"/><path d="M73.63,33.73c.57-.4.4-1,.51-1.58.71,1.09.43,2.31.47,3.5H74C72.83,35.24,73.09,34.52,73.63,33.73Z" style="fill:#949397;fill-rule:evenodd"/><path d="M60.23,83.61a3.62,3.62,0,0,1,0-4.25A13.86,13.86,0,0,0,60.23,83.61Z" style="fill:#898a8d;fill-rule:evenodd"/><path d="M63.5,132.15c0,.13,0,.26,0,.4a11.52,11.52,0,0,1-4.29,0c0-.13,0-.26,0-.39Z" style="fill:#665858;fill-rule:evenodd"/><path d="M63.61,71.22c0-1.15-.5-2.35.33-3.43C63.85,68.94,64.29,70.13,63.61,71.22Z" style="fill:#c3c5d4;fill-rule:evenodd"/><path d="M69.75,94.72c-.06.44-.07,1.06-.61,1s-.26-.71-.38-1.08C69.13,94.12,69.45,94.28,69.75,94.72Z" style="fill:#a79393;fill-rule:evenodd"/><path d="M60.27,213.81c-.07.39-.13.78-.2,1.17s-.22.64-.59.51-.28-.51-.26-.82C59.66,214.49,59.71,213.84,60.27,213.81Z" style="fill:#e0dcdb;fill-rule:evenodd"/><path d="M51.53,152.74a3.18,3.18,0,0,1,0-.4,1,1,0,0,1,1.38-.11q0,.57-.05,1.14Z" style="fill:#88605e;fill-rule:evenodd"/><path d="M39.24,45.69H36.92A1.62,1.62,0,0,1,39.24,45.69Z" style="fill:#c47171;fill-rule:evenodd"/><path d="M87.62,17.32c-1-.38-.56-1.17-.57-1.85C87.62,16,87.42,16.7,87.62,17.32Z" style="fill:#91898d;fill-rule:evenodd"/><path d="M59.12,214.75l-.5.52c-.93-.32-.81-.9-.38-1.55l0,0A1,1,0,0,1,59.12,214.75Z" style="fill:#a69b98;fill-rule:evenodd"/><path d="M37.11,27l.43,0c0,.52.13,1.07-.41,1.44l-.07-.86A.41.41,0,0,1,37.11,27Z" style="fill:#6e6d6a;fill-rule:evenodd"/><path d="M50.92,79.91c.7.18.55.5.15.87Z" style="fill:#888385;fill-rule:evenodd"/><path d="M66.94,97.17a.92.92,0,0,1,.31-1.06A1,1,0,0,1,66.94,97.17Z" style="fill:#9e9b9b;fill-rule:evenodd"/><path d="M69.31,146.12a.89.89,0,0,1,.32-.06.8.8,0,0,1-.24.93C69.37,146.71,69.34,146.41,69.31,146.12Z" style="fill:#dbc39a;fill-rule:evenodd"/><path d="M26.06,218.91c0-.28,0-.56,0-.84h.5l0,0C26.43,218.36,26.49,218.77,26.06,218.91Z" style="fill:#8f8c8f;fill-rule:evenodd"/><path d="M58.24,190.73l.4,0a.84.84,0,0,1-.35,1Z" style="fill:#b9a98c;fill-rule:evenodd"/><path d="M46.26,166.62a.9.9,0,0,1,1-.36A.91.91,0,0,1,46.26,166.62Z" style="fill:#8c8278;fill-rule:evenodd"/><path d="M38.62,56.78A.93.93,0,0,1,39,57.85,1.06,1.06,0,0,1,38.62,56.78Z" style="fill:#989597;fill-rule:evenodd"/><path d="M43.7,65.46a.6.6,0,0,1,.58.49Z" style="fill:#8b8d91;fill-rule:evenodd"/><path d="M37.11,27l0,.56-.57-.47Z" style="fill:#827e81;fill-rule:evenodd"/><path d="M50.57,164.79a.67.67,0,0,1,.59-.42A.67.67,0,0,1,50.57,164.79Z" style="fill:#8a7f78;fill-rule:evenodd"/><path d="M52.45,161.39a.67.67,0,0,1-.54.48A.73.73,0,0,1,52.45,161.39Z" style="fill:#8a7f78;fill-rule:evenodd"/><path d="M52.91,160.88a.63.63,0,0,1-.47.52A.62.62,0,0,1,52.91,160.88Z" style="fill:#8a7f78;fill-rule:evenodd"/><path d="M53.36,160.37a.58.58,0,0,1-.47.54A.59.59,0,0,1,53.36,160.37Z" style="fill:#8a7f78;fill-rule:evenodd"/><path d="M44.71,212.29a.72.72,0,0,1-.31-.68A.76.76,0,0,1,44.71,212.29Z" style="fill:#908d8f;fill-rule:evenodd"/><path d="M86.88,194.43c.48,1.26-.17,2.3-.35,3.37a44.54,44.54,0,0,0,.15,14.06,6.76,6.76,0,0,1-.68,4.39,50.67,50.67,0,0,1-5.15,7.5.8.8,0,0,1-.93.35c-.08-.84.54-1.39,1-2,1.31-1.91,2.62-3.82,3.91-5.74a5.91,5.91,0,0,0,.92-4.53A39.24,39.24,0,0,1,86,195.64C86.14,195.19,86.09,194.66,86.88,194.43Z" style="fill:#7f7e84;fill-rule:evenodd"/><path d="M72,234a6.46,6.46,0,0,1,3.29-4.24A7.5,7.5,0,0,1,72,234Z" style="fill:#868086;fill-rule:evenodd"/><path d="M79.73,122c-1,.18-2.24.22-1.45,1.86.33.68-.14,1-.68,1.27L75,126.38c-.87,0-1.57,0-1.11-1.31.27-.76.81-1.33,1-2.08-.24-.95.15-1.89,0-2.83-.24-1.34,0-2.45,1.42-3a3.17,3.17,0,0,0,1.18-.74c1.29-.89,1.92-.73,2.37.82A6,6,0,0,1,79.73,122Z" style="fill:#ebe2d0;fill-rule:evenodd"/><path d="M66.38,101.41l-1,1.33c-1.1.16-2.13.72-3.29.56-1.05-.57-2.7-.5-2.54-2.37a2.65,2.65,0,0,0,.33-.63A3.16,3.16,0,0,1,63,97.56c1.79-.15,2.78.84,3.41,2.36A1.08,1.08,0,0,1,66.38,101.41Z" style="fill:#e6ddcc;fill-rule:evenodd"/><path d="M72.51,117.19c.79.4,1.23.83.19,1.48-1.6,1-3,.07-4.43-.27-.22-.7.37-.72.56-1,.77-1.25.53-2-.87-2.54a13.77,13.77,0,0,0-5.83-.93,9.59,9.59,0,0,1-5.43-1.5c-.46-.25-1-.5-1-1.18.53-.37.9,0,1.28.26a8.48,8.48,0,0,0,5.18,1.43,23.64,23.64,0,0,1,6.54,1,3,3,0,0,1,1.4-.56l.63.59C71.3,115.05,70.26,117,72.51,117.19Z" style="fill:#696160;fill-rule:evenodd"/><path d="M54,77.31l-.51-.85a3.57,3.57,0,0,1-1-2.35c-.13-1.8.46-2.28,2.22-1.81a4.3,4.3,0,0,0,2.06.34c2.12-.39,2.8.47,2.41,2.78h0C57,75,55.44,76.05,54,77.31Z" style="fill:#ddd6c5;fill-rule:evenodd"/><path d="M54.85,102.46A4.61,4.61,0,0,1,52.92,100a2.59,2.59,0,0,1-.36-.62,6.36,6.36,0,0,1-.07-1.44c.17-.75.11-1.75,1.17-1.78.79,0,.91.86,1,1.43.27,1.72,2.41,2.12,2.61,3.84C57,103,55.73,102.27,54.85,102.46Z" style="fill:#ebeeee;fill-rule:evenodd"/><path d="M70.12,113.37c-.38.41-.63,1.13-1.4.56a2.33,2.33,0,0,1,.65-2.15,8.81,8.81,0,0,0,1.37-2.17,1.83,1.83,0,0,0,.45,0c.8.63,2,1.19,1.87,2.28-.19,1.28-1.64.94-2.58,1.23C70.34,113.11,70.24,113.27,70.12,113.37Z" style="fill:#e0dac8;fill-rule:evenodd"/><path d="M57.27,101.42a16.87,16.87,0,0,1-2.18-2.18,17.85,17.85,0,0,1-1.35-2.89c-.76.36-.66,1.12-.86,1.72a1.31,1.31,0,0,0,0,1.41l0,.49h-.46c-1-1.67-.3-3.17.56-4.56.55-.88,1.69-.7,1.71.24.06,2,1.21,3.33,2.54,4.6C57.67,100.62,57.81,101,57.27,101.42Z" style="fill:#726c6b;fill-rule:evenodd"/><path d="M72.51,117.19c-2.42.67-2.79.31-2.16-2.12.1-.38.26-.74.4-1.12a8.17,8.17,0,0,1,1.28-.52,1.19,1.19,0,0,1,1.29.3.91.91,0,0,1-.2,1.25C72.52,115.63,72.68,116.45,72.51,117.19Z" style="fill:#dbd4c3;fill-rule:evenodd"/><path d="M48.59,87.51c-.11-1.49-1.15-3,.07-4.48l.92,1.1c1.24,1,1.91,2.24,1,3.84C49.42,89.17,49.42,89.17,48.59,87.51Z" style="fill:#dfd7c6;fill-rule:evenodd"/><path d="M50.56,88a7.16,7.16,0,0,0-1-3.84c.12-.09.29-.3.34-.27a2.88,2.88,0,0,1,1.07,4C50.92,88,50.71,87.94,50.56,88Z" style="fill:#716c68;fill-rule:evenodd"/><path d="M65,116.71c-.5-.1-.71-.57-.75-1.13a.39.39,0,0,1,.44-.43c.63.12.76.68.87,1.2C65.63,116.62,65.42,116.74,65,116.71Z" style="fill:#6f6563;fill-rule:evenodd"/><path d="M75,120.16A2.75,2.75,0,0,1,75,123,2.25,2.25,0,0,1,75,120.16Z" style="fill:#645e5d;fill-rule:evenodd"/><path d="M64.1,148.62c.08,0,.21,0,.23,0,.83,1.74,1.59,3.49,1.08,5.49-1.16,1.11-2.54.69-3.88.58a3,3,0,0,1-1.91-1.36c-.32-.59.19-.55.5-.67.76-.29,1.61-.44,2-1.33Z" style="fill:#f3f6f6;fill-rule:evenodd"/><path d="M50.07,135a2.78,2.78,0,0,1-1-2.4h0a2.78,2.78,0,0,1,1,2.4Z" style="fill:#84736f;fill-rule:evenodd"/><path d="M51,136.46a1,1,0,0,1-.48-1h0a1,1,0,0,1,.48,1Z" style="fill:#84736f;fill-rule:evenodd"/><path d="M51,136.46c.07,0,.2.09.19.11s-.11.12-.19-.11Z" style="fill:#84736f;fill-rule:evenodd"/><path d="M50.07,135l.48.48h0l-.48-.48Z" style="fill:#84736f;fill-rule:evenodd"/><path d="M65.4,154.68c1.47-.57,1.2-1.83.88-2.83-1.06-3.4,0-6.41,1.45-9.4.2-.42.39-1,1-.83s.55.68.6,1.17a17,17,0,0,1-.47,2.81,31.17,31.17,0,0,1-.63,3.27,10.11,10.11,0,0,0,.86,7.84,38,38,0,0,1,2.44,4.9c1.23,3.59.42,6.55-2.6,8.89-2-3.37-4.36-6.48-7.82-8.55-1.34-1.58-1.34-2,0-3.87a3.68,3.68,0,0,1,.46-.52.22.22,0,0,0-.15-.33c-.45-.11-.91-.07-1.34-.21s-.64-.54-.94-.83a8,8,0,0,0-2.85-1.94,1.5,1.5,0,0,1-.2-.13c-.5-.44-1.55-.76-1-1.57s1.28-.09,1.9.24,1.41.71,2.12,1.06a11.91,11.91,0,0,1,2.23.67C62.69,154.92,64.05,154.58,65.4,154.68Z" style="fill:#dbc39a;fill-rule:evenodd"/><path d="M63,176.85c-2.19,1.57-4.72,1.48-7.23,1.45-1.28-.43-2.59-.84-2.84-2.46-.08-.5-.49-.53-.88-.6a1.91,1.91,0,0,1-1.42-1.13,1,1,0,0,1,0-1.12c.39-.46.66.07,1,.23.58.3.88.1.9-.53,0-.39,0-.79,0-1.18.66-1.83,2-1.43,3.28-1,1.08.29.85-.65,1.05-1.15,1.19-2.92,3.6-3.54,6-1.52.6.5,1.09,1.6,2.08.44.65-.76,1.47-1.45,2.45-.69a2,2,0,0,1,.46,2.93,2.9,2.9,0,0,0-1.58,1.92A6.3,6.3,0,0,1,63,176.85Z" style="fill:#eee5d2;fill-rule:evenodd"/><path d="M65.55,191.24a5.29,5.29,0,0,1,0-3.47c1.35-2.77.63-5.52,0-8.18-.69-3,1-5.06,1.83-7.49l.52.08a26.08,26.08,0,0,1-.26,3.62,19.38,19.38,0,0,0-.11,7.13,8.13,8.13,0,0,1-.46,3c-.36,1.76-.71,3.52-1.06,5.27Z" style="fill:#d2bb95;fill-rule:evenodd"/><path d="M67.84,170.55c0-.4,0-.8,0-1.2a1.46,1.46,0,0,0-1-1.51c-.77-.24-1.14.35-1.53.87a6.42,6.42,0,0,1-.79.89c-.42.38-.82.43-1.17-.14a9,9,0,0,0-.85-1.15,2.69,2.69,0,0,0-3-1,3,3,0,0,0-2.24,2.55c-.05.31,0,.64-.06,1s.09.9-.4,1-.8-.4-1.07-.78a1.52,1.52,0,0,1,0-1.33c1.66-3.94,3.56-4.66,7.47-2.82.35.17.7.51,1.07.17s.23-.89,0-1.32a5.42,5.42,0,0,0-2.09-1.91c-.64-.4-1.6-.43-1.75-1.43l.57-.52a7.21,7.21,0,0,1,5,3.64,3,3,0,0,0,.85,1.1,4.34,4.34,0,0,1,2,3.81Z" style="fill:#928478;fill-rule:evenodd"/><path d="M60.52,162.45c1.49.7,3.09,1.19,4.14,2.62s1.08,1.83-.43,3.32c-.51-.1-.74-.56-1.1-.86-2.42-2-5.28-1.29-6.45,1.68-.12.29-.24.59-.36.88-1.74-.43-3.14.91-4.8.91,0-.08,0-.16,0-.24-.16-5.49,2.73-8.39,8.31-8.33Z" style="fill:#dac29a;fill-rule:evenodd"/><path d="M57.76,182c-.35,2.76.56,5.44.47,8.19-.47.05-1.42,1.64-1.31.12.25-3.34-.45-6.56-.58-9.83,0-.24.09-.46.51-.6C57.66,180.33,56.88,181.61,57.76,182Z" style="fill:#b9a98c;fill-rule:evenodd"/><path d="M59.16,156.17l1,.49a2.09,2.09,0,0,0,.46.36c.63.21,1.41-.06,1.92.57-.33.55-.88.48-1.4.48-2.46,0-3.19.26-5.74,1.78.48-1.06.49-1,1.92-1.82C58.1,157.6,59.22,157.45,59.16,156.17Z" style="fill:#b7aa8b;fill-rule:evenodd"/><path d="M51.52,171c.22,0,.55,0,.66-.14a3.16,3.16,0,0,1,4.14-.76l-.53,1a2.44,2.44,0,0,0-3.26.42C52.11,171.49,51.71,171.46,51.52,171Z" style="fill:#a09386;fill-rule:evenodd"/><path d="M52.9,152.23l-1.38.11c-.77-.55-2.28-.75-1.73-2.09s1.84-.67,2.86-.35l.23.05A4.43,4.43,0,0,1,52.9,152.23Z" style="fill:#ccb893;fill-rule:evenodd"/><path d="M61.17,154.74a2.74,2.74,0,0,1-2-.91l.48-.47a3.53,3.53,0,0,1,1.52.85c.15.11.21.22.17.34S61.21,154.74,61.17,154.74Z" style="fill:#887d77;fill-rule:evenodd"/><path d="M73.63,33.73c0,.67-.19,1.38.4,1.93,0,1.59-.09,3.18,0,4.76.34,4.9-1.35,9.19-3.85,13.24-1.71,2.76-3.54,5.46-5.29,8.2a8.43,8.43,0,0,0-1.42,4,2.37,2.37,0,0,0-.47,2c.21,2.17-.42,4.25-.58,6.38a4.76,4.76,0,0,1-1.92,3.41c-.63-.49-.2-1.33-.77-1.74a1.06,1.06,0,0,0-.09-.41,15.62,15.62,0,0,0-1-2.63c-.31-.49-.62-1-1.31-.71-1.88.69-2-.62-2.07-1.87a31.71,31.71,0,0,1,.2-5.2c-2.92.33-3.19.65-3.3,3.11-.13,2.79.62,5.5.75,8.26a2.26,2.26,0,0,1-1.36,2.42c-.54.13-1.06.3-1.61.39a4.44,4.44,0,0,1-5-3.34,16.76,16.76,0,0,1-.52-5.64c1.07-1.45.82-3.17,1-4.8a.93.93,0,0,0,.83-1,4.84,4.84,0,0,1,2.34-2.2,1.76,1.76,0,0,0,1.79-2,2.89,2.89,0,0,0-2.59-2.85c-1.84.1-3.81-.67-5.42.88-.53.45-1,1.07-1.81.85l-.91-1-.16-1.91a2.35,2.35,0,0,1-.34-.58c-.37-1.18-.91-2-2.4-1.47-.69.26-1.2-.23-1.62-.74-1.89-2.29-.51-6.43,2.37-7.2,1.14-.31,1.78.32,2.44,1.06s1.23.72,1.5-.33a4,4,0,0,1,2.19-2.37c.6-.36,1.35-.52,1.7-1.24,2.05-1.13,4.18-.92,6.32-.36.77.22,1.51.45,2.14-.39,1.79-2.38,4.26-2.94,6.67-1.56a5.09,5.09,0,0,1,.5,8.5c-.79.55-.87,1-.59,1.6.83-1.89,3.25-3.14,2.7-5.87a5.59,5.59,0,0,0-4.48-4.88h-2.1c-1.2.17-2.31.39-2.76,1.79a1.36,1.36,0,0,1-1.51.9A13.55,13.55,0,0,0,45.3,43c-.3.1-.61.19-.9.32-.81.35-1.39.3-1.52-.75a10.23,10.23,0,0,0-1.52-3.75A23.48,23.48,0,0,1,38,24.6a11.37,11.37,0,0,0,0-1.43L39.12,18a49.18,49.18,0,0,1,5.25-9.59c2.45-3.19,5.31-5.69,9.25-6.78a3.52,3.52,0,0,0,.8-.48c1.51.18,2.91-.49,4.42-.52,1.75,0,3.39.62,5.12.54,1.13.91,2.63.8,3.88,1.36a21,21,0,0,0,4.92,1.66,25.22,25.22,0,0,1,8.93,3.76c.8.49,1.43,1.28,2.44,1.41a26.26,26.26,0,0,1,2.4,6.19q0,.9,0,1.79a18.91,18.91,0,0,1-8.13,0,1.8,1.8,0,0,0-.88-1.65c-.05,1.67,0,3.2-.18,4.7s-.6,3.1-.92,4.64a1.9,1.9,0,0,1-.4.6l-.15.87c-1.1,1.08-1.54,2.58-2.41,3.82S73.65,32.57,73.63,33.73Z" style="fill:#c3c5d4;fill-rule:evenodd"/><path d="M52.88,76.47a27.38,27.38,0,0,1-1.48-8.87c0-1.4.37-2.3,1.74-2.71.46-.14.88-.37,1.34-.52,1.45-.47,1.9-.11,1.63,1.44A22.52,22.52,0,0,0,56,72c2.29-.8,2.72-.57,3.47,1.66a5.35,5.35,0,0,1,.21,1.89l-.55-.09a5,5,0,0,0-.63-1.76c-.3-.79-.72-1.26-1.53-.49-.65.62-1.28.32-1.94,0a4.17,4.17,0,0,0-1.79-.72c-.79,1.39.4,2.68.24,4Z" style="fill:#7d797a;fill-rule:evenodd"/><path d="M66.38,101.41l.07-1.49.79-1,.16.13a1.7,1.7,0,0,1-.06,2.37Z" style="fill:#9e9b9b;fill-rule:evenodd"/><path d="M88.46,28c.25,4.38-2.7,6.91-5.56,9.43a2.72,2.72,0,0,1-4.32-3c.59-1.41,0-2.66-.27-4-.22-1-.57-2-.87-3,1.51-1,3.23-.19,4.81-.56a14.8,14.8,0,0,1,4.76,0l1,.55a4.07,4.07,0,0,0,.43.5Z" style="fill:#c3c5d4;fill-rule:evenodd"/><path d="M78.41,17.28c2.71.08,5.42.21,8.13,0a.88.88,0,0,1-.73.54q-3.34,0-6.69,0A.87.87,0,0,1,78.41,17.28Z" style="fill:#875555;fill-rule:evenodd"/><path d="M87,26.94H82.25A6,6,0,0,1,87,26.94Z" style="fill:#747374;fill-rule:evenodd"/><path d="M88.46,28l-.43-.5A.61.61,0,0,1,88.46,28Z" style="fill:#88878a;fill-rule:evenodd"/><path d="M76,25.58l.4-.6A.72.72,0,0,1,76,25.58Z" style="fill:#747374;fill-rule:evenodd"/><path d="M64,219.56c.77.27.91.75.58,1.5-.74,1.68-1.42,3.38-2.12,5.08a3.34,3.34,0,0,1-1.65,1.65c-1,.57-2.06,1.17-3.09,1.76H56.58c-.94,0-1.42-.35-.82-1.25.5-.75,0-1.12-.37-1.61a6,6,0,0,0-3.6-1.32c-.65-.1-1.21-.16-1.58-.76a1.25,1.25,0,0,1-.14-1.28h0a.64.64,0,0,0,0-1h0a5.73,5.73,0,0,1-.45-.49l0,0a6.34,6.34,0,0,1-.48-.45h0c-.11-.44,0-.67.5-.5,2.23,1.42,4.56,2.13,7.13.93A11.76,11.76,0,0,1,64,219.56Z" style="fill:#dac29a;fill-rule:evenodd"/><path d="M49,218.56a4.91,4.91,0,0,1,.52-1.78c1.2-2,2.82-2.08,4.37-.15l-.11.07.09-.09c1.48,1.85,1.41,2.8-.3,4l-1.15.85C51.21,220.62,49.41,220.44,49,218.56Z" style="fill:#f7f9f9;fill-rule:evenodd"/><path d="M58.25,213.72a1.6,1.6,0,0,0,.38,1.55l.15.88a9.92,9.92,0,0,1,.34,1.06.58.58,0,0,0,0,.36c-.25,1.81-.62,3.53-2.91,3.77l-.84.15c-.21-.16-.31-.41-.16-.6,1.1-1.39.73-2.76,0-4.16-.17-.34-.28-.72-.41-1.08a1.51,1.51,0,0,1,.38-.42,3.2,3.2,0,0,0,.79-.84,1.59,1.59,0,0,1,1.28-.7Z" style="fill:#eff0f0;fill-rule:evenodd"/><path d="M50.53,224.34c1.58.47,3.16.92,4.78,1.24.94.18.45.71.08,1.12-.92.31-1.17,1.82-2.49,1.42a9.94,9.94,0,0,1-2.62-2.31C50,225.36,49.25,224.61,50.53,224.34Z" style="fill:#7f7267;fill-rule:evenodd"/><path d="M56.21,221.34c1-.61,2-1.23,2.07-2.65,0-.47.46-.81.84-1.12l1.07.06c.07.56-.53,1.58.89,1.18.81-.23,1.7-.57,2.44.24l.51.5c-2.37,1-4.86,1.55-7.3,2.29Z" style="fill:#9d9086;fill-rule:evenodd"/><path d="M50.53,224.34c-.55.39-.32.77,0,1.17.73.92,1.84,1.5,2.36,2.61-3.12-.72-3.85-3.29-4.89-5.88,1.14,0,1.38.9,2.07,1.11Z" style="fill:#b6a588;fill-rule:evenodd"/><path d="M49.61,220.91l-.5.5a2.26,2.26,0,0,1-.67-.12c-.4-.21-.91-.48-.55-1s.69-.09,1,.09A5.48,5.48,0,0,1,49.61,220.91Z" style="fill:#b6a588;fill-rule:evenodd"/><path d="M50.08,222.38c.48.32.54.64,0,1C50.07,223,50.07,222.7,50.08,222.38Z" style="fill:#b6a588;fill-rule:evenodd"/><path d="M49.12,221.42l.48.45Z" style="fill:#b6a588;fill-rule:evenodd"/><path d="M49.62,221.89l.45.49Z" style="fill:#b6a588;fill-rule:evenodd"/><path d="M63.53,219.06c-1.13-.2-2.15.36-3.23.49-.44,0-1,.44-1.26-.13s.09-.9.39-1.24a4,4,0,0,1,.76-.54l1.36-.14c.41,0,.94,0,1-.39.46-1.92,1.74-1.19,2.88-1C65.68,218.33,65.68,218.33,63.53,219.06Z" style="fill:#eff4f3;fill-rule:evenodd"/><path d="M51.89,43.41a13.94,13.94,0,0,0-6.6,0c0-.14,0-.29,0-.44a9.45,9.45,0,0,1,7.14,0C52.5,43.4,52.38,43.63,51.89,43.41Z" style="fill:#7f6162;fill-rule:evenodd"/><path d="M39.11,55.73l.34.58A.62.62,0,0,1,39.11,55.73Z" style="fill:#989597;fill-rule:evenodd"/><path d="M43.33,160.93a7,7,0,0,1,3.28-4.23,1.93,1.93,0,0,1,2.79.22,3,3,0,0,1,.1,3.56,1.28,1.28,0,0,1-1.73.21c-.62-.38-.79-1.49-1.86-1.17a4.71,4.71,0,0,0-2.14,1.83C43.35,161.5,43.13,161.43,43.33,160.93Z" style="fill:#d6bf98;fill-rule:evenodd"/><path d="M43.33,160.93l.44.43a5.76,5.76,0,0,0-.17,4.06C42,164,42.31,162.48,43.33,160.93Z" style="fill:#b7a588;fill-rule:evenodd"/><path d="M61.17,154.74l0-.53,4.28-.07c0,.18,0,.36,0,.55A4.52,4.52,0,0,1,61.17,154.74Z" style="fill:#af6361;fill-rule:evenodd"/><path d="M55.38,215.65l-.55,0c-1.87-1.21-1.88-1.49-.12-2.46a2.54,2.54,0,0,1,2.06,0,.63.63,0,0,1,.51.46l-1,1C56,215,55.68,215.33,55.38,215.65Z" style="fill:#dce4e4;fill-rule:evenodd"/><path d="M56.77,213.25l-2.06,0A1.38,1.38,0,0,1,56.77,213.25Z" style="fill:#aee9e9;fill-rule:evenodd"/><path d="M52.41,163.34a.43.43,0,0,1-.41.38Z" style="fill:#8a7f78;fill-rule:evenodd"/><path d="M53.37,162.37a.5.5,0,0,1-.42.44Z" style="fill:#8a7f78;fill-rule:evenodd"/><path d="M53.87,161.89a.52.52,0,0,1-.45.43Z" style="fill:#8a7f78;fill-rule:evenodd"/><path d="M54.4,161.43a.53.53,0,0,1-.5.43Z" style="fill:#8a7f78;fill-rule:evenodd"/><path d="M54.92,161a.61.61,0,0,1-.52.46A.67.67,0,0,1,54.92,161Z" style="fill:#8a7f78;fill-rule:evenodd"/><path d="M67.34,101.42q0-1.18.06-2.37a4.53,4.53,0,0,0,1.84-2.24c.59,1.85.59,1.85-.94,4.59Z" style="fill:#ebeeee;fill-rule:evenodd"/><path d="M48.65,62.56a6.45,6.45,0,0,1-2.44,1.95H46l-.22,0c-.3.2-.67.13-1,.3-1,.23-1.88-.47-2.86-.49,0-.07-.06-.16-.12-.2-2-1.26-2.36-2.92-1.29-5l1.46-1a3,3,0,0,1,.54-.36,7.31,7.31,0,0,1,1.23-.52,11.12,11.12,0,0,1,3.91-.18c2.93,1.5,3.61,3.42,1.85,5.24A.89.89,0,0,1,48.65,62.56Z" style="fill:#fcfdfd;fill-rule:evenodd"/><path d="M59.12,217.22a1.19,1.19,0,0,1-.34-1.06A1,1,0,0,1,59.12,217.22Z" style="fill:#9d9086;fill-rule:evenodd"/><path d="M44.78,64.83a.94.94,0,0,1,1-.3A.85.85,0,0,1,44.78,64.83Z" style="fill:#c3c5d4;fill-rule:evenodd"/><path d="M65.35,100.7a.47.47,0,0,1-.38.49c-.43.06-.46-.29-.49-.58a.41.41,0,0,1,.35-.47C65.23,100.1,65.3,100.42,65.35,100.7Z" style="fill:#aaa197;fill-rule:evenodd"/><path d="M61.87,100.67c.07-.31.2-.61.56-.6s.36.25.25.49-.21.49-.38.54S61.9,100.93,61.87,100.67Z" style="fill:#9b8b84;fill-rule:evenodd"/><path d="M52.9,99.49a.81.81,0,0,1,0-1.41Z" style="fill:#84736f;fill-rule:evenodd"/><path d="M60.19,157.11a2,2,0,0,1,0-.46c.81.08,1.72-.38,2.39.44A2.76,2.76,0,0,1,60.19,157.11Z" style="fill:#b36b63;fill-rule:evenodd"/><path d="M60.19,157.11l2.37,0c0,.16,0,.32,0,.49C61.75,157.45,60.84,157.93,60.19,157.11Z" style="fill:#819079;fill-rule:evenodd"/><path d="M59.67,176.78a3.56,3.56,0,0,1-2.26.92c-.4.06-.83-.17-.75-.61s.61-.31,1-.34A2.32,2.32,0,0,1,59.67,176.78Z" style="fill:#939c92;fill-rule:evenodd"/><path d="M61.13,172.57a.72.72,0,0,1,.8.68.55.55,0,0,1-.54.63.63.63,0,0,1-.77-.66A.57.57,0,0,1,61.13,172.57Z" style="fill:#96837d;fill-rule:evenodd"/><path d="M59.67,176.78l-2,0A2.8,2.8,0,0,1,59.5,176C60.27,175.87,60.08,176.39,59.67,176.78Z" style="fill:#b98d85;fill-rule:evenodd"/><path d="M55.26,175c-.29,0-.39-.16-.42-.38s0-.61.41-.65a.4.4,0,0,1,.46.37A.54.54,0,0,1,55.26,175Z" style="fill:#96978e;fill-rule:evenodd"/><path d="M51.89,43.41l.55-.46c.23-.21.62-.38.68-.63.41-1.75,1.73-2.11,3.24-2.24a3.62,3.62,0,0,0,2.34,0,6,6,0,0,1,4.4,8.23c-.14.36-.27.89-.56,1-1.87.85-1.69,2.3-1,4-1.19,0-1.24-.82-1.47-1.42s-.78-1.26-.68-2c.08-.53.6-.7,1.11-.72,1.47-.05,1.81-1.13,2-2.27a5.07,5.07,0,0,0-6.71-5.78,1.81,1.81,0,0,0-1.45,1.38C53.9,44.14,53.81,44.12,51.89,43.41Z" style="fill:#7f797f;fill-rule:evenodd"/><path d="M48.65,62.56c2-2.39,1.81-3.4-1.14-5.19.07-.33.38-.36.6-.5a3.54,3.54,0,0,1,2.76,2.58,3.08,3.08,0,0,1-1.28,3.47C49.19,63.16,48.85,63,48.65,62.56Z" style="fill:#898489;fill-rule:evenodd"/><path d="M48.11,56.87l-.6.5a10.84,10.84,0,0,0-4.13.42c-.31.22-.73.14-1,.38h-.18l-.18,0c.09-1.18,1-1.32,1.87-1.39A15.8,15.8,0,0,1,48.11,56.87Z" style="fill:#847979;fill-rule:evenodd"/><path d="M53.84,56.54a1.22,1.22,0,0,1-1,1.3c-.26,0-.37-.25-.35-.49,0-.64.07-1.32.93-1.39C53.65,55.95,53.81,56.18,53.84,56.54Z" style="fill:#8a8c93;fill-rule:evenodd"/><path d="M58.68,40.05a1.77,1.77,0,0,1-2.34,0A6.12,6.12,0,0,1,58.68,40.05Z" style="fill:#975e5f;fill-rule:evenodd"/><path d="M52,68.11c0-.89,0-1.7.82-2.14.62-.31,1.26-.83,2-.43s.44,1.13.41,1.72c0,1.18-.16,2.36-.28,3.54-.09.89-.62,1-1.33.65A3.16,3.16,0,0,1,52,68.11Z" style="fill:#ececed;fill-rule:evenodd"/><path d="M53.91,216.62c-.12.2-.23.41-.35.61s-.33.36-.58.26c-.1,0-.25-.27-.22-.3a1.39,1.39,0,0,1,.48-.45,2.48,2.48,0,0,1,.69-.1Z" style="fill:#ab9a9a;fill-rule:evenodd"/><path d="M51.74,216.85a1.38,1.38,0,0,1-.23.36c-.15.13-.33.07-.35-.12a.41.41,0,0,1,.17-.35C51.44,216.7,51.6,216.81,51.74,216.85Z" style="fill:#d1aeae;fill-rule:evenodd"/><path d="M55.38,215.65c-.13-.75.22-1,.92-.94C56.34,215.36,56,215.65,55.38,215.65Z" style="fill:#ab8888;fill-rule:evenodd"/><path d="M42.34,58.18a1.06,1.06,0,0,1,1-.38A1,1,0,0,1,42.34,58.18Z" style="fill:#c3c5d4;fill-rule:evenodd"/></svg>