<svg xmlns="http://www.w3.org/2000/svg" viewBox="0 0 122.7 127.28"><title>アセット 5</title><path d="M15.47,54.71c-2.16-.46-3.75-1.87-5.4-3.18-1.56-2-3.55-3.62-4.93-5.79C.73,38.78-.06,31.22.92,23.23c.66-5.43,2.52-10.29,6.47-14C13.2,3.73,20,0,28.24.67s16.18,2.87,22.32,9.1a16.39,16.39,0,0,1,3.72,6.34c1.17,3.38,2.43,6.74,2.45,10.39.89,8.37-.86,15.93-6.8,22.2a1.62,1.62,0,0,0-.4.85,2.7,2.7,0,0,1-1.44,1.27c-3.34,1.42-6.35,3.54-9.92,4.52a34.77,34.77,0,0,1-20.6-.22A6.46,6.46,0,0,0,15.47,54.71Z" style="fill:#84736f;fill-rule:evenodd"/><path d="M108.61,118.23a8.4,8.4,0,0,1-3.32,2.47c-3,1.28-5.56,3.37-8.69,4.46a25.47,25.47,0,0,1-14.32,1.14c-5-1.13-7.72-7.42-5.18-11.85.7-1.21,1.75-1.65,3-.74a10.68,10.68,0,0,1,2.49,2.58,11.29,11.29,0,0,0,5.5,4.06c1.1.42,2.41,1.23,3.24-.58.17-.37.85-.4,1.31-.51,4.89-1.16,9-4,13.47-6.06,3.3-1.55,4.79-4.21,6.69-6.78A22.09,22.09,0,0,0,116,99.24c.57-.89,0-2.86,1.72-2.55,1.38.24,1.07,1.9,1.13,3a13.21,13.21,0,0,1-1.52,6.82,2.57,2.57,0,0,1-1.17,1.42c-1.08.37-1.48,1.38-2.08,2.21a25.09,25.09,0,0,1-8.53,7.26c1.71-.73,2.74-2.07,4.33-2.4,1.18.32.63,1,.25,1.53S108.79,117.38,108.61,118.23Z" style="fill:#84736f;fill-rule:evenodd"/><path d="M53.93,56.29a90.3,90.3,0,0,1-1.07-9.62c.16-1.12.89-.67,1.5-.54v0a6.87,6.87,0,0,1,1.58,2.06,56.58,56.58,0,0,1,3.85,9.23c.55,1.56,1.49,2.23,3.08,1.72C70.29,56.74,77.95,57,85.58,57a9.56,9.56,0,0,1,2.77.08c2.17.46,2.78,1.94,2.5,3.94-.34,2.45-.69,4.89-1,7.35a3.19,3.19,0,0,1-1.1,1.94,1.74,1.74,0,0,1-1.71-.5c-.65-.49-1.32-1-2.09-.26a2,2,0,0,0-.48,2.38,6.53,6.53,0,0,0,1.66,2.54c.49.48,1.16.87,1,1.73a.56.56,0,0,1-.56.39,5.84,5.84,0,0,1-4-3.47A4.13,4.13,0,0,1,85.91,67c1.78-.06,2.22-.84,2.28-2.31,0-.48,0-1,.06-1.44.26-3.89.26-3.8-3.76-3.91a147.09,147.09,0,0,0-15.32.59c-2,.15-4.17.29-5.67,2-.92,1.86.29,4-.91,5.84-1.33,0-1.1-1.11-1.22-1.88-.17-1.07.08-2.2-.36-3.3-.83.41-.62,1-.56,1.52.51,4.52,1,9.06,1.82,13.53.65,3.41,1.11,3.81,4.59,3.84,5.43,0,10.87,0,16.3,0,3,0,3.75-.11,3.68-3.2A2.07,2.07,0,0,1,87.32,77c.69-.37,1.06.08,1.41.56a6.13,6.13,0,0,1-.05,3.76,2.82,2.82,0,0,1-3,2.53c-6.71.09-13.42.18-20.12,0-3.15-.1-4.78-2.24-5.51-5.14a7.53,7.53,0,0,0-.83-2.54,52.58,52.58,0,0,1-2.17-5.29,18.92,18.92,0,0,1-1.85-5.35,11.48,11.48,0,0,0-.77-3.36c-.23-.87-.29-1.78-.55-2.64C53.25,58.39,54.23,57.35,53.93,56.29Z" style="fill:#424666;fill-rule:evenodd"/><path d="M117.16,63a2.22,2.22,0,0,1-.34,1.6c-1.17.32,0,2.31-1.37,2.2s-1.73-1.47-2.12-2.61c-.2-3.76,1.46-7.16,2.08-10.77.37-2.19.8-4.39,1.3-6.57a2.72,2.72,0,0,0-2.54-3.23c-.86,0-.75.56-.84,1.12-.9,5.59-2.11,11.13-3.18,16.69-.13.68.07,1.76-1.25,1.56-1.39-2.27-1-4.64-.37-7,.91-4,1.5-8.09,2.15-12.15a1.48,1.48,0,0,0-1.22-1.93,7.13,7.13,0,0,1-4.28-8.08c.2-1.2.94-1.7,2-1.36a39.58,39.58,0,0,1,9.24,3.79A4.87,4.87,0,0,1,118,38c1,1.7,1.74,3.58,3.61,4.64.68.39.69,1.21.57,1.95-2.45,2.31-2.62,5.49-3.24,8.5a3.69,3.69,0,0,0-.31,1,3.35,3.35,0,0,1-.26,1.41C117.95,58,117.08,60.4,117.16,63Z" style="fill:#84736f;fill-rule:evenodd"/><path d="M111.45,88.91a7.49,7.49,0,0,1-1,3.82c-2.84,1.31-5.82,2.29-8.6,3.75A5,5,0,0,1,98.51,98a5.36,5.36,0,0,0-2.32.49c-3,1.29-6.09,2.4-9.47,1.78a1.46,1.46,0,0,0-1.82,1.5c-.41,1.1.09,3.14-1.62,2.95s-1.14-2.14-1.21-3.42c0-.63.19-1.77.56-1.67,1.47.38,1.51-1,2.17-1.53,1.49-1.19,3-2.4,4.35-3.72a41.07,41.07,0,0,0,5.8-2c1.64.35,2.75-.17,3.21-1.87a3.06,3.06,0,0,1,.79-1.18c.37-.4.71-1,1.32-.84s.57.88.57,1.44-.22,1.59.75,1.75,1.15-.71,1.47-1.33c.41-.79.74-1.55,1.87-1.55,2.3,0,2.91-.65,3-2.92a11.37,11.37,0,0,0-.25-1.65c.17-1.41-.14-3,1.16-4,.05,0,.19,0,.2.07.06.19.22.24.21.17a9.93,9.93,0,0,1,.63-3.9,3.05,3.05,0,0,1,1.28-1.93c.79-.5,1.64-1.37,2.55-.93,1.13.55.38,1.65.25,2.55C113.32,80.46,111.81,84.58,111.45,88.91Z" style="fill:#84736f;fill-rule:evenodd"/><path d="M116.25,99.47c-.42,3.19-2.08,5.83-3.88,8.37a5.6,5.6,0,0,0-1.44,3.19,1.3,1.3,0,0,1-1.58,1.37c-1.25-.14-2.11.6-3,1.19-6.21,4-9.46,5.37-15,6.66.17.6,1.07.16,1.19,1a4.83,4.83,0,0,1-3.59,0c-2.78-.91-5.27-2.23-6.92-4.81a12.08,12.08,0,0,0-2-2.1c-1.07-1-2-.85-2.6.44a7.74,7.74,0,0,0,5,11A23.33,23.33,0,0,0,96,124.93a39.24,39.24,0,0,0,7.62-4c.48-.3,1-1,1.64-.28a29.35,29.35,0,0,1-21.83,6.41c-5.09-.53-8.33-5-7.47-10.5.11-.68.59-1.32.17-2.3-3.55.91-7,2.48-10.76,2.46-.72.24-1.44.51-2-.24.88-1.35,2.39-1.05,3.64-1.3A47.44,47.44,0,0,0,79.37,111a4.74,4.74,0,0,0-2.76.49c-.76.25-1.5.54-2.27.75a12.24,12.24,0,0,1-3.27.68c-.56,0-1.26-.05-1.37-.69s.44-1,1-1.16a28.81,28.81,0,0,0,3.87-1.18c-1.65,0-3.2,1.69-4.54-.18.47-1.34,2-1.3,2.82-2.15a3.27,3.27,0,0,1,2.76,0c2.44.7,4.91,1.3,7.29,2.18.64.24,1.72.1,1.59,1.32-1,.9-3.16.39-3.38,1.73-.19,1.15,1.62,1.95,2.31,3.1A13,13,0,0,0,85,117.66c1.23.8,2.41,1.76,4,1.12a4.35,4.35,0,0,1,1-.2c5.91-.26,10.76-3.16,15.53-6.24,2.18-1.41.77-3.26.38-4.95-.32-.78.59-1.59-.06-2.38a2.55,2.55,0,0,1,0-2,.66.66,0,0,1,.56-.32c1.65,1,3,2,2,4.34a1.9,1.9,0,0,0,.76,2.45c.47-1.76-.24-3.3-.39-4.87-.09-.89-.65-1.86.71-2.26.8,1.61.41,3.59,1.56,5.25a8.36,8.36,0,0,0,2.43-3.18c1.08-1.85,1.5-4,2.31-5.93C116.66,98.47,116.54,98.93,116.25,99.47Z" style="fill:#696160;fill-rule:evenodd"/><path d="M56.25,26.5c0-3.58-1.37-6.83-2.44-10.15A18.31,18.31,0,0,0,44,5.52C37.76,2.63,31.31.75,24.37,1.05a16.19,16.19,0,0,0-5,1.4A31.15,31.15,0,0,0,7.43,9.82a23.71,23.71,0,0,0-5.9,12.07,35.84,35.84,0,0,0-.43,10c.54,6.49,2.57,12.44,7.37,17.16q.86.84,1.69,1.71a.45.45,0,0,1-.08.78c-4-2.7-6.42-6.6-8.09-11A35.58,35.58,0,0,1,.31,23.76,27.3,27.3,0,0,1,1.75,17C5,8.48,11.68,3.93,19.85,1.13A23.77,23.77,0,0,1,32.36.57,41.65,41.65,0,0,1,47.67,6.49a15.47,15.47,0,0,1,4.87,4.89A30.79,30.79,0,0,1,56.78,23.5C56.75,24.53,57.67,25.72,56.25,26.5Z" style="fill:#716766;fill-rule:evenodd"/><path d="M48.62,103.27c.73.54.94,1.43,1.4,2.15.33.52.63,1.24,1.33,1.19s.76-.93.89-1.48A61.55,61.55,0,0,1,53.88,99c.51-.6-.12-1.43.42-2,1.3-.2,2.61-.09,3.92-.18a1.31,1.31,0,0,1,.9,1c-.17,2.15,2.22,1.78,3,3a.8.8,0,0,1-.13.63c-1.58,1-3.14-.52-4.91-.07.61,1,1.65,1,2.38,1.43s.86,1-.09,1.46c-2,.64-2.11,2.43-2.15,4.05,0,1.39,1.27,1.41,2.29,1.49a64.45,64.45,0,0,0,9.21-.31c1.84.7.92,1.36-.12,1.7a19.26,19.26,0,0,1-9.88.58c-.28-.06-.53-.25-.83-.22a2.17,2.17,0,0,1,.64.31.65.65,0,0,1,.08,1,1.57,1.57,0,0,1-1.77.33A12.26,12.26,0,0,1,51,109.67c-1.4-1.72-2.78-3.49-3.16-5.78C47.92,103.47,48.1,103.15,48.62,103.27Z" style="fill:#6d6361;fill-rule:evenodd"/><path d="M122,44.74a2.24,2.24,0,0,0-1.33-2.34A3.21,3.21,0,0,1,119,40.71c-1.11-3.1-3.48-4.84-6.43-5.94-1.72-.64-3.43-1.29-5.18-1.83-1.41-.43-2,.1-1.66,1.57a13.32,13.32,0,0,1,.41,3.06c0,2.25,1.67,3,3.35,3.81a9.9,9.9,0,0,1-.7,1,12.27,12.27,0,0,0-.89,2.76c-.52,1.14.4,2.78-1.21,3.55-1.15-1.5-1-3.27-1.07-4.77a23.94,23.94,0,0,1-3.93,8.49c-1.51,2.06-2.92,2.31-4.78,1.08,0-1.22,1.2-1,1.74-1.62a19.66,19.66,0,0,0,5.85-15.77c-.07-1.34-.62-2.65-.32-4,.2-.48.35-1,1.07-.83l8.54,3a8.39,8.39,0,0,1,5.42,5,4.74,4.74,0,0,0,2.12,2.5,2.11,2.11,0,0,1,1.07,3A.27.27,0,0,1,122,44.74Z" style="fill:#6d6662;fill-rule:evenodd"/><path d="M69.72,52.89c1.55.87,3-.17,4.66.21-.17-1.17-.91-1.44-1.4-1.92-1.81-1.75-2.84-3.69-1.44-6.16.44-.79-.13-1.16-.48-1.66,0-1.19-.45-2.48.69-3.45.92.22.82,1,.93,1.69.18,1,.64,1.58,1.75,1.31a5.55,5.55,0,0,1,.64-.12c2.86-.23,2.86-.23,2.12-2.8a1,1,0,0,1,.17-.63,1.09,1.09,0,0,1,1.48.25c1.41,2.05,3.06,1.54,4.8.57a1,1,0,0,1,.76.61c.25,1-.24,2-.2,3A5.78,5.78,0,0,0,84.3,45a3.86,3.86,0,0,1,.08.63A8.92,8.92,0,0,0,85,48.14c-.09,3-1.52,4.5-4.84,5.25-.85.19-1.78,0-2.54.59a4.09,4.09,0,0,1-1.5.5,54.26,54.26,0,0,1-6.15,0,1.85,1.85,0,0,1-1.39-.74.8.8,0,0,1,.38-1A.78.78,0,0,1,69.72,52.89Z" style="fill:#706765;fill-rule:evenodd"/><path d="M54.82,62a4.86,4.86,0,0,1,.9,3.4c-.9,3.49.27,6.87.45,10.31,0-1-.28-2,.71-2.74,1,.13,1.1,1,1.27,1.76a1.38,1.38,0,0,0,1.51,1.19,2.63,2.63,0,0,1,.86,2c-2.05-.24-3.09,2.05-5.07,2-.9-.87,0-2.1-.61-3-.33-2.28-.67-4.57-1-6.85-.23-1.71-.21-1.7-1.9-1.37a4.25,4.25,0,0,1-2.8-.23,3.32,3.32,0,0,1-1.74-4,26,26,0,0,1,2.3-5.23c.48-1,1.49-1.14,2.4-1.4s1.77-.32,1.81-1.5c.8.86-.19,2,.4,2.85a6.53,6.53,0,0,0-5.4,5.72c-.15,1,.07,1.81,1.08,2.12a2.33,2.33,0,0,0,2.73-1C53.62,64.77,53.83,63.18,54.82,62Z" style="fill:#716968;fill-rule:evenodd"/><path d="M111.45,88.91c-.71-.58-.41-1.25-.25-2q1.33-5.79,2.57-11.6a6.67,6.67,0,0,0,0-1.39c-3.81.61-3.51,3.83-4.24,6.37-.13.45.1,1-.21,1.4-.52-.43-.18-1-.34-1.55a1.71,1.71,0,0,1-.44-1.75c.37-1.49-.64-1.43-1.56-1.53a1.25,1.25,0,0,1-.2-1c.49-1.23,1.75-1.23,2.72-1.67,3.2-1.45,4.4-3.1,4.21-5.87,0-.62,0-1.38-.62-1.68s-1.06.42-1.43.89-.65.91-1.3.9a.79.79,0,0,1-.52-.37,2,2,0,0,1,.08-1,4.44,4.44,0,0,1,.22-.63c.7-1.11,1.16-2.46,2.66-2.82.54,0,.78.38,1,.75l1.61,2.32a9.39,9.39,0,0,1,.84-2.56c.51-.7.3.29.52.39-.66,4.47-1.79,8.85-2.75,13.26A94.11,94.11,0,0,1,111.45,88.91Z" style="fill:#6b6564;fill-rule:evenodd"/><path d="M109.47,102.37c-.69.68-.42,1.46-.25,2.24.3,1.39.59,2.79.9,4.18.18.82,0,1.45-.88,1.65s-1.06-.41-1.29-1.07c-.4-1.17-.66-2.32.14-3.41.49-.67.42-1.38-.33-1.51-1-.18-1-1.17-1.6-1.61-1.23-1.68-1.23-3.7-1.48-5.62a1.84,1.84,0,0,1,1.5-2.32c1.37-.21,1.24,1.13,1.73,1.85.36.53-.35,1.47.7,1.67A12.76,12.76,0,0,1,109.47,102.37Z" style="fill:#83726e;fill-rule:evenodd"/><path d="M15.47,54.71c.74-.66,1.48-.28,2.22,0A32.49,32.49,0,0,0,32,56.17a23.5,23.5,0,0,0,9.55-2.65c1.94-1.09,4-1.86,5.91-3.1.42-.28.53.07.6.4a27.88,27.88,0,0,1-12.73,5.66,33.69,33.69,0,0,1-17.24-.69C17.21,55.5,16.35,55.08,15.47,54.71Z" style="fill:#706b6a;fill-rule:evenodd"/><path d="M56.25,26.5c.88-.87.25-2,.53-3,1.65,7.77.93,15.16-3.61,21.86.28.55,1,.19,1.2.78-.54.09-1.13,0-1.5.54-.79-.11-1,.59-1.37,1a6.46,6.46,0,0,1-2,1.86c-.8-.71,0-1.1.33-1.54a24.57,24.57,0,0,0,5.48-9.42,22.78,22.78,0,0,0,.92-7.06C56.19,29.86,56.25,28.18,56.25,26.5Z" style="fill:#767371;fill-rule:evenodd"/><path d="M79.28,21.78a4.24,4.24,0,0,1,3.53,3.14c.25.74.59,1.41,1.52.92,3.23-1.69,6.61-1.47,10-.85a5.67,5.67,0,0,0,1.09,0c-.2-1.22-.38-2.41.46-3.41A5,5,0,0,1,99,19.91c.33.25,1.07-.11,1,.7a2.06,2.06,0,0,1-.88.77c-2.53,1.44-2.57,1.47-1.06,3.86C99,26.66,98.18,27,97,27a35.58,35.58,0,0,1-4-.67,14.84,14.84,0,0,0-8.86,1.27c-2,1-2.58.73-2.8-1.46-.18-1.83-1.85-2.3-2.64-3.53C78.61,22.11,78.92,21.93,79.28,21.78Z" style="fill:#928177;fill-rule:evenodd"/><path d="M48.62,103.27l-.54.51c-1.06.44-2.08-1.42-3-.21a5.76,5.76,0,0,0-1,4.53c.38,2.47,2.06,4,4.15,5.2,1,.54,2.14.69,2.83,1.66.09.45-.22.6-.56.73a11.47,11.47,0,0,1-5.66-2.92c-2.65-2.27-3.25-7.47-1.29-10.35,1.05-1.54,2.33-1.74,3.84-.58A3.17,3.17,0,0,1,48.62,103.27Z" style="fill:#776f6e;fill-rule:evenodd"/><path d="M54.84,76.91c.49.39.43.94.46,1.47s-.07,1.09.49,1.43a2.26,2.26,0,0,1-.65,2,19.26,19.26,0,0,0-2.77,6.85,7.45,7.45,0,0,0,1.23,6.59c.41.54,1.06,1,.72,1.89,0,.66.21,1.37-.45,1.88A2.35,2.35,0,0,0,53,96.91c-2.17-2-2.69-4.54-2.35-7.39a17.17,17.17,0,0,1,3.66-9.16C55.24,79.28,54.64,78,54.84,76.91Z" style="fill:#91887f;fill-rule:evenodd"/><path d="M74.1,38.52a8.9,8.9,0,0,1,1.27-6.41c.42-.6.21-1-.35-1.37A4.78,4.78,0,0,1,73.37,29C71.64,26,73.09,23,76.92,21.81c.46.34,1.23-.19,1.53.57-.39,1-1.43.91-2.16,1.34-2.44,1.43-2.82,3.58-.67,5.4,1.6,1.35,1.86,2.66.78,4.33s-.5,3.46-1.29,5A.76.76,0,0,1,74.1,38.52Z" style="fill:#90857c;fill-rule:evenodd"/><path d="M108.62,98.4l-.13,1.08a3.09,3.09,0,0,1-.89-1.91c-.13-.54-.31-1.06-.46-1.59s-.33-.75-.79-.74a1,1,0,0,0-1,.83,5.29,5.29,0,0,0,.07,2.35,19.76,19.76,0,0,1,.78,4.42h0a.51.51,0,0,1-.62,0,6,6,0,0,1-1.3-3.78,2.89,2.89,0,0,0-2.3-2.9c-.56-.77.29-.76.58-.87,1.7-.67,3.41-1.34,5.16-1.87a3.78,3.78,0,0,0,2.42-1.77c.51.26.3.7.38,1.05-2.23,1.15-2.9,2.86-1.89,5.19A1.34,1.34,0,0,1,108.62,98.4Z" style="fill:#6f6866;fill-rule:evenodd"/><path d="M108.61,118.23c-.67-.74.3-.87.48-1.29.24-.58,1.4-.64.91-1.63a.72.72,0,0,1,.09-.87c2.24-2,3.82-4.5,5.67-6.8a1.68,1.68,0,0,0,1-1,.68.68,0,0,1,1,0C115.93,111.51,112.56,115.09,108.61,118.23Z" style="fill:#777370;fill-rule:evenodd"/><path d="M117.72,106.68h-1c1.81-3.1,1.68-6.37,1.15-9.81-1.5.51-.77,2-1.63,2.61a1,1,0,0,0-.48-1l.05-.5c.34-.46.06-1.07.37-1.54-.06-.79.14-1.49,1-1.61s1.11.54,1.43,1.08a6.84,6.84,0,0,1,.87,3.91A13.68,13.68,0,0,1,117.72,106.68Z" style="fill:#736b6a;fill-rule:evenodd"/><path d="M105.3,31.24c-.48.2-.55.63-.63,1.07-2.68-2.07-2.71-3.45-.1-5.19,1.7-1.14,1.69-2.81.05-4.36-1-.94-2.51-1-3.36-2.16-.08-.46.25-.59.57-.74a6.7,6.7,0,0,1,3.51,1.33c2.95,2.11,2.75,5.73-.39,7.58l-.62.36C104.3,30,105.21,30.44,105.3,31.24Z" style="fill:#93837b;fill-rule:evenodd"/><path d="M58.6,46.31a2.81,2.81,0,0,1,2.4,2,30.71,30.71,0,0,1,1.95,5.08c.12.51.31.89.89.92a1.36,1.36,0,0,1,1-.06,4.8,4.8,0,0,0,.5,0c.26-.05.52-.13.78-.17a1.23,1.23,0,0,1,.56.13.7.7,0,0,1,.21.82,2.7,2.7,0,0,1-2.39,1.39c-.75-.36-1.71-.15-2.35-.85-.72-1.52-1.07-3.16-1.67-4.73a5.52,5.52,0,0,0-3.25-3.57C56.94,45.88,58.22,46.74,58.6,46.31Z" style="fill:#948e8e;fill-rule:evenodd"/><path d="M50.5,115.69l.47-.39a2.36,2.36,0,0,1,2.25-.38c3,.51,5.91,1.25,9,.83a1.42,1.42,0,0,1,1.27.52c.51.71,1.29.36,1.95.5a2.68,2.68,0,0,1-.84.39C59.78,117.49,55,117.52,50.5,115.69Z" style="fill:#746e6d;fill-rule:evenodd"/><path d="M72,39.94c-.53.49-.39,1.14-.41,1.75s.09,1.26-.55,1.67c-1.67-.88-2-2.22-1.3-3.88.21-.32.64-.21.9-.44a13.56,13.56,0,0,1,3.18-.13,1.72,1.72,0,0,1,.89-.14.61.61,0,0,1,.47.33,1.3,1.3,0,0,1,0,.59L75.1,40l-.24.16-.28,0c-.27,0-.53-.1-.8-.15a4.92,4.92,0,0,0-1,0,2.09,2.09,0,0,1-.5,0Z" style="fill:#636565;fill-rule:evenodd"/><path d="M122,44.74h.45l-.08.5q-.17.27-.31.55a6.16,6.16,0,0,0-2,4.1,20.26,20.26,0,0,1-.53,2,1.09,1.09,0,0,0-.2.77,2.64,2.64,0,0,1-.16.81l-.13.83c-.33.46,0,1.07-.37,1.53a.33.33,0,0,1-.05.37c-.88,0-.75-.43-.47-1q0-.72,0-1.44a4.66,4.66,0,0,0,.46-.49c0-2.17.83-4.19,1.11-6.32C119.9,45.83,121.1,45.38,122,44.74Z" style="fill:#6f6b69;fill-rule:evenodd"/><path d="M65,54.78l-1.12-.49a27.38,27.38,0,0,1,4.38-7.17.92.92,0,0,1,.66,1.07C67.58,50.38,66.39,52.65,65,54.78Z" style="fill:#9f9b9b;fill-rule:evenodd"/><path d="M118.16,55.3a1,1,0,0,0,.47,1A35.51,35.51,0,0,1,117.16,63a1.28,1.28,0,0,1-.43-1.29A27.05,27.05,0,0,1,118.16,55.3Z" style="fill:#756e6c;fill-rule:evenodd"/><path d="M68.74,48.06l-.52-.95c1.06-.78,1.41-.12,1.45.8.07,1.65,0,3.31.05,5l-.62,0C68.17,51.32,68.55,49.68,68.74,48.06Z" style="fill:#867e7c;fill-rule:evenodd"/><path d="M58.6,46.31c-.35.49-1.14.22-1.42.82-.36.86-1.21.74-1.9,1-.67-.49-.54-1.35-.92-2Z" style="fill:#907779;fill-rule:evenodd"/><path d="M101.84,19.86l-.54.45a.92.92,0,0,1-1.29,0,1.51,1.51,0,0,1-1-.42A5.19,5.19,0,0,1,101.84,19.86Z" style="fill:#995a59;fill-rule:evenodd"/><path d="M78.37,22.21c-.5-.08-1.06.08-1.45-.4a3.82,3.82,0,0,1,2.36,0l-.53.44C78.62,22.38,78.49,22.38,78.37,22.21Z" style="fill:#965a5a;fill-rule:evenodd"/><path d="M116.2,96.47c0,.56.16,1.12-.37,1.54A2,2,0,0,1,116.2,96.47Z" style="fill:#84736f;fill-rule:evenodd"/><path d="M118.68,55.89c0-.55-.15-1.12.38-1.53A2,2,0,0,1,118.68,55.89Z" style="fill:#756e6c;fill-rule:evenodd"/><path d="M75,38.93l-1.18,0,.27-.39h.83a.31.31,0,0,1,.13.26C75.06,38.88,75,38.93,75,38.93Z" style="fill:#7b716e;fill-rule:evenodd"/><path d="M119.19,53.53q0-.55-.07-1.11a.23.23,0,0,1,.38,0A1.23,1.23,0,0,1,119.19,53.53Z" style="fill:#84736f;fill-rule:evenodd"/><path d="M70.65,39a1,1,0,0,1-.9.44C69.87,39,70.25,39,70.65,39Z" style="fill:#7b716e;fill-rule:evenodd"/><path d="M119.51,52.42h-.38l.43-.47Z" style="fill:#756e6c;fill-rule:evenodd"/><path d="M122.06,45.8l.31-.55A.48.48,0,0,1,122.06,45.8Z" style="fill:#84736f;fill-rule:evenodd"/><path d="M26,41.57c0,2.79,0,5.59,0,8.38,0,2.12-.52,2.63-2.57,2.45A18.11,18.11,0,0,1,12.57,48a22.61,22.61,0,0,1-7.5-13.5c0-.08-.06-.15-.07-.23-.67-3.4-.27-3.9,3.14-3.88,2.4,0,4.8.12,7.18,0,3-.18,6,.57,9,.53,1.26,0,1.63.75,1.62,1.86C26,35.67,26,38.62,26,41.57Z" style="fill:#3f4467;fill-rule:evenodd"/><path d="M17.16,27c-3.1.45-6.87-.52-10.69-.5-1.44,0-1.76-.33-1.55-1.71a20.84,20.84,0,0,1,4.77-11,26,26,0,0,1,8.7-6.57,30.42,30.42,0,0,1,6.66-1.68c1-.22,1.39.58,1.4,1.48a65.7,65.7,0,0,1-.08,8.84A81.81,81.81,0,0,0,26,24.41c-.07,2.42-.18,2.56-2.6,2.58C21.57,27,19.73,27,17.16,27Z" style="fill:#404567;fill-rule:evenodd"/><path d="M52.4,31.31c.74.63.51,1.5.44,2.25-.75,7.38-4.46,12.73-11,16.3a30.36,30.36,0,0,1-10,3c-1.86.3-2.54-.27-2.49-2.17.13-4.62.64-9.22.46-13.86-.07-1.83,0-3.67.06-5.51,2.79-.5,5.6-.19,8.39-.16.91,1,.07,1.57-.57,2.12a11.5,11.5,0,0,1-2.88,1.67c-.48.21-1.22.24-1.18,1s.7.81,1.18,1.07a12.1,12.1,0,0,0,16.68-5.29C51.73,31.38,52,31.14,52.4,31.31Z" style="fill:#414566;fill-rule:evenodd"/><path d="M40.89,27c-3,0-6.05,0-9.08,0-1.87,0-2-.09-2-1.84q0-8.84,0-17.68c0-1.73.5-2.23,2.14-2.05A24.9,24.9,0,0,1,47.23,12.5,19.07,19.07,0,0,1,49.07,15c.35.54.16.91-.37,1.18-1.15.17-2-.57-2.82-1.1-3.57-2.14-7.2-2.09-11.16-.41,4.37,2.61,7.74,5.67,7,11.2A2.85,2.85,0,0,1,40.89,27Z" style="fill:#414566;fill-rule:evenodd"/><path d="M48.46,16a1.11,1.11,0,0,0,.61-1c2,2.17,2.77,4.91,3.3,7.72a22.87,22.87,0,0,0,.4,2.32,1.64,1.64,0,0,1-.38,2c-.29-.22-.64-.37-.82-.72-.8-3.19-1.19-6.53-3.17-9.33A.88.88,0,0,1,48.46,16Z" style="fill:#6d6c63;fill-rule:evenodd"/><path d="M38.49,31.77c-.54-.65-1.3-.46-2-.46-2.2,0-4.41,0-6.62,0,.44-.64,1.12-.49,1.74-.49h19c.62,0,1.29-.13,1.75.48l-.5.52A81.25,81.25,0,0,1,38.49,31.77Z" style="fill:#504666;fill-rule:evenodd"/><path d="M51.79,26.43l.6.55H40.89a1,1,0,0,1,.44-.94C44.82,25.81,48.34,25.22,51.79,26.43Z" style="fill:#825555;fill-rule:evenodd"/><path d="M115.76,107.63c-.72,2.15-2.31,3.71-3.71,5.39a14.57,14.57,0,0,0-2,2.29l-5.35,3.28c-.46-.82.08-1,.44-1.28a55.36,55.36,0,0,0,4.8-3.47,20.66,20.66,0,0,0,4.29-5C114.56,108.21,114.91,107.62,115.76,107.63Z" style="fill:#665f5d;fill-rule:evenodd"/><path d="M54.32,97.1c-2.21-2.32-3.37-4.91-2.66-8.25a21.42,21.42,0,0,1,4.13-9.05c.79-.65,1.56-1.31,2.37-1.94a1.67,1.67,0,0,1,2.35,0c.16.53.31,1.07.49,1.6a5,5,0,0,0,5,3.65q9.71.06,19.41,0c2.12,0,2.23-.12,2.58-2.24.2-1.18.32-2.37.47-3.55,1.69-1.26,3.64-.45,5.46-.68,3.22.36,3.84,1.11,3.31,4.34-.63,3.91-1.21,7.83-2.19,11.67-1.77.93-3.5,2-5.6,1.9a.85.85,0,0,1-.15-.18c0-.07,0-.2,0-.21-.28-.1-.4.14-.52.3a15.88,15.88,0,0,1-8.5,5.52A16.27,16.27,0,0,0,73,103.74c-4.39,1.69-6.82,1.1-8.49-2C64.29,99.81,64,97.92,64,96c-.05-1.63,1-3.6,3-6.09-1.39,1.83-3.53,2.58-5.38,3.75-1.29,1-1.44,3.05-3.38,3.35A4.11,4.11,0,0,1,54.32,97.1Z" style="fill:#dcc39a;fill-rule:evenodd"/><path d="M63,61.55c.07-1,.65-1.26,1.55-1.46,7.37-1.66,14.85-1.41,22.31-1.41,2.16,0,2.82.75,2.31,2.74a10,10,0,0,0-.24,2.84,8.19,8.19,0,0,1-.48,2.81c-.23.73-.53,1-1.39.76-1.78-.55-2.83-.2-3.7,1a3.88,3.88,0,0,0,0,4.5,8.7,8.7,0,0,0,3.62,3.06c.45-.17.58,0,.51.45,0,1,0,2.08,0,3.12-.06,1.92-.28,2.17-2.28,2.18-5.19,0-10.39,0-15.58,0-1.36,0-2.72,0-4.08,0-2.1-.06-2.85-.57-3.48-2.61a57.69,57.69,0,0,1-1.43-7.95c-.39-2.42-.43-4.89-.9-7.31a7.41,7.41,0,0,1,0-2.15,1.13,1.13,0,0,1,2.26,0c.08,1,0,2.08.08,3.11.05.84-.32,1.78.46,2.49A1.76,1.76,0,0,1,63,69.24a16,16,0,0,0,.45,4.18A24,24,0,0,1,64,78.34C63.49,72.75,62.32,67.21,63,61.55Z" style="fill:#3f4467;fill-rule:evenodd"/><path d="M77.39,53.37c.61-.77,1.48-.36,2.23-.46,3.3-.43,5-2.2,4.87-5.28,0-1,.8-.83,1.38-.73a11.33,11.33,0,0,0,7.71-1.52,2.31,2.31,0,0,1,.78-.08c1.37.28,1.43,1.39,1.37,2.4a9.59,9.59,0,0,0,1.33,5.66c1.94.66,2.89.42,4.1-1.16a22.72,22.72,0,0,0,3.53-7c.27-.86.59-1.71.88-2.57l.46.11.65,5.79c1.32,1.75,1,3.83,1.14,5.81.05.39.19.77.27,1.16a86.52,86.52,0,0,1,.15,10.71c-.25,3.18-1.35,4-4.34,3.15-4.71-1.34-7,0-8.06,5-.25,1.16-.14,2.48-1.74,2.76-2.43-.11-5,.47-7.16-1.18-1.17-1-2.46-2-3-3.54a3.6,3.6,0,0,1-.22-2.31,2,2,0,0,1,3.46-.93,4.18,4.18,0,0,0,1.27,1c3.46-.08,4.72-1,5.86-4.25A12.81,12.81,0,0,1,97,61.31a11.49,11.49,0,0,0-2.88,5,6.24,6.24,0,0,1-2.49,3.4c-1.23.87-2,.53-2.35-1a55.83,55.83,0,0,1,.88-7.55c.44-2.45.06-3-2.24-3.52l-.62-.35c-.86-.47-2.11-.51-2.22-1.82,0-.49.64-.63,2.81-.65-2.27-.09-4.53.33-6.8.14C79.71,54.84,78.21,54.89,77.39,53.37Z" style="fill:#dcc39a;fill-rule:evenodd"/><path d="M55.29,48.09c0-.65.27-1,1-.75a.92.92,0,0,0,.87-.21c1.68-.21,2.65.6,3.27,2.11a28,28,0,0,1,2.06,6.55c.44.15.18,1.27,1.08.77a2.65,2.65,0,0,1,.5-.29l.29-.05,2.43-1.41a1.46,1.46,0,0,1,.64-.77c.76-.42,1.55.33,2.31-.08h6.5a16,16,0,0,1,5.53,1.3,4.32,4.32,0,0,0,1.72.49,7.44,7.44,0,0,1,2.14.72c.49.23.91.64.25,1.19-4.55.22-9.1,0-13.66.4a47.93,47.93,0,0,0-9.38,1.76c-2.41.71-2.68.59-3.53-1.74A101,101,0,0,0,55.29,48.09Z" style="fill:#fdfdfd;fill-rule:evenodd"/><path d="M54.82,62c.12,1.78-.95,3.16-1.68,4.61-.58,1.14-2.82,1.56-3.87,1s-1.37-2.17-.72-3.6c.46-1,1-2,1.42-3,.9-2.06,2.09-2.57,4.36-1.82A5.3,5.3,0,0,1,54.82,62Z" style="fill:#84736f;fill-rule:evenodd"/><path d="M57.16,73.07c-.79,1.16-.42,2.42-.28,3.65.05.45,0,.83-.47.91s-.58-.38-.64-.77a51.94,51.94,0,0,1-1-9.84c0-.7-.11-1.49.92-1.62a26.53,26.53,0,0,0,1.93,5.28C57.1,71.4,58.11,72.43,57.16,73.07Z" style="fill:#7e706d;fill-rule:evenodd"/><path d="M85.89,57.65c0-.39-.12-.74-.59-.85-.74-.17-1.47-.38-2.21-.57a2,2,0,0,0-1.43-.42C80.06,54.64,78,54.63,76.26,54c.41-.12.88-.14,1.13-.58a10.33,10.33,0,0,0,4.86,1c2.23-.06,4.46,0,6.7,0,.58,0,1.26-.18,1.86.78-1.84.47-3.55.1-5.3.3.58,1.1,2,1.19,2.44,2.23C87.26,57.71,86.57,57.33,85.89,57.65Z" style="fill:#868683;fill-rule:evenodd"/><path d="M89.29,68.73c.93,1.16,1.39,1.26,2.4.37a7.33,7.33,0,0,0,2.21-3.61,11.26,11.26,0,0,1,4.52-5.88c.66.71.21,1-.16,1.27A8.44,8.44,0,0,0,95,65.7a9.68,9.68,0,0,1-2,3.52c-1.41,1.69-2.26,1.86-4.58,1C89,69.91,88.77,69.09,89.29,68.73Z" style="fill:#88796c;fill-rule:evenodd"/><path d="M63,61.55c.16,3.38.44,6.75.86,10.11a86.64,86.64,0,0,1,.61,8.82,9.91,9.91,0,0,1-1-4.18A4.71,4.71,0,0,0,63,73.54c-.62-1.39.18-2.94-.48-4.32q0-.72,0-1.44c0-1.5,0-3,0-4.49C62.49,62.67,62.36,62,63,61.55Z" style="fill:#4b4e5a;fill-rule:evenodd"/><path d="M57.16,73.07c.23-.78-.38-1.74.49-2.39l2,5.24c-1.81,1.23-1.8,1.23-2.08-.75C57.48,74.47,57.3,73.77,57.16,73.07Z" style="fill:#d5d8d9;fill-rule:evenodd"/><path d="M86.95,76a24.58,24.58,0,0,0,7.23,1c.15.08.2.16.15.24a.22.22,0,0,1-.17.11,41.83,41.83,0,0,1-5.67.09l-1-.53-.51-.45C86.95,76.27,86.95,76.11,86.95,76Z" style="fill:#7e5756;fill-rule:evenodd"/><path d="M94.16,77.31c0-.11,0-.23,0-.34a2.24,2.24,0,0,0,1-2,10.64,10.64,0,0,1,2.65-5.76,3.3,3.3,0,0,1,4-1.12c1.12.4,2.27.75,3.42,1.06s1.95,0,2.08-1.24c.3-2.91.94-5.82.43-8.76-.22-1.27-.13-2.54-.23-3.81a1.12,1.12,0,0,1,.56-.34,1.69,1.69,0,0,1,.66.06c.3.17.56.37.31.76.19,1.21-.47,2.29-.51,3.48s.7,2.43.51,3.72c.16,1.35.3,2.7.55,4,0,.72-.45,1.7.92,1.69.73,1.79.37,2.45-1.52,2.51-2.1.07-4.07-.7-6.07-1.23-3.39-.9-6,.95-6.15,4.41a2.39,2.39,0,0,0,4,2.06c2.64-2.39,3-2.41,6.3-.52l.08,1.11c.76.94.31,2,.16,2.94-.38,2.47-1.36,4.83-1.32,7.78,1.24-1,.86-2.66,2.09-3.19,1,1.63,0,3.06-.55,4.47-.31.81-1.2,1-2,.48s-1.66-.45-1.85.81a.86.86,0,0,1-.07.23c-.68,1.51-1.52,2.18-2.4,1.81-1.36-.57-1.25-1.65-.86-2.8a3.28,3.28,0,0,0-.09-1,12.3,12.3,0,0,0-1.86,2.57c-.85,2.2-.92,2.18-3.35,1.55-.45-2.91.58-5.64,1-8.44.18-1.17.38-2.35.59-3.51C97.19,77.9,97,77.68,94.16,77.31Z" style="fill:#655f5e;fill-rule:evenodd"/><path d="M109.07,67.35a11.39,11.39,0,0,0-.42-2c-.13-.8-.38-1.68.39-2.36.86-2,.9-4.13,1.38-6.19.84-3.62,1.43-7.31,2.2-11a4.13,4.13,0,0,0-.06-1.85c-.32-1.46,0-1.67,1.48-1.16a12.35,12.35,0,0,1,2.18,1c1.43.82,1.57,1.27,1.21,2.93-1.1,5-2,10.11-3.41,15.08a12.76,12.76,0,0,0-.17,2.61l-1-.5c-.82-.92-.42-2-.27-3,.63-4,1.9-7.89,2.73-11.87.25-1.19.59-2.44-.59-3.55-2.13,6.16-2.47,12.7-4.17,18.93C109.86,65.34,110.59,66.92,109.07,67.35Z" style="fill:#726b6a;fill-rule:evenodd"/><path d="M109,55.78l-.58-.53a2.22,2.22,0,0,1-.49-1.44,58,58,0,0,1,1.33-7.65,4.19,4.19,0,0,0-.75-4.37,1.07,1.07,0,0,1,1-.4c1.73.38,2.08.68,1.87,2-.64,4-1.35,8-2.05,12C109.33,55.56,109.15,55.67,109,55.78Z" style="fill:#746d6b;fill-rule:evenodd"/><path d="M118.63,53.38l-.46.49Z" style="fill:#756e6c;fill-rule:evenodd"/><path d="M102,96.2c2.22-.38,2.3-.36,2.67,1.73a33.16,33.16,0,0,0,1.09,4.9,2.51,2.51,0,0,1-.21,2.45c-3.8,2.45-8.1,3.85-12.14,5.79a7,7,0,0,1-.63.31,3,3,0,0,1-1.38.36c-.79-.17-.92-.74-.88-1.42.46-2.62.85-5.24,1.16-7.88a3.72,3.72,0,0,1,3.08-3.66c1.27-.29,2.4-1.15,3.77-1.24A13.2,13.2,0,0,0,102,96.2Z" style="fill:#feffff;fill-rule:evenodd"/><path d="M98.49,97.53a20.87,20.87,0,0,1-3.25,1.39,3.62,3.62,0,0,0-3,3.41c-2.83-1-2.77-1-3.22,2.14-.55,3.71-1.3,7.39-1.87,11.1-.09.61-.11,1.55-.8,1.56-.95,0-.79-1-.93-1.66a9.74,9.74,0,0,0-.5-3.84c1-2,0-2.71-1.78-3.17-1.65-.42-3.4-.64-4.83-1.73-.1-1.13,1.05-1,1.54-1.51,1.67-1.76,1.75-2.81.4-5.09a.51.51,0,0,1,.08-.6A16.32,16.32,0,0,0,89.4,93c.06-.09.27-.08.47-.13.32.69-.35,1.16-.39,1.75-1.19,1.62-2.95,2.62-4.36,4-.38.38-.93.56-1,1.23-.19,1.19-.42.19-.67,0s-.64-.12-.68.26a12.7,12.7,0,0,0,.06,3.8.75.75,0,0,0,.48.47c.34.07.56-.18.7-.5.33-.8-.22-1.79.53-2.49.85-.25,1.3-1,2-1.5a1.43,1.43,0,0,1,1.74-.36c1.48.69,2.77.12,4.11-.36C94,98.6,95.61,98,97.24,97.42,97.69,97.25,98.12,97,98.49,97.53Z" style="fill:#67615f;fill-rule:evenodd"/><path d="M108.14,84.59l-1,3.43c-.15.5-.39.91-1,.73s-.94-.39-.93-.94a11.9,11.9,0,0,1,.25-1.88c.52-3,1.45-5.86,1.74-8.87a5.46,5.46,0,0,1,1-.89c.74-.36,1.23-.13,1.14.77-.11,1.08-.27,2.16-.4,3.23A11.44,11.44,0,0,0,108.14,84.59Z" style="fill:#f4f5f5;fill-rule:evenodd"/><path d="M86.49,99.9c.08.73-.4,1.17-.83,1.63s-.82.35-1.16-.13C84.6,99.27,84.6,99.27,86.49,99.9Z" style="fill:#d8dddd;fill-rule:evenodd"/><path d="M63.45,116.27a3.68,3.68,0,0,0-.94,0c-3.32.89-6.48-.21-9.68-.78a12.66,12.66,0,0,0-1.86-.2c-1.93-1.18-4.2-1.74-5.77-3.56a7.45,7.45,0,0,1-1-8.37,1.57,1.57,0,0,1,2.55-.6c.46.3.87.68,1.3,1,.81,1.46,1.56,3,2.45,4.37,1.63,2.57,4.25,3.74,7,4.71a.77.77,0,0,0,.47,0,2.09,2.09,0,0,0,.42-.28c-.15-1-1.58-.23-1.76-1.31.44-.41.94-.15,1.45-.06a23.51,23.51,0,0,0,10.83-.64c.24-.07.42-.18.16-.41s-.3-.1-.45-.15c.34-.93.89-.88,1.56-.34a2.34,2.34,0,0,0,2.69,0,3.72,3.72,0,0,1,3.37-.26c-.65,1.28-2,1.09-3,1.64s-2.38.08-3.31,1.07a1.82,1.82,0,0,0,1.89.2,30.92,30.92,0,0,0,5.67-1.85,2.46,2.46,0,0,1,3.09.5A40.53,40.53,0,0,1,63.45,116.27Z" style="fill:#84736f;fill-rule:evenodd"/><path d="M106.16,107.14c1,1,.87,2.33,1.3,3.5.23.6-.19,1.07-.64,1.43a24.46,24.46,0,0,1-2.09,1.58,43.35,43.35,0,0,1-10.77,5,9.94,9.94,0,0,1-4,.4,4.56,4.56,0,0,1,1.44-5.91c.3-.17.62-.31.93-.45s.4-.19.6-.28l.88-.45a6,6,0,0,1,.6-.3c3.22-1.27,6.33-2.81,9.54-4.11C104.65,107.3,105.31,106.75,106.16,107.14Z" style="fill:#fdfefe;fill-rule:evenodd"/><path d="M78.33,106.66a45.61,45.61,0,0,1,6.31,1.72c.71.24,1.63.26,1.77,1.28s-.91,1.16-1.37,1.73c-.52.4-.88.34-1-.35,0-.14.1-.4.1-.4-3.23-1-6.47-1.88-9.69-2.83-.6-.18-1.08-.19-1.44.39-2.41.35-4.49-.9-6.72-1.4-1.56-.35-3.08-.83-4.61-1.3-.88-.28-1.91-.46-2.17-1.62.36-.34.18-.48-.19-.61-.9-.31-1.79-.63-2.66-1-.45-.19-.84-.56-.64-1.12a1,1,0,0,1,1.14-.68,16.3,16.3,0,0,1,2.31.49,6.55,6.55,0,0,0,2.56.42l.38,0a2.89,2.89,0,0,1,2.27,1.17c1.42,1.75,3.24,2.06,5.36,1.86A11.53,11.53,0,0,1,78.33,106.66Z" style="fill:#82736f;fill-rule:evenodd"/><path d="M59.48,103.88c3.2,1.6,6.75,2.15,10.11,3.25,1.12.37,2.25.71,3.38,1.07-.73.86-1.91.84-2.78,1.43a1.87,1.87,0,0,0-1.56.34,34.78,34.78,0,0,1-8.57.57,10.55,10.55,0,0,1-1.43-.09c-2.75-.55-2.78-.92-2.08-3.09.2-.61.31-1.24.48-1.85C57.5,103.82,57.51,103.82,59.48,103.88Z" style="fill:#fdfdfd;fill-rule:evenodd"/><path d="M86,115.23l.13,1.39c.49-1,.37-2.11.72-3.14A13.73,13.73,0,0,0,87.4,110c.16-2.45,1.21-4.76,1-7.25a2.71,2.71,0,0,1,.44-1.33c.61-1.11,1.36-1.23,2.27-.35a12.63,12.63,0,0,1,1,1.28,48.33,48.33,0,0,1-1.3,8.33c-.5-.44-.32-1-.27-1.86,0,0-.47.43-.17.32.05,0,.08,0,.08.15a27,27,0,0,1-1.66,9.88c-.26.55-.62.94-1.26.55-1-.6-2.18-.75-3-1.56C85.11,117.2,84.43,115.69,86,115.23Z" style="fill:#83736f;fill-rule:evenodd"/><path d="M106.16,107.14c-4,1.79-7.89,3.75-12,5.24-.68-.26-1.51-.36-1.43-1.4a15.23,15.23,0,0,1,4-2c2.79-1.29,5.61-2.53,8.41-3.79a.75.75,0,0,1,1,0c.38.05.86.09.51.65A2.41,2.41,0,0,0,106.16,107.14Z" style="fill:#786c6a;fill-rule:evenodd"/><path d="M86,115.23c-.53.48-.45,1.13-.49,1.74s-.2,1.08-.89,1.16c-1.74-1.64-2.67-4-4.82-5.39,1.37-1.17,2.61-1.95,4.25-1.69a1,1,0,0,0,1,.35,1.35,1.35,0,0,1,1,1.44C86,113.63,86,114.43,86,115.23Z" style="fill:#f7f9f9;fill-rule:evenodd"/><path d="M92.73,111l1.43,1.4a.26.26,0,0,1-.31.11,1.18,1.18,0,0,0-.62.36.31.31,0,0,1-.34.12c-.26,0-.42.2-.61.33a2.94,2.94,0,0,0-2.14,3,16.13,16.13,0,0,0-.17,2.8l-1.07.06,1.59-10.77c.51.87.2,1.62.43,2.28l.67.74c.37-.16.83-.1,1.14-.42Z" style="fill:#716b6a;fill-rule:evenodd"/><path d="M106.16,105.22l-1,0c.92-.61.49-1.55.58-2.37h.45Q106.16,104,106.16,105.22Z" style="fill:#83726e;fill-rule:evenodd"/><path d="M62,101a15.32,15.32,0,0,0-2-.69c-1.28-.27-1.59-1-1.31-2.19a14.75,14.75,0,0,1,2.94-4.74c.76-.36,1.56-1.09,2.37-.44s.47,1.49.18,2.22c-.51,1.29.35,2.48.13,3.73a4.73,4.73,0,0,1-.84,2.17A1.33,1.33,0,0,1,62,101Z" style="fill:#f9fafa;fill-rule:evenodd"/><path d="M57.49,98.42c-.28.55-.31.74-.42.81-2.13,1.42-2.23,1.73-1.21,4,.53,1.16-.13,5.54-1,6.38a.88.88,0,0,1-1.08.18c-.66-.3-1.53-.65-1.35-1.47.65-3,1-6.12,2.22-9C55.21,98.06,56.32,98.67,57.49,98.42Z" style="fill:#82726e;fill-rule:evenodd"/><path d="M62,101l1.42-.17c.62-.49.05-1.26.43-1.81A26.05,26.05,0,0,1,64,93.16c-1-.33-1.71.35-2.47.58-.45.16-.61,0-.5-.45,2.5-1.45,5.12-2.7,7-4.94.69.71.4,1,.08,1.24-1.91,1.36-2.79,3.37-3.52,5.49a3.22,3.22,0,0,0-.1,2.1,11.35,11.35,0,0,1,.22,4.24c-.93.67-1.85.21-2.77,0h0C62,101.25,62,101.11,62,101Z" style="fill:#857b72;fill-rule:evenodd"/><path d="M61.07,93.28l.5.45a22.89,22.89,0,0,1-2.87,4.36c-.11-.39-.1-.83-.53-1.06C59.48,96.05,59.92,94.39,61.07,93.28Z" style="fill:#928d86;fill-rule:evenodd"/><path d="M75,38.93a1.51,1.51,0,0,0-.08-.42,10.31,10.31,0,0,1,1.57-6.57,1,1,0,0,0-.19-1.45,2.82,2.82,0,0,0-.57-.43,3.62,3.62,0,0,1-2.14-4.12c.34-1.79,1.78-2.73,3.47-3.22.45-.13.95-.12,1.29-.52h.38a19.89,19.89,0,0,1,1.8,1.14A3.11,3.11,0,0,1,82,26.41c-.2,1.37.15,1.64,1.37.9a14.41,14.41,0,0,1,8.51-1.76,32.16,32.16,0,0,1,4.22.73c.69.13,1.35.43,2.07.05-.09-.88-1-.92-1.44-1.49-1-1.38-.81-2.5.71-3.32.83-.45,1.72-.8,2.58-1.19l1.29,0a31.24,31.24,0,0,1,3.4,1.68,3.37,3.37,0,0,1,1.43,4.53A2.89,2.89,0,0,1,104.33,28c-1.74.55-1.74.68-.81,2.29.4.68.77,1.38,1.15,2.07.19,1.41.28,2.84.61,4.22a7.64,7.64,0,0,1-.06,3.74,33.64,33.64,0,0,1-3.68,9.46,8.31,8.31,0,0,1-2.58,2.74c-2.56.27-3.25-.24-3.32-2.64-.05-1.83,0-3.65-.19-5.47.32-3.45.32-3.45-2.54-4a44.4,44.4,0,0,0-9.38,0,8.17,8.17,0,0,1-1.09,1.21,2.45,2.45,0,0,1-3.1-.61c-.53-.67-.89-1.51-2-1.43-1,.54-1.69.09-2.36-.58Z" style="fill:#dcc39a;fill-rule:evenodd"/><path d="M108.56,41.78c1.71.62,2.21,1.17,1.78,2.71-.87,3.07-1.07,6.26-1.85,9.34a.43.43,0,0,1-.65-.15,14.39,14.39,0,0,1-.47-2.32,28.2,28.2,0,0,1,.18-6.61C107.87,43.75,107.84,42.64,108.56,41.78Z" style="fill:#f4f4f3;fill-rule:evenodd"/><path d="M96,43.79c0,2,0,4,0,5.93.06,2.22.49,2.6,2.87,2.75-.43.73-1.48.14-1.89.9-1.48-.59-1.82-1.88-1.92-3.26-.08-1-.05-2.05-.05-3.08,0-.67-.08-1.28-.9-1.42A2.39,2.39,0,0,1,96,43.79Z" style="fill:#747066;fill-rule:evenodd"/><path d="M107.55,44.75q.05,3.56.11,7.11c-.08,1,.94,2.14-.47,2.9l-.5-6.21c.57-.49.36-1.17.42-1.78S106.93,45.32,107.55,44.75Z" style="fill:#827a71;fill-rule:evenodd"/><path d="M77.31,44.27a6.06,6.06,0,0,1,5.33,2.19c1.55,1.78,1.17,3.61-.89,4.73a7.11,7.11,0,0,1-8.54-1.24c-2.16-2.25-1.77-4.12,1-5.34A8.41,8.41,0,0,1,77.31,44.27Z" style="fill:#84736f;fill-rule:evenodd"/><path d="M83.64,44.21A4.86,4.86,0,0,1,84.16,41c1.18-1.82,3.09-1.16,4.69-1.22a30.31,30.31,0,0,1,3.28.21c2.92,1.48,3.24,2.9,1.25,5.45a8.79,8.79,0,0,1-6.28,1.69,3.2,3.2,0,0,1-3-1.89h0C83.82,44.93,83.88,44.51,83.64,44.21Z" style="fill:#fdfdfd;fill-rule:evenodd"/><path d="M68.74,48.06c.72,1.55.18,3.2.36,4.79l-.36.55a1.25,1.25,0,0,1-1.27.7c-.38.09-.81,0-1.16.24a1.27,1.27,0,0,0-.46.14,1.87,1.87,0,0,0-.55.32l-.34,0c-.32-1.35.85-2.09,1.3-3.12A8.88,8.88,0,0,1,68.74,48.06Z" style="fill:#ebecec;fill-rule:evenodd"/><path d="M77.36,39.93a3.43,3.43,0,0,1,.64.69c1,2,.59,2.72-1.61,2.73-.47,0-1,0-1.42-.07A2.5,2.5,0,0,1,75,40v0A2.21,2.21,0,0,1,77.36,39.93Z" style="fill:#ecf1f1;fill-rule:evenodd"/><path d="M84.06,45.25c3.06,2.51,6.1,1.54,9.14,0a.66.66,0,0,1,.55.59,9.13,9.13,0,0,1-8.22,1.57.87.87,0,0,0-1,.27A1.75,1.75,0,0,1,84.06,45.25Z" style="fill:#928176;fill-rule:evenodd"/><path d="M72.56,39.47l1.4,0a2.73,2.73,0,0,1,.51.45l0,0a4.92,4.92,0,0,1,0,3.33c-1.84.78-2.33.56-2.51-1.22a18.09,18.09,0,0,1,0-2.15l.07-.07A2.21,2.21,0,0,0,72.56,39.47Z" style="fill:#ebefef;fill-rule:evenodd"/><path d="M92.26,40.36c-2.19.23-4.39-.65-6.6,0a5.65,5.65,0,0,0-1.5.61l-.65-.66a1.72,1.72,0,0,1,1.21-.66c2.87-.31,5.74-.62,8.58.17C93.12,40.36,92.61,40.18,92.26,40.36Z" style="fill:#877372;fill-rule:evenodd"/><path d="M82.76,44.62a1.55,1.55,0,0,1-1.32,0c-.55-.27-1.25-.39-1.45-1.08A.64.64,0,0,1,80.3,43a1.76,1.76,0,0,1,1.91.6A1.33,1.33,0,0,1,82.76,44.62Z" style="fill:#b0a989;fill-rule:evenodd"/><path d="M77.36,39.93H75l0-1a8,8,0,0,1,2.36.58C77.37,39.66,77.37,39.79,77.36,39.93Z" style="fill:#7b716e;fill-rule:evenodd"/><path d="M74.48,43.3q0-1.67,0-3.33H75v3.33Z" style="fill:#86817f;fill-rule:evenodd"/><path d="M67.32,53.94l1.42-.54c.21.42.65.43,1,.55-.75.56-1.64.34-2.47.49q-.19-.18-.12-.34C67.23,54,67.27,53.94,67.32,53.94Z" style="fill:#927978;fill-rule:evenodd"/><path d="M83.64,44.21a1.27,1.27,0,0,1,.42,1A.94.94,0,0,1,83.64,44.21Z" style="fill:#928176;fill-rule:evenodd"/><path d="M107.12,75.95a5.6,5.6,0,0,1-3-.73,1.56,1.56,0,0,0-2.32.88,2.78,2.78,0,0,1-3.65,1.71,3,3,0,0,1-2.1-3.31c.13-2.21,1.41-3.87,2.85-5.35.77-.79,1.93-.45,3-.15,1.75.51,3.53.93,5.28,1.45a6.17,6.17,0,0,0,2.13.2c1.49-.08,1.58-.32.77-1.89a.31.31,0,0,1-.1-.35c0-.11.09-.16.14-.16,1.12-.14,1.07-1.28,1.63-1.89.37-.41.71-1,1.36-.77a1.78,1.78,0,0,1,1.11,1.17A6.16,6.16,0,0,1,112,73.55C110.51,74.7,108.63,74.92,107.12,75.95Z" style="fill:#84736f;fill-rule:evenodd"/><path d="M109.94,64.38q1.22-6.42,2.45-12.83c.38-1.95.75-3.9,1.2-5.84.14-.61.07-1.56,1.19-1.43a1.67,1.67,0,0,1,1.58,1.94,31.15,31.15,0,0,1-1.09,5.83c-.94,3.93-2.12,7.82-2.43,11.88a17.2,17.2,0,0,0-2.46,2.79C109.11,66.15,110,65.18,109.94,64.38Z" style="fill:#fbfbfb;fill-rule:evenodd"/><path d="M109.94,64.38c.33.75-.31,1.67.44,2.34l.06.48-.31.58a1,1,0,0,0,0,.46l0,.52c-.22.2-.44.58-.65.57-.53,0-.41-.5-.41-.85s0-.75.06-1.13C109.78,66.48,109.25,65.25,109.94,64.38Z" style="fill:#bebaba;fill-rule:evenodd"/><path d="M110.12,67.78a.57.57,0,0,1,.31-.58Z" style="fill:#84736f;fill-rule:evenodd"/><path d="M63.95,56.75c-.34.49-.64,1-1.35,1.17-.66-.69-.09-1.43-.09-2.13.77-.5,1.43-.54,1.87.43l0,0Q64.16,56.51,63.95,56.75Z" style="fill:#686f6f;fill-rule:evenodd"/><path d="M67.32,53.94c0,.17,0,.34,0,.5a.46.46,0,0,1-.49.36l-.49-.46A1,1,0,0,1,67.32,53.94Z" style="fill:#b2a0a0;fill-rule:evenodd"/><path d="M65.31,54.79l.55-.32Z" style="fill:#b2a0a0;fill-rule:evenodd"/><path d="M74.48,39.95,74,39.5A.62.62,0,0,1,74.48,39.95Z" style="fill:#7b716e;fill-rule:evenodd"/><path d="M72.56,39.48l-.49.39Z" style="fill:#7b716e;fill-rule:evenodd"/><path d="M38.49,31.77a3.63,3.63,0,0,1,1.11-.39q5.71,0,11.43.07c.29,0,.57.25.86.38-1.07,3.32-3.56,5.24-6.65,6.4A12.82,12.82,0,0,1,35.42,38a7.15,7.15,0,0,1-2.23-1.38c-.38-.37-1-.7-.75-1.36s.76-.47,1.22-.59A8.75,8.75,0,0,0,38.49,31.77Z" style="fill:#dad79a;fill-rule:evenodd"/><path d="M51.79,26.43l-8.71.05c-.62,0-1.27.09-1.76-.45.59-2.65-.57-4.81-1.95-6.91s-3.64-3.21-5.88-4.06a1.1,1.1,0,0,1,.67-.93c4.37-1.85,8.63-2,12.69.86.52.37,1.07.69,1.6,1a18,18,0,0,1,3.28,8.28A6.56,6.56,0,0,1,51.79,26.43Z" style="fill:#dcd89a;fill-rule:evenodd"/><path d="M62,101.38l2.77,0c1.47,2.33,2.79,2.93,5.5,2.44.93-.17,1.84-.4,2.76-.6a3.83,3.83,0,0,1,.64.27c2.08,1,4.46,1.2,6.57,2.16-.38.83-1.5.22-1.91,1-.76-.22-1.54-.4-2.29-.68a17.26,17.26,0,0,0-7.49-1.23,4.38,4.38,0,0,1-4-1.62C63.83,102.28,62.79,102,62,101.38Z" style="fill:#7a6763;fill-rule:evenodd"/><path d="M73.14,103.89l-.1-.64a5.58,5.58,0,0,1,3.4-2.45,16.18,16.18,0,0,1,3.84-1.27l0,.5c0,.61-.42.85-.85,1C77.23,101.8,75.3,103.11,73.14,103.89Z" style="fill:#978680;fill-rule:evenodd"/><path d="M62.49,69.22c.92,1.36.29,2.88.48,4.32C62,72.19,62.67,70.66,62.49,69.22Z" style="fill:#424666;fill-rule:evenodd"/><path d="M92.26,40.36c.25-.38.67-.4,1.05-.5A11.07,11.07,0,0,1,94.7,40c1.5.32,1.9.93,1.62,2.45-.08.46-.19.91-.28,1.36a3.32,3.32,0,0,1-1.86,1.82,1.12,1.12,0,0,1-.43.18l-.55-.58C94.62,42.67,94.56,42.33,92.26,40.36Z" style="fill:#67615e;fill-rule:evenodd"/><path d="M107.19,54.77c.8-.86.22-1.95.47-2.9.5.56.34,1.3.5,2a1.64,1.64,0,0,1,0,1.38l-.65.11A.52.52,0,0,1,107.19,54.77Z" style="fill:#958e88;fill-rule:evenodd"/><path d="M81.67,55.81c.77-.86,1.06-.1,1.43.42C82.58,56.23,82,56.4,81.67,55.81Z" style="fill:#3f4467;fill-rule:evenodd"/><path d="M63.95,56.75a.57.57,0,0,1,.41-.51A.51.51,0,0,1,63.95,56.75Z" style="fill:#948e8e;fill-rule:evenodd"/><path d="M95.79,90.65C96.38,87.3,97,84,97.54,80.6a2.16,2.16,0,0,1,.66-1.24,1.2,1.2,0,0,1,1.5-.34c.56.3.39.77.28,1.25-.85,3.63-1.67,7.26-2.52,10.89-.14.58-.45,1.11-1.15.87S95.59,91.25,95.79,90.65Z" style="fill:#82716e;fill-rule:evenodd"/><path d="M103.24,78.28c1,.22.45-.92,1-1.15.27-.11.5-.49.82-.4a.9.9,0,0,1,.59.95,3.41,3.41,0,0,1-.12.94c-1.12,3.65-1.25,7.53-2.7,11.1-.12.29-.1.64-.25.91a.92.92,0,0,1-1.18.54c-.5-.2-.29-.62-.2-1,.65-2.86,1.27-5.73,1.92-8.59.14-.63.33-1.25-.27-1.76C102.38,79.14,102.28,78.57,103.24,78.28Z" style="fill:#80716d;fill-rule:evenodd"/><path d="M103.24,78.28a1.64,1.64,0,0,0-.39,1.51,20.62,20.62,0,0,1-3.21,7.91c-.49-2.85,1.31-8.81,3.45-11.51C103.46,76.88,103.14,77.6,103.24,78.28Z" style="fill:#ceb893;fill-rule:evenodd"/><path d="M108.18,55.19q0-.69,0-1.38a1.49,1.49,0,0,0,.33,0q0,.71,0,1.42A.6.6,0,0,1,108.18,55.19Z" style="fill:#cec7c7;fill-rule:evenodd"/><path d="M92.72,111c-.26.46-.69.47-1.14.42A1.79,1.79,0,0,1,92.72,111Z" style="fill:#786c6a;fill-rule:evenodd"/><path d="M73.14,103.89a11.29,11.29,0,0,1,4.61-2.69,25.59,25.59,0,0,0,2.5-1.16c.39,0,.84-.09,1,.32a8.3,8.3,0,0,1,.41,3.66c0,1-1,1.11-1.44,1.66C77.68,105.85,75.39,104.93,73.14,103.89Z" style="fill:#f9fbfb;fill-rule:evenodd"/><path d="M84.57,106.18c-.22-2,1.08-3.35,2.17-4.78a.65.65,0,0,1,.83-.27.67.67,0,0,1,.14,1c-1,1.35-1.44,3.2-3.15,4Z" style="fill:#7d6e6a;fill-rule:evenodd"/><path d="M84.56,106.18c.13.36.73.49.61.92a.76.76,0,0,1-1,.45c-.94-.33-2-.39-2.86-1.33,1.11-1.12,2.21.29,3.23,0Z" style="fill:#786a68;fill-rule:evenodd"/><path d="M87,107.37c-.05.21-.12.44-.39.4a.35.35,0,0,1-.3-.46.52.52,0,0,1,.3-.29C86.87,106.92,86.95,107.13,87,107.37Z" style="fill:#bcc;fill-rule:evenodd"/><path d="M93.22,112.85a.71.71,0,0,1,.62-.36A.68.68,0,0,1,93.22,112.85Z" style="fill:#786c6a;fill-rule:evenodd"/><path d="M92.27,113.3l.61-.33A.66.66,0,0,1,92.27,113.3Z" style="fill:#786c6a;fill-rule:evenodd"/><path d="M91.77,112.42c.11-.21.43-.45.47-.35.22.55-.31.22-.47.35Z" style="fill:#786c6a;fill-rule:evenodd"/><path d="M91.77,112.42c0,.07-.09.19-.11.19s-.12-.11.11-.19Z" style="fill:#786c6a;fill-rule:evenodd"/><path d="M63.83,99c.08.66.36,1.36-.43,1.81C63.56,100.22,63.33,99.52,63.83,99Z" style="fill:#dcc39a;fill-rule:evenodd"/></svg>