<svg xmlns="http://www.w3.org/2000/svg" viewBox="0 0 207.81 93.22"><title>アセット 2</title><path d="M66.18,85.24c-1.21,0-2.19-.77-3.35-.91-.57-.64-.39-1.47-.49-2.52a11,11,0,0,1-6.41,2.81c-1.83.2-2.43-.3-2.11-2.1a10.6,10.6,0,0,0-1-6.93c-1-2.06-.91-4.49-1.63-6.7a19.31,19.31,0,0,0-3.25-6.06c-2.63-3.35-7.37-3.45-10.45-2.11-.9.39-2,1.43-2.81.5s.52-1.8.89-2.7a2.15,2.15,0,0,1,3.12-1.26,1.63,1.63,0,0,0,1.57-.12c1.87.21,3.84-.28,5.57.84a8.1,8.1,0,0,0,9,.84c2.23-1.12,4.48-2,6.88-1.21,2.77.91,5.69,1.68,7.78,4a11.93,11.93,0,0,0-.53,4.55c-.56,1.27-1.79,1-2.73,1-1.35,0-2.62.55-4.07.46,1.24.22,2.63-.85,3.45.31a8.46,8.46,0,0,1,1.35,5.44,12,12,0,0,1-1.67,5.22s.38-.11.38-.13c.3-.73.94-.74,1.6-.69C70,79.73,69.52,83.34,66.18,85.24Z" style="fill:#84736f;fill-rule:evenodd"/><path d="M60.94,39.25a1.8,1.8,0,0,1-.94,1c-1.1.84,0,1.5.22,2.2.29,1,.57,1.85-.77,2.23a1.48,1.48,0,0,1-1.29-.9c-1.75-1.35-3.34-.95-4.25,1.1-1.31,3-2.67,3.17-4.68.76a4.26,4.26,0,0,0-7.1,1,6,6,0,0,1-3.51,3.8c-2,.77-2.08,2.59-1.33,4.44,0,1.35-.7,1.68-1.88,1.11a24.78,24.78,0,0,0-2.87-1.68c-1-.33-.51-1.15,0-1.48,2.86-2,1.79-5,2-7.65.08-1-.57-1.56-1.32-2.08-4.21-2.9-4.34-7.46-.34-10.59,4-1.32,7.65.45,8.92,4.34.15.46.08.63.63.33.77-.41,1.71-.05,2.54-.39a5.36,5.36,0,0,1,3.35.27.66.66,0,0,1,.26.65,2,2,0,0,1-2,.06,2.88,2.88,0,0,0,2.94-.41A3.27,3.27,0,0,0,52.16,35a6,6,0,0,1,6.69-3.42,3.29,3.29,0,0,1,2.48,3.16A12.3,12.3,0,0,1,60.94,39.25Z" style="fill:#84736f;fill-rule:evenodd"/><path d="M33,32.5a4.68,4.68,0,0,1-.7.94c-2.24,1.8-1.8,4.3-1.55,6.62.12,1.18,1.31,1.95,2.35,2.54,1.36.77,2.2,1.77,1.85,3.44a1.18,1.18,0,0,0,0,.24c0,4.36,0,4.36-2.69,7.65,1.48,0,2.23,1.05,3.29,1.64,1.21.68,1.34-.07,1.34-1a.66.66,0,0,1,.6-.09,9,9,0,0,1,2.28,3c0,.3.52.9-.22.79-.9-.14-1.79-1.22-2.66-.59a8.9,8.9,0,0,0-1.79,2.48,4,4,0,0,0-.32.83c.5.39.85,0,1.13-.16,2.25-1.57,4.79-1.59,7.35-1.41,2.73.2,4.41,2.1,5.93,4.05,2.21,2.84,3.05,6.25,3.5,9.74a6.63,6.63,0,0,0,.86,2.69,8.5,8.5,0,0,1,.81,6.67c-.36,1.59-.16,1.68,1.51,1.47a10.13,10.13,0,0,0,5.83-2.44,2.57,2.57,0,0,1,1.88-.91,11.35,11.35,0,0,0-.76,3.68c-2.81,2.21-5.6,4.45-9.47,4.35a5.34,5.34,0,0,1-2.53-.55.39.39,0,0,1,.13-.56,3,3,0,0,1,1.82-.46c2.72.33,4.93-.83,7.51-2.65-3.52,1.2-6.88,1.11-9.52,3.25a1.65,1.65,0,0,1-1.35.1.83.83,0,0,1-.2-.65,2.65,2.65,0,0,1,.86-1.11c3.92-3.49,4.17-7.51.7-11.38a3.27,3.27,0,0,1-.54-.78,1.18,1.18,0,0,1,.21-1c.72-.86.41-1.8.18-2.73a17.67,17.67,0,0,0-2.75-6C44.77,59.78,40,59.22,36,62.81c-.94.84-1.54,2-2.78,2.54-1.46-.14-.79-1.47-1.2-2.19-1.64-.09-2.14,2.31-4,1.78a1.11,1.11,0,0,1,.15-1c.71-1.25,2.09-1.65,3.14-2.48,1.31-1,2.79-1.85,3.71-3.31.56-.88.69-1.63-.5-2.07-1-.38-1.66-1.46-2.91-1.53-.75,0-.8-.65-.5-1.25a1.25,1.25,0,0,1,.47-.53c3.56-1.84,1.79-5.33,2.47-8,.19-.76-.62-1-1.18-1.28a6.92,6.92,0,0,1-2.16-9.86,2.42,2.42,0,0,1,1.73-1.16A.39.39,0,0,1,33,32.5Z" style="fill:#6c6562;fill-rule:evenodd"/><path d="M49.37,87.2a3.34,3.34,0,0,0,.08.43c-.89.46-1.89.65-2.78,1.13-1.5.81-2.85.25-4.16-.54a.48.48,0,0,1-.38-.49c-.28-1.37.57-2,1.59-2.62.87-.5,2-.74,2.2-2C44,83.2,43,85.43,41,85c-3.64-1-4.88-4-6-7.11a2.6,2.6,0,0,1,.45-2.69c.73-.46.91,1.09,1.69.46,3.12-1.45,4.65-1.1,7.33,1.19,1.17,1,1.58,2.83,3.4,3.09C48.39,82.37,50.69,84.41,49.37,87.2Z" style="fill:#84816f;fill-rule:evenodd"/><path d="M70.52,76.69a19.45,19.45,0,0,1,9-1.92,3.26,3.26,0,0,1,2.05.43A9.21,9.21,0,0,1,84.9,85.28a24.69,24.69,0,0,1-12.47,1.38c-.22-.63.21-1,.48-1.51,1.54-2.64,1.31-4.12-.93-6.27C71.35,78.26,70.26,77.92,70.52,76.69Z" style="fill:#575656;fill-rule:evenodd"/><path d="M88.71,19c0-1.41.88-2.54,1.33-3.81a31,31,0,0,0,1-2.93,3.36,3.36,0,0,1,2.83-2.84.49.49,0,0,1,.65,0c-1.61,2.17-1.69,5-3.17,7.26a2.67,2.67,0,0,0,.81,4c4.73,2.73,8.79,6.68,14.35,7.94a17.32,17.32,0,0,0,5.7.29c1.32-.14,2.22-.62,1.94-2.33s.23-2.25,2.12-1.93c1.73.3,3.38,1,5.16,1a15,15,0,0,0,2.63-.08c3.11-.51,3.82-2.08,2-4.64a16.31,16.31,0,0,0-4.47-4.29c-1.09-.72-2.1-1.48-2-3A1.65,1.65,0,0,0,118.55,12c-.48-.24-1.38-.29-.9-1.26a2.1,2.1,0,0,1,1.43.14c2.46.62,2.53.64,2.38,2.87a1.69,1.69,0,0,0,.85,1.56c1.06.85,2.16,1.66,3.15,2.58a11.05,11.05,0,0,1,3.11,4.76c.62,2,.34,2.77-1.56,3.59a12.79,12.79,0,0,1-7.51.73c-1.08-.19-2.1-.77-3.25-.6.18,2.53-.15,3-2.59,3.72a12.72,12.72,0,0,1-7.09.12A26.63,26.63,0,0,1,96.19,25c-1.63-1.41-3.7-2.19-5.59-3.21-.2-.11-.58.12-.88.19-.31.23-.22.69-.51.93h0C87.43,21.79,88.86,20.3,88.71,19Z" style="fill:#686a65;fill-rule:evenodd"/><path d="M86.4,28.85c-1.7,4.53-3.72,8.95-5.11,13.59-1.83,6.09-3.56,12.2-5,18.38a1.46,1.46,0,0,1-1.89.15.55.55,0,0,1,0-.74c1.77-6.36,3.47-12.73,5.32-19.07A64.57,64.57,0,0,1,84.75,28.1c1.24,0,.89-1.26,1.48-1.76.34-.28.6-.85,1.14-.35.27.25.09.59,0,.89a.31.31,0,0,1-.12.34,1.35,1.35,0,0,0-.36.62.31.31,0,0,1-.12.34A1.16,1.16,0,0,0,86.4,28.85Z" style="fill:#676e67;fill-rule:evenodd"/><path d="M74.34,60.81h1.9c2,1.61,2.1,4.84-.18,5.83-2.11.92-2.6,2.47-3.17,4.24-.21.32-.51.7-.88.42s-.36-.92-.1-1.42c.1-2.19.1-2.19-2.38-2.42a2.57,2.57,0,0,1-.94-1.39c-.6-1.52-.9-3,.46-4.3a1.45,1.45,0,0,1,1.73-1.21C72,60.72,73.18,60.34,74.34,60.81Z" style="fill:#565656;fill-rule:evenodd"/><path d="M144.41,84.35a4.72,4.72,0,0,1-1.28-1.69c-1.14-2-.54-3.63,1.76-4.06,1.48-.28,1.64-.89,1.31-2.07a7.56,7.56,0,0,1-.14-3.54c.16-.77-.27-1.18-.68-1.65-.1-.45.18-.65.54-.79a1.74,1.74,0,0,1,1,.06c1.32.78.27,2.07.72,3.29a7.87,7.87,0,0,1,7.89-.19c2.15,1,3.33,2.91,4.51,4.82,1.46,2.37,1.5,2.45,3.83,1.13,1.84-1,3.55-1.3,5.39-.11a8.16,8.16,0,0,0,2.21.93c.79.23,1.69.43,2.15-.43s-.84-1-1-1.62c-.08-.46.23-.6.58-.7a.81.81,0,0,1,.24,0c2.43.57,3,1,2.81,1.88a4,4,0,0,1-4.41,2.61,15,15,0,0,1-4.17-1.71,1.76,1.76,0,0,0-2.18,0,34.17,34.17,0,0,1-3.1,1.76c-.48.25-.77.53-.7,1.09.28.38,0,.56-.27.73a1.45,1.45,0,0,1-.64,0,2.3,2.3,0,0,1-.81-.55,2.63,2.63,0,0,1-.56-.82,3.87,3.87,0,0,1-.18-.65,9.46,9.46,0,0,0-5.3-6.93,4.57,4.57,0,0,0-3-.35c-2.41.54-3.12,2.06-1.94,4.23a7.86,7.86,0,0,1,.85,1.43.82.82,0,0,1-.49.82,2.89,2.89,0,0,1-2.63-.65c-.61-.37-1.25-.8-1.94-.21s-.47,1.41-.08,2.13a2.49,2.49,0,0,1,.43,1.33C145,84.23,144.85,84.49,144.41,84.35Z" style="fill:#807d72;fill-rule:evenodd"/><path d="M74.34,60.81a29.52,29.52,0,0,1-3,0,2.44,2.44,0,0,0-2.23,1c0-.69-.52-.85-1.07-1.07-1.74-.7-3.45-1.54-5.15-2.26a6.88,6.88,0,0,0-5.67-.08c-.78.39-1.57.76-2.34,1.17-3,1.61-6,.71-8.92-.35-.33-.12-.31-.52-.36-.83a1.92,1.92,0,0,1,2-.17,9.81,9.81,0,0,0,9.37-1.57,9.28,9.28,0,0,0,4.23-3.7c1.83-2.75,1.5-3.78-1.53-4.79-.31-1.15-.92-2.27-.27-3.49.56-.6.92-1.18.36-2a2.84,2.84,0,0,1-.7-2.2c.17-.73.57-.61,1-.14a63,63,0,0,1,2,6.8c.14.79.8,1.08,1.49,1.39a1.29,1.29,0,0,1,.66,2c-.56,1-.72,2.3-1.59,3.17a1.51,1.51,0,0,0-.05,2.14A7.88,7.88,0,0,0,66,58.84a13.89,13.89,0,0,0,8.3,1.39Z" style="fill:#706764;fill-rule:evenodd"/><path d="M84.9,85.28c-.18-.43-.6-.87-.4-1.32,1-2.26-.1-4.11-1.1-6L83,77.15c-.38-.53-.22-1,.36-1.07,1.69-.33,6.54,2.73,7.17,4.49.89,2.44.32,3.4-2.22,3.78-.5.07-1.14-.18-1.43.51A2.53,2.53,0,0,1,84.9,85.28Z" style="fill:#83736f;fill-rule:evenodd"/><path d="M35.93,75.22a1.18,1.18,0,0,0-.46.79c-.35,3.05,2.09,7.13,5,8.33a5.75,5.75,0,0,1,.78.47c-.21.39-.64.23-.94.4a6.07,6.07,0,0,1-4.07-3.29A26.81,26.81,0,0,0,34,78.64c-.28-.65.37-1.11.33-1.71C34,72.53,40,69.1,43.8,70.69a17,17,0,0,0,4.86,1.14c.89.09,2,.19,2.21,1.42l-.51.42c-.27.41-1.5.3-.69,1.3a4.07,4.07,0,0,1,.82,1.45c.13.48.19,1-.31,1.27s-.91,0-1.26-.37A12.18,12.18,0,0,1,48,76.24c-3.72-4.42-6.65-4.79-11.17-1.39A1.72,1.72,0,0,1,35.93,75.22Z" style="fill:#7b756c;fill-rule:evenodd"/><path d="M145.84,70.9l-.45.44a2,2,0,0,1-1.11-.86c-1-1.36-.71-2.06.93-2.09a5.89,5.89,0,0,0,3.65-1.46c3-2.29,5.87-2.41,8.75-.21a28.76,28.76,0,0,1,7.59,9.14c.6,1.08,1.19,2.12,2.71,1.84a.69.69,0,0,1,.19.64c-1.85,1.26-3,.12-3.87-1.28a56.15,56.15,0,0,0-4-5.94,20.39,20.39,0,0,0-2.49-2.59c-3-2.49-5.37-2.49-8.36,0a5.06,5.06,0,0,1-1.76,1.21C146.79,69.82,145.67,69.41,145.84,70.9Z" style="fill:#888576;fill-rule:evenodd"/><path d="M66.18,85.24a11.9,11.9,0,0,0,2.06-3.42,3,3,0,0,0-1.08-3.74c-.3-.95.7-.53.94-.9L69,77l.36.08a2.22,2.22,0,0,1,.68.25c3.07,2.84,2,5.89.45,9A9.37,9.37,0,0,1,66.18,85.24Z" style="fill:#575656;fill-rule:evenodd"/><path d="M70.5,86.33a1.82,1.82,0,0,1,.09-2c1.52-2.53,1.15-4.47-1-6.78a4.43,4.43,0,0,0-.48-.39L69,77c.41-.51,1-.38,1.51-.35a4.42,4.42,0,0,0,1.68,1.58,7.49,7.49,0,0,1,2.4,3.67c.32.88-.15,1.5-.41,2.22a14.08,14.08,0,0,1-1.75,2.49C71.76,86.74,71.06,86.93,70.5,86.33Z" style="fill:#80716e;fill-rule:evenodd"/><path d="M28.19,64l.08,1.18c.71,1.62,2.69,2.12,3.34,3.79-1.78,1.39-4,1.36-6.06,1.73a1.43,1.43,0,0,1-1.36-2.37A15.07,15.07,0,0,1,28.19,64Z" style="fill:#5a5a5a;fill-rule:evenodd"/><path d="M68.1,77.19l-.95.9c-.8-.07-1.39.76-2.33.56a4,4,0,0,1,.86-2.39c1.35-2.65.79-5.21-.25-7.77a.82.82,0,0,0-1.12-.55,14.51,14.51,0,0,0-2.1.36A2.29,2.29,0,0,1,60,68.11a4.08,4.08,0,0,1,2.62-1.06c1.65-.15,3.27-.66,5-.5a1.16,1.16,0,0,0,1-.48,1.47,1.47,0,0,1,.94,1.39c-3,.16-3,.16-2.42,3.19a10.11,10.11,0,0,1-.19,5.14C66.49,77.13,67.34,77,68.1,77.19Z" style="fill:#716968;fill-rule:evenodd"/><path d="M31.61,68.94c-.45-.59-1.21-.7-1.77-1.12-.89-.66-1.75-1.37-1.57-2.68A9.43,9.43,0,0,1,32.84,62c.55,1-1,2.15.2,3.09a2.89,2.89,0,0,1,.63,2.32c-.16.63,0,1.46-1.06,1.49Z" style="fill:#83736f;fill-rule:evenodd"/><path d="M60.94,39.25c-.26-.21-.5-.45-.34-.8a5.61,5.61,0,0,0,.29-2.35c0-2.34-.75-3.73-2.18-4-2.05-.45-5,.81-5.77,2.49a4,4,0,0,0-.28.91,2.65,2.65,0,0,1-3.28,2.32l-.15-.3a1.19,1.19,0,0,1,.24-.61c1.51-1,1.66-2.11.34-3.38a.7.7,0,0,1,0-.63.94.94,0,0,1,.94.05.33.33,0,0,0,.34.13,1.66,1.66,0,0,0,1.32,0A9.07,9.07,0,0,1,58.36,31a2.94,2.94,0,0,1,2.86,1.76C62,34.9,62.49,37.14,60.94,39.25Z" style="fill:#756967;fill-rule:evenodd"/><path d="M129.56,87.3a11.47,11.47,0,0,0,3.27.34c1.17,0,1.74.67,1.56,1.6a1.35,1.35,0,0,1-2,.94c-.89-.47-1.35-.21-2.05.27a4.18,4.18,0,0,1-2,.56c-1.67.1-3.35.1-5,.1-.83,0-1.66-.15-1.88-1.12s.55-1.55,1.37-1.94a8.44,8.44,0,0,1,2.53-.67.88.88,0,0,1,.56.35c-.09,1.14-1.38.82-2,1.7a26.45,26.45,0,0,0,4,.07c1.06,0,1.59-.52,1.46-1.62A.91.91,0,0,1,129.56,87.3Z" style="fill:#8c8485;fill-rule:evenodd"/><path d="M86.85,84.86c-.18-.13-.83-.18-.39-.44A5.6,5.6,0,0,1,89,83.8c1-.06,1.42-.52,1.29-1.71a4.13,4.13,0,0,0-2.45-3.74,25.8,25.8,0,0,0-3.88-1.76c-.58-.15-.91-.11-1,.55-.86-.37-1-1.25-1.44-2a13,13,0,0,1,10.09,5.42c.75,1,.06,2,.19,2.94s-1,.71-1.66,1A9.25,9.25,0,0,1,86.85,84.86Z" style="fill:#736665;fill-rule:evenodd"/><path d="M121.36,82.48c-2.76,1.19-5.67,1.07-8.58.95a7.23,7.23,0,0,1-3.59-1,1.54,1.54,0,0,1,.95-.6c2.44-.35,4.93.2,7.73-.42-1.55-1.27-3.36-.34-4.62-1.29a.46.46,0,0,1,0-.66c1.82-.87,3.62-.45,5.41.11.58.18,1.08.64,1.75.39a8.73,8.73,0,0,0,.76.85,1.57,1.57,0,0,1,.52,1.08A.89.89,0,0,1,121.36,82.48Z" style="fill:#918788;fill-rule:evenodd"/><path d="M119.07,10.86l-1.55,0a8.79,8.79,0,0,1-8.4-.74A9.24,9.24,0,0,0,104,8.7a31.18,31.18,0,0,0-6.61,1c-1,.21-2,.62-3-.19l-.57-.06C95.84,8.15,98.1,8,100.28,7.63a28.82,28.82,0,0,1,7.87-.15c1,.13,1.83.25,2.15,1.46s1.39.87,2.23.91A20.22,20.22,0,0,1,119.07,10.86Z" style="fill:#836c68;fill-rule:evenodd"/><path d="M161.18,83.88l.53-.52a5.81,5.81,0,0,1,1.37,3c.48,2.17-.4,3.46-2.56,3.09a19.57,19.57,0,0,0-4.71.21c-2.66.15-3.49-.59-3.79-3.38a14,14,0,0,0,.38-1.66,1,1,0,0,1,.95-.65,2.29,2.29,0,0,1,.63.1,3.26,3.26,0,0,1,.87.45.89.89,0,0,1,.31.57,1.25,1.25,0,0,1-.29.6c-.43.53-1.23,1-.76,1.8.36.64,1.09.54,1.71.58,1.65.1,3.21-.76,4.93-.38.64.14.73-.67.69-1.26C161.37,85.58,160.79,84.78,161.18,83.88Z" style="fill:#8a827d;fill-rule:evenodd"/><path d="M153.57,84.32a1,1,0,0,0-1,.52c.29.88-.62,1-.95,1.46-2.61,2.56-2.59,2.54-5.26.05a7.9,7.9,0,0,1-2-2l.48-.47c1.21-.28,2,.61,2.57,1.31,1.34,1.55,2.3,1.09,3.43-.19,1.42-1.62,0-2.14-1-2.86-.38-.28-.79-.53-.77-1.09l.56-.41c1.77-.32,3.09.84,4.6,1.37a1.21,1.21,0,0,1,.37.48c.05.43-.24.7-.46,1-.08.15-.18.3-.27.46A2.42,2.42,0,0,1,153.57,84.32Z" style="fill:#8b8179;fill-rule:evenodd"/><path d="M33,32.5l-.56,0c2.82-1.91,5.32-.62,7.76.84a9,9,0,0,1,1.52,1.5c.5.49,1.3.5,1.73,1.09.46.41,1,.75,1.09,1.44a.81.81,0,0,1-1,.36c-1.66-.86-.68.75-1.18,1.22A1.7,1.7,0,0,1,41.22,37c.12-1.61-.91-2.38-2.09-3.14A9.22,9.22,0,0,0,33,32.5Z" style="fill:#7b6766;fill-rule:evenodd"/><path d="M87.36,26.88c-.17-.19.07-1-.54-.5a5.2,5.2,0,0,0-.9,1.61c-.34.66-.77.2-1.18.11a56.81,56.81,0,0,1,4-9.1c.16,1,.77,1.87.13,2.89-.22.35,0,.74.36,1A18.59,18.59,0,0,1,87.36,26.88Z" style="fill:#6f796e;fill-rule:evenodd"/><path d="M40.28,85.21a1.07,1.07,0,0,1,.94-.4c1.87-.72,3.34-2.27,5.36-2.66.31,1.63-.41,2.57-1.92,3.12-1.18.43-2.32,1-2.54,2.46C41.22,87.1,41.35,85.71,40.28,85.21Z" style="fill:#696963;fill-rule:evenodd"/><path d="M61.88,14.25C60.26,13,60,11.1,61.32,9.85a2.32,2.32,0,0,1,2.83-.59,2.57,2.57,0,0,1,1.24,2.83c-.24.94-.57,1.85-1.7,2.07-.32-.15-.58-.34-.55-.75a3.1,3.1,0,0,1,.13-.46c.19-.58.74-1.12.26-1.78a.61.61,0,0,0-.85-.16,1.54,1.54,0,0,0-.6,1.69,7.22,7.22,0,0,1,.09,1A1.25,1.25,0,0,1,61.88,14.25Z" style="fill:#9e9696;fill-rule:evenodd"/><path d="M204.37,23.58a3,3,0,0,1,1.32-2.78,1,1,0,0,1,1.3.12,3.14,3.14,0,0,1,.6,3.31c-.31.83-.73,1.63-1.81,1.58C204.93,25.76,204.4,24.93,204.37,23.58Z" style="fill:#989393;fill-rule:evenodd"/><path d="M115,41a2,2,0,0,1,1.68-2.21c1,0,2.25,1.47,2.27,2.68a2,2,0,0,1-1.92,2A2.28,2.28,0,0,1,115,41Z" style="fill:#9c9595;fill-rule:evenodd"/><path d="M203.06,50.67c0,1.73-.77,3-1.79,2.94s-1.61-1.43-1.44-3.12.79-2.71,1.79-2.67S203.08,48.8,203.06,50.67Z" style="fill:#928e8e;fill-rule:evenodd"/><path d="M79.07,2.39A2.32,2.32,0,0,1,80.93,0a2.41,2.41,0,0,1,2,2.5,2.26,2.26,0,0,1-2.08,2.19C79.78,4.7,79,3.76,79.07,2.39Z" style="fill:#979292;fill-rule:evenodd"/><path d="M198.63,86.36a12.71,12.71,0,0,1,1.65-.11.72.72,0,0,1,.67.82c0,.35-.2.74-.49.73-1.91-.07-3.63,1.1-5.56.84a1.79,1.79,0,0,1-.47-.09c-.5-.22-1.11-.37-1-1.11.07-.58.53-.74,1-.79.24,0,.48,0,.71,0l.24.07a1.18,1.18,0,0,1,.1.46c.55.21,1-.13,1.57-.16l.8-.32C198.12,86.57,198.38,86.48,198.63,86.36Z" style="fill:#947f80;fill-rule:evenodd"/><path d="M32.62,68.95c.54-.37.41-1,.51-1.48,1.49.63,1,2,1.08,3.08.23,2.33-.45,4.76.72,7-.08.57-.77.61-1,1.09-1.22-1.15-1.28-2.71-1.37-4.19C32.48,72.62,32.6,70.78,32.62,68.95Z" style="fill:#918c87;fill-rule:evenodd"/><path d="M15.33,40.61c-.28-.13-.64-.18-.82-.39a2.75,2.75,0,0,1,.2-4c.92-.69,2-.41,2.82.74,1.05,1.47.82,2.5-.83,3.63a1.18,1.18,0,0,1-.27-.59c-.06-.67.34-1.42-.48-2.06-.85.56-.26,1.39-.36,2.06A1.19,1.19,0,0,1,15.33,40.61Z" style="fill:#9a9292;fill-rule:evenodd"/><path d="M174.21,11.4a2.46,2.46,0,0,1-2.36,2.19,1.87,1.87,0,0,1-1.49-2.08,2.1,2.1,0,0,1,1.9-2A2,2,0,0,1,174.21,11.4Z" style="fill:#978d8d;fill-rule:evenodd"/><path d="M3.79,22.44C2,23.09,1.21,23,.47,21.87a3.67,3.67,0,0,1,.64-4.4c1.06-1,1.71-1,3.32.09a1.18,1.18,0,0,1-.5.44c-1.06.28-2.18.51-2.3,1.9-.14,1.63,1.48,1.28,2.21,1.94A.45.45,0,0,1,3.79,22.44Z" style="fill:#998e8e;fill-rule:evenodd"/><path d="M104.57,92.42a3.81,3.81,0,0,1-2.91.5.76.76,0,0,1-.17-.6c.59-1.06,2.91-1,1.92-3.09a1.15,1.15,0,0,1,.13-.65.5.5,0,0,1,.61,0l.92.53c.24.26.58.18.87.26a1.3,1.3,0,0,1,.43.45c0,1.05,1.54,1,1.51,2.07a.31.31,0,0,1-.29.15,2.69,2.69,0,0,1-2.07-.06l-.18,0h-.19A3.49,3.49,0,0,0,104.57,92.42Z" style="fill:#828082;fill-rule:evenodd"/><path d="M71.91,69.9c.15.51-.26,1.56,1,1a7.94,7.94,0,0,1-.78,3.42c-.24.54-.6,1-1.26.74s-.53-.76-.42-1.22A11.41,11.41,0,0,1,71.91,69.9Z" style="fill:#727674;fill-rule:evenodd"/><path d="M40.28,6.57C38.89,5.51,38.55,4.14,39.47,3a1.6,1.6,0,0,1,2.12-.53A2.16,2.16,0,0,1,43,4.75c-.13.76-.41,1.56-1.38,1.74a1.54,1.54,0,0,1-.29-.58c-.11-.56.22-1.2-.32-1.76-.84.49-.37,1.23-.46,1.83A1.22,1.22,0,0,1,40.28,6.57Z" style="fill:#9a9494;fill-rule:evenodd"/><path d="M181.49,90.17a6.87,6.87,0,0,1-4.28.91c-.78,0-1.8,0-1.89-1s.75-1.43,1.75-1.37c.25.11.52.2.64.48,1,.76,2.14-.28,3.17.16A1.08,1.08,0,0,1,181.49,90.17Z" style="fill:#918e8e;fill-rule:evenodd"/><path d="M189.51,83.78c-1.18-.28-2.2.6-3.36.47-1.14-.57-3,.62-3.52-1.45a.94.94,0,0,1,1-.41c1.15-.44,2.35-.12,3.52-.21C188.07,82.53,189.25,82.48,189.51,83.78Z" style="fill:#878080;fill-rule:evenodd"/><path d="M42.5,88.22c1.81.45,3.57.72,5.3-.37.42-.27,1.09-.15,1.64-.21l1.37.07h0c0,.15,0,.3,0,.45-1.53-.41-2.7.56-4,1.07C45.15,89.88,43.65,89.89,42.5,88.22Z" style="fill:#757d7b;fill-rule:evenodd"/><path d="M95.49,92.93a1.54,1.54,0,0,1-2-1.2c-.21-.88.39-1.49,1-2a6.54,6.54,0,0,1,2.89-.94.94.94,0,0,1,.56.32c0,.84-.72.92-1.26,1.16a1.56,1.56,0,0,0-1,2.06A.93.93,0,0,1,95.49,92.93Z" style="fill:#968e8f;fill-rule:evenodd"/><path d="M107.88,91.94c-1.14-.38-2.24-.8-1.9-2.37-.11-.45.13-.56.5-.54.14.09.13.34.27.4s.2-.1.11-.27a1.29,1.29,0,0,1,.64-.41C109.12,90.21,109.13,90.3,107.88,91.94Z" style="fill:#929899;fill-rule:evenodd"/><path d="M3.6,17.72l.83-.17c2,2,1.82,3-.64,4.88l-.05-.63A7.93,7.93,0,0,0,3.6,17.72Z" style="fill:#9b9494;fill-rule:evenodd"/><path d="M43.19,36.3l-1.44-1.51c.56.09.77-.29,1.08-.67a3.49,3.49,0,0,1,2.73-1.56.73.73,0,0,1,.2.58C45,34.26,44,35.24,43.19,36.3Z" style="fill:#9e8c8c;fill-rule:evenodd"/><path d="M110.4,82.38l-1.21.1c-1.12-.46-1-1.14-.23-1.79a3.94,3.94,0,0,1,2.82-1.07.69.69,0,0,1,.19.6C111.65,81.09,110.15,81.1,110.4,82.38Z" style="fill:#a2898b;fill-rule:evenodd"/><path d="M181.83,88.73a2,2,0,0,0,1.53-.33.88.88,0,0,1,1.27.69c.18.7-.31,1-.93,1.08a15.57,15.57,0,0,1-1.89-.13A.94.94,0,0,1,181.83,88.73Z" style="fill:#a99f9f;fill-rule:evenodd"/><path d="M179.95,29.17c2.07,1.7,1.94,2.82-.51,4.27a.94.94,0,0,1-.25-.59,5.63,5.63,0,0,0,.45-3.12A1,1,0,0,1,179.95,29.17Z" style="fill:#9b9797;fill-rule:evenodd"/><path d="M95.49,92.93l0-.49a6.55,6.55,0,0,1,6.24.05,3.46,3.46,0,0,1,0,.43A16.74,16.74,0,0,1,95.49,92.93Z" style="fill:#825a5a;fill-rule:evenodd"/><path d="M181.83,88.73l0,1.31a.48.48,0,0,1-.32.14l-.68-.61c-1.06-.43-2.3.59-3.28-.42l-.46-.38A13.92,13.92,0,0,1,181.83,88.73Z" style="fill:#866;fill-rule:evenodd"/><path d="M178.53,33.39c-1.54-1.32-1.54-2.83,0-4.17a1.27,1.27,0,0,1,.32.54,16.35,16.35,0,0,0,0,3.09A1.46,1.46,0,0,1,178.53,33.39Z" style="fill:#9a9797;fill-rule:evenodd"/><path d="M123.25,79.71c1.89,1.13,2,1.54.47,2.64-.13-.15-.25-.3-.37-.46-.26-.63-.82-1.16-.65-1.94A1,1,0,0,1,123.25,79.71Z" style="fill:#989193;fill-rule:evenodd"/><path d="M182.62,82.81c.81,1.36,2.44.74,3.52,1.45a6,6,0,0,1-2.55.09C182.78,84.22,182,83.9,182.62,82.81Z" style="fill:#837f7f;fill-rule:evenodd"/><path d="M167.93,78.13a3.53,3.53,0,0,0,0-.43,16.15,16.15,0,0,1,5.32,0l-.5.39A4.27,4.27,0,0,1,167.93,78.13Z" style="fill:#945858;fill-rule:evenodd"/><path d="M123.25,79.71l-.48.35a3,3,0,0,1-1.93.9c-.88,0-.58-.5-.48-1C121.24,79,122.26,79.48,123.25,79.71Z" style="fill:#a06d6d;fill-rule:evenodd"/><path d="M104.14,88.63l-.52.07c-1.2.85-2.49.64-3.8.37a1.07,1.07,0,0,1-.56-.53A6.14,6.14,0,0,1,104.14,88.63Z" style="fill:#d18282;fill-rule:evenodd"/><path d="M189.51,83.78c-.53-.6-1.65-.38-1.89-1.37a.89.89,0,0,1,.66-.22c.59,0,1.21-.14,1.77.2h0a1.1,1.1,0,0,1,0,1.31Z" style="fill:#837f7f;fill-rule:evenodd"/><path d="M129.56,87.3a3.71,3.71,0,0,0,0,.42,3,3,0,0,1-3.79,0l-.5-.37A10.44,10.44,0,0,1,129.56,87.3Z" style="fill:#945858;fill-rule:evenodd"/><path d="M45.54,33.06v-.5a12,12,0,0,1,4.32-.07q.22.16.14.32c-.05.1-.1.15-.15.15v0A3.7,3.7,0,0,1,45.54,33.06Z" style="fill:#816767;fill-rule:evenodd"/><path d="M188.07,82.39l-.45,0h-4a6.5,6.5,0,0,1,4.47-.27Z" style="fill:#a96565;fill-rule:evenodd"/><path d="M123.76,81.85l0,.5c-.79.07-1.53.81-2.36.13V81.9A1.8,1.8,0,0,1,123.76,81.85Z" style="fill:#895a5a;fill-rule:evenodd"/><path d="M198.63,86.36l-.51.42a2.53,2.53,0,0,1-2.81,0l-.15-.09C196.27,85.94,197.45,86.22,198.63,86.36Z" style="fill:#b56363;fill-rule:evenodd"/><path d="M106.55,89.21l-.57.36-.39,0a.37.37,0,0,1-.19-.32c0-.13,0-.2.06-.2.56-.78,1.32-.48,2-.36l-.54.45C106.82,89.38,106.69,89.37,106.55,89.21Z" style="fill:#a16262;fill-rule:evenodd"/><path d="M151.63,86.3c.08-.64.7-.93.95-1.46.89.91-.11,1.07-.57,1.45l-.19,0Z" style="fill:#a7b1af;fill-rule:evenodd"/><path d="M61.88,14.25l0-.56a1,1,0,0,1,1.42.06l.41.41A2.36,2.36,0,0,1,61.88,14.25Z" style="fill:#976060;fill-rule:evenodd"/><path d="M105.51,92l2.07.06A1.39,1.39,0,0,1,105.51,92Z" style="fill:#929899;fill-rule:evenodd"/><path d="M97.94,89.21l-.54-.4,1.85-.27,0,.16a.45.45,0,0,1,0,.6A1.05,1.05,0,0,1,97.94,89.21Z" style="fill:#a36a6b;fill-rule:evenodd"/><path d="M188.07,82.39a1.19,1.19,0,0,1,0-.26c.66,0,1.38-.52,1.94.26Z" style="fill:#878080;fill-rule:evenodd"/><path d="M111.77,80.1v-.48l1.43-.12c0,.15,0,.29,0,.44A1,1,0,0,1,111.77,80.1Z" style="fill:#9d5f60;fill-rule:evenodd"/><path d="M178.52,29.72v-.5a1.92,1.92,0,0,1,1.44-.06l0,.52A1.07,1.07,0,0,1,178.52,29.72Z" style="fill:#8a6262;fill-rule:evenodd"/><path d="M190,83.69q0-.65,0-1.31C190.66,82.83,190.63,83.27,190,83.69Z" style="fill:#878080;fill-rule:evenodd"/><path d="M16.73,40.09l0,.51a2.12,2.12,0,0,1-1.38,0l0-.51A1.06,1.06,0,0,1,16.73,40.09Z" style="fill:#896666;fill-rule:evenodd"/><path d="M40.28,6.57l0-.49a1.07,1.07,0,0,1,1.43,0,1.81,1.81,0,0,0,0,.46A2,2,0,0,1,40.28,6.57Z" style="fill:#925c5c;fill-rule:evenodd"/><path d="M52.46,33.05c-.45.54-.89.54-1.32,0Z" style="fill:#f7fafa;fill-rule:evenodd"/><path d="M49.86,33q0-.24,0-.47a1,1,0,0,1,.92.42Z" style="fill:#f7fafa;fill-rule:evenodd"/><path d="M89.2,22.88a.9.9,0,0,1,.51-.93A1.16,1.16,0,0,1,89.2,22.88Z" style="fill:#6f796e;fill-rule:evenodd"/><path d="M178.53,33.39l0-.54a.85.85,0,0,1,.95,0l0,.63Z" style="fill:#7a6868;fill-rule:evenodd"/><path d="M86.4,28.85a.71.71,0,0,1,.35-.66A.69.69,0,0,1,86.4,28.85Z" style="fill:#6f796e;fill-rule:evenodd"/><path d="M86.87,27.85a.7.7,0,0,1,.36-.62A.64.64,0,0,1,86.87,27.85Z" style="fill:#6f796e;fill-rule:evenodd"/><path d="M105.45,89.1l.14.52-.52-.46A.87.87,0,0,1,105.45,89.1Z" style="fill:#929899;fill-rule:evenodd"/><path d="M104.57,92.42a.65.65,0,0,1,.57-.37Z" style="fill:#929899;fill-rule:evenodd"/><path d="M57.48,57C54.8,58.9,52,60.16,48.57,59a29.43,29.43,0,0,0-3-.67,2.76,2.76,0,0,0-2.26-.45,11.1,11.1,0,0,1-3.51-.45,6.83,6.83,0,0,1-2.47-2.86,2.94,2.94,0,0,1,1-4.16c1.56-1.19,2.81-.42,4,.66,1.47,2,3.65.93,5.5,1.29a1.15,1.15,0,0,1,.44.48c.38.79-.47,1.87.61,2.49a6.64,6.64,0,0,0,6.11.51,5.59,5.59,0,0,1,2.37,0C57.74,56.14,58,56.49,57.48,57Z" style="fill:#ccccb5;fill-rule:evenodd"/><path d="M47.93,53.14a1.86,1.86,0,0,1-.06-.38c-.26-.47-.72-.86-.71-1.47a2.4,2.4,0,0,1,.44-1.23,10.29,10.29,0,0,0,.94-1.68c.48-1.85-.23-3-2.11-3.24a3,3,0,0,0-3.6,2.61,15.14,15.14,0,0,0-.07,1.91,6.27,6.27,0,0,0,.1,1.23c0,.1,0,.2,0,.3a1.15,1.15,0,0,1-.15.59.35.35,0,0,1-.51-.11,2.57,2.57,0,0,1-.4-.24c-.84-.72-1.66-1.51-2.91-.9a2.85,2.85,0,0,0-1.6,3.11,8.48,8.48,0,0,1,0,.94h-.4a1.9,1.9,0,0,1-.61-2.31,3.31,3.31,0,0,1,2.3-2.53c1.85-.34,2.31-1.57,2.77-3a4.39,4.39,0,0,1,4.13-3.11c1.9-.15,3.67.26,4.57,2.28.27.6.63,1.21,1.43.89s1.74-.32,1.74-1.59c0-1.6,1.25-2.33,2.52-2.85a2.28,2.28,0,0,1,2.88.93s-.15.24-.24.37c-1,.58-2.85-.41-3.15,1.35s1,2.5,2.24,3.31c.27.18-.06-.06.2.12.55.38,1.26.55,1.55,1.25a1.63,1.63,0,0,1,0,.69.84.84,0,0,1-.76.59C57.08,50.57,56,49.58,54.69,49c-2.62-1.23-3.69-.89-4.88,1.7-.23.51-.37,1.05-.6,1.56S48.71,53.35,47.93,53.14Z" style="fill:#716c69;fill-rule:evenodd"/><path d="M45.54,33.06,49.85,33c2.46,2.2,2.42,2.58-.47,4.33a.76.76,0,0,1-1,.1l-3.85-.09-1.38-1C43.09,34.58,44.53,34,45.54,33.06Z" style="fill:#f7fafa;fill-rule:evenodd"/><path d="M57.54,48.9a6.15,6.15,0,0,1-2.86-2.71c-.68-1.61.16-3.08,1.91-3.06a7.71,7.71,0,0,1,1.82.46,2.44,2.44,0,0,0,1,1,9.94,9.94,0,0,1,.43,3.7C59.31,49.55,58.36,49,57.54,48.9Z" style="fill:#f6f8f8;fill-rule:evenodd"/><path d="M36.49,40.66c-1.62-.05-2-.42-2-1.94a2.78,2.78,0,0,1,3-2.86A2.05,2.05,0,0,1,39.77,38C39.75,39.62,38.37,40.72,36.49,40.66Z" style="fill:#706864;fill-rule:evenodd"/><path d="M57.16,34.42a2.36,2.36,0,0,1,2.28,2.73c-.05,1.22-.64,1.67-2.11,1.59a2.94,2.94,0,0,1-2.62-2.61C54.72,35.13,55.81,34.37,57.16,34.42Z" style="fill:#716865;fill-rule:evenodd"/><path d="M49.37,37.78c-.87.86-1.88.36-3.37.52a4.15,4.15,0,0,1,2.42-.53.64.64,0,0,1,1,0Z" style="fill:#756967;fill-rule:evenodd"/><path d="M49.37,37.78h-1c0-.12,0-.24,0-.37l1-.09C49.37,37.47,49.37,37.62,49.37,37.78Z" style="fill:#7b6766;fill-rule:evenodd"/><path d="M34.92,77.54c-1.41-.39-1.23-1.67-1.32-2.65-.15-1.72,0-3.45-.07-5.18,0-.76.22-1.59-.4-2.25q0-1.17-.09-2.33c1.69-2,3.27-4.07,6-4.83a7.73,7.73,0,0,1,8.59,2.54,19.91,19.91,0,0,1,3.92,8.63c.17.79.11,1.43-.72,1.78-.13-.09-.24-.24-.38-.28-2.82-.76-5.67-1.47-8.52-2C38.11,70.33,34.91,73.57,34.92,77.54Z" style="fill:#ceceb7;fill-rule:evenodd"/><path d="M35.93,75.22c3.32-4.75,8.07-4.12,11.9-.12a14.18,14.18,0,0,0,2.31,2.56c.14-1.93-1.68-2.58-2.1-3.94.84-.71,1.58-.23,2.31,0,3.64,2,3.89,6.68,2.8,9.71-.67,1.87-2.25,2.82-3.79,3.82-.07-1.45.06-2.89-1.19-4.09-.8-.77.19-2.22-.7-3.14-1.43-1-2.32-2.51-3.66-3.59-2.17-1.75-4.59-2.61-6.91-.21-.2.22-.41.62-.61.61-.57,0-.34-.54-.38-.88A4.85,4.85,0,0,1,35.93,75.22Z" style="fill:#ccc19a;fill-rule:evenodd"/><path d="M50.82,87.7a5,5,0,0,1,3.83-2.46,16.28,16.28,0,0,0,5.48-1.46c.34-.18.76-.45,1.05,0A.82.82,0,0,1,60.84,85c-2.33,1-4.23,3.22-7.17,2.73a17.65,17.65,0,0,0-2.86,0Z" style="fill:#827f6f;fill-rule:evenodd"/><path d="M36.91,76.17c1.25-2,2.75-2.5,5-1.51A11.81,11.81,0,0,1,47.48,80c-.08.57-.35,1-.83.39A27.76,27.76,0,0,0,44,77.28a9.08,9.08,0,0,0-2.13-1.51,3.53,3.53,0,0,0-3.64-.06A7.74,7.74,0,0,1,36.91,76.17Z" style="fill:#7a6b62;fill-rule:evenodd"/><path d="M76.63,75.7A5.74,5.74,0,0,1,81.46,79a4.5,4.5,0,0,1-.82,5.46A17.89,17.89,0,0,1,79.09,86a1,1,0,0,1-1.32,0,.79.79,0,0,1-.16-1.07c1.41-2.92-.38-5-1.92-7.1-.31-.43-.95-.76-.69-1.4S76,75.69,76.63,75.7Z" style="fill:#82726f;fill-rule:evenodd"/><path d="M94.47,9.48c2.09,0,4-.81,6-1.19,2.31-.43,4.6-.16,6.89-.25a1.33,1.33,0,0,1,1.44,1,1.8,1.8,0,0,0,1.8,1.3c2.29.12,4.54.8,6.86.54a1.66,1.66,0,0,0,1,.5c1.83.51,2,.54,1.73,2.44-.13,1.07.42,1.43,1.1,1.85a17.92,17.92,0,0,1,5.38,5c2.3,3.31,1.37,4.67-2.81,5.49a12.75,12.75,0,0,1-6.14-.55c-.76-.23-1.52-.46-2.3-.62s-1.23.17-.92,1.05c.1.3.28.58.38.88a1.52,1.52,0,0,1-1.11,2.21,12.81,12.81,0,0,1-6.84.17,20.2,20.2,0,0,1-6.66-2.59c-2.89-2-5.83-3.84-8.78-5.69-1.51-.94-1.74-2.58-1-4.25.33-.72.8-1.37,1.19-2.06.23-.42.71-1,.6-1.26C91.55,11.3,93.29,10.55,94.47,9.48Z" style="fill:#6f8470;fill-rule:evenodd"/><path d="M167.93,78.13l4.8,0a2.1,2.1,0,0,0,.57.4c.73.2,1.75.07,1.62,1.26a2.68,2.68,0,0,1-2.42,1.62,8.51,8.51,0,0,1-3.34-1.25,3.84,3.84,0,0,0-5,.11,8.81,8.81,0,0,1-1.24.71c-1.49.79-1.79.73-2.58-.8a28.52,28.52,0,0,0-2.26-3.66,7.09,7.09,0,0,0-10.23-1.71.65.65,0,0,1-.85,0,3.48,3.48,0,0,1,.11-2.54,1.22,1.22,0,0,0-.24-1.52,1,1,0,0,1,.41-1.28A5.39,5.39,0,0,0,149,67.93a6.22,6.22,0,0,1,8-.63,29.13,29.13,0,0,1,7.07,8.56,7.85,7.85,0,0,0,1.5,2.13C166.36,78.63,167.11,78.93,167.93,78.13Z" style="fill:#abce9a;fill-rule:evenodd"/><path d="M154.5,82.48a29.76,29.76,0,0,1-4.82-1.85c-.12-.11-.24-.21-.35-.33-1.6-1.69-2-3.14-1.31-4.42s3.29-2.16,5.09-1.67a9.69,9.69,0,0,1,6.65,8.14A5,5,0,0,1,154.5,82.48Z" style="fill:#f4e8b7;fill-rule:evenodd"/><path d="M149.12,81c.73.75,1.84.9,2.59,1.65.6.6.82,1.2.25,1.85a29.52,29.52,0,0,1-2.32,2.38.89.89,0,0,1-1.45-.1c-.73-1.44-2.23-1.95-3.3-3-.33-.53-.66-1.08-1-1.6-.66-1-.31-1.73.47-2.49s1.48-.51,2.26.07A3.69,3.69,0,0,0,149.12,81Z" style="fill:#ccc19a;fill-rule:evenodd"/><path d="M161.18,83.88a7.63,7.63,0,0,1,1,3.14c.07,1.23-.65,1.88-1.76,1.4a3.18,3.18,0,0,0-2.65.09,8.9,8.9,0,0,1-2.82.15c-.74,0-1.46-.1-1.75-.92a1.75,1.75,0,0,1,.71-2.09A4.72,4.72,0,0,1,155,85.2a6.1,6.1,0,0,1,.61-.42c1.56-1.12,3.14-2.14,5.13-1A2.31,2.31,0,0,0,161.18,83.88Z" style="fill:#c8c098;fill-rule:evenodd"/><path d="M160.71,83.81c-1.53.21-3.31-.36-4.35,1.43-.07.13-.58,0-.89,0a1.57,1.57,0,0,1-.49-.42l-.44,0a.37.37,0,0,1-.2-.35c0-.14,0-.21.08-.21.65-.43,1-1.2,1.74-1.55q1.23,0,2.46,0a7.41,7.41,0,0,1,1.64.69Z" style="fill:#796864;fill-rule:evenodd"/><path d="M147.26,69.49a2.09,2.09,0,0,1-.41,1.28l-1,.13c-.1-.12-.19-.24-.3-.34-.32-.31-.77-.59-.53-1.13s.77-.43,1.2-.36A5.17,5.17,0,0,1,147.26,69.49Z" style="fill:#e1d7ab;fill-rule:evenodd"/><path d="M158.89,82.93h-3a1,1,0,0,1-.87.26.77.77,0,0,1-.46-.39c0-.11,0-.22,0-.32l5.26-.14,0,.47C159.5,83.21,159.21,83.15,158.89,82.93Z" style="fill:#9a5c5c;fill-rule:evenodd"/><path d="M158.89,82.93l.85-.12.51.56C159.76,83.35,159.2,83.52,158.89,82.93Z" style="fill:#8dacab;fill-rule:evenodd"/><path d="M57.54,48.9a2.68,2.68,0,0,0,2.26-.58c.59.15,1.05-1.32,1.73-.15.52.89,2.12,1.15,1.32,2.82-1.23,2.54-2.67,4.79-5.37,6A.84.84,0,0,0,57,56c.24-1.83,1.19-3.46,1.47-5.28L59,50.2c1.35.15.62,1.52,1.29,2.21.57-1.42.27-2.29-1.27-2.55C58.75,49.2,57.88,49.46,57.54,48.9Z" style="fill:#887a75;fill-rule:evenodd"/><path d="M62.21,57.2c-.9.14-1.32-.15-1.58-.62-.12-.21.12-.42.35-.47C61.73,56,61.79,56.6,62.21,57.2Z" style="fill:#84736f;fill-rule:evenodd"/><path d="M69.06,77.2l.48.39Z" style="fill:#716968;fill-rule:evenodd"/><path d="M125.75,87.74l3.79,0c.87,1.57.67,2.2-1,2.32s-3.47.06-5.21,0c-.3,0-.66,0-.77-.4s.25-.68.55-.93C123.91,88.15,125,88.43,125.75,87.74Z" style="fill:#bdd6dd;fill-rule:evenodd"/><path d="M133.34,88.92c-.09.12-.18.4-.34.44-.41.11-.51-.22-.51-.55a.38.38,0,0,1,.42-.43C133.16,88.4,133.3,88.58,133.34,88.92Z" style="fill:#a2b5b9;fill-rule:evenodd"/><path d="M111.77,80.1l1.4-.16,3.32.09a3.4,3.4,0,0,1,1.62.28A1.29,1.29,0,0,1,119,81.6c-.07.75-.65.81-1.21.81l-7.35,0c-.72-.49-1-1-.07-1.56C110.79,80.51,111.45,80.65,111.77,80.1Z" style="fill:#c0d9e0;fill-rule:evenodd"/><path d="M123.76,81.85l-2.39.05-.53-.94c.34-1,1.13-1,1.93-.9C123.14,80.64,123.8,81.05,123.76,81.85Z" style="fill:#b3ccd1;fill-rule:evenodd"/><path d="M153.57,84.32a3.06,3.06,0,0,1,.08-.44.46.46,0,0,1,.5.24l-.09.29Z" style="fill:#c8c098;fill-rule:evenodd"/><path d="M154.52,84.42a1.47,1.47,0,0,0,0,.37l-.49-.39-.07-.14A.39.39,0,0,1,154.52,84.42Z" style="fill:#8b8179;fill-rule:evenodd"/><path d="M155,84.81l.49.42-.49,0C155,85.07,155,84.94,155,84.81Z" style="fill:#8b8179;fill-rule:evenodd"/><path d="M154.52,84.42l-.54-.15-.34-.39c0-.18,0-.35,0-.53.37-.38.95,0,1.32-.39l.89,0C156.1,84.06,155.44,84.36,154.52,84.42Z" style="fill:#c5c2c1;fill-rule:evenodd"/><path d="M154.95,83c-.32.54-.84.41-1.32.39.1-.5.55-.43.89-.55Z" style="fill:#b0eeee;fill-rule:evenodd"/><path d="M63.28,13.75l-1.42-.06a3.12,3.12,0,0,1-.37-2.31,1.7,1.7,0,0,1,2.21-1.24,1.52,1.52,0,0,1,.55,2.25A11.38,11.38,0,0,1,63.28,13.75Z" style="fill:#eaeded;fill-rule:evenodd"/><path d="M206.8,23.24c-.07.59,0,1.39-.87,1.35s-.58-.79-.58-1.31.06-1.23.73-1.27S206.76,22.69,206.8,23.24Z" style="fill:#e6e9e9;fill-rule:evenodd"/><path d="M117.12,42.47a1.24,1.24,0,0,1-1.09-1.4c0-.51.16-1.11.69-1.08.83,0,1.22.69,1.2,1.5A1,1,0,0,1,117.12,42.47Z" style="fill:#e8eeee;fill-rule:evenodd"/><path d="M202.39,50.61a1.86,1.86,0,0,1,0,.55c-.16.62-.41,1.31-1.17,1.15s-.59-.83-.53-1.39a2.27,2.27,0,0,1,.18-.68c.21-.45,0-1.18.76-1.28C202.08,48.91,202.36,49.5,202.39,50.61Z" style="fill:#dce0e0;fill-rule:evenodd"/><path d="M80.95,1.25a1,1,0,0,1,1,1.13c0,.71-.37,1.27-1.15,1.23s-.75-.69-.75-1.25S80.34,1.3,80.95,1.25Z" style="fill:#eaeeee;fill-rule:evenodd"/><path d="M197.63,87.24c-.86.76-1.83.48-2.79.3-.31-.06-.24-.38,0-.2.07,0,.28-.09.42-.15A2.69,2.69,0,0,1,197.63,87.24Z" style="fill:#9cc9cf;fill-rule:evenodd"/><path d="M197.63,87.24l-2.35,0a2.17,2.17,0,0,0,0-.45l2.82,0Z" style="fill:#7c9fa3;fill-rule:evenodd"/><path d="M16.73,40.09H15.3a3.67,3.67,0,0,1-.54-1.52c0-.73.1-1.51,1-1.6s1.18.62,1.38,1.33S16.93,39.51,16.73,40.09Z" style="fill:#eeefef;fill-rule:evenodd"/><path d="M173.24,11.41c-.08.73-.44,1.25-1.19,1.21-.53,0-.78-.53-.73-1.05a1,1,0,0,1,1.05-1.07C173,10.49,173.21,10.86,173.24,11.41Z" style="fill:#e2e4e4;fill-rule:evenodd"/><path d="M3.6,17.72C5.2,19.47,5,20.37,3.74,21.8,1.51,22,1,21.73.92,20.38.78,18.75,1.68,17.86,3.6,17.72Z" style="fill:#f4f5f5;fill-rule:evenodd"/><path d="M97.94,89.21l1.33-.1a9.46,9.46,0,0,1,4.34,0c1.17,1.88,1,2.33-.91,2.89a1.73,1.73,0,0,0-1,.48l-6.24-.05c-.72-.61-1.11-1.1-.19-2S97.22,90,97.94,89.21Z" style="fill:#c2d7de;fill-rule:evenodd"/><path d="M103.62,89.13l-4.34,0a1.46,1.46,0,0,0,0-.41h4.33C103.61,88.84,103.61,89,103.62,89.13Z" style="fill:#819092;fill-rule:evenodd"/><path d="M41.68,6l-1.43,0a2.68,2.68,0,0,1-.42-1.59c.1-.71.43-1.25,1.22-1.17a1.09,1.09,0,0,1,1,1.35A9.36,9.36,0,0,1,41.68,6Z" style="fill:#dadede;fill-rule:evenodd"/><path d="M177.54,89.14c1.09.15,2.28-.42,3.28.42a7.16,7.16,0,0,1-3.72.49C176.82,89.55,177.44,89.47,177.54,89.14Z" style="fill:#9bc0c5;fill-rule:evenodd"/><path d="M184.07,83.13a5.62,5.62,0,0,1,2.76,0A5.83,5.83,0,0,1,184.07,83.13Z" style="fill:#fff;fill-rule:evenodd"/><path d="M106.55,89.21a.75.75,0,0,1,.4,0c.14.18.26.37.41.55s.46.63.11,1a.6.6,0,0,1-.39.19c-.52,0-.56-.41-.58-.8S106.53,89.51,106.55,89.21Z" style="fill:#aec4ca;fill-rule:evenodd"/><path d="M179.46,32.8l-.95,0a3.68,3.68,0,0,1,0-3.12l1.41,0A2.21,2.21,0,0,1,179.46,32.8Z" style="fill:#e3e7e7;fill-rule:evenodd"/><path d="M58.51,50.74c.6,2.06-.19,3.74-1.47,5.28a1.61,1.61,0,0,1-1.91,0,7.91,7.91,0,0,1-6-.22c-1.63-1.1-.39-2.41-.25-3.64a7.54,7.54,0,0,1,.89-2.7c1.13-1.93,2.56-2.38,4.56-1.39A14.72,14.72,0,0,1,58.51,50.74Z" style="fill:#eee4d1;fill-rule:evenodd"/><path d="M48.94,55.5c2,.82,4.13.31,6.18.54-.13.19-.23.5-.4.55-2.28.67-4.46.64-6.38-1A.34.34,0,0,1,48.94,55.5Z" style="fill:#9d6d68;fill-rule:evenodd"/><path d="M42.23,51.67a2.57,2.57,0,0,1,.41,0,1.2,1.2,0,0,1,.6-.31c1.43.43,2.82-.3,4.24-.11a2.2,2.2,0,0,1,.38,1.48,3.91,3.91,0,0,0-1.41,0A3.2,3.2,0,0,1,42.23,51.67Z" style="fill:#91817c;fill-rule:evenodd"/><path d="M48.94,55.5l-.6.08c-.79-.15-1-.61-.72-1.34.13-.36.2-.73.3-1.1l.91-1C49.2,53.28,48.25,54.41,48.94,55.5Z" style="fill:#91817c;fill-rule:evenodd"/><path d="M47.48,51.28c-1.38.83-2.77,1.51-4.32.36a1.31,1.31,0,0,1-.48-.44h0c-.3-.24-.21-.67-.44-.95a20.69,20.69,0,0,1-.16-2.13,3.57,3.57,0,0,1,3.3-3.7c3-.41,4.45,1.47,3.54,4.54-.94,0-.88.67-.83,1.32Z" style="fill:#fcfdfd;fill-rule:evenodd"/><path d="M59,49.86c1.52-.62,2.38-.07,2.31,1.47,0,.73-.36,1.29-1.56,2.65C59,52.79,60,51.26,59,50.2Q59,50,59,49.86Z" style="fill:#bebeab;fill-rule:evenodd"/><path d="M48.08,50.27a2,2,0,0,0-.28-.36c-.48-.39-.69-.91-.23-1.36s.88.29,1.34.4Z" style="fill:#a09191;fill-rule:evenodd"/><path d="M42.23,50.24a1.06,1.06,0,0,1,.44.95A.79.79,0,0,1,42.23,50.24Z" style="fill:#ccccb5;fill-rule:evenodd"/><path d="M42.68,51.2a.57.57,0,0,1,.48.44l-.52.05Z" style="fill:#ccccb5;fill-rule:evenodd"/><path d="M58.76,47.6a2,2,0,0,1-.13-.36s.08-.1.12-.15.14.1.13.14A2.07,2.07,0,0,1,58.76,47.6Z" style="fill:#706764;fill-rule:evenodd"/><path d="M38.76,38a2.53,2.53,0,0,1-2.23,2.07c-.89-.09-1.14-.72-1.13-1.51a2.12,2.12,0,0,1,1.87-2.08A1.6,1.6,0,0,1,38.76,38Z" style="fill:#bfc1ac;fill-rule:evenodd"/><path d="M58.51,36.86a.93.93,0,0,1-1.09.94A1.88,1.88,0,0,1,55.67,36a1.09,1.09,0,0,1,1.12-1A1.92,1.92,0,0,1,58.51,36.86Z" style="fill:#bcc1ad;fill-rule:evenodd"/><path d="M112.34,12.41c-1.26.74-2.79,0-3.94,1.23a36.11,36.11,0,0,1,7.76,2.59c2.5,1.16,5.15,2,7.8,3.9a4,4,0,0,1-3.17-.67,40.9,40.9,0,0,0-9.63-4.15,31.29,31.29,0,0,0-10.92-1.51c1.13-1,1.37-1.22,2.64-.93A8.35,8.35,0,0,0,108,12.5C109.26,12,110.88,12.41,112.34,12.41Z" style="fill:#5f615b;fill-rule:evenodd"/><path d="M107.43,21.1c-2.08-.55-2.46-2-3.39-3.31C105.43,18.32,105.43,18.32,107.43,21.1Z" style="fill:#60685f;fill-rule:evenodd"/><path d="M151.8,71.36a.48.48,0,0,1-.48-.39c-.06-.41.26-.53.56-.5a.64.64,0,0,1,.46.38C152.43,71.25,152.07,71.3,151.8,71.36Z" style="fill:#7b846f;fill-rule:evenodd"/><path d="M57,50.76c0,.93-.63,1-1.17,1s-1.19,0-1.15-.79A1.12,1.12,0,0,1,56,49.88,1.16,1.16,0,0,1,57,50.76Z" style="fill:#907d77;fill-rule:evenodd"/></svg>