<svg xmlns="http://www.w3.org/2000/svg" viewBox="0 0 254.41 133.19"><title>アセット 1</title><path d="M210,64.69c-3.59.29-6.67,2.29-10.11,3.06a7.43,7.43,0,0,1-5.52-.6,11.36,11.36,0,0,1-3.69-4.2c-1.78-3.14-4.73-5.34-7.53-7.59-.62-.5-1.25-1-1.82-1.5,2.13,1.76,4.28,3.51,6.26,5.45a26.4,26.4,0,0,1,2.69,3c1.43,1.91,1,3.41-1.19,4.31-3.65,1.5-8.7-.63-10.47-4.14A60.33,60.33,0,0,0,167.3,46.89a28.37,28.37,0,0,0-9.53-6.62c7.31,2.92,12,8.75,16.38,14.86.79,1.1,1.4,2.35,2.29,3.37,2.57,3,2.15,6.1.84,9.37-.68,1.69-1.92,1.93-3.5,1.58-2.82-.62-3.4-.49-4.44,2.05-.6,1.48-1.35,1.78-2.68,1.39-.68-.11-1,.31-1.29.83-.39.69-.76,1.4-1.2,2.06-.26.39-.72.89-1.16.54-1.49-1.2-2.16.09-2.87.92-2.09,2.41-4.56,4.43-6.83,6.65-1.22,0-2,2.15-3.57.67-.21-.2-.47,0-.56.21-.85,2.61-3.67,2.19-5.38,3.48-.25.19-.68.41-.89.22-2-1.78-2.41.32-3.28,1.29s-1.85,2.22-3.52,2.14c-.93,0-1.31.75-1.89,1.27-1.25,1.11-2.56,2.51-4,.19-.52-.82-1.23-.31-1.62.07-1.44,1.42-3.12,2.68-3.68,4.79L123,101.5c-.22.39-.58.63-1,.4-1.41-.82-1.75.45-2.38,1.17l-.35,0a1.58,1.58,0,0,0-.71.07c-2.51,1.29-4.26.61-5.7-1.8-.94-1.58-2.73-2.09-4.51-2.45a35.83,35.83,0,0,1-7.64-2c-1.67-.74-2.6-1.85-2.16-3.75a2.55,2.55,0,0,0-.79-2.62,22.62,22.62,0,0,0-12-5.51,3.88,3.88,0,0,0-1.41.27,11.5,11.5,0,0,1-3.84,0,1.79,1.79,0,0,1-.7-.37c-.36-.88.34-1.16.86-1.53A6.06,6.06,0,0,1,86,82c4,.73,7.95.34,11,.44A76.12,76.12,0,0,1,85.72,82c-1-.16-1.9-.25-2.23-1.38a2.22,2.22,0,0,1,.52-2c2.67-3.89,5.1-7.95,8-11.62,2-2.51,4.88-4.06,7.74-5.51.21-.11.5-.27.68-.2,3.28,1.32,4.86-1.64,7.1-2.86,1.53-.83,2.94-1.93,4.39-2.91,1.06-.72,2.08-1.44,3.52-1,1.07.34,1.8-.52,2.52-1.12a64.42,64.42,0,0,1,17-10.09c1.41-.57,2.8-1.27,4.22.08.68.64,1.16-.11,1.58-.53a39.92,39.92,0,0,0,3.93-4.19,4.32,4.32,0,0,1,2.55-2c.76,0,1.44.47,2.26.39a4.09,4.09,0,0,1-.93-2.28,1.73,1.73,0,0,1,1.4-1.6c7.19-1.91,14.37-.89,21.55.1,4.41.61,8.76,1.64,13.23,1.71,1.77,0,3.51,0,4.68-.7-3.51,1.48-7.49.55-11.45,0-6.84-1-13.65-2.22-20.61-2.22-1.37,0-2.79,1-4.15-.07-.56-1.24.52-1.49,1.21-1.88a12.16,12.16,0,0,1,3.31-1.34A57.14,57.14,0,0,0,167,25.38a1.68,1.68,0,0,1,1.63.83h-.06a5.31,5.31,0,0,0,3.5.22c3.8-.74,7.62-.27,11.43-.42,6.74.18,13.46-.31,20.18-.74,1.38-.75,3-.5,4.43-.81a39.43,39.43,0,0,0,6.63-1.94A127.44,127.44,0,0,0,231.55,14c7.2-4.26,14-9.14,21-13.62,1.59.45,1.27,1.58.92,2.68-1.13,3.58-3.48,6.42-5.76,9.28-1.58,2-3.44,3.75-5.08,5.71C239.89,21.38,236,22.79,232,24a44.79,44.79,0,0,1-8.11,1.78c2.76-.41,5.53-.53,8.29-.79a9,9,0,0,1,1.94-.26c.39-.14.83-.05,1.2-.29a31,31,0,0,0,10.85-2.53c.75-.36,1.67-1,2.38-.16s.16,1.66-.17,2.49a6.75,6.75,0,0,1-1.77,2.51,30,30,0,0,1-12.2,6.79c-.59.48-1.09,1.18-2,.93a4.12,4.12,0,0,0-4.08.65,8.13,8.13,0,0,1-4.51,1.25c-6.73.27-13.31-1.1-20-1.61a14,14,0,0,1-2.49-.13c7.42.27,15,2.08,22.74,1.74a6.53,6.53,0,0,0,4.05-1.14c1.68-1.34,3.64-.72,5.51-.77,1.57.49,3.22-.07,4.79.41a.14.14,0,0,1,.24,0c1.09.66,2.37-.13,3.46.48,1.32-.07,2.76,0,3.27,1.36s-.57,2.38-1.45,3.32a12.21,12.21,0,0,1-3,2.32,33.9,33.9,0,0,1-10.9,4c-2.61-.07-5,1.45-7.15,1,3.19-.7,6.62.43,10,1.74,1.37,1.47,1.34,2.22-.37,3.29A21.68,21.68,0,0,1,224.79,55c2.27.17,4.14.87,6.13.74.47,0,1-.06,1.17.55s-.35,1-.84,1.3a35.39,35.39,0,0,1-7.71,3.13,18.51,18.51,0,0,1-4,.67c-7.4.7-13.44-2.59-19.24-6.57-3.41-2.35-6.61-5-10.31-6.92-1.79-.92-3.63-2-6-1.15,1.7,1.74,3.73,2.81,5.07,4.08-.65-.42-1.52-1.22-2.42-2-.6-.5-1.92-.79-1.23-1.92s1.65-.24,2.39,0c3.12,1.1,5.76,3.05,8.41,5,4.27,3.06,8.44,6.29,13.49,8.07,1.2.42,2.44.74,3.63,1.18s1.15,1.21.21,1.88A7.46,7.46,0,0,1,210,64.29c-.32,0,0-.13-.22.05S210,64.48,210,64.69Z" style="fill:#576776;fill-rule:evenodd"/><path d="M137.43,110.27,136,111.33a5.49,5.49,0,0,1-1.46,0,12.89,12.89,0,0,1-2.28-.26c-3.05-.68-6,.29-9,.5-3.49.24-7,.75-10.44,1.25-.61.09-1.28.28-1.83-.24a3.63,3.63,0,0,1,1.07-3.11c1.72-.51,2.93-1.95,4.34-2.63-.5-.09-1.34.24-2-.33a.73.73,0,0,1-.14-.63c1.62-1.06,3.62-1.15,5.3-2.06a3,3,0,0,0,.59-.31c3.47-.63,6.84-1.81,10.39-2,.82-.46,1.81.1,2.63-.42,1.07-.69,2.35-.37,3.49-.7,2.68-.77,5.35-1.57,8-2.32A50.81,50.81,0,0,1,154.23,96c2.8.1,5.51-.75,8.32-.65,1.69.06,3.33.38,5,.57,1.31.16,1.5.94,1,2.06a6.16,6.16,0,0,1-4.76,4,30.25,30.25,0,0,0-9.45,3.65c-5.91,3.22-12.54,3.88-18.8,4.46C135.94,110.14,136.74,109.79,137.43,110.27Z" style="fill:#576776;fill-rule:evenodd"/><path d="M90.48,44.44c3.51.83,7,1.62,10.53,2.53,1.71.44,3.31,1.16,3.78,3.16.35.47.93.82.84,1.54a5.58,5.58,0,0,1-4.14,4.14c-.63,0-1.07-.48-1.63-.67a30.2,30.2,0,0,0-8-2.07c-.67-.24-1.4-.4-1.73-1.16.16-1.58,1.51-1.85,2.64-2.33.87-.37,1.83-.47,2.92-.81-1.82-1.13-3.82-1.46-5.6-2.31L89.23,46a3.6,3.6,0,0,1-.59-.31,1.07,1.07,0,0,1-.44-.87,1.28,1.28,0,0,1,1.16-1.1C89.87,43.73,90.08,44.24,90.48,44.44Z" style="fill:#5b6875;fill-rule:evenodd"/><path d="M166.64,72.89c1.49-.46,1.47-.48,2.59-2.28,1.3-2.07,2.29-2.5,4.32-1.71s3.18,0,3.63-2.09a6.11,6.11,0,0,1,.2-1.41c1.22-2.36.12-4.29-1.08-6.22-2.15-3.45-4.74-6.59-7.07-9.91-.71-1-2-1.35-2.71-2.32-2-3-5.18-4.37-8.23-5.93-.81-.42-1.92-.3-2.54-1.47,1.4-.28,2.5.43,3.57.85a20,20,0,0,1,5.79,3.75,68.42,68.42,0,0,1,13.46,17,6.55,6.55,0,0,1,.83,1.72A4.05,4.05,0,0,0,183.2,66c1.77.27,3.51,1,5.4.22,2.22-.89,2.64-1.84,1.18-3.66a37.45,37.45,0,0,0-7.09-6.95c-1.59-1.16-1.59-1.15-2.82-3.42,1.65.63,2.48,2,3.56,2.89,2.46,2.12,5.26,3.9,7,6.72a11,11,0,0,1,.9,1.4c.7,1.6,1.56,3,3.43,3.38.22,0,.21.11-.48.55-.31-.06-.7,0-.92-.19A2.56,2.56,0,0,0,190,67a2.52,2.52,0,0,1-1.34.45c-3.48.17-6.82-.23-9.74-2.59-.73.64-.7,1.64-1,2.49-.81,2.51-1.66,3.09-4.15,2.61-2.92-.56-3.16-.42-4.29,2.43C168.73,74.26,168.51,74.29,166.64,72.89Z" style="fill:#565c60;fill-rule:evenodd"/><path d="M168.65,26.21l-1.51-.41c-.16-1.46,1.76-1.54,1.89-3.22a82.63,82.63,0,0,0-7.71,3.24c-2.66,1.14-5.41,2-8.11,3-2.14.79-2.74.19-2.34-2.08.09-.53.47-1.14-.07-1.56s-.89.1-1.28.34c-9.58,6.1-19.85,11-29.57,16.85a116.78,116.78,0,0,0-11.38,7.55c-.69.54-1.35,1.16-2.35.94a.41.41,0,0,1-.14-.4c0-.14.07-.21.11-.21C108,47.93,110.61,46.58,113,45c5.83-3.89,12-7.25,18.14-10.62,6.36-3.48,12.79-6.83,18.84-10.85,1.49-1,2.81-.3,2.88,1.53a13.4,13.4,0,0,1-.2,1.94c.7.46,1.36.06,2-.18a96.62,96.62,0,0,0,12.31-5.17c.56-.3,1.15-.53,1.74-.78,1-.41,1.68.12,2.29.8s.31,1.41-.14,2.15C170.26,24.78,168.92,25,168.65,26.21Z" style="fill:#9f8d8d;fill-rule:evenodd"/><path d="M17,32.45a7.25,7.25,0,0,0,1.43-.05c4.33-1,7.76.56,10.83,3.53a15,15,0,0,1,4.9,12.7c-.25,2.69-1,5.21-3.79,6.48-.49.14-.61-.15-.64-.55.17-.27-.1,0,.08-.22,4.31-6.4,2.58-12.8-4.45-16.5-1-.55-2.27-.78-3.15-1.64-.36-1.22-1.47-1.45-2.47-1.82s-2.17-.11-3.13-.7C16.24,33.1,15.75,32.49,17,32.45Z" style="fill:#60676d;fill-rule:evenodd"/><path d="M210,64.69l-1.41-.11c1.74-.87,3.8-1,5.29-2.29-.06-.73-.63-.81-1-.89-5.17-1.16-9.57-3.84-13.78-6.89A96.91,96.91,0,0,0,190,48.34a11.8,11.8,0,0,0-4.26-1.28c1.37,2.16,3.77,3.16,5.32,4.94-.16.44-.43.57-.6.44-2.37-1.73-4.58-3.69-7.13-5.19-.33-.2-.69-.46-.49-.95s.5-.34.81-.36a10.24,10.24,0,0,1,5.33,1c4.08,1.9,7.59,4.66,11.19,7.28a37.51,37.51,0,0,0,12.76,6.3,24,24,0,0,0,6.6.75c.11.1.15.19.11.28s-.08.14-.11.14a9,9,0,0,0-5.29,1.64A7,7,0,0,1,210,64.69Z" style="fill:#555a5e;fill-rule:evenodd"/><path d="M137.43,110.27h-3.79c2.84-.54,5.67-.94,8.48-1.47,4.38-.83,8.76-1.68,12.72-3.9.42-.23,1-.35,1.24-.7,1.22-1.71,3.15-1.71,4.9-2.07a15.42,15.42,0,0,0,4.33-1.26c1.84-1,2.45-1.82,3-4.34A27.87,27.87,0,0,0,157,96.24a3.51,3.51,0,0,1-2.78-.25c4.06-.86,8.12-1.53,12.27-.63.7.15,1.42.23,2.1.43,1.54.45,1.41.64.74,2.13-1.48,3.34-4.24,4.55-7.54,5a10.83,10.83,0,0,0-5.25,2.11,20.36,20.36,0,0,1-6.26,2.89A52.76,52.76,0,0,1,137.43,110.27Z" style="fill:#5a5f64;fill-rule:evenodd"/><path d="M124.88,98.23c-.36-.27-.6-.72-.33-1,1.33-1.46,2.14-3.36,4-4.39,1.46-.82,1.42-.89,2.33.52.21.33.31.75.88.94a12.21,12.21,0,0,0,2.44-1.67A3.24,3.24,0,0,1,137,91.26c1.15.07,2-1.45,2.74-2.46.29-.37.41-.87.67-1.27.76-1.2,1-1.23,1.84,0,.42.64.86.73,1.36.35a7.3,7.3,0,0,1,3-1.29,2.21,2.21,0,0,0,1.92-1.88,7.36,7.36,0,0,1,.59-1.52c.82-.2.67.51.88.86.42.71.89.8,1.56.28.48-.38.87-1.37,1.71-.44v0a.93.93,0,0,0-.48.6c-.84,1-1.56,2.31-3.26,1.61a.53.53,0,0,0-.44.13c-1.9,1.77-4.81,1.71-6.61,3.67-.35.38-.82.89-1.44.47s-1,0-1.37.41c-.54.58-1.1,1.15-1.69,1.68-.29.26-.81.65-1,.55-1.91-1-2.38.74-3.31,1.62a15.44,15.44,0,0,1-1.41,1.29c-1.07.78-1.31.68-1.74-.61-.65-1.95-1.09-2.07-2.48-.6C127,95.83,125.93,97,124.88,98.23Z" style="fill:#596366;fill-rule:evenodd"/><path d="M232.46,25.33c-.13.1-.25.28-.38.28-3.26,0-6.47.88-9.74.61a4.64,4.64,0,0,1-.92-.36,12.12,12.12,0,0,1,4.14-1c4.54-.9,9-1.86,13.16-4.1a11.73,11.73,0,0,0,3.7-3.35c1.49-2,3.47-3.46,5-5.37a35,35,0,0,0,5.43-8.39c.47-1.15.81-2.25-.28-3.25.38-.55.8-.4,1.2-.06A1.66,1.66,0,0,1,254.35,2a14.44,14.44,0,0,1-1.48,3.78,44.32,44.32,0,0,1-5.08,7.25l-4.34,5.12a15.7,15.7,0,0,1-5.75,4.22c-1.24.55-2.52,1-3.78,1.5a3.7,3.7,0,0,1-2.54.9c-.38,0-.76.21-1,.11C231,25.05,231.87,24.47,232.46,25.33Z" style="fill:#5a6064;fill-rule:evenodd"/><path d="M90.48,44.44,89.33,44c-.69-.93.55-2.74-1.49-3.07a5.32,5.32,0,0,0-5.09,2.35c-1.31,2.41-1.48,2.5-3.72,1-3.36-2.29-6.78-3.89-11-2.26-1.49.58-2.5-.63-3.54-1.51-.7-.58-1.64-1.72-2.39-1.07-.94.83-.16,2.07.48,3,.81,1.2,2.39,2.09,1.53,3.93-.49.43-.88.12-1.28-.15-1.35-1.83-3.45-3.23-3.42-5.86.64-.89.36-2,.64-3a4.3,4.3,0,0,1,4.24,1c.68.56,1.37,1.09,2.06,1.65a2,2,0,0,0,2.2.47c3.27-1.5,6.23-.39,9.14,1.08.36.18.7.39,1,.6,1.76,1.08,1.76,1.08,3-.75.13-.2.27-.46.46-.54,2.29-.9,4.54-2.09,7.12-1.34,1.63.48,1.84.95,1.52,2.63C90.72,42.89,90.21,43.6,90.48,44.44Z" style="fill:#918077;fill-rule:evenodd"/><path d="M219.47,61.71c0-.14,0-.28,0-.42.39-.54,1-.41,1.52-.49a30.89,30.89,0,0,0,10.71-4c-.07-.74-.5-.78-.88-.75-2.37.19-4.7-.34-7.06-.29a.74.74,0,0,1-.57-.31c-.19-.38.14-.64.42-.71,1.61-.39,3.23-.75,4.85-1.09a12.44,12.44,0,0,0,4.27-2c1-.7,1-1.48.18-2.31a.4.4,0,0,1,.59-.06c1.62,1,1.72,1.44.56,2.6-1.56,1.57-3.61,2.25-5.63,3,.34.76,1,.57,1.48.59.8,0,1.6,0,2.39,0,.59,0,1.4-.26,1.67.55s-.54,1.06-1,1.36a32.82,32.82,0,0,1-9.68,4A8.68,8.68,0,0,1,219.47,61.71Z" style="fill:#5c6367;fill-rule:evenodd"/><path d="M120.13,118.41c.5.95.29,2.15,1.13,3a1.06,1.06,0,0,1,0,1.31c-.63,1.05-.93,2.33-2,3.06a4.7,4.7,0,0,0-1.15-.51c-2.41.63-4.88.43-7.33.55a4.83,4.83,0,0,1-2.17-.17,9.59,9.59,0,0,0-4.23,1.41,1.52,1.52,0,0,1-1.71.31.84.84,0,0,1-.47-.54,1,1,0,0,1,.7-1.12c2.46-.3,4.71-1.41,7.16-1.81a8.37,8.37,0,0,1,3.54-.07,3.77,3.77,0,0,0,4.05-1.47c-1.18,0-2,1.25-3.21.51a.43.43,0,0,1-.13-.4c0-.14.07-.21.1-.21,1.38-.44,2-1.85,3.32-2.43.3-.26.69-.18,1-.28.46-.3.48-.9.86-1.26A.44.44,0,0,1,120.13,118.41Z" style="fill:#827367;fill-rule:evenodd"/><path d="M20.74,88.22a33.7,33.7,0,0,0-5.33-10.57c-1.3-1.71-2.75-3.29-4.15-4.93a7.94,7.94,0,0,1-2-4A7.25,7.25,0,0,0,7.89,66,15.58,15.58,0,0,1,5.5,60.29c.35-.44-.2-1.22.57-1.5,1.19.62.86,2,1.36,2.92,2.64,5,4.52,10.45,8.71,14.64A18.69,18.69,0,0,1,21.55,87,1.67,1.67,0,0,1,20.74,88.22Z" style="fill:#9b9595;fill-rule:evenodd"/><path d="M64.48,117.91a10.67,10.67,0,0,1-7.05-2.45,3.2,3.2,0,0,0-1.64-.89c-5.46-.54-10-3-14-6.63a.93.93,0,0,1,.67-.73c1.9.52,3.14,2.09,4.8,3a21.15,21.15,0,0,0,6.25,2.38c.13-.8-.64-1.1-.89-1.67s-.74-1.19-.05-1.7,1.2,0,1.7.43a2.72,2.72,0,0,1,.65.7,12.8,12.8,0,0,0,8.85,6.3,1.35,1.35,0,0,1,.74.58A.67.67,0,0,1,64.48,117.91Z" style="fill:#9d8f8f;fill-rule:evenodd"/><path d="M102.91,126a1.05,1.05,0,0,0-.58,1,.77.77,0,0,1-.91.17c-.32-.22-.41-.67-.8-.84-.19-.08-.36-.07-.35.09s.21.21.33.33a3,3,0,0,1,.61,1c.2,1,1.34,1.07,1.88,1.73.25.26.51.41.84.11a1.26,1.26,0,0,1,.72-.38,3.64,3.64,0,0,1,1.09.35c.44.19.9.31,1.33.53a2.21,2.21,0,0,1,.44.37,5.62,5.62,0,0,1,.76.86.46.46,0,0,1-.14.51c-1.36.73-2.62,2-4.34.86l-.17-.21a.34.34,0,0,1,.22-.37c.24-.17.25.27.12,0s-.27.06-.43,0a1.56,1.56,0,0,1-.88-.06c-2.17-1.07-3.65-3-5.45-4.51a4.5,4.5,0,0,0-3.81-1.35,3.13,3.13,0,0,1-1.1-.13.81.81,0,0,1,.25-1.33c2.52-.61,5.08-.19,7.62-.3C101.3,124.62,102.55,124.55,102.91,126Z" style="fill:#867965;fill-rule:evenodd"/><path d="M39,108.24c-2-1-3.51-2.7-5.49-3.77a5.28,5.28,0,0,1-2.36-2.64c-1.33-3.42-3.88-6.23-4.89-9.81a3.81,3.81,0,0,0-1.21-1.75,9.69,9.69,0,0,1-2-2.07.84.84,0,0,1,.74-.66,9.4,9.4,0,0,1,4.31,5.17c1,3.2,3.22,5.86,4.68,8.88.58,1.21,1.86,1.7,2.9,2.43,1.42,1,3,1.87,3.89,3.46A.68.68,0,0,1,39,108.24Z" style="fill:#9b9292;fill-rule:evenodd"/><path d="M111,112.19c.75.81,1.5,0,2.21-.07,5.16-.54,10.3-1.28,15.46-1.81,1.28-.13,2.68-.48,3.92.35a1.28,1.28,0,0,1-.6.49c-1.24.39-2.59,0-3.82.54-2.38.75-4.91.52-7.31,1.08-.61,0-1.21,0-1.82,0a3.5,3.5,0,0,0-1.92.31,2.34,2.34,0,0,1-.61.25c-.87.11-1.78-.19-2.63.2a24.79,24.79,0,0,0-5.71.63c-.45.14-.64-.1-.75-.48.16-1.19,1.15-1.31,2-1.56a7.38,7.38,0,0,1,1-.16A.82.82,0,0,1,111,112.19Z" style="fill:#5b6467;fill-rule:evenodd"/><path d="M47.24,69.89c.69-.11,1.4.19,2.1-.12,0-.95-.9-1.66-.79-2.64-.22-.57-.4-1.14.2-1.61,1.61.64,1,3,2.86,3.58,1.58-2.41,2.13-5.61,5-7.13a1.22,1.22,0,0,1,.64.17c.35,2-1.2,3.14-2,4.59s-1.74,2.83-.73,4.55a1.13,1.13,0,0,1-.56.49,17.32,17.32,0,0,1-9.75-1.63.54.54,0,0,1,.6-.44A6.59,6.59,0,0,1,47.24,69.89Z" style="fill:#928c8a;fill-rule:evenodd"/><path d="M60.08,37.33c.8,1.75.76,2-.43,2.91a1.51,1.51,0,0,1-1.51.47c-2.7-.9-5.49-1.63-7.74-3.52.31-1,1.14-.49,1.75-.62a28,28,0,0,1,7.57.71A.56.56,0,0,1,60.08,37.33Z" style="fill:#5b6874;fill-rule:evenodd"/><path d="M48.2,61.79a19.15,19.15,0,0,0-1.79-5.43C45.21,53.92,44,51.47,42.93,49a9.16,9.16,0,0,1-1.14-4.36c-.21-.48,0-.7.46-.82a.85.85,0,0,1,.9.62C44,49.2,47.06,53,48.53,57.55a14.22,14.22,0,0,1,.59,2,12.87,12.87,0,0,0,.34,1.79,2.18,2.18,0,0,1-.25,1.77C47.78,63.53,48.69,62.13,48.2,61.79Z" style="fill:#949292;fill-rule:evenodd"/><path d="M15.5,57.05c-1.09,1.51-1.15,2-.09,3.29a14.56,14.56,0,0,0,3.89,3.41,51.86,51.86,0,0,1,5.83,3.56.49.49,0,0,1,.06.68c-2.25.45-3.66-1.3-5.3-2.24-2.52-1.45-5.16-2.92-6.43-5.82-.9-2.06-.19-3.29,2-3.54A.47.47,0,0,1,15.5,57.05Z" style="fill:#9f9191;fill-rule:evenodd"/><path d="M233.5,49.25l-.59.06a3.46,3.46,0,0,1-.95-.1,20.82,20.82,0,0,0-11.26-1.07c.09-1,1-1,1.43-1,2-.34,3.91-.66,5.85-1.1a1.94,1.94,0,0,1,2,.36l-1.37.57c-.22.12-.44.24,0,.42C230.26,47.89,232.08,48.05,233.5,49.25Z" style="fill:#626064;fill-rule:evenodd"/><path d="M17,32.45c-.51.31-.63.64-.06,1,.34.55,1.62-.25,1.46,1a1.61,1.61,0,0,1-1,.4,3.8,3.8,0,0,1-1.07-.1c-1.06-.44-2.35,0-3.29-.85-.44-1.74-2.9-1.6-3.22-3.46a1.24,1.24,0,0,1,.87-1.38A30.09,30.09,0,0,1,17,32.45Z" style="fill:#8b7b64;fill-rule:evenodd"/><path d="M99.53,118l5.72,2.33c.16.42-.08.64-.39.83a3.78,3.78,0,0,1-2,.18c.88.78,3.57.25,2.09,2.88a1,1,0,0,1-.66.14,2.07,2.07,0,0,1-.58-.38c-1.47-1-3.3-1.64-4-3.56C99.47,119.59,98.89,118.85,99.53,118Z" style="fill:#8d7a71;fill-rule:evenodd"/><path d="M5.95,58.74c-.1.53,0,1.13-.45,1.54a8,8,0,0,1,1.2-7.92,5,5,0,0,1,3.79-2.16A18.25,18.25,0,0,1,14.66,50a.49.49,0,0,1,.47.53c-.55.91-1.49.74-2.33.8C8.67,51.64,7.26,52.9,6.54,57A2.93,2.93,0,0,1,5.95,58.74Z" style="fill:#999191;fill-rule:evenodd"/><path d="M94.17,121.77c.35.43.71.59,1,0a3.81,3.81,0,0,1,1.85-1.95.87.87,0,0,1,.63,1c.09.31-.9.38-.17.83a2.17,2.17,0,0,1,.51.25c.66.64,2,.53,2,1.88a1.63,1.63,0,0,1-.64.42c-3.47.22-6.9-.55-10.37-.26-2.14-.38-2.2-.46-1.36-1.59,1.59-.47,3.25,0,4.85-.39l.67-.23.34-.1A.79.79,0,0,1,94.17,121.77Z" style="fill:#7f685f;fill-rule:evenodd"/><path d="M5,31.52c-1.08-1.45-2.72-2.38-3.72-3.93-.21-.33-.51-.61-.72-.94-.38-.6-.86-1.32-.35-2s1.43-.41,2.17-.08A7.62,7.62,0,0,1,5,26.22a1.36,1.36,0,0,1-1.25.47,1.71,1.71,0,0,1-1-.46c0,.32.27.52.31.82a5.31,5.31,0,0,0,1.48,2.13c.56.64,1.34,1.2,1,2.24A.37.37,0,0,1,5,31.52Z" style="fill:#91806d;fill-rule:evenodd"/><path d="M99.93,123.29c-.77-.46-2.14,0-2.27-1.43.21-.93,1.24-1.42,1.33-2.42,0-.56-.19-1.18.54-1.48a5.4,5.4,0,0,0,3,4.57c.58.33,1.43.19,1.72,1C102.69,124.92,101.32,123.94,99.93,123.29Z" style="fill:#d9dfde;fill-rule:evenodd"/><path d="M203.71,25.28a1.57,1.57,0,0,1-1.28.48c-6.32.05-12.62.81-19,.47-.16-.09-.21-.18-.15-.26s.11-.12.17-.12Z" style="fill:#8e5555;fill-rule:evenodd"/><path d="M105.76,130a1.12,1.12,0,0,1-1-.54c-1.32-.37-2.85-.17-3.83-1.45l-.48-.86a.58.58,0,0,1,.88-.11h1l0,0a6.78,6.78,0,0,0,2.62.67c.52-.14,1-.31,1.57-.4,1.23-.21,1.37,0,1,1.58a1.28,1.28,0,0,1-1,.95,5,5,0,0,1-.56.08Z" style="fill:#827367;fill-rule:evenodd"/><path d="M23.57,48.7c.3-1.3-.45-1.88-1.52-2.29C20,45.63,18,44.82,15.92,44a1.19,1.19,0,0,1,.72-.83,11.89,11.89,0,0,1,7.75,3.12c1.45,1.18,1.06,2.24-.77,3A.44.44,0,0,1,23.57,48.7Z" style="fill:#9c9090;fill-rule:evenodd"/><path d="M3.46,26.25l1.51,0a12.11,12.11,0,0,1,3.79,1.92c.26.33.72.25,1,.47a.43.43,0,0,1,.4.14,4.34,4.34,0,0,1,.5.36h0a3.2,3.2,0,0,0-.52,1.52.54.54,0,0,1-.5.12,2,2,0,0,1-.47-.28L9,30.28l-.41-.35-.23-.14a7.25,7.25,0,0,0-.8-.3,15.37,15.37,0,0,1-3.63-1.87,2.28,2.28,0,0,1-.6-.77A.63.63,0,0,1,3.46,26.25Z" style="fill:#786b5e;fill-rule:evenodd"/><path d="M42.38,44l-.6.63a31.86,31.86,0,0,1-1.66-3.16,2.75,2.75,0,0,1,1.51-4c1.13-.53,2.25-1.25,3.6-1.1a.76.76,0,0,1,.19.63c-.3.75-1,.95-1.66,1.21-2.29.92-2.54,1.46-1.76,3.73C42.23,42.63,42.71,43.24,42.38,44Z" style="fill:#9f9797;fill-rule:evenodd"/><path d="M103.79,132.34c0,.14,0,.27,0,.41-.4,0-.8,0-1.19.08-2.29.36-4-.28-5-2.54A5.76,5.76,0,0,0,95,127.92a8,8,0,0,1-2.23-1.33c-.17-.11-.23-.22-.17-.33s.11-.17.16-.17l.47-.47c3.18,1,5.24,3.36,7.26,5.79C101.52,131.93,102.75,131.82,103.79,132.34Z" style="fill:#968479;fill-rule:evenodd"/><path d="M32.27,69.07a38.85,38.85,0,0,1,7.2,0c1.1.42,2.3-.12,3.4.34l0,.07a.54.54,0,0,1-.24.75,38.87,38.87,0,0,1-12.4.06c-.68-.53-.48-.87.26-1S31.68,69.32,32.27,69.07Z" style="fill:#a36868;fill-rule:evenodd"/><path d="M39,108.24l.48-.4c0-1.67-1-3.07-1.24-4.67-.15-1.17-.37-2.64,1.71-1.77a2,2,0,0,1,.21,1.28c-.1,2,1.91,2.94,2.16,4.72l-.56.54C41,108.91,40.07,109.35,39,108.24Z" style="fill:#908a8a;fill-rule:evenodd"/><path d="M104.69,120.85l.56-.55a10.5,10.5,0,0,1,1.54.58,13.54,13.54,0,0,0,7.57,1.38v.57c-.87,1.65-2.43.86-3.58.79C108.48,123.47,106,123.29,104.69,120.85Z" style="fill:#978467;fill-rule:evenodd"/><path d="M118.71,124.67a1.26,1.26,0,0,1,.48,1.11,4,4,0,0,1-5.51,1.65c-1.67-.7-3.54-.85-5.14-1.78a4.86,4.86,0,0,0,2-.47,29.41,29.41,0,0,0,4.51,1.17C116.72,126.79,117.58,125.42,118.71,124.67Z" style="fill:#938c82;fill-rule:evenodd"/><path d="M113.88,113.55c.87-.76,1.95-.27,2.91-.5,1.37-.73,2.85-.25,4.28-.39a56.44,56.44,0,0,1,10,0,1.47,1.47,0,0,1,.69.53,2.63,2.63,0,0,1-1.81.46Z" style="fill:#838c8c;fill-rule:evenodd"/><path d="M183.49,25.85q0,.19,0,.38c-2.08,0-4.16.13-6.22,0-2.25-.12-4.42.66-6.66.45-.69-.07-1.46.22-2-.48,4,0,8-.69,12.06-.48Z" style="fill:#ac5656;fill-rule:evenodd"/><path d="M107.64,113.58l.53.59a17,17,0,0,1-6.8,2.29.8.8,0,0,1-.17-.71A7.64,7.64,0,0,1,107.64,113.58Z" style="fill:#8c8081;fill-rule:evenodd"/><path d="M77.33,124.71a2.22,2.22,0,0,1-1.36-.38A43.3,43.3,0,0,1,70,120a1,1,0,0,1,.69-.74,32.8,32.8,0,0,1,6.9,4.89A.84.84,0,0,1,77.33,124.71Z" style="fill:#a29595;fill-rule:evenodd"/><path d="M15.52,44a7.88,7.88,0,0,1-5.32-4.26c.15-.3.3-.59.69-.61a59.87,59.87,0,0,1,4.8,4.27A.81.81,0,0,1,15.52,44Z" style="fill:#a19999;fill-rule:evenodd"/><path d="M26.91,56.46l-.77.05A63.64,63.64,0,0,1,16,56.61c-.21-1.08.67-1.18,1.29-1.2,3.14-.11,6.29-.55,9.4.28A.48.48,0,0,1,26.91,56.46Z" style="fill:#c06b6b;fill-rule:evenodd"/><path d="M77.33,124.71l.1-.68a13.14,13.14,0,0,1,6.92-.36,1.88,1.88,0,0,1,1,1.2.89.89,0,0,1-.22.72,4.59,4.59,0,0,0-3.88-.54,10.25,10.25,0,0,0-2.81-.16,1.74,1.74,0,0,1-1-.2Z" style="fill:#a89491;fill-rule:evenodd"/><path d="M97.5,117.36a38.73,38.73,0,0,1-5.49.17c-.45.08-.6.62-1.06.69a2.35,2.35,0,0,1-.67,0l-1-.15c-.71-.15-1.55,0-1.93-.87a.84.84,0,0,1,.49-.61c2.81-.63,5.65-.29,8.48-.24C96.84,116.52,97.5,116.55,97.5,117.36Z" style="fill:#985c5c;fill-rule:evenodd"/><path d="M15.79,56.46l10.35,0a3.57,3.57,0,0,1-2.52.5c-2.71,0-5.42,0-8.12,0v-.53Z" style="fill:#7e8888;fill-rule:evenodd"/><path d="M23.67,87.62l-.57.59a1.87,1.87,0,0,0-1.36.26.66.66,0,0,1-1-.25,1.1,1.1,0,0,1,.56-1c.38-.72.82-1.45,1.79-1.06A1,1,0,0,1,23.67,87.62Z" style="fill:#918a8a;fill-rule:evenodd"/><path d="M10.7,39.16l-.5.53L7.64,35.41a.54.54,0,0,1,.42-.25,1.15,1.15,0,0,1,.48.17l.43.29.24.12.52.18a2.11,2.11,0,0,1,.53.26,1.71,1.71,0,0,1,.34.51C10.75,37.52,11.29,38.32,10.7,39.16Z" style="fill:#8d8885;fill-rule:evenodd"/><path d="M51.85,36.81c-.48,0-1-.08-1.33.45-1.32.7-2.55.21-3.78-.27a.51.51,0,0,1-.08-.7,2.75,2.75,0,0,1,2.7-.28,12,12,0,0,0,2.56.39q.25.18.14.3A.28.28,0,0,1,51.85,36.81Z" style="fill:#889595;fill-rule:evenodd"/><path d="M108.14,131.89l-.07-.64c-.3-.14-.65-.13-.91-.36,0-.18,0-.37,0-.55-.14-.93.67-.58,1.06-.79.53,0,1.16-.15,1.26.59A1.42,1.42,0,0,1,108.14,131.89Z" style="fill:#a09696;fill-rule:evenodd"/><path d="M99,119.44c1.16,1.69-.62,1.76-1.33,2.42l-.11-.09a.58.58,0,0,1,0-.88l-.45-1.09C97.58,119.05,98.31,119.39,99,119.44Z" style="fill:#7b6863;fill-rule:evenodd"/><path d="M51.85,36.81a1.27,1.27,0,0,0,.06-.41,15.15,15.15,0,0,1,7.8.88C57.08,37.42,54.51,36.44,51.85,36.81Z" style="fill:#9a5f60;fill-rule:evenodd"/><path d="M8.24,35.38l-.6,0A10.22,10.22,0,0,1,5,31.52h.49A4.09,4.09,0,0,1,8.24,35.38Z" style="fill:#9d8c7b;fill-rule:evenodd"/><path d="M48.2,61.79,49,63.2a1.55,1.55,0,0,1,0,2.41c-.51.4-.36,1-.45,1.51C47.74,65.4,48.16,63.58,48.2,61.79Z" style="fill:#9b9999;fill-rule:evenodd"/><path d="M90.69,118l1.33-.45c-.18.89.57,1.24,1,1.74a3,3,0,0,1,1.12,2.5l-.51,0C92.4,120.69,91.13,119.66,90.69,118Z" style="fill:#8d8b8b;fill-rule:evenodd"/><path d="M25.08,68l.05-.67L29.39,69a.45.45,0,0,1-.07.67C27.49,70.17,26,69.85,25.08,68Z" style="fill:#9c8787;fill-rule:evenodd"/><path d="M135,110.75l1,.58a5.19,5.19,0,0,1-4.35,1.86l-.09-.09a.54.54,0,0,1,0-.6C132.56,111.55,134,111.61,135,110.75Z" style="fill:#9b8a8a;fill-rule:evenodd"/><path d="M26.91,56.46l.06-.51c.48-1.52,1.61-1.64,2.93-1.36l.48.52A5.17,5.17,0,0,1,26.91,56.46Z" style="fill:#a19595;fill-rule:evenodd"/><path d="M97.5,117.36c-.22-.34-.59-.33-.93-.4,1.29-1.79,3-1.75,4.81-1,0,.17,0,.34,0,.51Z" style="fill:#a87a7a;fill-rule:evenodd"/><path d="M15,50.27,10.5,50.2a10.94,10.94,0,0,1,6.95,0,1.23,1.23,0,0,1-.61.45A1.85,1.85,0,0,1,15,50.27Z" style="fill:#a98c8c;fill-rule:evenodd"/><path d="M85.09,125.59l0-.49a4.21,4.21,0,0,1,4.1-.25.5.5,0,0,1,.21.72C87.94,125.59,86.52,126.53,85.09,125.59Z" style="fill:#9a706e;fill-rule:evenodd"/><path d="M231.09,24.4c1,0,1.83-.68,2.84-.49.3.58.91.33,1.36.51a1.17,1.17,0,0,1-.9.47C233.27,24.83,232,25.77,231.09,24.4Z" style="fill:#b7cbcb;fill-rule:evenodd"/><path d="M120.13,118.41h-.5c-.72.44-.3,1.45-1,1.92l-1-.5c.13-.44.23-.88.39-1.31C118.61,117.11,118.93,117.09,120.13,118.41Z" style="fill:#928279;fill-rule:evenodd"/><path d="M23.57,48.7l.1.78c-.26,1.34-1.23,1.58-2.39,1.53a1.49,1.49,0,0,1-1.06-.85A13.29,13.29,0,0,0,23.57,48.7Z" style="fill:#aba3a3;fill-rule:evenodd"/><path d="M70.66,119.51,70,120l-2.2-1.12c-.09-.48.23-.65.59-.79C69.58,117.92,70.43,118.25,70.66,119.51Z" style="fill:#a08484;fill-rule:evenodd"/><path d="M89.37,125.56c0-.13,0-.26,0-.39a1.31,1.31,0,0,1,.63-.47,2.11,2.11,0,0,1,2.22.44,1,1,0,0,0,.48,1c0,.17,0,.33,0,.5C91.61,126.32,90.6,125.57,89.37,125.56Z" style="fill:#797772;fill-rule:evenodd"/><path d="M120.13,103.56l0,.37c-.63.52-1.46.47-2.18.73a1,1,0,0,1-.78-.57.8.8,0,0,1,.36-.86,3.61,3.61,0,0,1,.9-.41,2.18,2.18,0,0,1,1.28-.11.5.5,0,0,1,0,.36Z" style="fill:#bccecf;fill-rule:evenodd"/><path d="M238.4,34.86l-5,0a.4.4,0,0,1-.13-.4c0-.13.08-.2.12-.2a.87.87,0,0,1,1,0C235.69,34.68,237.14,34.07,238.4,34.86Z" style="fill:#755a5e;fill-rule:evenodd"/><path d="M68.38,118.32l-.54.5a7,7,0,0,1-3-.86,1.56,1.56,0,0,1,1.16-.75C66.91,117.34,68,117.12,68.38,118.32Z" style="fill:#9f9b9b;fill-rule:evenodd"/><path d="M20.22,50.16c.32.16.74.13,1,.5-1.24,1.09-2.61.8-4,.38a.44.44,0,0,1-.19-.69.9.9,0,0,0,.45-.14Z" style="fill:#8a5b5b;fill-rule:evenodd"/><path d="M105,127.73a2.05,2.05,0,0,1-2.62-.67h1.93C104.35,127.47,104.75,127.52,105,127.73Z" style="fill:#8ccaca;fill-rule:evenodd"/><path d="M108.22,129.55l-1.06.79c-.47-.11-1,.11-1.39-.38h0a1.23,1.23,0,0,1,.59-.46c.53,0,.81-.46,1.26-.59Z" style="fill:#e8e9e9;fill-rule:evenodd"/><path d="M242.1,35.37c-1.16-.12-2.41.43-3.46-.48C239.82,34.85,241,34.58,242.1,35.37Z" style="fill:#975858;fill-rule:evenodd"/><path d="M42.86,69.4c-1.14,0-2.33.41-3.4-.34C40.61,69,41.79,68.66,42.86,69.4Z" style="fill:#d48989;fill-rule:evenodd"/><path d="M29.42,69.62l0-.65,2.88.1c-.66.76-1.72.09-2.42.68C29.55,70.23,29.5,69.86,29.42,69.62Z" style="fill:#c17c7c;fill-rule:evenodd"/><path d="M78.39,124.67c.94.14,2-.33,2.82.38a6.19,6.19,0,0,1-2.84,0c-.16-.09-.21-.17-.15-.25A.23.23,0,0,1,78.39,124.67Z" style="fill:#738484;fill-rule:evenodd"/><path d="M106.18,50.22l.09.61c0,.65-.3,1-1,.93l-.53-1.63Z" style="fill:#7c6667;fill-rule:evenodd"/><path d="M234.37,34.32l-1,.15c-.18.17-.33.13-.44-.08a1.15,1.15,0,0,1,1.44-.86C234.37,33.79,234.37,34.05,234.37,34.32Z" style="fill:#dce6e6;fill-rule:evenodd"/><path d="M47.24,69.89l-2.47,0c-.17-.06-.23-.14-.18-.22s.1-.13.15-.13A3.29,3.29,0,0,1,47.24,69.89Z" style="fill:#ca8080;fill-rule:evenodd"/><path d="M133.15,101.15c-.78.75-1.73.4-2.62.42A3.16,3.16,0,0,1,133.15,101.15Z" style="fill:#9d5e5e;fill-rule:evenodd"/><path d="M44.74,69.51c0,.12,0,.24,0,.35l-.65.14a.86.86,0,0,1-1.3-.16c0-.13,0-.25,0-.38Z" style="fill:#996464;fill-rule:evenodd"/><path d="M65.86,117.58c-.27.31-.67.29-1,.38a.82.82,0,0,1-.36-.06,1.21,1.21,0,0,1,0-.45A.9.9,0,0,1,65.86,117.58Z" style="fill:#a06060;fill-rule:evenodd"/><path d="M46.66,36.29c0,.15,0,.3-.06.45a.94.94,0,0,1-1.33.21l0-.54Z" style="fill:#9a6767;fill-rule:evenodd"/><path d="M228.59,47.33a4.56,4.56,0,0,1-.6-.14c0-.42.38-.27.63-.28A1.48,1.48,0,0,0,228.59,47.33Z" style="fill:#acc;fill-rule:evenodd"/><path d="M78.39,124.67c0,.12,0,.24,0,.36a.94.94,0,0,1-1-.34Z" style="fill:#a29595;fill-rule:evenodd"/><path d="M15.52,44l0-.53a.69.69,0,0,1,1,.19l-.52.41A.74.74,0,0,1,15.52,44Z" style="fill:#9a6868;fill-rule:evenodd"/><path d="M9.8,28.61a.9.9,0,0,1-1-.47A1.26,1.26,0,0,1,9.8,28.61Z" style="fill:#8b7b64;fill-rule:evenodd"/><path d="M10.7,29.11l-.5-.36A.43.43,0,0,1,10.7,29.11Z" style="fill:#8b7b64;fill-rule:evenodd"/><path d="M152.8,84.47a.72.72,0,0,1,.48-.6A.7.7,0,0,1,152.8,84.47Z" style="fill:#576776;fill-rule:evenodd"/><path d="M16.43,43.61l-1-.19a16.26,16.26,0,0,1-4.77-4.26,8,8,0,0,1-.53-2.84,2.13,2.13,0,0,1,2.47-2.23,13.8,13.8,0,0,1,3.76.24l.8.12a2.22,2.22,0,0,0,1.72,0,4.5,4.5,0,0,1,3.25,1.34,36.85,36.85,0,0,1,4.12,1.87A15.89,15.89,0,0,1,31.62,43c2.3,3.74,2.25,8.56-1.72,11.54A8.39,8.39,0,0,0,27,55.95c-2.75,0-5.5,0-8.24,0-1,0-2.06-.29-2.94.48h-.15l-.13.07c-2,.84-2.35,1.58-1.42,3.36A11.16,11.16,0,0,0,18.27,64,56.54,56.54,0,0,0,25.08,68a7.72,7.72,0,0,0,4.34,1.64.28.28,0,0,0,.43.13l13,.1,1.3.16c3.41.54,6.74,1.67,10.26,1.32a1.53,1.53,0,0,1,1.1-.28,21.4,21.4,0,0,0,3.08.21c.88.07,1.89.14,2.06,1.22s-.84,1.19-1.53,1.54c-.35.18-.73.32-1.08.5-1.05.61-2.23,1-3.29,1.54a24.67,24.67,0,0,1-5.42,0,18.31,18.31,0,0,0,5.8-.11c1-.54,2.09-.84,3.06-1.42,2-1.21,4-.09,5.92,0a3.84,3.84,0,0,0,2.66-.39,8,8,0,0,1,3.9-1,6,6,0,0,0,4.78-1.69q4.82-3.64,10-6.81C89.92,62,94.71,59.79,99,56.74a6.66,6.66,0,0,1,2.34-1.17,10.31,10.31,0,0,0,3.94-3.82,2.16,2.16,0,0,0,1-.93A150,150,0,0,1,127,37.58c6.64-3.65,13.29-7.27,19.85-11.06,1.1-.64,2.15-1.38,3.24-2,.39-.23.87-.51,1.34-.18s.47,1,.33,1.53c-.1.38-.32.73-.43,1.11s-.76,1-.18,1.51,1,.09,1.57-.08a128.79,128.79,0,0,0,14.86-6c.36-.17.71-.37,1.07-.53a.91.91,0,0,1,1.27.27,1,1,0,0,1-.12,1.33c-.86.82-1.8,1.57-2.71,2.34-2.16,1-4.08,2.56-6.48,2.83a23.19,23.19,0,0,0-6.25,2.11,7.3,7.3,0,0,0-1.18.77,6.6,6.6,0,0,1-3.4,1.9l-.84,1.5a2.62,2.62,0,0,1-1.54,1.89c-2.85,2.51-5,5.74-8,8.17-1.22-2.21-1.46-2.2-3.79-1.32a65.8,65.8,0,0,0-18,10.76c-.83.67-1.61,1.89-3,.47-.52-.55-1.32.32-1.87.69-3.17,2.15-6.3,4.36-9.45,6.55a3.93,3.93,0,0,1-1.41.88c-.37-1.72-.39-1.74-1.85-1.1-2.43,1.05-4.45,2.78-6.67,4.17-.89.56-1.24,1.65-1.83,2.5Q87.65,74.28,83.75,80c-.34,1.8-1.82,2.67-3.08,3.72a2.64,2.64,0,0,0-1,1,2.57,2.57,0,0,1-1.76.84,1.82,1.82,0,0,1-.64-.15,2.73,2.73,0,0,1-.71-.66c-.42-.6-.83-1.22-1.7-1.21a4.87,4.87,0,0,0-2.81,0,4.6,4.6,0,0,0-1.57.22,3.3,3.3,0,0,0-1.52.26,2.27,2.27,0,0,1-.57.25,7.21,7.21,0,0,0-.87.36c-1.09.38-2.25.5-3.32.94-.57,1-.49,2.33-2.06,2.61-1.19.21-.42,1.09-.32,1.71s-.36.77-.64,1.07c.44,0,.86,0,1.06-.48-.08-.47-.58-1.18-.37-1.3,1.66-.94,2.21-2.88,3.7-3.95a22,22,0,0,0,2.77-.89,3.55,3.55,0,0,0,.89-.37,2.8,2.8,0,0,1,.94-.17,5,5,0,0,0,1.27-.24c.33,0,.67,0,1,0a3.63,3.63,0,0,1,2.34,0c1.25,0,1.38,1.34,2.22,1.82,1.27.81,2.23-.3,3.32-.55l4.28,0a22.28,22.28,0,0,1,13.15,5.47c.79.68,1.48,1.52,1,2.71-.85,2.28.6,3.32,2.32,3.95a32.49,32.49,0,0,0,7.37,1.79c3.94.46,6.37,3.56,5.78,7.19a.83.83,0,0,0,0,.39c-.12.93.48,2.05-.71,2.71a4.35,4.35,0,0,0-.75.38,1.92,1.92,0,0,1-.45.29c-.64.71-.12,2-1.3,2.46l-.54.17a.77.77,0,0,0-.42.26,3.42,3.42,0,0,0-2.41,1c-2.1.75-4.42.92-6.25,2.37a13.5,13.5,0,0,0-4.81,1l-9.11.07c-.4.2-.79-.08-1.18-.05H84.41a5.15,5.15,0,0,1-1.88-.23,2.12,2.12,0,0,1-.72-.24.69.69,0,0,0,.44.23,8.78,8.78,0,0,1,.9.2c1.46.2,3-.25,4.37.44l2.2.15a2.66,2.66,0,0,1,.71.38.37.37,0,0,0,.26.09c.91,1.31,2.42,2.15,3,3.75h0a2,2,0,0,0-.29.53c-1.72.79-3.53.3-5.3.39-2.91-.37-5-2.22-7.29-3.84a6.81,6.81,0,0,0-1.93-1c-.29-.12-.58-.26-.86-.4a18.25,18.25,0,0,1-2.5-1.37c-.26-.17-.52-.35-.79-.52a3.63,3.63,0,0,1-.53-.38,1.81,1.81,0,0,1-.83-1.71,1.16,1.16,0,0,1,1.06-.7,2.24,2.24,0,0,1,.92.14,1.79,1.79,0,0,0,.37,0l-.39-.1c-1.83-.27-3.37-1.48-5.18-1.5a30.23,30.23,0,0,1,3.74,3.64l.46.45a4.3,4.3,0,0,1,.48.41,15.73,15.73,0,0,0,2.39,1.94,10.35,10.35,0,0,0,3.42,2.17c1.7.89,3.56,1.6,4.21,3.68a.92.92,0,0,1-.29.6,4.64,4.64,0,0,0-2-.23,13.3,13.3,0,0,1-5.09.08c-2.52-1.11-4.55-3-6.77-4.52a3.33,3.33,0,0,0-2.29-1.19c-.72-.63-1.7-.42-2.52-.74l-1.42-.12A7,7,0,0,0,63.1,117a11.28,11.28,0,0,1-7.64-4.85c-.57-.77-1.12-1.55-1.71-2.31-.23-.3-.49-.66-1.16-.28.39,1.44,1.7,2.35,2.38,3.82A16,16,0,0,1,48,111.3a33.9,33.9,0,0,1-5.7-3.9,8.21,8.21,0,0,1-2.87-4.83c1.67-1.08,2.59,1.22,4.2.69-1.33-.37-2.74-.58-3.74-1.62-1.06-.52-1.55-.11-1.29,1,.34,1.43.86,2.83,1.29,4.24.14.46.3.93-.45,1A18.32,18.32,0,0,0,35,104.31a7.22,7.22,0,0,1-3.48-3.74,23.52,23.52,0,0,0-2.42-4.34,3.29,3.29,0,0,1-.46-.83,16.25,16.25,0,0,0-5-7.79c-.73-1.54-.73-1.54-2.37-.44-1.42-5.32-4.47-9.66-8.15-13.62-1.49-1.6-2.91-3.19-3-5.54a2.45,2.45,0,0,0-.58-1.29,19.74,19.74,0,0,1-3.58-8,7.66,7.66,0,0,1,1.62-6,5.6,5.6,0,0,1,4.58-2.06c.95,0,1.9-.07,2.84-.11a3.68,3.68,0,0,1,2,.08,12.73,12.73,0,0,0,4.21,0,2.86,2.86,0,0,0,2.49-1.18c1.42-1.42,1.56-2.3,0-3.16C21.45,45.06,19.17,43.66,16.43,43.61Z" style="fill:#fff;fill-rule:evenodd"/><path d="M144.31,62a29.16,29.16,0,0,1,5,12.12,3.41,3.41,0,0,1-1.36-2.35A28.05,28.05,0,0,0,145.71,66c-.74-1.51-1-1.51-2.25-.43-.3.26-.55.66-.9.78-3.32,1.2-4.87,3.93-6.13,6.94-.44,1.06-1,1.92-2.35,2.06-1.09.11-1.35,1.33-1.63,2.19A3.16,3.16,0,0,1,130.12,80a1.92,1.92,0,0,0-1.43,1.41c-.69,1.78-1.48,3.53-2.31,5.25-.52,1.08-1.23,1.85-2.65,1.24-1-.41-1.45.21-1.72,1.1-.85,2.75-2.19,5.31-3.27,8a1.75,1.75,0,0,1-2.21,1.25c-.59-.1-.73-.55-.67-1.08s.37-.72.83-.53c1.06.44,1.3-.19,1.7-1,1.1-2.23,1.83-4.59,2.72-6.89.47-1.23,1.05-2.11,2.57-2,1.32.12,2-.86,2.61-1.81a15.49,15.49,0,0,0,1.53-3.76c.34-1.11.78-2.05,2.2-2.17,1-.08,1.42-.88,1.68-1.8.42-1.48.83-3,2.83-3,.7,0,.95-.8,1.19-1.39s.62-1.29.9-1.93A9.52,9.52,0,0,1,141.31,66,5.11,5.11,0,0,0,144.31,62Z" style="fill:#545a5f;fill-rule:evenodd"/><path d="M114.25,106a1.65,1.65,0,0,1-.38-1.1c-.32-3.25-2.2-5.29-5.4-5.6a36,36,0,0,1-6.75-1.52,7.32,7.32,0,0,1-2.34-1.17c-1-.72-1.64-1.65-1.18-2.87.6-1.6-.2-2.61-1.25-3.55a17.62,17.62,0,0,0-4.07-2.49c-2.64-1.31-5.53-1.87-8.29-2.81.53-.73,1.29-.58,2-.42a26.33,26.33,0,0,1,11,5c1.28,1,2.28,2.19,1.54,4.11-.42,1.08.09,1.93,1.22,2.51a25.34,25.34,0,0,0,7.8,2.13,8.28,8.28,0,0,1,6.46,4.37c.48.88,1,1.12,1.92.64a23.07,23.07,0,0,1,2.22-.88.67.67,0,0,1,1,.41c-.37.4-.87.34-1.34.37a1.8,1.8,0,0,0-.59.36l-.53.54a1.68,1.68,0,0,1-.41.39,1,1,0,0,0-.32.2c.2-.05.4-.12.61-.19a.75.75,0,0,1,.56,0l2.44-.44C118.42,105.4,116.36,105.75,114.25,106Z" style="fill:#5c686c;fill-rule:evenodd"/><path d="M149.83,33.4a5.61,5.61,0,0,1,3.4-1.9,2.71,2.71,0,0,0,2.05.41,17.42,17.42,0,0,1,7.57,0c1.86.38,3.79.27,5.7.48,3.79.42,7.54,1.12,11.31,1.65s7.27.8,10.76-.79a1.47,1.47,0,0,1,.46-.12c.06,0,.13.08.29.2-1.16,1.54-2.85,1.86-4.58,2-2.8.29-5.56-.3-8.31-.65-4.17-.53-8.29-1.35-12.48-1.82-2.47-.28-4.92-.32-7.38-.41a22.19,22.19,0,0,0-7.29,1C150.8,33.66,150.28,34.07,149.83,33.4Z" style="fill:#555a5d;fill-rule:evenodd"/><path d="M232.94,34.39a.73.73,0,0,1,.44.08c0,.14,0,.28,0,.41-1.9,0-3.77-.17-5.48,1.17a4.94,4.94,0,0,1-3,.71c-3-.06-6,.31-9.05-.32a31.54,31.54,0,0,0-5-.54c-3.72-.17-7.34-1.12-11.08-1.2a7.7,7.7,0,0,1,3.1-.28,56.51,56.51,0,0,1,8.74.83,87.41,87.41,0,0,0,13.81.6,2.35,2.35,0,0,0,1.68-.77A7.39,7.39,0,0,1,230,33.7,2.4,2.4,0,0,1,232.94,34.39Z" style="fill:#55595e;fill-rule:evenodd"/><path d="M139,60.64a3.39,3.39,0,0,1-1.71,2.17c-2.44,1.78-5.22,3.09-7.38,5.26-.7.7-1.68,1.26-1.22,2.58.17.47-.33.85-.66,1.21-3.89,4.28-8.46,7-14.53,6.13.39-.71,1.05-.26,1.57-.41a13.4,13.4,0,0,1,1.85-.44,18.57,18.57,0,0,0,9.33-4.49,3.44,3.44,0,0,0,1.5-2.63,3.08,3.08,0,0,1,1.41-2.63C132.31,65,135.75,63,139,60.64Z" style="fill:#545a5e;fill-rule:evenodd"/><path d="M154.88,50.95c-.46-1-1.36-1.34-2-2.17,1.49-.93,2.88.31,4.29.09a21.68,21.68,0,0,0,4.71-1.21c-2.79-2.62-6.29-3.14-9.42-4.38.39-1,.86-.35,1.23-.29a24.21,24.21,0,0,1,7.54,2.88,4.31,4.31,0,0,1,1,.67c.92.9.77,1.69-.39,2.23-1.51.7-3.12.5-4.71.53-.72,0-1.5-.1-1.19,1.13.24,1-.59,1.44-1.31,1.74a22.92,22.92,0,0,1-4.27,1.3C151.37,51.78,153.52,52.18,154.88,50.95Z" style="fill:#54585c;fill-rule:evenodd"/><path d="M80.68,83.75A21.15,21.15,0,0,1,83.75,80a2.39,2.39,0,0,0,1.85,1.49c4.06.69,8.12.25,12.17.41a4.79,4.79,0,0,1,2.3.23c-.39.87-1.1.74-1.69.72-3.65-.16-7.32.38-11-.41a20.23,20.23,0,0,0-3.58-.06,2.8,2.8,0,0,0-2,1.1C81.49,83.8,81.2,84.36,80.68,83.75Z" style="fill:#585b5f;fill-rule:evenodd"/><path d="M167.57,35.74c3.5.83,6.62,2.72,10.07,3.69a42.35,42.35,0,0,0,10.37,2c-.59.9-1.41.71-2.11.64C179.25,41.36,170.8,38.4,167.57,35.74Z" style="fill:#54595e;fill-rule:evenodd"/><path d="M115,72.92a7.1,7.1,0,0,1-5.55,2.71A35.63,35.63,0,0,1,94.66,73.5a2.34,2.34,0,0,1-.56-.43,1.69,1.69,0,0,1,1.61-.15c3.16.76,6.33,1.45,9.55,2a14.11,14.11,0,0,0,6.27-.7C112.71,73.88,113.83,73.36,115,72.92Z" style="fill:#555a5f;fill-rule:evenodd"/><path d="M196.91,40.49c3.42-.41,17.31,4.38,19.39,6.66C209.9,44.78,203.53,42.31,196.91,40.49Z" style="fill:#54595f;fill-rule:evenodd"/><path d="M148.13,42.73c.65,1.24-.08,2.19-.29,3.14-.5,2.35-1.84,4.38-2.9,6.51a1.89,1.89,0,0,1-1.2,1.11,3.94,3.94,0,0,0-3.22,3.38.94.94,0,0,1-.93.84A4.61,4.61,0,0,1,142,53.29a7.76,7.76,0,0,0,3.7-4.44c.59-1.44,1.44-2.83,1.33-4.52A1.56,1.56,0,0,1,148.13,42.73Z" style="fill:#545b60;fill-rule:evenodd"/><path d="M114.61,65.72c1.34-1.29,12.52-5.53,14.75-5.6C127.89,61.37,116,65.86,114.61,65.72Z" style="fill:#555a5f;fill-rule:evenodd"/><path d="M130.95,51.58c-.27.84-1,.9-1.67,1.12-2.1.71-4.22,1.39-6.3,2.17-.38.14-1.7.22-.58,1.25.24.22,0,.37-.25.37-.48,0-1,0-1.43,0s-1.28.21-1.34-.58c0-.57.51-1,1-1.19,1.41-.52,2.85-1,4.28-1.46a39.2,39.2,0,0,0,5.15-1.85A.86.86,0,0,1,130.95,51.58Z" style="fill:#545a5f;fill-rule:evenodd"/><path d="M116.42,82.12c-2.11,3.44-8.3,3.49-13.53.46,2.71-.25,4.7,1.36,7.05,1.34A14.32,14.32,0,0,0,116.42,82.12Z" style="fill:#555a5f;fill-rule:evenodd"/><path d="M122.14,57.38c-1.91,2.69-10.33,5.93-13.68,5.44A61.67,61.67,0,0,0,122.14,57.38Z" style="fill:#545a5f;fill-rule:evenodd"/><path d="M100.77,90.32a1.46,1.46,0,0,1,1.32-.1,6.67,6.67,0,0,0,7.16-2c.34-.34.67-.69,1-1s.65-.59,1-.14.1.75-.13,1.09C109.27,91,103.89,92.2,100.77,90.32Z" style="fill:#555b60;fill-rule:evenodd"/><path d="M141.59,80.65c.2-2.89-1.32-5.5-1.32-8.34a1.28,1.28,0,0,1,.57-1.27C141.51,74.36,142.7,77.37,141.59,80.65Z" style="fill:#555c62;fill-rule:evenodd"/><path d="M155.57,59.41a14.61,14.61,0,0,1,5.56,5.31c.22.34.39.8,0,1.07s-.66-.19-.86-.5A13.24,13.24,0,0,0,156.21,61,1.45,1.45,0,0,1,155.57,59.41Z" style="fill:#555b61;fill-rule:evenodd"/><path d="M114.48,99.07l-4.29-4.34C111.55,94.73,113.89,97,114.48,99.07Z" style="fill:#555b61;fill-rule:evenodd"/><path d="M146.54,60.66c.8-1.48,2.23-1.1,3-1.94,0-.07,0-.15,0-.22,0-.63-1.49-1-.48-1.65.55-.37,1,.56,1.4,1a1,1,0,0,1-.3,1.77A10.78,10.78,0,0,1,146.54,60.66Z" style="fill:#555a60;fill-rule:evenodd"/><path d="M147.45,36.8A3.27,3.27,0,0,1,149,34.91c.53.91.82,2,2.59,2.15C149.74,38.24,148.6,37.45,147.45,36.8Z" style="fill:#605d61;fill-rule:evenodd"/><path d="M202.39,61.4a13.15,13.15,0,0,1-5.14-3.65C199.42,58.32,200.86,59.92,202.39,61.4Z" style="fill:#555b61;fill-rule:evenodd"/><path d="M114,66.9c1.83.2,2.25,1.73,3,2.87.17.24-.06.63-.35.78a1.3,1.3,0,0,1-.62,0C115.91,69.1,114.63,68.18,114,66.9Z" style="fill:#555b61;fill-rule:evenodd"/><path d="M129.23,88.35a3.58,3.58,0,0,1-.12-3.22A2.73,2.73,0,0,1,129.23,88.35Z" style="fill:#555c63;fill-rule:evenodd"/><path d="M134.66,78.32c1.28,1.27,1.53,2.2.83,3.72A11.14,11.14,0,0,1,134.66,78.32Z" style="fill:#555d63;fill-rule:evenodd"/><path d="M80.31,84.87c-1,1.06-2,1.91-3.52,1a.67.67,0,0,1,.6-.59c.79,0,1.45-.66,2.28-.52Z" style="fill:#9f9c9c;fill-rule:evenodd"/><path d="M231.09,24.4c1,.85,2.23.1,3.3.49-.54.57-1.28.32-1.93.45l-2.5-.12C230.18,24.57,230.65,24.51,231.09,24.4Z" style="fill:#878e8e;fill-rule:evenodd"/><path d="M126.09,106.29a4.93,4.93,0,0,1,2.71-1.23c10.1-2.55,20.21-5,30.31-7.58a7.58,7.58,0,0,1,2.14-.17c1.59.05,1.92.65,1.22,2.14-.49,1-.69,1.21-2.78,2.16.41-1.3,1.89-1.77,1.79-3.19a4,4,0,0,0-2.45.06c-6.91,1.84-13.9,3.41-20.81,5.29-3.37.92-6.81,1.58-10.17,2.57C127.53,106.5,126.87,106.91,126.09,106.29Z" style="fill:#565c61;fill-rule:evenodd"/><path d="M135,110.75c-.6,1.58-2.2,1.39-3.39,1.92-3.29.49-6.6.09-9.89.22l-.85,0q-.51-.14-.27-.61c2.5-.76,5.15-.46,7.67-1.11,1.24-.48,2.61.19,3.84-.41a.71.71,0,0,0,.47-.07Z" style="fill:#e5efef;fill-rule:evenodd"/><path d="M112.83,109.05c.42-.36,1.21-.47.78-1.37-.29-.61.15-1,.59-1.33h4a2.37,2.37,0,0,1,0,.61c-1.38.44-2.72.81-3.68,2.12a2.85,2.85,0,0,1-2.2.65l.31-.49Z" style="fill:#5f6165;fill-rule:evenodd"/><path d="M89.85,45.83c2.49.93,5.11,1.58,7.67,3.18-2.64.76-5.29.7-7.16,2.64a11.08,11.08,0,0,0-1.94,3.59c.72-1.5.91-3.56,3.33-2.68,3.1-.16,5.85,1.18,8.7,2.08.46.74,0,1.18-.52,1.59-4.3,3.23-9.23,5.37-13.82,8.11a1.28,1.28,0,0,1-1.88-.46c-.5-1.46-.21-3-.3-4.45s0-3.2.07-4.8c.2-1.27,1-2.46.56-3.83.32-2.71,2.22-4.1,4.41-5.25l.36,0A1.74,1.74,0,0,1,89.85,45.83Z" style="fill:#fefefe;fill-rule:evenodd"/><path d="M64,46.33a3.41,3.41,0,0,0-1.39-2.88,4.34,4.34,0,0,1-1.58-4c.11-1.07.64-1.45,1.59-1a11.17,11.17,0,0,1,3.22,2.43,1.83,1.83,0,0,0,2.34.54c3.32-1.63,6.34-.55,9.26,1.09,1.29.73,2.49,1.63,3.77,2.47.23-.35.43-.53.46-.73.65-3.56,2.37-3.64,5.81-4C89.63,40,90.2,41,89.61,43c-.09.31-.19.61-.29.91l-.89,1c-.87,1.91-2.76,2.86-4.09,4.34-1.11,1.76-2.06,1.67-3.81.4-2.56-1.87-5.64-2.7-8.71-.79-.72.44-1.35.65-1.89-.07-1.3-1.73-3.1-2.11-5.1-2.07A1,1,0,0,1,64,46.33Z" style="fill:#cdc29a;fill-rule:evenodd"/><path d="M84.59,64.2c1.59.15,2.56-1.11,3.79-1.74A89.7,89.7,0,0,0,99,56.3c.59-.41,1.57-.58,1.41-1.66.54.09.51.73.92.94A16.24,16.24,0,0,1,97,58.83C93.4,61,89.68,63,86,65a1.26,1.26,0,0,1-.47.05C85.19,64.84,84.4,65,84.59,64.2Z" style="fill:#9e8e8e;fill-rule:evenodd"/><path d="M84.08,48.73,88.44,45l.53.58c-1,1-1.9,2.07-3,3a2.44,2.44,0,0,0-1,2.22C83.7,50.55,84.28,49.46,84.08,48.73Z" style="fill:#949089;fill-rule:evenodd"/><path d="M91.75,52.56c-2.25.26-2.47.58-2.89,4-1.2-1.63-.73-3.13,1.5-4.91C90.59,52.29,91.43,52,91.75,52.56Z" style="fill:#8c8181;fill-rule:evenodd"/><path d="M89.85,45.83a.41.41,0,0,1-.53-.25A.4.4,0,0,1,89.85,45.83Z" style="fill:#949089;fill-rule:evenodd"/><path d="M22.16,35.8a15.7,15.7,0,0,1-3.3-.92.38.38,0,0,1-.2-.35c0-.14,0-.21.07-.21.42-.49,1.08-.06,1.54-.4l1.55.57C22.57,34.77,22.51,35.25,22.16,35.8Z" style="fill:#9e8c6f;fill-rule:evenodd"/><path d="M20.28,33.93c-.36.59-1,.44-1.49.5q-.25.28-.43-.05c-.28-.59-1.14-.31-1.41-.92A5.14,5.14,0,0,1,20.28,33.93Z" style="fill:#b5a262;fill-rule:evenodd"/><path d="M45.26,36.95l1.33-.21a15.57,15.57,0,0,1,3.93.52c.92.68,2.09.57,3.1,1a6.52,6.52,0,0,1,2.46,1.26c1,1,2.33.71,3.57.73a10.35,10.35,0,0,0,3,4.75c.2.15.18.57.26.87-.57,1.83-2,3-3.15,4.48-2.34,2.16-6.92,1-8.28-2.11a8.66,8.66,0,0,0-.34-1.63,1.08,1.08,0,0,0-.48-.59c-.43-.1-.69.31-.84.61-.57,1.14-2.71.94-2.48,2.58a8.83,8.83,0,0,0,2.92,5.86c1.85,1.5,3.55,3.2,5.51,4.58.52.78,2.14,1.2.85,2.58a21.43,21.43,0,0,0-4.11,6.59c-.65,1.55-1.13,1.65-2.15.33A7.46,7.46,0,0,1,49,65.62q0-1.21,0-2.41,0-1,0-1.92c-.33-.45,0-1.07-.39-1.52a34.73,34.73,0,0,0-2.69-6.56c-1.44-3-3-5.89-3.56-9.2-.39-.78-.82-1.55-1.15-2.36-.78-1.91-.27-3.06,1.63-3.76A6.11,6.11,0,0,0,45.26,36.95Z" style="fill:#fefefe;fill-rule:evenodd"/><path d="M59.57,49.67l3.32-3.81,1.15.47a10.92,10.92,0,0,1,1.42-.15c2.23,0,4.31.41,5.3,3.36,1-2.17,2.65-2.36,4.35-2.17,2.44.26,5,.39,6.64,2.62.52.69,1.06.58,1.53-.09l.8-1.16c.8.44.19,1.55,1,2a3,3,0,0,1-.45,3.35c-.26.34-.48.74-1,.74a.93.93,0,0,1-.56-.3,1.35,1.35,0,0,1,0-.65c.25-2.13.25-2.13-2.54-1.6-.87-3.38-3.5-3.86-6.32-3.73.58.13,1.32-.11,2,.12s.38.56,0,.88A6.45,6.45,0,0,1,74.3,50a1.89,1.89,0,0,0-1.5,1.92A1.65,1.65,0,0,0,74,53.74c1,.33,1.62-.2,2.27-.89,1-1,.69-2.2.5-3.37,1.81-1,2.17.39,2.47,1.6a3.06,3.06,0,0,1-.67,2.44,6.62,6.62,0,0,1-1,.81l-.39.45c-.16.25-.32.51-.47.77-.6.81-.95,1.88-2.08,2.18a1.37,1.37,0,0,1-.6-.1c-.53-.43-.9-1-1.57-1.3-.45-.21-.94-.33-1.38-.56a3.83,3.83,0,0,1-1.23-1.32,1,1,0,0,0-1-.37,4.55,4.55,0,0,0-4.27,2.48.86.86,0,0,1-.62.06,1.57,1.57,0,0,1-.48-.8c-.14-.49-.52-.51-.93-.46a3.05,3.05,0,0,1-2.48-2.75,10.24,10.24,0,0,0-.62-2.24A1.07,1.07,0,0,1,59.57,49.67Z" style="fill:#67615f;fill-rule:evenodd"/><path d="M104.69,120.85a13.44,13.44,0,0,0,8.58,2.38,1.56,1.56,0,0,0,1.09-.4,3.48,3.48,0,0,0,2.16-.89,2.33,2.33,0,0,1,1.53-.61c.32,0,.67,0,.85.31a.63.63,0,0,1-.24.83c-1.6,1.3-3.06,2.64-5.52,1.93-2.19-.64-4.4.23-6.51,1a7.61,7.61,0,0,1-3.72.67,3.68,3.68,0,0,0-2.41-.95.39.39,0,0,1,0-.63,1.94,1.94,0,0,1,1-.35,16.08,16.08,0,0,0,3.18,0c.62-.94.55-1.68-.69-1.88a4.69,4.69,0,0,1-2.54-1.21A11.42,11.42,0,0,1,104.69,120.85Z" style="fill:#dfb762;fill-rule:evenodd"/><path d="M118.71,124.67c-1,2.19-2,2.86-4,2.26-1.44-.43-3.2-.23-4.21-1.75l3.1,0c1.34,0,2.71.2,3.93-.63C118,124.26,118.35,124.51,118.71,124.67Z" style="fill:#cdb066;fill-rule:evenodd"/><path d="M118.67,120.33c0-.52,0-1,0-1.55,0-.75.52-.52.94-.37C119.46,119.13,120.1,120.25,118.67,120.33Z" style="fill:#c8c9c8;fill-rule:evenodd"/><path d="M119.66,123.59c-.29.09-.42-.07-.45-.31s.18-.39.4-.47.42.07.45.31S119.88,123.5,119.66,123.59Z" style="fill:#e5eae9;fill-rule:evenodd"/><path d="M100,131.89c-.25-.2-.59-.34-.72-.6A8.79,8.79,0,0,0,94,126.69a1.17,1.17,0,0,1-.83-1.06,5.05,5.05,0,0,1,4.34,1.51c1.67,1.61,3.38,3.24,5.22,4.69A3.89,3.89,0,0,1,100,131.89Z" style="fill:#d3b262;fill-rule:evenodd"/><path d="M100.44,124.65c0,.15,0,.3.06.45l-8.24,0-2.41,0c0-.72.55-1,1.09-1A28.23,28.23,0,0,1,100.44,124.65Z" style="fill:#a86961;fill-rule:evenodd"/><path d="M100.92,128c1.23.61,2.83.22,3.83,1.45l-.52.46a.85.85,0,0,1-1.3,0c-.48-.59-1.29-.49-1.87-.9S100.39,128.42,100.92,128Z" style="fill:#c39f5f;fill-rule:evenodd"/><path d="M101.32,127l-.88.11c-.53-.42-1.36-.48-1.59-1.34a2.84,2.84,0,0,1,2.33,0C101.9,126,101.84,126.52,101.32,127Z" style="fill:#d1d8d7;fill-rule:evenodd"/><path d="M100,131.89l2.82-.07,1,0c.17.1.22.2.17.3s-.11.15-.17.15v0C102.52,132.11,101.14,132.8,100,131.89Z" style="fill:#ae6759;fill-rule:evenodd"/><path d="M103.79,132.32c0-.15,0-.3,0-.44a10.21,10.21,0,0,1,1.1-.43.44.44,0,0,1,.59.26c.1.39-.15.56-.5.59S104.18,132.31,103.79,132.32Z" style="fill:#c5ab60;fill-rule:evenodd"/><path d="M102.93,129.94l1.3,0c0,.51-.16,1-.78.91S102.92,130.34,102.93,129.94Z" style="fill:#bdbdba;fill-rule:evenodd"/><path d="M107.16,130.89a1,1,0,0,1,.91.36C107.7,131.31,107.29,131.45,107.16,130.89Z" style="fill:#b6d2d2;fill-rule:evenodd"/><path d="M120.61,112.56l.46.15c.16.08.22.16.16.23s-.11.12-.16.12l-4.29,0a2.79,2.79,0,0,1,0-.42c.6-.36,1.26-.14,1.89-.2A6,6,0,0,1,120.61,112.56Z" style="fill:#9a6262;fill-rule:evenodd"/><path d="M132.12,110.73c-1.21.81-2.54.39-3.84.41C129.49,110.32,130.85,110.91,132.12,110.73Z" style="fill:#576776;fill-rule:evenodd"/><path d="M120.61,112.56l-1.9,0c-.18-.09-.24-.18-.17-.26a.26.26,0,0,1,.19-.12l1.89,0C120.62,112.35,120.61,112.45,120.61,112.56Z" style="fill:#a0e2e2;fill-rule:evenodd"/><path d="M118.73,112.22a.75.75,0,0,0,0,.38l-1.91,0C117.33,111.95,118.05,112.22,118.73,112.22Z" style="fill:#709c9d;fill-rule:evenodd"/><path d="M110,112.62a.34.34,0,0,1,.42-.26Z" style="fill:#576776;fill-rule:evenodd"/><path d="M54.34,70.89c-1.19-.45-1.47-1.14-.75-2.29,1.29-2.07,2.49-4.2,3.73-6.31a6.1,6.1,0,0,1,6.09-4.63,2.35,2.35,0,0,1,.65.32l.29.22a4.48,4.48,0,0,0,1.72,1.24c3.43.89,4.81,3.63,6,6.55A2.14,2.14,0,0,1,70,68.61a17,17,0,0,0-6.82,2.67,2.61,2.61,0,0,1-2.47.51c-1.32-.57-2.66-.35-4-.42A6,6,0,0,1,54.34,70.89Z" style="fill:#f0e6d3;fill-rule:evenodd"/><path d="M63.28,58c-2.83.26-4.35,2.33-6,4.28l-.71-.08c.52-1.31-.89-1.54-1.3-2.34a.4.4,0,0,1-.15-.38c0-.14.06-.2.1-.2.54-.36,1.06-.06,1.6,0,1.76.19,2.43-.7,1.8-2.4-.23-.61-.5-1.17-.13-1.81a.81.81,0,0,1,.61-.2c1.3,1,2.49,2.18,4.34,1.77a1.92,1.92,0,0,1,1.15.73,1.14,1.14,0,0,1-.07,1,.44.44,0,0,1-.64,0h0A.76.76,0,0,0,63.28,58Z" style="fill:#817a75;fill-rule:evenodd"/><path d="M54.34,70.89l2.37.13c-.28,1-.95.49-1.51.38l-.81-.07A3.23,3.23,0,0,1,54.34,70.89Z" style="fill:#9a5c5c;fill-rule:evenodd"/><path d="M48.63,59.76A1.75,1.75,0,0,1,49,61.28C48.49,60.88,48.6,60.31,48.63,59.76Z" style="fill:#9b9999;fill-rule:evenodd"/><path d="M8.24,35.38a20.39,20.39,0,0,0-2.75-3.87,5.22,5.22,0,0,0-1.74-2.38c-.52-.53-1.3-.91-1.16-1.85A.65.65,0,0,1,3.39,27a1,1,0,0,1,.56.26l4.19,2a.94.94,0,0,1,.59.44h0a3.27,3.27,0,0,1,.51.45h0a1.89,1.89,0,0,0,.48.39l.47.15c.52.9,1.57,1.06,2.3,1.65.37.3,1.15.47.65,1.26-1.2.88-2.66,1.42-3.52,2.74H9.32a2.06,2.06,0,0,1-.56-.41l0,0a3.59,3.59,0,0,0-.47-.44Z" style="fill:#e4b962;fill-rule:evenodd"/><path d="M9.61,36.27c.51-1.77,2-2.33,3.52-2.74.49.56,1.15.35,1.76.39s1.11-.1,1.51.42a13.23,13.23,0,0,1-1.9,0,4.38,4.38,0,0,0-4.32,1.94Z" style="fill:#9d8c7b;fill-rule:evenodd"/><path d="M15.55,32.72c-1.21.12-2.06-.38-2.94-1.68A5.12,5.12,0,0,1,15.55,32.72Z" style="fill:#b0975e;fill-rule:evenodd"/><path d="M18.35,34.39l.43.05.08.45a2.18,2.18,0,0,1-1.66-.43Z" style="fill:#7e8f95;fill-rule:evenodd"/><path d="M99.93,123.29c1.45-.28,2.81.84,4.28.27l.06.59c-.88.52-1.84.14-2.75.26-.54-.18-1.41.43-1.57-.66C99.95,123.59,99.94,123.44,99.93,123.29Z" style="fill:#9f7366;fill-rule:evenodd"/><path d="M101.36,124.2l2.91,0h.46c-1,1-2.17.36-3.27.46-.18-.06-.25-.14-.22-.24S101.31,124.2,101.36,124.2Z" style="fill:#8b9d5e;fill-rule:evenodd"/><path d="M101.07,119.59a2,2,0,0,1,.35-.11s.08.09.13.15a2.16,2.16,0,0,1-.36.12S101.11,119.64,101.07,119.59Z" style="fill:#9cc4c2;fill-rule:evenodd"/><path d="M17,50.66a3.47,3.47,0,0,1-2-.08c0-.1,0-.2,0-.3l2,.07A.55.55,0,0,0,17,50.66Z" style="fill:#798e8e;fill-rule:evenodd"/><path d="M101.36,124.2l.1.42-1,0c-2.78,0-5.56,0-8.34,0-.77,0-1.61-.21-2.25.46a2.42,2.42,0,0,0-.44.06l-4.35-.08-.51-.91.37-.5c1.21-1.24,2.74.41,4-.45,3.7-.25,7.36.37,11,.51C100.3,124.27,100.85,124.17,101.36,124.2Z" style="fill:#ddb863;fill-rule:evenodd"/><path d="M88.91,123.23c-1.25.91-2.66.33-4,.45a14.33,14.33,0,0,0-4.63-3.39c-.19-.26-.07-.51,0-.75s.17-.7.29-1l.21-.17c2,.92,3.46,2.71,5.58,3.47a13.87,13.87,0,0,1,1.67.85c-.2.1-.55.17-.58.3-.06.31.27.25.46.27S88.59,123.23,88.91,123.23Z" style="fill:#897d7d;fill-rule:evenodd"/><path d="M97.51,120.89l0,.88-.76.53c-.2.14-.41.23-.58,0a.61.61,0,0,1-.06-.44A1.11,1.11,0,0,1,97.51,120.89Z" style="fill:#be9f5f;fill-rule:evenodd"/><path d="M93.38,122.25a.5.5,0,0,1,.29-.53A.45.45,0,0,1,93.38,122.25Z" style="fill:#8d8b8b;fill-rule:evenodd"/><path d="M3.49,27.19l-.9.09a1.33,1.33,0,0,1-.12-.46c.08-.68-1.57-.36-.82-1.22.56-.65,1.07.29,1.59.54l.21.1q0,.24,0,.47a.29.29,0,0,1,.1.31C3.57,27.14,3.53,27.19,3.49,27.19Z" style="fill:#b69c60;fill-rule:evenodd"/><path d="M106.33,129.5l-.59.46A.68.68,0,0,1,106.33,129.5Z" style="fill:#867965;fill-rule:evenodd"/><path d="M9.71,30.48a.53.53,0,0,1-.48-.39Z" style="fill:#8b7b64;fill-rule:evenodd"/><path d="M9.23,30.09a.62.62,0,0,1-.51-.45Z" style="fill:#8b7b64;fill-rule:evenodd"/><path d="M8.73,29.64l-.59-.44A.62.62,0,0,1,8.73,29.64Z" style="fill:#8b7b64;fill-rule:evenodd"/><path d="M3.49,27.19a2.45,2.45,0,0,1,0-.47l.44.49H3.72Z" style="fill:#91806d;fill-rule:evenodd"/><path d="M39.95,101.64c1.26,0,2.27,1.6,3.74.47.33-.25.77.42.89.89s.32.95,0,1.35-.88.22-1.31,0c-1.26-.57-2.15-1.92-3.75-1.81Z" style="fill:#918a8a;fill-rule:evenodd"/><path d="M121.07,113.06a3.06,3.06,0,0,0,0-.35l10.57,0a3.87,3.87,0,0,1,0,.44Z" style="fill:#cb7b7b;fill-rule:evenodd"/><path d="M84.58,116.65a2.76,2.76,0,0,1,1.46,0,1.53,1.53,0,0,0,.47,0,1.2,1.2,0,0,1,1,.33c0,.11,0,.23,0,.34-1.66.05-3.35.34-5-.36C83.16,116.47,83.93,116.91,84.58,116.65Z" style="fill:#848080;fill-rule:evenodd"/><path d="M90.43,117.89a.67.67,0,0,1-.71-.38A.81.81,0,0,1,90.43,117.89Z" style="fill:#8d8b8b;fill-rule:evenodd"/><path d="M8.76,35.86l.56.41A.64.64,0,0,1,8.76,35.86Z" style="fill:#9d8c7b;fill-rule:evenodd"/><path d="M8.27,35.4l.47.44Z" style="fill:#9d8c7b;fill-rule:evenodd"/><path d="M116.79,104.06a.67.67,0,0,1,.42-.07l.44.39a.86.86,0,0,1-.37.16C116.77,104.73,116.68,104.5,116.79,104.06Z" style="fill:#bfe2e2;fill-rule:evenodd"/><path d="M117.74,103.44l.59-.36Z" style="fill:#576776;fill-rule:evenodd"/><path d="M73,93.59a24.61,24.61,0,0,1,9.24,5.82,5.66,5.66,0,0,0,.51.5c.54.43,1,1.19,1.82.8s.5-1.1.48-1.73c0-.32-.07-.64-.05-1,.08-1.65.74-2.14,2.1-1.28,4.52,2.86,9.23,5.4,13.87,8,.19.11.4.29.19.8-2.81-.55-4.92-2.55-7.37-3.85s-5-2.81-7.66-4.36c-.06,1.13-.05,2-.16,2.83-.23,1.85-1.31,2.34-2.8,1.26a18.47,18.47,0,0,1-2.37-2,17.2,17.2,0,0,0-5.71-3.86A23.14,23.14,0,0,1,72.44,94C72.49,93.67,72.78,93.65,73,93.59Z" style="fill:#9c9090;fill-rule:evenodd"/><path d="M55.2,71.4c.51-.11,1.08,0,1.51-.37,1.83-.41,3.74.81,5.37.13s3-1.74,4.6-2.34a12.58,12.58,0,0,1,3-.78c2-.21,2-.23,1.91-2.33-.23-.41,0-.62.34-.79.7-.14,1.49-.43,2,.21s-.06,1.34-.36,2a4,4,0,0,1-3.66,2.53A9,9,0,0,0,63,73a27.28,27.28,0,0,0,3.72,1,.39.39,0,0,1,.21.35c0,.15,0,.22-.07.22-.71.72-1.46,1.29-2.48.54a2.12,2.12,0,0,0-2-.26c-.46.15-1,.39-1.33-.05-.92-1.22-1.84-.34-2.76-.07-.51.19-.6-.05-.51-.49.83-.7,2.08-.8,2.78-1.87C58.84,71.31,56.83,72.27,55.2,71.4Z" style="fill:#867972;fill-rule:evenodd"/><path d="M84.59,64.2l1,.89-9.6,6.66a1,1,0,0,1-.22-.66c.71-1.87,2.46-2.69,4-3.66,2.15-1.4,3.74-2.94,3.46-5.76a3.28,3.28,0,0,1,.75-2.23.52.52,0,0,1,.64-.08Q84.56,61.78,84.59,64.2Z" style="fill:#89817c;fill-rule:evenodd"/><path d="M50.53,89.59c-.72-.33-1.44-.65-2.14-1-.35-.18-.83-.5-.69-.88.5-1.34-.53-2-1.13-2.84-1.16-1.61-2.38-3.18-3.54-4.79-.25-.35-.75-.65-.4-1.36.79,0,1.14.64,1.54,1.17,1.59,2.08,2.75,4.51,4.74,6.25.77.67-.54,1.54.49,2a14,14,0,0,1,1.62,1C51,89.4,50.72,89.45,50.53,89.59Z" style="fill:#9c9494;fill-rule:evenodd"/><path d="M44.3,92.92c-.73.25-1.37-.3-2.27-.33.27,2.73,2.27,4.74,2.74,7.32-.31,0-.53,0-.57,0a27.58,27.58,0,0,1-3.67-8.23.77.77,0,0,1,.18-.87c.27-.2.59-.08.88.09.89.51,1.79,1,2.69,1.5q.22.18.15.37C44.4,92.85,44.35,92.92,44.3,92.92Z" style="fill:#918b8b;fill-rule:evenodd"/><path d="M60.11,99c-.13,1.1-1,1.68-1.78,2.26a14.84,14.84,0,0,1-3.65,1.7c-3,1.14-3.16,1.39-3.15,4.37a2.46,2.46,0,0,1,0-3.9,4.7,4.7,0,0,1,2.1-1.09A10.69,10.69,0,0,0,59.34,99C59.49,98.85,59.71,98.78,60.11,99Z" style="fill:#9b8989;fill-rule:evenodd"/><path d="M65.85,85.65c-1.17.51-1.17.51,0,2.36-1.16.45-2.52.1-3.58,1-.24,1,1.31,1.05,1.16,2-.34.37-.78.21-1.19.21-.55-.2-.42-.66-.43-1.08a7.74,7.74,0,0,1-.93-1.06c-.39-.64-.38-1.36.54-1.36,1.66,0,2.27-.67,1.84-2.28a5.7,5.7,0,0,1,.61-.23C64.53,85.16,65.35,84.57,65.85,85.65Z" style="fill:#898383;fill-rule:evenodd"/><path d="M73.48,113.62,74.61,115a.59.59,0,0,1-.56.48c-1.2-.56-1.81-1.75-2.77-2.56s-1.78-1.54-3-2.55a19,19,0,0,1,7.18,2.13.37.37,0,0,1,.15.39c0,.13-.08.2-.13.2l-1,0a1.64,1.64,0,0,0-1.39-.1A3.2,3.2,0,0,1,73.48,113.62Z" style="fill:#9e8a8a;fill-rule:evenodd"/><path d="M76,71.38v.38a5.37,5.37,0,0,1-4.76,2,9.32,9.32,0,0,0-4.35.81c0-.12,0-.24,0-.36A1.27,1.27,0,0,1,68,72.72,67.63,67.63,0,0,1,76,71.38Z" style="fill:#907c76;fill-rule:evenodd"/><path d="M50.53,89.59,51,89.1,57.23,91c.15.09.21.19.16.29s-.09.16-.14.16A14.41,14.41,0,0,1,50.53,89.59Z" style="fill:#9c8383;fill-rule:evenodd"/><path d="M74.06,115.47l.56-.48a.61.61,0,0,1,.37.21,1.16,1.16,0,0,1,.49.33l2.83,1.55c-.06,1-.69,1.11-1.49.92a5.61,5.61,0,0,1-2.3-2,1.42,1.42,0,0,1-.41-.44Z" style="fill:#807777;fill-rule:evenodd"/><path d="M85.56,111.67c.64.41,1.39,1,.23,1.46-1.34.58-2.73,1.24-4.4.84.74-1.38,2.29-.59,3.16-1.36C85,112.44,84.67,111.39,85.56,111.67Z" style="fill:#938181;fill-rule:evenodd"/><path d="M65.09,106.07c2.54,1.06,2.89,1.48,2.83,3.31C67.07,108.24,66,107.65,65.09,106.07Z" style="fill:#aea1a1;fill-rule:evenodd"/><path d="M84.81,107.69a3.92,3.92,0,0,1,3.5,2A3.87,3.87,0,0,1,84.81,107.69Z" style="fill:#bdb0b0;fill-rule:evenodd"/><path d="M76.82,118l1.49-.92a.52.52,0,0,1,.55.28,2.1,2.1,0,0,1,.33.49c.16,1,1.66.83,1.59,2l-.48.46A6.3,6.3,0,0,1,76.82,118Z" style="fill:#8e8e8e;fill-rule:evenodd"/><path d="M65.85,85.65c-.6-.56-1.37-.26-2-.41l3.89-1a3.23,3.23,0,0,0,.57-.3l.48-.12c.31-.28.7-.2,1.07-.21a.86.86,0,0,1,.52.2.36.36,0,0,1-.17.46l-.8.1c-.24,0-.4.23-.62.32Z" style="fill:#9d8484;fill-rule:evenodd"/><path d="M55.36,76.18a11.2,11.2,0,0,1-7.65,0c2.27-.47,4.57-.08,6.85-.21A1,1,0,0,1,55.36,76.18Z" style="fill:#86a6a6;fill-rule:evenodd"/><path d="M54.77,76.08l-7.06.07c.26-.77.91-.43,1.4-.45a45.71,45.71,0,0,0,5.67-.16.33.33,0,0,1,.13.37C54.86,76,54.82,76.08,54.77,76.08Z" style="fill:#cc7a7a;fill-rule:evenodd"/><path d="M77.39,85.3l-.6.59c-1.21-.15-1-1.54-1.78-2.05q-.25-.14-.19-.31t.14-.18c1.18-.24,1.74.37,2,1.43a2.77,2.77,0,0,0,.44.52Z" style="fill:#837c7c;fill-rule:evenodd"/><path d="M85.56,111.67l-1,.94c.1-.64-.36-1-.73-1.39s-.57-.57-.22-1a3,3,0,0,1,1.88-.14.41.41,0,0,1,.12.65Z" style="fill:#959c9c;fill-rule:evenodd"/><path d="M54.77,76.08c0-.18,0-.36,0-.54a9.18,9.18,0,0,1,3-1.25l.51.49a7.17,7.17,0,0,1-2.88,1.4Z" style="fill:#a59999;fill-rule:evenodd"/><path d="M73,93.59l-.61.44a4.66,4.66,0,0,1-2.93-1.33A4.83,4.83,0,0,1,73,93.59Z" style="fill:#9f8484;fill-rule:evenodd"/><path d="M62.89,100.15a4.08,4.08,0,0,1-2.78,1.94C60.83,100.83,61.43,100.13,62.89,100.15Z" style="fill:#a39090;fill-rule:evenodd"/><path d="M75,83.34l0,.49-3,0a.28.28,0,0,1,.1-.45A2.52,2.52,0,0,1,75,83.34Z" style="fill:#6c8c8c;fill-rule:evenodd"/><path d="M73.48,113.62a4.41,4.41,0,0,1-1.73-2l2.8,1.44C74.14,113.17,73.7,113.17,73.48,113.62Z" style="fill:#bed2d2;fill-rule:evenodd"/><path d="M62,91h1.38a2.61,2.61,0,0,1-3.43,0A2,2,0,0,1,62,91Z" style="fill:#7da0a0;fill-rule:evenodd"/><path d="M44.3,92.92q0-.28,0-.55l3.84.11c.15.14.18.25.1.33a.3.3,0,0,1-.21.1A10.65,10.65,0,0,1,44.3,92.92Z" style="fill:#7f6161;fill-rule:evenodd"/><path d="M78.86,117.86c0-.17,0-.34,0-.51a2,2,0,0,1,2,1l-.06.07C79.9,119,79.3,118.74,78.86,117.86Z" style="fill:#9a7b7b;fill-rule:evenodd"/><path d="M84.58,116.65c-.61.45-1.35.19-2,.35l-.77-.08a.34.34,0,0,1-.22-.31c0-.14,0-.21.07-.21a.53.53,0,0,1,.6,0Z" style="fill:#985e5e;fill-rule:evenodd"/><path d="M62,91l-2.06,0c.23-1,1.4-.21,1.81-.91C62.06,90.4,62,90.72,62,91Z" style="fill:#c78686;fill-rule:evenodd"/><path d="M48.41,92.4a2.6,2.6,0,0,1,2.88-.12.31.31,0,0,1-.07.15,1,1,0,0,1-.19.12A3.17,3.17,0,0,1,48.41,92.4Z" style="fill:#a27878;fill-rule:evenodd"/><path d="M48.41,92.4l2.62.15a4,4,0,0,1-3,.36c0-.15.07-.29.11-.43A.2.2,0,0,1,48.41,92.4Z" style="fill:#6e9898;fill-rule:evenodd"/><path d="M75.52,113.08l0-.59c.57.21,1.24,0,1.89.51C76.74,113.78,76.1,113.06,75.52,113.08Z" style="fill:#a56262;fill-rule:evenodd"/><path d="M85.59,110.29l-2-.07a1.76,1.76,0,0,1,2.5,0C86,110.42,85.79,110.46,85.59,110.29Z" style="fill:#d18888;fill-rule:evenodd"/><path d="M88.78,110.74c-.78,1-1.59.56-2.41.06a.69.69,0,0,1,.63-.3C87.6,110.57,88.24,110.31,88.78,110.74Z" style="fill:#7e9494;fill-rule:evenodd"/><path d="M88.78,110.74l-1.81,0c-.14-.08-.19-.16-.15-.24s.09-.13.14-.13C87.61,110.29,88.34,109.87,88.78,110.74Z" style="fill:#cd8080;fill-rule:evenodd"/><path d="M82.24,116.44a1,1,0,0,1-.46.09,1.26,1.26,0,0,1-1.44,0C80.94,115.52,81.59,116,82.24,116.44Z" style="fill:#d08989;fill-rule:evenodd"/><path d="M72.14,83.34a4,4,0,0,1-.1.45l-.79.11a.83.83,0,0,1-1-.08h0c-.17-.08-.22-.16-.17-.25s.11-.13.16-.13Z" style="fill:#9d6464;fill-rule:evenodd"/><path d="M63.8,102.76c-.07.1-.12.25-.22.29a.61.61,0,0,1-.79-.25,1.45,1.45,0,0,1,.38-.24A.5.5,0,0,1,63.8,102.76Z" style="fill:#a67777;fill-rule:evenodd"/><path d="M70.21,83.46v.38H68.75A1.47,1.47,0,0,1,70.21,83.46Z" style="fill:#a79f9f;fill-rule:evenodd"/><path d="M80.33,116.49l1.44,0a.64.64,0,0,0,0,.4C81.25,117,80.64,117.22,80.33,116.49Z" style="fill:#85a2a2;fill-rule:evenodd"/><path d="M87,110.32a1.88,1.88,0,0,1,0,.37l-.6.11-.79-.07a1.13,1.13,0,0,1,0-.44l.49-.09Z" style="fill:#975f5f;fill-rule:evenodd"/><path d="M57.25,91.48c0-.15,0-.3,0-.44.3,0,.81-.22.79.3C58,91.64,57.53,91.49,57.25,91.48Z" style="fill:#865d5d;fill-rule:evenodd"/><path d="M70.2,83.83l1,.08a1,1,0,0,1-1.09.38C70.18,84.13,70.19,84,70.2,83.83Z" style="fill:#a79f9f;fill-rule:evenodd"/><path d="M75.48,115.53,75,115.2Z" style="fill:#9e8a8a;fill-rule:evenodd"/><path d="M112.83,109.05a.3.3,0,0,1-.22.19l0-.17Z" style="fill:#576776;fill-rule:evenodd"/><path d="M77.38,85.29a.55.55,0,0,1-.44-.52Z" style="fill:#9f9c9c;fill-rule:evenodd"/><path d="M86.5,116.69a.3.3,0,0,1-.47,0Z" style="fill:#985e5e;fill-rule:evenodd"/><path d="M74.11,115.51l.41.44Z" style="fill:#9e8a8a;fill-rule:evenodd"/><path d="M68.74,84.71a.65.65,0,0,1,.62-.32A.63.63,0,0,1,68.74,84.71Z" style="fill:#a79f9f;fill-rule:evenodd"/><path d="M68.26,84a.56.56,0,0,1-.57.3Z" style="fill:#a79f9f;fill-rule:evenodd"/><path d="M116.79,104.06l.49.48c-.54.67-1.37.48-2.39,1.19A2.41,2.41,0,0,1,116.79,104.06Z" style="fill:#9eadae;fill-rule:evenodd"/><path d="M84.54,59.37h-.43a6.15,6.15,0,0,1-.57-4.73l1.05-.56Q84.56,56.73,84.54,59.37Z" style="fill:#7c7975;fill-rule:evenodd"/><path d="M87,41.9c-1.35,1.5-3.43,1.91-4,4.26C82.4,43.72,83.94,42.24,87,41.9Z" style="fill:#8a7e6f;fill-rule:evenodd"/><path d="M62.64,39.55c1.72.84,2,2,2.16,3.61C63.16,42.33,63.07,41.07,62.64,39.55Z" style="fill:#807f6f;fill-rule:evenodd"/><path d="M71.31,46.2A2.85,2.85,0,0,1,72,43.12C72.51,44.56,72.48,44.68,71.31,46.2Z" style="fill:#877e6f;fill-rule:evenodd"/><path d="M74.45,44.23c.13,1.22-.54,1.69-1.5,2.38A2.2,2.2,0,0,1,74.45,44.23Z" style="fill:#8a7d6e;fill-rule:evenodd"/><path d="M69.61,45.61c-.16-.17-.32-.26-.34-.38-.1-.52-.22-1.08.29-1.47a.42.42,0,0,1,.39.1A1.19,1.19,0,0,1,69.61,45.61Z" style="fill:#85796b;fill-rule:evenodd"/><path d="M55.33,59.28l0,.59c-2.14-1.26-3.8-3.11-5.7-4.67s-2.36-3.89-3.05-6.08a1.22,1.22,0,0,1,1-1.65,3.53,3.53,0,0,0,2.12-1.74c.77-1.13,1.5-1,2,.25a3.5,3.5,0,0,1,.29,1.86c-.44.24-.81,0-1.19-.18-2.37.74-2.88,1.69-1.95,3.76a13.32,13.32,0,0,0,4,4.65C53.84,56.95,55.27,57.59,55.33,59.28Z" style="fill:#90887f;fill-rule:evenodd"/><path d="M51,47.37l.9.47c.33,1.43,1,2.41,2.67,2.45a3.92,3.92,0,0,1,1.79.47c1.53.87,2.41.1,3.19-1.08l.09.69a4.94,4.94,0,0,1-.62,4.7l-.34,0a.58.58,0,0,1-.77-.35c-.62-2-2.21-2.61-4.11-3C51.34,51.25,50.43,49.69,51,47.37Z" style="fill:#94857d;fill-rule:evenodd"/><path d="M83.53,54.65c.76,1.51.44,3.14.57,4.73A21.51,21.51,0,0,0,83.57,64c.09,1.3-.93,2-1.79,2.61-1.32,1-2.71,1.9-4.06,2.86A4.74,4.74,0,0,0,76,71.38a12,12,0,0,1-6.29,1.53,2.76,2.76,0,0,0-2.83,1.35c-.82.06-1.62.61-2.44-.2s-1.65.06-2.68,0a6.67,6.67,0,0,1,3.08-3.45,8.21,8.21,0,0,1,4.71-1.49,3.24,3.24,0,0,0,3.62-2.3,12.73,12.73,0,0,1,.66-1.2c-.41-.94-1.24.22-1.67-.43C71,64.31,70.56,63,69.78,61.88a1.15,1.15,0,0,1-.06-1.53,1.35,1.35,0,0,1,1.55-.2c.38.13.7.36,1.07.51,2.64,1.09,4.46.33,5.41-2.31a4.65,4.65,0,0,1,.71-1.49c1.43-1,2.75-2.31,4.7-2.27Z" style="fill:#cec39a;fill-rule:evenodd"/><path d="M64.6,58.37l-.24-.92a.81.81,0,0,1,0-1c1.18-2.79,1.62-3,4.83-2.84a1,1,0,0,1,.94.53l1,1.37c.76.83.87,1.94,1.32,2.91a1.64,1.64,0,0,1-.21,1.39c-1.89.06-3.78.83-5.68,0C65.8,59.47,64.86,59.39,64.6,58.37Z" style="fill:#e9dfce;fill-rule:evenodd"/><path d="M76.93,49.7c1.23,1.38,1.26,1.56.37,2.74-.29.38-.59.74-.88,1.11a2.08,2.08,0,0,1-2.83.85,2.41,2.41,0,0,1-1.44-2.92c.26-1.45.83-2.08,2.07-2.16a15.52,15.52,0,0,1,1.66.06C76.21,49.53,76.64,49.39,76.93,49.7Z" style="fill:#eff0f0;fill-rule:evenodd"/><path d="M76.93,49.7a1.09,1.09,0,0,1-1.06-.33c.18-.21.2-.49-.1-.51-.7-.06-1.4,0-2.1-.11a7.25,7.25,0,0,1,5.3.17c1.58.63,1.63.74,1.44,2.63,0,.19.18.4.28.61.59.94,1.2,1.86,2.46,2,0,.15,0,.3,0,.45L78.83,57c-1.44-.2-.92-1.5-1.29-2.3a1.38,1.38,0,0,1,.29-1c1.25-2.32,1.27-3,.12-4A.64.64,0,0,0,76.93,49.7Z" style="fill:#7e716d;fill-rule:evenodd"/><path d="M67.35,51.69a2.57,2.57,0,0,1-1.73,1.13c-1.15.2-2.33.16-3-.82a3.32,3.32,0,0,1,0-3.2c.48-1.13,1.73-.85,2.74-.9C67.73,48.28,67.8,48.41,67.35,51.69Z" style="fill:#f6f8f8;fill-rule:evenodd"/><path d="M72.1,59.87V58.51c.47-1,1.63-.59,2.34-1.1a7.25,7.25,0,0,0,2-2.37,1.24,1.24,0,0,0,.37-.64.25.25,0,0,1,.1-.3c1.63.86.62,2.4.93,3.6-.36,2.43-2,4.06-3.88,3.77C73.13,61.35,72.07,61.19,72.1,59.87Z" style="fill:#f8f9f9;fill-rule:evenodd"/><path d="M59,55.07a15.65,15.65,0,0,1,.62-4.7c1.16.25.74,1.24.87,1.94.28,1.42.79,2.6,2.45,2.77a.77.77,0,0,1,.88.57l0,.84a.82.82,0,0,1-.4.5C61.38,57.62,60.64,57.3,59,55.07Z" style="fill:#ebefee;fill-rule:evenodd"/><path d="M83.16,54.13c-2.34.68-2.34.68-2.46-2,0-.06.07-.15.13-.19,1.2-.84,2.38-1,2.88-.3C84.41,52.65,83.84,53.42,83.16,54.13Z" style="fill:#ceac61;fill-rule:evenodd"/><path d="M67.35,51.69c.23-1.74.07-3.28-2-3.79.35-.77.8-1.35,1.76-.86.36.18.73.33,1.07.52,1.68.95,1.75,1.53.42,3.3-.45-.21-.22-.71-.58-1.21,0,0-.1,0-.15.27C67.74,50.53,68,51.24,67.35,51.69Z" style="fill:#796f6b;fill-rule:evenodd"/><path d="M74.45,57.41c-.52.91-1.46,1-2.34,1.1a3.43,3.43,0,0,1-1-3c.53,0,1.09-.06,1.48.45.2.82,1,1,1.56,1.44A.37.37,0,0,1,74.45,57.41Z" style="fill:#868d87;fill-rule:evenodd"/><path d="M74.17,57.43a4.46,4.46,0,0,1-1.37-.18c-.56-.27-.83-.74-.18-1.27A1.58,1.58,0,0,1,74.17,57.43Z" style="fill:#aeaf8e;fill-rule:evenodd"/><path d="M77.44,58c-.28-1.29.41-2.7-.48-3.91.06-.61.49-.52.89-.48l.1.95C78,55.75,78.79,57,77.44,58Z" style="fill:#eff0f0;fill-rule:evenodd"/><path d="M63.86,55.65c-.36-.08-.72-.16-.88-.57.07-.34,0-.88.54-.74C64.22,54.54,63.87,55.17,63.86,55.65Z" style="fill:#889887;fill-rule:evenodd"/><path d="M70.16,54.16c-.38-.06-.75-.13-.94-.53C70.09,52.83,70.1,53.53,70.16,54.16Z" style="fill:#7a8274;fill-rule:evenodd"/><path d="M69.42,51.64c.1-.09.2-.24.3-.24a.28.28,0,0,1,.27.43.41.41,0,0,1-.37.14C69.53,52,69.48,51.76,69.42,51.64Z" style="fill:#9f8c5f;fill-rule:evenodd"/><path d="M63.5,57c.05-.23.14-.44.4-.5h.48l0,1Z" style="fill:#8d847a;fill-rule:evenodd"/><path d="M76.85,54.41a.71.71,0,0,1-.37.64A.59.59,0,0,1,76.85,54.41Z" style="fill:#eff0f0;fill-rule:evenodd"/><path d="M77.44,58c.76-1.06.25-2.3.51-3.43.82.6,0,1.82.89,2.39-.16.53-.33,1.06-.49,1.59-.91,3.06-3.61,4.16-6.39,2.62-.6-.33-1.24-1.24-1.86-.59s.35,1.35.68,2c.43.85.88,1.7,1.32,2.55l-.52.57c-.72-1.14-1.39-2.32-2.18-3.4a4.43,4.43,0,0,0-3-2.11,3.27,3.27,0,0,1-2.45-1.74l.69-.09c2,1,4,2.25,6.29.76.75-.48.74.59,1.2.75C74.43,62,76.52,61.29,77.44,58Z" style="fill:#8d847a;fill-rule:evenodd"/><path d="M63.28,58a.67.67,0,0,1,.65.44Z" style="fill:#8d847a;fill-rule:evenodd"/><path d="M51,47.37c.48,3,.92,3.49,3.72,3.87,2.21.3,3,1,3.52,3.28,0,.2.29.35.44.53a1.93,1.93,0,0,0,.56,1.74c.5.51,1.14,1.05.36,1.78s-1.34,1.9-2.74,1.33l-1.54-.62A18.56,18.56,0,0,0,52,56.21a12.16,12.16,0,0,1-3.72-4.27,3.49,3.49,0,0,1,2-5.31C50.82,46.43,50.9,47,51,47.37Z" style="fill:#cdc29a;fill-rule:evenodd"/><path d="M78.86,117.86a2.8,2.8,0,0,0,1.91.53c-.08.48.95.94,0,1.42-.6-.35-1.23-.67-1.8-1.06C78.68,118.55,78.32,118.24,78.86,117.86Z" style="fill:#c9d8d8;fill-rule:evenodd"/><path d="M85.78,122.51c-.06,0-.12.1-.17.1s-.25-.11-.13-.22a.23.23,0,0,1,.2,0S85.74,122.46,85.78,122.51Z" style="fill:#9cb6b6;fill-rule:evenodd"/><path d="M68.76,57.29c-.4,0-.46-.35-.47-.66s.11-.46.38-.45.48.33.49.65A.41.41,0,0,1,68.76,57.29Z" style="fill:#a1978e;fill-rule:evenodd"/><path d="M66.53,56.09c-.11.28-.17.64-.52.69s-.42-.2-.36-.46.2-.62.55-.66S66.63,55.78,66.53,56.09Z" style="fill:#877b74;fill-rule:evenodd"/></svg>