<svg xmlns="http://www.w3.org/2000/svg" viewBox="0 0 135.05 98.08"><title>アセット 9</title><path d="M26.31,52.35C19.17,50,14,45.56,12.49,38s.07-14.59,5.9-20.16a18.42,18.42,0,0,1,11.3-5.15c.3.3,1.07-.08,1,.71-.7,1-1.84.86-2.82,1.1C15.48,17.54,10.33,30.95,15.29,41.64c1.78,3.84,5.06,6.53,8.84,8.5.83.43,1.86.58,2.36,1.53A.73.73,0,0,1,26.31,52.35Z" style="fill:#91847b;fill-rule:evenodd"/><path d="M130.53,46.06c.77,1.3.41,2.8.69,4.19.86,4.31,2.17,8.51,3.25,12.76.69,2.71,1,5.3-.43,7.86a11.21,11.21,0,0,0-1.17,5.54c0,3.54-1.94,5.76-5.35,6.65a.89.89,0,0,1-.12-.73,9.66,9.66,0,0,0,4.2-8.84,3.19,3.19,0,0,1,.44-1.61c2-3.49,1.42-7,.39-10.64-1.12-4-2.48-7.93-2.83-12.11a5,5,0,0,1,.06-2.36A1.25,1.25,0,0,1,130.53,46.06Z" style="fill:#918d89;fill-rule:evenodd"/><path d="M58.27,92.75a6,6,0,0,1-4.58-6.1,3.11,3.11,0,0,1,2.28-3A7.28,7.28,0,0,1,59,83.16,5.27,5.27,0,0,0,62.8,82c3.23-2.33,5.58-5.47,7.9-8.62,1-1.37.79-3,.78-4.64,1.5.46.81,1.89,1.26,2.82a4.16,4.16,0,0,1-.89,2.66c-2.09,3.46-5,6.13-8,8.75a7.26,7.26,0,0,1-4.59,1.75c-2.87.13-3.87.87-3.88,2.54a4.74,4.74,0,0,0,3.82,4.31c1.12.22,2.44-.33,3.31.87a.57.57,0,0,1-.51.51A14.71,14.71,0,0,1,58.27,92.75Z" style="fill:#9a8c89;fill-rule:evenodd"/><path d="M69,63.91c-1.37-1.16-.67-3-1.47-4.38-.21-.35.08-.75.38-1.05a9.36,9.36,0,0,0,.81-.87c2.16-2.75,2.1-4.06-.33-6.61a11.87,11.87,0,0,1-2.69-3.92,5.53,5.53,0,0,1-.47-2.33c.1-1.57.75-2.07,2.35-1.75a6.43,6.43,0,0,1,.9.33c.13.41-.12.62-.42.8-2,.79-1.2,2.2-.56,3.3s1.62,2.11,3.13,1c.83.34.78,1.06.8,1.76a4.54,4.54,0,0,1-.09.68,3.33,3.33,0,0,0,.26,2.32A3.27,3.27,0,0,1,71.29,56c-1.74,2.3-1.57,4.88-1.47,7.48C69.66,63.8,69.46,64.05,69,63.91Z" style="fill:#8f8783;fill-rule:evenodd"/><path d="M26.31,52.35c0-.16,0-.33,0-.49,1.08-.78,2.2-.23,3.22,0,8.22,2.07,18.2-4.29,20.53-12a4.15,4.15,0,0,1,1.27-2.51c.77.14.69.61.45,1.15-1.4,7.21-5.87,11.62-12.68,13.89-.9.3-1.85.48-2.75.77a10.38,10.38,0,0,1-6.12.18C28.93,53,27.62,52.7,26.31,52.35Z" style="fill:#8a7c77;fill-rule:evenodd"/><path d="M120.81,3.93a2.61,2.61,0,0,1,.53,1.56c-.19,2,.87,3.2,2.16,4.52A29,29,0,0,1,131,24.47c.26.51.28.95-.37,1.17-1.15-.35-1.17-1.42-1.44-2.3a33.73,33.73,0,0,0-5.27-10.69A9.14,9.14,0,0,0,118,8.82a5.72,5.72,0,0,1-1.61-.47c-.5-.25-1.09-.49-1-1.19s.75-.74,1.31-.78a1.52,1.52,0,0,1,.71.08c2.05.9,2.5-.24,2.49-2C120.15,4.15,120.36,3.86,120.81,3.93Z" style="fill:#8f8984;fill-rule:evenodd"/><path d="M123.34,83.14a3,3,0,0,1-2.58-1.5,2.33,2.33,0,0,1,1.14-3.81c1.2-.43,2.5-.64,3.13-2a11.9,11.9,0,0,0,1.51-6,4.36,4.36,0,0,0-1.29-2.51A47,47,0,0,1,120.8,62a1,1,0,0,1,.79-.65,24.57,24.57,0,0,1,5.75,6.54c1.82,3-.09,8.74-3.08,10.63-2.43,1.53-2.43,1.53-.85,3.89A.85.85,0,0,1,123.34,83.14Z" style="fill:#958e8a;fill-rule:evenodd"/><path d="M23,4.33c.21,1.41-.38,2.94-.55,4.51-.13,1.15-.65,1.43-1.61.91a20.61,20.61,0,0,1-5.3-4c-1.06-1.15-.94-1.87.39-2.69a15.73,15.73,0,0,1,4.61-1.89c1.9-.44,2.39,0,2.44,2C23,3.49,23,3.8,23,4.33Z" style="fill:#94877f;fill-rule:evenodd"/><path d="M8,43.29c2.35-.06,2.91.68,2.11,2.43A11.84,11.84,0,0,1,5,50.84c-.82.48-1.51.06-2.07-.61a10.46,10.46,0,0,1-2-3.76c-.37-1.27-.12-1.7,1.16-2.13C4.15,43.64,6.33,43.67,8,43.29Z" style="fill:#8e7f77;fill-rule:evenodd"/><path d="M22.8,64a9.73,9.73,0,0,1-1.37-.19c-2.7-.7-3.27-2.14-1.81-4.55a14.28,14.28,0,0,1,3.26-3.79c.86-.68,1.37-.55,1.86.44a6.62,6.62,0,0,1,.6,3,21.61,21.61,0,0,0,.13,2.39C25.71,63.48,25.25,64,22.8,64Z" style="fill:#92887f;fill-rule:evenodd"/><path d="M42.54,8.21a2,2,0,0,1-.21.43c-.65.79-1.22,1.9-2.46,1.46-1.05-.37-1.11-1.48-1.14-2.44,0-1.52-.52-3-.29-4.53.28-1.85.9-2.33,2.75-2a6.46,6.46,0,0,1,.69.19c1.59.45,3.29,1.12,3.59,2.79s-1.09,2.69-2.39,3.54a1.13,1.13,0,0,1-.31-.59c-.07-.77.61-1.28.73-2,.29-1.64-1-2-2.14-2.24s-1.43.58-1.51,1.55c-.18,2.32.43,3.37,2.08,3.54A1,1,0,0,1,42.54,8.21Z" style="fill:#8e847d;fill-rule:evenodd"/><path d="M59.53,20.75c-1.4.81-2.94.48-4.41.41a1,1,0,0,1-.84-1.71A23.52,23.52,0,0,1,58.81,14a1.3,1.3,0,0,1,1.91.13,7.48,7.48,0,0,1,2.37,4.55c.2,1.42-.48,1.87-2.74,2a.65.65,0,0,1,0-.63c.62-.79,1.51-1.43.88-2.71-.78-1.58-1.68-1.87-2.91-.61-.86.88-1.93,1.7-2,3.12C57.31,20.45,58.68,19.69,59.53,20.75Z" style="fill:#90847b;fill-rule:evenodd"/><path d="M43.1,64.46A1.54,1.54,0,0,1,41.23,63a48.87,48.87,0,0,1-.32-5.68c0-1.67,1-2.1,2.36-1.06a32.31,32.31,0,0,1,4.08,4.31,1.19,1.19,0,0,1,0,1.71A5.13,5.13,0,0,1,43.1,64.46Z" style="fill:#8b827a;fill-rule:evenodd"/><path d="M39.7,13.68a20.14,20.14,0,0,1,11.87,12,7.94,7.94,0,0,1,.25,1.16c.21.44,0,.65-.4.76-.73-.16-1-.75-1.22-1.35-1.9-5.28-5.8-8.65-10.62-11.13a1.79,1.79,0,0,1-.88-.77C38.71,13.58,39.34,13.84,39.7,13.68Z" style="fill:#928378;fill-rule:evenodd"/><path d="M61.86,40.1a2,2,0,0,1,1.45,2.18A5.93,5.93,0,0,1,62.73,45c-1.18,2.47-2.09,2.71-4.34,1.09a15.88,15.88,0,0,1-3.87-3.81c-.8-1.15-.61-1.46,1-2l.29.16A2.4,2.4,0,0,1,56,41c.4,1.5,1.7,2.28,2.67,3.31.48.51,1,1.17,1.83.85s1-1.19,1.13-2a5.44,5.44,0,0,0-.16-1.9,2.35,2.35,0,0,1,0-.68A1,1,0,0,1,61.86,40.1Z" style="fill:#97887f;fill-rule:evenodd"/><path d="M86.28,44.69l.56-.91c.39-.13.63.11.87.36,1.41,1.72,2.89,1.49,4.56.32,2.06-1.43,4-3.12,6.6-3.57a1.44,1.44,0,0,1,.95.41c-2.62,3.16-6.18,5-9.81,6.62-1.42.62-2.58-1.32-4-1.84a1.15,1.15,0,0,1-.37-.59C85.66,45.06,86,44.94,86.28,44.69Z" style="fill:#8d7e78;fill-rule:evenodd"/><path d="M90.68,89.39A36.92,36.92,0,0,1,78,97.68a2.06,2.06,0,0,1-1.37.25c-.3-.17-.62-.33-.52-.77.6-.86,1.65-.86,2.49-1.25a39,39,0,0,0,9.37-6c.59-.51,1.1-1.16,2-1.24A.85.85,0,0,1,90.68,89.39Z" style="fill:#a08e8b;fill-rule:evenodd"/><path d="M6.63,25.9c-1.5.07-3,.21-4.51.18s-2-.37-2.09-1.94A5.25,5.25,0,0,1,2,19.29c1.37-1.07,1.73-1.1,3.09,0,.55.44,1,1,1.57,1.43.16.44-.11.61-.46.73A1.85,1.85,0,0,1,4.87,21C3.5,19.89,2.62,20.36,2,21.8c-1,2.2-.38,3,2.42,3.11a4.16,4.16,0,0,1,2.1.36A.45.45,0,0,1,6.63,25.9Z" style="fill:#8e7f78;fill-rule:evenodd"/><path d="M103.55,78.66c-3.74.55-5.94,3.24-8.19,5.87a.36.36,0,0,1-.56,0,1.62,1.62,0,0,1,.49-1.74,60.17,60.17,0,0,0,4.83-6.84c.37-.61.86-1.4,1.66-1.06s.34,1.24.1,1.84c-.5,1.24.48,1.05,1.1,1.24C103.32,78.06,103.59,78.24,103.55,78.66Z" style="fill:#928783;fill-rule:evenodd"/><path d="M120.81,3.93l-.48.55c-.46,0-.67-.32-.92-.64-2-2.56-2.86-2.68-5.4-.64a12.14,12.14,0,0,0-3.52,3.48.94.94,0,0,1-.6.21,1.2,1.2,0,0,1-.56-1.11A22.08,22.08,0,0,1,115.39.52a2.67,2.67,0,0,1,3.32.13A4.46,4.46,0,0,1,120.81,3.93Z" style="fill:#a08e89;fill-rule:evenodd"/><path d="M103.55,78.66l-.57-.42c.08-.87.8-1.15,1.43-1.42A24.44,24.44,0,0,0,113.66,70a1.33,1.33,0,0,1,1-.52c.37.11.65.29.48.75A22.67,22.67,0,0,1,103.55,78.66Z" style="fill:#998987;fill-rule:evenodd"/><path d="M130.51,25.51a1.23,1.23,0,0,0,.48-1c.74,1.23.49,2.6.5,3.91a68.82,68.82,0,0,1-.62,9.63c-.4.62.13,1.45-.45,2a.63.63,0,0,1-.65-.25,3.29,3.29,0,0,1-.2-2.27,6,6,0,0,0,.17-1.61c0-2.52,0-5,0-7.54C129.77,27.36,129.65,26.3,130.51,25.51Z" style="fill:#92908e;fill-rule:evenodd"/><path d="M89.77,23.65c.47-4,1.71-7.71,4.67-10.63.47-.16.64.13.74.51-1.92,3.36-3.12,7-4.61,10.58C90.14,24.26,89.91,24,89.77,23.65Z" style="fill:#99928e;fill-rule:evenodd"/><path d="M89.14,40.16a44.83,44.83,0,0,1-.33-7.77c.05-.86.26-1.71.39-2.56a.53.53,0,0,1,.73.21c.87,3.29.28,6.66.56,10a1.71,1.71,0,0,1-1.76,1.88.57.57,0,0,1-.09-.78.22.22,0,0,1,.09-.26A1.06,1.06,0,0,0,89.14,40.16Z" style="fill:#989692;fill-rule:evenodd"/><path d="M51.29,27.43l.53-.62a19.14,19.14,0,0,1,0,11.75,1.3,1.3,0,0,0-.46-1A37.41,37.41,0,0,1,51.29,27.43Z" style="fill:#8e887e;fill-rule:evenodd"/><path d="M68,43.85l.54-.52c.82.31,1.65.59,2.45.93a14.84,14.84,0,0,0,7.18,1.46.46.46,0,0,1-.1.64,8,8,0,0,1-2.81.57,12.42,12.42,0,0,1-3.81-.86C70.33,45.25,68.65,45.33,68,43.85Z" style="fill:#a78f8a;fill-rule:evenodd"/><path d="M6.63,25.9c0-.13,0-.25,0-.38.28-.65,1.23-.16,1.45-.89-.37-1.31-2-1.86-2-3.41l.54-.52a8.84,8.84,0,0,1,2.58,2.42A2,2,0,0,1,9.7,25.3c-.41.77-1.18.68-1.89.68C7.41,26,7,25.93,6.63,25.9Z" style="fill:#9b897f;fill-rule:evenodd"/><path d="M39.7,13.68a1.52,1.52,0,0,1-1,.38c-2.78.72-5.36-.21-8-1a1.32,1.32,0,0,1-1-.44C33.11,12.23,36.48,12.23,39.7,13.68Z" style="fill:#96746c;fill-rule:evenodd"/><path d="M62.33,92.72c0-.14,0-.27,0-.41,1.2-1.17,2.91-1.33,4.28-2.17a1,1,0,0,1,.66.2,16,16,0,0,1,1.07,3.74c-.09.38-.26.67-.73.56-.93-2.2-2.63-2.46-4.67-1.82A.51.51,0,0,1,62.33,92.72Z" style="fill:#8a7d7a;fill-rule:evenodd"/><path d="M95,13.56,94.44,13c1.63-2,3.27-3.89,5.79-4.75.33.13.61.3.6.71A24.52,24.52,0,0,1,95,13.56Z" style="fill:#a29691;fill-rule:evenodd"/><path d="M100.74,8.72l-.51-.46A15.16,15.16,0,0,1,106.5,6.4c1,.5,2.19-.26,3.21.34l.15.05c0,.87-.72,1-1.31,1A21.15,21.15,0,0,0,101.85,9,1.15,1.15,0,0,1,100.74,8.72Z" style="fill:#9f7976;fill-rule:evenodd"/><path d="M72.3,71.58c-.83-.79.08-2.08-.82-2.85l-.62-1.81a.52.52,0,0,1,0-.66c2,.1,2.39,1.63,2.75,3.18a2.78,2.78,0,0,1-.66,1.5A1.39,1.39,0,0,1,72.3,71.58Z" style="fill:#867f7c;fill-rule:evenodd"/><path d="M120.49,62.06c-1,1.74-1.7,3.64-3.06,5.17-.46.07-.59-.23-.66-.6.68-1.94,1.17-4,3-5.26A.89.89,0,0,1,120.49,62.06Z" style="fill:#948f8a;fill-rule:evenodd"/><path d="M120.49,62.06l-.62-.62a6.5,6.5,0,0,1,.77-5.69.7.7,0,0,1,1,.3c.5,1.3-.24,2.55-.15,3.84,0,.43,0,.86,0,1.29,0,.1,0,.21,0,.31l-.58.56Z" style="fill:#827e7a;fill-rule:evenodd"/><path d="M94.8,84.5l.57,0a22.1,22.1,0,0,1-4.69,4.86l-.51-.45A9,9,0,0,1,94.8,84.5Z" style="fill:#8b8a89;fill-rule:evenodd"/><path d="M130,39.92l.41,0q.24.13.22.32c0,.14,0,.21-.09.21q0,2.79,0,5.58l-.51.56C129,44.39,128.16,42.16,130,39.92Z" style="fill:#7a7876;fill-rule:evenodd"/><path d="M67.61,94.63l.5-.52a3.75,3.75,0,0,1,3.1,2.3A.83.83,0,0,1,71,97,6.88,6.88,0,0,1,67.61,94.63Z" style="fill:#a39a96;fill-rule:evenodd"/><path d="M117,66.73l.45.5a7.33,7.33,0,0,1-2.28,3l-.52-.54A3,3,0,0,1,117,66.73Z" style="fill:#a9a4a0;fill-rule:evenodd"/><path d="M123.34,83.14l-.06-.51a3.75,3.75,0,0,1,4.29-.11l-.05.55A5.11,5.11,0,0,1,123.34,83.14Z" style="fill:#b06b68;fill-rule:evenodd"/><path d="M71,66.21l-.11.7a4.32,4.32,0,0,1-1.83-3l.58-.61A2.35,2.35,0,0,1,71,66.21Z" style="fill:#9f9994;fill-rule:evenodd"/><path d="M89.77,23.65l.47.52a3.73,3.73,0,0,1-.11,4.22c-.93.28-.53-.71-.92-1q0-.46,0-.92c.55-.92-.11-2,.44-2.94Z" style="fill:#7b7673;fill-rule:evenodd"/><path d="M61.86,40.1a.94.94,0,0,0-.06.33c-1.75,1-3.58.7-5.41.31a.59.59,0,0,1-.33-.7A20.25,20.25,0,0,1,61.86,40.1Z" style="fill:#b46562;fill-rule:evenodd"/><path d="M86.28,44.69l-.46.53c-1.33.93-2.78.63-4.23.4a1.22,1.22,0,0,1-.6-.51C82.69,44.2,84.52,44.91,86.28,44.69Z" style="fill:#be6666;fill-rule:evenodd"/><path d="M88.64,41.13l.14.85a1.79,1.79,0,0,1-1.44,2.35l-.5-.55A6.51,6.51,0,0,1,88.64,41.13Z" style="fill:#9e948f;fill-rule:evenodd"/><path d="M59.53,20.75l-3,0c-.54,0-1.09,0-1.4-.56a5,5,0,0,1,5.26.07,2.31,2.31,0,0,1,0,.45Z" style="fill:#a36c65;fill-rule:evenodd"/><path d="M62.33,92.72l.61.09a5.47,5.47,0,0,1-4.67-.05Z" style="fill:#729797;fill-rule:evenodd"/><path d="M109.71,6.75c-1.08-.07-2.21.37-3.21-.34.94-.2,2,0,2.84-.6A.76.76,0,0,1,109.71,6.75Z" style="fill:#a26262;fill-rule:evenodd"/><path d="M78.15,46.16a4.1,4.1,0,0,1,0-.45,4.86,4.86,0,0,1,2.83-.6l.06.08a.49.49,0,0,1,0,.61,4.74,4.74,0,0,1-2.85.93.38.38,0,0,1-.15-.37Q78.09,46.16,78.15,46.16Z" style="fill:#9d7774;fill-rule:evenodd"/><path d="M71,97q0-.3,0-.6a2.63,2.63,0,0,1,2.89.85.67.67,0,0,1,0,.67A4.54,4.54,0,0,1,71,97Z" style="fill:#938382;fill-rule:evenodd"/><path d="M73.86,97.94a2.77,2.77,0,0,1,0-.42,1.66,1.66,0,0,1,2.37-.05l.46.47A6.88,6.88,0,0,1,73.86,97.94Z" style="fill:#885959;fill-rule:evenodd"/><path d="M89.66,23.59c-.24,1,.28,2-.44,2.94C89.24,25.52,88.81,24.46,89.66,23.59Z" style="fill:#f0e6d3;fill-rule:evenodd"/><path d="M130.56,40.49l-.13-.53c.13-.65-.17-1.41.44-2C130.89,38.85,131.15,39.72,130.56,40.49Z" style="fill:#a09e9a;fill-rule:evenodd"/><path d="M89.21,27.44c.4.23.44.65.51,1a.87.87,0,0,1-.11,1.32l-.41,0A7.12,7.12,0,0,1,89.21,27.44Z" style="fill:#706d6b;fill-rule:evenodd"/><path d="M89.14,40.16a.83.83,0,0,1-.41.71Z" style="fill:#9e948f;fill-rule:evenodd"/><path d="M42.54,8.21h-.4a.43.43,0,0,1,.12-.52.36.36,0,0,1,.48.17A.36.36,0,0,1,42.54,8.21Z" style="fill:#886f6c;fill-rule:evenodd"/><path d="M43.1,7.3a2.68,2.68,0,0,0,0,.34.38.38,0,0,1-.35.23l-.11-.11C42.52,7.33,42.65,7.16,43.1,7.3Z" style="fill:#8f716c;fill-rule:evenodd"/><path d="M56.06,40a3.06,3.06,0,0,1,0,.36.3.3,0,0,1-.44,0l-.17-.18A.52.52,0,0,1,56.06,40Z" style="fill:#97887f;fill-rule:evenodd"/><path d="M30.72,13.09c2.73-.31,5.31.63,8,1,6.09,2.68,10.56,6.88,12.61,13.38a26.05,26.05,0,0,1,0,10.09c-1.55,8.57-8.52,13.76-16.08,15.26a17.31,17.31,0,0,1-7.54-.63c-.46-.12-.93-.19-1.39-.28a28.61,28.61,0,0,1-8.12-5.29A16.45,16.45,0,0,1,13,36.36c-.58-5.06.09-10,3.1-14.36a19.46,19.46,0,0,1,13-8.42C29.71,13.47,30.3,13.56,30.72,13.09Z" style="fill:#dcc39a;fill-rule:evenodd"/><path d="M89.61,29.8l.11-1.32c.63-1.38.33-2.88.52-4.32A5.14,5.14,0,0,0,91,21.74a20.62,20.62,0,0,1,4-8.18c1.58-2,3.81-3.26,5.77-4.84,2.62-.88,5.22-1.89,8.09-1.48a1,1,0,0,0,1-.45c1.09-2.34,3.21-3.65,5.22-5s2.93-1,4.22.84a17.65,17.65,0,0,1,1,1.85c-.16,1,.77,2.22-.08,2.94s-1.91-.33-2.9-.46c-.55-.07-1.09-.27-1.68.25.38.85,1.28.85,1.94.9,3,.23,5,1.87,6.69,4.09A33.27,33.27,0,0,1,130,23.93c.15.53.35,1,.53,1.57l-.1,10.94c-.18.33-.15.73-.34,1.05L130,39.92c-.71,2.24-.13,4.47,0,6.71a38.53,38.53,0,0,0,1.71,9.82c.77,2.84,1.4,5.72,2.22,8.55a6.44,6.44,0,0,1-.28,4.43A15.34,15.34,0,0,0,132,75.8a6.86,6.86,0,0,1-4.44,6.72l-4.29.1a10.51,10.51,0,0,1-1.29-1c-1.12-1.24-.93-2.43.64-2.93S125.46,77.48,126,76c.85-2.19,1.9-4.37,1.17-6.86-.18-.61-.21-1.28-.72-1.72-2-1.71-3.37-4-5.12-5.9h0c-.32-.29-.27-.72-.44-1.07a16.23,16.23,0,0,1,.45-4.14c.85-2.52,2.65-4.63,3.19-7.29a96.61,96.61,0,0,0,0-10.18A86.84,86.84,0,0,1,124.55,49c-.84,2.47-1.6,5-3.65,6.79a2.44,2.44,0,0,0-.56,1.74,15.82,15.82,0,0,1-.46,3.93L117,66.73l-2.34,2.94c-3,4-7.18,6.52-11.65,8.58l-2.22.26c-.24-1.31,1-2.13,1.05-3.36-.35.24,0,0-.27,0-.08,0-.2,0-.23,0C99.41,78.42,97,81.36,94.8,84.5l-4.63,4.44c-2,1.36-3.64,3.1-5.66,4.4a42.59,42.59,0,0,1-8.31,4.12l-2.37.05A12,12,0,0,0,71,96.43L68.1,94.11a4.64,4.64,0,0,1-.84-3.78c0-1.94,1.45-2.55,2.83-3.26a3,3,0,0,1,1.75,0c3.44,1.7,3.74,1.63,6.06-1.39q.87-1.13,1.7-2.29c2.18-3,3.44-6.17,1-9.69-.15-.47.82-1-.11-1.44A26.47,26.47,0,0,1,76.47,72c-1.24-.53-2.61-.9-3.1-2.4-.65-1.25-1-2.72-2.41-3.41L69.62,63.3c-.82-1.06.1-2.53-.88-3.59-.25-.27.2-.7.42-1a13.75,13.75,0,0,0,1.28-2c.62-1.37,1.3-2.77.28-4.28a1,1,0,0,1,.22-1.47c1.33.64,1.63-.56,2.29-1.33a1.76,1.76,0,0,1-1.46-.25A3.55,3.55,0,0,1,70.72,46c.17-.34.38-.57.79-.34l3.77,1a10.49,10.49,0,0,0,2.91-.07,12.21,12.21,0,0,1,2.79-.9,13,13,0,0,1,4.89,0c1.1.38,2.36.45,3.07,1.63.29.49.81.44,1.28.26A6,6,0,0,0,91.27,47l8.55-5.61a1.12,1.12,0,0,1,.6-.35,1.7,1.7,0,0,1,1.69,2.14c-.34,2.89-.12,5.92-1.81,8.52-1.21,1.86-1.4,3.57.33,5.37,1.33,1.39.21,3.44-.29,4.46-1.08,2.2-.84,5.13-3.12,6.41.9-1,2.21-2,2.11-3.91-.07-1.28,1.68-1.76,1.57-3.33-.12-1.76.33-3.44-1.11-5-1.14-1.25-.11-2.67.51-4,1.57-3.28,2.35-6.68,1.3-10.29-.93-.94-1.9-.4-2.87-.06a26.31,26.31,0,0,0-6.52,3.87,3.49,3.49,0,0,1-4.59,0c-.28-.21-.27-.55-.29-.87A7.74,7.74,0,0,0,88.78,42a3.27,3.27,0,0,0,1.1-3.37,45.48,45.48,0,0,1-.18-6.19C89.68,31.55,89.64,30.68,89.61,29.8Z" style="fill:#f0e6d3;fill-rule:evenodd"/><path d="M81.46,71.61c1.26,1-.22,1.34-.46,2-.8,1,.3,1.59.61,2.27.94,2.09.86,3-1,4.17a57.78,57.78,0,0,0-8,6.23c-.82.65-1.89.56-2.78,1-1.49.56-2.17,1.95-3.11,3.06-1,1.53-2.76,1.58-4.32,2-1,0-1.92,0-2.87-.09a5.2,5.2,0,0,1-4.82-5.28,2.27,2.27,0,0,1,1.6-2.39,5.06,5.06,0,0,1,2.33-.43,6.52,6.52,0,0,0,5.44-2,37.85,37.85,0,0,0,7.59-8.56,3.41,3.41,0,0,0,.7-2l.1-.93c1.63-.87,2.45,1,3.76,1.13.33.07.67,0,1,.12A11.72,11.72,0,0,0,81,72,1.91,1.91,0,0,0,81.46,71.61Z" style="fill:#f0e6d3;fill-rule:evenodd"/><path d="M71.51,45.61l-.54.47c-1.06.64-1.65-.67-2.48-.57-.4-.16-.29.44-.2.13,0,0,0,0,.1,0,1.86.15,1.74,1.67,2,2.92-.19.34.87,1.25-.74,1-2.38-.38-2.91-2-3.42-3.79-.38-1.34,0-1.69,1.72-1.92C69.13,44.48,70.47,44.75,71.51,45.61Z" style="fill:#ded8c7;fill-rule:evenodd"/><path d="M70.42,48.56c-.22-.22-.6-.41-.64-.66a2.87,2.87,0,0,0-2.14-2.42c1.48-.59,2.36.21,3.33.6.62.87-.08,2.18,1,2.91.4,1,.12,1.52-1,1.48C70.88,49.8,71.2,49,70.42,48.56Z" style="fill:#887a74;fill-rule:evenodd"/><path d="M71,50.47a1.51,1.51,0,0,0,1-1.48c1,1,1.59-.9,2.67-.19L72,52.15c-.79-.16-.39-1.09-1-1.24C70.95,50.76,71,50.62,71,50.47Z" style="fill:#9f988f;fill-rule:evenodd"/><path d="M22.22,3.92c-.44,1.15-.06,2.4-.4,3.55s-.82,1.39-1.9.78a15,15,0,0,1-3.48-2.9c-.47-.5-.56-.93,0-1.39a8.82,8.82,0,0,1,4.38-1.77C21.78,2.05,22.31,2.81,22.22,3.92Z" style="fill:#d7bf98;fill-rule:evenodd"/><path d="M7.64,44.24c.63.08,1.29-.17,1.63.41s-.06,1.26-.43,1.74a13,13,0,0,1-3.05,3c-1.36.93-2,.75-2.91-.69-.09-.13-.14-.28-.22-.42-1.33-2.41-1.1-2.95,1.56-3.47C5.39,44.58,6.57,44.42,7.64,44.24Z" style="fill:#d8c198;fill-rule:evenodd"/><path d="M24,56.24c.27,2,.61,3.73.71,5.49a1.72,1.72,0,0,1-1.94,1.65l-.24,0c-2.65-.35-3.38-1.85-1.84-4A9.33,9.33,0,0,1,24,56.24Z" style="fill:#d8bf98;fill-rule:evenodd"/><path d="M43.1,7.3a.49.49,0,0,0-.46.46.52.52,0,0,0-.49.46C41.47,8.4,41,9,40,9a14,14,0,0,1-.71-5.49c.12-1.13.66-1.55,1.77-1.36a6.38,6.38,0,0,1,1.81.59c1.71.87,1.89,1.73.74,3.32A2,2,0,0,0,43.1,7.3Z" style="fill:#d7c098;fill-rule:evenodd"/><path d="M60.39,20.23l-5.26-.07a14.09,14.09,0,0,1,3.56-4.71,1.23,1.23,0,0,1,2,.14,7.87,7.87,0,0,1,.79,1.19C62.62,18.78,62.53,19.06,60.39,20.23Z" style="fill:#d9c198;fill-rule:evenodd"/><path d="M41.68,59.56a13.24,13.24,0,0,1,0-1.36c.13-1,.71-1.31,1.42-.7a30.39,30.39,0,0,1,3,3,1.39,1.39,0,0,1-.36,2.23,6,6,0,0,1-.62.35c-2.11,1.19-2.54,1-3.16-1.41A10.14,10.14,0,0,1,41.68,59.56Z" style="fill:#d7bf97;fill-rule:evenodd"/><path d="M61.81,41c.94,1.58.52,3-.35,4.48a1.23,1.23,0,0,1-2,.4c-1.42-1.27-2.72-2.67-4-4-.23-.24.07-.59.19-.87A13.71,13.71,0,0,1,61.81,41Z" style="fill:#d9c29a;fill-rule:evenodd"/><path d="M61.81,41l-6.2,0a2.41,2.41,0,0,1,0-.47l.44,0,5.72,0Z" style="fill:#7b957d;fill-rule:evenodd"/><path d="M85.86,45.63H81A3.79,3.79,0,0,0,81,45.2l4.77,0Q85.83,45.43,85.86,45.63Z" style="fill:#7e9e95;fill-rule:evenodd"/><path d="M100.24,41.27a.72.72,0,0,1-.43.1l-1.08,0c.93-.81,1.86-1.58,3.08-.49C101.41,41.41,100.71,40.91,100.24,41.27Z" style="fill:#997470;fill-rule:evenodd"/><path d="M6.1,21.22c.53.57,1,1.15,1.6,1.7A2.15,2.15,0,0,1,8.51,25c-1.39.75-3-.12-4.36.5a1.6,1.6,0,0,1-.24,0c-1.07-.17-2.51.57-3-1.15a5.16,5.16,0,0,1,1.7-4.46,1.19,1.19,0,0,1,1.53,0C4.78,20.34,5.45,20.77,6.1,21.22Z" style="fill:#d9c099;fill-rule:evenodd"/><path d="M4.15,25.48c1.37-.87,2.92-.27,4.36-.5.26.41,0,.5-.33.51-.52,0-1,0-1.56,0Z" style="fill:#b26c63;fill-rule:evenodd"/><path d="M130.06,37.5a1.19,1.19,0,0,1,.34-1.05A1,1,0,0,1,130.06,37.5Z" style="fill:#a09e9a;fill-rule:evenodd"/><path d="M78.18,46.53c-1.75,1.17-1.75,1.17-2.91.07.85-.83,1.92-.3,2.88-.44A3.19,3.19,0,0,0,78.18,46.53Z" style="fill:#777e79;fill-rule:evenodd"/><path d="M66.64,90.31A4.31,4.31,0,0,1,69.53,87c.21.14.5.18.55.5a7.71,7.71,0,0,0-2.81,2.84Z" style="fill:#9b918a;fill-rule:evenodd"/><path d="M76.31,72a3.62,3.62,0,0,1-2.36-1,1.69,1.69,0,0,0-1.54-.39l1-1,2.87,1.95c.14.08.19.17.16.27S76.35,72,76.31,72Z" style="fill:#958882;fill-rule:evenodd"/><path d="M124.71,49.51a16.92,16.92,0,0,1-3.32,6.77l-.5-.52,3.28-6.27Q124.46,49.11,124.71,49.51Z" style="fill:#96908a;fill-rule:evenodd"/><path d="M120.95,60.43a1.46,1.46,0,0,1,.44,1.07A.87.87,0,0,1,120.95,60.43Z" style="fill:#958e8a;fill-rule:evenodd"/><path d="M100.24,41.27c.43-.51,1-.37,1.58-.42a2.24,2.24,0,0,1,.7,1.73c-.23,2.91,0,5.92-1.43,8.63-.27.49-.51,1-.79,1.48a2.8,2.8,0,0,0,.43,3.72,2.17,2.17,0,0,1,.66,2.76,1.21,1.21,0,0,0-.09.92c.7,1.26.08,2.12-.79,2.93a2.58,2.58,0,0,0-.79,1.68c-.28,2.41-2,3.65-4.16,4.94,0-1.28.9-1.54,1.36-2.06.82-.92,2.06-1.61,1.53-3.21-.09-.28.19-.79.44-1.05.83-.88,1.68-1.72.8-3,1.34-1.69.43-3-.49-4.56a3.6,3.6,0,0,1,.43-3.87c1.73-2.6,1.67-5.6,2-8.51C101.73,42.37,101.62,41.35,100.24,41.27Z" style="fill:#8a817c;fill-rule:evenodd"/><path d="M72.34,85.82c2-2.39,4.75-4,7.21-5.87.44-.33.9-.65,1.36-1a1.59,1.59,0,0,0,.51-2.45A11.2,11.2,0,0,1,80.14,74c-.23-.8.41-.6.86-.41a4,4,0,0,0,.51,1.05c1.74,1.86,1.46,3.72.4,5.86a39.09,39.09,0,0,1-4.59,6.92c-1.58,2-2.73,1.94-5.51.08a.92.92,0,0,1,.67-.71c4.1,1.41,4.71-2.38,6.5-4.42-1.54,1.11-3.14,2.14-4.68,3.26-.6.44-1.08,1.27-2,.79A.46.46,0,0,1,72.34,85.82Z" style="fill:#948a86;fill-rule:evenodd"/><path d="M76.68,60c.26-.49.54-1,.07-1.52a1,1,0,0,1,0-1.31.41.41,0,0,1,.46-.13.93.93,0,0,0,1,0,.64.64,0,0,1,.49.12c.76.37.77.82.31,1.52-.9,1.37-.71,2,.76,2.65,1.75.76,3.52,1,5.26-.1a5.3,5.3,0,0,1,.85-.41s.13.06.36.17c-.39,1.33-1.55,1.67-2.66,1.88a5.55,5.55,0,0,1-4.15-.7c-.6-.39-1.18-.81-1.78-1.22C77.35,60.63,76.39,61,76.68,60Z" style="fill:#8a7c77;fill-rule:evenodd"/><path d="M124.71,49.51h-.54V38.3c.94.16.77.88.79,1.31.1,2.93.13,5.87.14,8.8A3.54,3.54,0,0,1,124.71,49.51Z" style="fill:#7e7a75;fill-rule:evenodd"/><path d="M105.88,64c-1.09-1.67-.67-3.56-1.16-5.29a.4.4,0,0,1,.44-.44c.14,0,.36.09.39.18C106.06,60.3,106.79,62.12,105.88,64Z" style="fill:#9f9a90;fill-rule:evenodd"/><path d="M96.51,47.54c1.58.11,1.58.11,1.31,1.48-.54.29-.68-.17-.89-.49-1.39-.37-2.71.76-4.31.26.53-1.08,1.51-1.27,2.27-1.72a3.27,3.27,0,0,0,.55-.41h0C96.35,46.31,96,47.49,96.51,47.54Z" style="fill:#857873;fill-rule:evenodd"/><path d="M76.68,60l1,.94c-1.48.12-2.87.84-4.42.64s-1.82-.46-2.06-2.41C72.88,61.09,74.77,60.68,76.68,60Z" style="fill:#9a8b83;fill-rule:evenodd"/><path d="M96.51,47.54c-.57,0-.61-.69-1-.88l4.84-4.54c.22,1.25-.54,1.73-1,2.37C98.51,45.63,96.92,46,96.51,47.54Z" style="fill:#978c85;fill-rule:evenodd"/><path d="M96.93,48.54l.89.49a2.23,2.23,0,0,0,.54,1.51c.69.67.51,1.41-.08,2.1C96.69,50.74,96.69,50.74,96.93,48.54Z" style="fill:#8d8c85;fill-rule:evenodd"/><path d="M76.78,69.11l5.83.69a10,10,0,0,1-6.35-.13C76.12,69.19,76.27,69,76.78,69.11Z" style="fill:#9f7873;fill-rule:evenodd"/><path d="M72.44,86.85l-.63.65H70.07l-.55-.5,2.81-1.17.11.75C72.45,86.67,72.45,86.76,72.44,86.85Z" style="fill:#90807c;fill-rule:evenodd"/><path d="M75.58,55.81c-1.49.7-2.27.11-3.34-.27C73.49,54.44,74.27,55.25,75.58,55.81Z" style="fill:#9f918a;fill-rule:evenodd"/><path d="M76.31,72a3.18,3.18,0,0,1-.06-.44l5.21,0a.73.73,0,0,1,0,.44,9.48,9.48,0,0,1-4.42.07Z" style="fill:#a55c5b;fill-rule:evenodd"/><path d="M76.78,69.11l-.53.56a1.6,1.6,0,0,1-1.9-1.12A3.05,3.05,0,0,1,76.78,69.11Z" style="fill:#a39990;fill-rule:evenodd"/><path d="M86.87,72.41c-1,.83-1.55.55-2.29,0A2.1,2.1,0,0,1,86.87,72.41Z" style="fill:#b56967;fill-rule:evenodd"/><path d="M86.75,55.74c-.83,0-1.52.83-2.58.31.72-.91,1.72-.77,2.61-.9A.4.4,0,0,1,86.75,55.74Z" style="fill:#95746f;fill-rule:evenodd"/><path d="M86.75,55.74l0-.59c.36-.3.8-.39.85.16S87.13,55.74,86.75,55.74Z" style="fill:#8f978e;fill-rule:evenodd"/><path d="M77.24,57.21h-.49c.63-.83,1.27-.66,1.94,0l-.6.06A.55.55,0,0,1,77.24,57.21Z" style="fill:#c6817b;fill-rule:evenodd"/><path d="M95.44,46.67l-.55.41Z" style="fill:#978c85;fill-rule:evenodd"/><path d="M77.08,72.12l4.42-.07C80,73,78.56,72.71,77.08,72.12Z" style="fill:#739189;fill-rule:evenodd"/><path d="M72.44,86.85a.92.92,0,0,0,0-.27c2.18-2.21,5-3.62,7.26-5.71.68.63.24,1.1,0,1.5-.83,1.25-1.67,2.5-2.58,3.7C75.42,88.33,74.85,88.41,72.44,86.85Z" style="fill:#f7f9f9;fill-rule:evenodd"/><path d="M77.24,57.21h.85c0,.3,0,.71-.29.76C77.26,58.07,77.28,57.59,77.24,57.21Z" style="fill:#98b2a6;fill-rule:evenodd"/></svg>