<svg xmlns="http://www.w3.org/2000/svg" viewBox="0 0 113.76 183.33"><title>アセット 10</title><path d="M83.78,127c-.25,1.92,1,3.07,2.16,4.29a1.2,1.2,0,0,1-.57,1.11,2.18,2.18,0,0,0-1.24.61,2.88,2.88,0,0,1-4.36.38,2,2,0,0,0-1.73-.48c-2.21-3.15-6.33-4.67-7.47-8.73-.7-3.25,1.05-5.25,3.54-6.88a11.19,11.19,0,0,0-4.05,4.54c-2.39-.36-4.85-.32-7.16-1.19-2.72-1-2.74-1-4,1.7-.16.36-.3.73-.44,1.1a13.13,13.13,0,0,0,0,5.39,6.13,6.13,0,0,1-.48,3.57c-.41.72-.92.42-1.44.15l-.61-.18a6.65,6.65,0,0,1-.94-.24,2.56,2.56,0,0,1-1.23-1.1,5.57,5.57,0,0,1-.46-.9,44.35,44.35,0,0,0-4-9.38,7.62,7.62,0,0,1-.57-6.42s.06-.16,0-.19a.31.31,0,0,0-.44.06,5.66,5.66,0,0,1-4.92-3.32A31.84,31.84,0,0,0,37,101.78c-1.88-1.81-3.19-4.32-5.33-6-.54-.61-1.17-1.32-.77-2.12A5.06,5.06,0,0,0,31.24,90c-.24-1-.08-2.24,1.41-2.22,1.33,0,2.4.48,1.93,2.27,1.71-.75,3.58-1,3.48-3.7-.06-1.5,1.64-1.81,2.77-.44,1.47,1.76,2.9,3.58,4.21,5.46,1.08,1.55,1.63,3.46,3.13,4.75a1.42,1.42,0,0,1,.4.85,5.4,5.4,0,0,0,4.7,4.54c1.89.1,3.76.4,5.64.5,1.5-.83,1.8-2.24,1.75-3.76a4.63,4.63,0,0,1,0-2.06.71.71,0,0,1,.88-.4c2.2,2.22,1.22,4.47.1,6.73,0,.15-.11.42,0,.45,1.49.58,3.06,0,4.69.67s2.89-1,4-2.42c1.75-2.34,6-2.73,8.22-.82s4.49,4.08,6.87,6A6,6,0,0,1,86.86,109a5,5,0,0,0,3.22,3.28l.64.2a3.92,3.92,0,0,1,.88.46c1.79.73,3.49,1.55,3.49,3.89a.45.45,0,0,1-.11.56,7.22,7.22,0,0,1-2.35,0c-.33-.25-.75-.2-1.11-.36-.77-.08-1.4-.78-2.25-.52-.71-.52-.58-1.45-1.1-2.19a25.59,25.59,0,0,1,1,4c.41,2.57-1.35,4.08-3.16,5.42a6.7,6.7,0,0,0-2.83,3.38s-.09.2-.07.21c.19.1.1-.15.2-.2A.35.35,0,0,1,83.78,127Z" style="fill:#84736f;fill-rule:evenodd"/><path d="M85.37,132.34c.1-.39.15-.81.57-1a.71.71,0,0,1,.41.09c.3.22.73.13,1,.41a1.31,1.31,0,0,1,.88.75,1.86,1.86,0,0,0,2.12,1.14,15.67,15.67,0,0,1,1.67,0c1.8.09,1.9.08,2,1.84.08,1.06.5,1.23,1.35,1s1.65-.59,2.49-.83a4.63,4.63,0,0,1,5.65,2.37c.64,1.48,1.58,1.5,2.82,1.5.71,0,1.73-.7,2.09.38s-.62,1.51-1.35,2c-.11.07-.15.24-.24.4.34,1.06,1.32,1.52,2.14,2.11a7.81,7.81,0,0,1,2.67,3.29c.22.52.39,1.13-.11,1.56s-.88-.05-1.3-.24c-.78-.35-1.45-1-2.54-.92-.26.8.31,1.49.35,2.24a.92.92,0,0,0,.38.62h0a1,1,0,0,1,0,.89c-.08.19-.17.38-.27.56a20.3,20.3,0,0,1-.91,2,3.37,3.37,0,0,1-.65.73c-1.57.57-2.62,1.9-4,2.75-1.44.09-1.31-1.1-1.57-2-.42-1.35-.59-2.88-2.36-3.25-1.34-.72-2.15-2.75-4.24-1.62-.31.17-.68-.37-.8-.76-.58-2-1.7-1.47-2.9-.66a2.32,2.32,0,0,1-3.55-.56,1.36,1.36,0,0,0-2-.59c-1.85.79-2.35.35-2.27-1.63,0-.73.39-1.37.47-2.21-1.85.3-2.84,1.66-4,2.84a.93.93,0,0,1-.65.2c-1.29-.55-1.23-1.69-1.1-2.77a5.32,5.32,0,0,0-.2-3,1.66,1.66,0,0,1,0-.69A13.84,13.84,0,0,1,83,135.82C84.48,135.09,84.62,133.52,85.37,132.34Z" style="fill:#545454;fill-rule:evenodd"/><path d="M59,102.55c-.12.1-.28.31-.35.29a25.89,25.89,0,0,0-5.71-.91c-1.89-.21-3.45-1.55-4.85-2.89-.29-.27-.68-.69-.4-1,1.06-1.27-.11-1.79-.75-2.51-.26-.3-.63-.57-.75-.92-1-3-3.46-4.93-5-7.52a2.26,2.26,0,0,0-.42-.58c-.51-.44-.86-1.32-1.73-1-.7.28-.72,1-.65,1.66.18,1.55-.5,2.31-2,2.73a15.8,15.8,0,0,0-2.88,1.47c-.52-.66,0-.95.27-1.29s.83-.74.44-1.21a1.84,1.84,0,0,0-1.94-.64c-.58.15-.62.66-.63,1.15A3.76,3.76,0,0,0,31.89,91a1.76,1.76,0,0,1-.17,2c-1,1-.17,1.7.37,2.46-1.55.73-3-.09-4.56-.2-.37-.16-.7-.37-.65-.85a12.51,12.51,0,0,0,1.65-.27,3,3,0,0,0,2.21-3.6,6.89,6.89,0,0,1-.08-1.19c.13-2.45,1.24-3.08,3.43-2,.85.42,1.7,1.33,2.59,1,1.07-.35.46-1.73.88-2.56.22-.42.38-.88.63-1.29a1.19,1.19,0,0,1,2-.34,2.26,2.26,0,0,1,.5.51c1.85,3,4.67,5.26,6,8.61a8.41,8.41,0,0,0,2.19,2.51c.37.39,1.12.86.77,1.33-1.17,1.58.37,1.83,1.08,2.48,1.92,1.76,4.32,1.39,6.6,1.32,1.06,0,1.9-1.38,2.07-2.77a.71.71,0,0,1,.61-.12,1.68,1.68,0,0,1,.13,2.66A9.2,9.2,0,0,0,59,102.55Z" style="fill:#736766;fill-rule:evenodd"/><path d="M90.7,112.62A3.4,3.4,0,0,1,86.87,110c-.8-2.92-3.26-4.22-5.16-6-1.08-1-2.29-1.95-3.36-3a4.14,4.14,0,0,0-4.59-1.05c-1.58.53-3,1-3.88,2.74s-3.38,2.13-5.13,1a1.08,1.08,0,0,0-1.46,0,2.48,2.48,0,0,1-2.08.23c-.88-.21-.9-.76-.29-1.37A3.35,3.35,0,0,0,63.63,101a3.85,3.85,0,0,1,.79-.48c.6-.25.78-.8,1-1.34s.35-1.16.92-1.5a3.57,3.57,0,0,1,1.22,0,1.13,1.13,0,0,1,.52.77,4.86,4.86,0,0,1-.35,2.05c-.17.64-.86,1.12-.55,2,1.6-.3,1.82-1.78,2.51-2.81a2.44,2.44,0,0,1,.43-.5l.27-.18.31-.09H71a2.63,2.63,0,0,0,1.79-.32,7.56,7.56,0,0,1,4.66-.26,10.57,10.57,0,0,1,1.33.18c.84.56,1.77,1,2.11,2.07a1.7,1.7,0,0,1-.17.65c.82,1.53,2.26,2.44,3.57,3.46a8.08,8.08,0,0,1,3,3.9,6,6,0,0,0,3.34,3.56q.21.13.16.29C90.78,112.57,90.74,112.62,90.7,112.62Z" style="fill:#726865;fill-rule:evenodd"/><path d="M1.77,11a2.1,2.1,0,0,1-.66-2.76A5.86,5.86,0,0,1,4.6,4.53,8.77,8.77,0,0,0,7.77,3c.28-.25.8-.58,1-.48,1.81.74,2.43-.56,3.45-1.62s2.83-.9,4.28-.7c1.15.16,2.22.75,3.47.36A1.44,1.44,0,0,1,21.54,1a4.1,4.1,0,0,0,3,1.69,1.68,1.68,0,0,1,1.42,1.92A2,2,0,0,0,27.7,7a1,1,0,0,1,1.08,0,.72.72,0,0,1,.1.5c-.11.2-.29.35-.4.54a.34.34,0,0,0,.08.35A1.53,1.53,0,0,0,29,8.5a1.44,1.44,0,0,1,.9.45.43.43,0,0,1-.12.5h0a5.16,5.16,0,0,1-.48.35A.3.3,0,0,1,29,10a.71.71,0,0,0-.61.66l.41.33c.1.37-.12.56-.39.73a3.88,3.88,0,0,1-.87.32,1.27,1.27,0,0,1-.62,0,1.24,1.24,0,0,1-.37-.48,3.5,3.5,0,0,1,0-1.78,2.44,2.44,0,0,0,.08-1.05,3.25,3.25,0,0,0-.24-.46,5.83,5.83,0,0,0-.62-.58,3,3,0,0,1-1.07-2C24.5,4.22,23.61,4,22.49,4a1.9,1.9,0,0,1-.63-.21c-2-2.57-4.92-1.73-7.53-1.89-.76,0-1.26.6-1.09,1.49a2.74,2.74,0,0,1,0,.64,1,1,0,0,1-.52.72,1.44,1.44,0,0,1-.83-.2,1.59,1.59,0,0,0-1.06,0,4.83,4.83,0,0,1-.58.12,2.46,2.46,0,0,0-1.91,1c-.73.82-1.07,2.51-2.74,1.22,0-.81-.4-.87-1.06-.52-1.69.9-2,2.54-2.31,4.2A.89.89,0,0,1,1.77,11Z" style="fill:#876d6d;fill-rule:evenodd"/><path d="M58,63.05l-.37.54c.15.43-.1.67-.43.86-1.45-.12-2.16.55-2.21,2a10.36,10.36,0,0,1-.2,1.16A3.13,3.13,0,0,1,52,70.36c-2,.35-2.53-1.18-3.24-2.49a2.16,2.16,0,0,0-.62-.62,5.38,5.38,0,0,0-.84-.24,1.39,1.39,0,0,1-.76-.46v0c-.23-.28-.68-.17-.88-.5l0,0a2.14,2.14,0,0,1-.09-2,.33.33,0,0,1,.11-.35c.25-.28.17-.69.42-1h0c.34-.29.26-.74.44-1.09a.34.34,0,0,1,.11-.36c.34-.4.09-.93.31-1.36a.78.78,0,0,1,.49-.23,1.44,1.44,0,0,1,.5.2l.22.15c.21.15.43.29.66.41a2.33,2.33,0,0,1,.43.29,1.93,1.93,0,0,1,.33.4l.08.25a1.27,1.27,0,0,1-.23.72,2.75,2.75,0,0,1-.32.38l-.35.35-.17.17c-.1.12-.22.23-.33.34l-.15.17a2.14,2.14,0,0,0-.25.39s0,.24,0,.24a.64.64,0,0,0,.3.37c.33.14.68.2,1,.31l1.12.39c2.34.7,1.12-1.72,2-2.29a2.49,2.49,0,0,1,1.62-.79,18.6,18.6,0,0,1,2.7,0C57.12,62.23,57.89,62.14,58,63.05Z" style="fill:#716a66;fill-rule:evenodd"/><path d="M59.41,69.89c1.33,1.23,2.66,1.09,4,.06a12.33,12.33,0,0,1,6.12-2.31,9.36,9.36,0,0,0,2.86.05C78.29,69,82.16,72.58,84.5,78c.22.52-.1.64-.52.69-1.12-.5-1.45-1.66-2.09-2.56a18.17,18.17,0,0,0-6.4-5.67,11.38,11.38,0,0,0-13.28,2.2,3.38,3.38,0,0,0-.67,2.47,5,5,0,0,1-1.07,3.35c-.43.49-1,1-1.64.68s-.37-1.15-.14-1.68a6.78,6.78,0,0,0-.26-6.23,7.8,7.8,0,0,1-.35-1.08A9.08,9.08,0,0,1,58,67c.17-.5.27-1.08,1-1h0C59.6,67.29,58.93,68.65,59.41,69.89Z" style="fill:#897d72;fill-rule:evenodd"/><path d="M60.48,180.73c-1.49.06-3,0-3.6,1.87,0,.12-.43.13-.66.19a.54.54,0,0,1-.67,0,1,1,0,0,1,0-.7c1.07-1.8-.15-3-1.15-4.22-1.42-1.67-3.44-2.52-5.34-3.52-4.92-2.59-9.85-3.36-15-.59-1.21.65-2.5,1.46-4,1.14a.84.84,0,0,1-.43-.49c.74-1.67-1.58-2-1.48-3.39a.8.8,0,0,1,.46-.5c.08,0,.18-.07.23,0,3,1.81,5.82.8,8.78-.23,5-1.74,9.36.7,13.65,2.71,2.43,1.14,4.76,2.62,6,5.22a2.19,2.19,0,0,0,1.27,1,4.81,4.81,0,0,1,1.92.92A.59.59,0,0,1,60.48,180.73Z" style="fill:#807a7c;fill-rule:evenodd"/><path d="M69.55,44.41A8,8,0,0,0,67.22,47c-.84,2,0,2.64,2,3.14,2.2.54,3.29-1.21,5-1.49.43-.17.65,0,.75.42-2.77,2.24-4.84,5.13-7.14,7.81a1.37,1.37,0,0,1-1.7.49c-.79-.39-.77-1.12-.6-1.87a3,3,0,0,1,.35-1.13c1.42-1.93,1.18-3.69-.57-5.3-1.56.49-2.52,1.37-1.75,3.27a1.64,1.64,0,0,1-.24,1.8,1.09,1.09,0,0,1-.72.07,10.3,10.3,0,0,1-1.91-6.77.45.45,0,0,1,.66-.14c1.31,1.2,1.54,1.2,2.94,0a.7.7,0,0,0,0-1l0,0c-.14-.43.13-.6.47-.72,1.89.41,2.52-2,4.25-1.91C69.38,43.81,69.64,44,69.55,44.41Z" style="fill:#8d8686;fill-rule:evenodd"/><path d="M48.33,114.22c.16-.59,0-1.27.53-1.9.8.54.58,1.29.41,1.91a9.09,9.09,0,0,0,1.31,7.71,22,22,0,0,1,3.14,8.45c-.12.89.48,2-.83,2.52-.82-1.46-2-1.73-3.51-1.16-1.08.4-2.12,1.12-3.38.87-.34-.16-.6-.36-.44-.8A2.87,2.87,0,0,0,46,130a2.5,2.5,0,0,1-.13-1.43.63.63,0,0,1,.59-.28,1.82,1.82,0,0,1,.39.27c.5.42.61,1.51,1.56,1.14.74-.29.38-1.1.47-1.7.12-.76-.27-1.81,1-2,.71.65.42,1.66.89,2.4.47.46,1,.78,1-.25a1.86,1.86,0,0,0-1.46-1.88,2,2,0,0,1-.53-.36c-1-1.69-2.73-2.7-3.89-4.24a.89.89,0,0,1,.17-.63,1.55,1.55,0,0,1,.63-.23c.93,0,1.54.6,2.23,1.24C47.77,119.46,46.22,117,48.33,114.22Z" style="fill:#716968;fill-rule:evenodd"/><path d="M21.13,177.84a3.59,3.59,0,0,1-3-1.22c-2.12-1.84-2.9-4.3-3.32-7-1.44-9.22,2.89-15.6,10.08-20.58a1,1,0,0,1,.27.67c-.65,1.92-2.27,3.09-3.68,4.31-5.24,4.55-5.69,10.44-4.86,16.67a7.21,7.21,0,0,0,3.26,5.12,3.2,3.2,0,0,1,1.37,1.3A.8.8,0,0,1,21.13,177.84Z" style="fill:#827e82;fill-rule:evenodd"/><path d="M41.81,23.76c1.36-.4,2.47-1.42,4-1.51.57,0,.84-.68,1.21-1.09a20.86,20.86,0,0,1,1.81-1.89c1.51-1.29,2.6-1.09,3.58.65a2.34,2.34,0,0,0,1.12,1.15,1.18,1.18,0,0,1,.74,1.14,4,4,0,0,0,.71,2.22c.66,1.09-.36,2.14-.27,3.24-.55.19-.82-.14-1.06-.55s0-.69-.26-.86-.54.14-.69.37c-.38.62-.24,1.36-.46,2a1.43,1.43,0,0,1-.38.55.76.76,0,0,1-.64-.1,7.25,7.25,0,0,1-.72-2.26c-1-2.82-1-2.82,1.93-3.46-.12-.87-1.31-.74-1.46-1.65-.37-2.19-1.73-1.26-2.11-.27-.9,2.33-2.9,2.45-4.77,3a2.41,2.41,0,0,1-.64,0,1.13,1.13,0,0,1,.44.45,1,1,0,0,1-.15.92c-.75.26-1.24-.29-1.81-.6a1.68,1.68,0,0,1-.8-1C41.21,23.78,41.38,23.53,41.81,23.76Z" style="fill:#897070;fill-rule:evenodd"/><path d="M29.73,46.38c-.24-.41-.51-1-1-.81-1.45.52-3.22-.11-4.37,1.44-1-1.32-1.81-2.41-.53-3.88a1,1,0,0,0-.37-1.63,2.4,2.4,0,0,1-1-2.72c-.16-.36,0-.6.29-.8a14.79,14.79,0,0,1,1.41-.51,2.18,2.18,0,0,0,.81-.73,1.34,1.34,0,0,1,.64-.55.71.71,0,0,1,.53.21c.27.3.5.64.74,1,.53.89,1.39,1.63,1.26,2.81-.1.52-.52.9-.63,1.42-.13,2.56-.08,2.61,1.72,2a3.8,3.8,0,0,1,1.39-.83,1.23,1.23,0,0,1,1.1.6c.2.6-.29,1-.43,1.5a2.65,2.65,0,0,1-1,1.63A.56.56,0,0,1,29.73,46.38Z" style="fill:#837172;fill-rule:evenodd"/><path d="M84,78.54,84.5,78a11,11,0,0,1-.45,9.85c-1,2.06-2.21,4-3.34,6.05-.6,1.06-.81,2.09.13,3.06s2,.91,3.28.16a2.78,2.78,0,0,0,.38-.29,1.69,1.69,0,0,1,2.36-.26,2.22,2.22,0,0,1,0,2.85c-.71,1-1.55,1.84-3,1.63a.69.69,0,0,1,0-.65c.4-.69,1.25-1,1.57-1.74-.31-.59-.7-.25-1-.09a3.45,3.45,0,0,1-4.4-.46c-1.4-1.34-1.24-3-.69-4.68a13,13,0,0,1,1.64-2.9A12.28,12.28,0,0,0,82.45,88c.08-.21.17-.41.25-.61s.22-.65.32-1a11.49,11.49,0,0,0,.64-5.84C83.57,79.87,83.38,79.15,84,78.54Z" style="fill:#8d817a;fill-rule:evenodd"/><path d="M83,180a4.58,4.58,0,0,1-1.37-.4,1.82,1.82,0,0,0-2.86.42,3,3,0,0,1-2.1,1.06c-2.85.28-5.71.6-8.52-.34-.13-.42.13-.61.44-.79a2.18,2.18,0,0,0,1.88-2.25,3.24,3.24,0,0,1,.65-2.38,1.14,1.14,0,0,1,1.28.15,1.58,1.58,0,0,1,.19.91c0,1.13-1.21,2.57.73,3.23A4.46,4.46,0,0,0,78.41,178a15.92,15.92,0,0,0,1.21-2.6c.28-.71.44-1.53,1.27-1.87a1.93,1.93,0,0,1,.62,2.21c-.37,2,.6,1.74,1.81,1.08a.7.7,0,0,1,.85.4,1.92,1.92,0,0,1-.26,1.33C83.62,179.06,83.51,179.65,83,180Z" style="fill:#7d797b;fill-rule:evenodd"/><path d="M51.93,28.77c-.28-1.38-.17-2.62,1.13-3.5.27-.18.54-.37.84-.21a.73.73,0,0,1,.28.82c-.1.45-.28.88-.42,1.32q0,.15,0,.31a4.44,4.44,0,0,1,.06.61c0,.82,0,1.64,0,2.46a4,4,0,0,0,.65,2.24,6.18,6.18,0,0,1,1,2.65c.1,2.23,1.39,3.76,2.67,5.39a18.75,18.75,0,0,1,3.31,6.49l-.59,0c-1-.12-1.2-1-1.57-1.64-1.1-2-2.66-3.84-3.69-5.86-1.78-3.48-3.59-7.09-3.11-11.27C52.44,28.46,52.15,28.86,51.93,28.77Z" style="fill:#989595;fill-rule:evenodd"/><path d="M3.72,19.56c-1.2,0-1.59-.69-1.26-1.71.48-1.48-.09-2.17-1.46-2.66s-1.32-.76-.15-1.64A3.87,3.87,0,0,0,2,11.81a1,1,0,0,1,.94-.75,1.54,1.54,0,0,1,.62.19,2.92,2.92,0,0,1,.69.71c2.1,1.16,1.55,2.86.7,4.4s-.47,2.22,1.1,2.72a6.13,6.13,0,0,1,2.5,1.31c.23,1.12-.71,1.33-1.37,1.76a1.48,1.48,0,0,1-1-.18l-.38,0c-.32.24-.5,0-.67-.21a3.91,3.91,0,0,0-.53-1.24A1,1,0,0,0,3.72,19.56Z" style="fill:#766d68;fill-rule:evenodd"/><path d="M61.37,95.83l-.47.53c-.93,0-.87-.77-1-1.34-.52-2.43-2.37-4.06-3.62-6.05-.27-.43-.64-.39-.81.18-.15.29-.34.51-.71.41a7.2,7.2,0,0,1-1.37-2.66,3.45,3.45,0,0,0-2.47-2.52c-.5.2-.63-.08-.67-.5a15.93,15.93,0,0,1,4.47-2.8c1.33.19,1.55.94.58,1.72-1.37,1.11-1.09,1.87.13,2.79A25.38,25.38,0,0,1,61,92.12C61.78,93.26,62.47,94.48,61.37,95.83Z" style="fill:#8b7e71;fill-rule:evenodd"/><path d="M46.53,66.55l1,0c-.2,2.41-.85,2.68-5,1.7,2.68,3.78,1.23,7.91,2.1,11.72a3.33,3.33,0,0,1-.1,1.43,1,1,0,0,1-.46.54c-.4-.08-.82-.18-.89-.65A28.57,28.57,0,0,1,42.62,74a4.56,4.56,0,0,0-.8-3.4,5.63,5.63,0,0,1-1-2.43c-.12-.72-.17-1.48.55-1.94a1.65,1.65,0,0,1,1.81.12c.49.28,1,.58,1.44.85C45.5,67.64,46.19,67.6,46.53,66.55Z" style="fill:#8b8078;fill-rule:evenodd"/><path d="M68.69,180.26l-.53.47A4.46,4.46,0,0,1,67,178.26c-1,.54-1.19,2.21-2.73,2l-.1-.32c.31-1.5,1.52-2.54,2-4,1-3,.33-3.88-2.67-3.57a1.16,1.16,0,0,1-.67-.18,1.11,1.11,0,0,1-.21-.64c1.68-2.26,3-2.45,4.92-.58a3.8,3.8,0,0,0,2.83,1.37,1.18,1.18,0,0,1,.76.65c0,.94-.8,1-1.38,1.22s-.59.5,0,.78a1.3,1.3,0,0,1,.13.61A8,8,0,0,0,68.69,180.26Z" style="fill:#968d8d;fill-rule:evenodd"/><path d="M46.05,121.26v.48c-1.87,0-2-1.59-2.69-2.36-.05.92.83,1.82,1.32,2.89.92,2,2.29,3.82,1.84,6.2h-.47c-.13.22-.27.23-.4,0a23,23,0,0,0-1.87-4.64c-1.08-2-2.15-3.92-2.17-6.25,0-1.17-1-1.28-1.77-1.65-.18-.82.49-1,1-1.23a2.17,2.17,0,0,1,2.71,1.23c.75,1.28,1.68,2.44,2.33,3.77a5.15,5.15,0,0,1,.28.63l.09.33A.74.74,0,0,1,46.05,121.26Z" style="fill:#746d6c;fill-rule:evenodd"/><path d="M108.56,171.16a6.72,6.72,0,0,1-3.13,7.93,3,3,0,0,1-1.62.29,5.78,5.78,0,0,0-2.58.34c-.34-.12-.63-.28-.57-.72,1.12-1.39,1.17-2.51-.69-3.33-.62-.27-1.43-.77-1-1.62.47-1,1.36-.58,2-.19,1,.58,1.87.82,2.8-.1.42-.42,1-.62,1.45,0a1.51,1.51,0,0,1,.1,1.58c-.28.72-1.27,1-1.12,2,1.81-.13,3.08-1.57,3.35-3.74.11-.84-.3-1.77.41-2.52A.55.55,0,0,1,108.56,171.16Z" style="fill:#928a8a;fill-rule:evenodd"/><path d="M6.15,22l1-.06c1,.2,1.37,1,1.84,1.76A44.33,44.33,0,0,0,22.09,36.43c.53.45,1.1.88,1,1.7l-.61.65A15.9,15.9,0,0,0,18.93,36C13.55,32.31,9.61,27.36,6.15,22Z" style="fill:#a09696;fill-rule:evenodd"/><path d="M24.95,149.64l0-.57A52.3,52.3,0,0,1,36.83,139a.5.5,0,0,1,.63,0c.21,1.29-.82,1.78-1.59,2.41-1.89,1.56-4.06,2.75-5.77,4.56a17.14,17.14,0,0,0-3.59,5.27c-.3.74-.74,1.71-1.63,1.38-1.07-.39-.41-1.3-.13-2,.08-.32.6-.28.57-.69A.54.54,0,0,1,24.95,149.64Z" style="fill:#82787b;fill-rule:evenodd"/><path d="M83.5,127v2.08a2.63,2.63,0,0,1-.1-3.61,6,6,0,0,1,1.92-1.78,7.73,7.73,0,0,0,2.14-1.89,4.4,4.4,0,0,0,1.05-4.16c-.35-1.55-1.43-3-.92-5a4.36,4.36,0,0,1,1.68,3.83c.59,2.07.93,4.1-.94,5.77a1.09,1.09,0,0,0-.47.49v0a1.15,1.15,0,0,0-.51.49l0,0a2.52,2.52,0,0,0-.52.44l0,0a1.17,1.17,0,0,1-.44.34.39.39,0,0,1-.36.19,1.1,1.1,0,0,0-.61.44h0a5.35,5.35,0,0,1-.49.41l-.06,0a1.44,1.44,0,0,1-.43.43l0,0-.41.52v0C83.65,126.3,83.82,126.79,83.5,127Z" style="fill:#726f6e;fill-rule:evenodd"/><path d="M38.88,179.89a1.21,1.21,0,0,1,.41-.15,2.77,2.77,0,0,1,1.36-.6,27,27,0,0,1-4.73-.2c-1-.16-2,0-2.89-.52a2,2,0,0,1,1.28-.94c3.43.43,6.89-.34,10.31.32a3,3,0,0,0,2.54-.25c.72-.47,1.38-.41,1.74.48s-.14,1.37-.84,1.71a5.67,5.67,0,0,1-2.08.53c-2.14.13-4.25.73-6.42.49C39.16,180.58,38.8,180.4,38.88,179.89Z" style="fill:#7f7374;fill-rule:evenodd"/><path d="M46.51,59.86l-2.77-1c-.52.73.1,2-1.13,2.33a1.06,1.06,0,0,1-.71-.69,9,9,0,0,1,.37-4.85c.7-1.58-.23-2.86-.72-4.23a1.06,1.06,0,0,1,.61-.82,2.49,2.49,0,0,1,1.39.24c1.08.49,2.37,0,3.4.7.14.21.2.49,0,.63C43.53,55,43.54,56,47,58.89c.06,0,.07.14.11.21C47.15,59.53,46.83,59.69,46.51,59.86Z" style="fill:#969696;fill-rule:evenodd"/><path d="M111.32,159.18c.45,2.41,1.46,4.66,2.14,7a7.45,7.45,0,0,1,.22,3.28c-.25,1.57-1.21,2-2.53,1.06a19.83,19.83,0,0,1-1.78-1.54.44.44,0,0,1-.15-.4c0-.14.06-.21.09-.21a3.77,3.77,0,0,1,2.64.44c.48-1.67-.13-3.11-.66-4.57-.6-1.62-1.51-3.22-.58-5A.48.48,0,0,1,111.32,159.18Z" style="fill:#828385;fill-rule:evenodd"/><path d="M41.28,61.21a3.48,3.48,0,0,1-2.54-2A2.71,2.71,0,0,0,36,57.41a2.39,2.39,0,0,1-2.52-1.81,4.22,4.22,0,0,0-1.83-2.14c-.7-.51-1.55-.88-1.82-1.81a.72.72,0,0,1,.74-.6c3.17,2.95,7.19,4.85,10.11,8.12a3,3,0,0,1,.85,1.42A1,1,0,0,1,41.28,61.21Z" style="fill:#9d9090;fill-rule:evenodd"/><path d="M85.93,58.36C84.76,57,83.14,56.56,81.56,56c-.19-.36,0-.61.23-.86s.29-.33.42-.5c.66-1.07-.63-2.85,1.28-3.45a3.41,3.41,0,0,1,.21.92c-.17,2.69-.17,2.67,2.15,3.69,1.44.63,3,1,3.91,2.58a.67.67,0,0,1-.25,1.11c-1.08-.1-1.56-1.06-2.31-1.61-.17-.09-.29-.39-.54-.22-.07,0,0,.28-.07.44S86.26,58.52,85.93,58.36Z" style="fill:#928484;fill-rule:evenodd"/><path d="M78.22,53.53a4.18,4.18,0,0,0-4.76,3A8.86,8.86,0,0,1,70,61.19a4.21,4.21,0,0,1-2.84,1c-.29-.18-.63-.32-.54-.77A13.29,13.29,0,0,0,73,54.48a3.39,3.39,0,0,1,3.17-2.12,4.48,4.48,0,0,1,2,.55.45.45,0,0,1,.16.4C78.28,53.46,78.25,53.53,78.22,53.53Z" style="fill:#a19595;fill-rule:evenodd"/><path d="M89.31,172.6c-.3-1.35.2-2.85-.87-4.18a6.67,6.67,0,0,0-2.58,2.76,1.68,1.68,0,0,1-1,.44,3.42,3.42,0,0,0-.89.31c-.75.32-1.67,1.48-2.24.62-.69-1,.56-1.82,1.35-2.37,1.54-1.08,3.23-1.91,4.38-3.54.69-1,1.68-.73,2.26.36a6.49,6.49,0,0,1,.61,3C90.17,170.92,90.8,172.19,89.31,172.6Z" style="fill:#797778;fill-rule:evenodd"/><path d="M86.82,45.91a6.92,6.92,0,0,1,1,2.9c.3,1.91-.14,2.61-2.22,3.74-.56-1.18.4-2.1.49-3.14s-.54-2-.74-3a1.79,1.79,0,0,0-.45-.52h0c-.2-.85-.09-1.49,1-1.47h0c.24.28.16.73.49,1h0A5.29,5.29,0,0,0,86.82,45.91Z" style="fill:#807e7e;fill-rule:evenodd"/><path d="M38.88,179.89l.5.45c-.31,1.38-1.64.85-2.32,1.24,1.83.33,3.93-.65,5.76.74a.53.53,0,0,1-.37.6c-2.39,0-4.78,0-7.17,0-.42,0-.87.08-1.21-.26l-.5-.49c-.67-.64-.8-1,.26-1.52A11.18,11.18,0,0,1,38.88,179.89Z" style="fill:#8f8181;fill-rule:evenodd"/><path d="M83,180c0-.56-.16-1.19.42-1.61.61.2,1,.76,1.59,1,.89.34,1.93.71,2.64-.09s-.25-1.53-.7-2.2a3.43,3.43,0,0,1-.87-2.13.89.89,0,0,1,.37-.54c.9,1,1.85,1.93,2.68,3,1.2,1.5.74,3-1.09,3.68S84.53,181.07,83,180Z" style="fill:#a19393;fill-rule:evenodd"/><path d="M64.87,45.85l-.56.5c-2.5-2.18-2.65-4.12-.48-6.44,1.63-1.75,3.36-3.37,5.77-4,.33.13.63.28.55.72-.74,1-1.95,1.35-2.9,2.06C64,41.12,63.67,42,64.87,45.85Z" style="fill:#a29898;fill-rule:evenodd"/><path d="M38.45,33.37c2.22-.22,2.22-.22,1.87-2.39a5.21,5.21,0,0,1,0-2.37c.4-.51-.12-1.53.92-1.69a1.73,1.73,0,0,1,1.52.74,1.62,1.62,0,0,1-.25.88c-1.29,2.68-1,3.57,2.12,5.6C43,35.75,40.93,35.71,37.9,34,37.76,33.53,37.83,33.22,38.45,33.37Z" style="fill:#8d7c7c;fill-rule:evenodd"/><path d="M80.66,38.19l.44.2a.73.73,0,0,1,.42.34l0,0a1.72,1.72,0,0,1,.43.44.38.38,0,0,1,.15.33,1,1,0,0,1,0,.64.84.84,0,0,1-.6.22,4.5,4.5,0,0,0-1.28-.26c-.55,0-1.07-.24-1.59-.28,1.1.42,2.48.18,3.4,1.18l0,.07a.53.53,0,0,1-.2.73c-1.76.71-3.44,0-5.13-.35-.85-.16-1.76-.56-1.71-1.67s1-1.53,2-1.69A12.43,12.43,0,0,1,78.67,38,5.52,5.52,0,0,1,80.66,38.19Z" style="fill:#8f7676;fill-rule:evenodd"/><path d="M34,178a1.35,1.35,0,0,1-1,.45c-2.15,0-4.3-.06-6.45-.05a17.9,17.9,0,0,1-5.43-.53q0-.23,0-.46c2.48-1.39,5.16-.47,7.74-.63C30.64,176.64,32.53,176.62,34,178Z" style="fill:#876264;fill-rule:evenodd"/><path d="M26.89,94.46l.51.46c.18.71-.39,1.13-.65,1.66a2.89,2.89,0,0,0-.27,1.49,7.3,7.3,0,0,0,1.94,6.19.83.83,0,0,1,0,.67c-1.89.07-2.61-1.23-3.09-2.72-.71-2.2-.08-4.38.28-6.55A1.58,1.58,0,0,1,26.89,94.46Z" style="fill:#959090;fill-rule:evenodd"/><path d="M89.31,172.6c.79-.87.25-2,.47-2.92,1.23.26,1,1.32,1,2.1A5,5,0,0,0,94.11,177a2.39,2.39,0,0,1,1.52,1.42c-.07.44-.26.71-.76.5A8.27,8.27,0,0,1,92.7,178,5.13,5.13,0,0,1,89.31,172.6Z" style="fill:#807f82;fill-rule:evenodd"/><path d="M37.41,139l-.58,0a29,29,0,0,1,8.73-7.17l.51.55C43.32,134.76,41,137.77,37.41,139Z" style="fill:#918084;fill-rule:evenodd"/><path d="M27.87,20.82c.81,1.41.26,3,.44,4.45.12,1,.24,2.06.33,3.08a2.14,2.14,0,0,0,2,2.23.46.46,0,0,1-.13.67,4.06,4.06,0,0,1-4.1-.51.85.85,0,0,1,0-1.05c1.27-2,.49-4.25.54-6.39C27.22,22.44,27.05,21.46,27.87,20.82Z" style="fill:#8f8686;fill-rule:evenodd"/><path d="M54.77,89.55l.42-.46c2.54,1.14,3.16,3.69,4.18,5.89.45,1,1.39,2,.55,3.27h-.54C57.9,95.31,56.51,92.34,54.77,89.55Z" style="fill:#928c86;fill-rule:evenodd"/><path d="M82,41.67l0-.58c2,.34,2.76,2,3.84,3.35-.56.33-.69,1-1,1.47-1.53-.33-3.13-.39-4.47-1.36a1.06,1.06,0,0,1,.65-.74,12.19,12.19,0,0,1,2.45.21C83.28,43,81.81,42.84,82,41.67Z" style="fill:#a49595;fill-rule:evenodd"/><path d="M89.35,61.88A5,5,0,0,1,84.24,63a3.14,3.14,0,0,1-.87-.76.79.79,0,0,1-.19-.87c.2-.43.55-.43,1-.31a6.05,6.05,0,0,0,1.16.1c.36-.17.57,0,.75.29.1.72.52.48,1,.35.76-.23,1.41-.95,2.33-.57A.73.73,0,0,1,89.35,61.88Z" style="fill:#8c8383;fill-rule:evenodd"/><path d="M109.41,168.31l0,.68c-.51-.11-.89,0-.87.61s0,1,.07,1.56l-.62,0c-.7.21-1-.31-1.36-.73a5.65,5.65,0,0,1-.39-.57l-.16-.31a1.08,1.08,0,0,1,0-.69l.22-.28c1.6-.92,1-2.49,1.15-3.84.11-1-.29-2.51.93-2.55,1,0,.73,1.51.79,2.41a14.63,14.63,0,0,0,.28,2.59,2.75,2.75,0,0,1,.09.72C109.44,168.07,109.42,168.19,109.41,168.31Z" style="fill:#6f7072;fill-rule:evenodd"/><path d="M28.29,11.35l.47-.4a12.61,12.61,0,0,1,1.21.59c.31.19.7.47.58.88s-.7.44-1.14.42a6.53,6.53,0,0,0-1.12.34.67.67,0,0,1-.4.09,1,1,0,0,0-.51.57.33.33,0,0,1,0,.29.75.75,0,0,1-.15,1.12c-.35.07-.54-.14-.71-.4a1.7,1.7,0,0,0-.57-.56,8.13,8.13,0,0,1-.8-.3.76.76,0,0,1-.35-.49c.28-1,.81-1.78,2-1.75l.06,0a1.28,1.28,0,0,0,.44.25l.18.18c.21.4.19-.07.2-.08.17-.27,0,.12.12-.16S28.13,11.58,28.29,11.35Z" style="fill:#867370;fill-rule:evenodd"/><path d="M30.67,31.14q0-.28,0-.56a2.13,2.13,0,0,1,1.38.31,24.92,24.92,0,0,0,6.4,2.49l-.55.47C35.7,34.69,32.25,33.4,30.67,31.14Z" style="fill:#a28d8d;fill-rule:evenodd"/><path d="M41.27,27.17c-.64.27-.35,1.13-.92,1.44a2.85,2.85,0,0,0-.72-2.16,3.43,3.43,0,0,1-.79-1.67c-.13-1.39.62-2,2-1.59a5.3,5.3,0,0,1,1,.58l-.55.52C40.48,25.25,41.43,26.21,41.27,27.17Z" style="fill:#978a7f;fill-rule:evenodd"/><path d="M92.13,112.27c.8,0,1.6-.1,2.39-.08,1.93,0,3.84,0,5.53-1.15.46-.31,1.08-.6,1.53-.08s.19,1.18-.31,1.67c-.87.06-1.79-.18-2.56.46a3.62,3.62,0,0,1-2.37.38c-1.3-.43-2.72,0-4-.57A.47.47,0,0,1,92.13,112.27Z" style="fill:#9a8e8e;fill-rule:evenodd"/><path d="M111.32,159.18h-.48a1.2,1.2,0,0,1-.88-1c-.14-2.2-1.29-4.07-1.92-6.11l.42-1c1.66,1.13,2.2,2.85,2.47,4.71.37.8,0,1.69.31,2.49Z" style="fill:#887f82;fill-rule:evenodd"/><path d="M66.61,61.68l.53.49a13,13,0,0,1-5.12.2,8.32,8.32,0,0,0-2.54.25.81.81,0,0,1-.22-.68,1.18,1.18,0,0,1,.41-.61C62.07,59.68,64.32,61.07,66.61,61.68Z" style="fill:#9f8383;fill-rule:evenodd"/><path d="M86.46,174.4l-.12.84c-.76.77-.85,2.22-2.33,2.26l-.49-.55A18,18,0,0,1,85,171.17h.89A8.1,8.1,0,0,0,86.46,174.4Z" style="fill:#878487;fill-rule:evenodd"/><path d="M98.83,112.57c.83-.91,1.64-1,2.43.05-1,1.39-1.71,3-3.39,3.8a.79.79,0,0,1-.62-.67C97.31,114.46,99.14,114,98.83,112.57Z" style="fill:#a4a6a6;fill-rule:evenodd"/><path d="M40.8,115.2l-.94.73a2.76,2.76,0,0,1-.91-2.35,5.73,5.73,0,0,0-1.11-3.3c-.16-.52.16-.67.58-.75C41,110.69,40.27,113.2,40.8,115.2Z" style="fill:#999696;fill-rule:evenodd"/><path d="M28.77,7.44A1.3,1.3,0,0,0,27.7,7c1.41-.79,2.77-.1,4.13.16A.58.58,0,0,1,32,8.23a5.59,5.59,0,0,1-2.26,1.22l0-.58C29.72,8.17,29.14,7.87,28.77,7.44Z" style="fill:#867370;fill-rule:evenodd"/><path d="M82.1,41c-1.65-.44-3.43-.31-5.16-1.12,1.25-1.32,2.5-.42,3.69-.23.24.31.66.19.94.41A.88.88,0,0,0,82,40a.25.25,0,0,1,.4,0Z" style="fill:#bccaca;fill-rule:evenodd"/><path d="M83.49,51.18c-.73.61-.33,1.45-.46,2.18s.34,1.59-.55,2.1c-1.08-2.11-.17-4.68-1.54-6.73a.79.79,0,0,1,.6-.84A4.88,4.88,0,0,1,83.49,51.18Z" style="fill:#a8a6a6;fill-rule:evenodd"/><path d="M74.87,35.8a8.55,8.55,0,0,1,2.85,1,.45.45,0,0,1-.15.65,7.21,7.21,0,0,1-3.28.42c-1.16,0-1.3-.66-1-1.59a1.62,1.62,0,0,1,.48-.58A1,1,0,0,1,74.87,35.8Z" style="fill:#8d7b7b;fill-rule:evenodd"/><path d="M3.72,19.56c.71-.13,1,.24,1.06.9.23.3.25.71.49,1l.5.48a4.35,4.35,0,0,1-.53.44c-.67.4-1.5.89-2.12.25s.07-1.4.6-1.91S4.1,19.95,3.72,19.56Z" style="fill:#8c8d84;fill-rule:evenodd"/><path d="M94.87,179l.61-.53.27-.21.34,0a6.16,6.16,0,0,1,1,.2c1.16.49,2.56,0,3.61.92l.53.42C98.94,180.91,96.9,180,94.87,179Z" style="fill:#908787;fill-rule:evenodd"/><path d="M53.77,30.58c-.93-.84-.42-1.9-.45-2.88a1.88,1.88,0,0,1,.4-.49l0,0,.92.47C55.63,29,54.52,29.74,53.77,30.58Z" style="fill:#6f6c6c;fill-rule:evenodd"/><path d="M50.39,83.88l.54.48c-2.6.91-3.65.61-5-1.43a1,1,0,0,1,.59-.37,2,2,0,0,1,.7.09C48.16,83.39,49.55,82.92,50.39,83.88Z" style="fill:#9e8685;fill-rule:evenodd"/><path d="M78.22,53.53q0-.23,0-.46a.46.46,0,0,1,.13-.61,3.47,3.47,0,0,1,3.79,3l-.55.52C80.4,55.23,79.72,53.82,78.22,53.53Z" style="fill:#a29494;fill-rule:evenodd"/><path d="M38.44,109.71l-.6.57c-1.22-1.38-1.11-3.29-1.91-4.84.25-.49.58-.79,1.15-.46A8.14,8.14,0,0,1,38.44,109.71Z" style="fill:#afa6a6;fill-rule:evenodd"/><path d="M34.91,182.75l7.82-.1a1,1,0,0,1,1.43.07c-1,.76-2.12.47-3.18.5-2,0-3.92,0-5.89-.07A.26.26,0,0,1,34.91,182.75Z" style="fill:#718d8d;fill-rule:evenodd"/><path d="M81.09,44.13l-.64.42-4.75-1.45a1.21,1.21,0,0,1,.72-.86C78.25,42.22,80,42.27,81.09,44.13Z" style="fill:#b08585;fill-rule:evenodd"/><path d="M37,105l-1.08.44c-.87-.63-1.91-.29-2.86-.5a.52.52,0,0,1,.16-.7c1.5-.52,3-1,4.59-.32.52.24,1,.75.59,1.32S37.44,105.34,37,105Z" style="fill:#9c6d6d;fill-rule:evenodd"/><path d="M85.89,61.74l-.57-.55a1.92,1.92,0,0,0,.61-2.83l.46-.48a.56.56,0,0,1,.71.08C88.26,60.31,88,61.06,85.89,61.74Z" style="fill:#9f9a9a;fill-rule:evenodd"/><path d="M33.11,104.52q0,.21,0,.42c-1.57,1-3.14.26-4.7,0l-.06-.49A4.06,4.06,0,0,1,33.11,104.52Z" style="fill:#bc7878;fill-rule:evenodd"/><path d="M26.87,15.17c.4-.23.42-.63.5-1,.77,1.74.25,3.57.38,5.35a.5.5,0,0,1-.69-.19C26.51,18,25.8,16.61,26.87,15.17Z" style="fill:#898a85;fill-rule:evenodd"/><path d="M74.83,49.12l-.58-.44a6.42,6.42,0,0,1,3.53-1.24c.3.29,1.07-.07,1,.73A3.8,3.8,0,0,1,74.83,49.12Z" style="fill:#a69d9d;fill-rule:evenodd"/><path d="M35.9,178.94h5.72l.1.27-2.44.53C38.33,178.76,36.89,179.78,35.9,178.94Z" style="fill:#a9bdbd;fill-rule:evenodd"/><path d="M30.24,51.14l-.43.5c-1.12-1.73-.79-3.49-.08-5.26h.45C30.88,48,30.55,49.55,30.24,51.14Z" style="fill:#827f7f;fill-rule:evenodd"/><path d="M55.7,182.29q0,.18,0,.36a19.78,19.78,0,0,1-6.45.14.23.23,0,0,1-.24-.09.49.49,0,0,1,.18-.75C51.38,181.38,53.58,181,55.7,182.29Z" style="fill:#c16c6c;fill-rule:evenodd"/><path d="M49.23,182.78l6.45-.14.55.14A11.42,11.42,0,0,1,49.23,182.78Z" style="fill:#83b2b2;fill-rule:evenodd"/><path d="M77.72,37.33c0-.16,0-.32,0-.48a3.71,3.71,0,0,1,2.94,1.34,2.53,2.53,0,0,1-1.58.47C78.67,38.17,77.61,38.35,77.72,37.33Z" style="fill:#9d8b8b;fill-rule:evenodd"/><path d="M59,66.06a1.13,1.13,0,0,0-.51,1c-1.42-.5-1.53-1.64-1.44-2.89l.58-.59A3.67,3.67,0,0,1,59,66.06Z" style="fill:#958e85;fill-rule:evenodd"/><path d="M89.35,61.88,89.2,61a1.14,1.14,0,0,1,.13-1.73c.37-.22.38-.59.42-1A2.48,2.48,0,0,1,89.35,61.88Z" style="fill:#a4a1a1;fill-rule:evenodd"/><path d="M97.39,116l.48.46a3.84,3.84,0,0,1-2.89,1l0-.56C95.48,115.63,96.42,115.75,97.39,116Z" style="fill:#8f9090;fill-rule:evenodd"/><path d="M74.87,35.8l-1,.06a2.79,2.79,0,0,1-3.08.19l-.26-.32A4.57,4.57,0,0,1,74.87,35.8Z" style="fill:#cd7c7c;fill-rule:evenodd"/><path d="M69.55,44.41,69,44c.07-1.23.84-1.4,1.85-1.22a1.12,1.12,0,0,1,.69.85Z" style="fill:#b19c9c;fill-rule:evenodd"/><path d="M78.79,47.9c-.36-.11-.77-.1-1-.47,1.29-.12,2.61-.58,3.77.44l-.52.43A2.21,2.21,0,0,1,78.79,47.9Z" style="fill:#9d6565;fill-rule:evenodd"/><path d="M27.35,19.5h.39l.13,1.31c-.18.83.19,1.75-.4,2.52A2.73,2.73,0,0,1,27.35,19.5Z" style="fill:#848383;fill-rule:evenodd"/><path d="M76.28,42.62l-.58.49L73.5,43c-.63.24-1.17.35-1-.65A3,3,0,0,1,76.28,42.62Z" style="fill:#ab5a5a;fill-rule:evenodd"/><path d="M48.89,182.27a1.67,1.67,0,0,0,.09.42l-3,0a.61.61,0,0,1,.1-.65C47.12,181.25,48.07,181.13,48.89,182.27Z" style="fill:#707575;fill-rule:evenodd"/><path d="M60.48,180.73a2.75,2.75,0,0,1,0-.38,2.88,2.88,0,0,1,3.84,0l0,0C63.1,181.26,61.76,180.7,60.48,180.73Z" style="fill:#8f6767;fill-rule:evenodd"/><path d="M59.41,69.89c-.82-1.2-.23-2.56-.39-3.83C59.9,67.26,59.32,68.61,59.41,69.89Z" style="fill:#958e85;fill-rule:evenodd"/><path d="M46.06,182.27a1.82,1.82,0,0,1-.05.37l-1.85.08-1.43-.07-.06-.26C43.76,181.25,44.89,181.36,46.06,182.27Z" style="fill:#ab6767;fill-rule:evenodd"/><path d="M84,100.64a2.41,2.41,0,0,1,0,.41l-3.22.21-.1-.66A2.5,2.5,0,0,1,84,100.64Z" style="fill:#8c5958;fill-rule:evenodd"/><path d="M46.58,82.84l-.64.1c-.75-.09-1.68.17-1.89-1l.15-.13a9.8,9.8,0,0,1,1.72-.17,1.33,1.33,0,0,1,.59.1.93.93,0,0,1,.28.52A.9.9,0,0,1,46.58,82.84Z" style="fill:#8b8078;fill-rule:evenodd"/><path d="M59.46,62.12l0,.51L58,63.05c-.41-.41-1-.26-1.45-.37.17-1.13,1.08-.92,1.83-1A2,2,0,0,1,59.46,62.12Z" style="fill:#a47f7f;fill-rule:evenodd"/><path d="M72.43,67.68a2.89,2.89,0,0,1-2.86-.05A5.77,5.77,0,0,1,72.43,67.68Z" style="fill:#b25f5c;fill-rule:evenodd"/><path d="M72.44,42.71,73.5,43a2.63,2.63,0,0,1-1.93.53L71,43.07C71.41,42.61,71.79,42.13,72.44,42.71Z" style="fill:#957b7b;fill-rule:evenodd"/><path d="M46.51,59.86l.49-.52c.39-.17.52,0,.56.39-.62.32-.38,1.19-1,1.53Z" style="fill:#7d7472;fill-rule:evenodd"/><path d="M111.23,158.23c-.61-.77-.36-1.64-.31-2.49A3.31,3.31,0,0,1,111.23,158.23Z" style="fill:#a1a2ae;fill-rule:evenodd"/><path d="M45.52,64l.09,2C44.8,65.36,44.95,64.7,45.52,64Z" style="fill:#7d7472;fill-rule:evenodd"/><path d="M2.88,11.33,2,11.81,1.77,11l.14-.12C2.46,10.53,2.84,10.58,2.88,11.33Z" style="fill:#876d6d;fill-rule:evenodd"/><path d="M41.28,61.21v-.55a.7.7,0,0,1,.86.06l.49.44A1.84,1.84,0,0,1,41.28,61.21Z" style="fill:#856c6c;fill-rule:evenodd"/><path d="M92.13,112.27a2.27,2.27,0,0,0,0,.36,1,1,0,0,1-1.4,0h0q0-.23,0-.45Z" style="fill:#ac6767;fill-rule:evenodd"/><path d="M45.66,128.46h.4L46,130A2.08,2.08,0,0,1,45.66,128.46Z" style="fill:#83736f;fill-rule:evenodd"/><path d="M83.5,127a.9.9,0,0,1,.5-.95l-.22,1Z" style="fill:#777675;fill-rule:evenodd"/><path d="M45.65,66a.93.93,0,0,1,.88.5A.78.78,0,0,1,45.65,66Z" style="fill:#7d7472;fill-rule:evenodd"/><path d="M34.91,182.75c.06.13.12.27.18.4a.92.92,0,0,1-1-.48Z" style="fill:#fdfdfd;fill-rule:evenodd"/><path d="M86.4,45.41a.88.88,0,0,1-.49-1A1.07,1.07,0,0,1,86.4,45.41Z" style="fill:#a49595;fill-rule:evenodd"/><path d="M91.52,117a1,1,0,0,1,1.11.36A1,1,0,0,1,91.52,117Z" style="fill:#8f9090;fill-rule:evenodd"/><path d="M70.1,36.33l-.5-.41.93-.18,0,.13a.31.31,0,0,1,.18.29c0,.12,0,.18-.07.18A.42.42,0,0,1,70.1,36.33Z" style="fill:#9a6666;fill-rule:evenodd"/><path d="M46.48,61.61A.93.93,0,0,1,46,62.7,1.16,1.16,0,0,1,46.48,61.61Z" style="fill:#7d7472;fill-rule:evenodd"/><path d="M46,62.69a.94.94,0,0,1-.42,1A1,1,0,0,1,46,62.69Z" style="fill:#7d7472;fill-rule:evenodd"/><path d="M87.36,131.82a1,1,0,0,1-1-.41A.92.92,0,0,1,87.36,131.82Z" style="fill:#84736f;fill-rule:evenodd"/><path d="M28.28,13.19a1,1,0,0,1,1.12-.34A1.17,1.17,0,0,1,28.28,13.19Z" style="fill:#898a85;fill-rule:evenodd"/><path d="M64.33,46.38c.49.32.47.64,0,1Q64.33,46.86,64.33,46.38Z" style="fill:#a29898;fill-rule:evenodd"/><path d="M108.45,151a.57.57,0,0,1-.38-.62A.6.6,0,0,1,108.45,151Z" style="fill:#887f82;fill-rule:evenodd"/><path d="M82,39.19l-.43-.44A.42.42,0,0,1,82,39.19Z" style="fill:#9d8b8b;fill-rule:evenodd"/><path d="M86.86,123.65l.52-.44A.56.56,0,0,1,86.86,123.65Z" style="fill:#777675;fill-rule:evenodd"/><path d="M84.93,45.91a.56.56,0,0,1,.45.52Z" style="fill:#a49595;fill-rule:evenodd"/><path d="M86.82,45.91a.6.6,0,0,1-.42-.52A.59.59,0,0,1,86.82,45.91Z" style="fill:#a49595;fill-rule:evenodd"/><path d="M82.43,40.07h-.2L82,40l.12-.53A.51.51,0,0,1,82.43,40.07Z" style="fill:#9d8b8b;fill-rule:evenodd"/><path d="M81.52,38.73l-.42-.34A.4.4,0,0,1,81.52,38.73Z" style="fill:#9d8b8b;fill-rule:evenodd"/><path d="M87.86,122.75a.64.64,0,0,1,.48-.49A.59.59,0,0,1,87.86,122.75Z" style="fill:#84736f;fill-rule:evenodd"/><path d="M87.36,123.23a.68.68,0,0,1,.51-.49A.61.61,0,0,1,87.36,123.23Z" style="fill:#777675;fill-rule:evenodd"/><path d="M86.39,124l.44-.34A.44.44,0,0,1,86.39,124Z" style="fill:#777675;fill-rule:evenodd"/><path d="M27.37,13.86a.6.6,0,0,1,.51-.57Z" style="fill:#898a85;fill-rule:evenodd"/><path d="M85.42,124.63a.71.71,0,0,1,.61-.44A.73.73,0,0,1,85.42,124.63Z" style="fill:#777675;fill-rule:evenodd"/><path d="M84.92,125l.49-.41A.58.58,0,0,1,84.92,125Z" style="fill:#777675;fill-rule:evenodd"/><path d="M28.35,10.62A.72.72,0,0,1,29,10Z" style="fill:#867370;fill-rule:evenodd"/><path d="M29.27,9.79l.48-.35A.5.5,0,0,1,29.27,9.79Z" style="fill:#867370;fill-rule:evenodd"/><path d="M84.44,125.53l.43-.43Z" style="fill:#777675;fill-rule:evenodd"/><path d="M84,126.09l.41-.52A.6.6,0,0,1,84,126.09Z" style="fill:#777675;fill-rule:evenodd"/><path d="M96,178.35l-.52.08c-.92-.48-1.85-.95-2.76-1.45a4.5,4.5,0,0,1-2.53-4.29c0-1,.35-2.09-.41-3a4.39,4.39,0,0,0-.11-1.18c-.26-.71-.13-1.8-1-2-1-.24-1.08.94-1.48,1.54a4.82,4.82,0,0,1-2.24,1.68,6.21,6.21,0,0,0-3.23,2.8c1.14-.06,1.48-.88,2-1.34.41-.33.8-.52,1.21,0A8.46,8.46,0,0,1,83.52,177a8.94,8.94,0,0,1-.58.75c-.53.56-1.2.92-1.91.48s-.45-1.15-.3-1.75a4.25,4.25,0,0,0,.2-2.65c-.58,1.4-1.09,2.53-1.52,3.7a4,4,0,0,1-4.4,2.85c-3.81-.09-4.16-.5-2.87-4.19a6.24,6.24,0,0,1,.31-.65l.13-.31c1.5-2.16,1.44-3.38-.36-5.5-1.18-1.39-2.51-2.64-3.73-4-2.16-2.41-2.2-5.16-1.65-8.05a6,6,0,0,0,.29-2.2c.26,3-1.73,4.66-3.52,6.42-.5.54-.77,1.49-1.84,1.07-.85-3.86-1.57-7.77-4-10.69a20.51,20.51,0,0,1,3.6,9.87c.28,2.4.18,4.66-1.58,6.63-1,1.15-.45,2.15.81,2.81a2.33,2.33,0,0,1,.9.53,1.4,1.4,0,0,1,.13,1.33c-1.36,1.07-1.09,2.78-1.61,4.17a3,3,0,0,1-1.47,2.22c-.65,0-1.28.09-1.61-.68-1.7-4-5.39-5.44-9-7-.44-.19-.93-.27-1.35-.48-4.13-2.06-8.18-1.65-12.21.3-1.47.71-2.86.85-4.19-.37a3,3,0,0,0-2-.83,8.86,8.86,0,0,1-4.9-7.55c-.14-2,.19-3.94.1-6.19,0,.88,0,1.48,0,2.08a3.61,3.61,0,0,1-.1.66,5.34,5.34,0,0,0-.26,1.62A6,6,0,0,1,22.9,163c-.56,1.4-1.3,2.72-1.94,4.08-.84,1.77-.78,3.36.73,4.75a2.38,2.38,0,0,1,.63,1.14c.11,1.52,1.38,1.76,2.46,2.19,3.89.75,7.62-.46,11.4-.94,2.21-.28,4.14-.23,5.62,1.67.78,1,2.81.64,2.81,2.52a12.35,12.35,0,0,0-4.43-.1,7.19,7.19,0,0,1-4-.22A4.71,4.71,0,0,0,34,178c-4.29-.8-8.62-.48-12.94-.58-2.55-1.29-4.5-3.2-4.94-6.07-.95-6.24-.88-12.29,4.29-17,1.58-1.45,3-3.08,4.5-4.63l.39,0q.22.11.18.27c0,.12-.06.17-.1.17-.29.71-.78,1.37-.52,2.22.77,0,.84-.61,1-1.12A17.9,17.9,0,0,1,32.67,143c1.67-1.2,3.6-2.11,4.74-4A32,32,0,0,0,42,135.2c1.15-1.24,2.77-1.84,4.09-2.85a39.57,39.57,0,0,1,5.09-1.62c1.41-.25,1.67.15,1.6,1.33,0,.23,0,.47,0,.7.91,1.3-.14,2.21-.63,3.24-.3.63-.9,1.31-.33,2s1.46.44,2.22.16c1.59-.58,2.78-1.51,2.89-3.37a2.7,2.7,0,0,1,.61-2c-.1-1.3.67-2.48.51-3.79l.1-.36a1.32,1.32,0,0,1,.53-.48c4.86-.75,8.65,1.29,11.89,4.65,1.36,1.41.88,2.56-1,3.33,1.24,1.15,3.22.56,3.92,2.18-1.28,2.35-1.06,2.64,2.15,3a2.81,2.81,0,0,1,2,.61c1,.6,1,1.41.73,2.46s-.88,2.51.74,3.29c1.45,4.28,1.06,8.72,1.12,13.13,0,1.78-.29,3.61.55,5.36.52-.44.46-1,.71-1.52.68-2,1.87-3.86,2.28-6,.6-2.07,1.67-4,2.32-5.71-.3.47-.52,1.29-.88,2-.6,1.25-.86,2.83-3.17,2-1.52-.52-1.62-.06-1.74-1.87a24.35,24.35,0,0,0-1.21-7.46c.94-2.5,2.9-3.49,5.58-3.95-1.34,2.71-1.34,2.71-1.12,5.07.94-.1,1.49-.86,2.24-1.27s1.1-.39,1.44.5c.84,2.18,1.42,2.33,3.4,1.08.2-.13.4-.27.6-.39,1.7-1,2.41-.67,2.74,1.22.05.3,0,.63.28.87.14,0,.33.06.44,0,1.78-1.17,1.79-1.18,3,.4a3.9,3.9,0,0,0,1.09,1.24c.88.87.68,2,.82,3.08,0,.63-.15,1.26-.14,1.9s.05,1.08.06,1.32c-.29.58-.38.12-.1.28,0,0,.12,0,.13-.18,0-.33.07-.62.46-.71.84.4.74,1.14.67,1.86-.23.79-.3,1.62-.48,2.42.1,3.92-2.09,6.2-5.32,8-2.68,1.53-2.8,3.82-.67,5.39A3.18,3.18,0,0,1,96,178.35Z" style="fill:#a3a4b1;fill-rule:evenodd"/><path d="M46.57,81.92a2.59,2.59,0,0,1-.47-.06,1.72,1.72,0,0,1-1-.5,4.2,4.2,0,0,1-.6-.59,1.72,1.72,0,0,1-.31-.45c-.75-1.82-.51-3.74-.49-5.63s0-3.49-1.22-4.93a1.44,1.44,0,0,1-.26-.66c-.12-.59-.77-1.24-.15-1.75s1.16.2,1.69.46c2.3,1.1,2.81,1,3.82-1.23l.77,0a1.29,1.29,0,0,1,.61.43,4.82,4.82,0,0,1,.85,1.41c.24,1.28,1.11,1.42,2.13,1.36a2.56,2.56,0,0,0,2.35-2c.23-1.45.4-2.91.62-4.51.82.3,1.36,1,2.19.85l1.44,2.89q0,1.66,0,3.32A1.78,1.78,0,0,1,59,71c1.48,2.92,1.48,3.21-.13,8.07a3.21,3.21,0,0,0,2.08-3.42c-.12-2.16.53-3.32,2.53-4.62,6.55-4.28,11.4-2.65,16.37,1.79A17.2,17.2,0,0,1,84,78.54a12.85,12.85,0,0,1-.51,8.58,3.41,3.41,0,0,1-.43.54A1,1,0,0,0,83,88c-.45.24-.61-.08-.78-.39a2.58,2.58,0,0,1,0-1.37A3.25,3.25,0,0,0,82,84c-.9-2.14,0-4.56-1-6.35.93,1.9.33,4.15,0,6.39a20.22,20.22,0,0,1-4.53,7.22c-2.32,2.4-4.6,4.8-6,7.86v0l-.37.53c-.5,1.49-.89,3.07-2.74,3.54-.47.12-.93.31-1.28-.16s0-.77.17-1.08a7.41,7.41,0,0,0,1.44-3.69,9.24,9.24,0,0,1,3.72-7.61c.65-.5,1.29-1.07,1.09-2s-.86-.83-1.54-.63c-1.12.38-2.3.53-3.43.88a4.05,4.05,0,0,1-.92.33A1.77,1.77,0,0,1,65,88.38c-.33-.37-.71-1.16-1,0a11.58,11.58,0,0,0,0,3.21c.24,1.87.49,3.74.81,5.6.24,1.42.28,2.84-.89,4-1,2.08-1.21,2.17-3,1.42.11-.21.2-.44.32-.64a5.74,5.74,0,0,0,.14-6.08,5.38,5.38,0,0,0-1.31-4.13,27.47,27.47,0,0,0-5.93-6.39c-1.3-.93-1.18-1.5.22-2.5a4.76,4.76,0,0,0,.81-.49c.76-.84-.1-.82-.56-1a2.11,2.11,0,0,1-1.49-1c-.6-.63-1.44-.17-2.11-.48-2.59-.94-3.07-3.34-3.85-5.54a7.23,7.23,0,0,1,.21-4.16.25.25,0,0,0-.06-.22s-.14,0-.23,0a5.23,5.23,0,0,0-.23,6.94,2.88,2.88,0,0,1,.88,2.37c-.16.72-.63,1.37-.51,2.16C47.13,81.78,47,82,46.57,81.92Z" style="fill:#dcc39a;fill-rule:evenodd"/><path d="M33.11,104.52l-4.8-.08a4.69,4.69,0,0,1-2.39-4.83c.05-.55,0-1.11.06-1.67s.79-1,.37-1.63c.14-.62.7-.93,1.05-1.4,1.63-.29,3.13.43,4.7.6a10.16,10.16,0,0,1,4.56,5.06,3.22,3.22,0,0,0,1.44,1.55,9,9,0,0,1,3.64,4.33c.17.45.45.85.62,1.3a10.42,10.42,0,0,0,6,6.47c-1.12,3.41,0,6.35,2.39,9.39-2-.35-2.61-2.12-4.05-2.41a.75.75,0,0,1-.58-.46l0,0a1.16,1.16,0,0,1-.5-.57c-1-1.5-1.94-3-2.86-4.52a1.24,1.24,0,0,0-2-.47,1.74,1.74,0,0,1-.95-2,4.36,4.36,0,0,0-1.41-3.54A16.09,16.09,0,0,1,37,105h1.3c-.54-.86-1.23-1.19-2-.88C35.26,104.54,34.16,104.26,33.11,104.52Z" style="fill:#fefefe;fill-rule:evenodd"/><path d="M73.33,138.51c-.57-1-1.6-.89-2.51-1.08s-1.69-.32-2.6-.49c.12-1.11.87-1.43,1.71-1.76,1.31-.51,1.39-.77.47-1.78a13.84,13.84,0,0,0-11.85-4.89,1.78,1.78,0,0,0-.48.43v0a8,8,0,0,1-.06-5.78,1.07,1.07,0,0,1,.48.73,5,5,0,0,0,.31,1.62,2.09,2.09,0,0,0,.43.32,2.59,2.59,0,0,0,2-.37c1.9-.82,3.73-1.87,5.87-2,1.33.08,2.74-.34,3.93.64a9.75,9.75,0,0,0,3.85,4.68,12,12,0,0,1,3.3,4,4.09,4.09,0,0,1-1.26,6.31,4.22,4.22,0,0,1-2.06.51C74.18,139.49,73.38,139.52,73.33,138.51Z" style="fill:#545454;fill-rule:evenodd"/><path d="M58.11,124.06l-.1-.87c.21-1.28,1.09-2.28,1.5-3.47a.84.84,0,0,1,1.3-.57A16.66,16.66,0,0,0,68.06,121a2.61,2.61,0,0,1,1.9.86c.9,1.33.11,1.78-1.06,2-.74.13-1.54-.19-2.25.24-2,.29-3.8,1.33-5.69,2a3.2,3.2,0,0,1-2.42-.07h0C58,125.47,58.53,124.67,58.11,124.06Z" style="fill:#fafcfb;fill-rule:evenodd"/><path d="M74.9,139.08c3.29-.54,4.5-2.85,3.28-6.28.1-.43.09-1.05.8-.76a4.22,4.22,0,0,1,.89.74c1.76,1.44,2.74,1.4,4-.49.71-1.06,1-.55,1.5,0a3.69,3.69,0,0,1-2.54,4.26,6.5,6.5,0,0,0-3,2.55,10.72,10.72,0,0,1-2.06,2.26c-.73.47-1.54.17-2.31.21-.23-.07-.47-.11-.69-.19-.78-.3-2-.33-1.94-1.41C72.85,138.65,74.29,139.64,74.9,139.08Z" style="fill:#f8f9f9;fill-rule:evenodd"/><path d="M59.92,98.25a23.91,23.91,0,0,0-4.73-9.15c.07-.55-.54-1-.26-1.65a2.27,2.27,0,0,1,1.7,1c1.43,2.36,3.93,4.14,3.91,7.29,0,.19.24.39.37.58a6.11,6.11,0,0,1-.33,5c-.37.66-.73,1.2-1.57,1.2-.4-.66-.67-1.38.25-1.76C60.69,100.2,60.2,99.22,59.92,98.25Z" style="fill:#d2bc96;fill-rule:evenodd"/><path d="M54.17,131a1.74,1.74,0,0,0,.93.82,1,1,0,0,0,1.17,0h.18c1.39,3.33.18,6-3,6.74-1.37.32-2.44-.65-1.76-1.78a15.77,15.77,0,0,0,2.13-5.91S54,130.94,54.17,131Z" style="fill:#f5f5f5;fill-rule:evenodd"/><path d="M97.39,116l-2.38.86c-1.53-.09-1.53-.09-.47-1.88-1-.79-2.61-.48-3.29-1.78a12.27,12.27,0,0,1,5.17-.13c.87.21,1.58-.41,2.4-.46.51.09.88.22.58.89C98.95,114.47,97.95,115,97.39,116Z" style="fill:#edf1f1;fill-rule:evenodd"/><path d="M54.17,131a1,1,0,0,0-.42,1,5.31,5.31,0,0,1-1.35,4.14,3.08,3.08,0,0,0-.37.6,1,1,0,0,0,0,1.12c.31.45.76.44,1.26.29,1.81-.54,3.08-1.56,3.31-3.57a4.81,4.81,0,0,0-.14-2.79c.59,0,.65.7,1.1.9,0,.48,0,1,0,1.43.23,3.21-2.25,4.37-4.29,4.81a1.9,1.9,0,0,1-2.17-.57,2,2,0,0,1,.19-2.24c.61-1.09,1.58-2,1.47-3.43.88-.57,0-1.83.94-2.39A.78.78,0,0,1,54.17,131Z" style="fill:#817c7f;fill-rule:evenodd"/><path d="M66.64,124.12c.45-.6,1.13-.49,1.72-.48,1.25,0,1.65-.64,1.6-1.76a3.09,3.09,0,0,1,.87-2.14c1.24-1.17,2.42-2.39,3.76-3.73a1.52,1.52,0,0,1-.77,2.1c-2.53,1.3-3.07,3.46-2.81,6Z" style="fill:#6c6362;fill-rule:evenodd"/><path d="M96.43,113l-5.17.13-.56-.53h1.4C93.53,112.86,95.05,112.22,96.43,113Z" style="fill:#707c7c;fill-rule:evenodd"/><path d="M34.9,93.13a.43.43,0,0,1,.5.43c.07.49-.19.73-.66.75a.43.43,0,0,1-.49-.39C34.2,93.44,34.51,93.23,34.9,93.13Z" style="fill:#655c5b;fill-rule:evenodd"/><path d="M56.27,131.88c-.4.37-.79.46-1.17,0Z" style="fill:#817c7f;fill-rule:evenodd"/><path d="M99.32,155.83a6.05,6.05,0,0,1-.51-3.4c.85-.5,1.34,0,1.72.66a8,8,0,0,1,1.16,3.59c0,.65.29,1.05,1,1.06,1.13.62.59,1.68.64,2.57a14.93,14.93,0,0,0,.25,3.54,11.73,11.73,0,0,1,.23,2.1c0,1.61,2,1.87,2.19,3.35h0a2.81,2.81,0,0,1,.52.42h0a1.7,1.7,0,0,0,.5.42l.89,1a6.12,6.12,0,0,1-1.67,6.13c-.17.17-.32.35-.51.5-.82.66-2.07.81-2.35.23a1.68,1.68,0,0,1,.65-2.28,3.68,3.68,0,0,0,.9-.75.79.79,0,0,0,0-1.09c-.43-.37-.66.06-.94.34-1.22,1.29-1.22,1.26-2.85.26-.6-.36-1.4-1.41-1.94-.33-.38.76.87.89,1.44,1.18,2.37,1.23,2.4,2,.06,3.9a7.58,7.58,0,0,1-4.12-.56.8.8,0,0,1-.58-.39h0A13.22,13.22,0,0,1,94.05,176c-2.07-2.11-1.94-3.92.59-5.54,1.8-1.15,3.7-2.12,4.88-4a3.14,3.14,0,0,0,.3-1.73c0-.37,0-.74,0-1.12.32-1.12.09-2.31.41-3.43a2.6,2.6,0,0,0-.33-2.07C99.1,157.51,99.31,156.64,99.32,155.83Z" style="fill:#fefefe;fill-rule:evenodd"/><path d="M106,169.3c-1-.95-2.59-1.26-2.8-2.92a13.45,13.45,0,0,1,2-2.63,5.66,5.66,0,0,1,.55-1.68,11,11,0,0,0,.49-1.06c.27-.67,0-1.37.1-2.05a9.38,9.38,0,0,0-.14-3.18,2,2,0,0,1,.37-.93l.46-.52c1.49.29,1.62.5,1.95,3,.46-1.8-1.86-3.29-.93-5.33l0,0a7.48,7.48,0,0,1,2.29,5.08,6,6,0,0,0,.51,2.07,10.13,10.13,0,0,0,1.08,5.07c.81,1.82,1.33,3.7.41,5.68-1.28-.14-1.64-1.69-2.91-1.62h0c-.15-.18-.31-.33-.46-.5-1-1.65-.18-3.55-1-5.27,0,1.38,0,2.76,0,4.15C107.92,168.8,107.91,168.8,106,169.3Z" style="fill:#a1a2ae;fill-rule:evenodd"/><path d="M106.52,154.84v1c-.35.32-.23.79-.36,1.18-.38.7-.49,1.51-.93,2.19a.77.77,0,0,1-.53.14c-.91.45-.88,1.31-1,2.14s.24,1.91-.65,2.6a12.36,12.36,0,0,1-.28-4.48,4.06,4.06,0,0,0-.14-1.87A5.59,5.59,0,0,1,106.52,154.84Z" style="fill:#959aa3;fill-rule:evenodd"/><path d="M108,152c-.1,1.43,1,2.5,1.18,3.84.19,1.14.57,2.29-.63,3.39-.44-.86,0-1.56-.13-2.2-.24-1,0-2.31-1.44-2.7C107.28,153.53,107.33,152.63,108,152Z" style="fill:#717277;fill-rule:evenodd"/><path d="M75.31,141.35l2.44.06q0,.24,0,.47H75.36a.33.33,0,0,1-.15-.34C75.24,141.41,75.27,141.35,75.31,141.35Z" style="fill:#9a5556;fill-rule:evenodd"/><path d="M77.66,99.14a6.51,6.51,0,0,0-5.2.16A1.55,1.55,0,0,1,71,99.19h0c0-2.36,1.37-4,2.92-5.51a30.11,30.11,0,0,0,7-9.28c1.65-.67,1.54.41,1.45,1.46A4.21,4.21,0,0,0,82,87.26a2.57,2.57,0,0,1-.19.7,5.45,5.45,0,0,1-.9,1.65c-2.33,2.47-3.73,5.22-2.87,8.73A.83.83,0,0,1,77.66,99.14Z" style="fill:#f8f9f9;fill-rule:evenodd"/><path d="M84,100.64l-3.35,0c-.57-.71-1.55-1-1.95-1.88a5.94,5.94,0,0,1,2-8.54c.33-.18.92-.56.9.36-.54,1-1.11,1.94-1.61,2.94a3.5,3.5,0,0,0,1.18,4.78,2.67,2.67,0,0,0,2.73,0c.34-.2.68-.42,1-.64.5-.34,1-.54,1.49,0s0,1.05-.28,1.5C85.6,99.91,84.7,100.17,84,100.64Z" style="fill:#d5be97;fill-rule:evenodd"/><path d="M65.24,88.25l1.47.79c1.35.4,1,1.43.77,2.32-.62,2.6-.57,5.34-1.67,7.83-.2.69-.1,1.53-1,1.88-.19-4.27-1.45-8.47-.75-12.79A.7.7,0,0,1,65.24,88.25Z" style="fill:#f1f1f0;fill-rule:evenodd"/><path d="M81,84.75a10.74,10.74,0,0,1-2.59,4.73A35.57,35.57,0,0,1,75,93.14a14.23,14.23,0,0,0-4,6l-.53-.06A8.26,8.26,0,0,1,73.11,94c1.18-1.28,2.39-2.53,3.59-3.79,1.67-1.73,2.65-3.91,3.85-5.94C80.87,84.26,80.9,84.52,81,84.75Z" style="fill:#918780;fill-rule:evenodd"/><path d="M81.57,90.54c-2.42.76-4.29,4-3.58,6.17a6.31,6.31,0,0,1,.69,2l-1,.42a.62.62,0,0,0,0-.23,8,8,0,0,1,2.43-9.14,11.43,11.43,0,0,0,1.47-2.11,1.16,1.16,0,0,1,.91,0L83,88A5.78,5.78,0,0,1,81.57,90.54Z" style="fill:#998f7f;fill-rule:evenodd"/><path d="M71,87.59c.68-.63,1.28-.43,1.83.18a1.48,1.48,0,0,1,.35,1.73,2.76,2.76,0,0,1-.94,1.33c-2.58,1.57-3.46,4.16-4.16,6.86a2.58,2.58,0,0,1-.35.6l-.48-.51L67,97.57A10.07,10.07,0,0,1,70,91c.79-.76,1.78-1.52.87-2.83A.61.61,0,0,1,71,87.59Z" style="fill:#897d6e;fill-rule:evenodd"/><path d="M65.8,99.18c.31-2.74.27-5.54,1.17-8.2.23-.69.47-1.38-.26-1.94l.41-.43A2.86,2.86,0,0,1,69,88.47c-.06,2.68-1.36,5.08-1.78,7.68-.07.46-.3.9-.34,1.37l-.25.29C66.06,98.08,66.35,98.89,65.8,99.18Z" style="fill:#8e857a;fill-rule:evenodd"/><path d="M64.37,88.16a17.83,17.83,0,0,0,.17,5.25,45.32,45.32,0,0,1,.29,7.65l-.94.06c.71-2.55,0-5-.3-7.55A14,14,0,0,1,63.44,91a7.16,7.16,0,0,0,.15-2.07C63.63,88.42,63.67,87.95,64.37,88.16Z" style="fill:#86817b;fill-rule:evenodd"/><path d="M71,99.19l1.44.11C71.93,99.78,71.44,99.92,71,99.19Z" style="fill:#918780;fill-rule:evenodd"/><path d="M67.23,97.79c-.19.3-.38.34-.59,0l.08-.09c.14-.18.28-.19.41,0Z" style="fill:#8e857a;fill-rule:evenodd"/><path d="M70.12,99.68a.52.52,0,0,1,.37-.53Z" style="fill:#918780;fill-rule:evenodd"/><path d="M3.81,11.82l-.49-.42c0-1.2-.2-2.48,1.36-3,.74.39.55,1.7,1.88,1.7.24-.86-.8-2.13.57-2.72.41.09.61,0,.47-.48a1.38,1.38,0,0,1,2-.59c1,1,0,2.34.74,3.74A3,3,0,0,0,11,6.64c-.34-.77-1-1.48-.52-2.44L11,4.14c.34-.27.68,1.19,1,0l.48.56c.82,1.62,2,2.58,3.92,2,1.24-.39,2.12.95,3.33.7a6.72,6.72,0,0,1,2.32-3.71h.51a2.41,2.41,0,0,1,.38,2.68c-.73,1.63-2,3-2.27,4.87-.05.39-.64.36-1,.18-1.16-.81-1.28-3-3.4-2.56a4,4,0,0,1-1,.1c-2.53-.15-3.59,1.22-3,4a3.9,3.9,0,0,1,.58,1.21,2.18,2.18,0,0,1,0,.69,1.47,1.47,0,0,1-.83,1,1.1,1.1,0,0,1-.64-.1c-1.65-.53-1.68,1-2.28,1.81S8.18,19.44,6.94,19C6,18.62,4.89,18,5.06,16.81a4.17,4.17,0,0,1,1.57-3.09c.48-.34.69,1,1,0a.86.86,0,0,1,.53-.17l.57.08c.46-.11.64-.4.41-.81s-.64-.25-1-.13A20.4,20.4,0,0,1,3.81,11.82Z" style="fill:#8f6c6f;fill-rule:evenodd"/><path d="M19.62,10.89c.31.33.91.44.78-.06A2.77,2.77,0,0,1,21.2,8c1.41-1.24,1.4-2.73,1.36-4.31,1.83-.4,2.41-.12,2.54,1.5A2.67,2.67,0,0,0,26.37,7.5c.15.18.33.34.47.53a2,2,0,0,0,.09.46,1,1,0,0,1,.06.88l-.19,2.41a6.36,6.36,0,0,0-1.89,1.95,1.21,1.21,0,0,1-.27.6,2.32,2.32,0,0,1-.56.36c-.67.24-1.53.72-2.06.28-1.47-1.21-2.65-.16-3.92.27a8.48,8.48,0,0,1-1,.3,1.66,1.66,0,0,1-1.29-.18.75.75,0,0,1-.19-.59,6.53,6.53,0,0,0,1.76-2.83C18,11.31,18.55,10.52,19.62,10.89Z" style="fill:#dd878b;fill-rule:evenodd"/><path d="M22.05,3.66A3.83,3.83,0,0,1,20.7,5.94c-.37.42.32,1.52-.55,2.07-.53-.29-1.24-.41-1.24-1.23A7.46,7.46,0,0,1,19.51,5a1.29,1.29,0,0,0-.57-1.64c-.57-.37-1.23-.61-1.73,0-1.34,1.56-2.79,1-4.28.35-.6-1.67-.47-2.13.89-2.35,1.2-.2,2.44-.64,3.63.21a1.87,1.87,0,0,0,1.13.16C20.92,1.5,20.92,1.49,22.05,3.66Z" style="fill:#ce8286;fill-rule:evenodd"/><path d="M10.44,4.2a15.45,15.45,0,0,0,.64,1.53c1.28,2.34,1.18,3.09-.86,5.35a2.32,2.32,0,0,1-.81-2.91,5.28,5.28,0,0,0,.17-1.63C9.17,6,7.42,6.76,8.12,5.09,8.61,4.06,9.54,4.17,10.44,4.2Z" style="fill:#dc868b;fill-rule:evenodd"/><path d="M19.17,7c.22.43,1.18.14,1,1-.35.52-.79.43-1.2.11a3.69,3.69,0,0,0-3.44-.73c-1.87.47-2.92-.64-3-2.69l.5-.45C14.81,3.84,18.15,5.34,19.17,7Z" style="fill:#de878c;fill-rule:evenodd"/><path d="M19.17,7c-1-.63-1.72-1.62-3.11-1.46a1.91,1.91,0,0,1-1.62-.85A1.24,1.24,0,0,0,13,4.25l-.05-.58a.78.78,0,0,0,.22-.09c1-.84,1.55.58,2.35.42s1-1.45,1.91-1.67a2.47,2.47,0,0,1,2.37.84,1.53,1.53,0,0,1,.36,1.95C19.8,5.73,19.5,6.38,19.17,7Z" style="fill:#906c6f;fill-rule:evenodd"/><path d="M4.78,8.45c-1.14.66-.57,2.16-1.46,3a1.48,1.48,0,0,0-.44-.08,1.07,1.07,0,0,0-1-.47c0-3.09.92-4.66,3.34-5.5.44-.15,1-.4,1.22.18s-.38.76-.75,1a7.9,7.9,0,0,0-.36,1A3,3,0,0,1,5,8.29Z" style="fill:#de878c;fill-rule:evenodd"/><path d="M4.79,7.54a1.54,1.54,0,0,1,.92-1c.55.66,1,.5,1.5-.11.32-.43.41-1,.91-1.34C8,6.16,9.24,5.91,9.57,6.54a1.63,1.63,0,0,0-1.92,1h0c-2.18,1.16.19,2,.34,2.91-3,.86-3.14.74-3.21-2l0,0A.59.59,0,0,0,4.79,7.54Z" style="fill:#cf8085;fill-rule:evenodd"/><path d="M28.77,7.44l.46.05c.37,0,.89-.12,1.07.23.27.53-.45.72-.59,1.15l-1.33.05a1,1,0,0,1-.52-.58.31.31,0,0,0,0-.25,1.78,1.78,0,0,1,.46-.58A2,2,0,0,0,28.77,7.44Z" style="fill:#9ed986;fill-rule:evenodd"/><path d="M12,4.14c-.08.21-.11.55-.23.59-.47.14-.61-.28-.79-.59C11.32,3.63,11.66,3.66,12,4.14Z" style="fill:#bb7b7f;fill-rule:evenodd"/><path d="M28.29,11.35c.37.59.34,1-.48,1a.38.38,0,0,1-.47-.09h0A.3.3,0,0,1,27.2,12c0-.11.06-.17.09-.17A1.1,1.1,0,0,1,28.29,11.35Z" style="fill:#9dd385;fill-rule:evenodd"/><path d="M27,9.37l-.06-.88C27.33,8.76,27.37,9.05,27,9.37Z" style="fill:#867370;fill-rule:evenodd"/><path d="M27.29,11.81l0,.48-.49-.47Z" style="fill:#898a85;fill-rule:evenodd"/><path d="M27.86,8.33l.52.58A.67.67,0,0,1,27.86,8.33Z" style="fill:#867370;fill-rule:evenodd"/><path d="M28.31,7.51l-.46.57A.7.7,0,0,1,28.31,7.51Z" style="fill:#867370;fill-rule:evenodd"/><path d="M26.84,8l-.47-.53Z" style="fill:#867370;fill-rule:evenodd"/><path d="M47.55,59.73a.6.6,0,0,0-.56-.39,3.54,3.54,0,0,0-.57-.42c-2.79-1.27-2.79-1.27-2.34-4.17a2.53,2.53,0,0,0,0-.72c-.18-1.31.3-2,1.7-1.86a.87.87,0,0,0,1-.51c-1.16-.64-2.49.14-3.65-.46l-.93-.48c-2.16-.89-4.22-2-6.29-3.06-1-1.8-3.23-2.36-4.31-4.1l-.84-.61a4.25,4.25,0,0,1-2.87-2.88l-1.56-2.8c-.24-.28-.16-.71-.43-1h0c-1-1.12-1.46-2.61-2.29-3.87-.58-.89-1-2,.16-2.74s2-.2,2.6.83l4.28.63C33,32.31,35.11,34,37.9,33.84c1.25.27,2.5.5,3.73.82a2.89,2.89,0,0,0,3-.74l.24-.28c1.34-.64,2.68-1.08,4.06-.1,1,.71,1.5,1.94,2.43,2.76A11.91,11.91,0,0,0,49,33.52c-.29-.13,0,.07-.19-.14-.7-.7-2.47,0-2.39-1.38.1-1.59,1.91-.84,2.83-1.4.92-.36,1.64-1.08,2.53-1.51a.45.45,0,0,0,.15-.34c.56-.37.26-1.15.84-2.06,0,1.51,0,2.52,0,3.53a4.68,4.68,0,0,0,.57,2.51A9.15,9.15,0,0,1,54.67,37a2.63,2.63,0,0,0,.68,1.74c2.37,2.52,3.71,5.69,5.45,8.6l2,6.71c.45.35.25.82.25,1.25.15-.41,0-.87.2-1.26a13.59,13.59,0,0,0-.67-3.49c-.25-.93,0-1.38,1-1.31.54,0,1.17.24,1.25-.63,0-.47,0-1,.72-.93.46.07.43.58.52,1,.39,1.64.4,1.63,2.57,3A6.11,6.11,0,0,0,66,55.81c-.13.47-.34.95.17,1.28a.85.85,0,0,0,1.23-.35c.65-1.63,2.4-2.33,3-4.1s2.78-2.49,4.38-3.51a23,23,0,0,0,4-1.22,3,3,0,0,1,2.23.41c2,2.07,1.6,4.64,1.46,7.15h-.36c-1.05-1.27-2-2.67-3.91-2.74a3.48,3.48,0,0,1-1.86,0,3.72,3.72,0,0,0-3.13,2.18A16,16,0,0,0,72.16,57a6.56,6.56,0,0,1-4.51,4.15,7.52,7.52,0,0,0-1,.49c-1.4-.23-2.84.3-4.25-.66-.75-.51-1.82.63-2.82.74-.27.29-.68.15-1,.35-.65.25-1.45,0-2,.56l-2.67,0c-1.59-.12-3.35.33-4.41-1.42h0a4.28,4.28,0,0,1-.54-.4l0,0c-.19-.33-.72-.19-.85-.61l0,0a.74.74,0,0,1-.54-.48Z" style="fill:#fff;fill-rule:evenodd"/><path d="M52.25,63.2c0,.4,0,.8,0,1.2-.13,2.36-.42,2.5-2.42,1.21-.21-.34-.62-.22-.9-.4l-1.36-.13c-.51-.44-.4-.91-.08-1.4h0a6.08,6.08,0,0,0,.43-.5l0,0a1.79,1.79,0,0,0,.44-.45l0,0a1.8,1.8,0,0,0,.45-.44l0,0C50.35,61.48,51.34,62.21,52.25,63.2Z" style="fill:#f1f4f4;fill-rule:evenodd"/><path d="M52.25,63.2a4.52,4.52,0,0,0-3.33-1l.55-1a33.38,33.38,0,0,0,4.41,1.42Z" style="fill:#7d7472;fill-rule:evenodd"/><path d="M47.51,63.67l.08,1.4C46.82,64.65,46.87,64.18,47.51,63.67Z" style="fill:#7d7472;fill-rule:evenodd"/><path d="M48.95,65.2a.81.81,0,0,1,.9.4A1,1,0,0,1,48.95,65.2Z" style="fill:#7d7472;fill-rule:evenodd"/><path d="M48,60.19a1,1,0,0,1,.85.61C48.48,60.78,48.13,60.66,48,60.19Z" style="fill:#7d7472;fill-rule:evenodd"/><path d="M47.94,63.18a.57.57,0,0,1-.43.5Z" style="fill:#7d7472;fill-rule:evenodd"/><path d="M48.41,62.69a.49.49,0,0,1-.44.45Z" style="fill:#7d7472;fill-rule:evenodd"/><path d="M48.9,62.22a.51.51,0,0,1-.45.44Z" style="fill:#7d7472;fill-rule:evenodd"/><path d="M48.93,60.82a.54.54,0,0,1,.54.4A.62.62,0,0,1,48.93,60.82Z" style="fill:#7d7472;fill-rule:evenodd"/><path d="M47.55,59.75a.57.57,0,0,1,.54.48A.56.56,0,0,1,47.55,59.75Z" style="fill:#7d7472;fill-rule:evenodd"/><path d="M48.93,67l-.61-.43A.68.68,0,0,1,48.93,67Z" style="fill:#7d7472;fill-rule:evenodd"/><path d="M59,71l-.4-.57Z" style="fill:#958e85;fill-rule:evenodd"/><path d="M44.6,178.38c-.3-.79-1-.88-1.7-1.14-.91-.35-1.81-.49-2.31-1.73-.39-1-1.88-1-3-.86-2.58.36-5.14.88-7.73,1.19-1.94.23-3.94.62-5.82-.37-.16-.48.16-.67.51-.85,1.33-.41,2.73-.06,4.07-.41a1.4,1.4,0,0,1,1.05.3c1.11.18,2-.52,2.92-.87,1.86-.69,3.72-1.38,5.57-2.12a7.25,7.25,0,0,1,4.23-.17,29.58,29.58,0,0,1,10.3,4.24,11.83,11.83,0,0,1,3.66,4c.74,1.23.63,2.06-.67,2.69l-6.8,0a3.6,3.6,0,0,0-2.84,0,11.36,11.36,0,0,0-3.39.13H35.29a2.11,2.11,0,0,1,2.06-1.55,3.09,3.09,0,0,0,2-.51c2.75-.31,5.51-.6,8.25-1,1.16-.15,1.36-.53.88-1.32-.18-.3-.62-.54-.73-.29C47,179.67,45.74,178.63,44.6,178.38Z" style="fill:#fdfdfd;fill-rule:evenodd"/><path d="M58.59,179.77c.17-.8.88-1.37.92-2.23a5.42,5.42,0,0,0,1-2A9.2,9.2,0,0,0,61,174.1a1.59,1.59,0,0,1,.33-.51l.16-1.34a.85.85,0,0,1,1.31-.16c.52.11.9-.23,1.34-.4,1.88-.72,3.12.17,3,2.21a8.43,8.43,0,0,1-1.45,4.25c-.48.73-1,1.46-1.45,2.18a18.22,18.22,0,0,0-3.84,0Z" style="fill:#fcfcfc;fill-rule:evenodd"/><path d="M28.3,171.18a4.33,4.33,0,0,0,1.63,1.25c1.16.71.54,1.17-.19,1.63a16.9,16.9,0,0,1-2.39.65,7.51,7.51,0,0,1-1.78,0c-2.1,0-2.95-1.84-4.22-3a5.64,5.64,0,0,1,.67-6.95c.76-.7,1.46-.42,1.7.36C24.53,167.72,26.65,169.26,28.3,171.18Z" style="fill:#fafbfb;fill-rule:evenodd"/><path d="M28.3,171.18c-2.7-1.43-4.23-3.85-5.41-6.79-1.61,2.4-3.22,4.51-1.31,7.25q.22.19.14.37c-.05.12-.1.18-.15.18-1.64-1.18-2.16-2.29-1.66-3.91A23.39,23.39,0,0,1,22.44,163c1.09-.94.36-2.21.57-3.3.09-1.42-.43-3,.9-4.14.61.31.47.72.38,1.09a25.59,25.59,0,0,0-.22,7.61,7.18,7.18,0,0,0,2.33,4.34,9.48,9.48,0,0,1,1.89,2.14Q28.3,170.94,28.3,171.18Z" style="fill:#807f83;fill-rule:evenodd"/><path d="M27.24,174.47a4.28,4.28,0,0,1,2.5-.42q0,.23-.05.46l-.83.06A1.35,1.35,0,0,1,27.24,174.47Z" style="fill:#b67576;fill-rule:evenodd"/><path d="M70.1,36.33a1.06,1.06,0,0,0,.4-.07,5,5,0,0,1,3.38.12c0,.36-1.12,1,.1,1s2.5,0,3.75-.06c.33.56,1.25.52,1.35,1.32a8.09,8.09,0,0,0-2.82.17c-.44.14-.89.41-.92,1s.43.76.9.91a30.68,30.68,0,0,0,5.8,1c.89,1,2.35,1.52,2.79,3.21l-3.74-.75a8.91,8.91,0,0,0-4.81-1.52,11.79,11.79,0,0,0-3.85.09L71,43.07A1.84,1.84,0,0,0,69,44a4.59,4.59,0,0,0-2,1.63c-.65,1-1.4.8-2.21.27-2.17-2.53-2.07-3.85.38-6.2A27.42,27.42,0,0,1,70.1,36.33Z" style="fill:#fdfdfd;fill-rule:evenodd"/><path d="M63.24,54.07a6.39,6.39,0,0,1-.06,3.22c-1.21-1.05-.29-2.21-.4-3.22Z" style="fill:#7d7c7c;fill-rule:evenodd"/><path d="M67.58,54a3.79,3.79,0,0,1,.5-.78c.21-.2.58-.44.82-.22s.16.75-.18,1a6.89,6.89,0,0,1-1.06.52.34.34,0,0,1-.16-.33C67.51,54.05,67.54,54,67.58,54Z" style="fill:#d0dede;fill-rule:evenodd"/><path d="M67.58,54l.08.52-.33.2C67.14,54.37,67.33,54.17,67.58,54Z" style="fill:#c1c1c1;fill-rule:evenodd"/><path d="M46.53,128.46c-.7-3.43-2.89-6.3-4.23-9.93,2.21.63,2.3,2.64,3.76,3.21,1.64,1.12,3.53,2,3.84,4.32h0a3.12,3.12,0,0,0-.28,3.17c.36,1.19-.53,1.1-1.12,1.37s-1.25.35-1.49-.54C46.86,129.53,46.69,129,46.53,128.46Z" style="fill:#83736f;fill-rule:evenodd"/><path d="M50.29,126.06c1.17-.34,1.53,0,2,1.84.21.77.59,1.61-.58,1.95-.79.23-1.16-.33-1.47-.92A5.9,5.9,0,0,1,50.29,126.06Z" style="fill:#e6e7e7;fill-rule:evenodd"/><path d="M50.29,126.06q0,1.43,0,2.87c-.75-.87-.26-1.91-.4-2.86h.4Z" style="fill:#83736f;fill-rule:evenodd"/><path d="M46.09,120.74l.58.46-.62.06Z" style="fill:#83736f;fill-rule:evenodd"/><path d="M44.66,33.92c-3.15,0-3.08,0-3.44-3.13a3.13,3.13,0,0,1,1.46-3.15.43.43,0,0,1-.13-.36c0-.13,0-.19.07-.19.39-.42,1-.71,1-1.39l0-.92a.4.4,0,0,1,0-.48c.11-.11.21-.23.33-.34.93-.8,2.3-.21,3.15-.84s.74-1.89,1.56-2.59a5.19,5.19,0,0,1,.77-.55c1.4-.79,2-.44,2,1.19,0,.76-.09,1.33.91,1.11.52-.12,1-.2,1.09.46s-.88,1.92-1.48,1.82-1-.53-1.74-.41c0,1.74,1.72,3.14,1,4.94-.32,1-1.17,1.37-2,1.77-1.53.15-3.23,0-3.52,2.2-.06.44-.76.52-1.08.88Z" style="fill:#e68a8f;fill-rule:evenodd"/><path d="M42.72,27.23q0,.21,0,.41a2.81,2.81,0,0,1-1.41-.48c-.13-.19-.25-.4-.4-.58-1.1-1.34-1.1-1.34.39-2.3l1,.51C42.34,25.61,43.42,26.24,42.72,27.23Z" style="fill:#cbc383;fill-rule:evenodd"/><path d="M42.72,27.23c.15-.88-1.26-1.44-.51-2.44l1.4.92C44.3,26.89,44.24,27,42.72,27.23Z" style="fill:#ab9477;fill-rule:evenodd"/><path d="M49.36,30.49l1.87-1.4h.56A3.41,3.41,0,0,1,49.89,31C49.68,30.85,49.4,30.81,49.36,30.49Z" style="fill:#987f7f;fill-rule:evenodd"/><path d="M43.62,24.31l0,.48a2,2,0,0,1-.12-.36S43.56,24.35,43.62,24.31Z" style="fill:#ab9477;fill-rule:evenodd"/><path d="M27.35,19.5a11.67,11.67,0,0,0,.12,3.84,31.72,31.72,0,0,1,.3,5.42A1.12,1.12,0,0,1,26.92,30a13.1,13.1,0,0,0-1.37-.35c-.71-.21-1.47-.84-2.17,0a2.09,2.09,0,0,0,.16,2.64c.9,1.39,1.82,2.75,1.83,4.5a.87.87,0,0,1-.92,1c-.37.18-.62,0-.86-.25a5.28,5.28,0,0,1-.42-.5l-.2-.26a9.54,9.54,0,0,0-1.7-2.29c.42.6,1.09,1.06,1.08,1.89a1.08,1.08,0,0,1-.28.59,42.91,42.91,0,0,1-14-13.68c-.31-.46-.61-.93-.91-1.4.22-.76,1.16-.77,1.49-1.43l.18-.29a1.56,1.56,0,0,1,2.48.27c.73.89,1.15.63,1.82-.14,1.06-1.21,2.4-2.12,2.84-3.87a1.86,1.86,0,0,1,2.55-1.12c1.65,1,2.85.3,4.21-.38a10.68,10.68,0,0,0,1.75-.71l0,0c.28-.33.73-.27,1.07-.46l.79,0a1.14,1.14,0,0,1,.49.59l.06.82C26.55,16.67,27.34,18,27.35,19.5Z" style="fill:#fff;fill-rule:evenodd"/><path d="M42.13,60.71l-.86-.06a10.67,10.67,0,0,1-1.77-1.92c-.83-1.52-1.81-2.6-3.73-2.32a1.09,1.09,0,0,1-1.17-.7c-.65-2.32-2.92-3-4.37-4.58-.83-1.58-.12-3.17-.06-4.76a3.42,3.42,0,0,0,.59-1.79c1.74-.75,2.67.61,3.73,1.51.46.39.7,1,1.2,1.43,1.87.6,3.25,2.16,5.22,2.58a1.14,1.14,0,0,1,.76,1.11,4,4,0,0,1,1.11,4.7,4.55,4.55,0,0,0-.33,3.21C42.66,59.67,42.29,60.19,42.13,60.71Z" style="fill:#fdfefe;fill-rule:evenodd"/><path d="M25.38,36.82a26.9,26.9,0,0,0-2.45-4.52,2.6,2.6,0,0,1-.46-1.56c-.07-1.62.89-2.39,2.38-1.83A17.62,17.62,0,0,1,26.92,30l-.54.5c-.89-.06-1.84-1.21-2.59-.35s.26,1.84.75,2.68a6.66,6.66,0,0,1,1.35,3.45Z" style="fill:#9e9595;fill-rule:evenodd"/><path d="M29.72,44a5.23,5.23,0,0,1-1,.68c-1.48.63-2,.27-2-1.33,0-.7.1-1.41.16-2.11C28.79,41,29.71,42,29.72,44Z" style="fill:#f1f5f5;fill-rule:evenodd"/><path d="M25.13,41.51c-.81,0-1.75-1-1.58-1.74.24-1,1-1.07,1.86-1.05a1.15,1.15,0,0,1,1.17,1.23A1.55,1.55,0,0,1,25.13,41.51Z" style="fill:#dd858a;fill-rule:evenodd"/><path d="M35.47,47.87c-1.32-.86-1.94-2.52-3.57-3.05a2.37,2.37,0,0,0-1.13-.23c0-.54.67-.6.84-1,1.73.94,3.57,1.76,4.38,3.77A.63.63,0,0,1,35.47,47.87Z" style="fill:#a59d9d;fill-rule:evenodd"/><path d="M29.72,44a3.12,3.12,0,0,0-2.8-2.75c.07-.6.78-.66,1-1.16l2.88,2.88Z" style="fill:#a19999;fill-rule:evenodd"/><path d="M25.86,43.62a1.62,1.62,0,0,1-1.14,1.52.44.44,0,0,1-.37-.21,2.13,2.13,0,0,1,.7-2.09.52.52,0,0,1,.44-.07C25.85,42.89,25.86,43.22,25.86,43.62Z" style="fill:#cd8186;fill-rule:evenodd"/><path d="M23.91,37.2l.56.59a1.34,1.34,0,0,1-1.39.34l-1-1.16c0-.23,0-.47,0-.7.6-.18,1,.3,1.41.51l0,0A4.44,4.44,0,0,0,23.91,37.2Z" style="fill:#c9cdcd;fill-rule:evenodd"/><path d="M25.9,36.29a1,1,0,0,1,.43,1A.86.86,0,0,1,25.9,36.29Z" style="fill:#9e9595;fill-rule:evenodd"/><path d="M83,87.66l.43-.54Z" style="fill:#998f7f;fill-rule:evenodd"/><path d="M84,177.5a3.71,3.71,0,0,0,1.21-1.73c.24-.5.55-.76,1.12-.53l1.79,2.21c.46.57.9,1.14.57,1.93s-1.19.91-2,.93c-1.87,0-2.65-.42-3.27-1.94Z" style="fill:#f8f8f8;fill-rule:evenodd"/><path d="M68.69,180.26c-1.33-1.9-.22-3.35.89-4.79a.94.94,0,0,1,1.35.07c.5,1.31,0,2.59-.19,3.85S69.5,180.26,68.69,180.26Z" style="fill:#ecefef;fill-rule:evenodd"/><path d="M70.93,175.54l-1.35-.07a.4.4,0,0,0,0-.28c.76-1,1.71-.81,2.68-.41a.5.5,0,0,1,.17.73h0Z" style="fill:#9b5c5c;fill-rule:evenodd"/><path d="M53.72,27.21l-.4.49A.53.53,0,0,1,53.72,27.21Z" style="fill:#897070;fill-rule:evenodd"/><path d="M8.11,13.78c-.79.39-.13,1.14-.39,1.66-.93,0-.21-1.17-1-1.36-.63.68-.66,1.7-1.15,2.49a.65.65,0,0,0,.24,1c.63.3.94,1.08,1.74,1.17.85-.57,1-1.58,1.46-2.38a6,6,0,0,1,1.15-1.49c.29-.26.59-.65,1-.46s.3.82.35,1.26c.41.63,0,1.2-.12,1.79A2.82,2.82,0,0,1,11,18,10.62,10.62,0,0,1,8.61,20.5l0,0c-1.84.08-3.15-1.48-4.93-1.64-.4,0-.47-.7-.19-1,1.12-1.24,1.11-2.93,1.9-4.41-1-.15-1.82-.39-1.62-1.6A4.5,4.5,0,0,0,5,11.68c.89-.36,1.65-.45,2.18.58.27.52.66.15,1,.06A1,1,0,0,1,8.11,13.78Z" style="fill:#dc868b;fill-rule:evenodd"/><path d="M1.7,14.55c.6-.64,1.12-.92,1.77-.57.09,0,.16.34.11.39C3.08,14.88,2.47,14.74,1.7,14.55Z" style="fill:#96c580;fill-rule:evenodd"/><path d="M5.27,21.46c-.28,0-.61.37-.81,0s.23-.67.31-1C5.48,20.53,6,20.69,5.27,21.46Z" style="fill:#8ec07f;fill-rule:evenodd"/><path d="M46.57,81.92l.43-.48a3.9,3.9,0,0,1,.4-1.89L46.69,77c-1.58-2.42-1.59-4.92,0-6.76,1,.2.6,1,.53,1.53a5,5,0,0,0,.15,2.59c.76,2.3,1.15,4.89,4.24,5.34.56.11,1.22-.26,1.68.33s1.07.63,1.34,1.23a9.89,9.89,0,0,1-4.21,2.57c-1.18-.22-2.63.46-3.45-1a1.91,1.91,0,0,1-.3-.55A2,2,0,0,1,46.57,81.92Z" style="fill:#f2f4f3;fill-rule:evenodd"/><path d="M44.16,80.32l.46.23a1.8,1.8,0,0,1,.45.38,2,2,0,0,1,1,.93c-.64.9-1.26.37-1.88,0Q44.19,81.08,44.16,80.32Z" style="fill:#7e6764;fill-rule:evenodd"/><path d="M61.93,163.06l1.49-1.39c1.88-1.82,2.52-1.74,3.25.47,1,3,3.25,5,5.36,7.19.83.86,1.85,1.72.6,3a1.86,1.86,0,0,1-2.07.33c-1.06.32-1.93.74-2.85-.63-1.59-2.36-2.37-2.32-4.85-.45-.71.58-1.52.21-2.28.25a1.87,1.87,0,0,1-.62-3c1.26-1.68,1.47-3.58,1.7-5.51Z" style="fill:#fcfcfc;fill-rule:evenodd"/><path d="M72.45,175l-2.86.18c-.52,0-1,.63-1.61.11.4-1.64,2.07-1.44,3.12-2.11a2.14,2.14,0,0,1,2-.79C74.46,173.65,73.63,174.38,72.45,175Z" style="fill:#e4ecec;fill-rule:evenodd"/><path d="M72.92,172.61l-1.81.57-.56-.5,1.93-.55C72.89,172,73,172.21,72.92,172.61Z" style="fill:#846d6d;fill-rule:evenodd"/><path d="M60.48,171.45a6.32,6.32,0,0,0,2.37.15l0,.49-1.31.16-1-.14A.44.44,0,0,1,60.48,171.45Z" style="fill:#895a5a;fill-rule:evenodd"/><path d="M45.61,120.19a.79.79,0,0,1,.5.57A.69.69,0,0,1,45.61,120.19Z" style="fill:#83736f;fill-rule:evenodd"/><path d="M25.42,150.06a3.09,3.09,0,0,0-.09-.45C25.7,149.7,25.77,149.84,25.42,150.06Z" style="fill:#827e82;fill-rule:evenodd"/><path d="M35.47,47.87l.53-.54c1,.27,2.06.29,2.74,1.25a1.46,1.46,0,0,0,1.48.61c1.25-.21,1.68.57,2,1.53l-.54.5Z" style="fill:#918282;fill-rule:evenodd"/><path d="M43.15,51.2c1.21.19,2.55-.6,3.65.46C45.59,51.47,44.27,52.08,43.15,51.2Z" style="fill:#cd8686;fill-rule:evenodd"/><path d="M89.33,59.32l-.12,1.73a4.2,4.2,0,0,1-3.09,1.53c-.67,0-.32-.51-.22-.84,1.71-1.36,1.71-1.36.86-3.79,0-.45.08-.71.6-.52A4.34,4.34,0,0,1,89.33,59.32Z" style="fill:#e9e9e9;fill-rule:evenodd"/><path d="M87.35,57.42l-.6.52-.37-.06-.74-1.22A1.82,1.82,0,0,1,87.35,57.42Z" style="fill:#adc1c1;fill-rule:evenodd"/><path d="M76.35,52.76a3.26,3.26,0,0,1,1.86,0q0,.17,0,.34C77.58,53,76.9,53.24,76.35,52.76Z" style="fill:#aa5c5c;fill-rule:evenodd"/><path d="M87.15,49.6c0,.06.07.12.06.17s-.15.2-.24,0a.21.21,0,0,1,0-.18S87.09,49.61,87.15,49.6Z" style="fill:#9a9e9e;fill-rule:evenodd"/><path d="M81.57,40.08a.87.87,0,0,1-.94-.41A1,1,0,0,1,81.57,40.08Z" style="fill:#9d8b8b;fill-rule:evenodd"/><path d="M26.35,96.31a.48.48,0,0,0,.56.25c.45-.08.82.15.8.57,0,.69-.49.57-1,.4-.33-.11-.54.19-.76.4C25.91,97.35,25.77,96.75,26.35,96.31Z" style="fill:#a29797;fill-rule:evenodd"/><path d="M108.95,167.8l.46.5Z" style="fill:#828385;fill-rule:evenodd"/><path d="M106.54,169.73a.53.53,0,0,1-.52-.42A.56.56,0,0,1,106.54,169.73Z" style="fill:#a1a2ae;fill-rule:evenodd"/><path d="M107,170.16a.49.49,0,0,1-.5-.42A.53.53,0,0,1,107,170.16Z" style="fill:#a1a2ae;fill-rule:evenodd"/><path d="M25.53,13.8a1,1,0,0,1-1.07.46l.45-.53Z" style="fill:#898a85;fill-rule:evenodd"/><path d="M26.81,14.36l-.49-.59A.6.6,0,0,1,26.81,14.36Z" style="fill:#898a85;fill-rule:evenodd"/><path d="M27.34,12.29a1.83,1.83,0,0,1,.47.09C27.6,12.62,27.45,12.56,27.34,12.29Z" style="fill:#898a85;fill-rule:evenodd"/><path d="M58.56,62.12a1.05,1.05,0,0,1,1-.35,2,2,0,0,0-.08.36Z" style="fill:#fff;fill-rule:evenodd"/><path d="M73.88,36.38l-3.38-.12a.87.87,0,0,0,0-.39h3.35Q73.87,36.12,73.88,36.38Z" style="fill:#809c9c;fill-rule:evenodd"/><path d="M96,178.36l.58.39A.55.55,0,0,1,96,178.36Z" style="fill:#a3a4b1;fill-rule:evenodd"/><path d="M46.64,82.33l.3.55-.35,0Z" style="fill:#dcc39a;fill-rule:evenodd"/><path d="M82.09,164.5c-.19.93-.37,1.87-.58,2.8-.09.39-.29.78-.78.71a.75.75,0,0,1-.56-.71,29,29,0,0,1-.51-3.77,31.59,31.59,0,0,1,.34-7.38c.39-1.8-.36-3.61-.59-5.42a18.2,18.2,0,0,1-.24-3.08h0c1.26,1.4,1.35,3.17,1.44,4.9.08,1.57,0,3.14,0,4.79,1.17-.41.63-1.6,1.18-2.16,1,.28.41,1.37,1.19,1.83,2.59-1.05,1.83-4.65,4.44-6,0,1.68-1.35,2.55-1.65,3.88s-1,2.49-1.34,3.81c-.52.31-.9-.29-1.38-.2-2.3,1.79-2.68,3.4-1.24,5.23C82.09,163.91,82.33,164.12,82.09,164.5Z" style="fill:#716f72;fill-rule:evenodd"/><path d="M72.92,172.61l-.44-.48c.26-.41.53-.83.16-1.3A18.25,18.25,0,0,0,71.13,169c-2.44-2.39-4.86-4.79-5.38-8.3-1.13-.1-1.61.7-2.33,1-.32-.23-.4-.56-.06-.75,2.74-1.47,3.62-3.83,3.33-6.79a3.11,3.11,0,0,1,.17-.88c.85-.09.77.5.78.93a15.19,15.19,0,0,1-.31,3.54A8.87,8.87,0,0,0,70,166.59c.82.76,1.56,1.6,2.37,2.36a7.12,7.12,0,0,1,1.83,3c.53,1.58-.1,2.73-1.78,3.52V175C72.88,174.26,73.94,173.63,72.92,172.61Z" style="fill:#79797c;fill-rule:evenodd"/><path d="M100.25,164l0,1c-.33.45,0,1.05-.37,1.5-.34,1.57-1.62,2.31-2.78,3.15-.45.32-1,.51-1.48.79C92.76,172,92.49,173,94.05,176c-.09.73-.44.78-.87.27a4,4,0,0,1,.61-5.87,13.87,13.87,0,0,1,2-1.27c2.18-1.22,4-2.68,3.56-5.56a1.22,1.22,0,0,1,.43-1.06C100.28,162.89,99.84,163.56,100.25,164Z" style="fill:#88888b;fill-rule:evenodd"/><path d="M61,162.07c-.44-4.31-2.38-8-4.51-11.72a17.83,17.83,0,0,1,5.47,12.7l-.06-.05C60.94,163.29,61.36,162.3,61,162.07Z" style="fill:#777679;fill-rule:evenodd"/><path d="M92.66,164.88c-1.27.08-1.58-.92-1.88-1.8a8.56,8.56,0,0,1,.67-6.84c.87-1.73,2-1.83,3.32-.44a2.39,2.39,0,0,1,.73,1.93c.2.5-.1.58-.49.6a2.46,2.46,0,0,1-.55-.44c-1.47-1.46-1.61-1.35-2.32.65-.78,2.16.19,4,.62,6Z" style="fill:#8a888c;fill-rule:evenodd"/><path d="M61,162.07l.9.93c.12,2.2.2,4.36-1.59,6.11-.72.71-.32,1.6.2,2.34q0,.33,0,.66c-1.75-.79-2.53-2.51-1.39-3.54,1.74-1.57,2-3.46,1.85-5.55C60.94,162.7,61,162.39,61,162.07Z" style="fill:#7c7c7e;fill-rule:evenodd"/><path d="M95.1,158.22l.4-.49c1.34,2.16,1,4.36.07,6.52-.71,1.63-1.77,1.8-2.91.63l0,0c1.84-1,2.31-2.66,2.11-4.63C94.75,159.54,94.42,158.8,95.1,158.22Z" style="fill:#8d898e;fill-rule:evenodd"/><path d="M75.31,141.35l.05.53a4.71,4.71,0,0,1-2-.39c-.75-.2-1.29-.56-1.33-1.4a1.36,1.36,0,0,1,1.34-1.58c.38.57,1,.42,1.56.57-.42.55-1.22.25-1.7.77C73.4,141.05,74.76,140.65,75.31,141.35Z" style="fill:#8a8587;fill-rule:evenodd"/><path d="M82.09,164.5l-.45-.5c-.23-2.3,1-4.18,1.75-6.19.53.07.6.69,1,.88C84.09,160.8,83,162.6,82.09,164.5Z" style="fill:#817f83;fill-rule:evenodd"/><path d="M61,175.57c-.21.87-.46,1.71-1.47,2,.31-1.26.6-2.52.93-3.78.16-.59.56-.3.9-.18a1,1,0,0,1,0,.47C61,174.51,61.31,175.11,61,175.57Z" style="fill:#85888c;fill-rule:evenodd"/><path d="M23,159.67c.83,1,.53,2.25.31,3.36-.1.54-.6.24-.88-.06l.12-1.85c.4-.41,0-1,.45-1.45Z" style="fill:#656466;fill-rule:evenodd"/><path d="M24.45,175l-.39.44a4.21,4.21,0,0,1-2.16-1.38.59.59,0,0,1,.15-1c1.18-.2,1.47,1.21,2.47,1.34A.44.44,0,0,1,24.45,175Z" style="fill:#b0c2c7;fill-rule:evenodd"/><path d="M24.28,174.57c-1-.1-1.41-1.09-2.23-1.46l-.48-.91v-.56a12.56,12.56,0,0,0,3.93,2.86A.93.93,0,0,1,24.28,174.57Z" style="fill:#a68f90;fill-rule:evenodd"/><path d="M99.32,155.83a5.64,5.64,0,0,1,.59,2.28c-.14.36,0,.81-.43,1.23C99.19,158.12,98.22,157.06,99.32,155.83Z" style="fill:#86858a;fill-rule:evenodd"/><path d="M100.25,164c-.54-.36-.4-.94-.47-1.46.12-.78-.31-1.67.46-2.32A15.14,15.14,0,0,1,100.25,164Z" style="fill:#7c7c7f;fill-rule:evenodd"/><path d="M89,160.36a1.48,1.48,0,0,1,.21.54c0,.36-.24.56-.6.4s-.24-.38-.17-.61A.44.44,0,0,1,89,160.36Z" style="fill:#84838a;fill-rule:evenodd"/><path d="M76,143.59a1.36,1.36,0,0,1-.22.36c-.15.13-.32.07-.34-.12a.42.42,0,0,1,.18-.35C75.73,143.44,75.89,143.55,76,143.59Z" style="fill:#84868e;fill-rule:evenodd"/><path d="M23,159.67c0,.53.06,1.08-.45,1.45C22.53,160.57,22.47,160,23,159.67Z" style="fill:#807f83;fill-rule:evenodd"/><path d="M58.08,129a.5.5,0,0,1,.48-.43Z" style="fill:#84736f;fill-rule:evenodd"/><path d="M82.47,87.65c-.3.07-.6.54-.91,0l.12-.48c.17-.33.13-.72.32-1a5.6,5.6,0,0,0-.08-1.35c-.23-.77-.62-.37-.95,0l-.42-.51A29.17,29.17,0,0,0,80.78,76c1.54,2.57,1.1,5.54,1.8,8.26a2.62,2.62,0,0,1,0,2Z" style="fill:#807970;fill-rule:evenodd"/><path d="M46.9,70.52c-1.55,1.26-.73,2.95-.76,4.46A7.67,7.67,0,0,0,46.69,77c-.36.37-.71.36-.92-.11a8.54,8.54,0,0,1-.18-6.47c.34-1,1.07-1.05,1.89-1.07C47.73,70,47.41,70.3,46.9,70.52Z" style="fill:#a1988a;fill-rule:evenodd"/><path d="M51.37,79.92a2.32,2.32,0,0,1-2.42-1A7.56,7.56,0,0,1,47,74.69c.16-.16.2-.45.48-.49.59.58.61,1.42.92,2.13a5.19,5.19,0,0,0,2.9,3.19c.15.08.2.16.16.25S51.41,79.92,51.37,79.92Z" style="fill:#9c9790;fill-rule:evenodd"/><path d="M56.27,76.83c.54.53.49,1.3,1.21,1.5-.43.92-1.24.87-1.86,1.09a.86.86,0,0,1-1.15-.58C54.25,77.61,55.23,77.28,56.27,76.83Z" style="fill:#998876;fill-rule:evenodd"/><path d="M47.52,74.2l-.48.49c-.64-1.37-.08-2.78-.14-4.17l.58-1.13c0-.31.1-.65.47-.7s.39.26.31.47A11,11,0,0,0,47.52,74.2Z" style="fill:#8f867a;fill-rule:evenodd"/><path d="M64.37,88.16c-.58.29-.54.83-.56,1.35s.08,1.06-.37,1.46a8,8,0,0,1-.07-3.07c.09-.56.36-1.17,1.06-1s1.24.47.81,1.33Z" style="fill:#8b7c77;fill-rule:evenodd"/><path d="M69.19,88.67l-2.07-.06a16.26,16.26,0,0,1,3.87-1v.56A1.1,1.1,0,0,1,69.19,88.67Z" style="fill:#9f7267;fill-rule:evenodd"/><path d="M52.07,77.34a.67.67,0,0,1-.61.58.55.55,0,0,1-.57-.59.52.52,0,0,1,.55-.59A.7.7,0,0,1,52.07,77.34Z" style="fill:#928975;fill-rule:evenodd"/><path d="M47.39,79.56c.13.68.34,1.39-.4,1.89C46.18,80.62,46.6,80,47.39,79.56Z" style="fill:#aaa192;fill-rule:evenodd"/><path d="M51.37,79.92a2.77,2.77,0,0,1,0-.4c.54,0,1.09,0,1.63,0,.37,0,.56.2.29.58Z" style="fill:#996967;fill-rule:evenodd"/><path d="M82.59,86.28q0-1,0-2A1.39,1.39,0,0,1,82.59,86.28Z" style="fill:#998f7f;fill-rule:evenodd"/><path d="M46,79.61l-.18.14a2.39,2.39,0,0,1-.15-.38s.11-.09.17-.13Z" style="fill:#8b786c;fill-rule:evenodd"/><path d="M45.07,80.94l-.45-.38Z" style="fill:#8b8078;fill-rule:evenodd"/><path d="M30.09,100.95l-2.15.8c-.41-.69-.93-1.53-.19-2C28.76,99.22,29.28,100.51,30.09,100.95Z" style="fill:#979090;fill-rule:evenodd"/><path d="M58.54,126.06l2.42.07A1.73,1.73,0,0,1,58.54,126.06Z" style="fill:#84736f;fill-rule:evenodd"/><path d="M58.11,124.06c.53.58.27,1.34.44,2C57.74,125.54,58,124.78,58.11,124.06Z" style="fill:#84736f;fill-rule:evenodd"/><path d="M103.1,164.08a22.7,22.7,0,0,0,.06-3.28c-.13-1.11.82-1.47,1.21-2.2l.27.6a2.5,2.5,0,0,1,.58,1.7c.2,1-.41,2.08.3,3a2.5,2.5,0,0,1,.22.37c-.84.7-1.7,1.39-2.55,2.07Z" style="fill:#7d7e81;fill-rule:evenodd"/><path d="M99.85,166.44c0-.54-.13-1.09.37-1.5A1.46,1.46,0,0,1,99.85,166.44Z" style="fill:#a3a4b1;fill-rule:evenodd"/><path d="M105,159.07c.15-.83-.14-1.86,1-2.23,1.07.56.79,1.44.54,2.31.14.65.84,1.31,0,2l-.33,0a2.91,2.91,0,0,1-1.1-.73A1.14,1.14,0,0,1,105,159.07Z" style="fill:#dadcdd;fill-rule:evenodd"/><path d="M105.53,163.93c-.56.08-.91-.12-.91-.72s0-1.39.06-2.09a.84.84,0,0,1,.61-.1c.44.23,1.1.29.82,1.07Z" style="fill:#e6eaea;fill-rule:evenodd"/><path d="M106.57,159.15a5.48,5.48,0,0,0-.54-2.31c-.17-.5-.43-1.05.5-1C107,156.93,107.41,158,106.57,159.15Z" style="fill:#818185;fill-rule:evenodd"/><path d="M106.1,162.09l-1.07-.93.23-.26a1.19,1.19,0,0,1,1.29.2h0A1.53,1.53,0,0,1,106.1,162.09Z" style="fill:#cad2d2;fill-rule:evenodd"/><path d="M105,161.16a1.18,1.18,0,0,0-.36,0l0-1.91.38-.14a1.38,1.38,0,0,0,.63,1.15c.14.46-.24.61-.5.84Z" style="fill:#cad2d2;fill-rule:evenodd"/><path d="M82,86.14a1,1,0,0,1-.32,1A1.19,1.19,0,0,1,82,86.14Z" style="fill:#998f7f;fill-rule:evenodd"/><path d="M69.19,88.67A3.15,3.15,0,0,0,71,88.15c1,.08,1.53.48.91,1.53a2.38,2.38,0,0,1-.59.74c-2.5,1.8-3.25,4.6-4.18,7.3l-.21,0-.2,0C67.15,94.59,67.08,91.34,69.19,88.67Z" style="fill:#d3bc96;fill-rule:evenodd"/><path d="M8.61,20.5c.73-1,1.18-2.29,2.41-2.92,1.22,2,1.22,2,3.25-.42-1.24-.8-2.12.92-3.26.44a3.33,3.33,0,0,1,.47-1.92l.59-.05a4.8,4.8,0,0,1,3.75-.4l1.43-.08.54-.4A3.36,3.36,0,0,0,19.51,14c.82-.62,1.5-.87,2.12.22a.89.89,0,0,0,1.24.33,3.5,3.5,0,0,1,1.61-.3,1.68,1.68,0,0,1-1.53.93c-.82.07-1.33.36-1.42,1.26s-.73.89-1.36.54a11.78,11.78,0,0,1-.91-.76c-1.49-1.06-2.66-.61-3.15,1.19-.14.53-.19,1.09-.3,1.63-.06.3-.14.8-.47.72-1.57-.39-1.77.94-2.37,1.78s-1.31.78-1.62-.08C10.79,19.86,9.79,20,8.61,20.5Z" style="fill:#7c7b73;fill-rule:evenodd"/><path d="M17.73,12.3c-.09,1.24-.48,2.24-1.9,2.45a3.21,3.21,0,0,1-3.38-.06q0-.25,0-.49c.3-.39,0-.83.11-1.23A5,5,0,0,1,15.26,8.5l1,0a2.52,2.52,0,0,1,2.39,1.29c.23.33.34,1.06,0,1C16.84,10.44,18.1,11.84,17.73,12.3Z" style="fill:#976f70;fill-rule:evenodd"/><path d="M15.26,8.5l.21.66c-1.9.5-2,2.16-2.37,3.65a2.35,2.35,0,0,1-.2.43.61.61,0,0,1-.93,0,1.33,1.33,0,0,1-.71-2c.24-.5.47-1,.73-1.49C13,7.84,13,7.84,15.26,8.5Z" style="fill:#de878c;fill-rule:evenodd"/><path d="M17.73,12.3c0-.4-.08-.86-.61-.83s-1.24.23-1-.72a.91.91,0,0,1,1.45-.63c.26.14.44.44.88.36-.07-1.44-1.59-1.27-2.23-2,.52-.66,1.08-.49,1.63-.06a5.42,5.42,0,0,1,1.72,2.48A5.18,5.18,0,0,0,17.73,12.3Z" style="fill:#cd8386;fill-rule:evenodd"/><path d="M8.11,13.78l0-1.46c.27-.54.59-1,1.24-.45a1.6,1.6,0,0,1,.5,2.1c-.27.51-.69.93-1.27.27a2.73,2.73,0,0,0-.5-.48Z" style="fill:#dc868b;fill-rule:evenodd"/><path d="M12.45,14.7l3.38.06q0,.23,0,.46c-1.17.92-2.51.23-3.75.41Z" style="fill:#c98184;fill-rule:evenodd"/><path d="M7.66,7.5c.36.05.79,0,.75.59a.23.23,0,0,1-.16.16c-.55,0-.55-.37-.6-.74Z" style="fill:#cf8085;fill-rule:evenodd"/><path d="M12,13.26h.93a.88.88,0,0,1-.45,1Z" style="fill:#c98184;fill-rule:evenodd"/><path d="M8.11,13.76l.5.48Z" style="fill:#dc868b;fill-rule:evenodd"/><path d="M24.7,10a1.11,1.11,0,0,1,1,.58.7.7,0,0,1-.12.86A7.08,7.08,0,0,1,23,13.49c-.32.12-.67.16-.79-.19C21.87,12.27,23.58,10,24.7,10Z" style="fill:#9b7173;fill-rule:evenodd"/><path d="M25.31,9.34c-.15,0-.39,0-.44-.06-.59-.89-1.17-1.79-1.7-2.71-.06-.11.15-.42.29-.59a.41.41,0,0,1,.4,0,5.07,5.07,0,0,1,1.86,2.88C25.78,9.16,25.54,9.26,25.31,9.34Z" style="fill:#977174;fill-rule:evenodd"/><path d="M22.67,9.81a1.27,1.27,0,0,1-1.12.71c-.29,0-.4-.23-.27-.45a1,1,0,0,1,1.16-.58C22.54,9.51,22.6,9.7,22.67,9.81Z" style="fill:#a07376;fill-rule:evenodd"/><path d="M17.79,14.73l-.54.4Z" style="fill:#c98184;fill-rule:evenodd"/><path d="M18.65,5.44c-.68-.25-1-.64-.84-1.28.13-.48.45-.89,1-.79a1,1,0,0,1,.75,1.24A1,1,0,0,1,18.65,5.44Z" style="fill:#d18388;fill-rule:evenodd"/><path d="M4.79,7.54c.55.33.46.64,0,.93Z" style="fill:#8f6c6f;fill-rule:evenodd"/><path d="M49.36,30.49l.53.49a4.91,4.91,0,0,1-2.55.44c-.29,0-.65.1-.64.55s.3.54.62.57a2.65,2.65,0,0,1,2.14.83c.12.49-.08.66-.55.54a2.66,2.66,0,0,0-2.24-.25,4.11,4.11,0,0,1-2.05.27c.21-.32.56-.61.62-1C45.66,30.53,47.35,30.27,49.36,30.49Z" style="fill:#907d7d;fill-rule:evenodd"/><path d="M48.91,33.91l.55-.54A17.57,17.57,0,0,1,52.73,37a1.85,1.85,0,0,1-2.48-.87C49.82,35.4,49.36,34.66,48.91,33.91Z" style="fill:#9a9595;fill-rule:evenodd"/><path d="M24.28,174.57l1.23-.07,1.74,0,1.62.1c-1.39.91-2.94.32-4.41.46Z" style="fill:#748383;fill-rule:evenodd"/><path d="M61,175.57a1.55,1.55,0,0,1,.37-1.5A1.54,1.54,0,0,1,61,175.57Z" style="fill:#a3a4b1;fill-rule:evenodd"/><path d="M47.36,26.83c-.06,0-.14.06-.17,0a.23.23,0,0,1-.08-.18c.05-.21.17-.23.28-.06S47.38,26.76,47.36,26.83Z" style="fill:#a07174;fill-rule:evenodd"/><path d="M23.52,36.77c-.57.11-1-.28-1.41-.51-.73-1-1.83-1.88-2.06-3.76A11.29,11.29,0,0,1,23.52,36.77Z" style="fill:#a59b9b;fill-rule:evenodd"/><path d="M23.91,37.2a.52.52,0,0,1-.41-.44A.41.41,0,0,1,23.91,37.2Z" style="fill:#b39c9c;fill-rule:evenodd"/><path d="M48.65,81.42c.53,0,.75.34.76.87,0,.28.06.7-.4.65a1.06,1.06,0,0,1-1-.89C48,81.7,48.2,81.48,48.65,81.42Z" style="fill:#8b8a8a;fill-rule:evenodd"/><path d="M83.4,157.8c.33,1.4-.39,2.58-.83,3.81-.29.8-.61,1.59-.92,2.39-.27.28-.73.71-.91.23-.41-1.09-.95-2.28-.23-3.42S81.34,157.74,83.4,157.8Z" style="fill:#ebeded;fill-rule:evenodd"/><path d="M95.1,158.22c.26,1.69.61,3.36,0,5.07-.42,1.19-1.06,1.89-2.41,1.55-1.92-2.49-1.72-5.17-.68-7.91.2-.52.34-1.09,1.06-1.12s1,.43,1.28.92S94.86,157.72,95.1,158.22Z" style="fill:#f6f6f7;fill-rule:evenodd"/><path d="M105.15,161.06l.5-.84a1.36,1.36,0,0,1,.9.89Z" style="fill:#908c8c;fill-rule:evenodd"/><path d="M11,17.59c1-.49,1.84-1.53,3.16-1.43.48,0,1,.06,1.1.65s0,1-.51,1.17c-1,.23-1.31,1.05-1.84,1.72-.71.9-1.21.78-1.68-.26A5.08,5.08,0,0,1,11,17.58Z" style="fill:#a7db87;fill-rule:evenodd"/><path d="M20.2,14.88c.2,0,.34.17.37.42s0,.5-.29.48a.73.73,0,0,1-.46-.42C19.73,15.14,19.84,14.93,20.2,14.88Z" style="fill:#95be7e;fill-rule:evenodd"/><path d="M13.79,13.51a1.45,1.45,0,0,1,.67-1.41.78.78,0,0,1,1.05.19c.28.26.64.52.56,1s-.57.47-.94.49S14.18,13.89,13.79,13.51Z" style="fill:#d5878c;fill-rule:evenodd"/><path d="M92.85,160.63a.63.63,0,0,1,.77-.3c.22.09.44.29.34.51a.61.61,0,0,1-.78.25C93,161,92.74,160.95,92.85,160.63Z" style="fill:#6c8e8e;fill-rule:evenodd"/></svg>