<svg xmlns="http://www.w3.org/2000/svg" viewBox="0 0 166.68 189.49"><title>アセット 3</title><path d="M103.34,48.84c-.08-.63-.2-1.26.33-1.77l.32.17a13,13,0,0,1,.94,3.79c-1.14,1.69-2.56,3.18-2.91,5.35-.3,1.87-1.09,3.68.63,5.29a1.49,1.49,0,0,1,.29,1.13,7.61,7.61,0,0,0,1.74,5.52,1.55,1.55,0,0,1,.22,1.79c-1.12.55-2.14-.07-3.2-.26-2.82-.86-5.5-1-7.72,1.42-1.6.62-2.38-.33-2.93-1.58-.38-.88-.65-1.54-1.85-.89-.82.45-1.5-.3-2-.91-.88-1.08-1.64-2.2-3.3-1.08-.4.27-1-.29-1.48-.6-.66-.71-2-.54-2.21-1.83a1.71,1.71,0,0,1,1.49-.54c1.65.08,2.06-.74,1.66-2.19a5.69,5.69,0,0,0-.06-.71c-.66-2.82-.66-2.82,2.14-3.12.49-.85-.49-1.4-.49-2.14.15-.75.69-.82,1.3-.74a1.76,1.76,0,0,1,.58.3,2.58,2.58,0,0,0,2.26.79c1.29.25,2.23,1.37,3.6,1.45a1.43,1.43,0,0,1,.45.5,21.23,21.23,0,0,1,.59,6.48c0,.73.39.42.08.49,0,0-.06-.06-.06-.22a49.58,49.58,0,0,1,.06-5c.56-4.48,3.53-7.15,7.12-9.33A8.18,8.18,0,0,0,103.34,48.84Z" style="fill:#dcc69a;fill-rule:evenodd"/><path d="M130.16,66.27l-.39.82-.16.3c-1,.49-1.66-.05-2.18-.84a4.11,4.11,0,0,0-1.57-1.73,1.67,1.67,0,0,0-1.84-.07c.48.83,1.4.31,2,.7,1.16.72,1.67,1.46.09,2.28-1.74.11-2.83,1.67-4.46,2a1.35,1.35,0,0,1-.47-.46,5.14,5.14,0,0,1-.59-2c-.12-1.43-1-1.58-2.1-1.27-1-.09-1.69.61-2.54.9a1.82,1.82,0,0,1-.62,0,3.48,3.48,0,0,1-1.42-.56c-.33-.4-.2-.95-.44-1.38a5.28,5.28,0,0,0-.56-.7c-.73-1.5-2.71-1.48-3.53-2.88a1.43,1.43,0,0,1-.05-.66,16.38,16.38,0,0,1,5.28-3.54c2.1-1,4-.43,5.75,1a24.94,24.94,0,0,1,2.85,2.94c-.88-2.2.21-4,2.85-4.93.69-.24,1.71.07,1.87-1.09.4-1.37-.08-3.07,1.52-4,2.4,1.09,1.86,3.45,2.14,5.33A18.49,18.49,0,0,1,130.16,66.27Z" style="fill:#dcc69a;fill-rule:evenodd"/><path d="M.18,12.54c-.16-.86-.11-1.62,1-1.6,1.47,0,2.39-.4,2.26-2.13-.1-1.27.9-1.48,1.88-1.59.35-.26.69,0,1,0,.79-.8.34-1.27-.44-1.65A2.59,2.59,0,0,1,4.77,4.8c-.39-1.35-1.2-2.76.6-3.75,0,.39.08.79.07,1.18,0,.74.16,1.16,1,1.17s1.34-.22,1.35-1.16A1.62,1.62,0,0,1,8.25.94C9,1.72,9,1.72,9,3.25c.28-.92-.26-1.87.32-2.68a4.8,4.8,0,0,1-.9,6.37c.77.74,1.71,1.43,1.33,2.72-.15.6,0,1.29-.48,1.78a3.31,3.31,0,0,1-4.23,0c-.38-.44-.17-1-.31-1.47a1.8,1.8,0,0,1-.54,1.76c-1.86.66-2.36,2-2.32,3.91.1,5.24,0,10.47,0,15.71,0,1,.48,2.47-1.3,2.71-.22-6.31,0-12.61-.1-18.92A5.86,5.86,0,0,0,.18,12.54Z" style="fill:#7a7674;fill-rule:evenodd"/><path d="M82.71,65.79c.57.13,1.05,1.46,1.74,0,.37-.77,1.08-.35,1.64,0,.72.41.95,1.26,1.56,1.76s1.22,1.79,2,0c.25-.62,1-.31,1.29.27a12.93,12.93,0,0,1,.78,2,1.65,1.65,0,0,0,2,1.26c.4-.18.64,0,.85.33a1.73,1.73,0,0,1,.2,1.15c-.64,2.47.67,3.72,2.75,4.52a.79.79,0,0,1,.29.58l-.17.3c-3.08-.23-3.67-.67-4.48-3.6-.28-1-.68-1.44-1.65-.79-.55.37-.93.23-1.48-.09-1.45-.82-3.43-.75-4.24-2.67-.09-.21-.73-.2-1.11-.29-1.77-.4-3.49.09-5.22.33-.4.06-.83.18-1.09-.21s0-.91.32-1.27a2,2,0,0,1,1.47-.71c.61-.06,1.28.08,1.83-.4-.37-.7-1.15-.59-1.6-1a.44.44,0,0,1,0-.57c.55-.44,1.45-.19,1.86-.93A.43.43,0,0,1,82.71,65.79Z" style="fill:#737068;fill-rule:evenodd"/><path d="M9.25,11.11c.06-.52-.07-1.09.46-1.46.32.95,1.08,1.05,1.93,1h4.31l37.63-.05c.88,0,1.75-.07,2.63-.11.94.14.92.61.44,1.25a4.88,4.88,0,0,1-2.78.53q-20.62,0-41.23,0a7.72,7.72,0,0,1-2.38-.25,2.07,2.07,0,0,1-.79-.52Z" style="fill:#6b7469;fill-rule:evenodd"/><path d="M20.68,135.7c.93-4.27,1.95-8.52,4.08-12.39.39-.71-.29-1-.59-1.38-.07-.49.25-.64.64-.73,2.12.2,4.06,1.34,6.27,1.09,1.05-.12,2.06-.14,2.55-1.32.24-.57.48-1.31,1.31-1.05s.8,1,.83,1.57c.11,2.23,1.08,3.59,3.48,3.59a1,1,0,0,1,.59.5c.19,2.26,1.12,4.47.42,6.78-.58.65-1.1.36-1.62-.1-2.52-2.28-5.36-2.42-8.39-1.23l-.44.18c-.61.21-1.39.45-1.73-.18s.3-1.3.88-1.72a5,5,0,0,1,2.65-.92,12.15,12.15,0,0,0,3.58,0,6.43,6.43,0,0,1,1.18.14c.44.07,1,.31,1.17-.35.11-.43-.32-.67-.57-1-2.68-3.35-6.52-2.81-10.13-3-1,0-1.38.92-1.72,1.74a55.36,55.36,0,0,0-2.62,7.9c-.24,1-.28,2.09-1.4,2.61C20.69,136.37,20.5,136.13,20.68,135.7Z" style="fill:#857a72;fill-rule:evenodd"/><path d="M126.32,26.83a18.71,18.71,0,0,1,8.07-4.42c1.05-.33,1.51.11,1.77,1a7.14,7.14,0,0,1-.2,4,.72.72,0,0,1-.59.21c-1.62-.38-2.62.8-3.79,1.53-.86.54-1.37,1.54-2.45,1.78-.53-.12-.7-.51-.78-1-.13-.77.39-1.46.29-2.26-.64-.47-1.32.26-2,0C126.36,27.45,126.14,27.23,126.32,26.83Z" style="fill:#5e5c5b;fill-rule:evenodd"/><path d="M44.42,129.61a4.8,4.8,0,0,1,1,2.16c.81,2.6.48,3.91-1.91,5.21A2.64,2.64,0,0,0,42,140.31c.45,2,.85,4.07,1.46,6.05a7.7,7.7,0,0,1-.3,5.6c-.36.8-.61,1.65-1,2.44A27.94,27.94,0,0,0,40.06,162c-.73-.52-.73-1.36-.93-2.1A15.19,15.19,0,0,1,41,153.24a10.38,10.38,0,0,0,.55-7.89,29.46,29.46,0,0,1-1-4.67,2.42,2.42,0,0,0-2.5-2.34c-1.07-.09-2.27-.13-3-1.25.09-.6.56-.79,1-1,1.42-.06,2.83.12,4.26.11a4,4,0,0,0,3.34-1.45,2.27,2.27,0,0,0,.22-2.63c-.32-.86-.88-1.72-.14-2.64A.55.55,0,0,1,44.42,129.61Z" style="fill:#8a847b;fill-rule:evenodd"/><path d="M29.44,189.14a1.67,1.67,0,0,1-1.6-1.22,6.32,6.32,0,0,0-4.14-3.7,3.55,3.55,0,0,1-2.71-3,3,3,0,0,0-1.66-2.2c-5-3.08-6.65-7.65-5.94-13.31a23.21,23.21,0,0,1,1.2-6.3c.47-.08.67.21.84.57.42,1.7-.2,3.31-.46,4.94-.87,5.34.3,9.88,5.2,12.77,1.92,1.13,2,3.42,3.51,4.68,1.08.86,2.47,1.22,3.53,2.12a10.88,10.88,0,0,1,2.49,4A1,1,0,0,1,29.44,189.14Z" style="fill:#8c837c;fill-rule:evenodd"/><path d="M106.13,22.53a6.86,6.86,0,0,1,.78-2.73c.6-1.17,1.37-1.33,2.21-.28,1.38,1.73,2.58,3.61,3.86,5.43a1,1,0,0,1,.13,1c-2.17.17-1.91,2.33-2.88,3.5-1.43-.81-1.46-2.48-2.28-3.67a12.87,12.87,0,0,0-1.59-2.28C106.17,23.19,106,22.9,106.13,22.53Z" style="fill:#5d5c5b;fill-rule:evenodd"/><path d="M61.13,7.23A1.74,1.74,0,0,1,62.76,9c.1,1.1.53,1.64,1.8,1.67,1.76,0,1.82.18,1.83,2,0,6.38,0,12.76.05,19.14q0,2,0,4.06c.12,1.37.54,2.75-.22,4.07a.69.69,0,0,1-.68-.41,7.87,7.87,0,0,1-.35-3.29c0-6.69,0-13.37,0-20.06,0-3.79-.8-4.49-4.53-4.07a4.07,4.07,0,0,1-2.11-.19.88.88,0,0,1-.4-1.27c.42-.66,1.39-.32,1.8-1,0-.38-.12-.73-.12-1.1A2,2,0,0,1,60,8C60.25,7.58,60.4,6.95,61.13,7.23Z" style="fill:#79756f;fill-rule:evenodd"/><path d="M43.8,83.62c1.86,1.86,1.9,3.23.16,4.79-2.43,2.18-3.57,5.73-2.25,8.63s1.23,5.91,1.5,8.9a28.14,28.14,0,0,0,.54,4.51.84.84,0,0,1-.76.12c-1.2-.75-1.22-2-1.24-3.19a26.42,26.42,0,0,0-1.91-10.5c-1-2.38.22-4.84,1-7.19a3.66,3.66,0,0,1,.39-.64l.23-.28a6.58,6.58,0,0,1,.48-.52l.24-.24c.15-.16.32-.32.48-.47,1.26-.9,1-2.05.54-3.24A.78.78,0,0,1,43.8,83.62Z" style="fill:#939090;fill-rule:evenodd"/><path d="M103.34,48.84c-.22,1-1,1.38-1.79,1.79A19.54,19.54,0,0,0,98.2,52.9a10.71,10.71,0,0,0-4,9c0,1.2,0,2.39,0,3.59,0,.7,0,1.48-1.22,1.59A16.44,16.44,0,0,0,93.14,61a14,14,0,0,1-.38-3.29c-.19-.46,0-.57.45-.51.29.32.61.22.73-.1C95.66,52.73,99.07,50.3,103.34,48.84Z" style="fill:#8b8176;fill-rule:evenodd"/><path d="M25.56,86.49c-2.18-1.94-2.29-3.8-.32-5.73s2.18-1.91,4.39-.63a7.2,7.2,0,0,1,2.94,2.33c.65,1.1,1.29,1.27,2.15.24A1.66,1.66,0,0,1,36,82.08c1-.48,2.12.19,3-.5l0,0a1.69,1.69,0,0,1,1.37.23c.39.3.81.59.67,1.18a1,1,0,0,1-1,.54c-2.07-.3-4-.33-5.77,1.19a1.65,1.65,0,0,1-2-.2,8.87,8.87,0,0,0-3-2c-1.16-.35-2.42-.65-3.43.14s0,1.91,0,2.88a1.67,1.67,0,0,1-.1.68Z" style="fill:#877e82;fill-rule:evenodd"/><path d="M24.68,121.45l-.51.48c-3.25-2-3.67-5.26-3.68-8.55a10.34,10.34,0,0,1,2.22-6.21c1.66-2.24,3.14-4.62,4.73-6.92A18.6,18.6,0,0,0,29.07,97c.46,0,.62.28.74.64.18,1.57-.7,2.74-1.53,3.9-1.5,2.07-2.89,4.21-4.28,6.35-2.73,4.2-2.81,8.35.27,12.43A1.35,1.35,0,0,1,24.68,121.45Z" style="fill:#888487;fill-rule:evenodd"/><path d="M15.08,160l-.49-.55c1-3.44,2.24-6.81,2.65-10.38a71.79,71.79,0,0,1,3.09-12.73,3,3,0,0,1,.35-.61l.57.66c.45.88,0,1.72-.17,2.55A124,124,0,0,0,18.34,152,14.42,14.42,0,0,1,15.08,160Z" style="fill:#928a7f;fill-rule:evenodd"/><path d="M50.53,40.78c-7.35.32-14.7.23-22.06.22-6.71,0-13.43-.07-20.14-.11-.8,0-1.59-.08-2.39-.12A.61.61,0,0,1,6.29,40a7.45,7.45,0,0,1,3.29-.4q18.66,0,37.31,0a7.4,7.4,0,0,1,3.29.4A.6.6,0,0,1,50.53,40.78Z" style="fill:#8b5555;fill-rule:evenodd"/><path d="M61.13,7.23l-.91,1c-.67-.93-.11-1.93-.33-2.82,0,.92,0,1.93,0,2.94,0,.34,0,.68,0,1a.74.74,0,0,1-.43.46c-.58.07-.88-.53-1.41-.55-.52.71-.12,1.7-.76,2.35a.47.47,0,0,1-.57-.13,1,1,0,0,0-.57-.93c.06-.31.13-.61.17-.92.22-1.93.21-1.93,1.79-2.8C58,6,57,6.48,56.77,5.83a.74.74,0,0,1,.09-1.08c.89-.59,0-1.79.83-2.41a.51.51,0,0,1,.59.06h0c.31.33,0,1.35,1,1,.48-.11,1.06.1,1.43-.42s-.35-1.67,1-1.48A2.4,2.4,0,0,1,62,3.51c-.07.33-.17.66-.25,1s-.11.66-.18,1a2.22,2.22,0,0,1-.47.87Q61.13,6.79,61.13,7.23Z" style="fill:#7a7978;fill-rule:evenodd"/><path d="M64.92,82.67a1.8,1.8,0,0,0-1.58.26,9.66,9.66,0,0,1-1.49.73,2.83,2.83,0,0,1-3.43-.76A3.18,3.18,0,0,1,59,79c1.71-1.66,3.15-1.85,5.55-.76.73,1.57-1.66.92-1.49,2.09-.64.23-1.23-.16-1.85-.13a1.23,1.23,0,0,0-1.21.93.86.86,0,0,0,.19.87,1.19,1.19,0,0,0,1.52.09,7.18,7.18,0,0,0,2-2,1.15,1.15,0,0,1,1.23-.35q0,.72,0,1.44a.28.28,0,0,0,.1.45v0a.91.91,0,0,1,.25.55A.81.81,0,0,1,64.92,82.67Z" style="fill:#79716f;fill-rule:evenodd"/><path d="M54.46,122.35c.49.81.7,1.73,1.16,2.57,1.55,2.8-.31,6.16-3.63,5.8a14.15,14.15,0,0,1-6.26-1.87c-.19-.4-.78-.65-.45-1.23.77-.64,1.78-.38,2.63-.73.32-.18.79-.36.54-.8-.44-.78-1.3-.58-2-.64a2.38,2.38,0,0,1-1.73-.58.65.65,0,0,1,.21-.7c1.08-.63,2.25-.4,3.4-.4,2.76,1,3.1,2.81.92,5,1.31.28,2.55.9,3.92.45,1.54-.66,1.82-1.83,1.34-3.3-.27-.71-.82-1.32-.8-2.14A1.85,1.85,0,0,1,54.46,122.35Z" style="fill:#92857f;fill-rule:evenodd"/><path d="M130.16,66.27c-.7-.56-.28-1.15,0-1.71,1.74-3.78,1.15-7.64.39-11.49a2,2,0,0,0-1.27-1.63c-.54-1.89.92-2.43,2.13-3.14a.81.81,0,0,1,.66.22c-1,1.59-.83,3.22-.39,5a20.94,20.94,0,0,1,0,9.88A5.43,5.43,0,0,1,130.16,66.27Z" style="fill:#8f887d;fill-rule:evenodd"/><path d="M101.86,69.25l3,.82c1.86-.34,3.31.79,4.87,1.44,1.88.79,3.71,1.71,5.6,2.49,1,.61,2.13,1.05,2.44,2.36.13,1.37-.58,2-1.87,2l-.19-.25a2.77,2.77,0,0,1-.06-.63c-.16-1.17-1.22-1.38-2-1.82a106.71,106.71,0,0,0-11.17-4.79c-.57-.23-1.27-.26-1.56-1C100.9,69.24,101.55,69.52,101.86,69.25Z" style="fill:#917b75;fill-rule:evenodd"/><path d="M64.92,82.67l.06-.54a2.86,2.86,0,0,1,.44-.51c1-1.56,2.84-1.65,4.38-2.19a1.71,1.71,0,0,1,1.87.76c.26.37-.06.65-.14,1a1.21,1.21,0,0,0,.13.74c.23.51.68,1,.44,1.59a5.35,5.35,0,0,1-5.46,1.14C65.73,84.28,64.89,83.86,64.92,82.67Z" style="fill:#796f6d;fill-rule:evenodd"/><path d="M43.27,110.46h.47a3.65,3.65,0,0,0,2,1.21,22.54,22.54,0,0,1,4.46,2.26,8.43,8.43,0,0,1,4.15,7.58c-.42.43,0,1.13-.48,1.53-1.12-.2-1-1.15-1-1.88-.27-4.13-3.17-6-6.43-7.54-1-.48-1.65.13-2.34.68a1.91,1.91,0,0,1-.61.21,6.65,6.65,0,0,1-1.29,0,.81.81,0,0,1-.53-.74,1.11,1.11,0,0,1,.25-.59C43.13,112.63,42.62,111.25,43.27,110.46Z" style="fill:#8e7f77;fill-rule:evenodd"/><path d="M117.72,76.36l-2.41-1.88c1.31-1.69,3-3,4.32-4.71a1.78,1.78,0,0,1,1.91-.69l0,.55a32.84,32.84,0,0,1-1.45,6.72C119.33,76.47,118.52,75.87,117.72,76.36Z" style="fill:#dcc69e;fill-rule:evenodd"/><path d="M154.37,68.59l-.63.15a3.08,3.08,0,0,1-2.11.57A10.57,10.57,0,0,1,145,67.09c-.38-.27-.85-.67-1.29-.35s-.29,1-.22,1.55c.15,1.13,1.81,1.76,1.06,3.19a2,2,0,0,1-2.87,0c.71-.41,1.27-.75.62-1.77a4.14,4.14,0,0,1-.17-4.32c.58-1.13,1.2-1.3,2.31-.71a.88.88,0,0,1,.2.13c2.62,2.52,5.88,3.29,9.36,3.5C154.11,68.36,154.24,68.51,154.37,68.59Z" style="fill:#998a7c;fill-rule:evenodd"/><path d="M103.67,47.07a2,2,0,0,1,.33-.63c1.46-1.24,1.53-2.53.48-4.13-1.31-2-.71-3.91.53-5.75.58-.86,1.62-1.67.74-2.93a2.81,2.81,0,0,1,0-2.37c1.14-.33.88,1.35,1.84,1.27a3.87,3.87,0,0,1,.93,0,.79.79,0,0,1,.39.5c-.23,1.76-1.61,2.86-2.49,4.23a4.61,4.61,0,0,0-.34,4.9c1.36,2.84,1.3,2.87-1,5.3-.5.31-.88.25-1.11-.33Z" style="fill:#8d857c;fill-rule:evenodd"/><path d="M112.95,26.09q0-.57,0-1.15c1.31,1.9,2.87,2.86,5.33,2,1.19-.4,2.54.21,3.68.76a3.13,3.13,0,0,0,4.32-.92l.56.6c-1,2.62-1.76,3.06-4.2,2.21-2-.72-4-1.38-6.29-.8C113.26,29.64,113.06,29.41,112.95,26.09Z" style="fill:#938477;fill-rule:evenodd"/><path d="M5.91,40.46a2,2,0,0,0,0,.31c-1.43,0-2.86,0-4.28.12C.39,41,0,40.46,0,39.24,0,32.16,0,25.09,0,18c0-1.83.09-3.65.14-5.48C.91,13.27.59,14.2.6,15c0,6.39.05,12.77.07,19.16.79.84.66,1.92.62,2.91-.06,1.77.65,2.64,2.48,2.59A2.26,2.26,0,0,1,5.91,40.46Z" style="fill:#6f6b6a;fill-rule:evenodd"/><path d="M39.44,174.27a5.83,5.83,0,0,1-4,4.84,14.47,14.47,0,0,1-2.92,1c-.62.11-1.35.27-1.43,1s.51,1.1.92,1.59c.74.89,2,.41,2.79,1.16a1.78,1.78,0,0,1-1.42.61,4.06,4.06,0,0,1-2.59-.81,3.59,3.59,0,0,1-1.27-3A2.38,2.38,0,0,1,31.45,179a10.28,10.28,0,0,0,7.21-5.3C39.11,173.64,39.32,173.89,39.44,174.27Z" style="fill:#93867e;fill-rule:evenodd"/><path d="M29.49,97.58,29.07,97c.54-1.49,1.16-3,1.59-4.48.37-1.3.7-2.71-1-3.46l-4.1-2.62.1-.18a3.26,3.26,0,0,1,1.18-.6,2.59,2.59,0,0,1,.67-.09c2.15.25,2.93,2.44,4.65,3.3A8.05,8.05,0,0,1,29.49,97.58Z" style="fill:#92898b;fill-rule:evenodd"/><path d="M120.13,76.35a9.94,9.94,0,0,1,1.45-6.72c1.3-1.06,2.5-2.32,4.36-2.32.35.47,1.71-.36,1.35,1-.84.63-2,.42-2.85,1.08-1.86,1.45-3,3.18-2.72,5.68a8.84,8.84,0,0,1,.2,2.59c-.13.37-.32.66-.79.57Z" style="fill:#8a7770;fill-rule:evenodd"/><path d="M129.77,67.1c.38.11.77.21,1.14.34,4.52,1.52,6.23,5.28,4.49,9.85-.46,0-.65-.26-.8-.61a1.17,1.17,0,0,1-.11-.46c.5-4.58-1.74-7-6.09-7.83-.42-1.42,1-.61,1.32-1A.77.77,0,0,0,129.77,67.1Z" style="fill:#937f7d;fill-rule:evenodd"/><path d="M50.53,40.78l0-.48c.13-1,.94-1,1.61-1.06,4.12-.17,8.24-.19,12.36,0a1.92,1.92,0,0,1,1.28.57l.09.08c0,1.09-.86.66-1.38.69a57.38,57.38,0,0,0-5.83.16A51.31,51.31,0,0,1,50.53,40.78Z" style="fill:#826c6a;fill-rule:evenodd"/><path d="M66.87,56.75c-.57-.27-.72-1.14-1.71-.88-1.19.31-1.29-.54-1-1.44a5.9,5.9,0,0,1,1.83-3c1.57-1.3,3.18-2.55,4.77-3.83.34.12.6.3.59.71-.64,1.57-2.19,2.19-3.33,3.23-.87.8-2.5,1.37-1.56,3.12C67.11,55.26,67.55,55.89,66.87,56.75Z" style="fill:#9e9595;fill-rule:evenodd"/><path d="M39.44,174.27,39,173.7a3.52,3.52,0,0,1-.66-2.45c-.16-3.32.6-6.58.57-9.9a1.84,1.84,0,0,1,.66-1.47c.7.56.36,1.38.53,2.07q0,4.66,0,9.32A5.11,5.11,0,0,1,39.44,174.27Z" style="fill:#88837b;fill-rule:evenodd"/><path d="M82.71,65.79l-.56,0c-1.13.75-2.1-.37-3.1-.3.51.27,1.34.25,1.26,1.23,0,.15,0,.3,0,.45a4.29,4.29,0,0,1-3.73-2,31.35,31.35,0,0,1-1.74-2.74.94.94,0,0,1,.62-.32,20.61,20.61,0,0,1,4.76,2.27C80.92,65.13,82.15,64.85,82.71,65.79Z" style="fill:#858279;fill-rule:evenodd"/><path d="M135.42,29.8a11.91,11.91,0,0,1-.45,1.82,1.78,1.78,0,0,0,.26,2.16c1,1.08.84,1.91-.54,2.51-.11,0-.06.44-.09.67a.94.94,0,0,1-.61.28c-.41-.06-1-.32-.9-.61.57-2.34-.91-5.19,1.69-7A.76.76,0,0,1,135.42,29.8Z" style="fill:#928f8f;fill-rule:evenodd"/><path d="M145.1,77.28a4.86,4.86,0,0,1-3.94-2.16c-1-1.21-.91-2,.15-3.46.33.13.61.3.68.68.42,2.65,1.19,3.32,3.82,3.44,1.18.05,2.34-.18,3.52-.1a1.13,1.13,0,0,1,.71.72c-.14.91-.83,1.08-1.58,1.17C147.33,77.61,146.25,77.13,145.1,77.28Z" style="fill:#9c8e84;fill-rule:evenodd"/><path d="M106.18,31.25c-.73.69-.33,1.58-.43,2.38-.4-1.65-1.45-3.2-.32-5,.4-.66.12-1.71.2-2.59.1-1.16-.33-2.41.5-3.47l.59.58C108,25.91,107.34,28.6,106.18,31.25Z" style="fill:#929090;fill-rule:evenodd"/><path d="M83.19,47.11c3.07.81,5.25,2.89,7.26,5.19.16.44-.1.63-.45.77a34.79,34.79,0,0,1-7-5.32A.79.79,0,0,1,83.19,47.11Z" style="fill:#a09190;fill-rule:evenodd"/><path d="M134,37l.59,0c.7.83.17,1.34-.53,1.63-1.29.52-1.42,1.48-1.37,2.69.06,1.66,0,3.32-.08,5a3.23,3.23,0,0,1-.57,2.24h-.46a2.26,2.26,0,0,1-.37-2c.56-2.52-.1-5.12.48-7.63C132.13,37.84,133.15,37.53,134,37Z" style="fill:#877e7a;fill-rule:evenodd"/><path d="M39.51,184.36a2.92,2.92,0,0,1,1.24,1.42c.93,1.8.26,3.19-1.78,3.36-1.74.14-3.5,0-5.26,0a.5.5,0,0,1,.16-.65c1.44-.77,3.07-.11,4.54-.6,1.75-.69.55-1.85.45-2.84A.8.8,0,0,1,39.51,184.36Z" style="fill:#949898;fill-rule:evenodd"/><path d="M5.43,4.84l.89.47a1.63,1.63,0,0,1,0,2.43l-.95-.53c0-.23-.08-.65-.13-.65C3.32,6.47,3.36,5,3.27,3.72,3.19,2.61,2.88,1.4,4,.54c.81.87.32,2,.49,2.93C4.57,4.06,4.2,5,5.43,4.84Z" style="fill:#808082;fill-rule:evenodd"/><path d="M46.22,75.95c1.14,1.09,1.29,1.69.31,2.08-2,.78-2.58,2.41-3.22,4.11a.48.48,0,0,1-.6,0c-.74-1.69.18-2.91,1.21-4.06.47-.53,1.18-.83,1.51-1.51A2,2,0,0,1,46.22,75.95Z" style="fill:#9d9595;fill-rule:evenodd"/><path d="M40,82.12l-1-.56a9.47,9.47,0,0,0,.81-2A4.17,4.17,0,0,1,43.36,76a.82.82,0,0,1,.22.62C42,78.16,41.27,80.33,40,82.12Z" style="fill:#9e9393;fill-rule:evenodd"/><path d="M61.14,6.35V5.29a5.11,5.11,0,0,0,.72-3.34c0-.6-.44-1.5.77-1.51.7,1.52.32,3.13.28,4.69C62.87,6.13,62,6.32,61.14,6.35Z" style="fill:#848587;fill-rule:evenodd"/><path d="M83.19,47.11l0,.56a1.57,1.57,0,0,1-1.33.28,51.11,51.11,0,0,0-8.59-.69.48.48,0,0,1-.13-.7c2.18-1,4.47-.65,6.7-.37A8.88,8.88,0,0,1,83.19,47.11Z" style="fill:#967a7a;fill-rule:evenodd"/><path d="M141.8,72.11l-.49-.45a.37.37,0,0,1,.35-.14,4.29,4.29,0,0,0,3-.48c1.27-.61,2.57.07,3.85-.13a3.67,3.67,0,0,1,2.35.57.62.62,0,0,1-.13.76C147.76,72.89,144.76,73.85,141.8,72.11Z" style="fill:#7f7968;fill-rule:evenodd"/><path d="M66.87,56.75a1.72,1.72,0,0,0-1-1.86c1.35-1.06,2.6-1,3.45.55.39.7,1.44.75,1.47,1.7a.73.73,0,0,1-.55.34l-.46.13c-.87-.6-2,.27-2.87-.56A.77.77,0,0,0,66.87,56.75Z" style="fill:#a86c6c;fill-rule:evenodd"/><path d="M115.84,78.35a2.74,2.74,0,0,1-.85.37c-3.8.2-7.6.16-11.41,0a2.8,2.8,0,0,1-.86-.35c.55-.71,1.36-.68,2.14-.73q4.12,0,8.25,0a3.79,3.79,0,0,1,2.69.6Z" style="fill:#769696;fill-rule:evenodd"/><path d="M75.58,62.4l-.73.07a1.36,1.36,0,0,1-.75-.89,5.3,5.3,0,0,0-3.43-3.93A1.82,1.82,0,0,1,71.88,57C74.65,57.73,75.48,59.81,75.58,62.4Z" style="fill:#9b9494;fill-rule:evenodd"/><path d="M58.7,40.74c1.55-.76,3.2-.21,4.79-.38.82-.09,1.73.3,2.41-.48.94-1.23.19-2.69.55-4,1,4.46.6,5-3.74,5C61.37,40.86,60,40.79,58.7,40.74Z" style="fill:#7d8a89;fill-rule:evenodd"/><path d="M135,76.8l.41.48a5.4,5.4,0,0,1-4.74,4.31.72.72,0,0,1,0-.63C132.18,79.69,133.27,77.91,135,76.8Z" style="fill:#928b89;fill-rule:evenodd"/><path d="M156.6,81.1l0,.5-1.11.06c-2.95.48-5.92.06-8.88.23l-.49-.2a.55.55,0,0,1,.18-.79C149.72,80.25,153.17,79.9,156.6,81.1Z" style="fill:#af6e62;fill-rule:evenodd"/><path d="M5.43,4.84c-.06.4-.14.88-.69.49A1.91,1.91,0,0,1,4,3.65c0-1,0-2.07,0-3.11.52,0,1.18-.37,1.38.51A3.64,3.64,0,0,0,5.43,4.84Z" style="fill:#9a9ca5;fill-rule:evenodd"/><path d="M72.11,83.48c-.28-.63-1-1.06-1-1.84a4.68,4.68,0,0,0-.44-.48l1-1,1.65,1.58A3.64,3.64,0,0,1,72.11,83.48Z" style="fill:#9a9186;fill-rule:evenodd"/><path d="M121.14,78.26l.5-.47A33,33,0,0,1,126.11,81a.8.8,0,0,1-.16.63A5.62,5.62,0,0,1,121.14,78.26Z" style="fill:#9a918f;fill-rule:evenodd"/><path d="M57.24,4.86c-.4.21-.44.59-.48,1-1-1.69-.54-3.5-.4-5.28,1.24-.51,1.4.46,1.26,1.15C57.42,2.76,57.79,3.87,57.24,4.86Z" style="fill:#908d91;fill-rule:evenodd"/><path d="M146.08,81.14c0,.19,0,.37,0,.56-2.24-.61-2.56-1.39-1.23-3.15.27-.36.71-.61.66-1.15.69-.4.75.17.9.58A8.93,8.93,0,0,0,146.08,81.14Z" style="fill:#968c84;fill-rule:evenodd"/><path d="M39.51,184.36l-.52.5c-2,.07-4.15,1-5.84-.93l1.64-.09C36.39,183.76,38.09,182.79,39.51,184.36Z" style="fill:#868484;fill-rule:evenodd"/><path d="M146.56,81.9c2.95-.51,5.92-.15,8.88-.23a2.53,2.53,0,0,1-2,.46C151.13,82.06,148.83,82.44,146.56,81.9Z" style="fill:#7a7e7e;fill-rule:evenodd"/><path d="M126,81.6l-.05-.5a4.29,4.29,0,0,1,4.8.08,3.12,3.12,0,0,1,0,.42A5.74,5.74,0,0,1,126,81.6Z" style="fill:#8b5a5a;fill-rule:evenodd"/><path d="M62.61.44c-.9.74-.46,1.75-.54,2.65s.1,1.78-.95,2.2l.07-.92a3.87,3.87,0,0,1,.39-.5q0-1.17,0-2.34c-.19-.17-.46-.26-.53-.55C61.29,0,61.8-.23,62.61.44Z" style="fill:#a9a5ae;fill-rule:evenodd"/><path d="M57.24,4.86c0-1.07,0-2.14,0-3.21,0-.62-.22-1-.88-1.1.61-.76,1.22-.72,1.82,0-.48.56,0,1.34-.41,1.91a12.56,12.56,0,0,0,.11,2.28C58,5.43,57.53,5.15,57.24,4.86Z" style="fill:#aeaab3;fill-rule:evenodd"/><path d="M9.28.57c-.11,1.52.15,3.08-.42,4.55C8,3.77,9.6,2.18,8.25.94,8.47.46,8.88.53,9.28.57Z" style="fill:#9e98a0;fill-rule:evenodd"/><path d="M64.9,79.74l-.91.51a.64.64,0,0,1-.92-.05,4,4,0,0,0-.14-.67c-.34-.89-.5-1.58.78-.77.74.47.68-.17.82-.55A1.69,1.69,0,0,1,64.9,79.74Z" style="fill:#9a9f86;fill-rule:evenodd"/><path d="M89.87,52.86l.58-.56a4.63,4.63,0,0,1,1.79,2.5.72.72,0,0,1-.68.6A2.49,2.49,0,0,1,89.87,52.86Z" style="fill:#b1adad;fill-rule:evenodd"/><path d="M146.07,78.41c0-.43,0-.86-.56-1a1,1,0,0,1-.41-.11,3.21,3.21,0,0,1,3.34-.06A1.69,1.69,0,0,1,146.07,78.41Z" style="fill:#728273;fill-rule:evenodd"/><path d="M33.73,188.71a1.9,1.9,0,0,1,0,.4c-1.42.15-2.84.75-4.27,0,0-.17,0-.35,0-.52,1.13-.86,2.38-.61,3.62-.4A1.45,1.45,0,0,1,33.73,188.71Z" style="fill:#9b7777;fill-rule:evenodd"/><path d="M91.73,55.37l.51-.57a4.56,4.56,0,0,1,1,2.4l-.45.51-.35,0A1.56,1.56,0,0,1,91.73,55.37Z" style="fill:#9f9c9c;fill-rule:evenodd"/><path d="M45.29,127.76l.43,1.08c-.65-.12-1.3-.23-1.3.77h-.55a1.32,1.32,0,0,1-.52-1.15,1.75,1.75,0,0,1,.39-1.2.92.92,0,0,1,.58-.19A1.41,1.41,0,0,1,45.29,127.76Z" style="fill:#6b6e6b;fill-rule:evenodd"/><path d="M104.77,78.22l-2,.13-2.21-.11a.41.41,0,0,1,.05-.64,2.36,2.36,0,0,1,1.07-.36,5.71,5.71,0,0,1,3,.33A.45.45,0,0,1,104.77,78.22Z" style="fill:#965c5b;fill-rule:evenodd"/><path d="M135.42,29.8l-.49,0c-.49-.94-.88-1.85.52-2.38H136A4.39,4.39,0,0,1,135.42,29.8Z" style="fill:#8d8f8f;fill-rule:evenodd"/><path d="M73.11,46.58q0,.25,0,.5a1.5,1.5,0,0,1-1.82,1l-.56-.48C71.48,47.18,72.13,46.5,73.11,46.58Z" style="fill:#977a7a;fill-rule:evenodd"/><path d="M43.37,76.52V76a5.68,5.68,0,0,1,2.86,0l-.52.45A1.78,1.78,0,0,1,43.37,76.52Z" style="fill:#925c5c;fill-rule:evenodd"/><path d="M100.41,77.83a1.57,1.57,0,0,0,.1.41c-1,.09-2,.35-2.94-.33v-.2A2.11,2.11,0,0,1,100.41,77.83Z" style="fill:#7f9493;fill-rule:evenodd"/><path d="M66.93,57c1,.08,2-.2,2.87.56C68.84,57.45,67.71,58.15,66.93,57Z" style="fill:#fff;fill-rule:evenodd"/><path d="M39,81.58c-.88,1-2,.36-3,.5C36.86,81.25,38,81.77,39,81.58Z" style="fill:#c06e6e;fill-rule:evenodd"/><path d="M61,1l.53.55c-.58.29-.28,1.13-.88,1.41A2.77,2.77,0,0,1,61,1Z" style="fill:#9d999d;fill-rule:evenodd"/><path d="M53.85,123c.12-.51,0-1.11.5-1.47l.11.84c-.17.49.07,1.11-.47,1.49A.57.57,0,0,1,53.85,123Z" style="fill:#686561;fill-rule:evenodd"/><path d="M42.91,82.15h.4a2.61,2.61,0,0,0,.48,1.48l-.56.52C42.17,83.63,42.31,82.92,42.91,82.15Z" style="fill:#726767;fill-rule:evenodd"/><path d="M59.26,3.35c-1.22.61-1.08-.2-1-1Z" style="fill:#89888e;fill-rule:evenodd"/><path d="M57.78,2.46c0-.66-.26-1.38.41-1.91a3.53,3.53,0,0,1,.09,1.85Z" style="fill:#89888e;fill-rule:evenodd"/><path d="M71.66,57.31a1.36,1.36,0,0,1-1,.33.74.74,0,0,1-.41-.17l.47-.33A.58.58,0,0,1,71.66,57.31Z" style="fill:#9c6b6b;fill-rule:evenodd"/><path d="M65.42,81.62l-.44.51v-.52A1.41,1.41,0,0,0,65.42,81.62Z" style="fill:#83736f;fill-rule:evenodd"/><path d="M65,81.63a2.8,2.8,0,0,1-.25-.3s.1-.1.15-.15A.9.9,0,0,1,65,81.63Z" style="fill:#83736f;fill-rule:evenodd"/><path d="M131.64,46.62q0,.94,0,1.89c-.85.92-2.38,1.3-2.32,2.93-.65,1.36-.22,3-1,4.3-2,.54-3.91,1.08-5.34,2.79-.71.84-1.75.5-2.58-.19-2.65-2.18-4.54-2.1-8,.3-1.87,1.31-4.19,2.07-5.21,4.39-.25,1.62-1.28,3.42,1,4.47,2.16.36,4.26-.34,6.4-.39l.69.06a2.57,2.57,0,0,0,.65-.18c.84-.3,1.46-1,2.36-1.2a5.59,5.59,0,0,1,1.24-.6c.9-.19,1.59.18,1.59,1.15a17.22,17.22,0,0,0,.42,2.74,6.16,6.16,0,0,0-2.63,2.33,8.24,8.24,0,0,1-3.6,3.07c-3.6-1.23-7-3-10.49-4.41a4.18,4.18,0,0,0-.53-1.31,7.5,7.5,0,0,1-2-6.14,1.62,1.62,0,0,0-1-1.71,1.21,1.21,0,0,1-.63-1.78,15.53,15.53,0,0,0,.87-3.44,7.16,7.16,0,0,1,3.23-4.81c.59-.3,1.13,0,1.68.15,2.19,1,4-.54,5.91-1a22.38,22.38,0,0,1,3-.76,1.5,1.5,0,0,1,1.61.47c.64,1.47,2,.72,3,1a5.93,5.93,0,0,0,2.25.8,5.18,5.18,0,0,0,2.7-.07,2.29,2.29,0,0,0,1.24-.36c-.63.3-1.32.29-1.95.52a9.33,9.33,0,0,1-1.69,0,9.73,9.73,0,0,1-2.64-.9c-.69,0-1.38,0-2.06-.05a2.32,2.32,0,0,0-3.37-1.17,21.19,21.19,0,0,0-2.6.69c-1.45.16-2.68,1.77-4.32.66a1,1,0,0,1,0-.72c3.32-1.67,6.45-3.82,10-4.92a6,6,0,0,1,6.59,2.28c1.32,1.63,3.3,1.28,3.78-.57.21-.82.3-1.59,1.31-1.68S131.3,45.36,131.64,46.62Z" style="fill:#fff;fill-rule:evenodd"/><path d="M71.66,57.31l-.93-.17c-.31-.45-.84-.37-1.27-.53s-.68-.26-.76-.49c-.14-.41.65-1.08-.24-1.3a5.11,5.11,0,0,0-2.58.06c-.33-.14-.83-.17-.62-.74a6,6,0,0,1,2.25-2.93,34.92,34.92,0,0,0,3.77-3.12l1.82-1c3.42-.9,6.74-.19,10.05.6a30.45,30.45,0,0,1,6.71,5.18l1.86,2.51.69,2.29a.65.65,0,0,1-1,.2l-2.54-1.61-.27,0a2.84,2.84,0,0,1-.54-.14,3.24,3.24,0,0,1-.52-.24,2.46,2.46,0,0,1-1-.57c-.53,0-1.11-.13-1.42.5.54,1,.7,2.08-.81,2C82,57.6,82.32,58.58,83,60a4.16,4.16,0,0,1,.63,1.54c.18.44.37.88.54,1.32.41,1.06-.07,1.49-1.09,1.51l-2.87.05c-1.85,0-3.26-1-4.65-2a6,6,0,0,1-.8-1.67C74.52,58.83,73.25,57.95,71.66,57.31Z" style="fill:#fff;fill-rule:evenodd"/><path d="M83.65,61.54a5,5,0,0,1-1.79-2.95c-.41-1.16-.07-1.49,1.26-1.47a1.45,1.45,0,0,1,.47,0c1.44.53,1.5-.42,1.53-1.41a1,1,0,0,1,.21.11c.75.65,1.49,1.5,1,2.43-.4.76-1.44.27-2.21.24-.23,0-.46-.18-.79.16C82.7,59.59,84.7,60.45,83.65,61.54Z" style="fill:#91857a;fill-rule:evenodd"/><path d="M106.21,51.44l-1.45-.56a3.62,3.62,0,0,1-.81-3.77l.91.36h.31a4.89,4.89,0,0,1,1.56.35,1.91,1.91,0,0,1,1,2.6l-.09,0C107.4,51.1,107.3,52,106.21,51.44Z" style="fill:#635f5d;fill-rule:evenodd"/><path d="M101.86,69.25a1.28,1.28,0,0,1-1,.47c-.06.05-.12.15-.18.15a12.42,12.42,0,0,0-6.4,1.8L93.65,71c1.62-2.49,4-2.74,6.62-2.19C100.8,69,101.33,69.11,101.86,69.25Z" style="fill:#807269;fill-rule:evenodd"/><path d="M88.07,55.69a.74.74,0,0,1,.4.07,1.86,1.86,0,0,1,.43.47h0c-1,.9-1.65.05-2.34-.52A1.36,1.36,0,0,1,88.07,55.69Z" style="fill:#93957e;fill-rule:evenodd"/><path d="M88.07,55.69l-1.51,0a1.13,1.13,0,0,1,0-.47C87.11,55.19,87.68,55.13,88.07,55.69Z" style="fill:#c07171;fill-rule:evenodd"/><path d="M106.68,62.89a3.3,3.3,0,0,1,1.61-2.28c1.85-1.24,3.77-2.37,5.7-3.49a5.19,5.19,0,0,1,6,.37c1.81,1.28,1.87,1.24,3.61-.34a5.7,5.7,0,0,1,4.65-1.41c.4.72.16,1-.63,1a4.39,4.39,0,0,0-3.76,1.71c-1,1.18-1,1.46-.09,2.64.37.47,1.1.71,1,1.53-.66.44-1-.12-1.39-.47-1-1-2-2.09-3-3.06-2.23-2.05-4.26-2.5-7.25-.29-1.15.85-2.61,1.2-3.55,2.34-.93.91-1.21,2.42-2.63,2.9C106.42,63.75,106.39,63.36,106.68,62.89Z" style="fill:#8d7e74;fill-rule:evenodd"/><path d="M107.13,63.84c.64-1.07.83-2.55,2.46-2.73a.61.61,0,0,0,0,.36c.38,2.14,2.43,2,3.8,2.83l.45.47c0,.5-.4,1,.08,1.5.47.09,1-.07,1.36.39a1,1,0,0,1-.47.54,2.34,2.34,0,0,1-1.07.27c-1.92,0-3.8.59-5.73.35C106.36,66.81,106.47,65.39,107.13,63.84Z" style="fill:#f3f4f3;fill-rule:evenodd"/><path d="M129.72,67.34c-.32.53-1.16.22-1.42.86,1.31,1.72,1.29,2.42-.14,2.83-.92.26-2.23.45-2.57-.47-.42-1.12,1.07-1.52,1.69-2.26-.14-.74-1.06-.45-1.34-1,1-.36,1.16-1,.12-1.32a11.49,11.49,0,0,0-2.56-.21.84.84,0,0,1-.8-.73c-.06-.53.36-.61.75-.7a.58.58,0,0,1,.54-.11,1.59,1.59,0,0,0,1.62.16l.28,0c.93.05,1.36.73,1.66,1.46A2.37,2.37,0,0,0,129.72,67.34Z" style="fill:#7b6d67;fill-rule:evenodd"/><path d="M113.4,64.3c-1.53.69-2.67-.42-3.86-1-.88-.4-.05-1.23.06-1.87C111.13,62.07,112.69,62.61,113.4,64.3Z" style="fill:#817a78;fill-rule:evenodd"/><path d="M114.86,66.89l.45-.23.52.08a.32.32,0,0,1,.13.34c0,.12-.08.18-.12.18h0a1.83,1.83,0,0,1-.53.33c-2.53.25-5,1-7.59.57-.13-.42,0-.62.45-.49a27.28,27.28,0,0,1,6.11-.52A3.65,3.65,0,0,0,114.86,66.89Z" style="fill:#9a6868;fill-rule:evenodd"/><path d="M115.84,67.26c0-.17,0-.34,0-.52.49-.38,1-.78,1.48-1.14a.6.6,0,0,1,1,.18A3.73,3.73,0,0,1,115.84,67.26Z" style="fill:#a0908c;fill-rule:evenodd"/><path d="M113.94,66.27c-.32,0-.74.1-.86-.21-.24-.67.36-.95.77-1.29C114.71,65.23,114.11,65.76,113.94,66.27Z" style="fill:#9d8e81;fill-rule:evenodd"/><path d="M124,64.38l-.53,0a1.65,1.65,0,0,1,2.45,0v0A1.53,1.53,0,0,1,124,64.38Z" style="fill:#a2655f;fill-rule:evenodd"/><path d="M65.82,39.81c-4.24,0-8.47.07-12.71.15-.85,0-1.77-.28-2.55.34l-40.12.05c-1.51,0-3,.07-4.53.11-1.1,0-2.2-.06-3.29-.11C.9,40.26.7,40.09.65,38.44c0-1.41,0-2.82,0-4.24.58-.79.34-1.69.35-2.55,0-5.67,0-11.33,0-17,0-2.63,0-2.62,2.55-3.16a3.74,3.74,0,0,0,.85-.42q.26-.35.48,0a4.58,4.58,0,0,0,4.31,0v0a4.59,4.59,0,0,0,.49.4c.79,0,1.59.1,2.38.1h42c.87,0,1.75-.08,2.62-.12a1,1,0,0,0,.42,0,1.22,1.22,0,0,1,.53-.24,1.08,1.08,0,0,1,.52.23,13.64,13.64,0,0,0,3.28-.17,9.26,9.26,0,0,1,3.54.46c.4.08.58.56.65.94a9.37,9.37,0,0,1,.14,1.66Q65.84,27.1,65.82,39.81Z" style="fill:#dcc39a;fill-rule:evenodd"/><path d="M6.31,7.74q0-1.22,0-2.43c.3-.32.7-.51.87,0a6.91,6.91,0,0,1,.07,2.74.4.4,0,0,1-.47.38C6.42,8.39,6.42,8,6.31,7.74Z" style="fill:#aaadb8;fill-rule:evenodd"/><path d="M4.93,11.09l-.48,0c.14-.87-.31-1.86.55-2.89C5.42,9.34,4.69,10.22,4.93,11.09Z" style="fill:#b0a68a;fill-rule:evenodd"/><path d="M6.84,9.72c.38,0,.74.09.77.47,0,.59-.48.5-.83.52s-.7,0-.71-.41C6,9.76,6.51,9.76,6.84,9.72Z" style="fill:#f7f7f7;fill-rule:evenodd"/><path d="M94.28,71.66c.34-.32.68-.63,1-1a3.36,3.36,0,0,1,4-1.13,5.82,5.82,0,0,0,1.62.15,112.33,112.33,0,0,1,13.55,5.7,10,10,0,0,1,1.79,1.15c.67.58.16.94-.37,1.24a62.13,62.13,0,0,1-11.07.07l-3.31-.09c-1.25-.57-2.63.11-3.89-.4a4,4,0,0,1-2.2-.7A2.8,2.8,0,0,1,94,73.5C94.13,72.9,94.18,72.27,94.28,71.66Z" style="fill:#dbac9a;fill-rule:evenodd"/><path d="M92.81,71.83c-2,.37-4,.83-5.56-1.15a3,3,0,0,0-2.56-1H80.6a10.73,10.73,0,0,1,4.55-.83c.68.08.84-.31.74-.85s-.62-.9-.32-1.7c1.54,1.42,2.05,4.32,5.11,3.1C90.86,70.58,91.09,71.83,92.81,71.83Z" style="fill:#8dcc93;fill-rule:evenodd"/><path d="M80.31,66.76c-.66-.79-2-.5-2.55-1.69,1.66-.68,2.94.62,4.39.76,0,.41,1.24,1.28-.41,1A14.31,14.31,0,0,0,80.31,66.76Z" style="fill:#86bd8e;fill-rule:evenodd"/><path d="M97.56,77.37c1.3.08,2.67-.47,3.89.4l-1,.05-2.85-.11A1.45,1.45,0,0,0,97.56,77.37Z" style="fill:#ba726c;fill-rule:evenodd"/><path d="M9.73,11.49a.43.43,0,0,1-.49-.4Z" style="fill:#7a7674;fill-rule:evenodd"/><path d="M39.53,159.88,39,173.7c-.89,3-3,4.63-5.95,5.42-1.09.29-2.36.38-3.15,1.43a2,2,0,0,1-1.78,1.6c-1.47.3-3,.51-4.43.81-1.23-.06-1.66-1-1.76-1.95a2.94,2.94,0,0,0-1.64-2.43c-5.38-3.18-7-7.94-5.82-13.89.31-1.56.43-3.15.64-4.72,2.34-4.6,2.78-9.69,3.79-14.64a63.43,63.43,0,0,1,2.37-9,75.49,75.49,0,0,1,3.42-10.91c.85-2,1.2-2.28,3.2-1.84a10.2,10.2,0,0,0,5,0c.77-.21,1.48-.24,1.8.62a4.22,4.22,0,0,0,2.77,2.44,1.61,1.61,0,0,1,1.21,1.57c0,1.15-.25,1.45-1.37,1.17-.69-.17-1.37-.42-2-.63a9.58,9.58,0,0,1-3.28,0c-1.34.39-2.8.55-3.63,1.89.44.7.86.29,1.21.06,2.95-1.93,5.87-1,8.82,0,.92.32.43,1.8,1.64,1.75.81-1.28,2-2,3.37-1.27s1.59,2.21,1,3.7a3.57,3.57,0,0,1-3.74,1.94,21.61,21.61,0,0,1-4.49-.39c-.67.24-1.39,0-2.05.22l-1.8.4c.81-.12,1.39-.3,2-.42.33-.07.66-.14.88.22a9,9,0,0,0,4.14.93c1.07,0,1.55.51,1.72,1.56a69.3,69.3,0,0,0,1.79,7.92,7.42,7.42,0,0,1-.71,5.11A30.81,30.81,0,0,0,39.53,159.88Z" style="fill:#dcc39a;fill-rule:evenodd"/><path d="M29.49,97.58c1-2.13,2.48-4,2.54-6.59a14.9,14.9,0,0,0-.21-2.08c-.38-.56,0-1,.16-1.55.76-1-.13-2.05.13-3.06l.2-.25c.91.49,1.79.7,2.52-.3,1-1.41,2.43-1.3,3.87-1,.74.15,1.47.76,2.17-.08,3.14,1.75,3.43,3.61.89,5.73-.31.26-.63.49-.91.77a24.68,24.68,0,0,0-5.56,5.19c-3,4-2.57,6.84,1.1,10.17,1.26,1.14,3.21,1.54,3.76,3.44-1,1.31.13,3.63-2.25,4.35a4.45,4.45,0,0,1,1.48.68A7.07,7.07,0,0,1,42,115.66c.65,1.3.86,2.54-.27,3.72A6.67,6.67,0,0,0,40.15,123a3.55,3.55,0,0,1-1.1,2.3c-1.54.49-2.75.12-3.32-1.09a5.81,5.81,0,0,1-.55-2.54c0-.5.19-1.12-.46-1.45-1.25,2.71-1.25,2.67-4.56,2.69a13.42,13.42,0,0,1-5.47-1.48c-2.9-2-4.52-7.75-2.28-11.89a89.05,89.05,0,0,1,5.47-8.36A6.69,6.69,0,0,0,29.49,97.58Z" style="fill:#c3c5d4;fill-rule:evenodd"/><path d="M44.32,134.93c-.09-3.7-1.19-4.31-4.4-2.43.27-2.41-.85-4.75-.38-7.18-.2-.52.08-.59.5-.53.72.79.42,1.83.67,2.74.11.39.23.83.72.82s.56-.45.74-.82c.36-.76-.28-2.21,1.4-2.09.75.92-.29,2,.2,2.88l.11,1.29c-.19,1,.47,1.82.77,2.72S45.36,134.19,44.32,134.93Z" style="fill:#cbbf98;fill-rule:evenodd"/><path d="M39.89,124.83l-.36.5H39c.39-1.28.36-2.64.87-3.9a4.73,4.73,0,0,1,1.25-2.24c1.26-.94.95-2,.4-3.11A9.66,9.66,0,0,0,39,113.34a.82.82,0,0,1,.68-.66c1.51.25,1.9,1.82,3,2.55a34.46,34.46,0,0,1,1.71,4.29,1.14,1.14,0,0,1-.55.36c-1.59.06-2.31,1.1-2.84,2.43C40.69,123.16,40.77,124.22,39.89,124.83Z" style="fill:#89807d;fill-rule:evenodd"/><path d="M31.88,128.8a10.19,10.19,0,0,1,3.28,0A3.41,3.41,0,0,1,31.88,128.8Z" style="fill:#9e5a58;fill-rule:evenodd"/><path d="M107.75,50.42A2.3,2.3,0,0,0,106.26,48c-.4-.38-1.08,0-1.42-.49l0,0c0-.23,0-.57.16-.68,2.07-1.52,1.44-3.13.32-4.89a4,4,0,0,1,.23-4.47c1-1.61,2.43-2.91,3-4.76a5.77,5.77,0,0,1,1.58-3.42c.55-.47.25-1,.13-1.53-.36-1.61-.23-1.76,1.47-1.78a9.24,9.24,0,0,1,1.19.14,2.84,2.84,0,0,1,.61,2.54,1.43,1.43,0,0,0,1.3,0c2.76-1.17,5.44-.72,8.09.4,1.75.74,1.76.71,3.08-.78.26-.29.56-.56.84-.83.77-.3,1.63-1.14,2.35-.48s-.12,1.44-.33,2.16c-.07.23-.12.46-.18.69a1.84,1.84,0,0,0,0,1.64,2.75,2.75,0,0,0,1.06.95,2.89,2.89,0,0,1,.49.42c1.07,1.74,2.18,3.47,1.91,5.66,0,2,0,4-.1,5.93,0,.76.27,1.6-.43,2.23-.54-.31-.93-.85-1.61-1-1.18-.2-1.62.09-1.32,1.26.33,1.32-.36,1.74-1.38,2a11.37,11.37,0,0,0-1.41.2c-1,.4-1.51.15-2.07-.83-1.68-3-6.18-3.86-8.67-1.59A10.37,10.37,0,0,1,109,49.47C108.34,49.54,108.18,50.11,107.75,50.42Z" style="fill:#dcc69a;fill-rule:evenodd"/><path d="M129.12,32.64l-.79-.84c0-.58.44-.83.85-1.11a21.79,21.79,0,0,1,5-3.91c.83-.45,1.13-.14,1.32.62-.62.69-.44,1.56-.52,2.38a6.35,6.35,0,0,0-1.17,2.27,1.4,1.4,0,0,0,.18,1.74c.59.55.66.93-.14,1.41-1.11.66-.4,1.27.22,1.81,0,1.22-1.07,1.17-1.84,1.45-.82-1.88-1.28-3.91-2.38-5.67.05-.22.22-.39.28-.62A4.41,4.41,0,0,0,129.12,32.64Z" style="fill:#f8fafa;fill-rule:evenodd"/><path d="M129.18,30.7a1.62,1.62,0,0,1-.85,1.11c-1-.88,0-1.39.39-2C128.81,30.13,128.84,30.49,129.18,30.7Z" style="fill:#9e9a8f;fill-rule:evenodd"/><path d="M33.76,136.45a4.67,4.67,0,0,1,2.31,0c-.24.33-.63.34-1,.42l-.81,0C33.77,137.16,33.72,136.86,33.76,136.45Z" style="fill:#905b58;fill-rule:evenodd"/><path d="M33.15,188.61H29.43l-2.5-3.74a1.46,1.46,0,0,1,.47-2.07c1.28-.8,2.41-.22,3.51.48a4.85,4.85,0,0,0,2.23.65c.87.76,1.92.42,2.9.46a5.87,5.87,0,0,1,2.94.47c.28.39.58.76.83,1.16.64,1,.38,1.8-.78,2.23C37.09,188.75,35.09,188.13,33.15,188.61Z" style="fill:#fcfdfc;fill-rule:evenodd"/><path d="M30.92,183.29a4,4,0,0,1-1.58-.16c-1.75-.35-1.9-.21-2.4,1.75-1-.74-2.34-1-3.28-1.93.36-.87,1.12-.9,1.92-1,1.49-.24,3.13-.1,4.28-1.39C29.65,181.67,30.72,182.32,30.92,183.29Z" style="fill:#cec29c;fill-rule:evenodd"/><path d="M110.16,29.26c.18,1.47-.73,2.43-1.58,3.42a1.26,1.26,0,0,0-.38,0,6.31,6.31,0,0,0-.54.37c-.67.49-1.19.43-1.37-.46a10.38,10.38,0,0,1-.1-1.4c-.12-.37-.45-.86-.32-1.08,1.31-2.24.56-4.72.86-7.06A16.63,16.63,0,0,1,110.16,29.26Z" style="fill:#f6f7f7;fill-rule:evenodd"/><path d="M58.24,11.5l-.22,0H57.8a2.93,2.93,0,0,1,.4-3.29c.56.27.64.91,1,1.34a1.22,1.22,0,0,1-.48,1A.91.91,0,0,0,58.24,11.5Z" style="fill:#878985;fill-rule:evenodd"/><path d="M58.71,10.6a.94.94,0,0,1,.48-1,.77.77,0,0,0,.46,0,.83.83,0,0,1,1,.11c.26.44.48.9-.29,1A11.63,11.63,0,0,1,58.71,10.6Z" style="fill:#d2ecec;fill-rule:evenodd"/><path d="M59.68,8.65V4.88c.67,1.07.38,2.23.54,3.33a2.2,2.2,0,0,0-.12.42C60,8.91,59.83,8.9,59.68,8.65Z" style="fill:#b1b4c0;fill-rule:evenodd"/><path d="M59.68,8.65a1.56,1.56,0,0,0,.41,0l.53,1-1-.11Z" style="fill:#878985;fill-rule:evenodd"/><path d="M39.95,108.07c-1-1.44-2.72-2.07-4-3.17-3.75-3.14-4.19-6.21-1.59-10.17a18.81,18.81,0,0,1,6.16-5.88.84.84,0,0,1,1-.12.45.45,0,0,1,.14.41c0,.14-.06.21-.1.21-.88,1.82-.8,3.89-1.51,5.76a1.77,1.77,0,0,0,.37,1.58c1.73,2.69,1.83,5.72,1.94,8.76.05,1.42-.24,2.89.45,4.24a6.65,6.65,0,0,0,.54.77,7.77,7.77,0,0,0,.14,1.37c.4,1.43-.33,1.62-1.47,1.41-.94-.53-1.12-1.58-1.65-2.38a5.75,5.75,0,0,1-.3-.59C39.71,109.54,39.33,108.82,39.95,108.07Z" style="fill:#fff;fill-rule:evenodd"/><path d="M41.47,88.85h-1L41.59,88c.62-.49,1.39-.87,1.56-1.74s-.73-1.12-1.26-1.52c-.68-.52-.09-1.66-1-2L40,82.12c.45-2.27,1.11-4.42,3.37-5.6l2.32-.12c.45.57.36,1.06-.31,1.33-2,.81-2.62,2.4-2.47,4.42,0,.68-.52,1.45.33,2,1.44,1.9,1.41,2.22-.32,3.83a1.33,1.33,0,0,0-.51.4l0,0-.48.43,0,0A.24.24,0,0,1,41.47,88.85Z" style="fill:#f1f5f5;fill-rule:evenodd"/><path d="M42.41,88.36a.57.57,0,0,1,.51-.4Z" style="fill:#c3c5d4;fill-rule:evenodd"/><path d="M41.91,88.82a.58.58,0,0,1,.48-.43Z" style="fill:#c3c5d4;fill-rule:evenodd"/><path d="M41.47,88.85h.42l-.4.51Z" style="fill:#c3c5d4;fill-rule:evenodd"/><path d="M146.07,78.41l2.37-1.19a3.8,3.8,0,0,0,1.55-.76,32.21,32.21,0,0,1,7.59-3.94,14.49,14.49,0,0,0,4.62-4.1c.56-.73,1.18-1.54-.27-2.3-1-.51.07-.95.43-1.35,1.14-.38,2.08-1.21,3.28-1.43.36-.06.79-.34,1,.23a.63.63,0,0,1-.34.81c-1.89.46-2,1.88-2.19,3.47-.23,1.89-.81,3.73-1.23,5.6A20.27,20.27,0,0,1,161.56,77a6.93,6.93,0,0,1-5,4.06l-10.52,0C144.93,80,144.93,80,146.07,78.41Z" style="fill:#dbd89a;fill-rule:evenodd"/><path d="M25.59,85.91c-.22-.6-.48-1.18-.65-1.79-.47-1.62-.09-2.31,1.53-2.43,2.31-.18,4.46.18,5.84,2.37h0c-1.05.79-2-.67-3-.19-1.64-.31-1.62,1.26-2.3,2l0,.19C26.5,86.18,26,86.38,25.59,85.91Z" style="fill:#b9c0cd;fill-rule:evenodd"/><path d="M29.23,80.59A3,3,0,0,1,27,80.5C27.66,79.87,28.19,80.24,29.23,80.59Z" style="fill:#96b5c1;fill-rule:evenodd"/><path d="M25.59,85.91l1.4.16c-.37.49-.85.35-1.33.24A1.81,1.81,0,0,1,25.59,85.91Z" style="fill:#8f5e5e;fill-rule:evenodd"/><path d="M58.2,8.22a7.63,7.63,0,0,0-.4,3.29h-.61c0-.8.05-1.6.09-2.4A.87.87,0,0,1,58.2,8.22Z" style="fill:#b8ac8c;fill-rule:evenodd"/><path d="M61.58,3.87l-.39.5Z" style="fill:#9d999d;fill-rule:evenodd"/><path d="M63.06,80.2l.92.05a4.41,4.41,0,0,1-2.34,2.56c-.8.3-1.59.49-2.15-.29a1.83,1.83,0,0,1,0-2.23,1.76,1.76,0,0,1,2.06-.79C62.07,79.68,62.56,80,63.06,80.2Z" style="fill:#83736f;fill-rule:evenodd"/><path d="M44.22,119.58a9.79,9.79,0,0,1-1.9-4.3c-.14-.84.47-.85,1-.93,2.11-2.13,2.07-2,4.88-.54,3.39,1.79,5.32,4.38,5.29,8.3a2.6,2.6,0,0,0,.34.86l.14.86c.14.71.93,1.13.9,1.93a4.71,4.71,0,0,1-1.43,3.93c-2.22,1-4-.38-6-1.08,1.19-.4,2.63-.3,2.61-2.06,0-1.09-.07-2.1-1.5-2.22-1.44-.65-3.07.25-4.5-.52A4.4,4.4,0,0,1,44.22,119.58Z" style="fill:#dbc39a;fill-rule:evenodd"/><path d="M44.22,119.58l.13,4.22c.12.22.4.31.46.57s0,.29,0,.43a2.53,2.53,0,0,1-.46,2.42c-.44.24-.5.67-.57,1.1-.68-.91-.12-2-.45-3-1.17-2-.26-3.86.34-5.75Z" style="fill:#77726b;fill-rule:evenodd"/><path d="M46.71,124.85a2.45,2.45,0,0,1,1.8.13,1.65,1.65,0,0,1,.91,1.72c-.13.69-.86.5-1.33.68a1.36,1.36,0,0,1-1,0C46.25,126.63,45.49,125.88,46.71,124.85Z" style="fill:#d6dfe0;fill-rule:evenodd"/><path d="M46.71,124.85c-.57.93.11,1.61.47,2.35a3.48,3.48,0,0,1-2.87,0h0c0-.85-.44-1.76.46-2.42Z" style="fill:#bfc3d0;fill-rule:evenodd"/><path d="M53.46,129.7c-.1-.11-.31-.32-.3-.33,1-1,1.13-2.41,1.72-3.6C55.62,127.89,55.38,128.57,53.46,129.7Z" style="fill:#e1dad1;fill-rule:evenodd"/><path d="M44.81,124.37a.72.72,0,0,1-.46-.57c1.4.32,2.93-.41,4.25.54Z" style="fill:#a96660;fill-rule:evenodd"/><path d="M44.31,127.23l2.87,0,.9.18c-.86.66-1.87.23-2.79.39A1.08,1.08,0,0,1,44.31,127.23Z" style="fill:#935858;fill-rule:evenodd"/><path d="M104.76,77.87l11.07-.07q0,.21,0,.42h-11A2.58,2.58,0,0,0,104.76,77.87Z" style="fill:#b16e69;fill-rule:evenodd"/><path d="M68.4,84a2.79,2.79,0,0,1-1.82-.38c-.75-.47-.83-1.16-.14-1.7a3.23,3.23,0,0,1,1.94-.76c.85,0,1.59.14,1.78,1.13s-.56,1.36-1.31,1.64A1.25,1.25,0,0,1,68.4,84Z" style="fill:#82726f;fill-rule:evenodd"/><path d="M70.71,81.16l.44.48Z" style="fill:#82726f;fill-rule:evenodd"/><path d="M40.49,110.4c.95.71,1,1.89,1.45,2.84l0,.62c-1.08.31-1.22-1.46-2.33-1.07l-.55.54a8,8,0,0,1-2.33-1.39c.62-.56,1.61.32,2-.54a5.29,5.29,0,0,0,.26-2.07c.05-.63,0-1.3,1-1.26l.55,2.33Z" style="fill:#7c7573;fill-rule:evenodd"/><path d="M39.56,112.79c.41-.56.87-.57,1.27,0a3.12,3.12,0,0,0,1.06,1.12l.5.39a.77.77,0,0,1,.93-.05v.15l-1,.93Z" style="fill:#b5ae8d;fill-rule:evenodd"/><path d="M43.33,114.2l-.93.05C42.68,113.8,43,113.78,43.33,114.2Z" style="fill:#7c7573;fill-rule:evenodd"/><path d="M141.8,72.11c3,.52,6,0,9-.08a1.72,1.72,0,0,1,1.83-.33c-1.44-.19-2.82-.71-4.25-.15a8.52,8.52,0,0,1-3.72-.51c-1.06-1.15-2.34-2.14-2-4,.25-1.43.61-1.73,1.82-1a18.65,18.65,0,0,0,3.45,2.09,6.77,6.77,0,0,0,3.24.6c.81.46,1.76,0,2.57.39h6.32c-1.26,1.27-3.24,1.13-2.95,3a14.2,14.2,0,0,1-7.68,3.82,9.73,9.73,0,0,1-4.95.34A3,3,0,0,1,141.8,72.11Z" style="fill:#dad79a;fill-rule:evenodd"/><path d="M149.45,75.94a61.53,61.53,0,0,0,7.68-3.82l.45.41A20.68,20.68,0,0,1,150,76.46Z" style="fill:#877c69;fill-rule:evenodd"/><path d="M153.76,69.11c-.89.05-1.8.31-2.57-.39l2.55,0C153.74,68.87,153.75,69,153.76,69.11Z" style="fill:#748f74;fill-rule:evenodd"/><path d="M107.65,33.11a.51.51,0,0,1,.54-.37Z" style="fill:#dcc69a;fill-rule:evenodd"/><path d="M27,85.87a6.69,6.69,0,0,1,0-.71c.13-2,.37-2.21,2.5-1.66,2.33.34,2,2.52,2.77,4a3.17,3.17,0,0,1-.46,1.46,2,2,0,0,1-2-1.11A3.68,3.68,0,0,0,27,85.87Z" style="fill:#f6f8f9;fill-rule:evenodd"/><path d="M127.28,68.3c.33,1.25-.91,1.47-1.77,2.23.8.05,1.27.12,1.73.1,1.7-.07,1.7-.09,1.06-1.73a2,2,0,0,1,0-.71,7.19,7.19,0,0,1,4.3,1.12A4.86,4.86,0,0,1,135,73.46c0,1.11,0,2.23,0,3.34a10.14,10.14,0,0,1-4.3,4.37l-4.8-.08c-1.68-.77-3.33-1.57-4.26-3.3a9.36,9.36,0,0,1-.55-3.94A5.72,5.72,0,0,1,127.28,68.3Z" style="fill:#dca29a;fill-rule:evenodd"/><path d="M33.15,188.61c1.92-.83,3.92-.29,5.88-.36-1.7.9-3.54.19-5.3.45Z" style="fill:#d38080;fill-rule:evenodd"/><path d="M148.42,71.54a7.6,7.6,0,0,1,5.85,0,5.8,5.8,0,0,1-3.38,0Z" style="fill:#ae6e62;fill-rule:evenodd"/><path d="M150.9,71.59l3.38,0c-1,.92-2.28.35-3.44.45C150.86,71.88,150.88,71.74,150.9,71.59Z" style="fill:#7ba47e;fill-rule:evenodd"/><path d="M106.21,51.44c.71,0,1-.66,1.45-1,.41.62.94.39,1.47.23l2.71-.82c.5-.16.68.05.61.54l-3.32,1.28A2.74,2.74,0,0,1,106.21,51.44Z" style="fill:#948d8d;fill-rule:evenodd"/><path d="M108.18,67.67l-.45.49c-1.83-1.39-2-2.45-1-5.27.06.36.07.74.44,1C107.15,65.21,107,66.62,108.18,67.67Z" style="fill:#979797;fill-rule:evenodd"/><path d="M114.44,49.09c.45-.12.89-.26,1.34-.36,1.73-.39,1.78-.35,2.14,1.6-.63.64-.83-.15-1.21-.36l-1.27-.39C115,49.64,114.41,50,114.44,49.09Z" style="fill:#938080;fill-rule:evenodd"/><path d="M124.39,51.3l2.13-.92c.36-.15.79-.35,1,.15s-.28.69-.61.86a2,2,0,0,1-1.55.4C125.07,51.52,124.53,51.8,124.39,51.3Z" style="fill:#b1a6a6;fill-rule:evenodd"/><path d="M114.44,49.09c.23.37.65.37,1,.49a7.59,7.59,0,0,1-3,.8l-.61-.54A4.65,4.65,0,0,1,114.44,49.09Z" style="fill:#b1a0a0;fill-rule:evenodd"/><path d="M122.11,51.82a1.74,1.74,0,0,1-2-.77q-.37-.31,0-.6a6.21,6.21,0,0,1,2.45.89C122.57,51.64,122.28,51.67,122.11,51.82Z" style="fill:#9d9898;fill-rule:evenodd"/><path d="M120.14,50.45c0,.2,0,.4,0,.6-.8,0-1.6-.07-2.39-.07s-1-.32-1-1l1.2.36A6.76,6.76,0,0,1,120.14,50.45Z" style="fill:#706565;fill-rule:evenodd"/><path d="M122.11,51.82l.48-.49,1.79,0c.33.14.73.13.95.49A8.37,8.37,0,0,1,122.11,51.82Z" style="fill:#7c6262;fill-rule:evenodd"/><path d="M115.32,67.59l.53-.33A.46.46,0,0,1,115.32,67.59Z" style="fill:#a0908c;fill-rule:evenodd"/><path d="M88.89,56.24l-.43-.47A.44.44,0,0,1,88.89,56.24Z" style="fill:#dcc69a;fill-rule:evenodd"/><path d="M104.84,47.5c.51,0,1.06,0,1.42.49C105.72,48,105.14,48.17,104.84,47.5Z" style="fill:#8d857c;fill-rule:evenodd"/><path d="M114.86,66.89a.47.47,0,0,1-.57.26A.53.53,0,0,1,114.86,66.89Z" style="fill:#a0908c;fill-rule:evenodd"/><path d="M124,64.38h1.92C124.79,65.59,124.62,65.59,124,64.38Z" style="fill:#7aa27d;fill-rule:evenodd"/><path d="M18.85,35.53a4.35,4.35,0,0,1-2.52.57H12.75a10.08,10.08,0,0,1-9.82-6.52c-2-4.83-.07-13.29,7.32-14.07a.76.76,0,0,1,.11.69,2.32,2.32,0,0,1-1.09.89c-4.68,2.53-6.64,6.83-5.2,11.39,1.28,4,6.4,7,11.16,6.35a6.64,6.64,0,0,1,3.06-.14C18.66,34.86,18.94,35.07,18.85,35.53Z" style="fill:#8e7f76;fill-rule:evenodd"/><path d="M55.81,36c-1,.14-1.9.24-2.41-.87A.63.63,0,0,0,52.5,35c-.19.13-.38.28-.58.4-2.75,1.58-3.43,1.48-5.69-.82-2-.32-1.34-2.11-1.82-3.28a1.82,1.82,0,0,1,.28-1.46c.84-.3,1.07.4,1.45.87.4.69.62,1.47,1.08,2.12.67,1,1.49,1.72,2.77,1.47A2.93,2.93,0,0,0,52.22,32c1-3,.34-6-.17-9-.16-.93-.63-1.83-.21-2.8a.39.39,0,0,1,.62-.06c1.07-.15.61-1.52,1.47-1.84a1.65,1.65,0,0,1,.47.71c.36,4.09.07,8.2.17,12.3a9.58,9.58,0,0,0,.19,2.81C54.88,34.92,56,35.12,55.81,36Z" style="fill:#807773;fill-rule:evenodd"/><path d="M52.46,20.2l-.67.06c-3.6-1.14-4.16-.77-5,3.22-.14.67,0,1.68-1.22,1.43a7.29,7.29,0,0,1-.07-1.5c.12.48-.22,1.5.46,2.31-.76,1.59-1.35.89-1.65-.21a18.54,18.54,0,0,1-.2-4.37c-.21,1,0,2-.21,2.9-.46,2.5-2.21,3.16-4.49,1.69.35-1.14,1.41-.17,2-.67.94-.49,1-1.35,1-2.25a11.72,11.72,0,0,1,.14-3.31c.56-1.89,1.71-2.14,3-.67a7.4,7.4,0,0,1,.57.85c1.26-.7,2.18-2.14,3.76-1.8A4.47,4.47,0,0,1,52.46,20.2Z" style="fill:#8a817e;fill-rule:evenodd"/><path d="M55.81,36c-.31-.59-1.16-.32-1.46-.92l.17-.32c1.08-1.14.61-2.57.66-3.88.13-3,.52-3.56,3.47-4.15,2.43-.48,3.49-2.08,3-4.51a7.22,7.22,0,0,1-.34-1.88c.1-.38.23-.72.73-.61A5.28,5.28,0,0,1,63.14,25c-.83,2.34-1.79,3.17-4.27,3.39-1.88.16-2,.28-2.06,2.1,0,1.19,0,2.37,0,3.56C56.8,34.9,56.77,35.69,55.81,36Z" style="fill:#8c7b75;fill-rule:evenodd"/><path d="M45.3,35.13a1.48,1.48,0,0,1-2,.87c-1-.28-1-1.11-1-1.93,0-1.19,0-2.38,0-3.57a3.16,3.16,0,0,0-.24-1.63A1.42,1.42,0,0,0,40.75,28c-.8,0-.75.69-.76,1.23,0,1.27,0,2.54,0,3.81,0,.69.2,1.45-.47,2a2.09,2.09,0,0,1-1-1.32,19.42,19.42,0,0,1-.19-4.53c0-1.42.17-2.74,2.14-2.77s3.06.64,3.42,2.55A22,22,0,0,1,44,32.33c0,.71-.09,1.48.76,1.84C45.13,34.41,45.44,34.65,45.3,35.13Z" style="fill:#937c75;fill-rule:evenodd"/><path d="M39.06,34.13a1,1,0,0,1,.44.93c-2,.94-2.22.89-3.53-1.21-2.84,2.19-5.81,1.15-8.78.26A1.61,1.61,0,0,1,26,32.77c-.19-.48.09-.64.49-.73a20.31,20.31,0,0,0,4.29,1.38,4.86,4.86,0,0,0,3.64-.73c2.29-1.69,2.31-1.67,3.79.7A1.32,1.32,0,0,0,39.06,34.13Z" style="fill:#8c746d;fill-rule:evenodd"/><path d="M41.4,25.07c-.51.62-1.21.34-1.84.4-1.31.1-1-1-1.09-1.64a25.49,25.49,0,0,1-.05-3.15c-2.69,1.44-4.27-1.56-6.53-1.73a.45.45,0,0,1-.14-.4c0-.14.06-.21.09-.21a6.07,6.07,0,0,1,3.07.12c1.05.47,1.84.79,2.46-.59.29-.63,1-.67,1.7-.45A1.42,1.42,0,0,1,40,18.92c0,1.43,0,2.87,0,4.3C40,24.23,40.32,24.91,41.4,25.07Z" style="fill:#8a7974;fill-rule:evenodd"/><path d="M30,31.21c.64,0,1.28,0,1.91,0a1.31,1.31,0,0,0,1.37-1.1,1.5,1.5,0,0,0-.68-1.85,12,12,0,0,0-2.45-.92c-1.27-.37-2.69-.65-3.12-2.25a2.41,2.41,0,0,0-.38-.56q0-.71,0-1.42c.77-.16,1,.51,1.46.89,1.19,1.62,3.2,1.7,4.8,2.54,2.07,1.09,2.64,2.59,1.66,4.26-1.22,2.07-3.16,2.44-5.18,1C29.31,31.37,29.4,31,30,31.21Z" style="fill:#8a7a75;fill-rule:evenodd"/><path d="M15.49,15.46c4.48.48,8.77,4.26,8.61,8.12a.77.77,0,0,1-.64.18,15.14,15.14,0,0,0-8.14-7.65A.76.76,0,0,1,15.49,15.46Z" style="fill:#968981;fill-rule:evenodd"/><path d="M18.85,35.53,18.31,35a1,1,0,0,1,.53-1,7.93,7.93,0,0,0,3.74-4.88,1.47,1.47,0,0,1,.87-1,.78.78,0,0,1,.64.18C23.76,31.77,22.34,34.41,18.85,35.53Z" style="fill:#94897c;fill-rule:evenodd"/><path d="M27.44,24l-.84-.93c1-2.46,2.22-4.58,5.23-4.79v.54a.89.89,0,0,1-.57.94C29.2,20.52,28.62,22.55,27.44,24Z" style="fill:#96817a;fill-rule:evenodd"/><path d="M30,31.21l-.53.45c-.91.47-2.09-.44-2.9.55l-.54.56A1.83,1.83,0,0,1,26.4,30a1.86,1.86,0,0,1,2.41.31C29.18,30.65,29.57,30.92,30,31.21Z" style="fill:#93847e;fill-rule:evenodd"/><path d="M53.92,18.71a2.75,2.75,0,0,0,0-.35c1.89-1,3.79-.54,5.7,0a.46.46,0,0,1-.17.69,8.72,8.72,0,0,1-4.88.17A2.49,2.49,0,0,1,53.92,18.71Z" style="fill:#5c5757;fill-rule:evenodd"/><path d="M15.49,15.46c0,.16,0,.33,0,.49a5.32,5.32,0,0,1-5.24,0c0-.16,0-.33,0-.49A24.1,24.1,0,0,1,15.49,15.46Z" style="fill:#7f5f5f;fill-rule:evenodd"/><path d="M24.1,28.34H23.5a5,5,0,0,1,0-4.76h.57Q24.1,26,24.1,28.34Z" style="fill:#7c766c;fill-rule:evenodd"/><path d="M45.3,35.13l-.5-.53a2.4,2.4,0,0,1,0-3.36,1.59,1.59,0,0,1,.41,1.54c-.11.86.46,1.28,1,1.78Z" style="fill:#8f8683;fill-rule:evenodd"/><path d="M59.67,18.81l0-.48c1.11-.05,1.72.74,2.4,1.41l-.47.51C60.54,20.28,59.81,19.94,59.67,18.81Z" style="fill:#988782;fill-rule:evenodd"/><path d="M52.5,35c.4-.43.69-.34.91.17Z" style="fill:#8c7b75;fill-rule:evenodd"/><path d="M26.61,24.53l.38.56Z" style="fill:#96817a;fill-rule:evenodd"/><path d="M101.58,71.68a2.3,2.3,0,0,1-1.16,1.67C100.17,72.14,100.17,72.14,101.58,71.68Z" style="fill:#957c74;fill-rule:evenodd"/><path d="M105.65,74.77c-.36-.08-.65-.29-.61-.62a1,1,0,0,1,1-.89.42.42,0,0,1,.42.48C106.36,74.21,106.22,74.68,105.65,74.77Z" style="fill:#6c5e5c;fill-rule:evenodd"/><path d="M108.76,75.34c.09-.42.13-.92.68-1a.37.37,0,0,1,.39.45,1.16,1.16,0,0,1-.59.94C109,75.81,108.83,75.62,108.76,75.34Z" style="fill:#a4887d;fill-rule:evenodd"/><path d="M33.76,136.45l.52.42a5.56,5.56,0,0,1-3.79.62C31.5,136.47,32.73,136.75,33.76,136.45Z" style="fill:#856861;fill-rule:evenodd"/><path d="M32.28,87.45c-.64-.63-1.44-1.05-1.22-2.31.13-.73-.94-1.16-1.55-1.65.41-.64.91-.42,1.38-.11s.82.71,1.42.65c.2.73.37,1.46.6,2.17A.9.9,0,0,1,32.28,87.45Z" style="fill:#807d7f;fill-rule:evenodd"/><path d="M38.66,85.91l-.37-.19c.06-.05.13-.16.17-.15a2.21,2.21,0,0,1,.38.17Z" style="fill:#9d6f74;fill-rule:evenodd"/><path d="M43.65,119.6c.3,1.94-.48,3.82-.34,5.75-.66.75-.24,1.66-.38,2.49s-.59,1.58-1.45,1.59A1.53,1.53,0,0,1,40,127.88c-.1-1-.08-2-.11-3.05a11.69,11.69,0,0,1,1.19-4C41.58,119.79,42.25,118.79,43.65,119.6Z" style="fill:#f3f3f3;fill-rule:evenodd"/><path d="M120.91,42.66a5.9,5.9,0,0,1-3.26,1.45C118.69,42.74,119.54,42.08,120.91,42.66Z" style="fill:#96806f;fill-rule:evenodd"/><path d="M109.7,41a3.24,3.24,0,0,1-1.5-2.62C109.82,38.93,109.6,40.06,109.7,41Z" style="fill:#9a9079;fill-rule:evenodd"/><path d="M129.12,32.64a1.93,1.93,0,0,1,2.48-1.23c-.26,1-1.14,1.06-1.81,1.38Z" style="fill:#aaa4a4;fill-rule:evenodd"/><path d="M49.6,120.57c0,.35-.09.71-.48.72-.69,0-.94-.46-1-1.06a.69.69,0,0,1,.65-.82C49.51,119.43,49.56,120,49.6,120.57Z" style="fill:#877a6c;fill-rule:evenodd"/><path d="M40.49,110.4c-.17.31-.3.67-.74.68,0,0-.12-.12-.11-.18.08-.5.54-.37.85-.49Z" style="fill:#a8acac;fill-rule:evenodd"/><path d="M23.52,23.58q0,2.38,0,4.76a4.05,4.05,0,0,0-.38.85A8.23,8.23,0,0,1,18.31,35c-2.37.13-4.7.74-7.11.16-5.45-1.32-9.1-5.8-8-11.63a8.58,8.58,0,0,1,6-7.07c.37-.12.8-.13,1-.5l5.24,0c.81.71,1.91.66,2.84,1.12A9.94,9.94,0,0,1,23.52,23.58Z" style="fill:#fefefe;fill-rule:evenodd"/><path d="M44.85,31.24q0,1.68,0,3.36c-.72.48-1.41.68-1.46-.51-.08-1.67,0-3.34,0-5,0-.84-.11-1.67-1-1.94a4,4,0,0,0-2.81,0c-.58.26-.5.95-.49,1.5,0,1.83.06,3.66.09,5.49-.73.68-1.36.93-1.64-.37-.07-.31-.11-.63-.16-.94s-.06-.86-.47-1-.84.2-1.19.55a6.52,6.52,0,0,1-9.07-.14c.33-1.61.43-1.68,1.65-1.16.43.18.84.41,1.25.61,2.21.91,3.37.73,4.43-.7a2.28,2.28,0,0,0-.64-3.64,8.22,8.22,0,0,0-2.67-1A3.89,3.89,0,0,1,27.44,24c.16-2.84,2.14-4.13,4.41-5.18a6.23,6.23,0,0,1,5.38,2.27c1-.8.23-2.16,1.23-2.78.79.23.63.86.63,1.38,0,1.35-.06,2.69-.07,4,0,.62-.15,1.3.55,1.69a1.49,1.49,0,0,0,1.28.47c1.95.09,2.31-.26,2.38-2.3,0-1,0-1.9.08-2.85a5.77,5.77,0,0,1,.14-1.18c.1-.4.35-.71.83-.62s.48.41.48.72c0,1.27,0,2.54,0,3.8,0,.79,0,1.58,0,2.37,0,.34.26.58.64.39s.27-.52.27-.82q-.17-.18-.08-.31c.05-.08.11-.12.15-.12.45-.43.37-1,.43-1.53a8.38,8.38,0,0,1,.29-1.84c1.12-3.24,2.74-3.66,5.3-1.4A23.8,23.8,0,0,1,53.1,31.47a4,4,0,0,1-1.53,2.83,2.9,2.9,0,0,1-4.4-.33,7.88,7.88,0,0,1-1.47-3.21c-.36-.24.13-1.23-.84-.93Q44.85,30.53,44.85,31.24Z" style="fill:#fdfdfd;fill-rule:evenodd"/><path d="M53.92,18.71l.53.14a2.21,2.21,0,0,1,.61,1.52c.15,4.39.07,8.77,0,13.16A2.25,2.25,0,0,1,54.43,35l-.07.06c-.63-.57-.44-1.33-.44-2C53.9,28.29,53.92,23.5,53.92,18.71Z" style="fill:#8c7b75;fill-rule:evenodd"/><path d="M44.85,29.83c.13-.53.44-.61.7-.16a2.89,2.89,0,0,1,.13,1.09Z" style="fill:#8f8683;fill-rule:evenodd"/><path d="M45.77,25a.81.81,0,0,1-.08.43c-.78-.9-.37-1.89-.23-2.86C45.92,23.37,45.59,24.23,45.77,25Z" style="fill:#5f5e5e;fill-rule:evenodd"/><path d="M54.43,35c-.09-5.4-.45-10.8,0-16.2l5.21,0,1.89,1.44a13.47,13.47,0,0,1,.85,2.47,4.14,4.14,0,0,1-3.84,4.78c-2.64-.05-2.72.22-2.73,3,0,1.2,0,2.39,0,3.59S55.23,35.21,54.43,35Z" style="fill:#fafcfc;fill-rule:evenodd"/><path d="M19.29,23.58c1.22,3-.11,5.32-2.18,7.25s-4.65,2-7.15.85A6.28,6.28,0,0,1,8.7,21.29c.89-.74,1.63-1.79,2.94-1.93a4.28,4.28,0,0,0,.49.29,7.67,7.67,0,0,1,1.75.35c2.51,1.27,4.31,3,4.56,6.12a7.9,7.9,0,0,1,.06-2.06C18.66,23.74,18.87,23.48,19.29,23.58Z" style="fill:#786f6c;fill-rule:evenodd"/><path d="M19.29,23.58l-.44.48c-1.78-.57-2-2.85-3.77-3.43a1.39,1.39,0,0,1-.3-.6.88.88,0,0,1,.23-.61,3.57,3.57,0,0,0,2.75,0c1-.49,2,.49,1.41,1.25C18.28,21.86,19.31,22.64,19.29,23.58Z" style="fill:#8c7f78;fill-rule:evenodd"/><path d="M15,19.42v.21c-1.1.8-2.23.31-3.35,0a2.24,2.24,0,0,0,0-.31A5.27,5.27,0,0,1,15,19.42Z" style="fill:#895c5a;fill-rule:evenodd"/><path d="M47.06,27.39a12.62,12.62,0,0,1,.67-4.46,1.68,1.68,0,0,1,1.71-1.37,1.58,1.58,0,0,1,1.48,1.34c.66,2.29,1.34,4.6.73,7A6.5,6.5,0,0,1,51,31.7a1.69,1.69,0,0,1-3.08.07C47,30.44,47.07,28.9,47.06,27.39Z" style="fill:#8f7a75;fill-rule:evenodd"/><path d="M31.66,25.08c-1.44-1-1.72-1.7-1.08-2.8A3.06,3.06,0,0,1,34.26,21c1,.52,1.75,1.31,2.73,1.86.72.41.77,2.77.22,3.53a.67.67,0,0,1-1,.16c-.33-.21-.65-.44-1-.66a.47.47,0,0,1-.15-.38c0-.14,0-.21.06-.21.94-1.42-.18-2-1.13-2.56s-1.72-.39-1.77.93a6.7,6.7,0,0,1,.28.88.76.76,0,0,1-.23.56A1.29,1.29,0,0,1,31.66,25.08Z" style="fill:#917b76;fill-rule:evenodd"/><path d="M35.19,25.52a4,4,0,0,0,0,.4,5.53,5.53,0,0,1-3.56-.84l.71-.1A1.85,1.85,0,0,1,35.19,25.52Z" style="fill:#8f908e;fill-rule:evenodd"/><path d="M56,23.18c.05-2,.62-2.62,2.26-2.55A3,3,0,0,1,61,23.34c0,1.38-1.43,2.55-3.15,2.53C56.54,25.86,55.95,25,56,23.18Z" style="fill:#a3867c;fill-rule:evenodd"/><path d="M17.42,27.81c0,2.42-3.38,4.51-5.83,3.63a6.28,6.28,0,0,1-4.18-5.11,4.57,4.57,0,0,1,2.24-4.4c2-1.11,3.2-1,4.81.35A7.61,7.61,0,0,1,17.42,27.81Z" style="fill:#84736f;fill-rule:evenodd"/><path d="M15,20.21c2,.6,2.79,2.33,3.83,3.85v2.66c-1.22-1.2-1.32-2.67-2.11-3.77s-2.24-1.7-3.17-2.75A1.18,1.18,0,0,1,15,20.21Z" style="fill:#c5b28f;fill-rule:evenodd"/><path d="M15,20.21H13.57c-.67-.06-1.46.3-1.92-.53l3.35,0Z" style="fill:#8fb591;fill-rule:evenodd"/><path d="M50.55,26c.91,1.72.44,3.39-.19,5a1,1,0,0,1-1.16.64c-.43-.07-.84-.35-.86-.73-.14-2.71-.88-5.51.79-8.16A2.32,2.32,0,0,1,50.44,25c-2.23.77-.77,2.44-1.06,3.68C50.3,28,49.64,26.68,50.55,26Z" style="fill:#d69680;fill-rule:evenodd"/><path d="M50.55,26c-.11,1.1.19,2.23-.25,3.3-.14.35-.27.8-.77.79a.88.88,0,0,1-.85-1,32.9,32.9,0,0,1,0-3.57c.08-1.32.37-1.38,1.8-.52Z" style="fill:#ddbd96;fill-rule:evenodd"/><path d="M35.19,25.52A9.43,9.43,0,0,0,32.37,25a4.1,4.1,0,0,1-.05-.48c.29-.38.8-.46,1.25-.84-.82-.42-1.21.32-1.76.43a1,1,0,0,1,0-1.61A1.8,1.8,0,0,1,34,22a7.1,7.1,0,0,1,2,1.66C36.82,24.6,36.74,24.75,35.19,25.52Z" style="fill:#d0937f;fill-rule:evenodd"/><path d="M31.8,24.09a1.36,1.36,0,0,1,1-1.42,1.44,1.44,0,0,1,1.51.37.91.91,0,0,1,.28.85c-.19.73-.81.59-1.34.62-.31,0-.63,0-.94,0Z" style="fill:#dcb894;fill-rule:evenodd"/><path d="M57.25,23.41c0-.71,0-1.56,1-1.59a1.58,1.58,0,0,1,1.65,1.4c.14.76-.87,1.71-1.68,1.61S57.29,24.07,57.25,23.41Z" style="fill:#d8be97;fill-rule:evenodd"/></svg>