<svg xmlns="http://www.w3.org/2000/svg" viewBox="0 0 703 47.96"><title>アセット 1</title><line x1="138.96" y1="23.89" x2="297.75" y2="23.89" style="stroke:#000;stroke-miterlimit:10"/><line x1="412.96" y1="23.89" x2="571.75" y2="23.89" style="stroke:#000;stroke-miterlimit:10"/><rect y="0.86" width="144" height="46" style="fill:#cacccd"/><rect x="283" y="0.86" width="144" height="46" style="fill:#cacccd"/><rect x="559" y="0.86" width="144" height="46" style="fill:#cacccd"/><path d="M178.18,7.66c0,2.34-1.12,3-2.58,3a3.37,3.37,0,0,1-1.14-.19l.14-.82a2.73,2.73,0,0,0,.92.16c1.05,0,1.66-.47,1.66-2.28V1.43h1Z" transform="translate(0 -0.42)"/><path d="M183.69,6.18A2.29,2.29,0,0,1,185,8.09a13.32,13.32,0,0,0,.67,2.47h-1a12,12,0,0,1-.59-2.21c-.26-1.27-.77-1.83-1.85-1.83h-1.12v4h-1v-9a10.8,10.8,0,0,1,2.08-.19,3.48,3.48,0,0,1,2.51.74,2.3,2.3,0,0,1,.68,1.7,2.4,2.4,0,0,1-1.7,2.34Zm-1.39-.43a1.84,1.84,0,0,0,2.09-1.82c0-1.35-1-1.77-2.13-1.77a5.36,5.36,0,0,0-1.13.1v3.5Z" transform="translate(0 -0.42)"/><path d="M196.36,7.9h-3.25a11.9,11.9,0,0,0,4.5,2.81,3.52,3.52,0,0,0-.56.7,12.87,12.87,0,0,1-4.64-3.23v3.41h-.83V8.22A13.11,13.11,0,0,1,187,11.38a3.34,3.34,0,0,0-.56-.67,12.17,12.17,0,0,0,4.41-2.81h-3.06V3.47h3.75V2.38h-4.82V1.61h4.82V.45l1.07.06c0,.08-.07.14-.24.17v.94h5v.77h-5V3.47h4Zm-7.75-3.77V5.37h3V4.13Zm0,1.86V7.25h3V6Zm6.93-1.86H192.4V5.37h3.14Zm0,3.12V6H192.4V7.25Z" transform="translate(0 -0.42)"/><path d="M198.87,3.82A8.36,8.36,0,0,1,201,5.07l-.48.65a8.43,8.43,0,0,0-2.05-1.31Zm-.14,7.12A34.74,34.74,0,0,0,200.65,7l.64.46a35.07,35.07,0,0,1-1.74,3.69.35.35,0,0,1,.07.19.2.2,0,0,1,0,.12ZM201,2.54a8.94,8.94,0,0,0-2-1.4l.47-.58a8.24,8.24,0,0,1,2.05,1.34Zm8.55,4.64h-1.07c0,.78-.07,1.43-.12,1.94h1.12v.72h-1.19c-.22,1.68-.62,1.73-1.78,1.73-.29,0-.62,0-.95,0a1.81,1.81,0,0,0-.22-.7c.66,0,1.25,0,1.52,0s.53-.31.64-1.06H203l-.1.6-.77-.07c.14-.84.31-2,.47-3.19h-1.25V6.43h1.33c.11-.89.2-1.77.26-2.54h5.28l.43,0c0,.07,0,.18,0,.25l-.07,2.27h1Zm-.07-4.46h-6.15A9.52,9.52,0,0,1,202,5a6.39,6.39,0,0,0-.61-.48,11,11,0,0,0,2-4.09l1,.26c0,.08-.11.13-.26.13q-.18.58-.4,1.15h5.84Zm-4.58,6.4c.06-.56.12-1.24.19-1.94h-1.79c-.08.68-.17,1.34-.25,1.94Zm.25-2.69c0-.62.08-1.25.12-1.82h-1.68c-.06.59-.13,1.2-.2,1.82Zm.64.74c-.06.71-.12,1.39-.18,1.94h2c0-.5.08-1.14.12-1.94ZM206,4.61c0,.58-.08,1.2-.13,1.82h1.92c0-.54,0-1.15.06-1.82Z" transform="translate(0 -0.42)"/><path d="M213.08,5.23V9.16c.94,1.43,2.65,1.43,4.81,1.43,1.29,0,2.82,0,3.75-.1a3,3,0,0,0-.26.82c-.83,0-2.15.06-3.33.06-2.47,0-4.11,0-5.33-1.49-.59.53-1.22,1.07-1.74,1.48a.16.16,0,0,1-.11.19l-.47-.89a20.72,20.72,0,0,0,1.89-1.46V6h-1.76V5.23ZM211.29.74a8.89,8.89,0,0,1,2.15,1.89l-.64.54a8.61,8.61,0,0,0-2.11-2Zm3.44,3.18h2.05c.08-.34.17-.73.23-1.09H213.7v-.7h2.17A5.27,5.27,0,0,0,215,.74l.62-.28a4.93,4.93,0,0,1,.95,1.45l-.44.22h2.53L218.35,2a13.89,13.89,0,0,0,.9-1.57l1,.28c0,.07-.12.11-.25.12A13,13,0,0,1,219,2.13h2.39v.7h-3.59c-.08.32-.2.73-.32,1.09h2.85V9.83h-.8V9.41h-4.05v.42h-.78Zm4.83,1.63v-1h-4.05v1Zm-4.05.6v1h4.05v-1Zm0,2.63h4.05v-1h-4.05Z" transform="translate(0 -0.42)"/><path d="M233.32,3.86h-4.38a11.06,11.06,0,0,0,4.79,5,3.47,3.47,0,0,0-.61.71,12.09,12.09,0,0,1-4.69-5.11V8.44h2.4v.82h-2.4v2.33h-.84V9.25h-2.44V8.44h2.44V4.53a13,13,0,0,1-4.67,5.11,4.41,4.41,0,0,0-.58-.66,11.76,11.76,0,0,0,4.72-5.12h-4.33V3h4.85V.45l1.08.06c0,.08-.07.14-.24.17V3h4.89Z" transform="translate(0 -0.42)"/><path d="M237.82,4.31a10.1,10.1,0,0,1,1.33,2.48l-.65.31a5,5,0,0,0-.28-.72l-1.07.06v5.13h-.72V6.48l-1.75.07a.21.21,0,0,1-.17.16l-.22-.9h.84c.26-.32.54-.7.83-1.1a11.63,11.63,0,0,0-1.55-1.78l.42-.52.38.36A18.09,18.09,0,0,0,236.37.44l.85.36q-.05.11-.25.11a18.92,18.92,0,0,1-1.29,2.33,8.69,8.69,0,0,1,.72.85,24.22,24.22,0,0,0,1.34-2.28l.84.4a.31.31,0,0,1-.26.11A34.61,34.61,0,0,1,235.9,5.8l2,0a11.46,11.46,0,0,0-.71-1.19ZM236,7.57a.24.24,0,0,1-.24.12,11.06,11.06,0,0,1-.8,2.88c-.17-.11-.43-.23-.6-.31a10.37,10.37,0,0,0,.76-2.91Zm2.24-.24a10.28,10.28,0,0,1,.8,2.23c-.14,0-.29.11-.67.23a9.88,9.88,0,0,0-.76-2.27ZM241,7l.46.2a.19.19,0,0,1-.08.11,5.53,5.53,0,0,1-2.59,3.83,2.57,2.57,0,0,0-.52-.56,4.48,4.48,0,0,0,2.25-2.84H238.8v-.7h2.09Zm1.49-1.1A6.34,6.34,0,0,0,243.22,8a13.41,13.41,0,0,0,1.62-1.51l.77.58a.26.26,0,0,1-.26.06,21.48,21.48,0,0,1-1.79,1.43,5.1,5.1,0,0,0,2.22,1.89,4,4,0,0,0-.49.67A6.19,6.19,0,0,1,242.51,8v2.69c0,.82-.34.89-1.92.89a2.77,2.77,0,0,0-.23-.72h1.21c.16,0,.19,0,.19-.18V5.94h-2.4V1.7h1.92a10.6,10.6,0,0,0,.53-1.27l1,.25c0,.07-.11.12-.24.12-.12.25-.29.59-.47.9h3V5.94Zm-2.4-3.57V3.5h4.19V2.37Zm0,1.76V5.27h4.19V4.13Z" transform="translate(0 -0.42)"/><path d="M195.5,47.32h-.95V44.8h-3.92v-.64l3.84-5.83h1V44h1.22v.77H195.5ZM191.64,44h2.92V40.84c0-.49,0-1,0-1.44h0c-.28.55-.49.94-.72,1.34L191.64,44Z" transform="translate(0 -0.42)"/><path d="M197.48,42.86c0-3.14,1.22-4.67,2.9-4.67s2.75,1.61,2.75,4.55c0,3.12-1.09,4.72-2.88,4.72C198.62,47.46,197.48,45.86,197.48,42.86Zm4.64-.07c0-2.24-.54-3.79-1.8-3.79-1.07,0-1.82,1.43-1.82,3.79s.66,3.86,1.79,3.86C201.62,46.65,202.12,44.92,202.12,42.79Z" transform="translate(0 -0.42)"/><path d="M208.54,37.81c0,.08-.13.12-.29.11a11.91,11.91,0,0,1-3.75,4.75,5,5,0,0,0-.64-.58,10.73,10.73,0,0,0,3.65-4.63Zm4.2,4h.19l.46,0c0,.08,0,.19,0,.29-.19,3.87-.37,5.26-.79,5.72s-.7.42-1.43.42c-.41,0-.92,0-1.44,0a1.87,1.87,0,0,0-.26-.8c.82.07,1.59.08,1.88.08a.61.61,0,0,0,.52-.16c.31-.31.5-1.56.66-4.75h-3.3c-.32,2.3-1,4.63-4.21,5.78a2.79,2.79,0,0,0-.52-.68c2.9-1,3.59-3,3.87-5.1h-2.58v-.79Zm-1.06-4.38a12.59,12.59,0,0,0,3.69,4.43,3.85,3.85,0,0,0-.67.72,15.84,15.84,0,0,1-3.79-4.83Z" transform="translate(0 -0.42)"/><path d="M483.49,40a2.52,2.52,0,0,1,2.1-1.1,2.57,2.57,0,0,1,2.54,2.87,2.88,2.88,0,0,1-2.76,3.14c-1.75,0-2.93-1.45-2.93-3.78s1.13-4.93,4-5.41a6.79,6.79,0,0,1,.84-.08v.83A3.78,3.78,0,0,0,483.46,40Zm3.63,1.83c0-1.38-.74-2.18-1.82-2.18a2,2,0,0,0-1.86,1.7c0,1.64.71,2.77,2,2.77C486.44,44.17,487.13,43.23,487.13,41.88Z" transform="translate(0 -0.42)"/><path d="M489.07,40.34c0-3.14,1.22-4.67,2.9-4.67s2.75,1.61,2.75,4.55c0,3.12-1.09,4.72-2.88,4.72C490.21,44.95,489.07,43.34,489.07,40.34Zm4.64-.07c0-2.24-.54-3.79-1.8-3.79-1.07,0-1.82,1.43-1.82,3.79s.66,3.86,1.79,3.86C493.21,44.13,493.71,42.41,493.71,40.27Z" transform="translate(0 -0.42)"/><path d="M500.13,35.29c0,.08-.13.12-.29.11a11.91,11.91,0,0,1-3.75,4.75,5,5,0,0,0-.64-.58,10.73,10.73,0,0,0,3.65-4.63Zm4.2,4h.19l.46,0c0,.08,0,.19,0,.29-.19,3.87-.37,5.26-.79,5.72s-.7.42-1.43.42c-.41,0-.92,0-1.44,0a1.87,1.87,0,0,0-.26-.8c.82.07,1.59.08,1.88.08a.61.61,0,0,0,.52-.16c.31-.31.5-1.56.66-4.75h-3.3c-.32,2.3-1,4.63-4.21,5.78a2.79,2.79,0,0,0-.52-.68c2.9-1,3.59-3,3.87-5.1h-2.58V39.3Zm-1.06-4.38A12.59,12.59,0,0,0,507,39.35a3.85,3.85,0,0,0-.67.72,15.84,15.84,0,0,1-3.79-4.83Z" transform="translate(0 -0.42)"/><path d="M482.3,8.48v.66h-2.15v1.63c0,.72-.23.82-1.89.82a2.5,2.5,0,0,0-.23-.66h1.18c.14,0,.18-.06.18-.18V9.14H474.5V8.48h4.89V7.81h-3.92v-4l-.34.31-.34-.32h-1.28V5.11c.35.34,1.3,1.36,1.5,1.62l-.47.71a15.81,15.81,0,0,0-1-1.42v5.53h-.78V5.91a13.48,13.48,0,0,1-1.31,3.35,4,4,0,0,0-.43-.7,14.83,14.83,0,0,0,1.64-4.79h-1.48V3h1.57V.42l1,.07c0,.08-.07.13-.23.16V3h1.31v.42a5.92,5.92,0,0,0,1.4-2.24l.89.26c0,.07-.11.11-.25.11-.08.22-.18.43-.29.65h3.78a5.87,5.87,0,0,1-.38-.9h-2.83V.71h3.36a4.52,4.52,0,0,0,1.79,2.61,2.16,2.16,0,0,0-.53.56,4.82,4.82,0,0,1-1.27-1.44V2.8h-.92v.91h2v4.1h-1.2a.42.42,0,0,1-.16,0v.62ZM476.49,2.8V2.38a6.8,6.8,0,0,1-.95,1.33h1.77V2.8Zm.89,8.1a7.93,7.93,0,0,0-1.5-1.3l.53-.37a8,8,0,0,1,1.54,1.25ZM478,4.25a1.62,1.62,0,0,1-1.14,1.62,2,2,0,0,0-.46-.4c1-.43,1-.92,1-1.22h-1.22V6h4.64V5.25c-.06.18-.28.28-.72.28h-.49c-.67,0-.67-.36-.67-.85V4.25Zm-1.8,2.33v.68h4.64V6.58Zm2.76-2.87V2.8h-1v.91ZM480.22,5c.13,0,.14-.14.17-.31a1.85,1.85,0,0,0,.41.2V4.25h-1.31v.5c0,.24,0,.28.2.28Z" transform="translate(0 -0.42)"/><path d="M487.62,8c0,.08-.11.14-.25.16-.32,1.72-1,2.88-3.85,3.45a2.5,2.5,0,0,0-.44-.71c2.59-.47,3.24-1.4,3.48-3Zm2.66,2.31c0,.35.1.42.65.42h1.91c.5,0,.6-.23.65-1.74a2.42,2.42,0,0,0,.74.34c-.1,1.74-.32,2.17-1.33,2.17h-2c-1.1,0-1.39-.25-1.39-1.19V7.55h-4.63V.87h7.64V7.55h-2.2Zm-4.67-8.73V2.88h6V1.58Zm0,2V4.86h6V3.54Zm0,2V6.87h6V5.52Z" transform="translate(0 -0.42)"/><path d="M497.91,9.7l1.92-.31,0,.68c-1.61.3-3.3.59-4.35.78a.22.22,0,0,1-.17.17l-.28-.9,2.1-.31V6.28h-2V5.56h2V4.18h-1.28V3.93c-.12.14-.24.28-.37.41a2.13,2.13,0,0,0-.56-.53A11.51,11.51,0,0,0,497.24.42l1,.16c0,.08-.08.14-.24.14l0,0a17.9,17.9,0,0,1,2,2l-.49.64a14.86,14.86,0,0,0-1.9-1.94,13.86,13.86,0,0,1-1.32,2h3v.71h-1.39V5.56h1.79v.72h-1.79ZM496,9.3A9.32,9.32,0,0,0,495.52,7l.58-.14a9.35,9.35,0,0,1,.56,2.25Zm3.68-2.23a.28.28,0,0,1-.25.11,17.79,17.79,0,0,1-.64,2L498.3,9a18.14,18.14,0,0,0,.6-2.22Zm6.49-.37h-2.6a6.49,6.49,0,0,0,2.73,4.25,2.63,2.63,0,0,0-.55.65,7.2,7.2,0,0,1-2.73-4.21,6.67,6.67,0,0,1-3.41,4.2,2.89,2.89,0,0,0-.55-.61,5.86,5.86,0,0,0,3.33-4.27h-2.64V5.94h2.75a15.72,15.72,0,0,0,.07-1.64V3.52h-1.39a7.8,7.8,0,0,1-.76,1.87,6.34,6.34,0,0,0-.63-.36A11.77,11.77,0,0,0,501,.94l1,.22c0,.08-.11.13-.25.13-.07.49-.17,1-.28,1.47h1.19V.45l1,.06c0,.08-.07.14-.24.17V2.76h2.35v.76h-2.35V4.3a15.31,15.31,0,0,1-.07,1.64h2.89Z" transform="translate(0 -0.42)"/><path d="M509.71,5.23V9.16c.94,1.43,2.65,1.43,4.81,1.43,1.3,0,2.82,0,3.75-.1a3,3,0,0,0-.26.82c-.83,0-2.15.06-3.33.06-2.47,0-4.11,0-5.33-1.49-.59.53-1.22,1.07-1.74,1.48a.16.16,0,0,1-.11.19l-.47-.89a20.85,20.85,0,0,0,1.89-1.46V6h-1.76V5.23ZM507.92.74a8.89,8.89,0,0,1,2.15,1.89l-.64.54a8.61,8.61,0,0,0-2.11-2Zm3.44,3.18h2.05c.08-.34.17-.73.23-1.09h-3.31v-.7h2.17a5.27,5.27,0,0,0-.86-1.39l.62-.28a4.93,4.93,0,0,1,.95,1.45l-.44.22h2.53L515,2a13.89,13.89,0,0,0,.9-1.57l1,.28c0,.07-.12.11-.25.12a13.1,13.1,0,0,1-.92,1.29h2.39v.7h-3.59c-.08.32-.2.73-.32,1.09H517V9.83h-.8V9.41h-4.05v.42h-.78Zm4.83,1.63v-1h-4.05v1Zm-4.05.6v1h4.05v-1Zm0,2.63h4.05v-1h-4.05Z" transform="translate(0 -0.42)"/><path d="M46.17,32.65H45.5v-1H34.39v1H33.7V24.53a28.11,28.11,0,0,1-6.3,2.94,2.16,2.16,0,0,0-.39-.62A26.26,26.26,0,0,0,36.07,22a27.1,27.1,0,0,0-4.92-4.44A22.74,22.74,0,0,1,27.7,20a2.47,2.47,0,0,0-.51-.48A21.1,21.1,0,0,0,35,11.86l.78.14a19.14,19.14,0,0,1-1.52,2.23h7.86l.16,0,.39.25a21.9,21.9,0,0,1-7.38,9H46.17ZM33.77,14.9a27.57,27.57,0,0,1-2.14,2.25,26.7,26.7,0,0,1,5,4.37A20.24,20.24,0,0,0,41.8,14.9ZM45.5,31V24.09H34.39V31Z" transform="translate(0 -0.42)"/><path d="M60.82,16.94v5.82H68v9.82h-.67V31.27H53.76v1.4h-.67V22.76h7.06V16.94h-9.7v-.67h9.7V11.86h.67v4.42h9.82v.67Zm6.53,6.49H53.76V30.6H67.35Z" transform="translate(0 -0.42)"/><path d="M76.19,19.33c0,3.89-.28,9.36-2.6,13.27a1.82,1.82,0,0,0-.58-.34c2.28-3.89,2.51-9.13,2.51-12.92V13.15H92.07v4.71H76.19ZM93.71,31.15v.67H75.84v-.67h8.42v-3.4H77.77v-.69h6.48V24.53l-7,.25-.12-.69L80,24a26.18,26.18,0,0,0,2.14-3.45H76.78v-.67h16v.67h-10A36,36,0,0,1,80.74,24c2.64-.07,5.82-.18,9-.32a24.1,24.1,0,0,0-3-2l.46-.41a23.82,23.82,0,0,1,5.17,3.84l-.46.48a14,14,0,0,0-1.43-1.33l-5.54.25v2.55H91.8v.69H84.95v3.4ZM76.19,13.81v3.38H91.41V13.81Z" transform="translate(0 -0.42)"/><path d="M95.92,31c.83-1.17,1.08-3.31,1.17-5.31l.62.12c-.12,2-.37,4.32-1.24,5.56Zm9.59-7.68a3.75,3.75,0,0,1,0,.44c-.32,5.84-.6,7.75-1.17,8.42a1.45,1.45,0,0,1-1.15.41,19.81,19.81,0,0,1-2.18-.07,2,2,0,0,0-.21-.67c1,.09,1.93.12,2.28.12s.55,0,.69-.23c.46-.48.78-2.44,1.06-7.75H97.25V12.92h8.23v.67H101.6v2.78H105V17H101.6v2.8H105v.67H101.6v2.85Zm-7.57-9.77v2.78h3V13.58Zm3,3.45h-3v2.8h3Zm-3,6.32h3V20.51h-3ZM99.21,26a22,22,0,0,1,.51,4.21l-.64.09a21.84,21.84,0,0,0-.46-4.21Zm1.77-.37a14.25,14.25,0,0,1,1.17,3.66l-.62.18a14.58,14.58,0,0,0-1.13-3.7Zm2.74,2.76a13,13,0,0,0-1.59-3.06l.53-.23a13.57,13.57,0,0,1,1.66,3Zm8.23-6.92c.71,4.88,2.21,8.81,5.08,10.65a2,2,0,0,0-.53.55c-2.92-2.07-4.48-6.07-5.2-11.2h-3.15v0c0,3.43-.32,8-2.71,11.06a2.53,2.53,0,0,0-.57-.39c2.37-3.06,2.6-7.34,2.6-10.67V12.92H116V21.5Zm-3.79-.67h7.2V13.58h-7.2Z" transform="translate(0 -0.42)"/><path d="M332.78,22.56c1.66,5.68,4.94,10.39,9.5,12.39a4,4,0,0,0-.51.6c-4.65-2.23-8-7.06-9.68-13h-.23c-.94,4.9-3.36,10.26-9.7,13a3.67,3.67,0,0,0-.53-.51c6.21-2.62,8.6-7.79,9.57-12.51h-9.13V21.9h9.22a39.61,39.61,0,0,0,.51-7h.67a46.57,46.57,0,0,1-.48,7h10v.67Z" transform="translate(0 -0.42)"/><path d="M352.28,28.63l-7.5,2.85-.25-.69,3.52-1.27V21.32h-3.17v-.67h3.17V15.09h.69v5.56h2.94v.67h-2.94v8L352.17,28Zm13.08,5.27v.67H350V33.9ZM365,17H351.73v-.67H365ZM353.59,30.91V20.06h9.77V30.91Zm.69-10.16v4h8.39v-4Zm8.39,9.47V25.46h-8.39v4.76Z" transform="translate(0 -0.42)"/><path d="M367.42,34c.83-1.17,1.08-3.31,1.17-5.31l.62.12c-.12,2-.37,4.32-1.24,5.56ZM377,26.36a3.75,3.75,0,0,1,0,.44c-.32,5.84-.6,7.75-1.17,8.42a1.45,1.45,0,0,1-1.15.41,19.81,19.81,0,0,1-2.18-.07,2,2,0,0,0-.21-.67c1,.09,1.93.12,2.28.12s.55,0,.69-.23c.46-.48.78-2.44,1.06-7.75h-7.54V15.92H377v.67H373.1v2.78h3.36V20H373.1v2.8h3.36v.67H373.1v2.85Zm-7.57-9.77v2.78h3V16.58Zm3,3.45h-3v2.8h3Zm-3,6.32h3V23.51h-3ZM370.71,29a22,22,0,0,1,.51,4.21l-.64.09a21.84,21.84,0,0,0-.46-4.21Zm1.77-.37a14.25,14.25,0,0,1,1.17,3.66l-.62.18a14.58,14.58,0,0,0-1.13-3.7Zm2.74,2.76a13,13,0,0,0-1.59-3.06l.53-.23a13.57,13.57,0,0,1,1.66,3Zm8.23-6.92c.71,4.88,2.21,8.81,5.08,10.65a2,2,0,0,0-.53.55c-2.92-2.07-4.48-6.07-5.2-11.2h-3.15v0c0,3.43-.32,8-2.71,11.06a2.53,2.53,0,0,0-.57-.39c2.37-3.06,2.6-7.34,2.6-10.67V15.92h8.58V24.5Zm-3.79-.67h7.2V16.58h-7.2Z" transform="translate(0 -0.42)"/><path d="M604.18,27.28a31.7,31.7,0,0,0-2.44-2.69V35.53h-.69V22.77a28.74,28.74,0,0,1-3,8.16,2,2,0,0,0-.53-.55c1.38-2.07,2.69-6.21,3.29-9.75h-3v-.69h3.2V14.86h.69v5.08h2.41v.69h-2.41v3.13c.69.62,2.53,2.44,3,2.94ZM614.44,30h3.93v.69h-3.93v3.89c0,.53-.12.74-.53.85a12.32,12.32,0,0,1-2.74.14,3,3,0,0,0-.28-.64c1.26,0,2.21,0,2.51,0s.37-.12.37-.34V30.73h-9.91V30h9.91V28.29h-8V20.77h4V18.93h-2.16v-.69h7.82v.69h-2.21v1.84h4.18v7.52h-3ZM608.2,16.49A11.74,11.74,0,0,1,605,20.86a4.61,4.61,0,0,0-.6-.41,10.19,10.19,0,0,0,3.08-4.12Zm-1.72,4.94v4h10.23V24.06a1.39,1.39,0,0,1-.32,0H614c-1.08,0-1.4-.12-1.4-1V21.44h-2.09v.62c0,.92-.67,2-2.74,2.74a1.61,1.61,0,0,0-.48-.48c2-.67,2.53-1.49,2.53-2.28v-.6Zm0,6.16h10.23V26.1H606.48Zm.83,3.77a18.39,18.39,0,0,1,3.15,2.35l-.51.48a16,16,0,0,0-3.15-2.41Zm7.75-15.94a9.43,9.43,0,0,0,3.47,4.48,2.86,2.86,0,0,0-.55.51,10.28,10.28,0,0,1-3.33-4.3H609v-.69Zm-4.6,5.33h2.09V18.93h-2.09Zm6.25.67h-3.5v1.63c0,.3.09.34.71.34h2.3c.32,0,.44,0,.48,0Z" transform="translate(0 -0.42)"/><path d="M639.39,34.73c1.08,0,1.24-.41,1.33-3.43a1.64,1.64,0,0,0,.67.32c-.12,3.06-.37,3.79-2,3.79H635c-1.63,0-2.12-.23-2.12-1.4V28.45h-4.76c-.6,3.77-2.3,6-7.06,7.08a3.15,3.15,0,0,0-.44-.57c4.64-1,6.25-3.1,6.78-6.51H624V15.78h14V28.45h-4.42V34c0,.58.23.71,1.38.71Zm-14.72-15H637.3V16.45H624.67Zm0,4H637.3V20.42H624.67Zm0,4H637.3V24.4H624.67Z" transform="translate(0 -0.42)"/><path d="M643.42,34c.83-1.17,1.08-3.31,1.17-5.31l.62.12c-.12,2-.37,4.32-1.24,5.56ZM653,26.36a3.75,3.75,0,0,1,0,.44c-.32,5.84-.6,7.75-1.17,8.42a1.45,1.45,0,0,1-1.15.41,19.81,19.81,0,0,1-2.18-.07,2,2,0,0,0-.21-.67c1,.09,1.93.12,2.28.12s.55,0,.69-.23c.46-.48.78-2.44,1.06-7.75h-7.54V15.92H653v.67H649.1v2.78h3.36V20H649.1v2.8h3.36v.67H649.1v2.85Zm-7.57-9.77v2.78h3V16.58Zm3,3.45h-3v2.8h3Zm-3,6.32h3V23.51h-3ZM646.71,29a22,22,0,0,1,.51,4.21l-.64.09a21.84,21.84,0,0,0-.46-4.21Zm1.77-.37a14.25,14.25,0,0,1,1.17,3.66l-.62.18a14.58,14.58,0,0,0-1.13-3.7Zm2.74,2.76a13,13,0,0,0-1.59-3.06l.53-.23a13.57,13.57,0,0,1,1.66,3Zm8.23-6.92c.71,4.88,2.21,8.81,5.08,10.65a2,2,0,0,0-.53.55c-2.92-2.07-4.48-6.07-5.2-11.2h-3.15v0c0,3.43-.32,8-2.71,11.06a2.53,2.53,0,0,0-.57-.39c2.37-3.06,2.6-7.34,2.6-10.67V15.92h8.58V24.5Zm-3.79-.67h7.2V16.58h-7.2Z" transform="translate(0 -0.42)"/></svg>