<svg xmlns="http://www.w3.org/2000/svg" viewBox="0 0 146.32 146.81"><title>アセット 2</title><path d="M90.07,0H54.78A9.44,9.44,0,0,0,45.1,9.19a9.45,9.45,0,0,0,9.68,9.19H90.07a9.45,9.45,0,0,0,9.68-9.19A9.45,9.45,0,0,0,90.07,0Z" style="fill:#5ed55b"/><path d="M18.38,90.89V55.6a9.44,9.44,0,0,0-9.19-9.68A9.44,9.44,0,0,0,0,55.6V90.89a9.44,9.44,0,0,0,9.19,9.68A9.44,9.44,0,0,0,18.38,90.89Z" style="fill:#5ed55b"/><path d="M146.32,90.89V55.6a9.2,9.2,0,1,0-18.38,0V90.89a9.2,9.2,0,1,0,18.38,0Z" style="fill:#5ed55b"/><path d="M90.07,128.43H54.78a9.2,9.2,0,1,0,0,18.38H90.07a9.2,9.2,0,1,0,0-18.38Z" style="fill:#5ed55b"/></svg>