<svg xmlns="http://www.w3.org/2000/svg" viewBox="0 0 114.22 81.83"><title>アセット 3</title><path d="M105.58,0H8.64A8.43,8.43,0,0,0,0,8.21a8.44,8.44,0,0,0,8.64,8.21h96.93a8.43,8.43,0,0,0,8.64-8.2A8.43,8.43,0,0,0,105.58,0Z" style="fill:#5ed55b"/><path d="M105.58,32.6H8.64A8.43,8.43,0,0,0,0,40.81,8.43,8.43,0,0,0,8.64,49h96.93a8.43,8.43,0,0,0,8.64-8.21A8.43,8.43,0,0,0,105.58,32.6Z" style="fill:#5ed55b"/><path d="M105.58,65.42H8.64a8.22,8.22,0,1,0,0,16.41h96.93a8.22,8.22,0,1,0,0-16.41Z" style="fill:#5ed55b"/></svg>